<?xml version="1.0" encoding="UTF-8" standalone="no"?>
<!DOCTYPE svg PUBLIC "-//W3C//DTD SVG 1.1//EN"
 "http://www.w3.org/Graphics/SVG/1.1/DTD/svg11.dtd">
<!-- Generated by graphviz version 2.43.0 (0)
 -->
<!-- Title: ClinicalProtocol Pages: 1 -->
<svg width="1012pt" height="914pt"
 viewBox="0.00 0.00 1011.58 914.00" xmlns="http://www.w3.org/2000/svg" xmlns:xlink="http://www.w3.org/1999/xlink">
<g id="graph0" class="graph" transform="scale(1 1) rotate(0) translate(4 910)">
<title>ClinicalProtocol</title>
<polygon fill="white" stroke="transparent" points="-4,4 -4,-910 1007.58,-910 1007.58,4 -4,4"/>
<!-- InitialPop -->
<g id="node1" class="node">
<title>InitialPop</title>
<g id="a_node1"><a xlink:title="All patients prescribed medications known to increase serotonin levels.">
<path fill="none" stroke="green" d="M582.84,-906C582.84,-906 467.84,-906 467.84,-906 461.84,-906 455.84,-900 455.84,-894 455.84,-894 455.84,-882 455.84,-882 455.84,-876 461.84,-870 467.84,-870 467.84,-870 582.84,-870 582.84,-870 588.84,-870 594.84,-876 594.84,-882 594.84,-882 594.84,-894 594.84,-894 594.84,-900 588.84,-906 582.84,-906"/>
<text text-anchor="middle" x="525.34" y="-884.3" font-family="Times,serif" font-size="14.00" fill="green">Initial Population</text>
</a>
</g>
</g>
<!-- InteractingMeds -->
<g id="node6" class="node">
<title>InteractingMeds</title>
<g id="a_node6"><a xlink:title="Patients prescribed additional medications that may interact to increase the risk of serotonin syndrome.">
<ellipse fill="none" stroke="blue" cx="525.34" cy="-801" rx="122.38" ry="18"/>
<text text-anchor="middle" x="525.34" y="-797.3" font-family="Times,serif" font-size="14.00" fill="blue">Interacting Medications</text>
</a>
</g>
</g>
<!-- InitialPop&#45;&gt;InteractingMeds -->
<g id="edge1" class="edge">
<title>InitialPop&#45;&gt;InteractingMeds</title>
<path fill="none" stroke="blue" d="M525.34,-869.8C525.34,-858.16 525.34,-842.55 525.34,-829.24"/>
<polygon fill="blue" stroke="blue" points="528.84,-829.18 525.34,-819.18 521.84,-829.18 528.84,-829.18"/>
<text text-anchor="middle" x="530.34" y="-840.8" font-family="Times,serif" font-size="14.00" fill="blue">if</text>
</g>
<!-- ScreeningSubset -->
<g id="node2" class="node">
<title>ScreeningSubset</title>
<g id="a_node2"><a xlink:title="Patients prescribed additional medications that may interact to increase the risk of serotonin syndrome.">
<path fill="none" stroke="green" d="M639.84,-732C639.84,-732 410.84,-732 410.84,-732 404.84,-732 398.84,-726 398.84,-720 398.84,-720 398.84,-708 398.84,-708 398.84,-702 404.84,-696 410.84,-696 410.84,-696 639.84,-696 639.84,-696 645.84,-696 651.84,-702 651.84,-708 651.84,-708 651.84,-720 651.84,-720 651.84,-726 645.84,-732 639.84,-732"/>
<text text-anchor="middle" x="525.34" y="-710.3" font-family="Times,serif" font-size="14.00" fill="green">Subset Considered for Screening</text>
</a>
</g>
</g>
<!-- ExclusionHistory -->
<g id="node7" class="node">
<title>ExclusionHistory</title>
<g id="a_node7"><a xlink:title="Patients with a documented history of serotonin syndrome who are no longer on interacting medications.">
<ellipse fill="none" stroke="blue" cx="155.34" cy="-627" rx="155.17" ry="18"/>
<text text-anchor="middle" x="155.34" y="-623.3" font-family="Times,serif" font-size="14.00" fill="blue">History of Serotonin Syndrome</text>
</a>
</g>
</g>
<!-- ScreeningSubset&#45;&gt;ExclusionHistory -->
<g id="edge3" class="edge">
<title>ScreeningSubset&#45;&gt;ExclusionHistory</title>
<path fill="none" stroke="blue" d="M450.91,-695.9C387.31,-681.29 296.17,-660.35 231.95,-645.6"/>
<polygon fill="blue" stroke="blue" points="232.41,-642.12 221.88,-643.29 230.85,-648.94 232.41,-642.12"/>
<text text-anchor="middle" x="368.34" y="-666.8" font-family="Times,serif" font-size="14.00" fill="blue">if</text>
</g>
<!-- ExclusionDiscontinued -->
<g id="node8" class="node">
<title>ExclusionDiscontinued</title>
<g id="a_node8"><a xlink:title="Patients who have discontinued all serotonergic medications for at least 30 days.">
<ellipse fill="none" stroke="blue" cx="460.34" cy="-627" rx="131.08" ry="18"/>
<text text-anchor="middle" x="460.34" y="-623.3" font-family="Times,serif" font-size="14.00" fill="blue">Discontinued Medications</text>
</a>
</g>
</g>
<!-- ScreeningSubset&#45;&gt;ExclusionDiscontinued -->
<g id="edge5" class="edge">
<title>ScreeningSubset&#45;&gt;ExclusionDiscontinued</title>
<path fill="none" stroke="blue" d="M512.18,-695.8C502.84,-683.59 490.15,-666.99 479.67,-653.28"/>
<polygon fill="blue" stroke="blue" points="482.33,-650.99 473.47,-645.18 476.76,-655.25 482.33,-650.99"/>
<text text-anchor="middle" x="502.34" y="-666.8" font-family="Times,serif" font-size="14.00" fill="blue">if</text>
</g>
<!-- ExclusionPalliative -->
<g id="node9" class="node">
<title>ExclusionPalliative</title>
<g id="a_node9"><a xlink:title="Patients under palliative care where the risk of serotonin syndrome is outweighed by the benefits of symptom management.">
<ellipse fill="none" stroke="blue" cx="688.34" cy="-627" rx="78.79" ry="18"/>
<text text-anchor="middle" x="688.34" y="-623.3" font-family="Times,serif" font-size="14.00" fill="blue">Palliative Care</text>
</a>
</g>
</g>
<!-- ScreeningSubset&#45;&gt;ExclusionPalliative -->
<g id="edge7" class="edge">
<title>ScreeningSubset&#45;&gt;ExclusionPalliative</title>
<path fill="none" stroke="blue" d="M558.32,-695.8C584.57,-682.11 621.36,-662.93 649.11,-648.45"/>
<polygon fill="blue" stroke="blue" points="650.9,-651.47 658.15,-643.74 647.66,-645.26 650.9,-651.47"/>
<text text-anchor="middle" x="622.34" y="-666.8" font-family="Times,serif" font-size="14.00" fill="blue">if</text>
</g>
<!-- MedReview -->
<g id="node10" class="node">
<title>MedReview</title>
<g id="a_node10"><a xlink:title="Comprehensive medication review to identify potential drug interactions.">
<ellipse fill="none" stroke="blue" cx="883.34" cy="-627" rx="98.58" ry="18"/>
<text text-anchor="middle" x="883.34" y="-623.3" font-family="Times,serif" font-size="14.00" fill="blue">Medication Review</text>
</a>
</g>
</g>
<!-- ScreeningSubset&#45;&gt;MedReview -->
<g id="edge9" class="edge">
<title>ScreeningSubset&#45;&gt;MedReview</title>
<path fill="none" stroke="blue" d="M597.35,-695.9C661.21,-680.74 753.77,-658.76 816.14,-643.96"/>
<polygon fill="blue" stroke="blue" points="816.96,-647.36 825.88,-641.64 815.34,-640.55 816.96,-647.36"/>
<text text-anchor="middle" x="731.34" y="-666.8" font-family="Times,serif" font-size="14.00" fill="blue">if</text>
</g>
<!-- ExcludedPatients -->
<g id="node3" class="node">
<title>ExcludedPatients</title>
<g id="a_node3"><a xlink:title="Patients excluded based on specific criteria.">
<path fill="none" stroke="green" d="M521.34,-558C521.34,-558 399.34,-558 399.34,-558 393.34,-558 387.34,-552 387.34,-546 387.34,-546 387.34,-534 387.34,-534 387.34,-528 393.34,-522 399.34,-522 399.34,-522 521.34,-522 521.34,-522 527.34,-522 533.34,-528 533.34,-534 533.34,-534 533.34,-546 533.34,-546 533.34,-552 527.34,-558 521.34,-558"/>
<text text-anchor="middle" x="460.34" y="-536.3" font-family="Times,serif" font-size="14.00" fill="green">Excluded Patients</text>
</a>
</g>
</g>
<!-- DiagnosticInterventions -->
<g id="node4" class="node">
<title>DiagnosticInterventions</title>
<g id="a_node4"><a xlink:title="Patients undergoing diagnostic interventions for serotonin syndrome.">
<path fill="none" stroke="green" d="M967.84,-384C967.84,-384 798.84,-384 798.84,-384 792.84,-384 786.84,-378 786.84,-372 786.84,-372 786.84,-360 786.84,-360 786.84,-354 792.84,-348 798.84,-348 798.84,-348 967.84,-348 967.84,-348 973.84,-348 979.84,-354 979.84,-360 979.84,-360 979.84,-372 979.84,-372 979.84,-378 973.84,-384 967.84,-384"/>
<text text-anchor="middle" x="883.34" y="-362.3" font-family="Times,serif" font-size="14.00" fill="green">Diagnostic Interventions</text>
</a>
</g>
</g>
<!-- AddressInteractions -->
<g id="node13" class="node">
<title>AddressInteractions</title>
<g id="a_node13"><a xlink:title="Potential drug interactions are identified and addressed through medication adjustment or discontinuation.">
<ellipse fill="none" stroke="blue" cx="883.34" cy="-279" rx="107.48" ry="18"/>
<text text-anchor="middle" x="883.34" y="-275.3" font-family="Times,serif" font-size="14.00" fill="blue">Address Interactions</text>
</a>
</g>
</g>
<!-- DiagnosticInterventions&#45;&gt;AddressInteractions -->
<g id="edge13" class="edge">
<title>DiagnosticInterventions&#45;&gt;AddressInteractions</title>
<path fill="none" stroke="blue" d="M883.34,-347.8C883.34,-336.16 883.34,-320.55 883.34,-307.24"/>
<polygon fill="blue" stroke="blue" points="886.84,-307.18 883.34,-297.18 879.84,-307.18 886.84,-307.18"/>
<text text-anchor="middle" x="888.34" y="-318.8" font-family="Times,serif" font-size="14.00" fill="blue">if</text>
</g>
<!-- SuccessfulScreen -->
<g id="node5" class="node">
<title>SuccessfulScreen</title>
<g id="a_node5"><a xlink:title="Screen considered successful based on specific conditions.">
<path fill="none" stroke="green" d="M944.34,-36C944.34,-36 822.34,-36 822.34,-36 816.34,-36 810.34,-30 810.34,-24 810.34,-24 810.34,-12 810.34,-12 810.34,-6 816.34,0 822.34,0 822.34,0 944.34,0 944.34,0 950.34,0 956.34,-6 956.34,-12 956.34,-12 956.34,-24 956.34,-24 956.34,-30 950.34,-36 944.34,-36"/>
<text text-anchor="middle" x="883.34" y="-14.3" font-family="Times,serif" font-size="14.00" fill="green">Successful Screen</text>
</a>
</g>
</g>
<!-- InteractingMeds&#45;&gt;ScreeningSubset -->
<g id="edge2" class="edge">
<title>InteractingMeds&#45;&gt;ScreeningSubset</title>
<path fill="none" stroke="blue" d="M525.34,-782.8C525.34,-771.16 525.34,-755.55 525.34,-742.24"/>
<polygon fill="blue" stroke="blue" points="528.84,-742.18 525.34,-732.18 521.84,-742.18 528.84,-742.18"/>
<text text-anchor="middle" x="541.84" y="-753.8" font-family="Times,serif" font-size="14.00" fill="blue">then</text>
</g>
<!-- ExclusionHistory&#45;&gt;ExcludedPatients -->
<g id="edge4" class="edge">
<title>ExclusionHistory&#45;&gt;ExcludedPatients</title>
<path fill="none" stroke="blue" d="M211.99,-610.21C262.1,-596.25 335.44,-575.81 389.43,-560.76"/>
<polygon fill="blue" stroke="blue" points="390.58,-564.07 399.28,-558.02 388.71,-557.33 390.58,-564.07"/>
<text text-anchor="middle" x="342.84" y="-579.8" font-family="Times,serif" font-size="14.00" fill="blue">then</text>
</g>
<!-- ExclusionDiscontinued&#45;&gt;ExcludedPatients -->
<g id="edge6" class="edge">
<title>ExclusionDiscontinued&#45;&gt;ExcludedPatients</title>
<path fill="none" stroke="blue" d="M460.34,-608.8C460.34,-597.16 460.34,-581.55 460.34,-568.24"/>
<polygon fill="blue" stroke="blue" points="463.84,-568.18 460.34,-558.18 456.84,-568.18 463.84,-568.18"/>
<text text-anchor="middle" x="476.84" y="-579.8" font-family="Times,serif" font-size="14.00" fill="blue">then</text>
</g>
<!-- ExclusionPalliative&#45;&gt;ExcludedPatients -->
<g id="edge8" class="edge">
<title>ExclusionPalliative&#45;&gt;ExcludedPatients</title>
<path fill="none" stroke="blue" d="M649.14,-611.39C612.29,-597.65 556.76,-576.95 515.45,-561.55"/>
<polygon fill="blue" stroke="blue" points="516.67,-558.26 506.07,-558.05 514.22,-564.82 516.67,-558.26"/>
<text text-anchor="middle" x="604.84" y="-579.8" font-family="Times,serif" font-size="14.00" fill="blue">then</text>
</g>
<!-- ClinicalAssessment -->
<g id="node11" class="node">
<title>ClinicalAssessment</title>
<g id="a_node11"><a xlink:title="Clinical assessment for symptoms of serotonin syndrome.">
<ellipse fill="none" stroke="blue" cx="883.34" cy="-540" rx="103.18" ry="18"/>
<text text-anchor="middle" x="883.34" y="-536.3" font-family="Times,serif" font-size="14.00" fill="blue">Clinical Assessment</text>
</a>
</g>
</g>
<!-- MedReview&#45;&gt;ClinicalAssessment -->
<g id="edge10" class="edge">
<title>MedReview&#45;&gt;ClinicalAssessment</title>
<path fill="none" stroke="blue" d="M883.34,-608.8C883.34,-597.16 883.34,-581.55 883.34,-568.24"/>
<polygon fill="blue" stroke="blue" points="886.84,-568.18 883.34,-558.18 879.84,-568.18 886.84,-568.18"/>
<text text-anchor="middle" x="896.84" y="-579.8" font-family="Times,serif" font-size="14.00" fill="blue">and</text>
</g>
<!-- LabTests -->
<g id="node12" class="node">
<title>LabTests</title>
<g id="a_node12"><a xlink:title="Laboratory tests as indicated to rule out other causes of symptoms.">
<ellipse fill="none" stroke="blue" cx="883.34" cy="-453" rx="89.08" ry="18"/>
<text text-anchor="middle" x="883.34" y="-449.3" font-family="Times,serif" font-size="14.00" fill="blue">Laboratory Tests</text>
</a>
</g>
</g>
<!-- ClinicalAssessment&#45;&gt;LabTests -->
<g id="edge11" class="edge">
<title>ClinicalAssessment&#45;&gt;LabTests</title>
<path fill="none" stroke="blue" d="M883.34,-521.8C883.34,-510.16 883.34,-494.55 883.34,-481.24"/>
<polygon fill="blue" stroke="blue" points="886.84,-481.18 883.34,-471.18 879.84,-481.18 886.84,-481.18"/>
<text text-anchor="middle" x="896.84" y="-492.8" font-family="Times,serif" font-size="14.00" fill="blue">and</text>
</g>
<!-- LabTests&#45;&gt;DiagnosticInterventions -->
<g id="edge12" class="edge">
<title>LabTests&#45;&gt;DiagnosticInterventions</title>
<path fill="none" stroke="blue" d="M883.34,-434.8C883.34,-423.16 883.34,-407.55 883.34,-394.24"/>
<polygon fill="blue" stroke="blue" points="886.84,-394.18 883.34,-384.18 879.84,-394.18 886.84,-394.18"/>
<text text-anchor="middle" x="899.84" y="-405.8" font-family="Times,serif" font-size="14.00" fill="blue">then</text>
</g>
<!-- PatientEducation -->
<g id="node14" class="node">
<title>PatientEducation</title>
<g id="a_node14"><a xlink:title="Patients are educated about the signs and symptoms of serotonin syndrome.">
<ellipse fill="none" stroke="blue" cx="883.34" cy="-192" rx="93.68" ry="18"/>
<text text-anchor="middle" x="883.34" y="-188.3" font-family="Times,serif" font-size="14.00" fill="blue">Patient Education</text>
</a>
</g>
</g>
<!-- AddressInteractions&#45;&gt;PatientEducation -->
<g id="edge14" class="edge">
<title>AddressInteractions&#45;&gt;PatientEducation</title>
<path fill="none" stroke="blue" d="M883.34,-260.8C883.34,-249.16 883.34,-233.55 883.34,-220.24"/>
<polygon fill="blue" stroke="blue" points="886.84,-220.18 883.34,-210.18 879.84,-220.18 886.84,-220.18"/>
<text text-anchor="middle" x="896.84" y="-231.8" font-family="Times,serif" font-size="14.00" fill="blue">and</text>
</g>
<!-- FollowUp -->
<g id="node15" class="node">
<title>FollowUp</title>
<g id="a_node15"><a xlink:title="Follow&#45;up assessments are scheduled to monitor for the development of symptoms.">
<ellipse fill="none" stroke="blue" cx="883.34" cy="-105" rx="120.48" ry="18"/>
<text text-anchor="middle" x="883.34" y="-101.3" font-family="Times,serif" font-size="14.00" fill="blue">Follow&#45;Up Assessments</text>
</a>
</g>
</g>
<!-- PatientEducation&#45;&gt;FollowUp -->
<g id="edge15" class="edge">
<title>PatientEducation&#45;&gt;FollowUp</title>
<path fill="none" stroke="blue" d="M883.34,-173.8C883.34,-162.16 883.34,-146.55 883.34,-133.24"/>
<polygon fill="blue" stroke="blue" points="886.84,-133.18 883.34,-123.18 879.84,-133.18 886.84,-133.18"/>
<text text-anchor="middle" x="896.84" y="-144.8" font-family="Times,serif" font-size="14.00" fill="blue">and</text>
</g>
<!-- FollowUp&#45;&gt;SuccessfulScreen -->
<g id="edge16" class="edge">
<title>FollowUp&#45;&gt;SuccessfulScreen</title>
<path fill="none" stroke="blue" d="M883.34,-86.8C883.34,-75.16 883.34,-59.55 883.34,-46.24"/>
<polygon fill="blue" stroke="blue" points="886.84,-46.18 883.34,-36.18 879.84,-46.18 886.84,-46.18"/>
<text text-anchor="middle" x="899.84" y="-57.8" font-family="Times,serif" font-size="14.00" fill="blue">then</text>
</g>
</g>
</svg>
