<?xml version="1.0" encoding="UTF-8" standalone="no"?>
<!DOCTYPE svg PUBLIC "-//W3C//DTD SVG 1.1//EN"
 "http://www.w3.org/Graphics/SVG/1.1/DTD/svg11.dtd">
<!-- Generated by graphviz version 2.38.0 (20140413.2041)
 -->
<!-- Title: G Pages: 1 -->
<svg width="537pt" height="566pt"
 viewBox="0.00 0.00 537.39 566.00" xmlns="http://www.w3.org/2000/svg" xmlns:xlink="http://www.w3.org/1999/xlink">
<g id="graph0" class="graph" transform="scale(1 1) rotate(0) translate(4 562)">
<title>G</title>
<polygon fill="white" stroke="none" points="-4,4 -4,-562 533.394,-562 533.394,4 -4,4"/>
<!-- Whole Population -->
<!-- The initial whole population -->
<g id="whole_population" class="node"><title>Whole Population</title>
<ellipse fill="none" stroke="green" cx="390.601" cy="-540" rx="75.2868" ry="18"/>
<text text-anchor="middle" x="390.601" y="-536.3" font-family="Times,serif" font-size="14.00" fill="green">Whole Population</text>
</g>
<!-- Age 3 months to 5 years -->
<!-- Children ages 3 months to 5 years old -->
<g id="Age 3 months to 5 years" class="node"><title>Age 3 months to 5 years</title>
<polygon fill="none" stroke="blue" points="390.601,-471 252.015,-453 390.601,-435 529.187,-453 390.601,-471"/>
<text text-anchor="middle" x="390.601" y="-449.3" font-family="Times,serif" font-size="14.00" fill="blue">Age 3 months to 5 years</text>
</g>
<!-- Whole Population&#45;&gt;Age 3 months to 5 years -->
<g id="edge1" class="edge"><title>Whole Population&#45;&gt;Age 3 months to 5 years</title>
<path fill="none" stroke="blue" d="M390.601,-521.799C390.601,-510.163 390.601,-494.548 390.601,-481.237"/>
<polygon fill="blue" stroke="blue" points="394.101,-481.175 390.601,-471.175 387.101,-481.175 394.101,-481.175"/>
<text text-anchor="middle" x="395.101" y="-492.8" font-family="Times,serif" font-size="14.00" fill="blue">if</text>
</g>
<!-- Has SCA -->
<!-- Children with sickle cell anemia (SCA) -->
<g id="Has SCA" class="node"><title>Has SCA</title>
<polygon fill="none" stroke="blue" points="316.601,-384 254.096,-366 316.601,-348 379.107,-366 316.601,-384"/>
<text text-anchor="middle" x="316.601" y="-362.3" font-family="Times,serif" font-size="14.00" fill="blue">Has SCA</text>
</g>
<!-- Age 3 months to 5 years&#45;&gt;Has SCA -->
<g id="edge2" class="edge"><title>Age 3 months to 5 years&#45;&gt;Has SCA</title>
<path fill="none" stroke="blue" d="M377.028,-436.41C365.34,-422.984 348.353,-403.472 335.365,-388.553"/>
<polygon fill="blue" stroke="blue" points="337.825,-386.049 328.619,-380.804 332.546,-390.645 337.825,-386.049"/>
<text text-anchor="middle" x="368.601" y="-405.8" font-family="Times,serif" font-size="14.00" fill="blue">and</text>
</g>
<!-- ExcludeDenominator -->
<!-- Patients excluded from the denominator -->
<g id="excluded_denominator" class="node"><title>ExcludeDenominator</title>
<ellipse fill="none" stroke="green" cx="415.601" cy="-279" rx="86.3847" ry="18"/>
<text text-anchor="middle" x="415.601" y="-275.3" font-family="Times,serif" font-size="14.00" fill="green">ExcludeDenominator</text>
</g>
<!-- Age 3 months to 5 years&#45;&gt;ExcludeDenominator -->
<g id="edge4" class="edge"><title>Age 3 months to 5 years&#45;&gt;ExcludeDenominator</title>
<path fill="none" stroke="red" d="M393.044,-435.195C397.364,-405.472 406.389,-343.377 411.62,-307.393"/>
<polygon fill="red" stroke="red" points="415.137,-307.528 413.112,-297.128 408.21,-306.521 415.137,-307.528"/>
<text text-anchor="middle" x="416.601" y="-362.3" font-family="Times,serif" font-size="14.00" fill="red">else</text>
</g>
<!-- Denominator -->
<!-- Children ages 3 months to 5 years with sickle cell anemia (SCA) within the measurement year -->
<g id="denominator" class="node"><title>Denominator</title>
<ellipse fill="none" stroke="green" cx="253.601" cy="-279" rx="57.6901" ry="18"/>
<text text-anchor="middle" x="253.601" y="-275.3" font-family="Times,serif" font-size="14.00" fill="green">Denominator</text>
</g>
<!-- Has SCA&#45;&gt;Denominator -->
<g id="edge3" class="edge"><title>Has SCA&#45;&gt;Denominator</title>
<path fill="none" stroke="blue" d="M306.198,-350.964C296.966,-338.508 283.26,-320.016 272.153,-305.031"/>
<polygon fill="blue" stroke="blue" points="274.735,-302.635 265.968,-296.686 269.111,-306.804 274.735,-302.635"/>
<text text-anchor="middle" x="301.601" y="-318.8" font-family="Times,serif" font-size="14.00" fill="blue">then</text>
</g>
<!-- Has SCA&#45;&gt;ExcludeDenominator -->
<g id="edge5" class="edge"><title>Has SCA&#45;&gt;ExcludeDenominator</title>
<path fill="none" stroke="red" d="M331.637,-352.09C346.554,-339.283 369.76,-319.359 387.998,-303.7"/>
<polygon fill="red" stroke="red" points="390.674,-306.015 395.981,-296.846 386.114,-300.704 390.674,-306.015"/>
<text text-anchor="middle" x="383.601" y="-318.8" font-family="Times,serif" font-size="14.00" fill="red">else</text>
</g>
<!-- Dispensed Antibio -->
<!-- Children who were dispensed appropriate antibiotic prophylaxis -->
<g id="Dispensed Antibio" class="node"><title>Dispensed Antibio</title>
<polygon fill="none" stroke="blue" points="253.601,-210 145.18,-192 253.601,-174 362.022,-192 253.601,-210"/>
<text text-anchor="middle" x="253.601" y="-188.3" font-family="Times,serif" font-size="14.00" fill="blue">Dispensed Antibio</text>
</g>
<!-- Denominator&#45;&gt;Dispensed Antibio -->
<g id="edge6" class="edge"><title>Denominator&#45;&gt;Dispensed Antibio</title>
<path fill="none" stroke="blue" d="M253.601,-260.799C253.601,-249.163 253.601,-233.548 253.601,-220.237"/>
<polygon fill="blue" stroke="blue" points="257.101,-220.175 253.601,-210.175 250.101,-220.175 257.101,-220.175"/>
<text text-anchor="middle" x="258.101" y="-231.8" font-family="Times,serif" font-size="14.00" fill="blue">if</text>
</g>
<!-- For At Least 300 Days -->
<!-- Antibiotic prophylaxis dispensed for at least 300 days within the measurement year -->
<g id="For At Least 300 Days" class="node"><title>For At Least 300 Days</title>
<polygon fill="none" stroke="blue" points="129.601,-123 -0.101252,-105 129.601,-87 259.304,-105 129.601,-123"/>
<text text-anchor="middle" x="129.601" y="-101.3" font-family="Times,serif" font-size="14.00" fill="blue">For At Least 300 Days</text>
</g>
<!-- Dispensed Antibio&#45;&gt;For At Least 300 Days -->
<g id="edge7" class="edge"><title>Dispensed Antibio&#45;&gt;For At Least 300 Days</title>
<path fill="none" stroke="blue" d="M233.402,-177.154C213.199,-163.305 181.912,-141.858 158.966,-126.129"/>
<polygon fill="blue" stroke="blue" points="160.848,-123.176 150.621,-120.409 156.89,-128.949 160.848,-123.176"/>
<text text-anchor="middle" x="209.601" y="-144.8" font-family="Times,serif" font-size="14.00" fill="blue">and</text>
</g>
<!-- ExcludeNumerator -->
<!-- Patients in denominator but excluded from the numerator due to not meeting the dispensation criteria -->
<g id="excluded_numerator" class="node"><title>ExcludeNumerator</title>
<ellipse fill="none" stroke="green" cx="284.601" cy="-18" rx="77.9862" ry="18"/>
<text text-anchor="middle" x="284.601" y="-14.3" font-family="Times,serif" font-size="14.00" fill="green">ExcludeNumerator</text>
</g>
<!-- Dispensed Antibio&#45;&gt;ExcludeNumerator -->
<g id="edge9" class="edge"><title>Dispensed Antibio&#45;&gt;ExcludeNumerator</title>
<path fill="none" stroke="red" d="M257.537,-174.572C260.752,-160.837 265.29,-140.706 268.601,-123 273.434,-97.1578 277.89,-67.5038 280.865,-46.4905"/>
<polygon fill="red" stroke="red" points="284.363,-46.7434 282.28,-36.3555 277.431,-45.7754 284.363,-46.7434"/>
<text text-anchor="middle" x="285.601" y="-101.3" font-family="Times,serif" font-size="14.00" fill="red">else</text>
</g>
<!-- Numerator -->
<!-- Children in the denominator dispensed appropriate antibiotic prophylaxis for at least 300 days within the measurement year -->
<g id="numerator" class="node"><title>Numerator</title>
<ellipse fill="none" stroke="green" cx="129.601" cy="-18" rx="49.2915" ry="18"/>
<text text-anchor="middle" x="129.601" y="-14.3" font-family="Times,serif" font-size="14.00" fill="green">Numerator</text>
</g>
<!-- For At Least 300 Days&#45;&gt;Numerator -->
<g id="edge8" class="edge"><title>For At Least 300 Days&#45;&gt;Numerator</title>
<path fill="none" stroke="blue" d="M129.601,-86.799C129.601,-75.1626 129.601,-59.5479 129.601,-46.2368"/>
<polygon fill="blue" stroke="blue" points="133.101,-46.1754 129.601,-36.1754 126.101,-46.1755 133.101,-46.1754"/>
<text text-anchor="middle" x="141.601" y="-57.8" font-family="Times,serif" font-size="14.00" fill="blue">then</text>
</g>
<!-- For At Least 300 Days&#45;&gt;ExcludeNumerator -->
<g id="edge10" class="edge"><title>For At Least 300 Days&#45;&gt;ExcludeNumerator</title>
<path fill="none" stroke="red" d="M154.505,-90.3433C179.446,-76.6656 218.149,-55.4413 246.864,-39.6946"/>
<polygon fill="red" stroke="red" points="248.721,-42.6682 255.806,-34.791 245.355,-36.5305 248.721,-42.6682"/>
<text text-anchor="middle" x="227.601" y="-57.8" font-family="Times,serif" font-size="14.00" fill="red">else</text>
</g>
</g>
</svg>
