<?xml version="1.0" encoding="UTF-8" standalone="no"?>
<!DOCTYPE svg PUBLIC "-//W3C//DTD SVG 1.1//EN"
 "http://www.w3.org/Graphics/SVG/1.1/DTD/svg11.dtd">
<!-- Generated by graphviz version 2.38.0 (20140413.2041)
 -->
<!-- Title: G Pages: 1 -->
<svg width="745pt" height="218pt"
 viewBox="0.00 0.00 745.16 218.00" xmlns="http://www.w3.org/2000/svg" xmlns:xlink="http://www.w3.org/1999/xlink">
<g id="graph0" class="graph" transform="scale(1 1) rotate(0) translate(4 214)">
<title>G</title>
<polygon fill="white" stroke="none" points="-4,4 -4,-214 741.164,-214 741.164,4 -4,4"/>
<!-- Denominator -->
<g id="node1" class="node"><title>Denominator</title>
<polygon fill="none" stroke="blue" points="368.582,-210 118.561,-192 368.582,-174 618.604,-192 368.582,-210"/>
<text text-anchor="middle" x="368.582" y="-188.3" font-family="Times,serif" font-size="14.00" fill="blue">All children 3 months to 5 years old with SCA</text>
</g>
<!-- Numerator -->
<g id="node2" class="node"><title>Numerator</title>
<polygon fill="none" stroke="blue" points="368.582,-123 -0.0820788,-105 368.582,-87 737.246,-105 368.582,-123"/>
<text text-anchor="middle" x="368.582" y="-101.3" font-family="Times,serif" font-size="14.00" fill="blue">Children dispensed appropriate antibiotic prophylaxis for &gt;= 300 days</text>
</g>
<!-- Denominator&#45;&gt;Numerator -->
<g id="edge1" class="edge"><title>Denominator&#45;&gt;Numerator</title>
<path fill="none" stroke="black" d="M368.582,-173.799C368.582,-162.163 368.582,-146.548 368.582,-133.237"/>
<polygon fill="black" stroke="black" points="372.082,-133.175 368.582,-123.175 365.082,-133.175 372.082,-133.175"/>
<text text-anchor="middle" x="405.082" y="-144.8" font-family="Times,serif" font-size="14.00">Identification</text>
</g>
<!-- Recommendation -->
<g id="node3" class="node"><title>Recommendation</title>
<polygon fill="none" stroke="black" points="602.582,-36 134.582,-36 134.582,-0 602.582,-0 602.582,-36"/>
<text text-anchor="middle" x="368.582" y="-14.3" font-family="Times,serif" font-size="14.00">Dispense appropriate antibiotics for at least 300 days within the measurement year</text>
</g>
<!-- Numerator&#45;&gt;Recommendation -->
<g id="edge2" class="edge"><title>Numerator&#45;&gt;Recommendation</title>
<path fill="none" stroke="black" d="M368.582,-86.799C368.582,-75.1626 368.582,-59.5479 368.582,-46.2368"/>
<polygon fill="black" stroke="black" points="372.082,-46.1754 368.582,-36.1754 365.082,-46.1755 372.082,-46.1754"/>
<text text-anchor="middle" x="434.082" y="-57.8" font-family="Times,serif" font-size="14.00">Qualifies for screening?</text>
</g>
</g>
</svg>
