<?xml version="1.0" encoding="UTF-8" standalone="no"?><!DOCTYPE svg PUBLIC "-//W3C//DTD SVG 1.1//EN" "http://www.w3.org/Graphics/SVG/1.1/DTD/svg11.dtd"><!-- Generated by graphviz version 2.40.1 (20161225.0304)
 --><!-- Title: G Pages: 1 --><svg xmlns="http://www.w3.org/2000/svg" xmlns:xlink="http://www.w3.org/1999/xlink" width="660pt" height="383pt" viewBox="0.00 0.00 660.16 383.40">
<g id="graph0" class="graph" transform="scale(1 1) rotate(0) translate(4 379.4)">
<title>G</title>
<polygon fill="#ffffff" stroke="transparent" points="-4,4 -4,-379.4 656.1577,-379.4 656.1577,4 -4,4"/>
<!-- start -->
<g id="node1" class="node">
<title>start</title>
<polygon fill="none" stroke="#000000" points="462.3754,-375.4 408.3754,-375.4 408.3754,-339.4 462.3754,-339.4 462.3754,-375.4"/>
<text text-anchor="middle" x="435.3754" y="-353.2" font-family="Times,serif" font-size="14.00" fill="#000000">Start</text>
</g>
<!-- age -->
<g id="node2" class="node">
<title>age</title>
<polygon fill="none" stroke="#000000" points="476.0724,-302.4 394.6785,-302.4 394.6785,-266.4 476.0724,-266.4 476.0724,-302.4"/>
<text text-anchor="middle" x="435.3754" y="-280.2" font-family="Times,serif" font-size="14.00" fill="#000000">Age 50-80?</text>
</g>
<!-- start&#45;&gt;age -->
<g id="edge1" class="edge">
<title>start-&gt;age</title>
<path fill="none" stroke="#000000" d="M435.3754,-339.3551C435.3754,-331.2828 435.3754,-321.5764 435.3754,-312.5817"/>
<polygon fill="#000000" stroke="#000000" points="438.8755,-312.4903 435.3754,-302.4904 431.8755,-312.4904 438.8755,-312.4903"/>
</g>
<!-- smoking_history -->
<g id="node3" class="node">
<title>smoking_history</title>
<polygon fill="none" stroke="#000000" points="468.8818,-213.6 279.869,-213.6 279.869,-177.6 468.8818,-177.6 468.8818,-213.6"/>
<text text-anchor="middle" x="374.3754" y="-191.4" font-family="Times,serif" font-size="14.00" fill="#000000">20 pack-year smoking history?</text>
</g>
<!-- age&#45;&gt;smoking_history -->
<g id="edge2" class="edge">
<title>age-&gt;smoking_history</title>
<path fill="none" stroke="#000000" d="M422.7362,-266.0006C414.0087,-253.2956 402.2686,-236.2051 392.5413,-222.0448"/>
<polygon fill="#000000" stroke="#000000" points="395.3369,-219.9329 386.7898,-213.672 389.567,-223.8964 395.3369,-219.9329"/>
<text text-anchor="middle" x="421.2583" y="-235.8" font-family="Times,serif" font-size="14.00" fill="#000000">Yes</text>
</g>
<!-- no_screen -->
<g id="node6" class="node">
<title>no_screen</title>
<polygon fill="none" stroke="#000000" points="475.3754,-36 298.8107,-18 475.3754,0 651.9401,-18 475.3754,-36"/>
<text text-anchor="middle" x="475.3754" y="-13.8" font-family="Times,serif" font-size="14.00" fill="#000000">Do not recommend screening</text>
</g>
<!-- age&#45;&gt;no_screen -->
<g id="edge3" class="edge">
<title>age-&gt;no_screen</title>
<path fill="none" stroke="#000000" d="M450.3027,-266.1959C460.4207,-252.6216 472.9102,-233.1269 478.3754,-213.6 494.6076,-155.604 486.9127,-84.1021 480.6502,-45.6325"/>
<polygon fill="#000000" stroke="#000000" points="484.0859,-44.9596 478.9429,-35.6968 477.187,-46.1451 484.0859,-44.9596"/>
<text text-anchor="middle" x="496.9287" y="-147" font-family="Times,serif" font-size="14.00" fill="#000000">No</text>
</g>
<!-- current_or_quit -->
<g id="node4" class="node">
<title>current_or_quit</title>
<polygon fill="none" stroke="#000000" points="416.3238,-124.8 168.427,-124.8 168.427,-88.8 416.3238,-88.8 416.3238,-124.8"/>
<text text-anchor="middle" x="292.3754" y="-102.6" font-family="Times,serif" font-size="14.00" fill="#000000">Currently smokes or quit &lt; 15 years ago?</text>
</g>
<!-- smoking_history&#45;&gt;current_or_quit -->
<g id="edge4" class="edge">
<title>smoking_history-&gt;current_or_quit</title>
<path fill="none" stroke="#000000" d="M357.385,-177.2006C345.4315,-164.2559 329.2741,-146.7586 316.0579,-132.4464"/>
<polygon fill="#000000" stroke="#000000" points="318.4191,-129.8443 309.0636,-124.872 313.2764,-134.5933 318.4191,-129.8443"/>
<text text-anchor="middle" x="352.2583" y="-147" font-family="Times,serif" font-size="14.00" fill="#000000">Yes</text>
</g>
<!-- smoking_history&#45;&gt;no_screen -->
<g id="edge5" class="edge">
<title>smoking_history-&gt;no_screen</title>
<path fill="none" stroke="#000000" d="M389.0009,-177.3124C399.7769,-163.3816 414.4046,-143.4791 425.3754,-124.8 440.7506,-98.6219 455.0903,-66.9362 464.4352,-44.9071"/>
<polygon fill="#000000" stroke="#000000" points="467.7318,-46.0957 468.3631,-35.5197 461.2743,-43.3937 467.7318,-46.0957"/>
<text text-anchor="middle" x="452.9287" y="-102.6" font-family="Times,serif" font-size="14.00" fill="#000000">No</text>
</g>
<!-- screen -->
<g id="node5" class="node">
<title>screen</title>
<polygon fill="none" stroke="#000000" points="140.3754,-36 .1245,-18 140.3754,0 280.6264,-18 140.3754,-36"/>
<text text-anchor="middle" x="140.3754" y="-13.8" font-family="Times,serif" font-size="14.00" fill="#000000">Recommend screening</text>
</g>
<!-- current_or_quit&#45;&gt;screen -->
<g id="edge6" class="edge">
<title>current_or_quit-&gt;screen</title>
<path fill="none" stroke="#000000" d="M261.2492,-88.6157C236.0762,-73.9094 200.6703,-53.2249 174.6829,-38.0428"/>
<polygon fill="#000000" stroke="#000000" points="176.3159,-34.9433 165.9159,-32.921 172.7849,-40.9875 176.3159,-34.9433"/>
<text text-anchor="middle" x="241.2583" y="-58.2" font-family="Times,serif" font-size="14.00" fill="#000000">Yes</text>
</g>
<!-- current_or_quit&#45;&gt;no_screen -->
<g id="edge7" class="edge">
<title>current_or_quit-&gt;no_screen</title>
<path fill="none" stroke="#000000" d="M329.8498,-88.6157C360.5537,-73.7168 403.9025,-52.6819 435.2947,-37.449"/>
<polygon fill="#000000" stroke="#000000" points="437.1573,-40.4356 444.6261,-32.921 434.1013,-34.1378 437.1573,-40.4356"/>
<text text-anchor="middle" x="408.9287" y="-58.2" font-family="Times,serif" font-size="14.00" fill="#000000">No</text>
</g>
</g>
</svg>