<?xml version="1.0" encoding="UTF-8" standalone="no"?>
<!DOCTYPE svg PUBLIC "-//W3C//DTD SVG 1.1//EN"
 "http://www.w3.org/Graphics/SVG/1.1/DTD/svg11.dtd">
<!-- Generated by graphviz version 11.0.0 (20240428.1522)
 -->
<!-- Title: G Pages: 1 -->
<svg width="1162pt" height="531pt"
 viewBox="0.00 0.00 1161.75 530.75" xmlns="http://www.w3.org/2000/svg" xmlns:xlink="http://www.w3.org/1999/xlink">
<g id="graph0" class="graph" transform="scale(1 1) rotate(0) translate(4 526.75)">
<title>G</title>
<polygon fill="white" stroke="none" points="-4,4 -4,-526.75 1157.75,-526.75 1157.75,4 -4,4"/>
<!-- start -->
<g id="node1" class="node">
<title>start</title>
<path fill="none" stroke="black" d="M220,-299.75C220,-299.75 12,-299.75 12,-299.75 6,-299.75 0,-293.75 0,-287.75 0,-287.75 0,-275.75 0,-275.75 0,-269.75 6,-263.75 12,-263.75 12,-263.75 220,-263.75 220,-263.75 226,-263.75 232,-269.75 232,-275.75 232,-275.75 232,-287.75 232,-287.75 232,-293.75 226,-299.75 220,-299.75"/>
<text text-anchor="middle" x="116" y="-276.7" font-family="Times,serif" font-size="14.00">Adults with an unprovoked first seizure</text>
</g>
<!-- risk_info -->
<g id="node2" class="node">
<title>risk_info</title>
<path fill="none" stroke="black" d="M459.12,-437.75C459.12,-437.75 354.62,-437.75 354.62,-437.75 348.62,-437.75 342.62,-431.75 342.62,-425.75 342.62,-425.75 342.62,-375.75 342.62,-375.75 342.62,-369.75 348.62,-363.75 354.62,-363.75 354.62,-363.75 459.12,-363.75 459.12,-363.75 465.12,-363.75 471.12,-369.75 471.12,-375.75 471.12,-375.75 471.12,-425.75 471.12,-425.75 471.12,-431.75 465.12,-437.75 459.12,-437.75"/>
<text text-anchor="middle" x="406.88" y="-420.45" font-family="Times,serif" font-size="14.00">Inform patient about</text>
<text text-anchor="middle" x="406.88" y="-403.95" font-family="Times,serif" font-size="14.00">risk of recurrence</text>
<text text-anchor="middle" x="406.88" y="-387.45" font-family="Times,serif" font-size="14.00">in the first 2 years</text>
<text text-anchor="middle" x="406.88" y="-370.95" font-family="Times,serif" font-size="14.00">(21%–45%)</text>
</g>
<!-- start&#45;&gt;risk_info -->
<g id="edge1" class="edge">
<title>start&#45;&gt;risk_info</title>
<path fill="none" stroke="black" d="M161.82,-300.21C207.13,-318.88 277.95,-348.05 331.66,-370.18"/>
<polygon fill="black" stroke="black" points="330.18,-373.35 340.76,-373.93 332.84,-366.88 330.18,-373.35"/>
</g>
<!-- aed_therapy -->
<g id="node8" class="node">
<title>aed_therapy</title>
<path fill="none" stroke="black" d="M529.62,-299.75C529.62,-299.75 284.12,-299.75 284.12,-299.75 278.12,-299.75 272.12,-293.75 272.12,-287.75 272.12,-287.75 272.12,-275.75 272.12,-275.75 272.12,-269.75 278.12,-263.75 284.12,-263.75 284.12,-263.75 529.62,-263.75 529.62,-263.75 535.62,-263.75 541.62,-269.75 541.62,-275.75 541.62,-275.75 541.62,-287.75 541.62,-287.75 541.62,-293.75 535.62,-299.75 529.62,-299.75"/>
<text text-anchor="middle" x="406.88" y="-276.7" font-family="Times,serif" font-size="14.00">Inform patient about immediate AED therapy:</text>
</g>
<!-- start&#45;&gt;aed_therapy -->
<g id="edge7" class="edge">
<title>start&#45;&gt;aed_therapy</title>
<path fill="none" stroke="black" d="M232.42,-281.75C241.69,-281.75 251.13,-281.75 260.57,-281.75"/>
<polygon fill="black" stroke="black" points="260.57,-285.25 270.57,-281.75 260.57,-278.25 260.57,-285.25"/>
</g>
<!-- clinician_recommendations -->
<g id="node13" class="node">
<title>clinician_recommendations</title>
<path fill="none" stroke="black" d="M533.75,-138.75C533.75,-138.75 280,-138.75 280,-138.75 274,-138.75 268,-132.75 268,-126.75 268,-126.75 268,-114.75 268,-114.75 268,-108.75 274,-102.75 280,-102.75 280,-102.75 533.75,-102.75 533.75,-102.75 539.75,-102.75 545.75,-108.75 545.75,-114.75 545.75,-114.75 545.75,-126.75 545.75,-126.75 545.75,-132.75 539.75,-138.75 533.75,-138.75"/>
<text text-anchor="middle" x="406.88" y="-115.7" font-family="Times,serif" font-size="14.00">Clinician decision whether to start AED therapy</text>
</g>
<!-- start&#45;&gt;clinician_recommendations -->
<g id="edge12" class="edge">
<title>start&#45;&gt;clinician_recommendations</title>
<path fill="none" stroke="black" d="M150.14,-263.28C202.7,-233.98 305.18,-176.87 363.18,-144.55"/>
<polygon fill="black" stroke="black" points="364.77,-147.67 371.8,-139.74 361.36,-141.55 364.77,-147.67"/>
</g>
<!-- risk_factors -->
<g id="node3" class="node">
<title>risk_factors</title>
<path fill="none" stroke="black" d="M865.12,-441.75C865.12,-441.75 608.38,-441.75 608.38,-441.75 602.38,-441.75 596.38,-435.75 596.38,-429.75 596.38,-429.75 596.38,-417.75 596.38,-417.75 596.38,-411.75 602.38,-405.75 608.38,-405.75 608.38,-405.75 865.12,-405.75 865.12,-405.75 871.12,-405.75 877.12,-411.75 877.12,-417.75 877.12,-417.75 877.12,-429.75 877.12,-429.75 877.12,-435.75 871.12,-441.75 865.12,-441.75"/>
<text text-anchor="middle" x="736.75" y="-418.7" font-family="Times,serif" font-size="14.00">Clinical variables associated with increased risk:</text>
</g>
<!-- risk_info&#45;&gt;risk_factors -->
<g id="edge2" class="edge">
<title>risk_info&#45;&gt;risk_factors</title>
<path fill="none" stroke="black" d="M471.48,-405.21C503.84,-407.48 544.67,-410.35 584.5,-413.14"/>
<polygon fill="black" stroke="black" points="584.24,-416.63 594.46,-413.84 584.73,-409.65 584.24,-416.63"/>
</g>
<!-- brain_insult -->
<g id="node4" class="node">
<title>brain_insult</title>
<path fill="none" stroke="black" d="M1082.88,-522.75C1082.88,-522.75 998.62,-522.75 998.62,-522.75 992.62,-522.75 986.62,-516.75 986.62,-510.75 986.62,-510.75 986.62,-498.75 986.62,-498.75 986.62,-492.75 992.62,-486.75 998.62,-486.75 998.62,-486.75 1082.88,-486.75 1082.88,-486.75 1088.88,-486.75 1094.88,-492.75 1094.88,-498.75 1094.88,-498.75 1094.88,-510.75 1094.88,-510.75 1094.88,-516.75 1088.88,-522.75 1082.88,-522.75"/>
<text text-anchor="middle" x="1040.75" y="-499.7" font-family="Times,serif" font-size="14.00">Prior brain insult</text>
</g>
<!-- risk_factors&#45;&gt;brain_insult -->
<g id="edge3" class="edge">
<title>risk_factors&#45;&gt;brain_insult</title>
<path fill="none" stroke="black" d="M800.05,-442.14C837.05,-452.89 884.96,-466.52 927.75,-477.75 943.08,-481.78 959.66,-485.9 975.24,-489.67"/>
<polygon fill="black" stroke="black" points="974.36,-493.06 984.9,-491.99 976,-486.25 974.36,-493.06"/>
</g>
<!-- eeg_abnormalities -->
<g id="node5" class="node">
<title>eeg_abnormalities</title>
<path fill="none" stroke="black" d="M1138.38,-468.75C1138.38,-468.75 943.12,-468.75 943.12,-468.75 937.12,-468.75 931.12,-462.75 931.12,-456.75 931.12,-456.75 931.12,-444.75 931.12,-444.75 931.12,-438.75 937.12,-432.75 943.12,-432.75 943.12,-432.75 1138.38,-432.75 1138.38,-432.75 1144.38,-432.75 1150.38,-438.75 1150.38,-444.75 1150.38,-444.75 1150.38,-456.75 1150.38,-456.75 1150.38,-462.75 1144.38,-468.75 1138.38,-468.75"/>
<text text-anchor="middle" x="1040.75" y="-445.7" font-family="Times,serif" font-size="14.00">EEG with epileptiform abnormalities</text>
</g>
<!-- risk_factors&#45;&gt;eeg_abnormalities -->
<g id="edge4" class="edge">
<title>risk_factors&#45;&gt;eeg_abnormalities</title>
<path fill="none" stroke="black" d="M877.26,-436.22C891.4,-437.49 905.69,-438.76 919.6,-440.01"/>
<polygon fill="black" stroke="black" points="918.89,-443.46 929.17,-440.86 919.52,-436.49 918.89,-443.46"/>
</g>
<!-- brain_imaging -->
<g id="node6" class="node">
<title>brain_imaging</title>
<path fill="none" stroke="black" d="M1141.75,-414.75C1141.75,-414.75 939.75,-414.75 939.75,-414.75 933.75,-414.75 927.75,-408.75 927.75,-402.75 927.75,-402.75 927.75,-390.75 927.75,-390.75 927.75,-384.75 933.75,-378.75 939.75,-378.75 939.75,-378.75 1141.75,-378.75 1141.75,-378.75 1147.75,-378.75 1153.75,-384.75 1153.75,-390.75 1153.75,-390.75 1153.75,-402.75 1153.75,-402.75 1153.75,-408.75 1147.75,-414.75 1141.75,-414.75"/>
<text text-anchor="middle" x="1040.75" y="-391.7" font-family="Times,serif" font-size="14.00">Significant brain&#45;imaging abnormality</text>
</g>
<!-- risk_factors&#45;&gt;brain_imaging -->
<g id="edge5" class="edge">
<title>risk_factors&#45;&gt;brain_imaging</title>
<path fill="none" stroke="black" d="M877.26,-411.28C890.29,-410.11 903.43,-408.94 916.3,-407.79"/>
<polygon fill="black" stroke="black" points="916.37,-411.29 926.02,-406.92 915.75,-404.32 916.37,-411.29"/>
</g>
<!-- nocturnal_seizure -->
<g id="node7" class="node">
<title>nocturnal_seizure</title>
<path fill="none" stroke="black" d="M1084.75,-360.75C1084.75,-360.75 996.75,-360.75 996.75,-360.75 990.75,-360.75 984.75,-354.75 984.75,-348.75 984.75,-348.75 984.75,-336.75 984.75,-336.75 984.75,-330.75 990.75,-324.75 996.75,-324.75 996.75,-324.75 1084.75,-324.75 1084.75,-324.75 1090.75,-324.75 1096.75,-330.75 1096.75,-336.75 1096.75,-336.75 1096.75,-348.75 1096.75,-348.75 1096.75,-354.75 1090.75,-360.75 1084.75,-360.75"/>
<text text-anchor="middle" x="1040.75" y="-337.7" font-family="Times,serif" font-size="14.00">Nocturnal seizure</text>
</g>
<!-- risk_factors&#45;&gt;nocturnal_seizure -->
<g id="edge6" class="edge">
<title>risk_factors&#45;&gt;nocturnal_seizure</title>
<path fill="none" stroke="black" d="M868.43,-405.34C876.44,-402.83 884.28,-399.98 891.75,-396.75 910.1,-388.8 909.66,-378.27 927.75,-369.75 941.95,-363.07 957.96,-357.94 973.35,-354.05"/>
<polygon fill="black" stroke="black" points="974.01,-357.49 982.93,-351.78 972.39,-350.68 974.01,-357.49"/>
</g>
<!-- reduce_risk -->
<g id="node9" class="node">
<title>reduce_risk</title>
<path fill="none" stroke="black" d="M851.25,-387.75C851.25,-387.75 622.25,-387.75 622.25,-387.75 616.25,-387.75 610.25,-381.75 610.25,-375.75 610.25,-375.75 610.25,-363.75 610.25,-363.75 610.25,-357.75 616.25,-351.75 622.25,-351.75 622.25,-351.75 851.25,-351.75 851.25,-351.75 857.25,-351.75 863.25,-357.75 863.25,-363.75 863.25,-363.75 863.25,-375.75 863.25,-375.75 863.25,-381.75 857.25,-387.75 851.25,-387.75"/>
<text text-anchor="middle" x="736.75" y="-364.7" font-family="Times,serif" font-size="14.00">Reduces recurrence risk within first 2 years</text>
</g>
<!-- aed_therapy&#45;&gt;reduce_risk -->
<g id="edge8" class="edge">
<title>aed_therapy&#45;&gt;reduce_risk</title>
<path fill="none" stroke="black" d="M453.73,-300.16C488.42,-313.51 537.49,-331.19 581.75,-342.75 590.06,-344.92 598.67,-346.97 607.37,-348.89"/>
<polygon fill="black" stroke="black" points="606.45,-352.27 616.96,-350.93 607.91,-345.42 606.45,-352.27"/>
</g>
<!-- quality_of_life -->
<g id="node10" class="node">
<title>quality_of_life</title>
<path fill="none" stroke="black" d="M819.75,-333.75C819.75,-333.75 653.75,-333.75 653.75,-333.75 647.75,-333.75 641.75,-327.75 641.75,-321.75 641.75,-321.75 641.75,-309.75 641.75,-309.75 641.75,-303.75 647.75,-297.75 653.75,-297.75 653.75,-297.75 819.75,-297.75 819.75,-297.75 825.75,-297.75 831.75,-303.75 831.75,-309.75 831.75,-309.75 831.75,-321.75 831.75,-321.75 831.75,-327.75 825.75,-333.75 819.75,-333.75"/>
<text text-anchor="middle" x="736.75" y="-310.7" font-family="Times,serif" font-size="14.00">May not improve quality of life</text>
</g>
<!-- aed_therapy&#45;&gt;quality_of_life -->
<g id="edge9" class="edge">
<title>aed_therapy&#45;&gt;quality_of_life</title>
<path fill="none" stroke="black" d="M541.71,-295.63C571.25,-298.69 602.15,-301.9 630.38,-304.82"/>
<polygon fill="black" stroke="black" points="629.65,-308.27 639.96,-305.82 630.38,-301.3 629.65,-308.27"/>
</g>
<!-- long_term_prognosis -->
<g id="node11" class="node">
<title>long_term_prognosis</title>
<path fill="none" stroke="black" d="M845.25,-279.25C845.25,-279.25 628.25,-279.25 628.25,-279.25 622.25,-279.25 616.25,-273.25 616.25,-267.25 616.25,-267.25 616.25,-250.25 616.25,-250.25 616.25,-244.25 622.25,-238.25 628.25,-238.25 628.25,-238.25 845.25,-238.25 845.25,-238.25 851.25,-238.25 857.25,-244.25 857.25,-250.25 857.25,-250.25 857.25,-267.25 857.25,-267.25 857.25,-273.25 851.25,-279.25 845.25,-279.25"/>
<text text-anchor="middle" x="736.75" y="-261.95" font-family="Times,serif" font-size="14.00">Unlikely to improve long&#45;term prognosis</text>
<text text-anchor="middle" x="736.75" y="-245.45" font-family="Times,serif" font-size="14.00">for sustained seizure remission</text>
</g>
<!-- aed_therapy&#45;&gt;long_term_prognosis -->
<g id="edge10" class="edge">
<title>aed_therapy&#45;&gt;long_term_prognosis</title>
<path fill="none" stroke="black" d="M541.71,-272.36C562.4,-270.91 583.75,-269.41 604.39,-267.96"/>
<polygon fill="black" stroke="black" points="604.53,-271.46 614.27,-267.27 604.04,-264.48 604.53,-271.46"/>
</g>
<!-- aed_adverse_events -->
<g id="node12" class="node">
<title>aed_adverse_events</title>
<path fill="none" stroke="black" d="M862.5,-219.75C862.5,-219.75 611,-219.75 611,-219.75 605,-219.75 599,-213.75 599,-207.75 599,-207.75 599,-195.75 599,-195.75 599,-189.75 605,-183.75 611,-183.75 611,-183.75 862.5,-183.75 862.5,-183.75 868.5,-183.75 874.5,-189.75 874.5,-195.75 874.5,-195.75 874.5,-207.75 874.5,-207.75 874.5,-213.75 868.5,-219.75 862.5,-219.75"/>
<text text-anchor="middle" x="736.75" y="-196.7" font-family="Times,serif" font-size="14.00">Risk of AED adverse events (AEs): 7% to 31%</text>
</g>
<!-- aed_therapy&#45;&gt;aed_adverse_events -->
<g id="edge11" class="edge">
<title>aed_therapy&#45;&gt;aed_adverse_events</title>
<path fill="none" stroke="black" d="M463.83,-263.3C497.7,-252.56 541.92,-239.3 581.75,-229.75 592.35,-227.21 603.42,-224.78 614.53,-222.48"/>
<polygon fill="black" stroke="black" points="615.06,-225.94 624.17,-220.53 613.68,-219.08 615.06,-225.94"/>
</g>
<!-- weigh_risks -->
<g id="node14" class="node">
<title>weigh_risks</title>
<path fill="none" stroke="black" d="M879.75,-165.75C879.75,-165.75 593.75,-165.75 593.75,-165.75 587.75,-165.75 581.75,-159.75 581.75,-153.75 581.75,-153.75 581.75,-141.75 581.75,-141.75 581.75,-135.75 587.75,-129.75 593.75,-129.75 593.75,-129.75 879.75,-129.75 879.75,-129.75 885.75,-129.75 891.75,-135.75 891.75,-141.75 891.75,-141.75 891.75,-153.75 891.75,-153.75 891.75,-159.75 885.75,-165.75 879.75,-165.75"/>
<text text-anchor="middle" x="736.75" y="-142.7" font-family="Times,serif" font-size="14.00">Weigh risk of recurrence against AEs of AED therapy</text>
</g>
<!-- clinician_recommendations&#45;&gt;weigh_risks -->
<g id="edge13" class="edge">
<title>clinician_recommendations&#45;&gt;weigh_risks</title>
<path fill="none" stroke="black" d="M545.97,-132.12C553.94,-132.78 562,-133.44 570.06,-134.11"/>
<polygon fill="black" stroke="black" points="569.68,-137.59 579.94,-134.92 570.26,-130.61 569.68,-137.59"/>
</g>
<!-- patient_preferences -->
<g id="node15" class="node">
<title>patient_preferences</title>
<path fill="none" stroke="black" d="M836.25,-111.75C836.25,-111.75 637.25,-111.75 637.25,-111.75 631.25,-111.75 625.25,-105.75 625.25,-99.75 625.25,-99.75 625.25,-87.75 625.25,-87.75 625.25,-81.75 631.25,-75.75 637.25,-75.75 637.25,-75.75 836.25,-75.75 836.25,-75.75 842.25,-75.75 848.25,-81.75 848.25,-87.75 848.25,-87.75 848.25,-99.75 848.25,-99.75 848.25,-105.75 842.25,-111.75 836.25,-111.75"/>
<text text-anchor="middle" x="736.75" y="-88.7" font-family="Times,serif" font-size="14.00">Consider educated patient preferences</text>
</g>
<!-- clinician_recommendations&#45;&gt;patient_preferences -->
<g id="edge14" class="edge">
<title>clinician_recommendations&#45;&gt;patient_preferences</title>
<path fill="none" stroke="black" d="M545.97,-109.38C568.4,-107.53 591.49,-105.63 613.51,-103.82"/>
<polygon fill="black" stroke="black" points="613.73,-107.31 623.41,-103 613.16,-100.33 613.73,-107.31"/>
</g>
<!-- advise_treatment -->
<g id="node16" class="node">
<title>advise_treatment</title>
<path fill="none" stroke="black" d="M845.25,-57.5C845.25,-57.5 628.25,-57.5 628.25,-57.5 622.25,-57.5 616.25,-51.5 616.25,-45.5 616.25,-45.5 616.25,-12 616.25,-12 616.25,-6 622.25,0 628.25,0 628.25,0 845.25,0 845.25,0 851.25,0 857.25,-6 857.25,-12 857.25,-12 857.25,-45.5 857.25,-45.5 857.25,-51.5 851.25,-57.5 845.25,-57.5"/>
<text text-anchor="middle" x="736.75" y="-40.2" font-family="Times,serif" font-size="14.00">Advise that immediate treatment reduces</text>
<text text-anchor="middle" x="736.75" y="-23.7" font-family="Times,serif" font-size="14.00">seizure risk over 2 years but doesn&#39;t</text>
<text text-anchor="middle" x="736.75" y="-7.2" font-family="Times,serif" font-size="14.00">improve long&#45;term prognosis</text>
</g>
<!-- clinician_recommendations&#45;&gt;advise_treatment -->
<g id="edge15" class="edge">
<title>clinician_recommendations&#45;&gt;advise_treatment</title>
<path fill="none" stroke="black" d="M464.4,-102.27C498.28,-91.42 542.32,-77.73 581.75,-66.75 589.23,-64.67 596.94,-62.58 604.72,-60.52"/>
<polygon fill="black" stroke="black" points="605.52,-63.93 614.3,-58.01 603.74,-57.16 605.52,-63.93"/>
</g>
</g>
</svg>
