<?xml version="1.0" encoding="UTF-8" standalone="no"?><!DOCTYPE svg PUBLIC "-//W3C//DTD SVG 1.1//EN" "http://www.w3.org/Graphics/SVG/1.1/DTD/svg11.dtd"><!-- Generated by graphviz version 2.40.1 (20161225.0304)
 --><!-- Title: G Pages: 1 --><svg xmlns="http://www.w3.org/2000/svg" xmlns:xlink="http://www.w3.org/1999/xlink" width="762pt" height="525pt" viewBox="0.00 0.00 761.79 525.00">
<g id="graph0" class="graph" transform="scale(1 1) rotate(0) translate(4 521)">
<title>G</title>
<polygon fill="#ffffff" stroke="transparent" points="-4,4 -4,-521 757.7873,-521 757.7873,4 -4,4"/>
<!-- start -->
<g id="node1" class="node">
<title>start</title>
<polygon fill="none" stroke="#0000ff" points="698.8908,-517 553.7392,-517 553.7392,-481 698.8908,-481 698.8908,-517"/>
<text text-anchor="middle" x="626.315" y="-494.8" font-family="Times,serif" font-size="14.00" fill="#0000ff">Adolescents and adults</text>
</g>
<!-- hasHIV -->
<g id="node2" class="node">
<title>hasHIV</title>
<polygon fill="none" stroke="#0000ff" points="626.315,-444 498.8704,-426 626.315,-408 753.7596,-426 626.315,-444"/>
<text text-anchor="middle" x="626.315" y="-421.8" font-family="Times,serif" font-size="14.00" fill="#0000ff">Does not have HIV?</text>
</g>
<!-- start&#45;&gt;hasHIV -->
<g id="edge1" class="edge">
<title>start-&gt;hasHIV</title>
<path fill="none" stroke="#000000" d="M626.315,-480.9551C626.315,-472.8828 626.315,-463.1764 626.315,-454.1817"/>
<polygon fill="#000000" stroke="#000000" points="629.8151,-454.0903 626.315,-444.0904 622.8151,-454.0904 629.8151,-454.0903"/>
</g>
<!-- atIncreasedRisk -->
<g id="node3" class="node">
<title>atIncreasedRisk</title>
<polygon fill="none" stroke="#0000ff" points="534.315,-355.2 377.4921,-337.2 534.315,-319.2 691.1379,-337.2 534.315,-355.2"/>
<text text-anchor="middle" x="534.315" y="-333" font-family="Times,serif" font-size="14.00" fill="#0000ff">At increased risk of HIV?</text>
</g>
<!-- hasHIV&#45;&gt;atIncreasedRisk -->
<g id="edge2" class="edge">
<title>hasHIV-&gt;atIncreasedRisk</title>
<path fill="none" stroke="#000000" d="M609.8672,-410.1243C595.654,-396.4055 574.9131,-376.386 558.757,-360.7918"/>
<polygon fill="#000000" stroke="#000000" points="560.8686,-357.9656 551.2428,-353.539 556.0072,-363.0022 560.8686,-357.9656"/>
<text text-anchor="middle" x="600.1979" y="-377.4" font-family="Times,serif" font-size="14.00" fill="#000000">Yes</text>
</g>
<!-- end -->
<g id="node7" class="node">
<title>end</title>
<polygon fill="none" stroke="#0000ff" points="651.315,-38.8 616.1596,-20.8 651.315,-2.8 686.4704,-20.8 651.315,-38.8"/>
<text text-anchor="middle" x="651.315" y="-16.6" font-family="Times,serif" font-size="14.00" fill="#0000ff">end</text>
</g>
<!-- hasHIV&#45;&gt;end -->
<g id="edge3" class="edge">
<title>hasHIV-&gt;end</title>
<path fill="none" stroke="#000000" d="M657.0244,-412.2933C684.1133,-397.8689 719.315,-372.3603 719.315,-337.2 719.315,-337.2 719.315,-337.2 719.315,-136 719.315,-97.9021 691.3931,-61.327 671.3337,-39.9667"/>
<polygon fill="#000000" stroke="#000000" points="673.5925,-37.2699 664.1053,-32.5537 668.5808,-42.1568 673.5925,-37.2699"/>
<text text-anchor="middle" x="727.8683" y="-244.2" font-family="Times,serif" font-size="14.00" fill="#000000">No</text>
</g>
<!-- sexualActivityOrInjectionDrugUse -->
<g id="node4" class="node">
<title>sexualActivityOrInjectionDrugUse</title>
<polygon fill="none" stroke="#0000ff" points="364.315,-266.4 83.3966,-248.4 364.315,-230.4 645.2334,-248.4 364.315,-266.4"/>
<text text-anchor="middle" x="364.315" y="-244.2" font-family="Times,serif" font-size="14.00" fill="#0000ff">Engages in sexual activity or injection drug use?</text>
</g>
<!-- atIncreasedRisk&#45;&gt;sexualActivityOrInjectionDrugUse -->
<g id="edge4" class="edge">
<title>atIncreasedRisk-&gt;sexualActivityOrInjectionDrugUse</title>
<path fill="none" stroke="#000000" d="M505.8608,-322.3369C477.9874,-307.7771 435.2671,-285.4621 404.0487,-269.155"/>
<polygon fill="#000000" stroke="#000000" points="405.6495,-266.0425 395.1654,-264.5148 402.4085,-272.247 405.6495,-266.0425"/>
<text text-anchor="middle" x="476.1979" y="-288.6" font-family="Times,serif" font-size="14.00" fill="#000000">Yes</text>
</g>
<!-- atIncreasedRisk&#45;&gt;end -->
<g id="edge5" class="edge">
<title>atIncreasedRisk-&gt;end</title>
<path fill="none" stroke="#000000" d="M577.1348,-324.0608C604.3692,-313.2566 637.5581,-294.9903 654.315,-266.4 695.7101,-195.7726 673.3317,-92.9536 659.5503,-45.9454"/>
<polygon fill="#000000" stroke="#000000" points="662.8664,-44.8201 656.6023,-36.2754 656.1706,-46.8614 662.8664,-44.8201"/>
<text text-anchor="middle" x="683.8683" y="-199.8" font-family="Times,serif" font-size="14.00" fill="#000000">No</text>
</g>
<!-- highTransmissionRisk -->
<g id="node5" class="node">
<title>highTransmissionRisk</title>
<polygon fill="none" stroke="#0000ff" points="296.315,-177.7002 .1849,-136 296.315,-94.2998 592.4451,-136 296.315,-177.7002"/>
<text text-anchor="middle" x="296.315" y="-140.2" font-family="Times,serif" font-size="14.00" fill="#0000ff">High risk due to needle-sharing injection drug use</text>
<text text-anchor="middle" x="296.315" y="-123.4" font-family="Times,serif" font-size="14.00" fill="#0000ff">or condomless receptive anal intercourse?</text>
</g>
<!-- sexualActivityOrInjectionDrugUse&#45;&gt;highTransmissionRisk -->
<g id="edge6" class="edge">
<title>sexualActivityOrInjectionDrugUse-&gt;highTransmissionRisk</title>
<path fill="none" stroke="#000000" d="M353.69,-230.8375C345.9923,-218.1136 335.1962,-200.2683 325.043,-183.4857"/>
<polygon fill="#000000" stroke="#000000" points="327.9829,-181.5835 319.812,-174.8391 321.9936,-185.2069 327.9829,-181.5835"/>
<text text-anchor="middle" x="354.1979" y="-199.8" font-family="Times,serif" font-size="14.00" fill="#000000">Yes</text>
</g>
<!-- sexualActivityOrInjectionDrugUse&#45;&gt;end -->
<g id="edge7" class="edge">
<title>sexualActivityOrInjectionDrugUse-&gt;end</title>
<path fill="none" stroke="#000000" d="M435.0822,-234.8593C495.9577,-221.8843 577.6051,-200.8779 601.315,-177.6 619.9846,-159.2706 637.5306,-86.9227 646.0063,-47.2229"/>
<polygon fill="#000000" stroke="#000000" points="649.4343,-47.9287 648.0555,-37.424 642.5826,-46.4957 649.4343,-47.9287"/>
<text text-anchor="middle" x="643.8683" y="-131.8" font-family="Times,serif" font-size="14.00" fill="#000000">No</text>
</g>
<!-- prescribePrEP -->
<g id="node6" class="node">
<title>prescribePrEP</title>
<polygon fill="none" stroke="#000000" points="450.5313,-41.4019 142.0987,-41.4019 142.0987,-.1981 450.5313,-.1981 450.5313,-41.4019"/>
<text text-anchor="middle" x="296.315" y="-25" font-family="Times,serif" font-size="14.00" fill="#000000">Prescribe PrEP using effective antiretroviral therapy</text>
<text text-anchor="middle" x="296.315" y="-8.2" font-family="Times,serif" font-size="14.00" fill="#000000">Frequency: As per clinical guidelines</text>
</g>
<!-- highTransmissionRisk&#45;&gt;prescribePrEP -->
<g id="edge8" class="edge">
<title>highTransmissionRisk-&gt;prescribePrEP</title>
<path fill="none" stroke="#000000" d="M296.315,-94.0843C296.315,-80.1119 296.315,-64.8067 296.315,-51.8137"/>
<polygon fill="#000000" stroke="#000000" points="299.8151,-51.5233 296.315,-41.5233 292.8151,-51.5233 299.8151,-51.5233"/>
<text text-anchor="middle" x="307.1979" y="-63.8" font-family="Times,serif" font-size="14.00" fill="#000000">Yes</text>
</g>
<!-- highTransmissionRisk&#45;&gt;end -->
<g id="edge9" class="edge">
<title>highTransmissionRisk-&gt;end</title>
<path fill="none" stroke="#000000" d="M386.3554,-106.7813C462.8083,-81.9718 568.1209,-47.7971 619.9357,-30.9828"/>
<polygon fill="#000000" stroke="#000000" points="621.1296,-34.2751 629.561,-27.8593 618.9689,-27.6169 621.1296,-34.2751"/>
<text text-anchor="middle" x="535.8683" y="-63.8" font-family="Times,serif" font-size="14.00" fill="#000000">No</text>
</g>
</g>
</svg>