<svg xmlns="http://www.w3.org/2000/svg" viewBox="0 0 100 100">
  <!-- Apple body: two leaves on top, two-lobed body in green -->
  <path d="M50 30 C40 18, 22 22, 22 42 C22 64, 38 86, 50 86 C62 86, 78 64, 78 42 C78 22, 60 18, 50 30 Z"
        fill="#2e7d32"/>
  <!-- Subtle highlight on the apple -->
  <path d="M34 42 C34 52, 38 60, 44 64 C40 56, 38 48, 38 42 C38 36, 40 32, 44 30 C38 32, 34 36, 34 42 Z"
        fill="#4caf50" opacity="0.55"/>
  <!-- Stem -->
  <rect x="48" y="20" width="4" height="12" rx="1.5" fill="#5d4037"/>
  <!-- Leaf -->
  <path d="M52 22 C62 14, 76 16, 78 24 C70 30, 58 30, 52 24 Z"
        fill="#81c784"/>
  <path d="M54 24 C62 22, 70 22, 76 24" stroke="#2e7d32" stroke-width="1.5" fill="none" stroke-linecap="round"/>
</svg>
