<?xml version="1.0" encoding="UTF-8" standalone="no"?><!DOCTYPE svg PUBLIC "-//W3C//DTD SVG 1.1//EN" "http://www.w3.org/Graphics/SVG/1.1/DTD/svg11.dtd"><!-- Generated by graphviz version 2.40.1 (20161225.0304)
 --><!-- Title: OttawaKneeRules Pages: 1 --><svg xmlns="http://www.w3.org/2000/svg" xmlns:xlink="http://www.w3.org/1999/xlink" width="460pt" height="561pt" viewBox="0.00 0.00 460.49 561.00">
<g id="graph0" class="graph" transform="scale(1 1) rotate(0) translate(4 557)">
<title>OttawaKneeRules</title>
<polygon fill="#ffffff" stroke="transparent" points="-4,4 -4,-557 456.4939,-557 456.4939,4 -4,4"/>
<!-- start -->
<g id="node1" class="node">
<title>start</title>
<ellipse fill="none" stroke="#d3d3d3" cx="351.343" cy="-535" rx="82.7878" ry="18"/>
<text text-anchor="middle" x="351.343" y="-530.8" font-family="Times,serif" font-size="14.00" fill="#000000">Acute Knee Injury</text>
</g>
<!-- age -->
<g id="node2" class="node">
<title>age</title>
<polygon fill="none" stroke="#000000" points="443.9406,-480 258.7454,-480 258.7454,-444 443.9406,-444 443.9406,-480"/>
<text text-anchor="middle" x="351.343" y="-457.8" font-family="Times,serif" font-size="14.00" fill="#000000">Patient aged 55 years or over?</text>
</g>
<!-- start&#45;&gt;age -->
<g id="edge1" class="edge">
<title>start-&gt;age</title>
<path fill="none" stroke="#000000" d="M351.343,-516.9551C351.343,-508.8828 351.343,-499.1764 351.343,-490.1817"/>
<polygon fill="#000000" stroke="#000000" points="354.8431,-490.0903 351.343,-480.0904 347.8431,-490.0904 354.8431,-490.0903"/>
</g>
<!-- fibulaTenderness -->
<g id="node3" class="node">
<title>fibulaTenderness</title>
<polygon fill="none" stroke="#000000" points="392.3656,-391.2 170.3204,-391.2 170.3204,-355.2 392.3656,-355.2 392.3656,-391.2"/>
<text text-anchor="middle" x="281.343" y="-369" font-family="Times,serif" font-size="14.00" fill="#000000">Tenderness at the head of the fibula?</text>
</g>
<!-- age&#45;&gt;fibulaTenderness -->
<g id="edge3" class="edge">
<title>age-&gt;fibulaTenderness</title>
<path fill="none" stroke="#000000" d="M336.839,-443.6006C326.7293,-430.7757 313.097,-413.4822 301.8738,-399.2448"/>
<polygon fill="#000000" stroke="#000000" points="304.5284,-396.9586 295.589,-391.272 299.031,-401.2922 304.5284,-396.9586"/>
<text text-anchor="middle" x="330.8963" y="-413.4" font-family="Times,serif" font-size="14.00" fill="#000000">No</text>
</g>
<!-- xray -->
<g id="node7" class="node">
<title>xray</title>
<ellipse fill="none" stroke="#000000" cx="358.343" cy="-18" rx="94.3021" ry="18"/>
<text text-anchor="middle" x="358.343" y="-13.8" font-family="Times,serif" font-size="14.00" fill="#000000">Knee X-ray indicated</text>
</g>
<!-- age&#45;&gt;xray -->
<g id="edge2" class="edge">
<title>age-&gt;xray</title>
<path fill="none" stroke="#000000" d="M377.0361,-443.997C396.6537,-427.9391 420.343,-402.4855 420.343,-373.2 420.343,-373.2 420.343,-373.2 420.343,-106.8 420.343,-81.8529 403.6889,-58.912 387.6437,-42.5989"/>
<polygon fill="#000000" stroke="#000000" points="390.003,-40.0117 380.3765,-35.5867 385.1424,-45.0491 390.003,-40.0117"/>
<text text-anchor="middle" x="431.2259" y="-235.8" font-family="Times,serif" font-size="14.00" fill="#000000">Yes</text>
</g>
<!-- patellaTenderness -->
<g id="node4" class="node">
<title>patellaTenderness</title>
<polygon fill="none" stroke="#000000" points="342.039,-302.4 136.647,-302.4 136.647,-266.4 342.039,-266.4 342.039,-302.4"/>
<text text-anchor="middle" x="239.343" y="-280.2" font-family="Times,serif" font-size="14.00" fill="#000000">Isolated tenderness of the patella?</text>
</g>
<!-- fibulaTenderness&#45;&gt;patellaTenderness -->
<g id="edge5" class="edge">
<title>fibulaTenderness-&gt;patellaTenderness</title>
<path fill="none" stroke="#000000" d="M272.6406,-354.8006C266.7448,-342.3353 258.8524,-325.6484 252.2312,-311.6494"/>
<polygon fill="#000000" stroke="#000000" points="255.3302,-310.0154 247.8906,-302.472 249.0023,-313.0084 255.3302,-310.0154"/>
<text text-anchor="middle" x="271.8963" y="-324.6" font-family="Times,serif" font-size="14.00" fill="#000000">No</text>
</g>
<!-- fibulaTenderness&#45;&gt;xray -->
<g id="edge4" class="edge">
<title>fibulaTenderness-&gt;xray</title>
<path fill="none" stroke="#000000" d="M317.5427,-355.1299C342.1828,-339.9989 370.343,-315.8309 370.343,-284.4 370.343,-284.4 370.343,-284.4 370.343,-106.8 370.343,-86.4449 367.2082,-63.6997 364.1431,-46.3251"/>
<polygon fill="#000000" stroke="#000000" points="367.5425,-45.4613 362.2722,-36.2703 360.6606,-46.7418 367.5425,-45.4613"/>
<text text-anchor="middle" x="381.2259" y="-191.4" font-family="Times,serif" font-size="14.00" fill="#000000">Yes</text>
</g>
<!-- kneeFlex -->
<g id="node5" class="node">
<title>kneeFlex</title>
<polygon fill="none" stroke="#000000" points="284.9522,-213.6 75.7338,-213.6 75.7338,-177.6 284.9522,-177.6 284.9522,-213.6"/>
<text text-anchor="middle" x="180.343" y="-191.4" font-family="Times,serif" font-size="14.00" fill="#000000">Ability to flex knee to 90 degrees?</text>
</g>
<!-- patellaTenderness&#45;&gt;kneeFlex -->
<g id="edge7" class="edge">
<title>patellaTenderness-&gt;kneeFlex</title>
<path fill="none" stroke="#000000" d="M227.1182,-266.0006C218.6768,-253.2956 207.3216,-236.2051 197.9133,-222.0448"/>
<polygon fill="#000000" stroke="#000000" points="200.7996,-220.0643 192.3503,-213.672 194.9692,-223.9381 200.7996,-220.0643"/>
<text text-anchor="middle" x="222.8963" y="-235.8" font-family="Times,serif" font-size="14.00" fill="#000000">No</text>
</g>
<!-- patellaTenderness&#45;&gt;xray -->
<g id="edge6" class="edge">
<title>patellaTenderness-&gt;xray</title>
<path fill="none" stroke="#000000" d="M256.1805,-266.3964C268.1855,-252.7673 283.9737,-233.1185 294.343,-213.6 324.132,-157.5271 343.4035,-85.0486 352.4049,-45.9608"/>
<polygon fill="#000000" stroke="#000000" points="355.8453,-46.6139 354.622,-36.09 349.0155,-45.0799 355.8453,-46.6139"/>
<text text-anchor="middle" x="334.2259" y="-147" font-family="Times,serif" font-size="14.00" fill="#000000">Yes</text>
</g>
<!-- weightBearing -->
<g id="node6" class="node">
<title>weightBearing</title>
<polygon fill="none" stroke="#000000" points="296.5292,-124.8 .1568,-124.8 .1568,-88.8 296.5292,-88.8 296.5292,-124.8"/>
<text text-anchor="middle" x="148.343" y="-102.6" font-family="Times,serif" font-size="14.00" fill="#000000">Can bear weight immediately and at presentation?</text>
</g>
<!-- kneeFlex&#45;&gt;weightBearing -->
<g id="edge8" class="edge">
<title>kneeFlex-&gt;weightBearing</title>
<path fill="none" stroke="#000000" d="M173.7126,-177.2006C169.2638,-164.8552 163.3228,-148.3689 158.3084,-134.4539"/>
<polygon fill="#000000" stroke="#000000" points="161.5384,-133.0932 154.8554,-124.872 154.953,-135.4664 161.5384,-133.0932"/>
<text text-anchor="middle" x="178.2259" y="-147" font-family="Times,serif" font-size="14.00" fill="#000000">Yes</text>
</g>
<!-- weightBearing&#45;&gt;xray -->
<g id="edge10" class="edge">
<title>weightBearing-&gt;xray</title>
<path fill="none" stroke="#000000" d="M191.0928,-88.723C225.6598,-74.106 274.3143,-53.5321 310.2389,-38.3412"/>
<polygon fill="#000000" stroke="#000000" points="311.6984,-41.5241 319.5456,-34.4057 308.9721,-35.0769 311.6984,-41.5241"/>
<text text-anchor="middle" x="279.8963" y="-58.2" font-family="Times,serif" font-size="14.00" fill="#000000">No</text>
</g>
<!-- noxray -->
<g id="node8" class="node">
<title>noxray</title>
<ellipse fill="none" stroke="#000000" cx="148.343" cy="-18" rx="85.6551" ry="18"/>
<text text-anchor="middle" x="148.343" y="-13.8" font-family="Times,serif" font-size="14.00" fill="#000000">No X-ray indicated</text>
</g>
<!-- weightBearing&#45;&gt;noxray -->
<g id="edge9" class="edge">
<title>weightBearing-&gt;noxray</title>
<path fill="none" stroke="#000000" d="M148.343,-88.4006C148.343,-76.2949 148.343,-60.2076 148.343,-46.4674"/>
<polygon fill="#000000" stroke="#000000" points="151.8431,-46.072 148.343,-36.072 144.8431,-46.0721 151.8431,-46.072"/>
<text text-anchor="middle" x="159.2259" y="-58.2" font-family="Times,serif" font-size="14.00" fill="#000000">Yes</text>
</g>
</g>
</svg>