<?xml version="1.0" encoding="UTF-8" standalone="no"?><!DOCTYPE svg PUBLIC "-//W3C//DTD SVG 1.1//EN" "http://www.w3.org/Graphics/SVG/1.1/DTD/svg11.dtd"><!-- Generated by graphviz version 2.40.1 (20161225.0304)
 --><!-- Title: EAH Pages: 1 --><svg xmlns="http://www.w3.org/2000/svg" xmlns:xlink="http://www.w3.org/1999/xlink" width="1743pt" height="509pt" viewBox="0.00 0.00 1742.80 508.80">
<g id="graph0" class="graph" transform="scale(1 1) rotate(0) translate(4 504.8)">
<title>EAH</title>
<polygon fill="#ffffff" stroke="transparent" points="-4,4 -4,-504.8 1738.7962,-504.8 1738.7962,4 -4,4"/>
<!-- Start -->
<g id="node1" class="node">
<title>Start</title>
<ellipse fill="none" stroke="#000000" cx="646.3167" cy="-482.8" rx="199.0589" ry="18"/>
<text text-anchor="middle" x="646.3167" y="-478.6" font-family="Times,serif" font-size="14.00" fill="#000000">Symptomatic or collapse during or after exercise</text>
</g>
<!-- Altered_Mental_Status -->
<g id="node2" class="node">
<title>Altered_Mental_Status</title>
<polygon fill="none" stroke="#000000" points="646.3167,-427.8 508.378,-409.8 646.3167,-391.8 784.2554,-409.8 646.3167,-427.8"/>
<text text-anchor="middle" x="646.3167" y="-405.6" font-family="Times,serif" font-size="14.00" fill="#000000">Altered mental status?</text>
</g>
<!-- Start&#45;&gt;Altered_Mental_Status -->
<g id="edge1" class="edge">
<title>Start-&gt;Altered_Mental_Status</title>
<path fill="none" stroke="#000000" d="M646.3167,-464.7551C646.3167,-456.6828 646.3167,-446.9764 646.3167,-437.9817"/>
<polygon fill="#000000" stroke="#000000" points="649.8168,-437.8903 646.3167,-427.8904 642.8168,-437.8904 649.8168,-437.8903"/>
</g>
<!-- AMS_Yes -->
<g id="node3" class="node">
<title>AMS_Yes</title>
<polygon fill="none" stroke="#000000" points="661.5498,-338.8019 171.0836,-338.8019 171.0836,-297.5981 661.5498,-297.5981 661.5498,-338.8019"/>
<text text-anchor="middle" x="416.3167" y="-322.4" font-family="Times,serif" font-size="14.00" fill="#000000">YES</text>
<text text-anchor="middle" x="416.3167" y="-305.6" font-family="Times,serif" font-size="14.00" fill="#000000">Confusion, Altered sensorium, Vomiting, Seizure, Coma, Ataxia, Collapse, Dyspnea</text>
</g>
<!-- Altered_Mental_Status&#45;&gt;AMS_Yes -->
<g id="edge2" class="edge">
<title>Altered_Mental_Status-&gt;AMS_Yes</title>
<path fill="none" stroke="#000000" d="M611.8834,-396.0866C576.4657,-381.9811 520.5589,-359.7156 477.575,-342.5968"/>
<polygon fill="#000000" stroke="#000000" points="478.6439,-339.2552 468.0586,-338.8068 476.0539,-345.7584 478.6439,-339.2552"/>
<text text-anchor="middle" x="565.5376" y="-361.2" font-family="Times,serif" font-size="14.00" fill="#000000">YES</text>
</g>
<!-- AMS_No -->
<g id="node4" class="node">
<title>AMS_No</title>
<polygon fill="none" stroke="#000000" points="1128.1629,-338.8019 730.4705,-338.8019 730.4705,-297.5981 1128.1629,-297.5981 1128.1629,-338.8019"/>
<text text-anchor="middle" x="929.3167" y="-322.4" font-family="Times,serif" font-size="14.00" fill="#000000">NO</text>
<text text-anchor="middle" x="929.3167" y="-305.6" font-family="Times,serif" font-size="14.00" fill="#000000">Weakness, Dizziness, Headache, Nausea, Vomiting, Muscle cramps</text>
</g>
<!-- Altered_Mental_Status&#45;&gt;AMS_No -->
<g id="edge3" class="edge">
<title>Altered_Mental_Status-&gt;AMS_No</title>
<path fill="none" stroke="#000000" d="M685.9646,-396.967C729.8769,-382.7537 801.629,-359.5293 855.8698,-341.9729"/>
<polygon fill="#000000" stroke="#000000" points="857.0045,-345.2845 865.4407,-338.8751 854.8488,-338.6247 857.0045,-345.2845"/>
<text text-anchor="middle" x="815.4233" y="-361.2" font-family="Times,serif" font-size="14.00" fill="#000000">NO</text>
</g>
<!-- Alternative_Diagnoses1 -->
<g id="node5" class="node">
<title>Alternative_Diagnoses1</title>
<polygon fill="none" stroke="#000000" points="225.1542,-257.6 23.4792,-257.6 23.4792,-221.6 225.1542,-221.6 225.1542,-257.6"/>
<text text-anchor="middle" x="124.3167" y="-235.4" font-family="Times,serif" font-size="14.00" fill="#000000">Consider alternative diagnoses**</text>
</g>
<!-- AMS_Yes&#45;&gt;Alternative_Diagnoses1 -->
<g id="edge6" class="edge">
<title>AMS_Yes-&gt;Alternative_Diagnoses1</title>
<path fill="none" stroke="#000000" d="M339.5971,-297.5488C296.9577,-286.0712 244.0549,-271.8309 201.3632,-260.3392"/>
<polygon fill="#000000" stroke="#000000" points="202.1484,-256.9261 191.5823,-257.7064 200.3288,-263.6855 202.1484,-256.9261"/>
</g>
<!-- Severe_EAH -->
<g id="node7" class="node">
<title>Severe_EAH</title>
<polygon fill="none" stroke="#000000" points="415.5919,-260.2019 243.0415,-260.2019 243.0415,-218.9981 415.5919,-218.9981 415.5919,-260.2019"/>
<text text-anchor="middle" x="329.3167" y="-243.8" font-family="Times,serif" font-size="14.00" fill="#000000">Severe EAH</text>
<text text-anchor="middle" x="329.3167" y="-227" font-family="Times,serif" font-size="14.00" fill="#000000">Large fluid intake, Dyspnea</text>
</g>
<!-- AMS_Yes&#45;&gt;Severe_EAH -->
<g id="edge4" class="edge">
<title>AMS_Yes-&gt;Severe_EAH</title>
<path fill="none" stroke="#000000" d="M393.4585,-297.5488C383.1504,-288.2359 370.829,-277.1043 359.7532,-267.0978"/>
<polygon fill="#000000" stroke="#000000" points="362.0909,-264.4929 352.3243,-260.3862 357.3982,-269.6871 362.0909,-264.4929"/>
</g>
<!-- Heat_Stroke -->
<g id="node8" class="node">
<title>Heat_Stroke</title>
<polygon fill="none" stroke="#000000" points="749.5622,-260.2019 433.0712,-260.2019 433.0712,-218.9981 749.5622,-218.9981 749.5622,-260.2019"/>
<text text-anchor="middle" x="591.3167" y="-243.8" font-family="Times,serif" font-size="14.00" fill="#000000">Heat stroke</text>
<text text-anchor="middle" x="591.3167" y="-227" font-family="Times,serif" font-size="14.00" fill="#000000">Confirmed or suspected temperature &gt; 40°C (104°F)</text>
</g>
<!-- AMS_Yes&#45;&gt;Heat_Stroke -->
<g id="edge5" class="edge">
<title>AMS_Yes-&gt;Heat_Stroke</title>
<path fill="none" stroke="#000000" d="M462.2959,-297.5488C484.9144,-287.3898 512.3516,-275.0666 536.0991,-264.4006"/>
<polygon fill="#000000" stroke="#000000" points="537.653,-267.5396 545.3411,-260.2496 534.7849,-261.1541 537.653,-267.5396"/>
</g>
<!-- Alternative_Diagnoses2 -->
<g id="node6" class="node">
<title>Alternative_Diagnoses2</title>
<polygon fill="none" stroke="#000000" points="969.1542,-257.6 767.4792,-257.6 767.4792,-221.6 969.1542,-221.6 969.1542,-257.6"/>
<text text-anchor="middle" x="868.3167" y="-235.4" font-family="Times,serif" font-size="14.00" fill="#000000">Consider alternative diagnoses**</text>
</g>
<!-- AMS_No&#45;&gt;Alternative_Diagnoses2 -->
<g id="edge9" class="edge">
<title>AMS_No-&gt;Alternative_Diagnoses2</title>
<path fill="none" stroke="#000000" d="M913.2897,-297.5488C905.7136,-287.7868 896.5865,-276.0263 888.54,-265.6582"/>
<polygon fill="#000000" stroke="#000000" points="891.2649,-263.4606 882.3688,-257.7064 885.7348,-267.7523 891.2649,-263.4606"/>
</g>
<!-- Mild_EAH -->
<g id="node9" class="node">
<title>Mild_EAH</title>
<polygon fill="none" stroke="#000000" points="1362.9671,-260.2019 987.6663,-260.2019 987.6663,-218.9981 1362.9671,-218.9981 1362.9671,-260.2019"/>
<text text-anchor="middle" x="1175.3167" y="-243.8" font-family="Times,serif" font-size="14.00" fill="#000000">Mild EAH</text>
<text text-anchor="middle" x="1175.3167" y="-227" font-family="Times,serif" font-size="14.00" fill="#000000">Bloated feeling, Weight gain, Normal vital signs, No orthostasis</text>
</g>
<!-- AMS_No&#45;&gt;Mild_EAH -->
<g id="edge7" class="edge">
<title>AMS_No-&gt;Mild_EAH</title>
<path fill="none" stroke="#000000" d="M993.9503,-297.5488C1026.7302,-287.0752 1066.71,-274.3012 1100.7831,-263.4144"/>
<polygon fill="#000000" stroke="#000000" points="1102.2278,-266.6272 1110.6881,-260.2496 1100.0973,-259.9593 1102.2278,-266.6272"/>
</g>
<!-- Heat_Exhaustion -->
<g id="node10" class="node">
<title>Heat_Exhaustion</title>
<polygon fill="none" stroke="#000000" points="1704.8676,-260.2019 1381.7658,-260.2019 1381.7658,-218.9981 1704.8676,-218.9981 1704.8676,-260.2019"/>
<text text-anchor="middle" x="1543.3167" y="-243.8" font-family="Times,serif" font-size="14.00" fill="#000000">Heat Exhaustion/Dehydration</text>
<text text-anchor="middle" x="1543.3167" y="-227" font-family="Times,serif" font-size="14.00" fill="#000000">Thirst, Orthostatic symptoms, Dry mucous membranes</text>
</g>
<!-- AMS_No&#45;&gt;Heat_Exhaustion -->
<g id="edge8" class="edge">
<title>AMS_No-&gt;Heat_Exhaustion</title>
<path fill="none" stroke="#000000" d="M1090.638,-297.5488C1177.2805,-286.4574 1284.076,-272.7862 1372.1741,-261.5085"/>
<polygon fill="#000000" stroke="#000000" points="1372.7998,-264.957 1382.2744,-260.2155 1371.9109,-258.0137 1372.7998,-264.957"/>
</g>
<!-- Treatment_Severe_EAH -->
<g id="node11" class="node">
<title>Treatment_Severe_EAH</title>
<polygon fill="none" stroke="#000000" points="480.4502,-156.8014 .1832,-156.8014 .1832,-97.9986 480.4502,-97.9986 480.4502,-156.8014"/>
<text text-anchor="middle" x="240.3167" y="-140" font-family="Times,serif" font-size="14.00" fill="#000000">Treatment: Severe EAH</text>
<text text-anchor="middle" x="240.3167" y="-123.2" font-family="Times,serif" font-size="14.00" fill="#000000">IV bolus 100 mL HTS</text>
<text text-anchor="middle" x="240.3167" y="-106.4" font-family="Times,serif" font-size="14.00" fill="#000000">May repeat up to 3 doses every 10 minutes or until neurological symptoms subside</text>
</g>
<!-- Severe_EAH&#45;&gt;Treatment_Severe_EAH -->
<g id="edge10" class="edge">
<title>Severe_EAH-&gt;Treatment_Severe_EAH</title>
<path fill="none" stroke="#000000" d="M312.7851,-218.759C300.8405,-203.7008 284.3748,-182.9429 270.1569,-165.0188"/>
<polygon fill="#000000" stroke="#000000" points="272.7635,-162.6728 263.8068,-157.0134 267.2793,-167.023 272.7635,-162.6728"/>
</g>
<!-- Treatment_Heat_Stroke -->
<g id="node12" class="node">
<title>Treatment_Heat_Stroke</title>
<polygon fill="none" stroke="#000000" points="789.6661,-165.1003 498.9673,-165.1003 498.9673,-89.6997 789.6661,-89.6997 789.6661,-165.1003"/>
<text text-anchor="middle" x="644.3167" y="-148.4" font-family="Times,serif" font-size="14.00" fill="#000000">Treatment: Heat Stroke</text>
<text text-anchor="middle" x="644.3167" y="-131.6" font-family="Times,serif" font-size="14.00" fill="#000000">Aggressive immersion/conductive cooling</text>
<text text-anchor="middle" x="644.3167" y="-114.8" font-family="Times,serif" font-size="14.00" fill="#000000">IV 1-2 L NS/D5NS</text>
<text text-anchor="middle" x="644.3167" y="-98" font-family="Times,serif" font-size="14.00" fill="#000000">(Consider IV HTS if progression to severe EAH)</text>
</g>
<!-- Heat_Stroke&#45;&gt;Treatment_Heat_Stroke -->
<g id="edge11" class="edge">
<title>Heat_Stroke-&gt;Treatment_Heat_Stroke</title>
<path fill="none" stroke="#000000" d="M601.1614,-218.759C607.012,-206.3734 614.684,-190.1318 621.9345,-174.7826"/>
<polygon fill="#000000" stroke="#000000" points="625.2679,-175.9203 626.3745,-165.3834 618.9386,-172.9304 625.2679,-175.9203"/>
</g>
<!-- Treatment_Mild_EAH -->
<g id="node13" class="node">
<title>Treatment_Mild_EAH</title>
<polygon fill="none" stroke="#000000" points="1293.7457,-173.4 1056.8877,-173.4 1056.8877,-81.4 1293.7457,-81.4 1293.7457,-173.4"/>
<text text-anchor="middle" x="1175.3167" y="-156.8" font-family="Times,serif" font-size="14.00" fill="#000000">Treatment: Mild EAH</text>
<text text-anchor="middle" x="1175.3167" y="-140" font-family="Times,serif" font-size="14.00" fill="#000000">Fluid restrict until diuresis</text>
<text text-anchor="middle" x="1175.3167" y="-123.2" font-family="Times,serif" font-size="14.00" fill="#000000">Salty snacks*</text>
<text text-anchor="middle" x="1175.3167" y="-106.4" font-family="Times,serif" font-size="14.00" fill="#000000">Oral hypertonic solution*</text>
<text text-anchor="middle" x="1175.3167" y="-89.6" font-family="Times,serif" font-size="14.00" fill="#000000">Monitor for progression to severe EAH</text>
</g>
<!-- Mild_EAH&#45;&gt;Treatment_Mild_EAH -->
<g id="edge12" class="edge">
<title>Mild_EAH-&gt;Treatment_Mild_EAH</title>
<path fill="none" stroke="#000000" d="M1175.3167,-218.759C1175.3167,-208.7578 1175.3167,-196.2424 1175.3167,-183.7129"/>
<polygon fill="#000000" stroke="#000000" points="1178.8168,-183.7091 1175.3167,-173.7091 1171.8168,-183.7092 1178.8168,-183.7091"/>
</g>
<!-- Treatment_Heat_Exhaustion -->
<g id="node14" class="node">
<title>Treatment_Heat_Exhaustion</title>
<polygon fill="none" stroke="#000000" points="1667.0239,-181.7002 1419.6095,-181.7002 1419.6095,-73.0998 1667.0239,-73.0998 1667.0239,-181.7002"/>
<text text-anchor="middle" x="1543.3167" y="-165.2" font-family="Times,serif" font-size="14.00" fill="#000000">Treatment: Heat Exhaustion/Dehydration</text>
<text text-anchor="middle" x="1543.3167" y="-148.4" font-family="Times,serif" font-size="14.00" fill="#000000">Drink to comfort‡</text>
<text text-anchor="middle" x="1543.3167" y="-131.6" font-family="Times,serif" font-size="14.00" fill="#000000">Avoid forced fluids</text>
<text text-anchor="middle" x="1543.3167" y="-114.8" font-family="Times,serif" font-size="14.00" fill="#000000">Rest in the shade</text>
<text text-anchor="middle" x="1543.3167" y="-98" font-family="Times,serif" font-size="14.00" fill="#000000">Cold water dousing for cooling</text>
<text text-anchor="middle" x="1543.3167" y="-81.2" font-family="Times,serif" font-size="14.00" fill="#000000">Monitor for progression to heat stroke</text>
</g>
<!-- Heat_Exhaustion&#45;&gt;Treatment_Heat_Exhaustion -->
<g id="edge13" class="edge">
<title>Heat_Exhaustion-&gt;Treatment_Heat_Exhaustion</title>
<path fill="none" stroke="#000000" d="M1543.3167,-218.759C1543.3167,-210.9511 1543.3167,-201.6109 1543.3167,-191.9279"/>
<polygon fill="#000000" stroke="#000000" points="1546.8168,-191.7629 1543.3167,-181.763 1539.8168,-191.763 1546.8168,-191.7629"/>
</g>
<!-- Transport -->
<g id="node15" class="node">
<title>Transport</title>
<polygon fill="none" stroke="#000000" points="555.2319,-36 327.4015,-36 327.4015,0 555.2319,0 555.2319,-36"/>
<text text-anchor="middle" x="441.3167" y="-13.8" font-family="Times,serif" font-size="14.00" fill="#000000">TRANSPORT TO MEDICAL CARE</text>
</g>
<!-- Treatment_Severe_EAH&#45;&gt;Transport -->
<g id="edge14" class="edge">
<title>Treatment_Severe_EAH-&gt;Transport</title>
<path fill="none" stroke="#000000" d="M294.181,-98.0828C327.061,-80.1869 368.4981,-57.6336 399.0135,-41.0247"/>
<polygon fill="#000000" stroke="#000000" points="401.0015,-43.9276 408.1116,-36.0729 397.655,-37.7793 401.0015,-43.9276"/>
</g>
<!-- Treatment_Heat_Stroke&#45;&gt;Transport -->
<g id="edge15" class="edge">
<title>Treatment_Heat_Stroke-&gt;Transport</title>
<path fill="none" stroke="#000000" d="M574.4556,-89.7507C544.2934,-73.4958 509.9894,-55.0088 483.7567,-40.8716"/>
<polygon fill="#000000" stroke="#000000" points="485.298,-37.7264 474.8345,-36.0633 481.9771,-43.8885 485.298,-37.7264"/>
</g>
<!-- Notes -->
<g id="node16" class="node">
<title>Notes</title>
<polygon fill="none" stroke="#000000" points="1734.7757,-500.8 863.8577,-500.8 863.8577,-464.8 1734.7757,-464.8 1734.7757,-500.8"/>
<text text-anchor="middle" x="1299.3167" y="-478.6" font-family="Times,serif" font-size="14.00" fill="#000000">**Alternative diagnoses include: hypoglycemia, hyperglycemia, altitude illness, infection, myocardial infarction, endocrine issues, toxin ingestion/drugs</text>
</g>
</g>
</svg>