<?xml version="1.0" encoding="UTF-8" standalone="no"?><!DOCTYPE svg PUBLIC "-//W3C//DTD SVG 1.1//EN" "http://www.w3.org/Graphics/SVG/1.1/DTD/svg11.dtd"><!-- Generated by graphviz version 2.40.1 (20161225.0304)
 --><!-- Title: G Pages: 1 --><svg xmlns="http://www.w3.org/2000/svg" xmlns:xlink="http://www.w3.org/1999/xlink" width="585pt" height="222pt" viewBox="0.00 0.00 584.56 221.60">
<g id="graph0" class="graph" transform="scale(1 1) rotate(0) translate(4 217.6)">
<title>G</title>
<polygon fill="#ffffff" stroke="transparent" points="-4,4 -4,-217.6 580.5611,-217.6 580.5611,4 -4,4"/>
<!-- a -->
<g id="node1" class="node">
<title>a</title>
<polygon fill="none" stroke="#0000ff" points="288.2806,-213.6 .2193,-195.6 288.2806,-177.6 576.3418,-195.6 288.2806,-213.6"/>
<text text-anchor="middle" x="288.2806" y="-191.4" font-family="Times,serif" font-size="14.00" fill="#0000ff">Is the person planning or could become pregnant?</text>
</g>
<!-- b -->
<g id="node2" class="node">
<title>b</title>
<polygon fill="none" stroke="#000000" points="487.1026,-124.8 89.4585,-124.8 89.4585,-88.8 487.1026,-88.8 487.1026,-124.8"/>
<text text-anchor="middle" x="288.2806" y="-102.6" font-family="Times,serif" font-size="14.00" fill="#000000">Recommend daily supplement containing 0.4 to 0.8 mg of folic acid</text>
</g>
<!-- a&#45;&gt;b -->
<g id="edge1" class="edge">
<title>a-&gt;b</title>
<path fill="none" stroke="#000000" d="M288.2806,-177.2006C288.2806,-165.0949 288.2806,-149.0076 288.2806,-135.2674"/>
<polygon fill="#000000" stroke="#000000" points="291.7806,-134.872 288.2806,-124.872 284.7806,-134.8721 291.7806,-134.872"/>
<text text-anchor="middle" x="299.1635" y="-147" font-family="Times,serif" font-size="14.00" fill="#000000">Yes</text>
</g>
<!-- c -->
<g id="node3" class="node">
<title>c</title>
<polygon fill="none" stroke="#000000" points="567.2682,-36 9.293,-36 9.293,0 567.2682,0 567.2682,-36"/>
<text text-anchor="middle" x="288.2806" y="-13.8" font-family="Times,serif" font-size="14.00" fill="#000000">Start at least 1 month prior to conception and continue through the first 2-3 months of pregnancy</text>
</g>
<!-- b&#45;&gt;c -->
<g id="edge2" class="edge">
<title>b-&gt;c</title>
<path fill="none" stroke="#000000" d="M288.2806,-88.4006C288.2806,-76.2949 288.2806,-60.2076 288.2806,-46.4674"/>
<polygon fill="#000000" stroke="#000000" points="291.7806,-46.072 288.2806,-36.072 284.7806,-46.0721 291.7806,-46.072"/>
<text text-anchor="middle" x="317.4461" y="-58.2" font-family="Times,serif" font-size="14.00" fill="#000000">Follow-up</text>
</g>
</g>
</svg>