<?xml version="1.0" encoding="UTF-8" standalone="no"?>
<!DOCTYPE svg PUBLIC "-//W3C//DTD SVG 1.1//EN"
 "http://www.w3.org/Graphics/SVG/1.1/DTD/svg11.dtd">
<!-- Generated by graphviz version 2.43.0 (0)
 -->
<!-- Title: ReturnToPlayProtocol Pages: 1 -->
<svg width="1224pt" height="827pt"
 viewBox="0.00 0.00 1223.58 827.00" xmlns="http://www.w3.org/2000/svg" xmlns:xlink="http://www.w3.org/1999/xlink">
<g id="graph0" class="graph" transform="scale(1 1) rotate(0) translate(4 823)">
<title>ReturnToPlayProtocol</title>
<polygon fill="white" stroke="transparent" points="-4,4 -4,-823 1219.58,-823 1219.58,4 -4,4"/>
<!-- InitialPopulation -->
<g id="node1" class="node">
<title>InitialPopulation</title>
<g id="a_node1"><a xlink:title="All individuals who have participated in sports activities and have been diagnosed with a concussion.">
<path fill="none" stroke="green" d="M616.39,-819C616.39,-819 501.39,-819 501.39,-819 495.39,-819 489.39,-813 489.39,-807 489.39,-807 489.39,-795 489.39,-795 489.39,-789 495.39,-783 501.39,-783 501.39,-783 616.39,-783 616.39,-783 622.39,-783 628.39,-789 628.39,-795 628.39,-795 628.39,-807 628.39,-807 628.39,-813 622.39,-819 616.39,-819"/>
<text text-anchor="middle" x="558.89" y="-797.3" font-family="Times,serif" font-size="14.00" fill="green">Initial Population</text>
</a>
</g>
</g>
<!-- DiagnosedConcussion -->
<g id="node5" class="node">
<title>DiagnosedConcussion</title>
<g id="a_node5"><a xlink:title="Diagnosed with a concussion by a qualified healthcare professional.">
<ellipse fill="none" stroke="blue" cx="558.89" cy="-714" rx="115.08" ry="18"/>
<text text-anchor="middle" x="558.89" y="-710.3" font-family="Times,serif" font-size="14.00" fill="blue">Diagnosed Concussion</text>
</a>
</g>
</g>
<!-- InitialPopulation&#45;&gt;DiagnosedConcussion -->
<g id="edge1" class="edge">
<title>InitialPopulation&#45;&gt;DiagnosedConcussion</title>
<path fill="none" stroke="blue" d="M558.89,-782.8C558.89,-771.16 558.89,-755.55 558.89,-742.24"/>
<polygon fill="blue" stroke="blue" points="562.39,-742.18 558.89,-732.18 555.39,-742.18 562.39,-742.18"/>
<text text-anchor="middle" x="563.89" y="-753.8" font-family="Times,serif" font-size="14.00" fill="blue">if</text>
</g>
<!-- SubsetScreening -->
<g id="node2" class="node">
<title>SubsetScreening</title>
<g id="a_node2"><a xlink:title="Individuals from the initial population who meet specific criteria for screening.">
<path fill="none" stroke="green" d="M673.39,-471C673.39,-471 444.39,-471 444.39,-471 438.39,-471 432.39,-465 432.39,-459 432.39,-459 432.39,-447 432.39,-447 432.39,-441 438.39,-435 444.39,-435 444.39,-435 673.39,-435 673.39,-435 679.39,-435 685.39,-441 685.39,-447 685.39,-447 685.39,-459 685.39,-459 685.39,-465 679.39,-471 673.39,-471"/>
<text text-anchor="middle" x="558.89" y="-449.3" font-family="Times,serif" font-size="14.00" fill="green">Subset Considered for Screening</text>
</a>
</g>
</g>
<!-- SevereSymptoms -->
<g id="node8" class="node">
<title>SevereSymptoms</title>
<g id="a_node8"><a xlink:title="Presence of severe or worsening neurological symptoms that require immediate medical intervention.">
<ellipse fill="none" stroke="blue" cx="94.89" cy="-366" rx="94.78" ry="18"/>
<text text-anchor="middle" x="94.89" y="-362.3" font-family="Times,serif" font-size="14.00" fill="blue">Severe Symptoms</text>
</a>
</g>
</g>
<!-- SubsetScreening&#45;&gt;SevereSymptoms -->
<g id="edge5" class="edge">
<title>SubsetScreening&#45;&gt;SevereSymptoms</title>
<path fill="none" stroke="blue" d="M465.83,-434.95C379.06,-419.06 251.25,-395.64 170.58,-380.87"/>
<polygon fill="blue" stroke="blue" points="170.96,-377.38 160.49,-379.02 169.7,-384.26 170.96,-377.38"/>
<text text-anchor="middle" x="359.89" y="-405.8" font-family="Times,serif" font-size="14.00" fill="blue">if</text>
</g>
<!-- MultipleConcussions -->
<g id="node9" class="node">
<title>MultipleConcussions</title>
<g id="a_node9"><a xlink:title="History of multiple concussions with prolonged recovery periods.">
<ellipse fill="none" stroke="blue" cx="317.89" cy="-366" rx="110.48" ry="18"/>
<text text-anchor="middle" x="317.89" y="-362.3" font-family="Times,serif" font-size="14.00" fill="blue">Multiple Concussions</text>
</a>
</g>
</g>
<!-- SubsetScreening&#45;&gt;MultipleConcussions -->
<g id="edge7" class="edge">
<title>SubsetScreening&#45;&gt;MultipleConcussions</title>
<path fill="none" stroke="blue" d="M510.41,-434.9C470.33,-420.76 413.45,-400.7 371.91,-386.05"/>
<polygon fill="blue" stroke="blue" points="372.83,-382.66 362.23,-382.64 370.5,-389.27 372.83,-382.66"/>
<text text-anchor="middle" x="457.89" y="-405.8" font-family="Times,serif" font-size="14.00" fill="blue">if</text>
</g>
<!-- CoexistingConditions -->
<g id="node10" class="node">
<title>CoexistingConditions</title>
<g id="a_node10"><a xlink:title="Co&#45;existing medical conditions that may complicate concussion recovery.">
<ellipse fill="none" stroke="blue" cx="558.89" cy="-366" rx="112.38" ry="18"/>
<text text-anchor="middle" x="558.89" y="-362.3" font-family="Times,serif" font-size="14.00" fill="blue">Coexisting Conditions</text>
</a>
</g>
</g>
<!-- SubsetScreening&#45;&gt;CoexistingConditions -->
<g id="edge9" class="edge">
<title>SubsetScreening&#45;&gt;CoexistingConditions</title>
<path fill="none" stroke="blue" d="M558.89,-434.8C558.89,-423.16 558.89,-407.55 558.89,-394.24"/>
<polygon fill="blue" stroke="blue" points="562.39,-394.18 558.89,-384.18 555.39,-394.18 562.39,-394.18"/>
<text text-anchor="middle" x="563.89" y="-405.8" font-family="Times,serif" font-size="14.00" fill="blue">if</text>
</g>
<!-- NoClearance -->
<g id="node11" class="node">
<title>NoClearance</title>
<g id="a_node11"><a xlink:title="Lack of medical clearance from a healthcare professional to begin the return&#45;to&#45;play protocol.">
<ellipse fill="none" stroke="blue" cx="801.89" cy="-366" rx="112.38" ry="18"/>
<text text-anchor="middle" x="801.89" y="-362.3" font-family="Times,serif" font-size="14.00" fill="blue">No Medical Clearance</text>
</a>
</g>
</g>
<!-- SubsetScreening&#45;&gt;NoClearance -->
<g id="edge11" class="edge">
<title>SubsetScreening&#45;&gt;NoClearance</title>
<path fill="none" stroke="blue" d="M607.77,-434.9C648.28,-420.73 705.78,-400.62 747.69,-385.96"/>
<polygon fill="blue" stroke="blue" points="748.9,-389.24 757.18,-382.64 746.59,-382.64 748.9,-389.24"/>
<text text-anchor="middle" x="700.89" y="-405.8" font-family="Times,serif" font-size="14.00" fill="blue">if</text>
</g>
<!-- BaselineCognitive -->
<g id="node12" class="node">
<title>BaselineCognitive</title>
<g id="a_node12"><a xlink:title="Return to baseline levels of cognitive function as evidenced by neurocognitive testing.">
<ellipse fill="none" stroke="blue" cx="1073.89" cy="-366" rx="141.88" ry="18"/>
<text text-anchor="middle" x="1073.89" y="-362.3" font-family="Times,serif" font-size="14.00" fill="blue">Baseline Cognitive Function</text>
</a>
</g>
</g>
<!-- SubsetScreening&#45;&gt;BaselineCognitive -->
<g id="edge13" class="edge">
<title>SubsetScreening&#45;&gt;BaselineCognitive</title>
<path fill="none" stroke="blue" d="M662.18,-434.95C755.44,-419.56 891.41,-397.12 981.23,-382.29"/>
<polygon fill="blue" stroke="blue" points="981.84,-385.74 991.13,-380.66 980.7,-378.83 981.84,-385.74"/>
<text text-anchor="middle" x="852.89" y="-405.8" font-family="Times,serif" font-size="14.00" fill="blue">if</text>
</g>
<!-- Excluded -->
<g id="node3" class="node">
<title>Excluded</title>
<g id="a_node3"><a xlink:title="Individuals excluded from screening based on specific criteria.">
<path fill="none" stroke="green" d="M465.39,-297C465.39,-297 292.39,-297 292.39,-297 286.39,-297 280.39,-291 280.39,-285 280.39,-285 280.39,-273 280.39,-273 280.39,-267 286.39,-261 292.39,-261 292.39,-261 465.39,-261 465.39,-261 471.39,-261 477.39,-267 477.39,-273 477.39,-273 477.39,-285 477.39,-285 477.39,-291 471.39,-297 465.39,-297"/>
<text text-anchor="middle" x="378.89" y="-275.3" font-family="Times,serif" font-size="14.00" fill="green">Excluded from Screening</text>
</a>
</g>
</g>
<!-- SuccessfulScreen -->
<g id="node4" class="node">
<title>SuccessfulScreen</title>
<g id="a_node4"><a xlink:title="Individuals who meet all conditions for successful screening.">
<path fill="none" stroke="green" d="M1134.89,-36C1134.89,-36 1012.89,-36 1012.89,-36 1006.89,-36 1000.89,-30 1000.89,-24 1000.89,-24 1000.89,-12 1000.89,-12 1000.89,-6 1006.89,0 1012.89,0 1012.89,0 1134.89,0 1134.89,0 1140.89,0 1146.89,-6 1146.89,-12 1146.89,-12 1146.89,-24 1146.89,-24 1146.89,-30 1140.89,-36 1134.89,-36"/>
<text text-anchor="middle" x="1073.89" y="-14.3" font-family="Times,serif" font-size="14.00" fill="green">Successful Screen</text>
</a>
</g>
</g>
<!-- PostAcutePhase -->
<g id="node6" class="node">
<title>PostAcutePhase</title>
<g id="a_node6"><a xlink:title="Currently in the post&#45;acute phase of concussion recovery, typically defined as 24 hours post&#45;injury.">
<ellipse fill="none" stroke="blue" cx="558.89" cy="-627" rx="90.98" ry="18"/>
<text text-anchor="middle" x="558.89" y="-623.3" font-family="Times,serif" font-size="14.00" fill="blue">Post&#45;Acute Phase</text>
</a>
</g>
</g>
<!-- DiagnosedConcussion&#45;&gt;PostAcutePhase -->
<g id="edge2" class="edge">
<title>DiagnosedConcussion&#45;&gt;PostAcutePhase</title>
<path fill="none" stroke="blue" d="M558.89,-695.8C558.89,-684.16 558.89,-668.55 558.89,-655.24"/>
<polygon fill="blue" stroke="blue" points="562.39,-655.18 558.89,-645.18 555.39,-655.18 562.39,-655.18"/>
<text text-anchor="middle" x="572.39" y="-666.8" font-family="Times,serif" font-size="14.00" fill="blue">and</text>
</g>
<!-- InitialEvaluation -->
<g id="node7" class="node">
<title>InitialEvaluation</title>
<g id="a_node7"><a xlink:title="Received initial medical evaluation and management according to standard concussion care guidelines.">
<ellipse fill="none" stroke="blue" cx="558.89" cy="-540" rx="90.98" ry="18"/>
<text text-anchor="middle" x="558.89" y="-536.3" font-family="Times,serif" font-size="14.00" fill="blue">Initial Evaluation</text>
</a>
</g>
</g>
<!-- PostAcutePhase&#45;&gt;InitialEvaluation -->
<g id="edge3" class="edge">
<title>PostAcutePhase&#45;&gt;InitialEvaluation</title>
<path fill="none" stroke="blue" d="M558.89,-608.8C558.89,-597.16 558.89,-581.55 558.89,-568.24"/>
<polygon fill="blue" stroke="blue" points="562.39,-568.18 558.89,-558.18 555.39,-568.18 562.39,-568.18"/>
<text text-anchor="middle" x="572.39" y="-579.8" font-family="Times,serif" font-size="14.00" fill="blue">and</text>
</g>
<!-- InitialEvaluation&#45;&gt;SubsetScreening -->
<g id="edge4" class="edge">
<title>InitialEvaluation&#45;&gt;SubsetScreening</title>
<path fill="none" stroke="blue" d="M558.89,-521.8C558.89,-510.16 558.89,-494.55 558.89,-481.24"/>
<polygon fill="blue" stroke="blue" points="562.39,-481.18 558.89,-471.18 555.39,-481.18 562.39,-481.18"/>
<text text-anchor="middle" x="575.39" y="-492.8" font-family="Times,serif" font-size="14.00" fill="blue">then</text>
</g>
<!-- SevereSymptoms&#45;&gt;Excluded -->
<g id="edge6" class="edge">
<title>SevereSymptoms&#45;&gt;Excluded</title>
<path fill="none" stroke="blue" d="M143.39,-350.48C189.9,-336.56 260.5,-315.43 312.28,-299.94"/>
<polygon fill="blue" stroke="blue" points="313.46,-303.24 322.04,-297.02 311.46,-296.53 313.46,-303.24"/>
<text text-anchor="middle" x="271.39" y="-318.8" font-family="Times,serif" font-size="14.00" fill="blue">then</text>
</g>
<!-- MultipleConcussions&#45;&gt;Excluded -->
<g id="edge8" class="edge">
<title>MultipleConcussions&#45;&gt;Excluded</title>
<path fill="none" stroke="blue" d="M330.24,-347.8C338.92,-335.7 350.68,-319.3 360.47,-305.67"/>
<polygon fill="blue" stroke="blue" points="363.58,-307.34 366.57,-297.18 357.89,-303.26 363.58,-307.34"/>
<text text-anchor="middle" x="369.39" y="-318.8" font-family="Times,serif" font-size="14.00" fill="blue">then</text>
</g>
<!-- CoexistingConditions&#45;&gt;Excluded -->
<g id="edge10" class="edge">
<title>CoexistingConditions&#45;&gt;Excluded</title>
<path fill="none" stroke="blue" d="M524.61,-348.81C496.14,-335.37 455.4,-316.13 424.24,-301.41"/>
<polygon fill="blue" stroke="blue" points="425.43,-298.11 414.89,-297 422.44,-304.44 425.43,-298.11"/>
<text text-anchor="middle" x="496.39" y="-318.8" font-family="Times,serif" font-size="14.00" fill="blue">then</text>
</g>
<!-- NoClearance&#45;&gt;Excluded -->
<g id="edge12" class="edge">
<title>NoClearance&#45;&gt;Excluded</title>
<path fill="none" stroke="blue" d="M734.87,-351.53C664.49,-337.39 553.25,-315.04 473.85,-299.08"/>
<polygon fill="blue" stroke="blue" points="474.34,-295.61 463.85,-297.07 472.96,-302.47 474.34,-295.61"/>
<text text-anchor="middle" x="632.39" y="-318.8" font-family="Times,serif" font-size="14.00" fill="blue">then</text>
</g>
<!-- NormalBalance -->
<g id="node13" class="node">
<title>NormalBalance</title>
<g id="a_node13"><a xlink:title="Exhibits normal balance and coordination comparable to pre&#45;injury levels.">
<ellipse fill="none" stroke="blue" cx="1073.89" cy="-279" rx="85.29" ry="18"/>
<text text-anchor="middle" x="1073.89" y="-275.3" font-family="Times,serif" font-size="14.00" fill="blue">Normal Balance</text>
</a>
</g>
</g>
<!-- BaselineCognitive&#45;&gt;NormalBalance -->
<g id="edge14" class="edge">
<title>BaselineCognitive&#45;&gt;NormalBalance</title>
<path fill="none" stroke="blue" d="M1073.89,-347.8C1073.89,-336.16 1073.89,-320.55 1073.89,-307.24"/>
<polygon fill="blue" stroke="blue" points="1077.39,-307.18 1073.89,-297.18 1070.39,-307.18 1077.39,-307.18"/>
<text text-anchor="middle" x="1087.39" y="-318.8" font-family="Times,serif" font-size="14.00" fill="blue">and</text>
</g>
<!-- NoSymptoms -->
<g id="node14" class="node">
<title>NoSymptoms</title>
<g id="a_node14"><a xlink:title="Reports no concussion&#45;related symptoms or a significant reduction in symptoms.">
<ellipse fill="none" stroke="blue" cx="1073.89" cy="-192" rx="76.09" ry="18"/>
<text text-anchor="middle" x="1073.89" y="-188.3" font-family="Times,serif" font-size="14.00" fill="blue">No Symptoms</text>
</a>
</g>
</g>
<!-- NormalBalance&#45;&gt;NoSymptoms -->
<g id="edge15" class="edge">
<title>NormalBalance&#45;&gt;NoSymptoms</title>
<path fill="none" stroke="blue" d="M1073.89,-260.8C1073.89,-249.16 1073.89,-233.55 1073.89,-220.24"/>
<polygon fill="blue" stroke="blue" points="1077.39,-220.18 1073.89,-210.18 1070.39,-220.18 1077.39,-220.18"/>
<text text-anchor="middle" x="1087.39" y="-231.8" font-family="Times,serif" font-size="14.00" fill="blue">and</text>
</g>
<!-- MedicalClearance -->
<g id="node15" class="node">
<title>MedicalClearance</title>
<g id="a_node15"><a xlink:title="Receives medical clearance from a healthcare professional to progress through the stages of the return&#45;to&#45;play protocol.">
<ellipse fill="none" stroke="blue" cx="1073.89" cy="-105" rx="96.68" ry="18"/>
<text text-anchor="middle" x="1073.89" y="-101.3" font-family="Times,serif" font-size="14.00" fill="blue">Medical Clearance</text>
</a>
</g>
</g>
<!-- NoSymptoms&#45;&gt;MedicalClearance -->
<g id="edge16" class="edge">
<title>NoSymptoms&#45;&gt;MedicalClearance</title>
<path fill="none" stroke="blue" d="M1073.89,-173.8C1073.89,-162.16 1073.89,-146.55 1073.89,-133.24"/>
<polygon fill="blue" stroke="blue" points="1077.39,-133.18 1073.89,-123.18 1070.39,-133.18 1077.39,-133.18"/>
<text text-anchor="middle" x="1087.39" y="-144.8" font-family="Times,serif" font-size="14.00" fill="blue">and</text>
</g>
<!-- MedicalClearance&#45;&gt;SuccessfulScreen -->
<g id="edge17" class="edge">
<title>MedicalClearance&#45;&gt;SuccessfulScreen</title>
<path fill="none" stroke="blue" d="M1073.89,-86.8C1073.89,-75.16 1073.89,-59.55 1073.89,-46.24"/>
<polygon fill="blue" stroke="blue" points="1077.39,-46.18 1073.89,-36.18 1070.39,-46.18 1077.39,-46.18"/>
<text text-anchor="middle" x="1090.39" y="-57.8" font-family="Times,serif" font-size="14.00" fill="blue">then</text>
</g>
</g>
</svg>
