<?xml version="1.0" encoding="UTF-8" standalone="no"?>
<!DOCTYPE svg PUBLIC "-//W3C//DTD SVG 1.1//EN"
 "http://www.w3.org/Graphics/SVG/1.1/DTD/svg11.dtd">
<!-- Generated by graphviz version 11.0.0 (20240428.1522)
 -->
<!-- Title: G Pages: 1 -->
<svg width="803pt" height="526pt"
 viewBox="0.00 0.00 803.21 525.50" xmlns="http://www.w3.org/2000/svg" xmlns:xlink="http://www.w3.org/1999/xlink">
<g id="graph0" class="graph" transform="scale(1 1) rotate(0) translate(4 521.5)">
<title>G</title>
<polygon fill="white" stroke="none" points="-4,4 -4,-521.5 799.21,-521.5 799.21,4 -4,4"/>
<!-- Start -->
<g id="node1" class="node">
<title>Start</title>
<polygon fill="lightblue" stroke="lightblue" points="474.12,-517.5 420.12,-517.5 420.12,-481.5 474.12,-481.5 474.12,-517.5"/>
<text text-anchor="middle" x="447.12" y="-494.45" font-family="Times,serif" font-size="14.00">Start</text>
</g>
<!-- FirstLine -->
<g id="node2" class="node">
<title>FirstLine</title>
<polygon fill="lightblue" stroke="lightblue" points="284.12,-445.5 159.39,-427.5 284.12,-409.5 408.86,-427.5 284.12,-445.5"/>
<text text-anchor="middle" x="284.12" y="-422.45" font-family="Times,serif" font-size="14.00">First&#45;Line Treatment</text>
</g>
<!-- Start&#45;&gt;FirstLine -->
<g id="edge1" class="edge">
<title>Start&#45;&gt;FirstLine</title>
<path fill="none" stroke="black" d="M419.84,-486.78C393.93,-475.66 354.64,-458.78 324.99,-446.05"/>
<polygon fill="black" stroke="black" points="326.51,-442.89 315.94,-442.16 323.75,-449.32 326.51,-442.89"/>
</g>
<!-- BehavioralTreatment -->
<g id="node10" class="node">
<title>BehavioralTreatment</title>
<polygon fill="lightblue" stroke="lightblue" points="611.12,-445.5 427.04,-427.5 611.12,-409.5 795.21,-427.5 611.12,-445.5"/>
<text text-anchor="middle" x="611.12" y="-422.45" font-family="Times,serif" font-size="14.00">Behavioral Treatment Measures</text>
</g>
<!-- Start&#45;&gt;BehavioralTreatment -->
<g id="edge10" class="edge">
<title>Start&#45;&gt;BehavioralTreatment</title>
<path fill="none" stroke="black" d="M474.57,-486.78C499.91,-475.97 537.97,-459.73 567.47,-447.13"/>
<polygon fill="black" stroke="black" points="568.7,-450.41 576.53,-443.27 565.96,-443.97 568.7,-450.41"/>
</g>
<!-- Modafinil -->
<g id="node3" class="node">
<title>Modafinil</title>
<polygon fill="lightblue" stroke="lightblue" points="341,-357 165.25,-357 165.25,-321 341,-321 341,-357"/>
<text text-anchor="middle" x="253.12" y="-333.95" font-family="Times,serif" font-size="14.00">Modafinil (100–400 mg/day)</text>
</g>
<!-- FirstLine&#45;&gt;Modafinil -->
<g id="edge2" class="edge">
<title>FirstLine&#45;&gt;Modafinil</title>
<path fill="none" stroke="black" d="M278.29,-410.23C274.03,-398.34 268.14,-381.91 263.14,-367.93"/>
<polygon fill="black" stroke="black" points="266.53,-367.04 259.87,-358.81 259.94,-369.4 266.53,-367.04"/>
</g>
<!-- SodiumOxybate -->
<g id="node7" class="node">
<title>SodiumOxybate</title>
<polygon fill="lightblue" stroke="lightblue" points="485.25,-357 377,-357 377,-321 485.25,-321 485.25,-357"/>
<text text-anchor="middle" x="431.12" y="-333.95" font-family="Times,serif" font-size="14.00">Sodium Oxybate</text>
</g>
<!-- FirstLine&#45;&gt;SodiumOxybate -->
<g id="edge7" class="edge">
<title>FirstLine&#45;&gt;SodiumOxybate</title>
<path fill="none" stroke="black" d="M307.74,-412.6C330.34,-399.31 364.85,-379 391.63,-363.24"/>
<polygon fill="black" stroke="black" points="393.33,-366.3 400.17,-358.22 389.78,-360.27 393.33,-366.3"/>
<text text-anchor="middle" x="402.25" y="-378.2" font-family="Times,serif" font-size="14.00">In the USA</text>
</g>
<!-- ModafinilIncrease -->
<g id="node4" class="node">
<title>ModafinilIncrease</title>
<polygon fill="lightblue" stroke="lightblue" points="258.25,-268.5 0,-268.5 0,-232.5 258.25,-232.5 258.25,-268.5"/>
<text text-anchor="middle" x="129.12" y="-245.45" font-family="Times,serif" font-size="14.00">Increase up to 300 mg twice a day if needed</text>
</g>
<!-- Modafinil&#45;&gt;ModafinilIncrease -->
<g id="edge3" class="edge">
<title>Modafinil&#45;&gt;ModafinilIncrease</title>
<path fill="none" stroke="black" d="M228.33,-320.7C209.66,-307.68 183.85,-289.67 163.23,-275.29"/>
<polygon fill="black" stroke="black" points="165.32,-272.48 155.12,-269.63 161.32,-278.22 165.32,-272.48"/>
</g>
<!-- SecondLine -->
<g id="node5" class="node">
<title>SecondLine</title>
<polygon fill="lightblue" stroke="lightblue" points="293.12,-196.5 153.91,-178.5 293.12,-160.5 432.34,-178.5 293.12,-196.5"/>
<text text-anchor="middle" x="293.12" y="-173.45" font-family="Times,serif" font-size="14.00">Second&#45;Line Treatment</text>
</g>
<!-- ModafinilIncrease&#45;&gt;SecondLine -->
<g id="edge4" class="edge">
<title>ModafinilIncrease&#45;&gt;SecondLine</title>
<path fill="none" stroke="black" d="M170.09,-232.02C194.8,-221.47 226.21,-208.06 251.11,-197.44"/>
<polygon fill="black" stroke="black" points="252.47,-200.66 260.3,-193.51 249.73,-194.22 252.47,-200.66"/>
</g>
<!-- Methylphenidate -->
<g id="node6" class="node">
<title>Methylphenidate</title>
<polygon fill="lightblue" stroke="lightblue" points="393,-124.5 193.25,-124.5 193.25,-88.5 393,-88.5 393,-124.5"/>
<text text-anchor="middle" x="293.12" y="-101.45" font-family="Times,serif" font-size="14.00">Methylphenidate (10–60 mg/day)</text>
</g>
<!-- SecondLine&#45;&gt;Methylphenidate -->
<g id="edge5" class="edge">
<title>SecondLine&#45;&gt;Methylphenidate</title>
<path fill="none" stroke="black" d="M293.12,-160.2C293.12,-152.91 293.12,-144.23 293.12,-136.04"/>
<polygon fill="black" stroke="black" points="296.63,-136.12 293.13,-126.12 289.63,-136.12 296.63,-136.12"/>
</g>
<!-- OtherCompounds -->
<g id="node9" class="node">
<title>OtherCompounds</title>
<polygon fill="lightblue" stroke="lightblue" points="394.12,-36 192.12,-36 192.12,0 394.12,0 394.12,-36"/>
<text text-anchor="middle" x="293.12" y="-12.95" font-family="Times,serif" font-size="14.00">Limited role for other compounds</text>
</g>
<!-- Methylphenidate&#45;&gt;OtherCompounds -->
<g id="edge6" class="edge">
<title>Methylphenidate&#45;&gt;OtherCompounds</title>
<path fill="none" stroke="black" d="M293.12,-88.41C293.12,-76.76 293.12,-61.05 293.12,-47.52"/>
<polygon fill="black" stroke="black" points="296.63,-47.86 293.13,-37.86 289.63,-47.86 296.63,-47.86"/>
<text text-anchor="middle" x="408.62" y="-57.2" font-family="Times,serif" font-size="14.00">If first&#45;line and second&#45;line treatments fail</text>
</g>
<!-- Combination -->
<g id="node8" class="node">
<title>Combination</title>
<polygon fill="lightblue" stroke="lightblue" points="641.88,-268.5 276.38,-268.5 276.38,-232.5 641.88,-232.5 641.88,-268.5"/>
<text text-anchor="middle" x="459.12" y="-245.45" font-family="Times,serif" font-size="14.00">Combination of Modafinil &amp; Sodium Oxybate (in severe cases)</text>
</g>
<!-- SodiumOxybate&#45;&gt;Combination -->
<g id="edge8" class="edge">
<title>SodiumOxybate&#45;&gt;Combination</title>
<path fill="none" stroke="black" d="M436.66,-320.91C440.47,-309.14 445.62,-293.23 450.03,-279.61"/>
<polygon fill="black" stroke="black" points="453.29,-280.88 453.04,-270.29 446.63,-278.73 453.29,-280.88"/>
<text text-anchor="middle" x="489" y="-289.7" font-family="Times,serif" font-size="14.00">In severe cases</text>
</g>
<!-- Combination&#45;&gt;SecondLine -->
<g id="edge9" class="edge">
<title>Combination&#45;&gt;SecondLine</title>
<path fill="none" stroke="black" d="M417.66,-232.02C392.46,-221.39 360.36,-207.85 335.07,-197.19"/>
<polygon fill="black" stroke="black" points="336.65,-194.06 326.08,-193.39 333.93,-200.51 336.65,-194.06"/>
</g>
<!-- PlannedNaps -->
<g id="node11" class="node">
<title>PlannedNaps</title>
<polygon fill="lightblue" stroke="lightblue" points="702,-357 520.25,-357 520.25,-321 702,-321 702,-357"/>
<text text-anchor="middle" x="611.12" y="-333.95" font-family="Times,serif" font-size="14.00">Planned Naps (recommended)</text>
</g>
<!-- BehavioralTreatment&#45;&gt;PlannedNaps -->
<g id="edge11" class="edge">
<title>BehavioralTreatment&#45;&gt;PlannedNaps</title>
<path fill="none" stroke="black" d="M611.12,-409.41C611.12,-397.76 611.12,-382.05 611.12,-368.52"/>
<polygon fill="black" stroke="black" points="614.63,-368.86 611.13,-358.86 607.63,-368.86 614.63,-368.86"/>
</g>
</g>
</svg>
