<?xml version="1.0" encoding="UTF-8" standalone="no"?><!DOCTYPE svg PUBLIC "-//W3C//DTD SVG 1.1//EN" "http://www.w3.org/Graphics/SVG/1.1/DTD/svg11.dtd"><!-- Generated by graphviz version 2.40.1 (20161225.0304)
 --><!-- Title: OpioidRiskTool Pages: 1 --><svg xmlns="http://www.w3.org/2000/svg" xmlns:xlink="http://www.w3.org/1999/xlink" width="714pt" height="672pt" viewBox="0.00 0.00 714.48 671.60">
<g id="graph0" class="graph" transform="scale(1 1) rotate(0) translate(4 667.6)">
<title>OpioidRiskTool</title>
<polygon fill="#ffffff" stroke="transparent" points="-4,4 -4,-667.6 710.4754,-667.6 710.4754,4 -4,4"/>
<!-- start -->
<g id="node1" class="node">
<title>start</title>
<ellipse fill="#d3d3d3" stroke="#d3d3d3" cx="326.5961" cy="-645.6" rx="208.857" ry="18"/>
<text text-anchor="middle" x="326.5961" y="-641.4" font-family="Times,serif" font-size="14.00" fill="#000000">Patient Considered for Long-Term Opioid Therapy</text>
</g>
<!-- familyHistory -->
<g id="node2" class="node">
<title>familyHistory</title>
<polygon fill="#add8e6" stroke="#add8e6" points="445.3046,-590.7003 207.8876,-590.7003 207.8876,-515.2997 445.3046,-515.2997 445.3046,-590.7003"/>
<text text-anchor="middle" x="326.5961" y="-574" font-family="Times,serif" font-size="14.00" fill="#000000">Family History of Substance Abuse</text>
<text text-anchor="middle" x="326.5961" y="-557.2" font-family="Times,serif" font-size="14.00" fill="#000000">- Alcohol (Male 3, Female 1)</text>
<text text-anchor="middle" x="326.5961" y="-540.4" font-family="Times,serif" font-size="14.00" fill="#000000">- Illegal drugs (Male 3, Female 2)</text>
<text text-anchor="middle" x="326.5961" y="-523.6" font-family="Times,serif" font-size="14.00" fill="#000000">- Prescription drugs (Male 4, Female 4)</text>
</g>
<!-- start&#45;&gt;familyHistory -->
<g id="edge1" class="edge">
<title>start-&gt;familyHistory</title>
<path fill="none" stroke="#000000" d="M326.5961,-627.3052C326.5961,-619.6412 326.5961,-610.3372 326.5961,-600.943"/>
<polygon fill="#000000" stroke="#000000" points="330.0962,-600.7871 326.5961,-590.7871 323.0962,-600.7871 330.0962,-600.7871"/>
</g>
<!-- personalHistory -->
<g id="node3" class="node">
<title>personalHistory</title>
<polygon fill="#add8e6" stroke="#add8e6" points="445.3046,-478.5003 207.8876,-478.5003 207.8876,-403.0997 445.3046,-403.0997 445.3046,-478.5003"/>
<text text-anchor="middle" x="326.5961" y="-461.8" font-family="Times,serif" font-size="14.00" fill="#000000">Personal History of Substance Abuse</text>
<text text-anchor="middle" x="326.5961" y="-445" font-family="Times,serif" font-size="14.00" fill="#000000">- Alcohol (Male 3, Female 3)</text>
<text text-anchor="middle" x="326.5961" y="-428.2" font-family="Times,serif" font-size="14.00" fill="#000000">- Illegal drugs (Male 4, Female 4)</text>
<text text-anchor="middle" x="326.5961" y="-411.4" font-family="Times,serif" font-size="14.00" fill="#000000">- Prescription drugs (Male 5, Female 5)</text>
</g>
<!-- familyHistory&#45;&gt;personalHistory -->
<g id="edge2" class="edge">
<title>familyHistory-&gt;personalHistory</title>
<path fill="none" stroke="#000000" d="M326.5961,-515.3269C326.5961,-506.816 326.5961,-497.6686 326.5961,-488.7973"/>
<polygon fill="#000000" stroke="#000000" points="330.0962,-488.5646 326.5961,-478.5647 323.0962,-488.5647 330.0962,-488.5646"/>
</g>
<!-- age -->
<g id="node4" class="node">
<title>age</title>
<polygon fill="#add8e6" stroke="#add8e6" points="420.1425,-366.2 233.0497,-366.2 233.0497,-330.2 420.1425,-330.2 420.1425,-366.2"/>
<text text-anchor="middle" x="326.5961" y="-344" font-family="Times,serif" font-size="14.00" fill="#000000">Age (between 16-45) (1 point)</text>
</g>
<!-- personalHistory&#45;&gt;age -->
<g id="edge3" class="edge">
<title>personalHistory-&gt;age</title>
<path fill="none" stroke="#000000" d="M326.5961,-403.136C326.5961,-394.1935 326.5961,-384.8054 326.5961,-376.3705"/>
<polygon fill="#000000" stroke="#000000" points="330.0962,-376.3015 326.5961,-366.3016 323.0962,-376.3016 330.0962,-376.3015"/>
</g>
<!-- sexualAbuse -->
<g id="node5" class="node">
<title>sexualAbuse</title>
<polygon fill="#add8e6" stroke="#add8e6" points="499.6531,-293.2 153.5391,-293.2 153.5391,-257.2 499.6531,-257.2 499.6531,-293.2"/>
<text text-anchor="middle" x="326.5961" y="-271" font-family="Times,serif" font-size="14.00" fill="#000000">History of Preadolescent Sexual Abuse (Female 3, Male 0)</text>
</g>
<!-- age&#45;&gt;sexualAbuse -->
<g id="edge4" class="edge">
<title>age-&gt;sexualAbuse</title>
<path fill="none" stroke="#000000" d="M326.5961,-330.1551C326.5961,-322.0828 326.5961,-312.3764 326.5961,-303.3817"/>
<polygon fill="#000000" stroke="#000000" points="330.0962,-303.2903 326.5961,-293.2904 323.0962,-303.2904 330.0962,-303.2903"/>
</g>
<!-- psychologicalDisease -->
<g id="node6" class="node">
<title>psychologicalDisease</title>
<polygon fill="#add8e6" stroke="#add8e6" points="468.7493,-220.4014 184.4429,-220.4014 184.4429,-161.5986 468.7493,-161.5986 468.7493,-220.4014"/>
<text text-anchor="middle" x="326.5961" y="-203.6" font-family="Times,serif" font-size="14.00" fill="#000000">Psychological Disease</text>
<text text-anchor="middle" x="326.5961" y="-186.8" font-family="Times,serif" font-size="14.00" fill="#000000">- ADD, OCD, Bipolar, Schizophrenia (2 points)</text>
<text text-anchor="middle" x="326.5961" y="-170" font-family="Times,serif" font-size="14.00" fill="#000000">- Depression (1 point)</text>
</g>
<!-- sexualAbuse&#45;&gt;psychologicalDisease -->
<g id="edge5" class="edge">
<title>sexualAbuse-&gt;psychologicalDisease</title>
<path fill="none" stroke="#000000" d="M326.5961,-256.9299C326.5961,-249.1987 326.5961,-239.8689 326.5961,-230.6922"/>
<polygon fill="#000000" stroke="#000000" points="330.0962,-230.4897 326.5961,-220.4897 323.0962,-230.4898 330.0962,-230.4897"/>
</g>
<!-- calculateScore -->
<g id="node7" class="node">
<title>calculateScore</title>
<polygon fill="#add8e6" stroke="#add8e6" points="394.3313,-124.8 258.8608,-124.8 258.8608,-88.8 394.3313,-88.8 394.3313,-124.8"/>
<text text-anchor="middle" x="326.5961" y="-102.6" font-family="Times,serif" font-size="14.00" fill="#000000">Calculate ORT Score</text>
</g>
<!-- psychologicalDisease&#45;&gt;calculateScore -->
<g id="edge6" class="edge">
<title>psychologicalDisease-&gt;calculateScore</title>
<path fill="none" stroke="#000000" d="M326.5961,-161.5509C326.5961,-153.0147 326.5961,-143.7135 326.5961,-135.2402"/>
<polygon fill="#000000" stroke="#000000" points="330.0962,-135.0701 326.5961,-125.0701 323.0962,-135.0702 330.0962,-135.0701"/>
</g>
<!-- lowRisk -->
<g id="node8" class="node">
<title>lowRisk</title>
<ellipse fill="#00ff00" stroke="#00ff00" cx="96.5961" cy="-18" rx="96.6922" ry="18"/>
<text text-anchor="middle" x="96.5961" y="-13.8" font-family="Times,serif" font-size="14.00" fill="#000000">Low Risk (0-3 points)</text>
</g>
<!-- calculateScore&#45;&gt;lowRisk -->
<g id="edge7" class="edge">
<title>calculateScore-&gt;lowRisk</title>
<path fill="none" stroke="#000000" d="M279.7749,-88.723C241.6336,-73.9971 187.8323,-53.2251 148.4041,-38.0024"/>
<polygon fill="#000000" stroke="#000000" points="149.2974,-34.5955 138.7079,-34.2588 146.7761,-41.1257 149.2974,-34.5955"/>
<text text-anchor="middle" x="260.7893" y="-58.2" font-family="Times,serif" font-size="14.00" fill="#000000">0-3 points</text>
</g>
<!-- moderateRisk -->
<g id="node9" class="node">
<title>moderateRisk</title>
<ellipse fill="#ffff00" stroke="#ffff00" cx="326.5961" cy="-18" rx="115.793" ry="18"/>
<text text-anchor="middle" x="326.5961" y="-13.8" font-family="Times,serif" font-size="14.00" fill="#000000">Moderate Risk (4-7 points)</text>
</g>
<!-- calculateScore&#45;&gt;moderateRisk -->
<g id="edge8" class="edge">
<title>calculateScore-&gt;moderateRisk</title>
<path fill="none" stroke="#000000" d="M326.5961,-88.4006C326.5961,-76.2949 326.5961,-60.2076 326.5961,-46.4674"/>
<polygon fill="#000000" stroke="#000000" points="330.0962,-46.072 326.5961,-36.072 323.0962,-46.0721 330.0962,-46.072"/>
<text text-anchor="middle" x="354.7893" y="-58.2" font-family="Times,serif" font-size="14.00" fill="#000000">4-7 points</text>
</g>
<!-- highRisk -->
<g id="node10" class="node">
<title>highRisk</title>
<ellipse fill="#ff0000" stroke="#ff0000" cx="583.5961" cy="-18" rx="122.7589" ry="18"/>
<text text-anchor="middle" x="583.5961" y="-13.8" font-family="Times,serif" font-size="14.00" fill="#000000">High Risk (8 or more points)</text>
</g>
<!-- calculateScore&#45;&gt;highRisk -->
<g id="edge9" class="edge">
<title>calculateScore-&gt;highRisk</title>
<path fill="none" stroke="#000000" d="M378.9136,-88.723C421.4843,-74.0137 481.5137,-53.272 525.5569,-38.054"/>
<polygon fill="#000000" stroke="#000000" points="526.9524,-41.2749 535.2611,-34.701 524.6663,-34.6587 526.9524,-41.2749"/>
<text text-anchor="middle" x="524.6722" y="-58.2" font-family="Times,serif" font-size="14.00" fill="#000000">8 or more points</text>
</g>
</g>
</svg>