<svg width="16" height="13" viewBox="0 0 16 13" fill="none" xmlns="http://www.w3.org/2000/svg">
<path fill-rule="evenodd" clip-rule="evenodd" d="M13.7349 5.55071L15.1929 7.00412C15.3015 7.1124 15.3635 7.26695 15.3635 7.40609C15.3635 7.54522 15.3015 7.69988 15.1929 7.80806C14.9757 8.02451 14.6035 8.02451 14.3863 7.80806L13.8591 7.2824C13.5489 10.2355 11.0362 12.5548 7.99611 12.5548C5.90202 12.5548 3.94775 11.4261 2.87753 9.61709C2.72238 9.33883 2.81553 8.99868 3.09467 8.82858C3.3738 8.67392 3.71503 8.76678 3.88568 9.04503C4.73878 10.5138 6.30529 11.4106 7.99597 11.4106C10.3691 11.4106 12.3389 9.66346 12.6957 7.39065L12.2768 7.80814C12.0597 8.0246 11.6874 8.0246 11.4703 7.80814C11.2531 7.59169 11.2531 7.22058 11.4703 7.00412L12.9283 5.55071C13.1454 5.33425 13.5177 5.33425 13.7349 5.55071ZM7.996 0.772949C10.1054 0.772949 12.0598 1.90161 13.1145 3.72609C13.161 3.81885 13.192 3.9116 13.192 4.00434C13.192 4.20538 13.0834 4.39088 12.8973 4.49917C12.6181 4.66936 12.2614 4.5765 12.1062 4.29824C11.2688 2.82952 9.68668 1.91721 7.996 1.91721C5.62289 1.91721 3.65305 3.66439 3.29631 5.9372L3.71512 5.51971C3.93226 5.30325 4.30455 5.30325 4.5217 5.51971C4.63032 5.62799 4.69232 5.78254 4.69232 5.92168C4.69232 6.06081 4.63032 6.21548 4.5217 6.32365L3.06368 7.77706C2.84654 7.99351 2.47425 7.99351 2.2571 7.77706L0.799087 6.32365C0.581945 6.1072 0.581945 5.73609 0.799087 5.51963C1.01623 5.30317 1.38851 5.30317 1.60566 5.51963L2.11751 6.02985C2.42769 3.07671 4.94043 0.772949 7.996 0.772949Z" fill="#595959"/>
</svg>
