<?xml version="1.0" encoding="UTF-8" standalone="no"?>
<!DOCTYPE svg PUBLIC "-//W3C//DTD SVG 1.1//EN"
 "http://www.w3.org/Graphics/SVG/1.1/DTD/svg11.dtd">
<!-- Generated by graphviz version 2.38.0 (20140413.2041)
 -->
<!-- Title: G Pages: 1 -->
<svg width="1919pt" height="279pt"
 viewBox="0.00 0.00 1919.22 279.00" xmlns="http://www.w3.org/2000/svg" xmlns:xlink="http://www.w3.org/1999/xlink">
<g id="graph0" class="graph" transform="scale(1 1) rotate(0) translate(4 275)">
<title>G</title>
<polygon fill="white" stroke="none" points="-4,4 -4,-275 1915.22,-275 1915.22,4 -4,4"/>
<!-- A -->
<g id="node1" class="node"><title>A</title>
<polygon fill="none" stroke="black" points="1049.61,-271 861.612,-271 861.612,-235 1049.61,-235 1049.61,-271"/>
<text text-anchor="middle" x="955.612" y="-249.3" font-family="Times,serif" font-size="14.00" fill="blue">All community&#45;dwelling adults</text>
</g>
<!-- B -->
<g id="node2" class="node"><title>B</title>
<polygon fill="none" stroke="blue" points="955.612,-198 813.173,-180 955.612,-162 1098.05,-180 955.612,-198"/>
<text text-anchor="middle" x="955.612" y="-176.3" font-family="Times,serif" font-size="14.00" fill="blue">Postmenopausal women?</text>
</g>
<!-- A&#45;&gt;B -->
<g id="edge1" class="edge"><title>A&#45;&gt;B</title>
<path fill="none" stroke="black" d="M955.612,-234.813C955.612,-226.789 955.612,-217.047 955.612,-208.069"/>
<polygon fill="black" stroke="black" points="959.112,-208.029 955.612,-198.029 952.112,-208.029 959.112,-208.029"/>
</g>
<!-- C -->
<g id="node3" class="node"><title>C</title>
<polygon fill="none" stroke="blue" points="379.612,-111 -0.111981,-93 379.612,-75 759.336,-93 379.612,-111"/>
<text text-anchor="middle" x="379.612" y="-89.3" font-family="Times,serif" font-size="14.00" fill="blue">Supplementation with &gt;400 IU of vitamin D and &gt;1000 mg of calcium?</text>
</g>
<!-- B&#45;&gt;C -->
<g id="edge2" class="edge"><title>B&#45;&gt;C</title>
<path fill="none" stroke="black" d="M893.423,-169.823C793.502,-155.077 596.396,-125.991 477.476,-108.442"/>
<polygon fill="black" stroke="black" points="477.686,-104.935 467.282,-106.937 476.664,-111.86 477.686,-104.935"/>
<text text-anchor="middle" x="713.612" y="-132.8" font-family="Times,serif" font-size="14.00">Yes</text>
</g>
<!-- D -->
<g id="node4" class="node"><title>D</title>
<polygon fill="none" stroke="blue" points="1531.61,-111 1151.89,-93 1531.61,-75 1911.34,-93 1531.61,-111"/>
<text text-anchor="middle" x="1531.61" y="-89.3" font-family="Times,serif" font-size="14.00" fill="blue">Supplementation with ≤400 IU of vitamin D and ≤1000 mg of calcium?</text>
</g>
<!-- B&#45;&gt;D -->
<g id="edge3" class="edge"><title>B&#45;&gt;D</title>
<path fill="none" stroke="black" d="M1017.8,-169.823C1117.72,-155.077 1314.83,-125.991 1433.75,-108.442"/>
<polygon fill="black" stroke="black" points="1434.56,-111.86 1443.94,-106.937 1433.54,-104.935 1434.56,-111.86"/>
<text text-anchor="middle" x="1287.11" y="-132.8" font-family="Times,serif" font-size="14.00">No</text>
</g>
<!-- E -->
<g id="node5" class="node"><title>E</title>
<polygon fill="none" stroke="blue" points="955.612,-111 777.479,-93 955.612,-75 1133.75,-93 955.612,-111"/>
<text text-anchor="middle" x="955.612" y="-89.3" font-family="Times,serif" font-size="14.00" fill="blue">Men or premenopausal women?</text>
</g>
<!-- B&#45;&gt;E -->
<g id="edge4" class="edge"><title>B&#45;&gt;E</title>
<path fill="none" stroke="black" d="M955.612,-161.799C955.612,-150.163 955.612,-134.548 955.612,-121.237"/>
<polygon fill="black" stroke="black" points="959.112,-121.175 955.612,-111.175 952.112,-121.175 959.112,-121.175"/>
<text text-anchor="middle" x="964.112" y="-132.8" font-family="Times,serif" font-size="14.00">No</text>
</g>
<!-- G -->
<g id="node7" class="node"><title>G</title>
<polygon fill="none" stroke="black" points="840.612,-38 494.612,-38 494.612,-0 840.612,-0 840.612,-38"/>
<text text-anchor="middle" x="667.612" y="-22.8" font-family="Times,serif" font-size="14.00" fill="blue">Current evidence is insufficient to assess benefits and harms</text>
<text text-anchor="middle" x="667.612" y="-7.8" font-family="Times,serif" font-size="14.00" fill="blue">(I statement)</text>
</g>
<!-- C&#45;&gt;G -->
<g id="edge5" class="edge"><title>C&#45;&gt;G</title>
<path fill="none" stroke="black" d="M436.856,-77.689C479.355,-67.0644 537.927,-52.4214 585.424,-40.5469"/>
<polygon fill="black" stroke="black" points="586.53,-43.8784 595.382,-38.0575 584.832,-37.0874 586.53,-43.8784"/>
</g>
<!-- F -->
<g id="node6" class="node"><title>F</title>
<polygon fill="none" stroke="black" points="1807.11,-38 1256.11,-38 1256.11,-0 1807.11,-0 1807.11,-38"/>
<text text-anchor="middle" x="1531.61" y="-22.8" font-family="Times,serif" font-size="14.00" fill="blue">Recommend against daily supplementation with ≤400 IU of vitamin D and ≤1000 mg of calcium</text>
<text text-anchor="middle" x="1531.61" y="-7.8" font-family="Times,serif" font-size="14.00" fill="blue">(D recommendation)</text>
</g>
<!-- D&#45;&gt;F -->
<g id="edge6" class="edge"><title>D&#45;&gt;F</title>
<path fill="none" stroke="black" d="M1531.61,-74.937C1531.61,-66.9865 1531.61,-57.3134 1531.61,-48.3127"/>
<polygon fill="black" stroke="black" points="1535.11,-48.1991 1531.61,-38.1992 1528.11,-48.1992 1535.11,-48.1991"/>
</g>
<!-- E&#45;&gt;G -->
<g id="edge7" class="edge"><title>E&#45;&gt;G</title>
<path fill="none" stroke="black" d="M907.082,-79.8676C864.175,-69.1407 800.685,-53.2683 749.858,-40.5616"/>
<polygon fill="black" stroke="black" points="750.422,-37.0948 739.872,-38.0649 748.724,-43.8858 750.422,-37.0948"/>
</g>
</g>
</svg>
