<?xml version="1.0" encoding="UTF-8" standalone="no"?>
<!DOCTYPE svg PUBLIC "-//W3C//DTD SVG 1.1//EN"
 "http://www.w3.org/Graphics/SVG/1.1/DTD/svg11.dtd">
<!-- Generated by graphviz version 2.43.0 (0)
 -->
<!-- Title: %3 Pages: 1 -->
<svg width="1691pt" height="566pt"
 viewBox="0.00 0.00 1691.38 566.00" xmlns="http://www.w3.org/2000/svg" xmlns:xlink="http://www.w3.org/1999/xlink">
<g id="graph0" class="graph" transform="scale(1 1) rotate(0) translate(4 562)">
<title>%3</title>
<polygon fill="white" stroke="transparent" points="-4,4 -4,-562 1687.38,-562 1687.38,4 -4,4"/>
<!-- TP -->
<g id="node1" class="node">
<title>TP</title>
<g id="a_node1"><a xlink:title="Patients eligible for skin cancer screening based on protocol">
<path fill="none" stroke="green" d="M797.44,-558C797.44,-558 678.44,-558 678.44,-558 672.44,-558 666.44,-552 666.44,-546 666.44,-546 666.44,-534 666.44,-534 666.44,-528 672.44,-522 678.44,-522 678.44,-522 797.44,-522 797.44,-522 803.44,-522 809.44,-528 809.44,-534 809.44,-534 809.44,-546 809.44,-546 809.44,-552 803.44,-558 797.44,-558"/>
<text text-anchor="middle" x="737.94" y="-536.3" font-family="Times,serif" font-size="14.00" fill="green">Target Population</text>
</a>
</g>
</g>
<!-- A20_39 -->
<g id="node5" class="node">
<title>A20_39</title>
<g id="a_node5"><a xlink:title="Ages 20–39: No dermatology visit or skin cancer screening in the past 3 years">
<ellipse fill="none" stroke="blue" cx="551.94" cy="-453" rx="173.57" ry="18"/>
<text text-anchor="middle" x="551.94" y="-449.3" font-family="Times,serif" font-size="14.00" fill="blue">Age 20&#45;39, No screening in 3 years</text>
</a>
</g>
</g>
<!-- TP&#45;&gt;A20_39 -->
<g id="edge1" class="edge">
<title>TP&#45;&gt;A20_39</title>
<path fill="none" stroke="blue" d="M700.3,-521.8C670.77,-508.3 629.52,-489.45 598.02,-475.06"/>
<polygon fill="blue" stroke="blue" points="599.12,-471.71 588.57,-470.74 596.22,-478.08 599.12,-471.71"/>
<text text-anchor="middle" x="661.94" y="-492.8" font-family="Times,serif" font-size="14.00" fill="blue">if</text>
</g>
<!-- A40 -->
<g id="node6" class="node">
<title>A40</title>
<g id="a_node6"><a xlink:title="Ages 40 and older: No dermatology visit or skin cancer screening in the past 12 months">
<ellipse fill="none" stroke="blue" cx="925.94" cy="-453" rx="181.97" ry="18"/>
<text text-anchor="middle" x="925.94" y="-449.3" font-family="Times,serif" font-size="14.00" fill="blue">Age 40+, No screening in 12 months</text>
</a>
</g>
</g>
<!-- TP&#45;&gt;A40 -->
<g id="edge8" class="edge">
<title>TP&#45;&gt;A40</title>
<path fill="none" stroke="blue" d="M775.99,-521.8C805.97,-508.24 847.88,-489.29 879.78,-474.87"/>
<polygon fill="blue" stroke="blue" points="881.24,-478.05 888.91,-470.74 878.36,-471.67 881.24,-478.05"/>
<text text-anchor="middle" x="848.94" y="-492.8" font-family="Times,serif" font-size="14.00" fill="blue">if</text>
</g>
<!-- QP -->
<g id="node2" class="node">
<title>QP</title>
<g id="a_node2"><a xlink:title="Patients who meet all criteria for skin cancer screening">
<path fill="none" stroke="green" d="M835.44,-123C835.44,-123 698.44,-123 698.44,-123 692.44,-123 686.44,-117 686.44,-111 686.44,-111 686.44,-99 686.44,-99 686.44,-93 692.44,-87 698.44,-87 698.44,-87 835.44,-87 835.44,-87 841.44,-87 847.44,-93 847.44,-99 847.44,-99 847.44,-111 847.44,-111 847.44,-117 841.44,-123 835.44,-123"/>
<text text-anchor="middle" x="766.94" y="-101.3" font-family="Times,serif" font-size="14.00" fill="green">Qualified Population</text>
</a>
</g>
</g>
<!-- RP -->
<g id="node3" class="node">
<title>RP</title>
<g id="a_node3"><a xlink:title="Patients referred for skin cancer screening">
<path fill="none" stroke="green" d="M745.94,-36C745.94,-36 609.94,-36 609.94,-36 603.94,-36 597.94,-30 597.94,-24 597.94,-24 597.94,-12 597.94,-12 597.94,-6 603.94,0 609.94,0 609.94,0 745.94,0 745.94,0 751.94,0 757.94,-6 757.94,-12 757.94,-12 757.94,-24 757.94,-24 757.94,-30 751.94,-36 745.94,-36"/>
<text text-anchor="middle" x="677.94" y="-14.3" font-family="Times,serif" font-size="14.00" fill="green">Referred Population</text>
</a>
</g>
</g>
<!-- QP&#45;&gt;RP -->
<g id="edge23" class="edge">
<title>QP&#45;&gt;RP</title>
<path fill="none" stroke="blue" d="M748.93,-86.8C735.78,-74.24 717.78,-57.05 703.2,-43.12"/>
<polygon fill="blue" stroke="blue" points="705.57,-40.55 695.93,-36.18 700.74,-45.61 705.57,-40.55"/>
<text text-anchor="middle" x="732.94" y="-57.8" font-family="Times,serif" font-size="14.00" fill="blue">if</text>
</g>
<!-- DP -->
<g id="node4" class="node">
<title>DP</title>
<g id="a_node4"><a xlink:title="Patients who declined skin cancer screening">
<path fill="none" stroke="green" d="M923.44,-36C923.44,-36 788.44,-36 788.44,-36 782.44,-36 776.44,-30 776.44,-24 776.44,-24 776.44,-12 776.44,-12 776.44,-6 782.44,0 788.44,0 788.44,0 923.44,0 923.44,0 929.44,0 935.44,-6 935.44,-12 935.44,-12 935.44,-24 935.44,-24 935.44,-30 929.44,-36 923.44,-36"/>
<text text-anchor="middle" x="855.94" y="-14.3" font-family="Times,serif" font-size="14.00" fill="green">Declined Population</text>
</a>
</g>
</g>
<!-- QP&#45;&gt;DP -->
<g id="edge24" class="edge">
<title>QP&#45;&gt;DP</title>
<path fill="none" stroke="blue" d="M784.95,-86.8C798.1,-74.24 816.1,-57.05 830.69,-43.12"/>
<polygon fill="blue" stroke="blue" points="833.14,-45.61 837.96,-36.18 828.31,-40.55 833.14,-45.61"/>
<text text-anchor="middle" x="821.94" y="-57.8" font-family="Times,serif" font-size="14.00" fill="blue">if</text>
</g>
<!-- FSF -->
<g id="node7" class="node">
<title>FSF</title>
<g id="a_node7"><a xlink:title="Fair skin features: red/blond hair, freckles, blue/light&#45;colored eyes">
<ellipse fill="none" stroke="blue" cx="92.94" cy="-366" rx="92.88" ry="18"/>
<text text-anchor="middle" x="92.94" y="-362.3" font-family="Times,serif" font-size="14.00" fill="blue">Fair skin features</text>
</a>
</g>
</g>
<!-- A20_39&#45;&gt;FSF -->
<g id="edge2" class="edge">
<title>A20_39&#45;&gt;FSF</title>
<path fill="none" stroke="blue" d="M471.2,-437.05C385.43,-421.16 250.94,-396.26 167.57,-380.82"/>
<polygon fill="blue" stroke="blue" points="168.13,-377.37 157.66,-378.99 166.86,-384.25 168.13,-377.37"/>
<text text-anchor="middle" x="363.44" y="-405.8" font-family="Times,serif" font-size="14.00" fill="blue">and</text>
</g>
<!-- M50 -->
<g id="node8" class="node">
<title>M50</title>
<g id="a_node8"><a xlink:title="More than 50 moles">
<ellipse fill="none" stroke="blue" cx="635.94" cy="-366" rx="103.98" ry="18"/>
<text text-anchor="middle" x="635.94" y="-362.3" font-family="Times,serif" font-size="14.00" fill="blue">More than 50 moles</text>
</a>
</g>
</g>
<!-- A20_39&#45;&gt;M50 -->
<g id="edge3" class="edge">
<title>A20_39&#45;&gt;M50</title>
<path fill="none" stroke="blue" d="M568.94,-434.8C581.32,-422.27 598.25,-405.14 612,-391.23"/>
<polygon fill="blue" stroke="blue" points="614.72,-393.46 619.26,-383.89 609.74,-388.54 614.72,-393.46"/>
<text text-anchor="middle" x="613.44" y="-405.8" font-family="Times,serif" font-size="14.00" fill="blue">and</text>
</g>
<!-- FHM -->
<g id="node9" class="node">
<title>FHM</title>
<g id="a_node9"><a xlink:title="Family history of melanoma">
<ellipse fill="none" stroke="blue" cx="897.94" cy="-366" rx="139.98" ry="18"/>
<text text-anchor="middle" x="897.94" y="-362.3" font-family="Times,serif" font-size="14.00" fill="blue">Family history of melanoma</text>
</a>
</g>
</g>
<!-- A20_39&#45;&gt;FHM -->
<g id="edge4" class="edge">
<title>A20_39&#45;&gt;FHM</title>
<path fill="none" stroke="blue" d="M622.85,-436.55C648.2,-430.76 676.93,-423.91 702.94,-417 725.36,-411.04 730.55,-408.06 752.94,-402 775.59,-395.87 800.37,-389.7 822.93,-384.28"/>
<polygon fill="blue" stroke="blue" points="823.87,-387.65 832.79,-381.93 822.25,-380.85 823.87,-387.65"/>
<text text-anchor="middle" x="766.44" y="-405.8" font-family="Times,serif" font-size="14.00" fill="blue">and</text>
</g>
<!-- PHC -->
<g id="node10" class="node">
<title>PHC</title>
<g id="a_node10"><a xlink:title="Personal history of basal cell or squamous cell skin cancer">
<ellipse fill="none" stroke="blue" cx="1208.94" cy="-366" rx="153.27" ry="18"/>
<text text-anchor="middle" x="1208.94" y="-362.3" font-family="Times,serif" font-size="14.00" fill="blue">Personal history of skin cancer</text>
</a>
</g>
</g>
<!-- A20_39&#45;&gt;PHC -->
<g id="edge5" class="edge">
<title>A20_39&#45;&gt;PHC</title>
<path fill="none" stroke="blue" d="M670.48,-439.8C745.18,-431.79 830.68,-421.93 847.94,-417 863.05,-412.69 864.81,-406.22 879.94,-402 881.25,-401.64 995.47,-389.52 1088.96,-379.65"/>
<polygon fill="blue" stroke="blue" points="1089.51,-383.11 1099.09,-378.58 1088.78,-376.15 1089.51,-383.11"/>
<text text-anchor="middle" x="893.44" y="-405.8" font-family="Times,serif" font-size="14.00" fill="blue">and</text>
</g>
<!-- FSE -->
<g id="node11" class="node">
<title>FSE</title>
<g id="a_node11"><a xlink:title="Frequent or intense sun exposure">
<ellipse fill="none" stroke="blue" cx="358.94" cy="-366" rx="155.17" ry="18"/>
<text text-anchor="middle" x="358.94" y="-362.3" font-family="Times,serif" font-size="14.00" fill="blue">Frequent/intense sun exposure</text>
</a>
</g>
</g>
<!-- A20_39&#45;&gt;FSE -->
<g id="edge6" class="edge">
<title>A20_39&#45;&gt;FSE</title>
<path fill="none" stroke="blue" d="M481.77,-436.51C464.09,-431.41 445.44,-424.95 428.94,-417 414.18,-409.89 399.22,-399.7 386.94,-390.36"/>
<polygon fill="blue" stroke="blue" points="388.94,-387.48 378.9,-384.09 384.63,-393 388.94,-387.48"/>
<text text-anchor="middle" x="442.44" y="-405.8" font-family="Times,serif" font-size="14.00" fill="blue">and</text>
</g>
<!-- HBS -->
<g id="node12" class="node">
<title>HBS</title>
<g id="a_node12"><a xlink:title="History of blistering sunburn(s)">
<ellipse fill="none" stroke="blue" cx="1531.94" cy="-366" rx="151.37" ry="18"/>
<text text-anchor="middle" x="1531.94" y="-362.3" font-family="Times,serif" font-size="14.00" fill="blue">History of blistering sunburns</text>
</a>
</g>
</g>
<!-- A20_39&#45;&gt;HBS -->
<g id="edge7" class="edge">
<title>A20_39&#45;&gt;HBS</title>
<path fill="none" stroke="blue" d="M675.96,-440.36C695.69,-438.54 715.87,-436.7 734.94,-435 828.25,-426.67 851.72,-426.21 944.94,-417 1004.58,-411.11 1019.24,-407.18 1078.94,-402 1208.48,-390.76 1241.37,-394.83 1370.94,-384 1385.39,-382.79 1400.56,-381.38 1415.56,-379.9"/>
<polygon fill="blue" stroke="blue" points="1416.31,-383.34 1425.92,-378.86 1415.62,-376.37 1416.31,-383.34"/>
<text text-anchor="middle" x="1092.44" y="-405.8" font-family="Times,serif" font-size="14.00" fill="blue">and</text>
</g>
<!-- A40&#45;&gt;FSF -->
<g id="edge9" class="edge">
<title>A40&#45;&gt;FSF</title>
<path fill="none" stroke="blue" d="M796.14,-440.36C709.17,-432.43 602.7,-422.42 557.94,-417 512.45,-411.5 501.5,-406.91 455.94,-402 340.34,-389.53 310.42,-397.57 194.94,-384 186.33,-382.99 177.33,-381.75 168.4,-380.41"/>
<polygon fill="blue" stroke="blue" points="168.8,-376.93 158.38,-378.86 167.73,-383.85 168.8,-376.93"/>
<text text-anchor="middle" x="571.44" y="-405.8" font-family="Times,serif" font-size="14.00" fill="blue">and</text>
</g>
<!-- A40&#45;&gt;M50 -->
<g id="edge10" class="edge">
<title>A40&#45;&gt;M50</title>
<path fill="none" stroke="blue" d="M874.71,-435.65C857.54,-429.97 838.34,-423.42 820.94,-417 804.29,-410.86 800.85,-407.39 783.94,-402 760.5,-394.52 734.51,-387.85 710.94,-382.39"/>
<polygon fill="blue" stroke="blue" points="711.53,-378.94 701,-380.13 709.97,-385.76 711.53,-378.94"/>
<text text-anchor="middle" x="834.44" y="-405.8" font-family="Times,serif" font-size="14.00" fill="blue">and</text>
</g>
<!-- A40&#45;&gt;FHM -->
<g id="edge11" class="edge">
<title>A40&#45;&gt;FHM</title>
<path fill="none" stroke="blue" d="M920.28,-434.8C916.4,-423.05 911.2,-407.24 906.78,-393.84"/>
<polygon fill="blue" stroke="blue" points="910.05,-392.58 903.6,-384.18 903.4,-394.77 910.05,-392.58"/>
<text text-anchor="middle" x="927.44" y="-405.8" font-family="Times,serif" font-size="14.00" fill="blue">and</text>
</g>
<!-- A40&#45;&gt;PHC -->
<g id="edge12" class="edge">
<title>A40&#45;&gt;PHC</title>
<path fill="none" stroke="blue" d="M1027.05,-438.02C1054.36,-432.83 1083.62,-425.95 1109.94,-417 1131.21,-409.77 1153.65,-398.74 1171.78,-388.88"/>
<polygon fill="blue" stroke="blue" points="1173.79,-391.77 1180.84,-383.86 1170.4,-385.65 1173.79,-391.77"/>
<text text-anchor="middle" x="1157.44" y="-405.8" font-family="Times,serif" font-size="14.00" fill="blue">and</text>
</g>
<!-- A40&#45;&gt;FSE -->
<g id="edge13" class="edge">
<title>A40&#45;&gt;FSE</title>
<path fill="none" stroke="blue" d="M799.61,-440C758.54,-434.66 712.98,-427.21 671.94,-417 653.11,-412.32 649.79,-406.6 630.94,-402 602.47,-395.05 538.46,-386.69 479.69,-379.88"/>
<polygon fill="blue" stroke="blue" points="479.89,-376.38 469.55,-378.72 479.09,-383.34 479.89,-376.38"/>
<text text-anchor="middle" x="685.44" y="-405.8" font-family="Times,serif" font-size="14.00" fill="blue">and</text>
</g>
<!-- A40&#45;&gt;HBS -->
<g id="edge14" class="edge">
<title>A40&#45;&gt;HBS</title>
<path fill="none" stroke="blue" d="M1026.01,-437.96C1137.12,-422.38 1315.62,-397.34 1428.2,-381.55"/>
<polygon fill="blue" stroke="blue" points="1428.79,-385 1438.2,-380.15 1427.82,-378.07 1428.79,-385"/>
<text text-anchor="middle" x="1278.44" y="-405.8" font-family="Times,serif" font-size="14.00" fill="blue">and</text>
</g>
<!-- NCL -->
<g id="node13" class="node">
<title>NCL</title>
<g id="a_node13"><a xlink:title="Not currently presenting with a new or changing skin lesion">
<ellipse fill="none" stroke="blue" cx="766.94" cy="-279" rx="121.58" ry="18"/>
<text text-anchor="middle" x="766.94" y="-275.3" font-family="Times,serif" font-size="14.00" fill="blue">No new/changing lesion</text>
</a>
</g>
</g>
<!-- FSF&#45;&gt;NCL -->
<g id="edge15" class="edge">
<title>FSF&#45;&gt;NCL</title>
<path fill="none" stroke="blue" d="M159.54,-353.44C171.32,-351.53 183.48,-349.64 194.94,-348 356.99,-324.88 545.66,-303.52 660.66,-291.13"/>
<polygon fill="blue" stroke="blue" points="661.3,-294.58 670.87,-290.03 660.55,-287.62 661.3,-294.58"/>
<text text-anchor="middle" x="459.44" y="-318.8" font-family="Times,serif" font-size="14.00" fill="blue">and</text>
</g>
<!-- M50&#45;&gt;NCL -->
<g id="edge16" class="edge">
<title>M50&#45;&gt;NCL</title>
<path fill="none" stroke="blue" d="M661.51,-348.41C681.76,-335.27 710.23,-316.8 732.49,-302.35"/>
<polygon fill="blue" stroke="blue" points="734.51,-305.22 740.99,-296.84 730.7,-299.35 734.51,-305.22"/>
<text text-anchor="middle" x="723.44" y="-318.8" font-family="Times,serif" font-size="14.00" fill="blue">and</text>
</g>
<!-- FHM&#45;&gt;NCL -->
<g id="edge17" class="edge">
<title>FHM&#45;&gt;NCL</title>
<path fill="none" stroke="blue" d="M872.06,-348.21C851.79,-335.05 823.4,-316.63 801.23,-302.25"/>
<polygon fill="blue" stroke="blue" points="803.06,-299.27 792.77,-296.76 799.25,-305.14 803.06,-299.27"/>
<text text-anchor="middle" x="854.44" y="-318.8" font-family="Times,serif" font-size="14.00" fill="blue">and</text>
</g>
<!-- PHC&#45;&gt;NCL -->
<g id="edge18" class="edge">
<title>PHC&#45;&gt;NCL</title>
<path fill="none" stroke="blue" d="M1132.71,-350.34C1053.25,-335.06 929.22,-311.21 848.01,-295.59"/>
<polygon fill="blue" stroke="blue" points="848.32,-292.08 837.83,-293.63 846.99,-298.96 848.32,-292.08"/>
<text text-anchor="middle" x="1028.44" y="-318.8" font-family="Times,serif" font-size="14.00" fill="blue">and</text>
</g>
<!-- FSE&#45;&gt;NCL -->
<g id="edge19" class="edge">
<title>FSE&#45;&gt;NCL</title>
<path fill="none" stroke="blue" d="M430.94,-350C503.63,-334.86 615.5,-311.55 689.93,-296.04"/>
<polygon fill="blue" stroke="blue" points="690.64,-299.47 699.72,-294 689.22,-292.62 690.64,-299.47"/>
<text text-anchor="middle" x="601.44" y="-318.8" font-family="Times,serif" font-size="14.00" fill="blue">and</text>
</g>
<!-- HBS&#45;&gt;NCL -->
<g id="edge20" class="edge">
<title>HBS&#45;&gt;NCL</title>
<path fill="none" stroke="blue" d="M1425.57,-353.18C1279.03,-336.9 1016.72,-307.75 871.26,-291.59"/>
<polygon fill="blue" stroke="blue" points="871.32,-288.08 861,-290.45 870.55,-295.03 871.32,-288.08"/>
<text text-anchor="middle" x="1209.44" y="-318.8" font-family="Times,serif" font-size="14.00" fill="blue">and</text>
</g>
<!-- NR -->
<g id="node14" class="node">
<title>NR</title>
<g id="a_node14"><a xlink:title="Not currently presenting with a rash or other dermatologic issue requiring diagnostic evaluation">
<ellipse fill="none" stroke="blue" cx="766.94" cy="-192" rx="137.58" ry="18"/>
<text text-anchor="middle" x="766.94" y="-188.3" font-family="Times,serif" font-size="14.00" fill="blue">No rash/dermatologic issue</text>
</a>
</g>
</g>
<!-- NCL&#45;&gt;NR -->
<g id="edge21" class="edge">
<title>NCL&#45;&gt;NR</title>
<path fill="none" stroke="blue" d="M766.94,-260.8C766.94,-249.16 766.94,-233.55 766.94,-220.24"/>
<polygon fill="blue" stroke="blue" points="770.44,-220.18 766.94,-210.18 763.44,-220.18 770.44,-220.18"/>
<text text-anchor="middle" x="780.44" y="-231.8" font-family="Times,serif" font-size="14.00" fill="blue">and</text>
</g>
<!-- NR&#45;&gt;QP -->
<g id="edge22" class="edge">
<title>NR&#45;&gt;QP</title>
<path fill="none" stroke="blue" d="M766.94,-173.8C766.94,-162.16 766.94,-146.55 766.94,-133.24"/>
<polygon fill="blue" stroke="blue" points="770.44,-133.18 766.94,-123.18 763.44,-133.18 770.44,-133.18"/>
<text text-anchor="middle" x="783.44" y="-144.8" font-family="Times,serif" font-size="14.00" fill="blue">then</text>
</g>
</g>
</svg>
