<?xml version="1.0" encoding="UTF-8" standalone="no"?>
<!DOCTYPE svg PUBLIC "-//W3C//DTD SVG 1.1//EN"
 "http://www.w3.org/Graphics/SVG/1.1/DTD/svg11.dtd">
<!-- Generated by graphviz version 2.43.0 (0)
 -->
<!-- Title: G Pages: 1 -->
<svg width="1003pt" height="827pt"
 viewBox="0.00 0.00 1002.63 827.00" xmlns="http://www.w3.org/2000/svg" xmlns:xlink="http://www.w3.org/1999/xlink">
<g id="graph0" class="graph" transform="scale(1 1) rotate(0) translate(4 823)">
<title>G</title>
<polygon fill="white" stroke="transparent" points="-4,4 -4,-823 998.63,-823 998.63,4 -4,4"/>
<!-- InitialPopulation -->
<g id="node1" class="node">
<title>InitialPopulation</title>
<g id="a_node1"><a xlink:title="All patients aged 65 years and older who have a documented diagnosis of emphysema">
<path fill="none" stroke="green" d="M569.44,-819C569.44,-819 454.44,-819 454.44,-819 448.44,-819 442.44,-813 442.44,-807 442.44,-807 442.44,-795 442.44,-795 442.44,-789 448.44,-783 454.44,-783 454.44,-783 569.44,-783 569.44,-783 575.44,-783 581.44,-789 581.44,-795 581.44,-795 581.44,-807 581.44,-807 581.44,-813 575.44,-819 569.44,-819"/>
<text text-anchor="middle" x="511.94" y="-797.3" font-family="Times,serif" font-size="14.00" fill="green">Initial Population</text>
</a>
</g>
</g>
<!-- Symptoms -->
<g id="node6" class="node">
<title>Symptoms</title>
<g id="a_node6"><a xlink:title="Cough, fever, shortness of breath, chest pain, increased sputum production">
<ellipse fill="none" stroke="blue" cx="446.94" cy="-714" rx="59.59" ry="18"/>
<text text-anchor="middle" x="446.94" y="-710.3" font-family="Times,serif" font-size="14.00" fill="blue">Symptoms</text>
</a>
</g>
</g>
<!-- InitialPopulation&#45;&gt;Symptoms -->
<g id="edge1" class="edge">
<title>InitialPopulation&#45;&gt;Symptoms</title>
<path fill="none" stroke="blue" d="M498.78,-782.8C489.32,-770.43 476.42,-753.55 465.86,-739.74"/>
<polygon fill="blue" stroke="blue" points="468.48,-737.41 459.63,-731.6 462.92,-741.67 468.48,-737.41"/>
<text text-anchor="middle" x="488.94" y="-753.8" font-family="Times,serif" font-size="14.00" fill="blue">if</text>
</g>
<!-- Exposure -->
<g id="node7" class="node">
<title>Exposure</title>
<g id="a_node7"><a xlink:title="Recent exposure to individuals with respiratory infections">
<ellipse fill="none" stroke="blue" cx="578.94" cy="-714" rx="54.69" ry="18"/>
<text text-anchor="middle" x="578.94" y="-710.3" font-family="Times,serif" font-size="14.00" fill="blue">Exposure</text>
</a>
</g>
</g>
<!-- InitialPopulation&#45;&gt;Exposure -->
<g id="edge2" class="edge">
<title>InitialPopulation&#45;&gt;Exposure</title>
<path fill="none" stroke="blue" d="M525.5,-782.8C535.25,-770.43 548.55,-753.55 559.44,-739.74"/>
<polygon fill="blue" stroke="blue" points="562.41,-741.62 565.86,-731.6 556.92,-737.28 562.41,-741.62"/>
<text text-anchor="middle" x="554.94" y="-753.8" font-family="Times,serif" font-size="14.00" fill="blue">if</text>
</g>
<!-- ScreeningSubset -->
<g id="node2" class="node">
<title>ScreeningSubset</title>
<g id="a_node2"><a xlink:title="Patients from the initial population who present with symptoms indicative of pneumonia or have had recent exposure to individuals with respiratory infections">
<path fill="none" stroke="green" d="M627.44,-645C627.44,-645 398.44,-645 398.44,-645 392.44,-645 386.44,-639 386.44,-633 386.44,-633 386.44,-621 386.44,-621 386.44,-615 392.44,-609 398.44,-609 398.44,-609 627.44,-609 627.44,-609 633.44,-609 639.44,-615 639.44,-621 639.44,-621 639.44,-633 639.44,-633 639.44,-639 633.44,-645 627.44,-645"/>
<text text-anchor="middle" x="512.94" y="-623.3" font-family="Times,serif" font-size="14.00" fill="green">Subset Considered for Screening</text>
</a>
</g>
</g>
<!-- DiagnosticInterventions -->
<g id="node4" class="node">
<title>DiagnosticInterventions</title>
<g id="a_node4"><a xlink:title="Physical examination, chest X&#45;ray, CBC, sputum culture, pulse oximetry, and consideration of CT scan">
<path fill="none" stroke="green" d="M216.44,-558C216.44,-558 47.44,-558 47.44,-558 41.44,-558 35.44,-552 35.44,-546 35.44,-546 35.44,-534 35.44,-534 35.44,-528 41.44,-522 47.44,-522 47.44,-522 216.44,-522 216.44,-522 222.44,-522 228.44,-528 228.44,-534 228.44,-534 228.44,-546 228.44,-546 228.44,-552 222.44,-558 216.44,-558"/>
<text text-anchor="middle" x="131.94" y="-536.3" font-family="Times,serif" font-size="14.00" fill="green">Diagnostic Interventions</text>
</a>
</g>
</g>
<!-- ScreeningSubset&#45;&gt;DiagnosticInterventions -->
<g id="edge11" class="edge">
<title>ScreeningSubset&#45;&gt;DiagnosticInterventions</title>
<path fill="none" stroke="blue" d="M436.3,-608.9C373.25,-594.84 283.94,-574.91 218.36,-560.28"/>
<polygon fill="blue" stroke="blue" points="218.98,-556.83 208.46,-558.07 217.46,-563.66 218.98,-556.83"/>
<text text-anchor="middle" x="350.94" y="-579.8" font-family="Times,serif" font-size="14.00" fill="blue">if</text>
</g>
<!-- AllergyContraindication -->
<g id="node8" class="node">
<title>AllergyContraindication</title>
<g id="a_node8"><a xlink:title="Documented allergy or contraindication to standard pneumonia diagnostic procedures">
<ellipse fill="none" stroke="blue" cx="370.94" cy="-540" rx="124.28" ry="18"/>
<text text-anchor="middle" x="370.94" y="-536.3" font-family="Times,serif" font-size="14.00" fill="blue">Allergy/Contraindication</text>
</a>
</g>
</g>
<!-- ScreeningSubset&#45;&gt;AllergyContraindication -->
<g id="edge5" class="edge">
<title>ScreeningSubset&#45;&gt;AllergyContraindication</title>
<path fill="none" stroke="blue" d="M484.2,-608.8C462.07,-595.55 431.32,-577.14 407.45,-562.85"/>
<polygon fill="blue" stroke="blue" points="409.04,-559.73 398.66,-557.6 405.45,-565.74 409.04,-559.73"/>
<text text-anchor="middle" x="455.94" y="-579.8" font-family="Times,serif" font-size="14.00" fill="blue">if</text>
</g>
<!-- AcuteRespCondition -->
<g id="node9" class="node">
<title>AcuteRespCondition</title>
<g id="a_node9"><a xlink:title="Currently undergoing treatment for another acute respiratory condition">
<ellipse fill="none" stroke="blue" cx="654.94" cy="-540" rx="142.17" ry="18"/>
<text text-anchor="middle" x="654.94" y="-536.3" font-family="Times,serif" font-size="14.00" fill="blue">Acute Respiratory Condition</text>
</a>
</g>
</g>
<!-- ScreeningSubset&#45;&gt;AcuteRespCondition -->
<g id="edge6" class="edge">
<title>ScreeningSubset&#45;&gt;AcuteRespCondition</title>
<path fill="none" stroke="blue" d="M541.67,-608.8C563.66,-595.64 594.16,-577.38 617.96,-563.13"/>
<polygon fill="blue" stroke="blue" points="619.95,-566.02 626.73,-557.89 616.35,-560.02 619.95,-566.02"/>
<text text-anchor="middle" x="596.94" y="-579.8" font-family="Times,serif" font-size="14.00" fill="blue">if</text>
</g>
<!-- EndStageCOPD -->
<g id="node10" class="node">
<title>EndStageCOPD</title>
<g id="a_node10"><a xlink:title="End&#45;stage COPD receiving palliative care only">
<ellipse fill="none" stroke="blue" cx="904.94" cy="-540" rx="89.88" ry="18"/>
<text text-anchor="middle" x="904.94" y="-536.3" font-family="Times,serif" font-size="14.00" fill="blue">End&#45;Stage COPD</text>
</a>
</g>
</g>
<!-- ScreeningSubset&#45;&gt;EndStageCOPD -->
<g id="edge7" class="edge">
<title>ScreeningSubset&#45;&gt;EndStageCOPD</title>
<path fill="none" stroke="blue" d="M591.79,-608.9C663.5,-593.35 768.25,-570.64 836.5,-555.84"/>
<polygon fill="blue" stroke="blue" points="837.27,-559.25 846.3,-553.71 835.79,-552.41 837.27,-559.25"/>
<text text-anchor="middle" x="736.94" y="-579.8" font-family="Times,serif" font-size="14.00" fill="blue">if</text>
</g>
<!-- ExclusionCriteria -->
<g id="node3" class="node">
<title>ExclusionCriteria</title>
<g id="a_node3"><a xlink:title="Patients with a documented allergy or contraindication to standard pneumonia diagnostic procedures, undergoing treatment for another acute respiratory condition, or with end&#45;stage COPD receiving palliative care only">
<path fill="none" stroke="green" d="M715.94,-471C715.94,-471 593.94,-471 593.94,-471 587.94,-471 581.94,-465 581.94,-459 581.94,-459 581.94,-447 581.94,-447 581.94,-441 587.94,-435 593.94,-435 593.94,-435 715.94,-435 715.94,-435 721.94,-435 727.94,-441 727.94,-447 727.94,-447 727.94,-459 727.94,-459 727.94,-465 721.94,-471 715.94,-471"/>
<text text-anchor="middle" x="654.94" y="-449.3" font-family="Times,serif" font-size="14.00" fill="green">Exclusion Criteria</text>
</a>
</g>
</g>
<!-- RadiologicalEvidence -->
<g id="node11" class="node">
<title>RadiologicalEvidence</title>
<g id="a_node11"><a xlink:title="Radiological evidence of pneumonia (e.g., infiltrates on chest X&#45;ray)">
<ellipse fill="none" stroke="blue" cx="131.94" cy="-453" rx="112.38" ry="18"/>
<text text-anchor="middle" x="131.94" y="-449.3" font-family="Times,serif" font-size="14.00" fill="blue">Radiological Evidence</text>
</a>
</g>
</g>
<!-- DiagnosticInterventions&#45;&gt;RadiologicalEvidence -->
<g id="edge12" class="edge">
<title>DiagnosticInterventions&#45;&gt;RadiologicalEvidence</title>
<path fill="none" stroke="blue" d="M131.94,-521.8C131.94,-510.16 131.94,-494.55 131.94,-481.24"/>
<polygon fill="blue" stroke="blue" points="135.44,-481.18 131.94,-471.18 128.44,-481.18 135.44,-481.18"/>
<text text-anchor="middle" x="145.44" y="-492.8" font-family="Times,serif" font-size="14.00" fill="blue">and</text>
</g>
<!-- SuccessfulScreens -->
<g id="node5" class="node">
<title>SuccessfulScreens</title>
<g id="a_node5"><a xlink:title="Confirmation of pneumonia diagnosis, identification of causative organism, stabilization of oxygen saturation, initiation of appropriate antibiotic therapy, and monitoring of patient response">
<path fill="none" stroke="green" d="M249.94,-36C249.94,-36 13.94,-36 13.94,-36 7.94,-36 1.94,-30 1.94,-24 1.94,-24 1.94,-12 1.94,-12 1.94,-6 7.94,0 13.94,0 13.94,0 249.94,0 249.94,0 255.94,0 261.94,-6 261.94,-12 261.94,-12 261.94,-24 261.94,-24 261.94,-30 255.94,-36 249.94,-36"/>
<text text-anchor="middle" x="131.94" y="-14.3" font-family="Times,serif" font-size="14.00" fill="green">Conditions for Successful Screens</text>
</a>
</g>
</g>
<!-- Symptoms&#45;&gt;ScreeningSubset -->
<g id="edge3" class="edge">
<title>Symptoms&#45;&gt;ScreeningSubset</title>
<path fill="none" stroke="blue" d="M459.98,-696.21C469.5,-683.95 482.57,-667.11 493.34,-653.24"/>
<polygon fill="blue" stroke="blue" points="496.33,-655.09 499.7,-645.05 490.8,-650.8 496.33,-655.09"/>
<text text-anchor="middle" x="500.44" y="-666.8" font-family="Times,serif" font-size="14.00" fill="blue">then</text>
</g>
<!-- Exposure&#45;&gt;ScreeningSubset -->
<g id="edge4" class="edge">
<title>Exposure&#45;&gt;ScreeningSubset</title>
<path fill="none" stroke="blue" d="M565.9,-696.21C556.38,-683.95 543.31,-667.11 532.54,-653.24"/>
<polygon fill="blue" stroke="blue" points="535.07,-650.8 526.18,-645.05 529.55,-655.09 535.07,-650.8"/>
<text text-anchor="middle" x="566.44" y="-666.8" font-family="Times,serif" font-size="14.00" fill="blue">then</text>
</g>
<!-- AllergyContraindication&#45;&gt;ExclusionCriteria -->
<g id="edge8" class="edge">
<title>AllergyContraindication&#45;&gt;ExclusionCriteria</title>
<path fill="none" stroke="blue" d="M422.37,-523.61C468.82,-509.7 537.47,-489.16 588.16,-473.99"/>
<polygon fill="blue" stroke="blue" points="589.46,-477.25 598.04,-471.03 587.46,-470.54 589.46,-477.25"/>
<text text-anchor="middle" x="547.44" y="-492.8" font-family="Times,serif" font-size="14.00" fill="blue">then</text>
</g>
<!-- AcuteRespCondition&#45;&gt;ExclusionCriteria -->
<g id="edge9" class="edge">
<title>AcuteRespCondition&#45;&gt;ExclusionCriteria</title>
<path fill="none" stroke="blue" d="M654.94,-521.8C654.94,-510.16 654.94,-494.55 654.94,-481.24"/>
<polygon fill="blue" stroke="blue" points="658.44,-481.18 654.94,-471.18 651.44,-481.18 658.44,-481.18"/>
<text text-anchor="middle" x="671.44" y="-492.8" font-family="Times,serif" font-size="14.00" fill="blue">then</text>
</g>
<!-- EndStageCOPD&#45;&gt;ExclusionCriteria -->
<g id="edge10" class="edge">
<title>EndStageCOPD&#45;&gt;ExclusionCriteria</title>
<path fill="none" stroke="blue" d="M861.39,-524.19C820.86,-510.41 760.09,-489.75 714.96,-474.41"/>
<polygon fill="blue" stroke="blue" points="715.89,-471.03 705.29,-471.12 713.64,-477.65 715.89,-471.03"/>
<text text-anchor="middle" x="810.44" y="-492.8" font-family="Times,serif" font-size="14.00" fill="blue">then</text>
</g>
<!-- CausativeOrganism -->
<g id="node12" class="node">
<title>CausativeOrganism</title>
<g id="a_node12"><a xlink:title="Identification of causative organism through sputum culture">
<ellipse fill="none" stroke="blue" cx="131.94" cy="-366" rx="104.78" ry="18"/>
<text text-anchor="middle" x="131.94" y="-362.3" font-family="Times,serif" font-size="14.00" fill="blue">Causative Organism</text>
</a>
</g>
</g>
<!-- RadiologicalEvidence&#45;&gt;CausativeOrganism -->
<g id="edge13" class="edge">
<title>RadiologicalEvidence&#45;&gt;CausativeOrganism</title>
<path fill="none" stroke="blue" d="M131.94,-434.8C131.94,-423.16 131.94,-407.55 131.94,-394.24"/>
<polygon fill="blue" stroke="blue" points="135.44,-394.18 131.94,-384.18 128.44,-394.18 135.44,-394.18"/>
<text text-anchor="middle" x="145.44" y="-405.8" font-family="Times,serif" font-size="14.00" fill="blue">and</text>
</g>
<!-- OxygenStabilization -->
<g id="node13" class="node">
<title>OxygenStabilization</title>
<g id="a_node13"><a xlink:title="Stabilization of oxygen saturation levels with supplemental oxygen">
<ellipse fill="none" stroke="blue" cx="131.94" cy="-279" rx="107.48" ry="18"/>
<text text-anchor="middle" x="131.94" y="-275.3" font-family="Times,serif" font-size="14.00" fill="blue">Oxygen Stabilization</text>
</a>
</g>
</g>
<!-- CausativeOrganism&#45;&gt;OxygenStabilization -->
<g id="edge14" class="edge">
<title>CausativeOrganism&#45;&gt;OxygenStabilization</title>
<path fill="none" stroke="blue" d="M131.94,-347.8C131.94,-336.16 131.94,-320.55 131.94,-307.24"/>
<polygon fill="blue" stroke="blue" points="135.44,-307.18 131.94,-297.18 128.44,-307.18 135.44,-307.18"/>
<text text-anchor="middle" x="145.44" y="-318.8" font-family="Times,serif" font-size="14.00" fill="blue">and</text>
</g>
<!-- AntibioticTherapy -->
<g id="node14" class="node">
<title>AntibioticTherapy</title>
<g id="a_node14"><a xlink:title="Initiation of appropriate antibiotic therapy based on guidelines and culture results">
<ellipse fill="none" stroke="blue" cx="131.94" cy="-192" rx="96.68" ry="18"/>
<text text-anchor="middle" x="131.94" y="-188.3" font-family="Times,serif" font-size="14.00" fill="blue">Antibiotic Therapy</text>
</a>
</g>
</g>
<!-- OxygenStabilization&#45;&gt;AntibioticTherapy -->
<g id="edge15" class="edge">
<title>OxygenStabilization&#45;&gt;AntibioticTherapy</title>
<path fill="none" stroke="blue" d="M131.94,-260.8C131.94,-249.16 131.94,-233.55 131.94,-220.24"/>
<polygon fill="blue" stroke="blue" points="135.44,-220.18 131.94,-210.18 128.44,-220.18 135.44,-220.18"/>
<text text-anchor="middle" x="145.44" y="-231.8" font-family="Times,serif" font-size="14.00" fill="blue">and</text>
</g>
<!-- MonitoringReassessment -->
<g id="node15" class="node">
<title>MonitoringReassessment</title>
<g id="a_node15"><a xlink:title="Monitoring and reassessment of patient response to treatment within 48&#45;72 hours">
<ellipse fill="none" stroke="blue" cx="131.94" cy="-105" rx="131.88" ry="18"/>
<text text-anchor="middle" x="131.94" y="-101.3" font-family="Times,serif" font-size="14.00" fill="blue">Monitoring/Reassessment</text>
</a>
</g>
</g>
<!-- AntibioticTherapy&#45;&gt;MonitoringReassessment -->
<g id="edge16" class="edge">
<title>AntibioticTherapy&#45;&gt;MonitoringReassessment</title>
<path fill="none" stroke="blue" d="M131.94,-173.8C131.94,-162.16 131.94,-146.55 131.94,-133.24"/>
<polygon fill="blue" stroke="blue" points="135.44,-133.18 131.94,-123.18 128.44,-133.18 135.44,-133.18"/>
<text text-anchor="middle" x="145.44" y="-144.8" font-family="Times,serif" font-size="14.00" fill="blue">and</text>
</g>
<!-- MonitoringReassessment&#45;&gt;SuccessfulScreens -->
<g id="edge17" class="edge">
<title>MonitoringReassessment&#45;&gt;SuccessfulScreens</title>
<path fill="none" stroke="blue" d="M131.94,-86.8C131.94,-75.16 131.94,-59.55 131.94,-46.24"/>
<polygon fill="blue" stroke="blue" points="135.44,-46.18 131.94,-36.18 128.44,-46.18 135.44,-46.18"/>
<text text-anchor="middle" x="148.44" y="-57.8" font-family="Times,serif" font-size="14.00" fill="blue">then</text>
</g>
</g>
</svg>
