<?xml version="1.0" encoding="UTF-8" standalone="no"?>
<!DOCTYPE svg PUBLIC "-//W3C//DTD SVG 1.1//EN"
 "http://www.w3.org/Graphics/SVG/1.1/DTD/svg11.dtd">
<!-- Generated by graphviz version 2.43.0 (0)
 -->
<!-- Title: ReturnToPlayProtocol Pages: 1 -->
<svg width="1146pt" height="914pt"
 viewBox="0.00 0.00 1146.28 914.00" xmlns="http://www.w3.org/2000/svg" xmlns:xlink="http://www.w3.org/1999/xlink">
<g id="graph0" class="graph" transform="scale(1 1) rotate(0) translate(4 910)">
<title>ReturnToPlayProtocol</title>
<polygon fill="white" stroke="transparent" points="-4,4 -4,-910 1142.28,-910 1142.28,4 -4,4"/>
<!-- InitialPopulation -->
<g id="node1" class="node">
<title>InitialPopulation</title>
<g id="a_node1"><a xlink:title="All individuals who have participated in sports activities and have been diagnosed with a concussion.">
<path fill="none" stroke="green" d="M631.19,-906C631.19,-906 516.19,-906 516.19,-906 510.19,-906 504.19,-900 504.19,-894 504.19,-894 504.19,-882 504.19,-882 504.19,-876 510.19,-870 516.19,-870 516.19,-870 631.19,-870 631.19,-870 637.19,-870 643.19,-876 643.19,-882 643.19,-882 643.19,-894 643.19,-894 643.19,-900 637.19,-906 631.19,-906"/>
<text text-anchor="middle" x="573.69" y="-884.3" font-family="Times,serif" font-size="14.00" fill="green">Initial Population</text>
</a>
</g>
</g>
<!-- DiagnosedConcussion -->
<g id="node6" class="node">
<title>DiagnosedConcussion</title>
<g id="a_node6"><a xlink:title="Diagnosed with a concussion by a qualified healthcare professional.">
<ellipse fill="none" stroke="blue" cx="573.69" cy="-801" rx="115.08" ry="18"/>
<text text-anchor="middle" x="573.69" y="-797.3" font-family="Times,serif" font-size="14.00" fill="blue">Diagnosed Concussion</text>
</a>
</g>
</g>
<!-- InitialPopulation&#45;&gt;DiagnosedConcussion -->
<g id="edge1" class="edge">
<title>InitialPopulation&#45;&gt;DiagnosedConcussion</title>
<path fill="none" stroke="blue" d="M573.69,-869.8C573.69,-858.16 573.69,-842.55 573.69,-829.24"/>
<polygon fill="blue" stroke="blue" points="577.19,-829.18 573.69,-819.18 570.19,-829.18 577.19,-829.18"/>
<text text-anchor="middle" x="578.69" y="-840.8" font-family="Times,serif" font-size="14.00" fill="blue">if</text>
</g>
<!-- SubsetScreening -->
<g id="node2" class="node">
<title>SubsetScreening</title>
<g id="a_node2"><a xlink:title="Individuals from the initial population who meet specific criteria for screening.">
<path fill="none" stroke="green" d="M688.19,-558C688.19,-558 459.19,-558 459.19,-558 453.19,-558 447.19,-552 447.19,-546 447.19,-546 447.19,-534 447.19,-534 447.19,-528 453.19,-522 459.19,-522 459.19,-522 688.19,-522 688.19,-522 694.19,-522 700.19,-528 700.19,-534 700.19,-534 700.19,-546 700.19,-546 700.19,-552 694.19,-558 688.19,-558"/>
<text text-anchor="middle" x="573.69" y="-536.3" font-family="Times,serif" font-size="14.00" fill="green">Subset Considered for Screening</text>
</a>
</g>
</g>
<!-- DiagnosticInterventions -->
<g id="node4" class="node">
<title>DiagnosticInterventions</title>
<g id="a_node4"><a xlink:title="Series of assessments and evaluations to monitor recovery from concussion.">
<path fill="none" stroke="green" d="M226.19,-471C226.19,-471 57.19,-471 57.19,-471 51.19,-471 45.19,-465 45.19,-459 45.19,-459 45.19,-447 45.19,-447 45.19,-441 51.19,-435 57.19,-435 57.19,-435 226.19,-435 226.19,-435 232.19,-435 238.19,-441 238.19,-447 238.19,-447 238.19,-459 238.19,-459 238.19,-465 232.19,-471 226.19,-471"/>
<text text-anchor="middle" x="141.69" y="-449.3" font-family="Times,serif" font-size="14.00" fill="green">Diagnostic Interventions</text>
</a>
</g>
</g>
<!-- SubsetScreening&#45;&gt;DiagnosticInterventions -->
<g id="edge13" class="edge">
<title>SubsetScreening&#45;&gt;DiagnosticInterventions</title>
<path fill="none" stroke="blue" d="M487.04,-521.95C415.03,-507.78 312.65,-487.64 238.06,-472.96"/>
<polygon fill="blue" stroke="blue" points="238.67,-469.52 228.19,-471.02 237.32,-476.38 238.67,-469.52"/>
<text text-anchor="middle" x="388.69" y="-492.8" font-family="Times,serif" font-size="14.00" fill="blue">if</text>
</g>
<!-- SevereSymptoms -->
<g id="node9" class="node">
<title>SevereSymptoms</title>
<g id="a_node9"><a xlink:title="Presence of severe or worsening neurological symptoms requiring immediate medical attention.">
<ellipse fill="none" stroke="blue" cx="350.69" cy="-453" rx="94.78" ry="18"/>
<text text-anchor="middle" x="350.69" y="-449.3" font-family="Times,serif" font-size="14.00" fill="blue">Severe Symptoms</text>
</a>
</g>
</g>
<!-- SubsetScreening&#45;&gt;SevereSymptoms -->
<g id="edge5" class="edge">
<title>SubsetScreening&#45;&gt;SevereSymptoms</title>
<path fill="none" stroke="blue" d="M528.83,-521.9C491.66,-507.73 438.89,-487.62 400.43,-472.96"/>
<polygon fill="blue" stroke="blue" points="401.57,-469.65 390.98,-469.36 399.08,-476.19 401.57,-469.65"/>
<text text-anchor="middle" x="480.69" y="-492.8" font-family="Times,serif" font-size="14.00" fill="blue">if</text>
</g>
<!-- MultipleConcussions -->
<g id="node10" class="node">
<title>MultipleConcussions</title>
<g id="a_node10"><a xlink:title="History of multiple concussions with prolonged recovery periods.">
<ellipse fill="none" stroke="blue" cx="573.69" cy="-453" rx="110.48" ry="18"/>
<text text-anchor="middle" x="573.69" y="-449.3" font-family="Times,serif" font-size="14.00" fill="blue">Multiple Concussions</text>
</a>
</g>
</g>
<!-- SubsetScreening&#45;&gt;MultipleConcussions -->
<g id="edge7" class="edge">
<title>SubsetScreening&#45;&gt;MultipleConcussions</title>
<path fill="none" stroke="blue" d="M573.69,-521.8C573.69,-510.16 573.69,-494.55 573.69,-481.24"/>
<polygon fill="blue" stroke="blue" points="577.19,-481.18 573.69,-471.18 570.19,-481.18 577.19,-481.18"/>
<text text-anchor="middle" x="578.69" y="-492.8" font-family="Times,serif" font-size="14.00" fill="blue">if</text>
</g>
<!-- CoexistingConditions -->
<g id="node11" class="node">
<title>CoexistingConditions</title>
<g id="a_node11"><a xlink:title="Co&#45;existing medical conditions complicating recovery, such as uncontrolled epilepsy or significant psychiatric disorders.">
<ellipse fill="none" stroke="blue" cx="817.69" cy="-453" rx="115.88" ry="18"/>
<text text-anchor="middle" x="817.69" y="-449.3" font-family="Times,serif" font-size="14.00" fill="blue">Co&#45;existing Conditions</text>
</a>
</g>
</g>
<!-- SubsetScreening&#45;&gt;CoexistingConditions -->
<g id="edge9" class="edge">
<title>SubsetScreening&#45;&gt;CoexistingConditions</title>
<path fill="none" stroke="blue" d="M622.77,-521.9C663.44,-507.73 721.18,-487.62 763.26,-472.96"/>
<polygon fill="blue" stroke="blue" points="764.5,-476.23 772.79,-469.64 762.2,-469.62 764.5,-476.23"/>
<text text-anchor="middle" x="715.69" y="-492.8" font-family="Times,serif" font-size="14.00" fill="blue">if</text>
</g>
<!-- LackOfFollowUp -->
<g id="node12" class="node">
<title>LackOfFollowUp</title>
<g id="a_node12"><a xlink:title="Lack of access to appropriate medical follow&#45;up or supervision during return&#45;to&#45;play process.">
<ellipse fill="none" stroke="blue" cx="1044.69" cy="-453" rx="93.68" ry="18"/>
<text text-anchor="middle" x="1044.69" y="-449.3" font-family="Times,serif" font-size="14.00" fill="blue">Lack of Follow&#45;Up</text>
</a>
</g>
</g>
<!-- SubsetScreening&#45;&gt;LackOfFollowUp -->
<g id="edge11" class="edge">
<title>SubsetScreening&#45;&gt;LackOfFollowUp</title>
<path fill="none" stroke="blue" d="M668.15,-521.95C756.57,-505.99 886.99,-482.46 968.83,-467.69"/>
<polygon fill="blue" stroke="blue" points="969.58,-471.11 978.8,-465.89 968.34,-464.22 969.58,-471.11"/>
<text text-anchor="middle" x="841.69" y="-492.8" font-family="Times,serif" font-size="14.00" fill="blue">if</text>
</g>
<!-- Excluded -->
<g id="node3" class="node">
<title>Excluded</title>
<g id="a_node3"><a xlink:title="Individuals excluded from screening based on specific criteria.">
<path fill="none" stroke="green" d="M806.19,-384C806.19,-384 633.19,-384 633.19,-384 627.19,-384 621.19,-378 621.19,-372 621.19,-372 621.19,-360 621.19,-360 621.19,-354 627.19,-348 633.19,-348 633.19,-348 806.19,-348 806.19,-348 812.19,-348 818.19,-354 818.19,-360 818.19,-360 818.19,-372 818.19,-372 818.19,-378 812.19,-384 806.19,-384"/>
<text text-anchor="middle" x="719.69" y="-362.3" font-family="Times,serif" font-size="14.00" fill="green">Excluded from Screening</text>
</a>
</g>
</g>
<!-- BaselineCognitive -->
<g id="node13" class="node">
<title>BaselineCognitive</title>
<g id="a_node13"><a xlink:title="Return to baseline neurocognitive function as evidenced by testing results.">
<ellipse fill="none" stroke="blue" cx="141.69" cy="-366" rx="141.88" ry="18"/>
<text text-anchor="middle" x="141.69" y="-362.3" font-family="Times,serif" font-size="14.00" fill="blue">Baseline Cognitive Function</text>
</a>
</g>
</g>
<!-- DiagnosticInterventions&#45;&gt;BaselineCognitive -->
<g id="edge14" class="edge">
<title>DiagnosticInterventions&#45;&gt;BaselineCognitive</title>
<path fill="none" stroke="blue" d="M141.69,-434.8C141.69,-423.16 141.69,-407.55 141.69,-394.24"/>
<polygon fill="blue" stroke="blue" points="145.19,-394.18 141.69,-384.18 138.19,-394.18 145.19,-394.18"/>
<text text-anchor="middle" x="146.69" y="-405.8" font-family="Times,serif" font-size="14.00" fill="blue">if</text>
</g>
<!-- SuccessfulScreen -->
<g id="node5" class="node">
<title>SuccessfulScreen</title>
<g id="a_node5"><a xlink:title="Conditions for a successful screen indicating readiness for return to play.">
<path fill="none" stroke="green" d="M202.69,-36C202.69,-36 80.69,-36 80.69,-36 74.69,-36 68.69,-30 68.69,-24 68.69,-24 68.69,-12 68.69,-12 68.69,-6 74.69,0 80.69,0 80.69,0 202.69,0 202.69,0 208.69,0 214.69,-6 214.69,-12 214.69,-12 214.69,-24 214.69,-24 214.69,-30 208.69,-36 202.69,-36"/>
<text text-anchor="middle" x="141.69" y="-14.3" font-family="Times,serif" font-size="14.00" fill="green">Successful Screen</text>
</a>
</g>
</g>
<!-- PostAcutePhase -->
<g id="node7" class="node">
<title>PostAcutePhase</title>
<g id="a_node7"><a xlink:title="Currently in the post&#45;acute phase of concussion recovery, typically 24 hours post&#45;injury.">
<ellipse fill="none" stroke="blue" cx="573.69" cy="-714" rx="90.98" ry="18"/>
<text text-anchor="middle" x="573.69" y="-710.3" font-family="Times,serif" font-size="14.00" fill="blue">Post&#45;Acute Phase</text>
</a>
</g>
</g>
<!-- DiagnosedConcussion&#45;&gt;PostAcutePhase -->
<g id="edge2" class="edge">
<title>DiagnosedConcussion&#45;&gt;PostAcutePhase</title>
<path fill="none" stroke="blue" d="M573.69,-782.8C573.69,-771.16 573.69,-755.55 573.69,-742.24"/>
<polygon fill="blue" stroke="blue" points="577.19,-742.18 573.69,-732.18 570.19,-742.18 577.19,-742.18"/>
<text text-anchor="middle" x="587.19" y="-753.8" font-family="Times,serif" font-size="14.00" fill="blue">and</text>
</g>
<!-- InitialEvaluation -->
<g id="node8" class="node">
<title>InitialEvaluation</title>
<g id="a_node8"><a xlink:title="Received initial medical evaluation and management for their concussion.">
<ellipse fill="none" stroke="blue" cx="573.69" cy="-627" rx="90.98" ry="18"/>
<text text-anchor="middle" x="573.69" y="-623.3" font-family="Times,serif" font-size="14.00" fill="blue">Initial Evaluation</text>
</a>
</g>
</g>
<!-- PostAcutePhase&#45;&gt;InitialEvaluation -->
<g id="edge3" class="edge">
<title>PostAcutePhase&#45;&gt;InitialEvaluation</title>
<path fill="none" stroke="blue" d="M573.69,-695.8C573.69,-684.16 573.69,-668.55 573.69,-655.24"/>
<polygon fill="blue" stroke="blue" points="577.19,-655.18 573.69,-645.18 570.19,-655.18 577.19,-655.18"/>
<text text-anchor="middle" x="587.19" y="-666.8" font-family="Times,serif" font-size="14.00" fill="blue">and</text>
</g>
<!-- InitialEvaluation&#45;&gt;SubsetScreening -->
<g id="edge4" class="edge">
<title>InitialEvaluation&#45;&gt;SubsetScreening</title>
<path fill="none" stroke="blue" d="M573.69,-608.8C573.69,-597.16 573.69,-581.55 573.69,-568.24"/>
<polygon fill="blue" stroke="blue" points="577.19,-568.18 573.69,-558.18 570.19,-568.18 577.19,-568.18"/>
<text text-anchor="middle" x="590.19" y="-579.8" font-family="Times,serif" font-size="14.00" fill="blue">then</text>
</g>
<!-- SevereSymptoms&#45;&gt;Excluded -->
<g id="edge6" class="edge">
<title>SevereSymptoms&#45;&gt;Excluded</title>
<path fill="none" stroke="blue" d="M408.75,-438.63C469.78,-424.57 566.38,-402.31 635.72,-386.34"/>
<polygon fill="blue" stroke="blue" points="636.78,-389.69 645.74,-384.03 635.21,-382.87 636.78,-389.69"/>
<text text-anchor="middle" x="574.19" y="-405.8" font-family="Times,serif" font-size="14.00" fill="blue">then</text>
</g>
<!-- MultipleConcussions&#45;&gt;Excluded -->
<g id="edge8" class="edge">
<title>MultipleConcussions&#45;&gt;Excluded</title>
<path fill="none" stroke="blue" d="M602.18,-435.41C624.8,-422.24 656.63,-403.71 681.46,-389.26"/>
<polygon fill="blue" stroke="blue" points="683.38,-392.19 690.26,-384.13 679.86,-386.14 683.38,-392.19"/>
<text text-anchor="middle" x="672.19" y="-405.8" font-family="Times,serif" font-size="14.00" fill="blue">then</text>
</g>
<!-- CoexistingConditions&#45;&gt;Excluded -->
<g id="edge10" class="edge">
<title>CoexistingConditions&#45;&gt;Excluded</title>
<path fill="none" stroke="blue" d="M798.33,-435.21C783.66,-422.48 763.31,-404.84 746.99,-390.68"/>
<polygon fill="blue" stroke="blue" points="749.19,-387.96 739.34,-384.05 744.61,-393.25 749.19,-387.96"/>
<text text-anchor="middle" x="791.19" y="-405.8" font-family="Times,serif" font-size="14.00" fill="blue">then</text>
</g>
<!-- LackOfFollowUp&#45;&gt;Excluded -->
<g id="edge12" class="edge">
<title>LackOfFollowUp&#45;&gt;Excluded</title>
<path fill="none" stroke="blue" d="M991.75,-438.15C938.25,-424.16 855.09,-402.41 794.79,-386.64"/>
<polygon fill="blue" stroke="blue" points="795.5,-383.21 784.94,-384.07 793.73,-389.98 795.5,-383.21"/>
<text text-anchor="middle" x="917.19" y="-405.8" font-family="Times,serif" font-size="14.00" fill="blue">then</text>
</g>
<!-- NormalBalance -->
<g id="node14" class="node">
<title>NormalBalance</title>
<g id="a_node14"><a xlink:title="Exhibits normal balance and coordination comparable to pre&#45;injury levels.">
<ellipse fill="none" stroke="blue" cx="141.69" cy="-279" rx="85.29" ry="18"/>
<text text-anchor="middle" x="141.69" y="-275.3" font-family="Times,serif" font-size="14.00" fill="blue">Normal Balance</text>
</a>
</g>
</g>
<!-- BaselineCognitive&#45;&gt;NormalBalance -->
<g id="edge15" class="edge">
<title>BaselineCognitive&#45;&gt;NormalBalance</title>
<path fill="none" stroke="blue" d="M141.69,-347.8C141.69,-336.16 141.69,-320.55 141.69,-307.24"/>
<polygon fill="blue" stroke="blue" points="145.19,-307.18 141.69,-297.18 138.19,-307.18 145.19,-307.18"/>
<text text-anchor="middle" x="155.19" y="-318.8" font-family="Times,serif" font-size="14.00" fill="blue">and</text>
</g>
<!-- NoSymptoms -->
<g id="node15" class="node">
<title>NoSymptoms</title>
<g id="a_node15"><a xlink:title="Reports no concussion&#45;related symptoms at rest and during physical exertion.">
<ellipse fill="none" stroke="blue" cx="141.69" cy="-192" rx="76.09" ry="18"/>
<text text-anchor="middle" x="141.69" y="-188.3" font-family="Times,serif" font-size="14.00" fill="blue">No Symptoms</text>
</a>
</g>
</g>
<!-- NormalBalance&#45;&gt;NoSymptoms -->
<g id="edge16" class="edge">
<title>NormalBalance&#45;&gt;NoSymptoms</title>
<path fill="none" stroke="blue" d="M141.69,-260.8C141.69,-249.16 141.69,-233.55 141.69,-220.24"/>
<polygon fill="blue" stroke="blue" points="145.19,-220.18 141.69,-210.18 138.19,-220.18 145.19,-220.18"/>
<text text-anchor="middle" x="155.19" y="-231.8" font-family="Times,serif" font-size="14.00" fill="blue">and</text>
</g>
<!-- CompletedProtocol -->
<g id="node16" class="node">
<title>CompletedProtocol</title>
<g id="a_node16"><a xlink:title="Completed a graduated return&#45;to&#45;play protocol without recurrence of symptoms.">
<ellipse fill="none" stroke="blue" cx="141.69" cy="-105" rx="102.88" ry="18"/>
<text text-anchor="middle" x="141.69" y="-101.3" font-family="Times,serif" font-size="14.00" fill="blue">Completed Protocol</text>
</a>
</g>
</g>
<!-- NoSymptoms&#45;&gt;CompletedProtocol -->
<g id="edge17" class="edge">
<title>NoSymptoms&#45;&gt;CompletedProtocol</title>
<path fill="none" stroke="blue" d="M141.69,-173.8C141.69,-162.16 141.69,-146.55 141.69,-133.24"/>
<polygon fill="blue" stroke="blue" points="145.19,-133.18 141.69,-123.18 138.19,-133.18 145.19,-133.18"/>
<text text-anchor="middle" x="155.19" y="-144.8" font-family="Times,serif" font-size="14.00" fill="blue">and</text>
</g>
<!-- CompletedProtocol&#45;&gt;SuccessfulScreen -->
<g id="edge18" class="edge">
<title>CompletedProtocol&#45;&gt;SuccessfulScreen</title>
<path fill="none" stroke="blue" d="M141.69,-86.8C141.69,-75.16 141.69,-59.55 141.69,-46.24"/>
<polygon fill="blue" stroke="blue" points="145.19,-46.18 141.69,-36.18 138.19,-46.18 145.19,-46.18"/>
<text text-anchor="middle" x="158.19" y="-57.8" font-family="Times,serif" font-size="14.00" fill="blue">then</text>
</g>
</g>
</svg>
