<?xml version="1.0" encoding="UTF-8" standalone="no"?>
<!DOCTYPE svg PUBLIC "-//W3C//DTD SVG 1.1//EN"
 "http://www.w3.org/Graphics/SVG/1.1/DTD/svg11.dtd">
<!-- Generated by graphviz version 2.38.0 (20140413.2041)
 -->
<!-- Title: G Pages: 1 -->
<svg width="974pt" height="291pt"
 viewBox="0.00 0.00 974.25 291.00" xmlns="http://www.w3.org/2000/svg" xmlns:xlink="http://www.w3.org/1999/xlink">
<g id="graph0" class="graph" transform="scale(1 1) rotate(0) translate(4 287)">
<title>G</title>
<polygon fill="white" stroke="none" points="-4,4 -4,-287 970.25,-287 970.25,4 -4,4"/>
<!-- start -->
<g id="node1" class="node"><title>start</title>
<polygon fill="none" stroke="blue" points="811.25,-283 603.25,-283 603.25,-247 811.25,-247 811.25,-283"/>
<text text-anchor="middle" x="707.25" y="-261.3" font-family="Times,serif" font-size="14.00" fill="blue">Population in primary care settings</text>
</g>
<!-- age -->
<g id="node2" class="node"><title>age</title>
<polygon fill="none" stroke="blue" points="707.25,-210 566.488,-192 707.25,-174 848.012,-192 707.25,-210"/>
<text text-anchor="middle" x="707.25" y="-188.3" font-family="Times,serif" font-size="14.00" fill="blue">Age ≥18 or 12&#45;17 years?</text>
</g>
<!-- start&#45;&gt;age -->
<g id="edge1" class="edge"><title>start&#45;&gt;age</title>
<path fill="none" stroke="black" d="M707.25,-246.813C707.25,-238.789 707.25,-229.047 707.25,-220.069"/>
<polygon fill="black" stroke="black" points="710.75,-220.029 707.25,-210.029 703.75,-220.029 710.75,-220.029"/>
</g>
<!-- diagnosed_disorder -->
<g id="node3" class="node"><title>diagnosed_disorder</title>
<polygon fill="none" stroke="blue" points="338.25,-123 -0.250056,-105 338.25,-87 676.75,-105 338.25,-123"/>
<text text-anchor="middle" x="338.25" y="-101.3" font-family="Times,serif" font-size="14.00" fill="blue">Currently diagnosed drug use disorder or referred for treatment?</text>
</g>
<!-- age&#45;&gt;diagnosed_disorder -->
<g id="edge2" class="edge"><title>age&#45;&gt;diagnosed_disorder</title>
<path fill="none" stroke="black" d="M659.765,-180.062C595.999,-165.373 482.21,-139.162 408.514,-122.186"/>
<polygon fill="black" stroke="black" points="408.922,-118.688 398.391,-119.854 407.35,-125.509 408.922,-118.688"/>
<text text-anchor="middle" x="591.75" y="-144.8" font-family="Times,serif" font-size="14.00">18 years or older</text>
</g>
<!-- no_action_adolescents -->
<g id="node5" class="node"><title>no_action_adolescents</title>
<polygon fill="none" stroke="blue" points="966.25,-123 694.25,-123 694.25,-87 966.25,-87 966.25,-123"/>
<text text-anchor="middle" x="830.25" y="-101.3" font-family="Times,serif" font-size="14.00" fill="blue">Insufficient evidence for screening adolescents</text>
</g>
<!-- age&#45;&gt;no_action_adolescents -->
<g id="edge3" class="edge"><title>age&#45;&gt;no_action_adolescents</title>
<path fill="none" stroke="black" d="M728.115,-176.581C746.994,-163.535 775.119,-144.099 797.078,-128.924"/>
<polygon fill="black" stroke="black" points="799.224,-131.695 805.461,-123.131 795.244,-125.937 799.224,-131.695"/>
<text text-anchor="middle" x="808.25" y="-144.8" font-family="Times,serif" font-size="14.00">12&#45;17 years</text>
</g>
<!-- screen_adults -->
<g id="node4" class="node"><title>screen_adults</title>
<polygon fill="none" stroke="blue" points="378.25,-36 36.2499,-36 36.2499,-0 378.25,-0 378.25,-36"/>
<text text-anchor="middle" x="207.25" y="-14.3" font-family="Times,serif" font-size="14.00" fill="blue">Screen adults ≥18 years by asking questions about drug use</text>
</g>
<!-- diagnosed_disorder&#45;&gt;screen_adults -->
<g id="edge4" class="edge"><title>diagnosed_disorder&#45;&gt;screen_adults</title>
<path fill="none" stroke="black" d="M313.917,-88.2114C293.798,-75.157 264.964,-56.4483 242.347,-41.7727"/>
<polygon fill="black" stroke="black" points="243.997,-38.6713 233.703,-36.1642 240.187,-44.5435 243.997,-38.6713"/>
<text text-anchor="middle" x="289.75" y="-57.8" font-family="Times,serif" font-size="14.00">No</text>
</g>
<!-- exclude -->
<g id="node6" class="node"><title>exclude</title>
<polygon fill="none" stroke="blue" points="543.75,-36 396.75,-36 396.75,-0 543.75,-0 543.75,-36"/>
<text text-anchor="middle" x="470.25" y="-14.3" font-family="Times,serif" font-size="14.00" fill="blue">Exclude from screening</text>
</g>
<!-- diagnosed_disorder&#45;&gt;exclude -->
<g id="edge5" class="edge"><title>diagnosed_disorder&#45;&gt;exclude</title>
<path fill="none" stroke="black" d="M362.769,-88.2114C383.041,-75.157 412.095,-56.4483 434.885,-41.7727"/>
<polygon fill="black" stroke="black" points="437.082,-44.521 443.595,-36.1642 433.292,-38.6356 437.082,-44.521"/>
<text text-anchor="middle" x="423.25" y="-57.8" font-family="Times,serif" font-size="14.00">Yes</text>
</g>
</g>
</svg>
