<?xml version="1.0" encoding="UTF-8" standalone="no"?><!DOCTYPE svg PUBLIC "-//W3C//DTD SVG 1.1//EN" "http://www.w3.org/Graphics/SVG/1.1/DTD/svg11.dtd"><!-- Generated by graphviz version 2.40.1 (20161225.0304)
 --><!-- Title: OttawaAnkleRules Pages: 1 --><svg xmlns="http://www.w3.org/2000/svg" xmlns:xlink="http://www.w3.org/1999/xlink" width="697pt" height="579pt" viewBox="0.00 0.00 697.14 578.80">
<g id="graph0" class="graph" transform="scale(1 1) rotate(0) translate(4 574.8)">
<title>OttawaAnkleRules</title>
<polygon fill="#ffffff" stroke="transparent" points="-4,4 -4,-574.8 693.1422,-574.8 693.1422,4 -4,4"/>
<!-- start -->
<g id="node1" class="node">
<title>start</title>
<ellipse fill="#d3d3d3" stroke="#d3d3d3" cx="316.3764" cy="-552.8" rx="86.2387" ry="18"/>
<text text-anchor="middle" x="316.3764" y="-548.6" font-family="Times,serif" font-size="14.00" fill="#000000">Acute Ankle Injury</text>
</g>
<!-- location -->
<g id="node2" class="node">
<title>location</title>
<polygon fill="#add8e6" stroke="#add8e6" points="371.1882,-497.8 261.5645,-497.8 261.5645,-461.8 371.1882,-461.8 371.1882,-497.8"/>
<text text-anchor="middle" x="316.3764" y="-475.6" font-family="Times,serif" font-size="14.00" fill="#000000">Location of Pain</text>
</g>
<!-- start&#45;&gt;location -->
<g id="edge1" class="edge">
<title>start-&gt;location</title>
<path fill="none" stroke="#000000" d="M316.3764,-534.7551C316.3764,-526.6828 316.3764,-516.9764 316.3764,-507.9817"/>
<polygon fill="#000000" stroke="#000000" points="319.8765,-507.8903 316.3764,-497.8904 312.8765,-507.8904 319.8765,-507.8903"/>
</g>
<!-- malleolar -->
<g id="node3" class="node">
<title>malleolar</title>
<polygon fill="#add8e6" stroke="#add8e6" points="310.5648,-409 208.1879,-409 208.1879,-373 310.5648,-373 310.5648,-409"/>
<text text-anchor="middle" x="259.3764" y="-386.8" font-family="Times,serif" font-size="14.00" fill="#000000">Malleolar Zone</text>
</g>
<!-- location&#45;&gt;malleolar -->
<g id="edge2" class="edge">
<title>location-&gt;malleolar</title>
<path fill="none" stroke="#000000" d="M301.6338,-461.4767C297.3762,-455.9159 292.8353,-449.7115 288.9556,-443.8 283.6778,-435.7583 278.3921,-426.716 273.7791,-418.4171"/>
<polygon fill="#000000" stroke="#000000" points="276.7531,-416.5603 268.8929,-409.4562 270.6074,-419.9114 276.7531,-416.5603"/>
<text text-anchor="middle" x="316.5868" y="-431.2" font-family="Times,serif" font-size="14.00" fill="#000000">Malleolar</text>
</g>
<!-- midfoot -->
<g id="node4" class="node">
<title>midfoot</title>
<polygon fill="#add8e6" stroke="#add8e6" points="434.5301,-409 340.2226,-409 340.2226,-373 434.5301,-373 434.5301,-409"/>
<text text-anchor="middle" x="387.3764" y="-386.8" font-family="Times,serif" font-size="14.00" fill="#000000">Midfoot Zone</text>
</g>
<!-- location&#45;&gt;midfoot -->
<g id="edge3" class="edge">
<title>location-&gt;midfoot</title>
<path fill="none" stroke="#000000" d="M331.0876,-461.4006C341.3417,-448.5757 355.1687,-431.2822 366.5523,-417.0448"/>
<polygon fill="#000000" stroke="#000000" points="369.4157,-419.0681 372.9269,-409.072 363.9484,-414.6967 369.4157,-419.0681"/>
<text text-anchor="middle" x="380.3196" y="-431.2" font-family="Times,serif" font-size="14.00" fill="#000000">Midfoot</text>
</g>
<!-- malleolarTendernessLateral -->
<g id="node5" class="node">
<title>malleolarTendernessLateral</title>
<polygon fill="#add8e6" stroke="#add8e6" points="309.7966,-335.8019 62.9561,-335.8019 62.9561,-294.5981 309.7966,-294.5981 309.7966,-335.8019"/>
<text text-anchor="middle" x="186.3764" y="-319.4" font-family="Times,serif" font-size="14.00" fill="#000000">Bone tenderness at</text>
<text text-anchor="middle" x="186.3764" y="-302.6" font-family="Times,serif" font-size="14.00" fill="#000000">posterior edge or tip of lateral malleolus?</text>
</g>
<!-- malleolar&#45;&gt;malleolarTendernessLateral -->
<g id="edge4" class="edge">
<title>malleolar-&gt;malleolarTendernessLateral</title>
<path fill="none" stroke="#000000" d="M241.7051,-372.6509C233.2315,-363.8524 222.8936,-353.1179 213.4572,-343.3196"/>
<polygon fill="#000000" stroke="#000000" points="215.9206,-340.8318 206.4628,-336.0568 210.8786,-345.6876 215.9206,-340.8318"/>
</g>
<!-- midfootTenderness5th -->
<g id="node8" class="node">
<title>midfootTenderness5th</title>
<polygon fill="#add8e6" stroke="#add8e6" points="472.5423,-335.8019 328.2104,-335.8019 328.2104,-294.5981 472.5423,-294.5981 472.5423,-335.8019"/>
<text text-anchor="middle" x="400.3764" y="-319.4" font-family="Times,serif" font-size="14.00" fill="#000000">Bone tenderness at</text>
<text text-anchor="middle" x="400.3764" y="-302.6" font-family="Times,serif" font-size="14.00" fill="#000000">base of 5th metatarsal?</text>
</g>
<!-- midfoot&#45;&gt;midfootTenderness5th -->
<g id="edge11" class="edge">
<title>midfoot-&gt;midfootTenderness5th</title>
<path fill="none" stroke="#000000" d="M390.5233,-372.6509C391.8991,-364.6287 393.551,-354.9971 395.1055,-345.9332"/>
<polygon fill="#000000" stroke="#000000" points="398.5585,-346.5046 396.7993,-336.0568 391.6592,-345.3213 398.5585,-346.5046"/>
</g>
<!-- malleolarTendernessMedial -->
<g id="node6" class="node">
<title>malleolarTendernessMedial</title>
<polygon fill="#add8e6" stroke="#add8e6" points="329.4214,-241.4019 79.3313,-241.4019 79.3313,-200.1981 329.4214,-200.1981 329.4214,-241.4019"/>
<text text-anchor="middle" x="204.3764" y="-225" font-family="Times,serif" font-size="14.00" fill="#000000">Bone tenderness at</text>
<text text-anchor="middle" x="204.3764" y="-208.2" font-family="Times,serif" font-size="14.00" fill="#000000">posterior edge or tip of medial malleolus?</text>
</g>
<!-- malleolarTendernessLateral&#45;&gt;malleolarTendernessMedial -->
<g id="edge6" class="edge">
<title>malleolarTendernessLateral-&gt;malleolarTendernessMedial</title>
<path fill="none" stroke="#000000" d="M190.3711,-294.2496C192.7481,-281.7835 195.8081,-265.7355 198.4613,-251.8214"/>
<polygon fill="#000000" stroke="#000000" points="201.9577,-252.1705 200.3927,-241.6919 195.0816,-250.8593 201.9577,-252.1705"/>
<text text-anchor="middle" x="205.9297" y="-263.8" font-family="Times,serif" font-size="14.00" fill="#000000">No</text>
</g>
<!-- ankleXray -->
<g id="node11" class="node">
<title>ankleXray</title>
<ellipse fill="#ff0000" stroke="#ff0000" cx="97.3764" cy="-18" rx="97.2529" ry="18"/>
<text text-anchor="middle" x="97.3764" y="-13.8" font-family="Times,serif" font-size="14.00" fill="#000000">Ankle X-ray indicated</text>
</g>
<!-- malleolarTendernessLateral&#45;&gt;ankleXray -->
<g id="edge5" class="edge">
<title>malleolarTendernessLateral-&gt;ankleXray</title>
<path fill="none" stroke="#000000" d="M131.2939,-294.5329C108.1267,-282.7776 83.5336,-265.5303 70.3764,-241.6 35.5229,-178.2091 65.1471,-89.6608 84.2579,-45.4245"/>
<polygon fill="#000000" stroke="#000000" points="87.5049,-46.7366 88.3811,-36.1781 81.1118,-43.8857 87.5049,-46.7366"/>
<text text-anchor="middle" x="66.2593" y="-169.4" font-family="Times,serif" font-size="14.00" fill="#000000">Yes</text>
</g>
<!-- malleolarWeightBearing -->
<g id="node7" class="node">
<title>malleolarWeightBearing</title>
<polygon fill="#add8e6" stroke="#add8e6" points="365.531,-147.4014 137.2217,-147.4014 137.2217,-88.5986 365.531,-88.5986 365.531,-147.4014"/>
<text text-anchor="middle" x="251.3764" y="-130.6" font-family="Times,serif" font-size="14.00" fill="#000000">Inability to bear weight</text>
<text text-anchor="middle" x="251.3764" y="-113.8" font-family="Times,serif" font-size="14.00" fill="#000000">immediately after injury AND in ED?</text>
<text text-anchor="middle" x="251.3764" y="-97" font-family="Times,serif" font-size="14.00" fill="#000000">Patient unable to take four steps</text>
</g>
<!-- malleolarTendernessMedial&#45;&gt;malleolarWeightBearing -->
<g id="edge8" class="edge">
<title>malleolarTendernessMedial-&gt;malleolarWeightBearing</title>
<path fill="none" stroke="#000000" d="M213.8875,-199.9969C219.5644,-187.5802 226.9537,-171.4181 233.6697,-156.7285"/>
<polygon fill="#000000" stroke="#000000" points="236.9861,-157.8922 237.9611,-147.3423 230.6199,-154.9815 236.9861,-157.8922"/>
<text text-anchor="middle" x="237.9297" y="-169.4" font-family="Times,serif" font-size="14.00" fill="#000000">No</text>
</g>
<!-- malleolarTendernessMedial&#45;&gt;ankleXray -->
<g id="edge7" class="edge">
<title>malleolarTendernessMedial-&gt;ankleXray</title>
<path fill="none" stroke="#000000" d="M162.2433,-200.127C141.7856,-187.7484 119.001,-169.9659 106.6106,-147.2 89.528,-115.8131 90.0947,-73.6105 92.9819,-46.1129"/>
<polygon fill="#000000" stroke="#000000" points="96.4788,-46.3504 94.2184,-35.9995 89.5306,-45.5008 96.4788,-46.3504"/>
<text text-anchor="middle" x="118.2593" y="-113.8" font-family="Times,serif" font-size="14.00" fill="#000000">Yes</text>
</g>
<!-- malleolarWeightBearing&#45;&gt;ankleXray -->
<g id="edge9" class="edge">
<title>malleolarWeightBearing-&gt;ankleXray</title>
<path fill="none" stroke="#000000" d="M206.0042,-88.5376C182.6104,-73.3468 154.5025,-55.0949 132.74,-40.9634"/>
<polygon fill="#000000" stroke="#000000" points="134.4282,-37.8865 124.1351,-35.3758 130.6159,-43.7574 134.4282,-37.8865"/>
<text text-anchor="middle" x="185.2593" y="-58.2" font-family="Times,serif" font-size="14.00" fill="#000000">Yes</text>
</g>
<!-- noXray -->
<g id="node13" class="node">
<title>noXray</title>
<ellipse fill="#00ff00" stroke="#00ff00" cx="319.3764" cy="-18" rx="85.6551" ry="18"/>
<text text-anchor="middle" x="319.3764" y="-13.8" font-family="Times,serif" font-size="14.00" fill="#000000">No X-ray indicated</text>
</g>
<!-- malleolarWeightBearing&#45;&gt;noXray -->
<g id="edge10" class="edge">
<title>malleolarWeightBearing-&gt;noXray</title>
<path fill="none" stroke="#000000" d="M271.4108,-88.5376C280.9233,-74.5486 292.2011,-57.9636 301.4304,-44.3911"/>
<polygon fill="#000000" stroke="#000000" points="304.4315,-46.202 307.1604,-35.9646 298.643,-42.2658 304.4315,-46.202"/>
<text text-anchor="middle" x="302.9297" y="-58.2" font-family="Times,serif" font-size="14.00" fill="#000000">No</text>
</g>
<!-- midfootTendernessNavicular -->
<g id="node9" class="node">
<title>midfootTendernessNavicular</title>
<polygon fill="#add8e6" stroke="#add8e6" points="596.1172,-241.4019 474.6355,-241.4019 474.6355,-200.1981 596.1172,-200.1981 596.1172,-241.4019"/>
<text text-anchor="middle" x="535.3764" y="-225" font-family="Times,serif" font-size="14.00" fill="#000000">Bone tenderness at</text>
<text text-anchor="middle" x="535.3764" y="-208.2" font-family="Times,serif" font-size="14.00" fill="#000000">navicular?</text>
</g>
<!-- midfootTenderness5th&#45;&gt;midfootTendernessNavicular -->
<g id="edge13" class="edge">
<title>midfootTenderness5th-&gt;midfootTendernessNavicular</title>
<path fill="none" stroke="#000000" d="M430.0027,-294.4835C449.8736,-280.5886 476.219,-262.1663 497.5957,-247.2185"/>
<polygon fill="#000000" stroke="#000000" points="499.6297,-250.0671 505.8191,-241.4682 495.6182,-244.3304 499.6297,-250.0671"/>
<text text-anchor="middle" x="483.9297" y="-263.8" font-family="Times,serif" font-size="14.00" fill="#000000">No</text>
</g>
<!-- footXray -->
<g id="node12" class="node">
<title>footXray</title>
<ellipse fill="#ff0000" stroke="#ff0000" cx="535.3764" cy="-18" rx="91.4732" ry="18"/>
<text text-anchor="middle" x="535.3764" y="-13.8" font-family="Times,serif" font-size="14.00" fill="#000000">Foot X-ray indicated</text>
</g>
<!-- midfootTenderness5th&#45;&gt;footXray -->
<g id="edge12" class="edge">
<title>midfootTenderness5th-&gt;footXray</title>
<path fill="none" stroke="#000000" d="M393.5562,-294.5311C379.1247,-246.5294 351.2094,-126.1152 407.3764,-54 414.234,-45.1952 434.1716,-37.9058 456.3302,-32.2433"/>
<polygon fill="#000000" stroke="#000000" points="457.3816,-35.59 466.2782,-29.8366 455.7355,-28.7862 457.3816,-35.59"/>
<text text-anchor="middle" x="384.2593" y="-169.4" font-family="Times,serif" font-size="14.00" fill="#000000">Yes</text>
</g>
<!-- midfootWeightBearing -->
<g id="node10" class="node">
<title>midfootWeightBearing</title>
<polygon fill="#add8e6" stroke="#add8e6" points="649.531,-147.4014 421.2217,-147.4014 421.2217,-88.5986 649.531,-88.5986 649.531,-147.4014"/>
<text text-anchor="middle" x="535.3764" y="-130.6" font-family="Times,serif" font-size="14.00" fill="#000000">Inability to bear weight</text>
<text text-anchor="middle" x="535.3764" y="-113.8" font-family="Times,serif" font-size="14.00" fill="#000000">immediately after injury AND in ED?</text>
<text text-anchor="middle" x="535.3764" y="-97" font-family="Times,serif" font-size="14.00" fill="#000000">Patient unable to take four steps</text>
</g>
<!-- midfootTendernessNavicular&#45;&gt;midfootWeightBearing -->
<g id="edge15" class="edge">
<title>midfootTendernessNavicular-&gt;midfootWeightBearing</title>
<path fill="none" stroke="#000000" d="M535.3764,-199.9969C535.3764,-187.8167 535.3764,-172.0324 535.3764,-157.5695"/>
<polygon fill="#000000" stroke="#000000" points="538.8765,-157.3422 535.3764,-147.3423 531.8765,-157.3423 538.8765,-157.3422"/>
<text text-anchor="middle" x="543.9297" y="-169.4" font-family="Times,serif" font-size="14.00" fill="#000000">No</text>
</g>
<!-- midfootTendernessNavicular&#45;&gt;footXray -->
<g id="edge14" class="edge">
<title>midfootTendernessNavicular-&gt;footXray</title>
<path fill="none" stroke="#000000" d="M595.2989,-200.1502C619.3683,-188.5637 644.6296,-171.4455 658.3764,-147.2 671.1781,-124.6211 671.3688,-111.2697 658.3764,-88.8 644.5484,-64.8854 619.2403,-48.338 595.16,-37.2918"/>
<polygon fill="#000000" stroke="#000000" points="596.2325,-33.9421 585.6651,-33.1793 593.4503,-40.3655 596.2325,-33.9421"/>
<text text-anchor="middle" x="678.2593" y="-113.8" font-family="Times,serif" font-size="14.00" fill="#000000">Yes</text>
</g>
<!-- midfootWeightBearing&#45;&gt;footXray -->
<g id="edge16" class="edge">
<title>midfootWeightBearing-&gt;footXray</title>
<path fill="none" stroke="#000000" d="M535.3764,-88.5376C535.3764,-75.3047 535.3764,-59.749 535.3764,-46.6175"/>
<polygon fill="#000000" stroke="#000000" points="538.8764,-46.2615 535.3764,-36.2616 531.8764,-46.2616 538.8764,-46.2615"/>
<text text-anchor="middle" x="546.2593" y="-58.2" font-family="Times,serif" font-size="14.00" fill="#000000">Yes</text>
</g>
<!-- midfootWeightBearing&#45;&gt;noXray -->
<g id="edge17" class="edge">
<title>midfootWeightBearing-&gt;noXray</title>
<path fill="none" stroke="#000000" d="M472.0287,-88.6724C437.3951,-72.6383 395.326,-53.1619 364.1288,-38.7187"/>
<polygon fill="#000000" stroke="#000000" points="365.3613,-35.4325 354.8162,-34.4073 362.4204,-41.7848 365.3613,-35.4325"/>
<text text-anchor="middle" x="435.9297" y="-58.2" font-family="Times,serif" font-size="14.00" fill="#000000">No</text>
</g>
</g>
</svg>