<svg xmlns="http://www.w3.org/2000/svg" viewBox="0 0 100 100">
  <!-- Background rounded square -->
  <rect x="4" y="4" width="92" height="92" rx="18" ry="18" fill="#2563EB"/>

  <!-- Clipboard body -->
  <rect x="22" y="20" width="56" height="62" rx="6" ry="6" fill="#FFFFFF"/>

  <!-- Clipboard top clip -->
  <rect x="38" y="14" width="24" height="14" rx="4" ry="4" fill="#1D4ED8"/>
  <rect x="42" y="18" width="16" height="6" rx="3" ry="3" fill="#DBEAFE"/>

  <!-- Horizontal lines (checklist items) -->
  <!-- Line 1 -->
  <circle cx="33" cy="42" r="3.5" fill="#10B981"/>
  <polyline points="31,42 33,44.5 36,40" stroke="#FFFFFF" stroke-width="1.5" fill="none" stroke-linecap="round" stroke-linejoin="round"/>
  <rect x="41" y="40" width="24" height="4" rx="2" fill="#DBEAFE"/>

  <!-- Line 2 -->
  <circle cx="33" cy="54" r="3.5" fill="#10B981"/>
  <polyline points="31,54 33,56.5 36,52" stroke="#FFFFFF" stroke-width="1.5" fill="none" stroke-linecap="round" stroke-linejoin="round"/>
  <rect x="41" y="52" width="20" height="4" rx="2" fill="#DBEAFE"/>

  <!-- Line 3 -->
  <circle cx="33" cy="66" r="3.5" fill="#CBD5E1"/>
  <rect x="41" y="64" width="22" height="4" rx="2" fill="#E2E8F0"/>

  <!-- Line 4 -->
  <circle cx="33" cy="76" r="3.5" fill="#CBD5E1"/>
  <rect x="41" y="74" width="16" height="4" rx="2" fill="#E2E8F0"/>
</svg>
