<?xml version="1.0" encoding="UTF-8" standalone="no"?>
<!DOCTYPE svg PUBLIC "-//W3C//DTD SVG 1.1//EN"
 "http://www.w3.org/Graphics/SVG/1.1/DTD/svg11.dtd">
<!-- Generated by graphviz version 2.43.0 (0)
 -->
<!-- Title: Protocol Pages: 1 -->
<svg width="268pt" height="914pt"
 viewBox="0.00 0.00 268.00 914.00" xmlns="http://www.w3.org/2000/svg" xmlns:xlink="http://www.w3.org/1999/xlink">
<g id="graph0" class="graph" transform="scale(1 1) rotate(0) translate(4 910)">
<title>Protocol</title>
<polygon fill="white" stroke="transparent" points="-4,4 -4,-910 264,-910 264,4 -4,4"/>
<!-- InitialPop -->
<g id="node1" class="node">
<title>InitialPop</title>
<g id="a_node1"><a xlink:title="All patients currently prescribed GLP&#45;1 receptor agonists, including but not limited to medications such as liraglutide, exenatide, dulaglutide, semaglutide, and albiglutide.">
<path fill="none" stroke="green" d="M187.5,-906C187.5,-906 72.5,-906 72.5,-906 66.5,-906 60.5,-900 60.5,-894 60.5,-894 60.5,-882 60.5,-882 60.5,-876 66.5,-870 72.5,-870 72.5,-870 187.5,-870 187.5,-870 193.5,-870 199.5,-876 199.5,-882 199.5,-882 199.5,-894 199.5,-894 199.5,-900 193.5,-906 187.5,-906"/>
<text text-anchor="middle" x="130" y="-884.3" font-family="Times,serif" font-size="14.00" fill="green">Initial Population</text>
</a>
</g>
</g>
<!-- MinDuration -->
<g id="node6" class="node">
<title>MinDuration</title>
<g id="a_node6"><a xlink:title="Patients from the initial population who have been on GLP&#45;1 medications for a minimum duration of 4 weeks.">
<ellipse fill="none" stroke="blue" cx="130" cy="-801" rx="114.28" ry="18"/>
<text text-anchor="middle" x="130" y="-797.3" font-family="Times,serif" font-size="14.00" fill="blue">Min Duration 4 Weeks</text>
</a>
</g>
</g>
<!-- InitialPop&#45;&gt;MinDuration -->
<g id="edge1" class="edge">
<title>InitialPop&#45;&gt;MinDuration</title>
<path fill="none" stroke="blue" d="M130,-869.8C130,-858.16 130,-842.55 130,-829.24"/>
<polygon fill="blue" stroke="blue" points="133.5,-829.18 130,-819.18 126.5,-829.18 133.5,-829.18"/>
<text text-anchor="middle" x="135" y="-840.8" font-family="Times,serif" font-size="14.00" fill="blue">if</text>
</g>
<!-- SubsetScreen -->
<g id="node2" class="node">
<title>SubsetScreen</title>
<g id="a_node2"><a xlink:title="Patients from the initial population who have been on GLP&#45;1 medications for a minimum duration of 4 weeks and have not had a documented side effect screening in the past 3 months.">
<path fill="none" stroke="green" d="M244.5,-645C244.5,-645 15.5,-645 15.5,-645 9.5,-645 3.5,-639 3.5,-633 3.5,-633 3.5,-621 3.5,-621 3.5,-615 9.5,-609 15.5,-609 15.5,-609 244.5,-609 244.5,-609 250.5,-609 256.5,-615 256.5,-621 256.5,-621 256.5,-633 256.5,-633 256.5,-639 250.5,-645 244.5,-645"/>
<text text-anchor="middle" x="130" y="-623.3" font-family="Times,serif" font-size="14.00" fill="green">Subset Considered for Screening</text>
</a>
</g>
</g>
<!-- NoAllergies -->
<g id="node8" class="node">
<title>NoAllergies</title>
<g id="a_node8"><a xlink:title="Patients with documented allergies or contraindications to GLP&#45;1 medications.">
<ellipse fill="none" stroke="blue" cx="130" cy="-540" rx="67.69" ry="18"/>
<text text-anchor="middle" x="130" y="-536.3" font-family="Times,serif" font-size="14.00" fill="blue">No Allergies</text>
</a>
</g>
</g>
<!-- SubsetScreen&#45;&gt;NoAllergies -->
<g id="edge4" class="edge">
<title>SubsetScreen&#45;&gt;NoAllergies</title>
<path fill="none" stroke="blue" d="M130,-608.8C130,-597.16 130,-581.55 130,-568.24"/>
<polygon fill="blue" stroke="blue" points="133.5,-568.18 130,-558.18 126.5,-568.18 133.5,-568.18"/>
<text text-anchor="middle" x="135" y="-579.8" font-family="Times,serif" font-size="14.00" fill="blue">if</text>
</g>
<!-- Exclusion -->
<g id="node3" class="node">
<title>Exclusion</title>
<g id="a_node3"><a xlink:title="Patients with documented allergies or contraindications to GLP&#45;1 medications, who have discontinued GLP&#45;1 medications within the last 4 weeks, currently participating in a clinical trial involving GLP&#45;1 medications where side effect monitoring is already being conducted, or with a terminal illness or in palliative care.">
<path fill="none" stroke="green" d="M191,-210C191,-210 69,-210 69,-210 63,-210 57,-204 57,-198 57,-198 57,-186 57,-186 57,-180 63,-174 69,-174 69,-174 191,-174 191,-174 197,-174 203,-180 203,-186 203,-186 203,-198 203,-198 203,-204 197,-210 191,-210"/>
<text text-anchor="middle" x="130" y="-188.3" font-family="Times,serif" font-size="14.00" fill="green">Exclusion Criteria</text>
</a>
</g>
</g>
<!-- Diagnostic -->
<g id="node4" class="node">
<title>Diagnostic</title>
<g id="a_node4"><a xlink:title="Conduct a comprehensive review of the patient&#39;s medical history and current symptoms, administer a standardized questionnaire to assess common side effects, and perform necessary laboratory tests if indicated by symptoms.">
<path fill="none" stroke="green" d="M214.5,-123C214.5,-123 45.5,-123 45.5,-123 39.5,-123 33.5,-117 33.5,-111 33.5,-111 33.5,-99 33.5,-99 33.5,-93 39.5,-87 45.5,-87 45.5,-87 214.5,-87 214.5,-87 220.5,-87 226.5,-93 226.5,-99 226.5,-99 226.5,-111 226.5,-111 226.5,-117 220.5,-123 214.5,-123"/>
<text text-anchor="middle" x="130" y="-101.3" font-family="Times,serif" font-size="14.00" fill="green">Diagnostic Interventions</text>
</a>
</g>
</g>
<!-- Exclusion&#45;&gt;Diagnostic -->
<g id="edge9" class="edge">
<title>Exclusion&#45;&gt;Diagnostic</title>
<path fill="none" stroke="blue" d="M130,-173.8C130,-162.16 130,-146.55 130,-133.24"/>
<polygon fill="blue" stroke="blue" points="133.5,-133.18 130,-123.18 126.5,-133.18 133.5,-133.18"/>
<text text-anchor="middle" x="135" y="-144.8" font-family="Times,serif" font-size="14.00" fill="blue">if</text>
</g>
<!-- SuccessfulScreen -->
<g id="node5" class="node">
<title>SuccessfulScreen</title>
<g id="a_node5"><a xlink:title="Identification and documentation of any side effects, clear communication of findings, recommendation for consultation with a healthcare provider, and follow&#45;up plan established.">
<path fill="none" stroke="green" d="M248,-36C248,-36 12,-36 12,-36 6,-36 0,-30 0,-24 0,-24 0,-12 0,-12 0,-6 6,0 12,0 12,0 248,0 248,0 254,0 260,-6 260,-12 260,-12 260,-24 260,-24 260,-30 254,-36 248,-36"/>
<text text-anchor="middle" x="130" y="-14.3" font-family="Times,serif" font-size="14.00" fill="green">Conditions for Successful Screens</text>
</a>
</g>
</g>
<!-- Diagnostic&#45;&gt;SuccessfulScreen -->
<g id="edge10" class="edge">
<title>Diagnostic&#45;&gt;SuccessfulScreen</title>
<path fill="none" stroke="blue" d="M130,-86.8C130,-75.16 130,-59.55 130,-46.24"/>
<polygon fill="blue" stroke="blue" points="133.5,-46.18 130,-36.18 126.5,-46.18 133.5,-46.18"/>
<text text-anchor="middle" x="146.5" y="-57.8" font-family="Times,serif" font-size="14.00" fill="blue">then</text>
</g>
<!-- NoRecentScreen -->
<g id="node7" class="node">
<title>NoRecentScreen</title>
<g id="a_node7"><a xlink:title="Patients who have not had a documented side effect screening in the past 3 months.">
<ellipse fill="none" stroke="blue" cx="130" cy="-714" rx="108.58" ry="18"/>
<text text-anchor="middle" x="130" y="-710.3" font-family="Times,serif" font-size="14.00" fill="blue">No Recent Screening</text>
</a>
</g>
</g>
<!-- MinDuration&#45;&gt;NoRecentScreen -->
<g id="edge2" class="edge">
<title>MinDuration&#45;&gt;NoRecentScreen</title>
<path fill="none" stroke="blue" d="M130,-782.8C130,-771.16 130,-755.55 130,-742.24"/>
<polygon fill="blue" stroke="blue" points="133.5,-742.18 130,-732.18 126.5,-742.18 133.5,-742.18"/>
<text text-anchor="middle" x="143.5" y="-753.8" font-family="Times,serif" font-size="14.00" fill="blue">and</text>
</g>
<!-- NoRecentScreen&#45;&gt;SubsetScreen -->
<g id="edge3" class="edge">
<title>NoRecentScreen&#45;&gt;SubsetScreen</title>
<path fill="none" stroke="blue" d="M130,-695.8C130,-684.16 130,-668.55 130,-655.24"/>
<polygon fill="blue" stroke="blue" points="133.5,-655.18 130,-645.18 126.5,-655.18 133.5,-655.18"/>
<text text-anchor="middle" x="146.5" y="-666.8" font-family="Times,serif" font-size="14.00" fill="blue">then</text>
</g>
<!-- NotDiscontinued -->
<g id="node9" class="node">
<title>NotDiscontinued</title>
<g id="a_node9"><a xlink:title="Patients who have discontinued GLP&#45;1 medications within the last 4 weeks.">
<ellipse fill="none" stroke="blue" cx="130" cy="-453" rx="91.78" ry="18"/>
<text text-anchor="middle" x="130" y="-449.3" font-family="Times,serif" font-size="14.00" fill="blue">Not Discontinued</text>
</a>
</g>
</g>
<!-- NoAllergies&#45;&gt;NotDiscontinued -->
<g id="edge5" class="edge">
<title>NoAllergies&#45;&gt;NotDiscontinued</title>
<path fill="none" stroke="blue" d="M130,-521.8C130,-510.16 130,-494.55 130,-481.24"/>
<polygon fill="blue" stroke="blue" points="133.5,-481.18 130,-471.18 126.5,-481.18 133.5,-481.18"/>
<text text-anchor="middle" x="143.5" y="-492.8" font-family="Times,serif" font-size="14.00" fill="blue">and</text>
</g>
<!-- NotInTrial -->
<g id="node10" class="node">
<title>NotInTrial</title>
<g id="a_node10"><a xlink:title="Patients currently participating in a clinical trial involving GLP&#45;1 medications where side effect monitoring is already being conducted.">
<ellipse fill="none" stroke="blue" cx="130" cy="-366" rx="63.89" ry="18"/>
<text text-anchor="middle" x="130" y="-362.3" font-family="Times,serif" font-size="14.00" fill="blue">Not in Trial</text>
</a>
</g>
</g>
<!-- NotDiscontinued&#45;&gt;NotInTrial -->
<g id="edge6" class="edge">
<title>NotDiscontinued&#45;&gt;NotInTrial</title>
<path fill="none" stroke="blue" d="M130,-434.8C130,-423.16 130,-407.55 130,-394.24"/>
<polygon fill="blue" stroke="blue" points="133.5,-394.18 130,-384.18 126.5,-394.18 133.5,-394.18"/>
<text text-anchor="middle" x="143.5" y="-405.8" font-family="Times,serif" font-size="14.00" fill="blue">and</text>
</g>
<!-- NotTerminal -->
<g id="node11" class="node">
<title>NotTerminal</title>
<g id="a_node11"><a xlink:title="Patients with a terminal illness or in palliative care where the focus is on comfort rather than active management of medication side effects.">
<ellipse fill="none" stroke="blue" cx="130" cy="-279" rx="71.49" ry="18"/>
<text text-anchor="middle" x="130" y="-275.3" font-family="Times,serif" font-size="14.00" fill="blue">Not Terminal</text>
</a>
</g>
</g>
<!-- NotInTrial&#45;&gt;NotTerminal -->
<g id="edge7" class="edge">
<title>NotInTrial&#45;&gt;NotTerminal</title>
<path fill="none" stroke="blue" d="M130,-347.8C130,-336.16 130,-320.55 130,-307.24"/>
<polygon fill="blue" stroke="blue" points="133.5,-307.18 130,-297.18 126.5,-307.18 133.5,-307.18"/>
<text text-anchor="middle" x="143.5" y="-318.8" font-family="Times,serif" font-size="14.00" fill="blue">and</text>
</g>
<!-- NotTerminal&#45;&gt;Exclusion -->
<g id="edge8" class="edge">
<title>NotTerminal&#45;&gt;Exclusion</title>
<path fill="none" stroke="blue" d="M130,-260.8C130,-249.16 130,-233.55 130,-220.24"/>
<polygon fill="blue" stroke="blue" points="133.5,-220.18 130,-210.18 126.5,-220.18 133.5,-220.18"/>
<text text-anchor="middle" x="146.5" y="-231.8" font-family="Times,serif" font-size="14.00" fill="blue">then</text>
</g>
</g>
</svg>
