<?xml version="1.0" encoding="UTF-8" standalone="no"?><!DOCTYPE svg PUBLIC "-//W3C//DTD SVG 1.1//EN" "http://www.w3.org/Graphics/SVG/1.1/DTD/svg11.dtd"><!-- Generated by graphviz version 2.40.1 (20161225.0304)
 --><!-- Title: G Pages: 1 --><svg xmlns="http://www.w3.org/2000/svg" xmlns:xlink="http://www.w3.org/1999/xlink" width="444pt" height="206pt" viewBox="0.00 0.00 444.03 205.80">
<g id="graph0" class="graph" transform="scale(1 1) rotate(0) translate(4 201.8)">
<title>G</title>
<polygon fill="#ffffff" stroke="transparent" points="-4,4 -4,-201.8 440.0264,-201.8 440.0264,4 -4,4"/>
<!-- start -->
<g id="node1" class="node">
<title>start</title>
<polygon fill="none" stroke="#0000ff" points="143.4046,-197.8 .0954,-179.8 143.4046,-161.8 286.7137,-179.8 143.4046,-197.8"/>
<text text-anchor="middle" x="143.4046" y="-175.6" font-family="Times,serif" font-size="14.00" fill="#0000ff">Is the patient pregnant?</text>
</g>
<!-- notPregnant -->
<g id="node2" class="node">
<title>notPregnant</title>
<polygon fill="none" stroke="#000000" points="141.432,-109 43.3772,-109 43.3772,-73 141.432,-73 141.432,-109"/>
<text text-anchor="middle" x="92.4046" y="-86.8" font-family="Times,serif" font-size="14.00" fill="#000000">Not applicable</text>
</g>
<!-- start&#45;&gt;notPregnant -->
<g id="edge1" class="edge">
<title>start-&gt;notPregnant</title>
<path fill="none" stroke="#000000" d="M133.5712,-162.6785C126.353,-150.1102 116.4003,-132.7808 108.0892,-118.3098"/>
<polygon fill="#000000" stroke="#000000" points="110.9254,-116.2202 102.9099,-109.2917 104.8552,-119.7065 110.9254,-116.2202"/>
<text text-anchor="middle" x="130.9579" y="-131.2" font-family="Times,serif" font-size="14.00" fill="#000000">No</text>
</g>
<!-- pregnant -->
<g id="node3" class="node">
<title>pregnant</title>
<polygon fill="none" stroke="#00ff00" points="353.8519,-109 158.9572,-109 158.9572,-73 353.8519,-73 353.8519,-109"/>
<text text-anchor="middle" x="256.4046" y="-86.8" font-family="Times,serif" font-size="14.00" fill="#00ff00">Pregnant adolescents and adults</text>
</g>
<!-- start&#45;&gt;pregnant -->
<g id="edge2" class="edge">
<title>start-&gt;pregnant</title>
<path fill="none" stroke="#000000" d="M163.3466,-164.1288C180.422,-150.7102 205.3044,-131.1566 225.0441,-115.6443"/>
<polygon fill="#000000" stroke="#000000" points="227.4513,-118.2041 233.1514,-109.2733 223.1261,-112.7002 227.4513,-118.2041"/>
<text text-anchor="middle" x="220.2875" y="-131.2" font-family="Times,serif" font-size="14.00" fill="#000000">Yes</text>
</g>
<!-- counseling -->
<g id="node4" class="node">
<title>counseling</title>
<polygon fill="none" stroke="#c0c0c0" points="436.1482,-36 76.6609,-36 76.6609,0 436.1482,0 436.1482,-36"/>
<text text-anchor="middle" x="256.4046" y="-13.8" font-family="Times,serif" font-size="14.00" fill="#c0c0c0">Offer effective behavioral counseling for healthy weight gain</text>
</g>
<!-- pregnant&#45;&gt;counseling -->
<g id="edge3" class="edge">
<title>pregnant-&gt;counseling</title>
<path fill="none" stroke="#000000" d="M256.4046,-72.9551C256.4046,-64.8828 256.4046,-55.1764 256.4046,-46.1817"/>
<polygon fill="#000000" stroke="#000000" points="259.9047,-46.0903 256.4046,-36.0904 252.9047,-46.0904 259.9047,-46.0903"/>
</g>
</g>
</svg>