<?xml version="1.0" encoding="UTF-8" standalone="no"?>
<!DOCTYPE svg PUBLIC "-//W3C//DTD SVG 1.1//EN"
 "http://www.w3.org/Graphics/SVG/1.1/DTD/svg11.dtd">
<!-- Generated by graphviz version 11.0.0 (20240428.1522)
 -->
<!-- Title: MigraineTreatment Pages: 1 -->
<svg width="1284pt" height="447pt"
 viewBox="0.00 0.00 1284.00 447.00" xmlns="http://www.w3.org/2000/svg" xmlns:xlink="http://www.w3.org/1999/xlink">
<g id="graph0" class="graph" transform="scale(1 1) rotate(0) translate(4 443)">
<title>MigraineTreatment</title>
<polygon fill="white" stroke="none" points="-4,4 -4,-443 1280,-443 1280,4 -4,4"/>
<g id="clust1" class="cluster">
<title>cluster_acute</title>
<polygon fill="lightgrey" stroke="lightgrey" points="8,-171 8,-431 713,-431 713,-171 8,-171"/>
<text text-anchor="middle" x="360.5" y="-413.7" font-family="Times,serif" font-size="14.00">2.1 Acute Treatment</text>
</g>
<g id="clust2" class="cluster">
<title>cluster_prevention</title>
<polygon fill="lightgrey" stroke="lightgrey" points="721,-8 721,-431 1268,-431 1268,-8 721,-8"/>
<text text-anchor="middle" x="994.5" y="-413.7" font-family="Times,serif" font-size="14.00">2.2 Prevention of Migraine</text>
</g>
<!-- FirstLine -->
<g id="node1" class="node">
<title>FirstLine</title>
<polygon fill="lightyellow" stroke="black" points="276.62,-398.5 141.38,-398.5 141.38,-362.5 276.62,-362.5 276.62,-398.5"/>
<text text-anchor="middle" x="209" y="-374.7" font-family="Helvetica,sans-Serif" font-size="14.00">First line treatments</text>
</g>
<!-- Aspirin -->
<g id="node2" class="node">
<title>Aspirin</title>
<polygon fill="lightyellow" stroke="black" points="86.38,-326.5 15.62,-326.5 15.62,-288.5 86.38,-288.5 86.38,-326.5"/>
<text text-anchor="middle" x="51" y="-309.2" font-family="Helvetica,sans-Serif" font-size="14.00">Aspirin</text>
<text text-anchor="middle" x="51" y="-294.2" font-family="Helvetica,sans-Serif" font-size="14.00">(900 mg)</text>
</g>
<!-- FirstLine&#45;&gt;Aspirin -->
<g id="edge1" class="edge">
<title>FirstLine&#45;&gt;Aspirin</title>
<path fill="none" stroke="black" d="M170.35,-362.13C148.25,-352.2 120.38,-339.68 97.14,-329.23"/>
<polygon fill="black" stroke="black" points="98.75,-326.12 88.2,-325.22 95.89,-332.51 98.75,-326.12"/>
</g>
<!-- Ibuprofen -->
<g id="node3" class="node">
<title>Ibuprofen</title>
<polygon fill="lightyellow" stroke="black" points="177.5,-326.5 104.5,-326.5 104.5,-288.5 177.5,-288.5 177.5,-326.5"/>
<text text-anchor="middle" x="141" y="-309.2" font-family="Helvetica,sans-Serif" font-size="14.00">Ibuprofen</text>
<text text-anchor="middle" x="141" y="-294.2" font-family="Helvetica,sans-Serif" font-size="14.00">(400 mg)</text>
</g>
<!-- FirstLine&#45;&gt;Ibuprofen -->
<g id="edge2" class="edge">
<title>FirstLine&#45;&gt;Ibuprofen</title>
<path fill="none" stroke="black" d="M192.54,-362.31C184.65,-354.08 175.04,-344.04 166.25,-334.87"/>
<polygon fill="black" stroke="black" points="168.99,-332.66 159.54,-327.86 163.93,-337.51 168.99,-332.66"/>
</g>
<!-- Sumatriptan -->
<g id="node5" class="node">
<title>Sumatriptan</title>
<polygon fill="lightyellow" stroke="black" points="358.5,-325.5 195.5,-325.5 195.5,-289.5 358.5,-289.5 358.5,-325.5"/>
<text text-anchor="middle" x="277" y="-301.7" font-family="Helvetica,sans-Serif" font-size="14.00">Sumatriptan 50&#45;100 mg)</text>
</g>
<!-- FirstLine&#45;&gt;Sumatriptan -->
<g id="edge3" class="edge">
<title>FirstLine&#45;&gt;Sumatriptan</title>
<path fill="none" stroke="black" d="M225.46,-362.31C233.65,-353.77 243.7,-343.27 252.75,-333.82"/>
<polygon fill="black" stroke="black" points="255.25,-336.26 259.64,-326.62 250.2,-331.42 255.25,-336.26"/>
</g>
<!-- TreatmentFailed -->
<g id="node7" class="node">
<title>TreatmentFailed</title>
<polygon fill="lightyellow" stroke="black" points="541,-325.5 376.7,-307.5 541,-289.5 705.3,-307.5 541,-325.5"/>
<text text-anchor="middle" x="541" y="-301.7" font-family="Helvetica,sans-Serif" font-size="14.00">First line treatments failed?</text>
</g>
<!-- FirstLine&#45;&gt;TreatmentFailed -->
<g id="edge6" class="edge">
<title>FirstLine&#45;&gt;TreatmentFailed</title>
<path fill="none" stroke="black" d="M276.99,-364.96C335.23,-352.5 418.56,-334.68 475.95,-322.41"/>
<polygon fill="black" stroke="black" points="476.54,-325.87 485.58,-320.35 475.07,-319.02 476.54,-325.87"/>
</g>
<!-- IncIbuprofen -->
<g id="node4" class="node">
<title>IncIbuprofen</title>
<polygon fill="lightyellow" stroke="black" points="174.88,-217 59.12,-217 59.12,-179 174.88,-179 174.88,-217"/>
<text text-anchor="middle" x="117" y="-199.7" font-family="Helvetica,sans-Serif" font-size="14.00">Increase dose to</text>
<text text-anchor="middle" x="117" y="-184.7" font-family="Helvetica,sans-Serif" font-size="14.00">600 mg</text>
</g>
<!-- Ibuprofen&#45;&gt;IncIbuprofen -->
<g id="edge4" class="edge">
<title>Ibuprofen&#45;&gt;IncIbuprofen</title>
<path fill="none" stroke="black" d="M136.93,-288.26C133.27,-271.89 127.84,-247.57 123.57,-228.44"/>
<polygon fill="black" stroke="black" points="127.02,-227.8 121.42,-218.8 120.18,-229.32 127.02,-227.8"/>
<text text-anchor="middle" x="182.62" y="-257.2" font-family="Times,serif" font-size="14.00">Treatment failure?</text>
</g>
<!-- AltTriptan -->
<g id="node6" class="node">
<title>AltTriptan</title>
<polygon fill="lightyellow" stroke="black" points="374.88,-216 193.12,-216 193.12,-180 374.88,-180 374.88,-216"/>
<text text-anchor="middle" x="284" y="-192.2" font-family="Helvetica,sans-Serif" font-size="14.00">Cycle through other triptans</text>
</g>
<!-- Sumatriptan&#45;&gt;AltTriptan -->
<g id="edge5" class="edge">
<title>Sumatriptan&#45;&gt;AltTriptan</title>
<path fill="none" stroke="black" d="M278.12,-289.23C279.21,-272.62 280.86,-247.2 282.14,-227.57"/>
<polygon fill="black" stroke="black" points="285.62,-227.95 282.78,-217.74 278.64,-227.49 285.62,-227.95"/>
<text text-anchor="middle" x="330.62" y="-257.2" font-family="Times,serif" font-size="14.00">Treatment failure?</text>
</g>
<!-- ComboTherapy -->
<g id="node8" class="node">
<title>ComboTherapy</title>
<polygon fill="lightyellow" stroke="black" points="682.88,-217 399.12,-217 399.12,-179 682.88,-179 682.88,-217"/>
<text text-anchor="middle" x="541" y="-199.7" font-family="Helvetica,sans-Serif" font-size="14.00">Combination Therapy</text>
<text text-anchor="middle" x="541" y="-184.7" font-family="Helvetica,sans-Serif" font-size="14.00">(Sumatriptan 50&#45;85 mg + Naproxen 500 mg)</text>
</g>
<!-- TreatmentFailed&#45;&gt;ComboTherapy -->
<g id="edge7" class="edge">
<title>TreatmentFailed&#45;&gt;ComboTherapy</title>
<path fill="none" stroke="black" d="M541,-289.23C541,-272.91 541,-248.1 541,-228.62"/>
<polygon fill="black" stroke="black" points="544.5,-228.82 541,-218.82 537.5,-228.82 544.5,-228.82"/>
</g>
<!-- Oral -->
<g id="node9" class="node">
<title>Oral</title>
<polygon fill="lightyellow" stroke="black" points="1026.88,-398.5 917.12,-398.5 917.12,-362.5 1026.88,-362.5 1026.88,-398.5"/>
<text text-anchor="middle" x="972" y="-374.7" font-family="Helvetica,sans-Serif" font-size="14.00">Oral preventers</text>
</g>
<!-- Propranolol -->
<g id="node10" class="node">
<title>Propranolol</title>
<polygon fill="lightyellow" stroke="black" points="850.88,-326.5 729.12,-326.5 729.12,-288.5 850.88,-288.5 850.88,-326.5"/>
<text text-anchor="middle" x="790" y="-309.2" font-family="Helvetica,sans-Serif" font-size="14.00">Propranolol</text>
<text text-anchor="middle" x="790" y="-294.2" font-family="Helvetica,sans-Serif" font-size="14.00">(80&#45;160 mg daily)</text>
</g>
<!-- Oral&#45;&gt;Propranolol -->
<g id="edge8" class="edge">
<title>Oral&#45;&gt;Propranolol</title>
<path fill="none" stroke="black" d="M927.48,-362.13C903.43,-352.75 873.46,-341.06 847.65,-330.99"/>
<polygon fill="black" stroke="black" points="849.24,-327.85 838.65,-327.48 846.7,-334.38 849.24,-327.85"/>
</g>
<!-- Topiramate -->
<g id="node11" class="node">
<title>Topiramate</title>
<polygon fill="lightyellow" stroke="black" points="990.88,-326.5 869.12,-326.5 869.12,-288.5 990.88,-288.5 990.88,-326.5"/>
<text text-anchor="middle" x="930" y="-309.2" font-family="Helvetica,sans-Serif" font-size="14.00">Topiramate</text>
<text text-anchor="middle" x="930" y="-294.2" font-family="Helvetica,sans-Serif" font-size="14.00">(50&#45;100 mg daily)</text>
</g>
<!-- Oral&#45;&gt;Topiramate -->
<g id="edge11" class="edge">
<title>Oral&#45;&gt;Topiramate</title>
<path fill="none" stroke="black" d="M961.83,-362.31C957.26,-354.58 951.75,-345.26 946.6,-336.56"/>
<polygon fill="black" stroke="black" points="949.68,-334.9 941.58,-328.07 943.66,-338.46 949.68,-334.9"/>
</g>
<!-- Amitriptyline -->
<g id="node12" class="node">
<title>Amitriptyline</title>
<polygon fill="lightyellow" stroke="black" points="1147.12,-326.5 1008.88,-326.5 1008.88,-288.5 1147.12,-288.5 1147.12,-326.5"/>
<text text-anchor="middle" x="1078" y="-309.2" font-family="Helvetica,sans-Serif" font-size="14.00">Amitriptyline</text>
<text text-anchor="middle" x="1078" y="-294.2" font-family="Helvetica,sans-Serif" font-size="14.00">(25&#45;150 mg at night)</text>
</g>
<!-- Oral&#45;&gt;Amitriptyline -->
<g id="edge9" class="edge">
<title>Oral&#45;&gt;Amitriptyline</title>
<path fill="none" stroke="black" d="M997.93,-362.13C1010.88,-353.46 1026.77,-342.81 1040.98,-333.3"/>
<polygon fill="black" stroke="black" points="1042.87,-336.25 1049.23,-327.77 1038.97,-330.43 1042.87,-336.25"/>
</g>
<!-- Candesartan -->
<g id="node13" class="node">
<title>Candesartan</title>
<polygon fill="lightyellow" stroke="black" points="1260.38,-326.5 1165.62,-326.5 1165.62,-288.5 1260.38,-288.5 1260.38,-326.5"/>
<text text-anchor="middle" x="1213" y="-309.2" font-family="Helvetica,sans-Serif" font-size="14.00">Candesartan</text>
<text text-anchor="middle" x="1213" y="-294.2" font-family="Helvetica,sans-Serif" font-size="14.00">(16 mg daily)</text>
</g>
<!-- Oral&#45;&gt;Candesartan -->
<g id="edge10" class="edge">
<title>Oral&#45;&gt;Candesartan</title>
<path fill="none" stroke="black" d="M1027.26,-363.98C1061.28,-354.33 1106.05,-341.48 1154.16,-327.02"/>
<polygon fill="black" stroke="black" points="1155.12,-330.39 1163.68,-324.15 1153.1,-323.69 1155.12,-330.39"/>
</g>
<!-- OralFail -->
<g id="node14" class="node">
<title>OralFail</title>
<polygon fill="lightyellow" stroke="black" points="965,-236 730.75,-198 965,-160 1199.25,-198 965,-236"/>
<text text-anchor="middle" x="965" y="-199.7" font-family="Helvetica,sans-Serif" font-size="14.00">3 preventers tried</text>
<text text-anchor="middle" x="965" y="-184.7" font-family="Helvetica,sans-Serif" font-size="14.00">and medication overuse addressed?</text>
</g>
<!-- Propranolol&#45;&gt;OralFail -->
<g id="edge15" class="edge">
<title>Propranolol&#45;&gt;OralFail</title>
<path fill="none" stroke="black" d="M820.08,-288.02C843.97,-273.35 878.06,-252.4 907.18,-234.52"/>
<polygon fill="black" stroke="black" points="908.87,-237.59 915.56,-229.37 905.21,-231.62 908.87,-237.59"/>
</g>
<!-- Topiramate&#45;&gt;OralFail -->
<g id="edge12" class="edge">
<title>Topiramate&#45;&gt;OralFail</title>
<path fill="none" stroke="black" d="M935.94,-288.26C939.8,-276.41 945.02,-260.37 949.97,-245.17"/>
<polygon fill="black" stroke="black" points="953.27,-246.34 953.03,-235.75 946.61,-244.18 953.27,-246.34"/>
</g>
<!-- Amitriptyline&#45;&gt;OralFail -->
<g id="edge13" class="edge">
<title>Amitriptyline&#45;&gt;OralFail</title>
<path fill="none" stroke="black" d="M1058.57,-288.02C1044.24,-274.38 1024.2,-255.32 1006.34,-238.33"/>
<polygon fill="black" stroke="black" points="1009.07,-236.1 999.41,-231.74 1004.25,-241.17 1009.07,-236.1"/>
</g>
<!-- Candesartan&#45;&gt;OralFail -->
<g id="edge14" class="edge">
<title>Candesartan&#45;&gt;OralFail</title>
<path fill="none" stroke="black" d="M1170.37,-288.02C1134.03,-272.27 1081.01,-249.29 1037.94,-230.62"/>
<polygon fill="black" stroke="black" points="1039.46,-227.46 1028.89,-226.7 1036.68,-233.88 1039.46,-227.46"/>
</g>
<!-- ChronicMigraine -->
<g id="node17" class="node">
<title>ChronicMigraine</title>
<polygon fill="lightyellow" stroke="black" points="944.38,-124 825.62,-124 825.62,-88 944.38,-88 944.38,-124"/>
<text text-anchor="middle" x="885" y="-100.2" font-family="Helvetica,sans-Serif" font-size="14.00">Chronic Migraine</text>
</g>
<!-- OralFail&#45;&gt;ChronicMigraine -->
<g id="edge16" class="edge">
<title>OralFail&#45;&gt;ChronicMigraine</title>
<path fill="none" stroke="black" d="M935.89,-164.25C926.72,-153.94 916.73,-142.7 908.05,-132.93"/>
<polygon fill="black" stroke="black" points="910.77,-130.72 901.51,-125.57 905.53,-135.37 910.77,-130.72"/>
</g>
<!-- EpisodicMigraine -->
<g id="node18" class="node">
<title>EpisodicMigraine</title>
<polygon fill="lightyellow" stroke="black" points="1085.62,-124 962.38,-124 962.38,-88 1085.62,-88 1085.62,-124"/>
<text text-anchor="middle" x="1024" y="-100.2" font-family="Helvetica,sans-Serif" font-size="14.00">Episodic Migraine</text>
</g>
<!-- OralFail&#45;&gt;EpisodicMigraine -->
<g id="edge17" class="edge">
<title>OralFail&#45;&gt;EpisodicMigraine</title>
<path fill="none" stroke="black" d="M987.14,-163.23C993.57,-153.41 1000.51,-142.84 1006.61,-133.53"/>
<polygon fill="black" stroke="black" points="1009.45,-135.58 1012,-125.3 1003.59,-131.74 1009.45,-135.58"/>
</g>
<!-- Botulinum -->
<g id="node15" class="node">
<title>Botulinum</title>
<polygon fill="lightyellow" stroke="black" points="907.88,-52 786.12,-52 786.12,-16 907.88,-16 907.88,-52"/>
<text text-anchor="middle" x="847" y="-28.2" font-family="Helvetica,sans-Serif" font-size="14.00">Botulinum toxin A</text>
</g>
<!-- CGRP_MAbs -->
<g id="node16" class="node">
<title>CGRP_MAbs</title>
<polygon fill="lightyellow" stroke="black" points="1122,-52 926,-52 926,-16 1122,-16 1122,-52"/>
<text text-anchor="middle" x="1024" y="-28.2" font-family="Helvetica,sans-Serif" font-size="14.00">CGRP Monoclonal Antibodies</text>
</g>
<!-- ChronicMigraine&#45;&gt;Botulinum -->
<g id="edge19" class="edge">
<title>ChronicMigraine&#45;&gt;Botulinum</title>
<path fill="none" stroke="black" d="M875.61,-87.7C871.42,-79.98 866.39,-70.71 861.72,-62.11"/>
<polygon fill="black" stroke="black" points="864.85,-60.55 857.01,-53.43 858.7,-63.89 864.85,-60.55"/>
</g>
<!-- ChronicMigraine&#45;&gt;CGRP_MAbs -->
<g id="edge20" class="edge">
<title>ChronicMigraine&#45;&gt;CGRP_MAbs</title>
<path fill="none" stroke="black" d="M919.72,-87.52C937.85,-78.39 960.23,-67.11 979.61,-57.35"/>
<polygon fill="black" stroke="black" points="981.02,-60.57 988.37,-52.94 977.87,-54.31 981.02,-60.57"/>
</g>
<!-- EpisodicMigraine&#45;&gt;CGRP_MAbs -->
<g id="edge18" class="edge">
<title>EpisodicMigraine&#45;&gt;CGRP_MAbs</title>
<path fill="none" stroke="black" d="M1024,-87.7C1024,-80.41 1024,-71.73 1024,-63.54"/>
<polygon fill="black" stroke="black" points="1027.5,-63.62 1024,-53.62 1020.5,-63.62 1027.5,-63.62"/>
</g>
</g>
</svg>
