<?xml version="1.0" encoding="UTF-8" standalone="no"?>
<!DOCTYPE svg PUBLIC "-//W3C//DTD SVG 1.1//EN"
 "http://www.w3.org/Graphics/SVG/1.1/DTD/svg11.dtd">
<!-- Generated by graphviz version 2.43.0 (0)
 -->
<!-- Title: %3 Pages: 1 -->
<svg width="300pt" height="1349pt"
 viewBox="0.00 0.00 300.47 1349.00" xmlns="http://www.w3.org/2000/svg" xmlns:xlink="http://www.w3.org/1999/xlink">
<g id="graph0" class="graph" transform="scale(1 1) rotate(0) translate(4 1345)">
<title>%3</title>
<polygon fill="white" stroke="transparent" points="-4,4 -4,-1345 296.47,-1345 296.47,4 -4,4"/>
<!-- InitPop -->
<g id="node1" class="node">
<title>InitPop</title>
<g id="a_node1"><a xlink:title="All patients presenting to a healthcare facility with a wound or seeking wound care services">
<path fill="none" stroke="green" d="M203.74,-1341C203.74,-1341 88.74,-1341 88.74,-1341 82.74,-1341 76.74,-1335 76.74,-1329 76.74,-1329 76.74,-1317 76.74,-1317 76.74,-1311 82.74,-1305 88.74,-1305 88.74,-1305 203.74,-1305 203.74,-1305 209.74,-1305 215.74,-1311 215.74,-1317 215.74,-1317 215.74,-1329 215.74,-1329 215.74,-1335 209.74,-1341 203.74,-1341"/>
<text text-anchor="middle" x="146.24" y="-1319.3" font-family="Times,serif" font-size="14.00" fill="green">Initial Population</text>
</a>
</g>
</g>
<!-- AcuteChronicWound -->
<g id="node4" class="node">
<title>AcuteChronicWound</title>
<g id="a_node4"><a xlink:title="Patient has acute or chronic wound requiring ongoing care and documentation">
<ellipse fill="none" stroke="blue" cx="146.24" cy="-1236" rx="110.48" ry="18"/>
<text text-anchor="middle" x="146.24" y="-1232.3" font-family="Times,serif" font-size="14.00" fill="blue">Acute/Chronic Wound</text>
</a>
</g>
</g>
<!-- InitPop&#45;&gt;AcuteChronicWound -->
<g id="edge1" class="edge">
<title>InitPop&#45;&gt;AcuteChronicWound</title>
<path fill="none" stroke="blue" d="M146.24,-1304.8C146.24,-1293.16 146.24,-1277.55 146.24,-1264.24"/>
<polygon fill="blue" stroke="blue" points="149.74,-1264.18 146.24,-1254.18 142.74,-1264.18 149.74,-1264.18"/>
<text text-anchor="middle" x="151.24" y="-1275.8" font-family="Times,serif" font-size="14.00" fill="blue">if</text>
</g>
<!-- SubsetPop -->
<g id="node2" class="node">
<title>SubsetPop</title>
<g id="a_node2"><a xlink:title="Patients with acute or chronic wounds requiring ongoing care and documentation">
<path fill="none" stroke="green" d="M228.24,-906C228.24,-906 64.24,-906 64.24,-906 58.24,-906 52.24,-900 52.24,-894 52.24,-894 52.24,-882 52.24,-882 52.24,-876 58.24,-870 64.24,-870 64.24,-870 228.24,-870 228.24,-870 234.24,-870 240.24,-876 240.24,-882 240.24,-882 240.24,-894 240.24,-894 240.24,-900 234.24,-906 228.24,-906"/>
<text text-anchor="middle" x="146.24" y="-884.3" font-family="Times,serif" font-size="14.00" fill="green">Subset in Consideration</text>
</a>
</g>
</g>
<!-- PatientReg -->
<g id="node8" class="node">
<title>PatientReg</title>
<g id="a_node8"><a xlink:title="Verify patient identity and demographic information, obtain consent for EMR creation and wound care documentation">
<ellipse fill="none" stroke="blue" cx="146.24" cy="-801" rx="104.78" ry="18"/>
<text text-anchor="middle" x="146.24" y="-797.3" font-family="Times,serif" font-size="14.00" fill="blue">Patient Registration</text>
</a>
</g>
</g>
<!-- SubsetPop&#45;&gt;PatientReg -->
<g id="edge6" class="edge">
<title>SubsetPop&#45;&gt;PatientReg</title>
<path fill="none" stroke="blue" d="M146.24,-869.8C146.24,-858.16 146.24,-842.55 146.24,-829.24"/>
<polygon fill="blue" stroke="blue" points="149.74,-829.18 146.24,-819.18 142.74,-829.18 149.74,-829.18"/>
<text text-anchor="middle" x="151.24" y="-840.8" font-family="Times,serif" font-size="14.00" fill="blue">if</text>
</g>
<!-- CompletePop -->
<g id="node3" class="node">
<title>CompletePop</title>
<g id="a_node3"><a xlink:title="The protocol is considered complete when all required actions have been performed and documented in the patient&#39;s EMR, creating a comprehensive wound care record">
<path fill="none" stroke="green" d="M215.24,-36C215.24,-36 77.24,-36 77.24,-36 71.24,-36 65.24,-30 65.24,-24 65.24,-24 65.24,-12 65.24,-12 65.24,-6 71.24,0 77.24,0 77.24,0 215.24,0 215.24,0 221.24,0 227.24,-6 227.24,-12 227.24,-12 227.24,-24 227.24,-24 227.24,-30 221.24,-36 215.24,-36"/>
<text text-anchor="middle" x="146.24" y="-14.3" font-family="Times,serif" font-size="14.00" fill="green">Protocol Completion</text>
</a>
</g>
</g>
<!-- NotMinorWound -->
<g id="node5" class="node">
<title>NotMinorWound</title>
<g id="a_node5"><a xlink:title="Patient does not have a minor wound that does not require follow&#45;up care">
<ellipse fill="none" stroke="blue" cx="146.24" cy="-1149" rx="92.88" ry="18"/>
<text text-anchor="middle" x="146.24" y="-1145.3" font-family="Times,serif" font-size="14.00" fill="blue">Not Minor Wound</text>
</a>
</g>
</g>
<!-- AcuteChronicWound&#45;&gt;NotMinorWound -->
<g id="edge2" class="edge">
<title>AcuteChronicWound&#45;&gt;NotMinorWound</title>
<path fill="none" stroke="blue" d="M146.24,-1217.8C146.24,-1206.16 146.24,-1190.55 146.24,-1177.24"/>
<polygon fill="blue" stroke="blue" points="149.74,-1177.18 146.24,-1167.18 142.74,-1177.18 149.74,-1177.18"/>
<text text-anchor="middle" x="159.74" y="-1188.8" font-family="Times,serif" font-size="14.00" fill="blue">and</text>
</g>
<!-- ConsentGiven -->
<g id="node6" class="node">
<title>ConsentGiven</title>
<g id="a_node6"><a xlink:title="Patient does not refuse EMR creation or wound care documentation">
<ellipse fill="none" stroke="blue" cx="146.24" cy="-1062" rx="78.79" ry="18"/>
<text text-anchor="middle" x="146.24" y="-1058.3" font-family="Times,serif" font-size="14.00" fill="blue">Consent Given</text>
</a>
</g>
</g>
<!-- NotMinorWound&#45;&gt;ConsentGiven -->
<g id="edge3" class="edge">
<title>NotMinorWound&#45;&gt;ConsentGiven</title>
<path fill="none" stroke="blue" d="M146.24,-1130.8C146.24,-1119.16 146.24,-1103.55 146.24,-1090.24"/>
<polygon fill="blue" stroke="blue" points="149.74,-1090.18 146.24,-1080.18 142.74,-1090.18 149.74,-1090.18"/>
<text text-anchor="middle" x="159.74" y="-1101.8" font-family="Times,serif" font-size="14.00" fill="blue">and</text>
</g>
<!-- CanConsent -->
<g id="node7" class="node">
<title>CanConsent</title>
<g id="a_node7"><a xlink:title="Patient is able to provide informed consent or has a legal guardian present">
<ellipse fill="none" stroke="blue" cx="146.24" cy="-975" rx="69.59" ry="18"/>
<text text-anchor="middle" x="146.24" y="-971.3" font-family="Times,serif" font-size="14.00" fill="blue">Can Consent</text>
</a>
</g>
</g>
<!-- ConsentGiven&#45;&gt;CanConsent -->
<g id="edge4" class="edge">
<title>ConsentGiven&#45;&gt;CanConsent</title>
<path fill="none" stroke="blue" d="M146.24,-1043.8C146.24,-1032.16 146.24,-1016.55 146.24,-1003.24"/>
<polygon fill="blue" stroke="blue" points="149.74,-1003.18 146.24,-993.18 142.74,-1003.18 149.74,-1003.18"/>
<text text-anchor="middle" x="159.74" y="-1014.8" font-family="Times,serif" font-size="14.00" fill="blue">and</text>
</g>
<!-- CanConsent&#45;&gt;SubsetPop -->
<g id="edge5" class="edge">
<title>CanConsent&#45;&gt;SubsetPop</title>
<path fill="none" stroke="blue" d="M146.24,-956.8C146.24,-945.16 146.24,-929.55 146.24,-916.24"/>
<polygon fill="blue" stroke="blue" points="149.74,-916.18 146.24,-906.18 142.74,-916.18 149.74,-916.18"/>
<text text-anchor="middle" x="162.74" y="-927.8" font-family="Times,serif" font-size="14.00" fill="blue">then</text>
</g>
<!-- EMRCreation -->
<g id="node9" class="node">
<title>EMRCreation</title>
<g id="a_node9"><a xlink:title="Create a new EMR if one does not exist, update existing EMR if already present in the system">
<ellipse fill="none" stroke="blue" cx="146.24" cy="-714" rx="76.89" ry="18"/>
<text text-anchor="middle" x="146.24" y="-710.3" font-family="Times,serif" font-size="14.00" fill="blue">EMR Creation</text>
</a>
</g>
</g>
<!-- PatientReg&#45;&gt;EMRCreation -->
<g id="edge7" class="edge">
<title>PatientReg&#45;&gt;EMRCreation</title>
<path fill="none" stroke="blue" d="M146.24,-782.8C146.24,-771.16 146.24,-755.55 146.24,-742.24"/>
<polygon fill="blue" stroke="blue" points="149.74,-742.18 146.24,-732.18 142.74,-742.18 149.74,-742.18"/>
<text text-anchor="middle" x="159.74" y="-753.8" font-family="Times,serif" font-size="14.00" fill="blue">and</text>
</g>
<!-- WoundAssess -->
<g id="node10" class="node">
<title>WoundAssess</title>
<g id="a_node10"><a xlink:title="Document wound location, size, depth, characteristics, etiology, duration, surrounding skin condition, wound bed appearance, exudate, and wound&#45;related pain">
<ellipse fill="none" stroke="blue" cx="146.24" cy="-627" rx="100.98" ry="18"/>
<text text-anchor="middle" x="146.24" y="-623.3" font-family="Times,serif" font-size="14.00" fill="blue">Wound Assessment</text>
</a>
</g>
</g>
<!-- EMRCreation&#45;&gt;WoundAssess -->
<g id="edge8" class="edge">
<title>EMRCreation&#45;&gt;WoundAssess</title>
<path fill="none" stroke="blue" d="M146.24,-695.8C146.24,-684.16 146.24,-668.55 146.24,-655.24"/>
<polygon fill="blue" stroke="blue" points="149.74,-655.18 146.24,-645.18 142.74,-655.18 149.74,-655.18"/>
<text text-anchor="middle" x="159.74" y="-666.8" font-family="Times,serif" font-size="14.00" fill="blue">and</text>
</g>
<!-- PhotoDoc -->
<g id="node11" class="node">
<title>PhotoDoc</title>
<g id="a_node11"><a xlink:title="Obtain patient consent for wound photography, take high&#45;quality digital photographs of the wound, upload and link photographs to the patient&#39;s EMR">
<ellipse fill="none" stroke="blue" cx="146.24" cy="-540" rx="146.47" ry="18"/>
<text text-anchor="middle" x="146.24" y="-536.3" font-family="Times,serif" font-size="14.00" fill="blue">Photographic Documentation</text>
</a>
</g>
</g>
<!-- WoundAssess&#45;&gt;PhotoDoc -->
<g id="edge9" class="edge">
<title>WoundAssess&#45;&gt;PhotoDoc</title>
<path fill="none" stroke="blue" d="M146.24,-608.8C146.24,-597.16 146.24,-581.55 146.24,-568.24"/>
<polygon fill="blue" stroke="blue" points="149.74,-568.18 146.24,-558.18 142.74,-568.18 149.74,-568.18"/>
<text text-anchor="middle" x="159.74" y="-579.8" font-family="Times,serif" font-size="14.00" fill="blue">and</text>
</g>
<!-- TreatmentPlan -->
<g id="node12" class="node">
<title>TreatmentPlan</title>
<g id="a_node12"><a xlink:title="Document current wound care regimen, record prescribed medications or topical treatments, note frequency of dressing changes and wound care procedures">
<ellipse fill="none" stroke="blue" cx="146.24" cy="-453" rx="83.39" ry="18"/>
<text text-anchor="middle" x="146.24" y="-449.3" font-family="Times,serif" font-size="14.00" fill="blue">Treatment Plan</text>
</a>
</g>
</g>
<!-- PhotoDoc&#45;&gt;TreatmentPlan -->
<g id="edge10" class="edge">
<title>PhotoDoc&#45;&gt;TreatmentPlan</title>
<path fill="none" stroke="blue" d="M146.24,-521.8C146.24,-510.16 146.24,-494.55 146.24,-481.24"/>
<polygon fill="blue" stroke="blue" points="149.74,-481.18 146.24,-471.18 142.74,-481.18 149.74,-481.18"/>
<text text-anchor="middle" x="159.74" y="-492.8" font-family="Times,serif" font-size="14.00" fill="blue">and</text>
</g>
<!-- FollowUp -->
<g id="node13" class="node">
<title>FollowUp</title>
<g id="a_node13"><a xlink:title="Schedule next wound care appointment, document any referrals to specialists">
<ellipse fill="none" stroke="blue" cx="146.24" cy="-366" rx="99.38" ry="18"/>
<text text-anchor="middle" x="146.24" y="-362.3" font-family="Times,serif" font-size="14.00" fill="blue">Follow&#45;up Planning</text>
</a>
</g>
</g>
<!-- TreatmentPlan&#45;&gt;FollowUp -->
<g id="edge11" class="edge">
<title>TreatmentPlan&#45;&gt;FollowUp</title>
<path fill="none" stroke="blue" d="M146.24,-434.8C146.24,-423.16 146.24,-407.55 146.24,-394.24"/>
<polygon fill="blue" stroke="blue" points="149.74,-394.18 146.24,-384.18 142.74,-394.18 149.74,-394.18"/>
<text text-anchor="middle" x="159.74" y="-405.8" font-family="Times,serif" font-size="14.00" fill="blue">and</text>
</g>
<!-- PatientEd -->
<g id="node14" class="node">
<title>PatientEd</title>
<g id="a_node14"><a xlink:title="Provide and document wound care instructions given to the patient or caregiver, record any educational materials provided">
<ellipse fill="none" stroke="blue" cx="146.24" cy="-279" rx="93.68" ry="18"/>
<text text-anchor="middle" x="146.24" y="-275.3" font-family="Times,serif" font-size="14.00" fill="blue">Patient Education</text>
</a>
</g>
</g>
<!-- FollowUp&#45;&gt;PatientEd -->
<g id="edge12" class="edge">
<title>FollowUp&#45;&gt;PatientEd</title>
<path fill="none" stroke="blue" d="M146.24,-347.8C146.24,-336.16 146.24,-320.55 146.24,-307.24"/>
<polygon fill="blue" stroke="blue" points="149.74,-307.18 146.24,-297.18 142.74,-307.18 149.74,-307.18"/>
<text text-anchor="middle" x="159.74" y="-318.8" font-family="Times,serif" font-size="14.00" fill="blue">and</text>
</g>
<!-- CareCoord -->
<g id="node15" class="node">
<title>CareCoord</title>
<g id="a_node15"><a xlink:title="Document communication with other healthcare providers involved in the patient&#39;s care, note any equipment or supplies ordered for home wound care">
<ellipse fill="none" stroke="blue" cx="146.24" cy="-192" rx="95.58" ry="18"/>
<text text-anchor="middle" x="146.24" y="-188.3" font-family="Times,serif" font-size="14.00" fill="blue">Care Coordination</text>
</a>
</g>
</g>
<!-- PatientEd&#45;&gt;CareCoord -->
<g id="edge13" class="edge">
<title>PatientEd&#45;&gt;CareCoord</title>
<path fill="none" stroke="blue" d="M146.24,-260.8C146.24,-249.16 146.24,-233.55 146.24,-220.24"/>
<polygon fill="blue" stroke="blue" points="149.74,-220.18 146.24,-210.18 142.74,-220.18 149.74,-220.18"/>
<text text-anchor="middle" x="159.74" y="-231.8" font-family="Times,serif" font-size="14.00" fill="blue">and</text>
</g>
<!-- QualityAssurance -->
<g id="node16" class="node">
<title>QualityAssurance</title>
<g id="a_node16"><a xlink:title="Ensure all required fields in the EMR are completed, verify that the wound care documentation meets facility standards and regulatory requirements">
<ellipse fill="none" stroke="blue" cx="146.24" cy="-105" rx="94.78" ry="18"/>
<text text-anchor="middle" x="146.24" y="-101.3" font-family="Times,serif" font-size="14.00" fill="blue">Quality Assurance</text>
</a>
</g>
</g>
<!-- CareCoord&#45;&gt;QualityAssurance -->
<g id="edge14" class="edge">
<title>CareCoord&#45;&gt;QualityAssurance</title>
<path fill="none" stroke="blue" d="M146.24,-173.8C146.24,-162.16 146.24,-146.55 146.24,-133.24"/>
<polygon fill="blue" stroke="blue" points="149.74,-133.18 146.24,-123.18 142.74,-133.18 149.74,-133.18"/>
<text text-anchor="middle" x="159.74" y="-144.8" font-family="Times,serif" font-size="14.00" fill="blue">and</text>
</g>
<!-- QualityAssurance&#45;&gt;CompletePop -->
<g id="edge15" class="edge">
<title>QualityAssurance&#45;&gt;CompletePop</title>
<path fill="none" stroke="blue" d="M146.24,-86.8C146.24,-75.16 146.24,-59.55 146.24,-46.24"/>
<polygon fill="blue" stroke="blue" points="149.74,-46.18 146.24,-36.18 142.74,-46.18 149.74,-46.18"/>
<text text-anchor="middle" x="162.74" y="-57.8" font-family="Times,serif" font-size="14.00" fill="blue">then</text>
</g>
</g>
</svg>
