<?xml version="1.0" encoding="UTF-8" standalone="no"?><!DOCTYPE svg PUBLIC "-//W3C//DTD SVG 1.1//EN" "http://www.w3.org/Graphics/SVG/1.1/DTD/svg11.dtd"><!-- Generated by graphviz version 2.40.1 (20161225.0304)
 --><!-- Title: G Pages: 1 --><svg xmlns="http://www.w3.org/2000/svg" xmlns:xlink="http://www.w3.org/1999/xlink" width="973pt" height="399pt" viewBox="0.00 0.00 973.08 399.20">
<g id="graph0" class="graph" transform="scale(1 1) rotate(0) translate(4 395.2)">
<title>G</title>
<polygon fill="#ffffff" stroke="transparent" points="-4,4 -4,-395.2 969.0814,-395.2 969.0814,4 -4,4"/>
<!-- A -->
<g id="node1" class="node">
<title>A</title>
<polygon fill="none" stroke="#0000ff" points="159.3463,-391.2 .1535,-373.2 159.3463,-355.2 318.5392,-373.2 159.3463,-391.2"/>
<text text-anchor="middle" x="159.3463" y="-369" font-family="Times,serif" font-size="14.00" fill="#0000ff">Adult ≥ 18 years or older</text>
</g>
<!-- E -->
<g id="node4" class="node">
<title>E</title>
<polygon fill="none" stroke="#000000" points="317.8066,-36 58.8861,-36 58.8861,0 317.8066,0 317.8066,-36"/>
<text text-anchor="middle" x="188.3463" y="-13.8" font-family="Times,serif" font-size="14.00" fill="#000000">Do not screen for asymptomatic bacteriuria</text>
</g>
<!-- A&#45;&gt;E -->
<g id="edge8" class="edge">
<title>A-&gt;E</title>
<path fill="none" stroke="#000000" d="M154.2838,-355.6769C149.5963,-337.8854 143.3463,-309.4639 143.3463,-284.4 143.3463,-284.4 143.3463,-284.4 143.3463,-106.8 143.3463,-83.9875 155.309,-61.0926 166.8986,-44.2647"/>
<polygon fill="#000000" stroke="#000000" points="169.8191,-46.1995 172.8599,-36.0504 164.1537,-42.0881 169.8191,-46.1995"/>
<text text-anchor="middle" x="151.8996" y="-191.4" font-family="Times,serif" font-size="14.00" fill="#000000">No</text>
</g>
<!-- F -->
<g id="node5" class="node">
<title>F</title>
<polygon fill="none" stroke="#0000ff" points="429.3463,-302.4 171.4605,-284.4 429.3463,-266.4 687.2322,-284.4 429.3463,-302.4"/>
<text text-anchor="middle" x="429.3463" y="-280.2" font-family="Times,serif" font-size="14.00" fill="#0000ff">Chronic medical or urinary tract conditions?</text>
</g>
<!-- A&#45;&gt;F -->
<g id="edge2" class="edge">
<title>A-&gt;F</title>
<path fill="none" stroke="#000000" d="M200.3535,-359.7132C246.7814,-344.4436 322.6537,-319.49 374.2305,-302.527"/>
<polygon fill="#000000" stroke="#000000" points="375.4797,-305.8007 383.8856,-299.3515 373.2926,-299.1511 375.4797,-305.8007"/>
<text text-anchor="middle" x="329.2292" y="-324.6" font-family="Times,serif" font-size="14.00" fill="#000000">Yes</text>
</g>
<!-- B -->
<g id="node2" class="node">
<title>B</title>
<polygon fill="none" stroke="#0000ff" points="562.3463,-124.8 491.9176,-106.8 562.3463,-88.8 632.7751,-106.8 562.3463,-124.8"/>
<text text-anchor="middle" x="562.3463" y="-102.6" font-family="Times,serif" font-size="14.00" fill="#0000ff">Pregnant?</text>
</g>
<!-- D -->
<g id="node3" class="node">
<title>D</title>
<polygon fill="none" stroke="#000000" points="965.3167,-36 335.376,-36 335.376,0 965.3167,0 965.3167,-36"/>
<text text-anchor="middle" x="650.3463" y="-13.8" font-family="Times,serif" font-size="14.00" fill="#000000">Screen for asymptomatic bacteriuria using urine culture at first prenatal visit or at 12 to 16 weeks of gestation</text>
</g>
<!-- B&#45;&gt;D -->
<g id="edge6" class="edge">
<title>B-&gt;D</title>
<path fill="none" stroke="#000000" d="M576.8778,-92.1365C589.9669,-78.9283 609.4952,-59.2226 625.1289,-43.4467"/>
<polygon fill="#000000" stroke="#000000" points="627.8925,-45.6303 632.4454,-36.0636 622.9204,-40.703 627.8925,-45.6303"/>
<text text-anchor="middle" x="624.2292" y="-58.2" font-family="Times,serif" font-size="14.00" fill="#000000">Yes</text>
</g>
<!-- B&#45;&gt;E -->
<g id="edge7" class="edge">
<title>B-&gt;E</title>
<path fill="none" stroke="#000000" d="M527.9978,-97.4803C487.3673,-86.566 417.6285,-68.1771 357.3463,-54 334.4776,-48.6218 309.7854,-43.1651 286.5253,-38.1814"/>
<polygon fill="#000000" stroke="#000000" points="287.164,-34.739 276.6539,-36.0761 285.7039,-41.585 287.164,-34.739"/>
<text text-anchor="middle" x="432.8996" y="-58.2" font-family="Times,serif" font-size="14.00" fill="#000000">No</text>
</g>
<!-- F&#45;&gt;E -->
<g id="edge4" class="edge">
<title>F-&gt;E</title>
<path fill="none" stroke="#000000" d="M360.7422,-271.1166C303.033,-258.4635 226.8881,-237.7926 207.3463,-213.6 168.494,-165.5011 175.1279,-87.4795 182.3181,-46.0043"/>
<polygon fill="#000000" stroke="#000000" points="185.7822,-46.5207 184.1788,-36.0479 178.9013,-45.2347 185.7822,-46.5207"/>
<text text-anchor="middle" x="193.2292" y="-147" font-family="Times,serif" font-size="14.00" fill="#000000">Yes</text>
</g>
<!-- G -->
<g id="node6" class="node">
<title>G</title>
<polygon fill="none" stroke="#0000ff" points="562.3463,-213.6 216.6239,-195.6 562.3463,-177.6 908.0688,-195.6 562.3463,-213.6"/>
<text text-anchor="middle" x="562.3463" y="-191.4" font-family="Times,serif" font-size="14.00" fill="#0000ff">Hospitalized or living in institutions such as nursing homes?</text>
</g>
<!-- F&#45;&gt;G -->
<g id="edge3" class="edge">
<title>F-&gt;G</title>
<path fill="none" stroke="#000000" d="M454.0509,-267.9055C475.1004,-253.8514 505.5455,-233.5242 528.7978,-217.9993"/>
<polygon fill="#000000" stroke="#000000" points="530.9496,-220.7711 537.3227,-212.3075 527.0626,-214.9495 530.9496,-220.7711"/>
<text text-anchor="middle" x="515.8996" y="-235.8" font-family="Times,serif" font-size="14.00" fill="#000000">No</text>
</g>
<!-- G&#45;&gt;B -->
<g id="edge1" class="edge">
<title>G-&gt;B</title>
<path fill="none" stroke="#000000" d="M562.3463,-177.2006C562.3463,-165.0949 562.3463,-149.0076 562.3463,-135.2674"/>
<polygon fill="#000000" stroke="#000000" points="565.8464,-134.872 562.3463,-124.872 558.8464,-134.8721 565.8464,-134.872"/>
<text text-anchor="middle" x="570.8996" y="-147" font-family="Times,serif" font-size="14.00" fill="#000000">No</text>
</g>
<!-- G&#45;&gt;E -->
<g id="edge5" class="edge">
<title>G-&gt;E</title>
<path fill="none" stroke="#000000" d="M528.1649,-179.3684C461.1551,-147.5477 312.4074,-76.9124 235.8707,-40.5677"/>
<polygon fill="#000000" stroke="#000000" points="236.9933,-37.2263 226.4587,-36.0983 233.9906,-43.5495 236.9933,-37.2263"/>
<text text-anchor="middle" x="423.2292" y="-102.6" font-family="Times,serif" font-size="14.00" fill="#000000">Yes</text>
</g>
</g>
</svg>