<?xml version="1.0" encoding="UTF-8" standalone="no"?>
<!DOCTYPE svg PUBLIC "-//W3C//DTD SVG 1.1//EN"
 "http://www.w3.org/Graphics/SVG/1.1/DTD/svg11.dtd">
<!-- Generated by graphviz version 11.0.0 (20240428.1522)
 -->
<!-- Title: ClusterHeadacheProphylaxis Pages: 1 -->
<svg width="659pt" height="375pt"
 viewBox="0.00 0.00 659.12 375.00" xmlns="http://www.w3.org/2000/svg" xmlns:xlink="http://www.w3.org/1999/xlink">
<g id="graph0" class="graph" transform="scale(1 1) rotate(0) translate(4 371)">
<title>ClusterHeadacheProphylaxis</title>
<polygon fill="white" stroke="none" points="-4,4 -4,-371 655.12,-371 655.12,4 -4,4"/>
<!-- start -->
<g id="node1" class="node">
<title>start</title>
<polygon fill="none" stroke="black" points="438,-367 384,-367 384,-331 438,-331 438,-367"/>
<text text-anchor="middle" x="411" y="-343.95" font-family="Times,serif" font-size="14.00">Start</text>
</g>
<!-- pregnant -->
<g id="node2" class="node">
<title>pregnant</title>
<polygon fill="none" stroke="black" points="466.62,-295 355.38,-295 355.38,-259 466.62,-259 466.62,-295"/>
<text text-anchor="middle" x="411" y="-271.95" font-family="Times,serif" font-size="14.00">Patient Pregnant?</text>
</g>
<!-- start&#45;&gt;pregnant -->
<g id="edge1" class="edge">
<title>start&#45;&gt;pregnant</title>
<path fill="none" stroke="black" d="M411,-330.7C411,-323.41 411,-314.73 411,-306.54"/>
<polygon fill="black" stroke="black" points="414.5,-306.62 411,-296.62 407.5,-306.62 414.5,-306.62"/>
</g>
<!-- verapamil_prophylaxis -->
<g id="node3" class="node">
<title>verapamil_prophylaxis</title>
<polygon fill="none" stroke="black" points="410.38,-206.5 153.62,-206.5 153.62,-165.5 410.38,-165.5 410.38,-206.5"/>
<text text-anchor="middle" x="282" y="-189.2" font-family="Times,serif" font-size="14.00">Consider verapamil for prophylactic</text>
<text text-anchor="middle" x="282" y="-172.7" font-family="Times,serif" font-size="14.00"> treatment during a bout of cluster headache</text>
</g>
<!-- pregnant&#45;&gt;verapamil_prophylaxis -->
<g id="edge3" class="edge">
<title>pregnant&#45;&gt;verapamil_prophylaxis</title>
<path fill="none" stroke="black" d="M385.82,-258.63C367.13,-245.73 341.31,-227.92 320.09,-213.28"/>
<polygon fill="black" stroke="black" points="322.18,-210.47 311.96,-207.67 318.2,-216.23 322.18,-210.47"/>
<text text-anchor="middle" x="367.25" y="-227.7" font-family="Times,serif" font-size="14.00">No</text>
</g>
<!-- seek_specialist_advice_pregnancy -->
<g id="node8" class="node">
<title>seek_specialist_advice_pregnancy</title>
<polygon fill="none" stroke="black" points="651.12,-206.5 428.88,-206.5 428.88,-165.5 651.12,-165.5 651.12,-206.5"/>
<text text-anchor="middle" x="540" y="-189.2" font-family="Times,serif" font-size="14.00">Seek specialist advice if treatment for</text>
<text text-anchor="middle" x="540" y="-172.7" font-family="Times,serif" font-size="14.00">cluster headache is needed</text>
</g>
<!-- pregnant&#45;&gt;seek_specialist_advice_pregnancy -->
<g id="edge2" class="edge">
<title>pregnant&#45;&gt;seek_specialist_advice_pregnancy</title>
<path fill="none" stroke="black" d="M436.18,-258.63C454.87,-245.73 480.69,-227.92 501.91,-213.28"/>
<polygon fill="black" stroke="black" points="503.8,-216.23 510.04,-207.67 499.82,-210.47 503.8,-216.23"/>
<text text-anchor="middle" x="494.12" y="-227.7" font-family="Times,serif" font-size="14.00">Yes</text>
</g>
<!-- unfamiliar_verapamil -->
<g id="node4" class="node">
<title>unfamiliar_verapamil</title>
<polygon fill="none" stroke="black" points="270.62,-129.5 9.38,-129.5 9.38,-93.5 270.62,-93.5 270.62,-129.5"/>
<text text-anchor="middle" x="140" y="-106.45" font-family="Times,serif" font-size="14.00">Unfamiliar with its use for cluster headache?</text>
</g>
<!-- verapamil_prophylaxis&#45;&gt;unfamiliar_verapamil -->
<g id="edge4" class="edge">
<title>verapamil_prophylaxis&#45;&gt;unfamiliar_verapamil</title>
<path fill="none" stroke="black" d="M243.2,-165.19C224.91,-155.85 203,-144.66 184.08,-135.01"/>
<polygon fill="black" stroke="black" points="185.77,-131.94 175.27,-130.51 182.59,-138.17 185.77,-131.94"/>
</g>
<!-- non_responding_headache -->
<g id="node6" class="node">
<title>non_responding_headache</title>
<polygon fill="none" stroke="black" points="561.25,-129.5 288.75,-129.5 288.75,-93.5 561.25,-93.5 561.25,-129.5"/>
<text text-anchor="middle" x="425" y="-106.45" font-family="Times,serif" font-size="14.00">Cluster headache not responding to verapamil?</text>
</g>
<!-- verapamil_prophylaxis&#45;&gt;non_responding_headache -->
<g id="edge6" class="edge">
<title>verapamil_prophylaxis&#45;&gt;non_responding_headache</title>
<path fill="none" stroke="black" d="M321.08,-165.19C339.5,-155.85 361.56,-144.66 380.61,-135.01"/>
<polygon fill="black" stroke="black" points="382.15,-138.15 389.49,-130.5 378.99,-131.9 382.15,-138.15"/>
</g>
<!-- seek_specialist_advice -->
<g id="node5" class="node">
<title>seek_specialist_advice</title>
<polygon fill="none" stroke="black" points="280,-41 0,-41 0,0 280,0 280,-41"/>
<text text-anchor="middle" x="140" y="-23.7" font-family="Times,serif" font-size="14.00">Seek specialist advice before starting verapamil,</text>
<text text-anchor="middle" x="140" y="-7.2" font-family="Times,serif" font-size="14.00"> including advice on ECG monitoring</text>
</g>
<!-- unfamiliar_verapamil&#45;&gt;seek_specialist_advice -->
<g id="edge5" class="edge">
<title>unfamiliar_verapamil&#45;&gt;seek_specialist_advice</title>
<path fill="none" stroke="black" d="M140,-93.34C140,-81.85 140,-66.4 140,-52.77"/>
<polygon fill="black" stroke="black" points="143.5,-52.92 140,-42.92 136.5,-52.92 143.5,-52.92"/>
<text text-anchor="middle" x="150.12" y="-62.2" font-family="Times,serif" font-size="14.00">Yes</text>
</g>
<!-- seek_specialist_advice_non_response -->
<g id="node7" class="node">
<title>seek_specialist_advice_non_response</title>
<polygon fill="none" stroke="black" points="549.25,-41 300.75,-41 300.75,0 549.25,0 549.25,-41"/>
<text text-anchor="middle" x="425" y="-23.7" font-family="Times,serif" font-size="14.00">Seek specialist advice for cluster headache</text>
<text text-anchor="middle" x="425" y="-7.2" font-family="Times,serif" font-size="14.00">that does not respond to verapamil</text>
</g>
<!-- non_responding_headache&#45;&gt;seek_specialist_advice_non_response -->
<g id="edge7" class="edge">
<title>non_responding_headache&#45;&gt;seek_specialist_advice_non_response</title>
<path fill="none" stroke="black" d="M425,-93.34C425,-81.85 425,-66.4 425,-52.77"/>
<polygon fill="black" stroke="black" points="428.5,-52.92 425,-42.92 421.5,-52.92 428.5,-52.92"/>
</g>
</g>
</svg>
