<?xml version="1.0" encoding="UTF-8" standalone="no"?>
<!DOCTYPE svg PUBLIC "-//W3C//DTD SVG 1.1//EN"
 "http://www.w3.org/Graphics/SVG/1.1/DTD/svg11.dtd">
<!-- Generated by graphviz version 2.38.0 (20140413.2041)
 -->
<!-- Title: G Pages: 1 -->
<svg width="1013pt" height="465pt"
 viewBox="0.00 0.00 1013.30 465.00" xmlns="http://www.w3.org/2000/svg" xmlns:xlink="http://www.w3.org/1999/xlink">
<g id="graph0" class="graph" transform="scale(1 1) rotate(0) translate(4 461)">
<title>G</title>
<polygon fill="white" stroke="none" points="-4,4 -4,-461 1009.3,-461 1009.3,4 -4,4"/>
<!-- start -->
<g id="node1" class="node"><title>start</title>
<ellipse fill="none" stroke="black" cx="799.41" cy="-439" rx="110.48" ry="18"/>
<text text-anchor="middle" x="799.41" y="-435.3" font-family="Times,serif" font-size="14.00" fill="blue">Start: Adolescents &amp; Adults</text>
</g>
<!-- atIncreasedRisk -->
<g id="node2" class="node"><title>atIncreasedRisk</title>
<polygon fill="none" stroke="blue" points="799.41,-384 593.627,-366 799.41,-348 1005.19,-366 799.41,-384"/>
<text text-anchor="middle" x="799.41" y="-362.3" font-family="Times,serif" font-size="14.00" fill="blue">At Increased Risk for HBV Infection?</text>
</g>
<!-- start&#45;&gt;atIncreasedRisk -->
<g id="edge1" class="edge"><title>start&#45;&gt;atIncreasedRisk</title>
<path fill="none" stroke="black" d="M799.41,-420.813C799.41,-412.789 799.41,-403.047 799.41,-394.069"/>
<polygon fill="black" stroke="black" points="802.91,-394.029 799.41,-384.029 795.91,-394.029 802.91,-394.029"/>
</g>
<!-- countryOfOrigin -->
<g id="node3" class="node"><title>countryOfOrigin</title>
<polygon fill="none" stroke="blue" points="453.41,-297 194.005,-279 453.41,-261 712.815,-279 453.41,-297"/>
<text text-anchor="middle" x="453.41" y="-275.3" font-family="Times,serif" font-size="14.00" fill="blue">Born in countries with ≥2% HBsAg prevalence?</text>
</g>
<!-- atIncreasedRisk&#45;&gt;countryOfOrigin -->
<g id="edge2" class="edge"><title>atIncreasedRisk&#45;&gt;countryOfOrigin</title>
<path fill="none" stroke="black" d="M748.356,-352.458C687.028,-337.392 584.098,-312.105 517.487,-295.741"/>
<polygon fill="black" stroke="black" points="518.072,-292.281 507.526,-293.294 516.402,-299.079 518.072,-292.281"/>
<text text-anchor="middle" x="658.41" y="-318.8" font-family="Times,serif" font-size="14.00">Yes</text>
</g>
<!-- noScreeningNeeded -->
<g id="node7" class="node"><title>noScreeningNeeded</title>
<polygon fill="none" stroke="black" points="900.41,-36 764.41,-36 764.41,-0 900.41,-0 900.41,-36"/>
<text text-anchor="middle" x="832.41" y="-14.3" font-family="Times,serif" font-size="14.00" fill="blue">No Screening Needed</text>
</g>
<!-- atIncreasedRisk&#45;&gt;noScreeningNeeded -->
<g id="edge3" class="edge"><title>atIncreasedRisk&#45;&gt;noScreeningNeeded</title>
<path fill="none" stroke="black" d="M844.591,-351.854C877.162,-339.28 915.41,-316.701 915.41,-280 915.41,-280 915.41,-280 915.41,-104 915.41,-77.7147 894.841,-56.535 874.182,-41.8918"/>
<polygon fill="black" stroke="black" points="875.949,-38.8636 865.691,-36.2152 872.059,-44.6828 875.949,-38.8636"/>
<text text-anchor="middle" x="923.91" y="-188.3" font-family="Times,serif" font-size="14.00">No</text>
</g>
<!-- usBornNotVaccinated -->
<g id="node4" class="node"><title>usBornNotVaccinated</title>
<polygon fill="none" stroke="blue" points="453.41,-210 26.932,-192 453.41,-174 879.888,-192 453.41,-210"/>
<text text-anchor="middle" x="453.41" y="-188.3" font-family="Times,serif" font-size="14.00" fill="blue">US&#45;born, not vaccinated as infants, parents from ≥8% HBsAg prevalence region?</text>
</g>
<!-- countryOfOrigin&#45;&gt;usBornNotVaccinated -->
<g id="edge5" class="edge"><title>countryOfOrigin&#45;&gt;usBornNotVaccinated</title>
<path fill="none" stroke="black" d="M453.41,-260.799C453.41,-249.163 453.41,-233.548 453.41,-220.237"/>
<polygon fill="black" stroke="black" points="456.91,-220.175 453.41,-210.175 449.91,-220.175 456.91,-220.175"/>
<text text-anchor="middle" x="461.91" y="-231.8" font-family="Times,serif" font-size="14.00">No</text>
</g>
<!-- screenHBV -->
<g id="node6" class="node"><title>screenHBV</title>
<polygon fill="none" stroke="black" points="492.41,-36 232.41,-36 232.41,-0 492.41,-0 492.41,-36"/>
<text text-anchor="middle" x="362.41" y="-14.3" font-family="Times,serif" font-size="14.00" fill="blue">Screen for HBV Infection using HbsAg tests</text>
</g>
<!-- countryOfOrigin&#45;&gt;screenHBV -->
<g id="edge4" class="edge"><title>countryOfOrigin&#45;&gt;screenHBV</title>
<path fill="none" stroke="black" d="M277.677,-273.156C172.198,-266.121 52.1134,-249.381 18.4099,-210 -58.2649,-120.408 124.891,-64.7937 252.321,-38.0719"/>
<polygon fill="black" stroke="black" points="253.074,-41.4902 262.161,-36.0422 251.66,-34.6345 253.074,-41.4902"/>
<text text-anchor="middle" x="20.4099" y="-144.8" font-family="Times,serif" font-size="14.00">Yes</text>
</g>
<!-- belongsToRiskGroups -->
<g id="node5" class="node"><title>belongsToRiskGroups</title>
<polygon fill="none" stroke="blue" points="617.41,-123 402.244,-105 617.41,-87 832.576,-105 617.41,-123"/>
<text text-anchor="middle" x="617.41" y="-101.3" font-family="Times,serif" font-size="14.00" fill="blue">Belongs to other important risk groups?</text>
</g>
<!-- usBornNotVaccinated&#45;&gt;belongsToRiskGroups -->
<g id="edge7" class="edge"><title>usBornNotVaccinated&#45;&gt;belongsToRiskGroups</title>
<path fill="none" stroke="black" d="M483.873,-175.211C511.038,-161.132 550.894,-140.475 579.991,-125.394"/>
<polygon fill="black" stroke="black" points="581.762,-128.418 589.03,-120.709 578.541,-122.203 581.762,-128.418"/>
<text text-anchor="middle" x="553.91" y="-144.8" font-family="Times,serif" font-size="14.00">No</text>
</g>
<!-- usBornNotVaccinated&#45;&gt;screenHBV -->
<g id="edge6" class="edge"><title>usBornNotVaccinated&#45;&gt;screenHBV</title>
<path fill="none" stroke="black" d="M424.346,-175.13C405.822,-163.342 383.164,-145.446 371.41,-123 358.983,-99.2687 357.906,-68.2702 359.215,-46.3082"/>
<polygon fill="black" stroke="black" points="362.705,-46.5705 360.01,-36.3241 355.727,-46.0147 362.705,-46.5705"/>
<text text-anchor="middle" x="382.41" y="-101.3" font-family="Times,serif" font-size="14.00">Yes</text>
</g>
<!-- belongsToRiskGroups&#45;&gt;screenHBV -->
<g id="edge8" class="edge"><title>belongsToRiskGroups&#45;&gt;screenHBV</title>
<path fill="none" stroke="black" d="M576.44,-90.3433C535.082,-76.5574 470.726,-55.1052 423.376,-39.3221"/>
<polygon fill="black" stroke="black" points="424.439,-35.987 413.845,-36.1451 422.225,-42.6278 424.439,-35.987"/>
<text text-anchor="middle" x="516.41" y="-57.8" font-family="Times,serif" font-size="14.00">Yes</text>
</g>
<!-- belongsToRiskGroups&#45;&gt;noScreeningNeeded -->
<g id="edge9" class="edge"><title>belongsToRiskGroups&#45;&gt;noScreeningNeeded</title>
<path fill="none" stroke="black" d="M652.913,-89.964C687.328,-76.3581 739.962,-55.5491 779.35,-39.9772"/>
<polygon fill="black" stroke="black" points="781.046,-43.0702 789.059,-36.1387 778.473,-36.5605 781.046,-43.0702"/>
<text text-anchor="middle" x="746.91" y="-57.8" font-family="Times,serif" font-size="14.00">No</text>
</g>
</g>
</svg>
