<?xml version="1.0" encoding="UTF-8" standalone="no"?>
<!DOCTYPE svg PUBLIC "-//W3C//DTD SVG 1.1//EN"
 "http://www.w3.org/Graphics/SVG/1.1/DTD/svg11.dtd">
<!-- Generated by graphviz version 2.43.0 (0)
 -->
<!-- Title: %3 Pages: 1 -->
<svg width="749pt" height="653pt"
 viewBox="0.00 0.00 749.08 653.00" xmlns="http://www.w3.org/2000/svg" xmlns:xlink="http://www.w3.org/1999/xlink">
<g id="graph0" class="graph" transform="scale(1 1) rotate(0) translate(4 649)">
<title>%3</title>
<polygon fill="white" stroke="transparent" points="-4,4 -4,-649 745.08,-649 745.08,4 -4,4"/>
<!-- InitialPop -->
<g id="node1" class="node">
<title>InitialPop</title>
<path fill="none" stroke="green" d="M408.54,-645C408.54,-645 242.54,-645 242.54,-645 236.54,-645 230.54,-639 230.54,-633 230.54,-633 230.54,-621 230.54,-621 230.54,-615 236.54,-609 242.54,-609 242.54,-609 408.54,-609 408.54,-609 414.54,-609 420.54,-615 420.54,-621 420.54,-621 420.54,-633 420.54,-633 420.54,-639 414.54,-645 408.54,-645"/>
<text text-anchor="middle" x="325.54" y="-623.3" font-family="Times,serif" font-size="14.00" fill="green">Adults aged 18&#45;50 years</text>
</g>
<!-- FamilyHistory -->
<g id="node4" class="node">
<title>FamilyHistory</title>
<g id="a_node4"><a xlink:title="A documented family history of cardiovascular disease">
<ellipse fill="none" stroke="blue" cx="325.54" cy="-540" rx="79.09" ry="18"/>
<text text-anchor="middle" x="325.54" y="-536.3" font-family="Times,serif" font-size="14.00" fill="blue">Family History</text>
</a>
</g>
</g>
<!-- InitialPop&#45;&gt;FamilyHistory -->
<g id="edge1" class="edge">
<title>InitialPop&#45;&gt;FamilyHistory</title>
<path fill="none" stroke="blue" d="M325.54,-608.8C325.54,-597.16 325.54,-581.55 325.54,-568.24"/>
<polygon fill="blue" stroke="blue" points="329.04,-568.18 325.54,-558.18 322.04,-568.18 329.04,-568.18"/>
<text text-anchor="middle" x="330.54" y="-579.8" font-family="Times,serif" font-size="14.00" fill="blue">if</text>
</g>
<!-- SubsetPop -->
<g id="node2" class="node">
<title>SubsetPop</title>
<path fill="none" stroke="green" d="M407.54,-210C407.54,-210 243.54,-210 243.54,-210 237.54,-210 231.54,-204 231.54,-198 231.54,-198 231.54,-186 231.54,-186 231.54,-180 237.54,-174 243.54,-174 243.54,-174 407.54,-174 407.54,-174 413.54,-174 419.54,-180 419.54,-186 419.54,-186 419.54,-198 419.54,-198 419.54,-204 413.54,-210 407.54,-210"/>
<text text-anchor="middle" x="325.54" y="-188.3" font-family="Times,serif" font-size="14.00" fill="green">Subset in Consideration</text>
</g>
<!-- Hyperlipidemia -->
<g id="node8" class="node">
<title>Hyperlipidemia</title>
<g id="a_node8"><a xlink:title="Current diagnosis of hyperlipidemia or hypertension already under treatment">
<ellipse fill="none" stroke="blue" cx="82.54" cy="-105" rx="82.59" ry="18"/>
<text text-anchor="middle" x="82.54" y="-101.3" font-family="Times,serif" font-size="14.00" fill="blue">Hyperlipidemia</text>
</a>
</g>
</g>
<!-- SubsetPop&#45;&gt;Hyperlipidemia -->
<g id="edge6" class="edge">
<title>SubsetPop&#45;&gt;Hyperlipidemia</title>
<path fill="none" stroke="blue" d="M276.66,-173.9C235.26,-159.42 176.09,-138.72 133.98,-123.99"/>
<polygon fill="blue" stroke="blue" points="135.06,-120.66 124.46,-120.66 132.75,-127.27 135.06,-120.66"/>
<text text-anchor="middle" x="224.54" y="-144.8" font-family="Times,serif" font-size="14.00" fill="blue">if</text>
</g>
<!-- Contraindications -->
<g id="node9" class="node">
<title>Contraindications</title>
<g id="a_node9"><a xlink:title="Contraindications to statin therapy or antihypertensive medications">
<ellipse fill="none" stroke="blue" cx="275.54" cy="-105" rx="92.88" ry="18"/>
<text text-anchor="middle" x="275.54" y="-101.3" font-family="Times,serif" font-size="14.00" fill="blue">Contraindications</text>
</a>
</g>
</g>
<!-- SubsetPop&#45;&gt;Contraindications -->
<g id="edge8" class="edge">
<title>SubsetPop&#45;&gt;Contraindications</title>
<path fill="none" stroke="blue" d="M315.42,-173.8C308.38,-161.82 298.85,-145.62 290.87,-132.06"/>
<polygon fill="blue" stroke="blue" points="293.73,-130.02 285.65,-123.18 287.7,-133.57 293.73,-130.02"/>
<text text-anchor="middle" x="308.54" y="-144.8" font-family="Times,serif" font-size="14.00" fill="blue">if</text>
</g>
<!-- Pregnancy -->
<g id="node10" class="node">
<title>Pregnancy</title>
<g id="a_node10"><a xlink:title="Pregnant or breastfeeding individuals">
<ellipse fill="none" stroke="blue" cx="446.54" cy="-105" rx="59.59" ry="18"/>
<text text-anchor="middle" x="446.54" y="-101.3" font-family="Times,serif" font-size="14.00" fill="blue">Pregnancy</text>
</a>
</g>
</g>
<!-- SubsetPop&#45;&gt;Pregnancy -->
<g id="edge10" class="edge">
<title>SubsetPop&#45;&gt;Pregnancy</title>
<path fill="none" stroke="blue" d="M350.03,-173.8C369,-160.47 395.4,-141.92 415.8,-127.6"/>
<polygon fill="blue" stroke="blue" points="417.96,-130.35 424.13,-121.74 413.94,-124.63 417.96,-130.35"/>
<text text-anchor="middle" x="398.54" y="-144.8" font-family="Times,serif" font-size="14.00" fill="blue">if</text>
</g>
<!-- ComorbidConditions -->
<g id="node11" class="node">
<title>ComorbidConditions</title>
<g id="a_node11"><a xlink:title="Severe comorbid conditions that may interfere with protocol adherence or outcomes">
<ellipse fill="none" stroke="blue" cx="632.54" cy="-105" rx="108.58" ry="18"/>
<text text-anchor="middle" x="632.54" y="-101.3" font-family="Times,serif" font-size="14.00" fill="blue">Comorbid Conditions</text>
</a>
</g>
</g>
<!-- SubsetPop&#45;&gt;ComorbidConditions -->
<g id="edge12" class="edge">
<title>SubsetPop&#45;&gt;ComorbidConditions</title>
<path fill="none" stroke="blue" d="M387.3,-173.9C440.21,-159.25 516.1,-138.24 569.4,-123.48"/>
<polygon fill="blue" stroke="blue" points="570.38,-126.84 579.08,-120.8 568.51,-120.1 570.38,-126.84"/>
<text text-anchor="middle" x="502.54" y="-144.8" font-family="Times,serif" font-size="14.00" fill="blue">if</text>
</g>
<!-- ExclusionPop -->
<g id="node3" class="node">
<title>ExclusionPop</title>
<path fill="none" stroke="green" d="M421.54,-36C421.54,-36 299.54,-36 299.54,-36 293.54,-36 287.54,-30 287.54,-24 287.54,-24 287.54,-12 287.54,-12 287.54,-6 293.54,0 299.54,0 299.54,0 421.54,0 421.54,0 427.54,0 433.54,-6 433.54,-12 433.54,-12 433.54,-24 433.54,-24 433.54,-30 427.54,-36 421.54,-36"/>
<text text-anchor="middle" x="360.54" y="-14.3" font-family="Times,serif" font-size="14.00" fill="green">Exclusion Criteria</text>
</g>
<!-- Diet -->
<g id="node5" class="node">
<title>Diet</title>
<g id="a_node5"><a xlink:title="Diet high in saturated fats and sodium">
<ellipse fill="none" stroke="blue" cx="325.54" cy="-453" rx="30.59" ry="18"/>
<text text-anchor="middle" x="325.54" y="-449.3" font-family="Times,serif" font-size="14.00" fill="blue">Diet</text>
</a>
</g>
</g>
<!-- FamilyHistory&#45;&gt;Diet -->
<g id="edge2" class="edge">
<title>FamilyHistory&#45;&gt;Diet</title>
<path fill="none" stroke="blue" d="M325.54,-521.8C325.54,-510.16 325.54,-494.55 325.54,-481.24"/>
<polygon fill="blue" stroke="blue" points="329.04,-481.18 325.54,-471.18 322.04,-481.18 329.04,-481.18"/>
<text text-anchor="middle" x="339.04" y="-492.8" font-family="Times,serif" font-size="14.00" fill="blue">and</text>
</g>
<!-- Alcohol -->
<g id="node6" class="node">
<title>Alcohol</title>
<g id="a_node6"><a xlink:title="Regular alcohol consumption exceeding moderate levels">
<ellipse fill="none" stroke="blue" cx="325.54" cy="-366" rx="44.39" ry="18"/>
<text text-anchor="middle" x="325.54" y="-362.3" font-family="Times,serif" font-size="14.00" fill="blue">Alcohol</text>
</a>
</g>
</g>
<!-- Diet&#45;&gt;Alcohol -->
<g id="edge3" class="edge">
<title>Diet&#45;&gt;Alcohol</title>
<path fill="none" stroke="blue" d="M325.54,-434.8C325.54,-423.16 325.54,-407.55 325.54,-394.24"/>
<polygon fill="blue" stroke="blue" points="329.04,-394.18 325.54,-384.18 322.04,-394.18 329.04,-394.18"/>
<text text-anchor="middle" x="339.04" y="-405.8" font-family="Times,serif" font-size="14.00" fill="blue">and</text>
</g>
<!-- Sedentary -->
<g id="node7" class="node">
<title>Sedentary</title>
<g id="a_node7"><a xlink:title="Sedentary lifestyle with minimal physical activity">
<ellipse fill="none" stroke="blue" cx="325.54" cy="-279" rx="101.28" ry="18"/>
<text text-anchor="middle" x="325.54" y="-275.3" font-family="Times,serif" font-size="14.00" fill="blue">Sedentary Lifestyle</text>
</a>
</g>
</g>
<!-- Alcohol&#45;&gt;Sedentary -->
<g id="edge4" class="edge">
<title>Alcohol&#45;&gt;Sedentary</title>
<path fill="none" stroke="blue" d="M325.54,-347.8C325.54,-336.16 325.54,-320.55 325.54,-307.24"/>
<polygon fill="blue" stroke="blue" points="329.04,-307.18 325.54,-297.18 322.04,-307.18 329.04,-307.18"/>
<text text-anchor="middle" x="339.04" y="-318.8" font-family="Times,serif" font-size="14.00" fill="blue">and</text>
</g>
<!-- Sedentary&#45;&gt;SubsetPop -->
<g id="edge5" class="edge">
<title>Sedentary&#45;&gt;SubsetPop</title>
<path fill="none" stroke="blue" d="M325.54,-260.8C325.54,-249.16 325.54,-233.55 325.54,-220.24"/>
<polygon fill="blue" stroke="blue" points="329.04,-220.18 325.54,-210.18 322.04,-220.18 329.04,-220.18"/>
<text text-anchor="middle" x="342.04" y="-231.8" font-family="Times,serif" font-size="14.00" fill="blue">then</text>
</g>
<!-- Hyperlipidemia&#45;&gt;ExclusionPop -->
<g id="edge7" class="edge">
<title>Hyperlipidemia&#45;&gt;ExclusionPop</title>
<path fill="none" stroke="blue" d="M128.45,-89.96C173.8,-76.1 243.61,-54.75 294.83,-39.09"/>
<polygon fill="blue" stroke="blue" points="295.95,-42.41 304.49,-36.14 293.9,-35.72 295.95,-42.41"/>
<text text-anchor="middle" x="255.04" y="-57.8" font-family="Times,serif" font-size="14.00" fill="blue">then</text>
</g>
<!-- Contraindications&#45;&gt;ExclusionPop -->
<g id="edge9" class="edge">
<title>Contraindications&#45;&gt;ExclusionPop</title>
<path fill="none" stroke="blue" d="M292.34,-87.21C304.83,-74.72 322.07,-57.48 336.09,-43.46"/>
<polygon fill="blue" stroke="blue" points="338.9,-45.6 343.49,-36.05 333.95,-40.65 338.9,-45.6"/>
<text text-anchor="middle" x="340.04" y="-57.8" font-family="Times,serif" font-size="14.00" fill="blue">then</text>
</g>
<!-- Pregnancy&#45;&gt;ExclusionPop -->
<g id="edge11" class="edge">
<title>Pregnancy&#45;&gt;ExclusionPop</title>
<path fill="none" stroke="blue" d="M429.96,-87.61C417.24,-75.04 399.49,-57.49 385.12,-43.29"/>
<polygon fill="blue" stroke="blue" points="387.53,-40.75 377.96,-36.21 382.61,-45.73 387.53,-40.75"/>
<text text-anchor="middle" x="426.04" y="-57.8" font-family="Times,serif" font-size="14.00" fill="blue">then</text>
</g>
<!-- ComorbidConditions&#45;&gt;ExclusionPop -->
<g id="edge13" class="edge">
<title>ComorbidConditions&#45;&gt;ExclusionPop</title>
<path fill="none" stroke="blue" d="M583.91,-88.8C539.6,-74.95 473.82,-54.4 425.11,-39.18"/>
<polygon fill="blue" stroke="blue" points="425.88,-35.75 415.29,-36.11 423.8,-42.43 425.88,-35.75"/>
<text text-anchor="middle" x="530.04" y="-57.8" font-family="Times,serif" font-size="14.00" fill="blue">then</text>
</g>
</g>
</svg>
