<?xml version="1.0" encoding="UTF-8" standalone="no"?>
<!DOCTYPE svg PUBLIC "-//W3C//DTD SVG 1.1//EN"
 "http://www.w3.org/Graphics/SVG/1.1/DTD/svg11.dtd">
<!-- Generated by graphviz version 2.38.0 (20140413.2041)
 -->
<!-- Title: G Pages: 1 -->
<svg width="625pt" height="366pt"
 viewBox="0.00 0.00 624.50 366.00" xmlns="http://www.w3.org/2000/svg" xmlns:xlink="http://www.w3.org/1999/xlink">
<g id="graph0" class="graph" transform="scale(1 1) rotate(0) translate(4 362)">
<title>G</title>
<polygon fill="white" stroke="none" points="-4,4 -4,-362 620.5,-362 620.5,4 -4,4"/>
<!-- start -->
<g id="node1" class="node"><title>start</title>
<text text-anchor="middle" x="441" y="-336.3" font-family="Times,serif" font-size="14.00" fill="blue">Nonpregnant adults aged 35 to 70 with overweight or obesity</text>
</g>
<!-- check_symptoms -->
<g id="node2" class="node"><title>check_symptoms</title>
<polygon fill="none" stroke="blue" points="441,-285 273.926,-267 441,-249 608.074,-267 441,-285"/>
<text text-anchor="middle" x="441" y="-263.3" font-family="Times,serif" font-size="14.00" fill="blue">Shows symptoms of diabetes?</text>
</g>
<!-- start&#45;&gt;check_symptoms -->
<g id="edge1" class="edge"><title>start&#45;&gt;check_symptoms</title>
<path fill="none" stroke="black" d="M441,-321.813C441,-313.789 441,-304.047 441,-295.069"/>
<polygon fill="black" stroke="black" points="444.5,-295.029 441,-285.029 437.5,-295.029 444.5,-295.029"/>
</g>
<!-- has_overweight_or_obesity -->
<g id="node3" class="node"><title>has_overweight_or_obesity</title>
<polygon fill="none" stroke="blue" points="300,-198 147.34,-180 300,-162 452.66,-180 300,-198"/>
<text text-anchor="middle" x="300" y="-176.3" font-family="Times,serif" font-size="14.00" fill="blue">Has overweight or obesity?</text>
</g>
<!-- check_symptoms&#45;&gt;has_overweight_or_obesity -->
<g id="edge2" class="edge"><title>check_symptoms&#45;&gt;has_overweight_or_obesity</title>
<path fill="none" stroke="black" d="M416.761,-251.388C393.518,-237.376 358.264,-216.124 332.575,-200.637"/>
<polygon fill="black" stroke="black" points="334.294,-197.587 323.922,-195.421 330.68,-203.582 334.294,-197.587"/>
<text text-anchor="middle" x="387.5" y="-219.8" font-family="Times,serif" font-size="14.00">No</text>
</g>
<!-- no_action -->
<g id="node6" class="node"><title>no_action</title>
<polygon fill="none" stroke="black" points="577.5,-110 400.5,-110 400.5,-74 577.5,-74 577.5,-110"/>
<text text-anchor="middle" x="489" y="-88.3" font-family="Times,serif" font-size="14.00">No Screening Recommended</text>
</g>
<!-- check_symptoms&#45;&gt;no_action -->
<g id="edge3" class="edge"><title>check_symptoms&#45;&gt;no_action</title>
<path fill="none" stroke="black" d="M446.402,-249.299C450.782,-235.574 457.024,-215.596 462,-198 469.449,-171.66 477.148,-141.361 482.409,-120.102"/>
<polygon fill="black" stroke="black" points="485.864,-120.71 484.854,-110.163 479.067,-119.038 485.864,-120.71"/>
<text text-anchor="middle" x="483" y="-176.3" font-family="Times,serif" font-size="14.00">Yes</text>
</g>
<!-- perform_screening -->
<g id="node4" class="node"><title>perform_screening</title>
<polygon fill="none" stroke="black" points="382,-111 0,-111 0,-73 382,-73 382,-111"/>
<text text-anchor="middle" x="191" y="-95.8" font-family="Times,serif" font-size="14.00">Perform Screening</text>
<text text-anchor="middle" x="191" y="-80.8" font-family="Times,serif" font-size="14.00">(Fasting plasma glucose, HbA1c level, Oral glucose tolerance test)</text>
</g>
<!-- has_overweight_or_obesity&#45;&gt;perform_screening -->
<g id="edge4" class="edge"><title>has_overweight_or_obesity&#45;&gt;perform_screening</title>
<path fill="none" stroke="black" d="M281.014,-164.02C264.755,-151.192 241.028,-132.472 222.016,-117.471"/>
<polygon fill="black" stroke="black" points="223.943,-114.534 213.925,-111.087 219.607,-120.029 223.943,-114.534"/>
<text text-anchor="middle" x="267" y="-132.8" font-family="Times,serif" font-size="14.00">Yes</text>
</g>
<!-- has_overweight_or_obesity&#45;&gt;no_action -->
<g id="edge5" class="edge"><title>has_overweight_or_obesity&#45;&gt;no_action</title>
<path fill="none" stroke="black" d="M329.948,-165.373C360.141,-151.634 407.176,-130.232 442.277,-114.26"/>
<polygon fill="black" stroke="black" points="443.728,-117.445 451.381,-110.118 440.829,-111.074 443.728,-117.445"/>
<text text-anchor="middle" x="414.5" y="-132.8" font-family="Times,serif" font-size="14.00">No</text>
</g>
<!-- offer_interventions -->
<g id="node5" class="node"><title>offer_interventions</title>
<polygon fill="none" stroke="black" points="310.5,-36 71.5,-36 71.5,-0 310.5,-0 310.5,-36"/>
<text text-anchor="middle" x="191" y="-14.3" font-family="Times,serif" font-size="14.00">Offer or refer to preventive interventions</text>
</g>
<!-- perform_screening&#45;&gt;offer_interventions -->
<g id="edge6" class="edge"><title>perform_screening&#45;&gt;offer_interventions</title>
<path fill="none" stroke="black" d="M191,-72.8314C191,-64.894 191,-55.4095 191,-46.6285"/>
<polygon fill="black" stroke="black" points="194.5,-46.4177 191,-36.4177 187.5,-46.4177 194.5,-46.4177"/>
</g>
</g>
</svg>
