<?xml version="1.0" encoding="UTF-8" standalone="no"?><!DOCTYPE svg PUBLIC "-//W3C//DTD SVG 1.1//EN" "http://www.w3.org/Graphics/SVG/1.1/DTD/svg11.dtd"><!-- Generated by graphviz version 2.40.1 (20161225.0304)
 --><!-- Title: HypertensionPregnancy Pages: 1 --><svg xmlns="http://www.w3.org/2000/svg" xmlns:xlink="http://www.w3.org/1999/xlink" width="1149pt" height="735pt" viewBox="0.00 0.00 1149.49 734.80">
<g id="graph0" class="graph" transform="scale(1 1) rotate(0) translate(4 730.8)">
<title>HypertensionPregnancy</title>
<polygon fill="#ffffff" stroke="transparent" points="-4,4 -4,-730.8 1145.4905,-730.8 1145.4905,4 -4,4"/>
<!-- start -->
<g id="node1" class="node">
<title>start</title>
<ellipse fill="#d3d3d3" stroke="#d3d3d3" cx="798.4627" cy="-708.8" rx="150.4694" ry="18"/>
<text text-anchor="middle" x="798.4627" y="-704.6" font-family="Times,serif" font-size="14.00" fill="#000000">Could the patient become pregnant?</text>
</g>
<!-- nifedipine -->
<g id="node2" class="node">
<title>nifedipine</title>
<polygon fill="#add8e6" stroke="#add8e6" points="805.7442,-638.1003 425.1812,-638.1003 425.1812,-562.6997 805.7442,-562.6997 805.7442,-638.1003"/>
<text text-anchor="middle" x="615.4627" y="-621.4" font-family="Times,serif" font-size="14.00" fill="#000000">Initiate nifedipine ER</text>
<text text-anchor="middle" x="615.4627" y="-604.6" font-family="Times,serif" font-size="14.00" fill="#000000">Usual starting dose is 30 or 60 mg once daily;</text>
<text text-anchor="middle" x="615.4627" y="-587.8" font-family="Times,serif" font-size="14.00" fill="#000000">titrate dose every 2 to 4 weeks as needed, up to 90 mg once daily</text>
<text text-anchor="middle" x="615.4627" y="-571" font-family="Times,serif" font-size="14.00" fill="#000000">Amlodipine is a reasonable alternative</text>
</g>
<!-- start&#45;&gt;nifedipine -->
<g id="edge1" class="edge">
<title>start-&gt;nifedipine</title>
<path fill="none" stroke="#000000" d="M768.6533,-691.1424C746.7167,-678.1483 715.9253,-659.909 687.6966,-643.1877"/>
<polygon fill="#000000" stroke="#000000" points="689.4184,-640.1397 679.0308,-638.0546 685.8509,-646.1624 689.4184,-640.1397"/>
<text text-anchor="middle" x="745.3456" y="-660.2" font-family="Times,serif" font-size="14.00" fill="#000000">Yes</text>
</g>
<!-- standardTherapy -->
<g id="node3" class="node">
<title>standardTherapy</title>
<polygon fill="#add8e6" stroke="#add8e6" points="1141.5183,-618.4 823.4071,-618.4 823.4071,-582.4 1141.5183,-582.4 1141.5183,-618.4"/>
<text text-anchor="middle" x="982.4627" y="-596.2" font-family="Times,serif" font-size="14.00" fill="#000000">Treat with standard first-line antihypertensive therapy</text>
</g>
<!-- start&#45;&gt;standardTherapy -->
<g id="edge2" class="edge">
<title>start-&gt;standardTherapy</title>
<path fill="none" stroke="#000000" d="M828.435,-691.1424C859.6572,-672.7485 908.7199,-643.8441 943.0599,-623.6134"/>
<polygon fill="#000000" stroke="#000000" points="945.0507,-626.5028 951.8901,-618.4113 941.4975,-620.4717 945.0507,-626.5028"/>
<text text-anchor="middle" x="894.016" y="-660.2" font-family="Times,serif" font-size="14.00" fill="#000000">No</text>
</g>
<!-- bpControlled1 -->
<g id="node4" class="node">
<title>bpControlled1</title>
<polygon fill="#add8e6" stroke="#add8e6" points="698.8058,-525.8 532.1196,-525.8 532.1196,-489.8 698.8058,-489.8 698.8058,-525.8"/>
<text text-anchor="middle" x="615.4627" y="-503.6" font-family="Times,serif" font-size="14.00" fill="#000000">Blood pressure controlled?</text>
</g>
<!-- nifedipine&#45;&gt;bpControlled1 -->
<g id="edge3" class="edge">
<title>nifedipine-&gt;bpControlled1</title>
<path fill="none" stroke="#000000" d="M615.4627,-562.736C615.4627,-553.7935 615.4627,-544.4054 615.4627,-535.9705"/>
<polygon fill="#000000" stroke="#000000" points="618.9628,-535.9015 615.4627,-525.9016 611.9628,-535.9016 618.9628,-535.9015"/>
</g>
<!-- thiazide -->
<g id="node5" class="node">
<title>thiazide</title>
<polygon fill="#add8e6" stroke="#add8e6" points="740.8704,-436.8019 182.055,-436.8019 182.055,-395.5981 740.8704,-395.5981 740.8704,-436.8019"/>
<text text-anchor="middle" x="461.4627" y="-420.4" font-family="Times,serif" font-size="14.00" fill="#000000">Add a thiazide-like diuretic (e.g., chlorthalidone)</text>
<text text-anchor="middle" x="461.4627" y="-403.6" font-family="Times,serif" font-size="14.00" fill="#000000">Usual starting dose is 12.5 mg daily with titration to 25 mg once daily, if needed, in 2 to 4 weeks</text>
</g>
<!-- bpControlled1&#45;&gt;thiazide -->
<g id="edge5" class="edge">
<title>bpControlled1-&gt;thiazide</title>
<path fill="none" stroke="#000000" d="M585.0373,-489.7028C562.141,-476.084 530.4442,-457.2305 504.8853,-442.028"/>
<polygon fill="#000000" stroke="#000000" points="506.5091,-438.9215 496.1253,-436.8175 502.9306,-444.9377 506.5091,-438.9215"/>
<text text-anchor="middle" x="561.016" y="-459.2" font-family="Times,serif" font-size="14.00" fill="#000000">No</text>
</g>
<!-- routineMonitoring -->
<g id="node9" class="node">
<title>routineMonitoring</title>
<polygon fill="#add8e6" stroke="#add8e6" points="793.5181,-36 667.4073,-36 667.4073,0 793.5181,0 793.5181,-36"/>
<text text-anchor="middle" x="730.4627" y="-13.8" font-family="Times,serif" font-size="14.00" fill="#000000">Routine monitoring</text>
</g>
<!-- bpControlled1&#45;&gt;routineMonitoring -->
<g id="edge4" class="edge">
<title>bpControlled1-&gt;routineMonitoring</title>
<path fill="none" stroke="#000000" d="M697.7848,-489.6638C733.9988,-476.3587 768.4627,-453.8153 768.4627,-416.2 768.4627,-416.2 768.4627,-416.2 768.4627,-106.8 768.4627,-84.7279 758.417,-61.8778 748.6558,-44.8847"/>
<polygon fill="#000000" stroke="#000000" points="751.5024,-42.8286 743.3278,-36.0887 745.5152,-46.4553 751.5024,-42.8286"/>
<text text-anchor="middle" x="779.3456" y="-291.8" font-family="Times,serif" font-size="14.00" fill="#000000">Yes</text>
</g>
<!-- bpControlled2 -->
<g id="node6" class="node">
<title>bpControlled2</title>
<polygon fill="#add8e6" stroke="#add8e6" points="544.8058,-358.4 378.1196,-358.4 378.1196,-322.4 544.8058,-322.4 544.8058,-358.4"/>
<text text-anchor="middle" x="461.4627" y="-336.2" font-family="Times,serif" font-size="14.00" fill="#000000">Blood pressure controlled?</text>
</g>
<!-- thiazide&#45;&gt;bpControlled2 -->
<g id="edge6" class="edge">
<title>thiazide-&gt;bpControlled2</title>
<path fill="none" stroke="#000000" d="M461.4627,-395.4873C461.4627,-387.1698 461.4627,-377.4512 461.4627,-368.5124"/>
<polygon fill="#000000" stroke="#000000" points="464.9628,-368.5078 461.4627,-358.5078 457.9628,-368.5079 464.9628,-368.5078"/>
</g>
<!-- labetalol -->
<g id="node7" class="node">
<title>labetalol</title>
<polygon fill="#add8e6" stroke="#add8e6" points="702.8881,-269.6 .0373,-269.6 .0373,-177.6 702.8881,-177.6 702.8881,-269.6"/>
<text text-anchor="middle" x="351.4627" y="-253" font-family="Times,serif" font-size="14.00" fill="#000000">Add labetalol</text>
<text text-anchor="middle" x="351.4627" y="-236.2" font-family="Times,serif" font-size="14.00" fill="#000000">Usual starting dose is 100 mg orally twice daily; titrate dose every 2 to 4 weeks as needed</text>
<text text-anchor="middle" x="351.4627" y="-219.4" font-family="Times,serif" font-size="14.00" fill="#000000">Typical maximum dose 400 mg orally twice daily</text>
<text text-anchor="middle" x="351.4627" y="-202.6" font-family="Times,serif" font-size="14.00" fill="#000000">Carvedilol and metoprolol are reasonable alternatives</text>
<text text-anchor="middle" x="351.4627" y="-185.8" font-family="Times,serif" font-size="14.00" fill="#000000">Consider referral to a hypertension specialist for evaluation of barriers to hypertension control and secondary hypertension</text>
</g>
<!-- bpControlled2&#45;&gt;labetalol -->
<g id="edge8" class="edge">
<title>bpControlled2-&gt;labetalol</title>
<path fill="none" stroke="#000000" d="M444.2752,-322.15C432.7997,-309.9651 417.0676,-293.2605 401.8156,-277.0656"/>
<polygon fill="#000000" stroke="#000000" points="404.2626,-274.5588 394.8587,-269.6786 399.1667,-279.358 404.2626,-274.5588"/>
<text text-anchor="middle" x="435.016" y="-291.8" font-family="Times,serif" font-size="14.00" fill="#000000">No</text>
</g>
<!-- bpControlled2&#45;&gt;routineMonitoring -->
<g id="edge7" class="edge">
<title>bpControlled2-&gt;routineMonitoring</title>
<path fill="none" stroke="#000000" d="M544.8323,-327.2724C608.9967,-315.3383 690.1981,-295.6236 711.4627,-269.6 725.3209,-252.6403 729.1223,-108.6267 730.1223,-46.4237"/>
<polygon fill="#000000" stroke="#000000" points="733.6259,-46.1999 730.2737,-36.1494 726.6266,-46.0967 733.6259,-46.1999"/>
<text text-anchor="middle" x="738.3456" y="-147" font-family="Times,serif" font-size="14.00" fill="#000000">Yes</text>
</g>
<!-- bpControlled3 -->
<g id="node8" class="node">
<title>bpControlled3</title>
<polygon fill="#add8e6" stroke="#add8e6" points="442.8058,-124.8 276.1196,-124.8 276.1196,-88.8 442.8058,-88.8 442.8058,-124.8"/>
<text text-anchor="middle" x="359.4627" y="-102.6" font-family="Times,serif" font-size="14.00" fill="#000000">Blood pressure controlled?</text>
</g>
<!-- labetalol&#45;&gt;bpControlled3 -->
<g id="edge9" class="edge">
<title>labetalol-&gt;bpControlled3</title>
<path fill="none" stroke="#000000" d="M354.6245,-177.4375C355.6072,-163.0905 356.6605,-147.7117 357.5327,-134.9786"/>
<polygon fill="#000000" stroke="#000000" points="361.0255,-135.2017 358.2171,-124.9859 354.0418,-134.7233 361.0255,-135.2017"/>
</g>
<!-- bpControlled3&#45;&gt;routineMonitoring -->
<g id="edge10" class="edge">
<title>bpControlled3-&gt;routineMonitoring</title>
<path fill="none" stroke="#000000" d="M435.4787,-88.7805C495.4969,-74.5288 581.3517,-54.0876 656.4627,-36 656.6796,-35.9478 656.8969,-35.8954 657.1145,-35.843"/>
<polygon fill="#000000" stroke="#000000" points="658.1905,-39.1839 667.0901,-33.4352 656.548,-32.3793 658.1905,-39.1839"/>
<text text-anchor="middle" x="586.3456" y="-58.2" font-family="Times,serif" font-size="14.00" fill="#000000">Yes</text>
</g>
<!-- specialistReferral -->
<g id="node10" class="node">
<title>specialistReferral</title>
<polygon fill="#add8e6" stroke="#add8e6" points="647.2695,-36 71.6559,-36 71.6559,0 647.2695,0 647.2695,-36"/>
<text text-anchor="middle" x="359.4627" y="-13.8" font-family="Times,serif" font-size="14.00" fill="#000000">Refer to a hypertension specialist for evaluation and management of apparent resistant hypertension</text>
</g>
<!-- bpControlled3&#45;&gt;specialistReferral -->
<g id="edge11" class="edge">
<title>bpControlled3-&gt;specialistReferral</title>
<path fill="none" stroke="#000000" d="M359.4627,-88.4006C359.4627,-76.2949 359.4627,-60.2076 359.4627,-46.4674"/>
<polygon fill="#000000" stroke="#000000" points="362.9628,-46.072 359.4627,-36.072 355.9628,-46.0721 362.9628,-46.072"/>
<text text-anchor="middle" x="368.016" y="-58.2" font-family="Times,serif" font-size="14.00" fill="#000000">No</text>
</g>
</g>
</svg>