<?xml version="1.0" encoding="UTF-8" standalone="no"?>
<!DOCTYPE svg PUBLIC "-//W3C//DTD SVG 1.1//EN"
 "http://www.w3.org/Graphics/SVG/1.1/DTD/svg11.dtd">
<!-- Generated by graphviz version 2.43.0 (0)
 -->
<!-- Title: %3 Pages: 1 -->
<svg width="1050pt" height="653pt"
 viewBox="0.00 0.00 1050.43 653.00" xmlns="http://www.w3.org/2000/svg" xmlns:xlink="http://www.w3.org/1999/xlink">
<g id="graph0" class="graph" transform="scale(1 1) rotate(0) translate(4 649)">
<title>%3</title>
<polygon fill="white" stroke="transparent" points="-4,4 -4,-649 1046.43,-649 1046.43,4 -4,4"/>
<!-- InitialPopulation -->
<g id="node1" class="node">
<title>InitialPopulation</title>
<g id="a_node1"><a xlink:title="All patients within the healthcare system who have undergone cognitive assessments and have recorded responses in their medical notes.">
<path fill="none" stroke="green" d="M473.74,-645C473.74,-645 358.74,-645 358.74,-645 352.74,-645 346.74,-639 346.74,-633 346.74,-633 346.74,-621 346.74,-621 346.74,-615 352.74,-609 358.74,-609 358.74,-609 473.74,-609 473.74,-609 479.74,-609 485.74,-615 485.74,-621 485.74,-621 485.74,-633 485.74,-633 485.74,-639 479.74,-645 473.74,-645"/>
<text text-anchor="middle" x="416.24" y="-623.3" font-family="Times,serif" font-size="14.00" fill="green">Initial Population</text>
</a>
</g>
</g>
<!-- SubsetConsideration -->
<g id="node2" class="node">
<title>SubsetConsideration</title>
<g id="a_node2"><a xlink:title="Patients identified with modifiable risk factors for cognitive decline based on structured assessments and questionnaire responses.">
<path fill="none" stroke="green" d="M406.24,-558C406.24,-558 242.24,-558 242.24,-558 236.24,-558 230.24,-552 230.24,-546 230.24,-546 230.24,-534 230.24,-534 230.24,-528 236.24,-522 242.24,-522 242.24,-522 406.24,-522 406.24,-522 412.24,-522 418.24,-528 418.24,-534 418.24,-534 418.24,-546 418.24,-546 418.24,-552 412.24,-558 406.24,-558"/>
<text text-anchor="middle" x="324.24" y="-536.3" font-family="Times,serif" font-size="14.00" fill="green">Subset in Consideration</text>
</a>
</g>
</g>
<!-- InitialPopulation&#45;&gt;SubsetConsideration -->
<g id="edge1" class="edge">
<title>InitialPopulation&#45;&gt;SubsetConsideration</title>
<path fill="none" stroke="blue" d="M397.62,-608.8C384.03,-596.24 365.42,-579.05 350.35,-565.12"/>
<polygon fill="blue" stroke="blue" points="352.55,-562.39 342.83,-558.18 347.8,-567.53 352.55,-562.39"/>
<text text-anchor="middle" x="381.24" y="-579.8" font-family="Times,serif" font-size="14.00" fill="blue">if</text>
</g>
<!-- ExclusionCriteria -->
<g id="node3" class="node">
<title>ExclusionCriteria</title>
<g id="a_node3"><a xlink:title="Patients who do not have any recorded responses in the &#39;Structured Assessment&#39; or &#39;Questionnaire&#39; sections of their medical notes, have non&#45;modifiable risk factors, or are enrolled in conflicting care plans or studies.">
<path fill="none" stroke="green" d="M635.24,-558C635.24,-558 513.24,-558 513.24,-558 507.24,-558 501.24,-552 501.24,-546 501.24,-546 501.24,-534 501.24,-534 501.24,-528 507.24,-522 513.24,-522 513.24,-522 635.24,-522 635.24,-522 641.24,-522 647.24,-528 647.24,-534 647.24,-534 647.24,-546 647.24,-546 647.24,-552 641.24,-558 635.24,-558"/>
<text text-anchor="middle" x="574.24" y="-536.3" font-family="Times,serif" font-size="14.00" fill="green">Exclusion Criteria</text>
</a>
</g>
</g>
<!-- InitialPopulation&#45;&gt;ExclusionCriteria -->
<g id="edge8" class="edge">
<title>InitialPopulation&#45;&gt;ExclusionCriteria</title>
<path fill="none" stroke="blue" d="M448.21,-608.8C472.81,-595.56 506.98,-577.18 533.54,-562.9"/>
<polygon fill="blue" stroke="blue" points="535.43,-565.85 542.58,-558.03 532.12,-559.69 535.43,-565.85"/>
<text text-anchor="middle" x="510.24" y="-579.8" font-family="Times,serif" font-size="14.00" fill="blue">if</text>
</g>
<!-- ModifiableRiskFactors -->
<g id="node4" class="node">
<title>ModifiableRiskFactors</title>
<g id="a_node4"><a xlink:title="Patients identified with modifiable risk factors for cognitive decline based on structured assessments and questionnaire responses.">
<ellipse fill="none" stroke="blue" cx="120.24" cy="-453" rx="120.48" ry="18"/>
<text text-anchor="middle" x="120.24" y="-449.3" font-family="Times,serif" font-size="14.00" fill="blue">Modifiable Risk Factors</text>
</a>
</g>
</g>
<!-- SubsetConsideration&#45;&gt;ModifiableRiskFactors -->
<g id="edge2" class="edge">
<title>SubsetConsideration&#45;&gt;ModifiableRiskFactors</title>
<path fill="none" stroke="blue" d="M282.96,-521.8C249.86,-508.01 203.35,-488.63 168.53,-474.12"/>
<polygon fill="blue" stroke="blue" points="169.62,-470.78 159.04,-470.17 166.93,-477.24 169.62,-470.78"/>
<text text-anchor="middle" x="240.24" y="-492.8" font-family="Times,serif" font-size="14.00" fill="blue">if</text>
</g>
<!-- NoRecordedResponses -->
<g id="node5" class="node">
<title>NoRecordedResponses</title>
<g id="a_node5"><a xlink:title="Patients who do not have any recorded responses in the &#39;Structured Assessment&#39; or &#39;Questionnaire&#39; sections of their medical notes.">
<ellipse fill="none" stroke="blue" cx="381.24" cy="-453" rx="122.68" ry="18"/>
<text text-anchor="middle" x="381.24" y="-449.3" font-family="Times,serif" font-size="14.00" fill="blue">No Recorded Responses</text>
</a>
</g>
</g>
<!-- ExclusionCriteria&#45;&gt;NoRecordedResponses -->
<g id="edge9" class="edge">
<title>ExclusionCriteria&#45;&gt;NoRecordedResponses</title>
<path fill="none" stroke="blue" d="M535.18,-521.8C504.11,-508.11 460.53,-488.92 427.67,-474.45"/>
<polygon fill="blue" stroke="blue" points="428.84,-471.14 418.27,-470.31 426.01,-477.54 428.84,-471.14"/>
<text text-anchor="middle" x="495.24" y="-492.8" font-family="Times,serif" font-size="14.00" fill="blue">if</text>
</g>
<!-- NonModifiableRiskFactors -->
<g id="node6" class="node">
<title>NonModifiableRiskFactors</title>
<g id="a_node6"><a xlink:title="Patients with non&#45;modifiable risk factors for cognitive decline, such as genetic predispositions or irreversible neurological conditions.">
<ellipse fill="none" stroke="blue" cx="664.24" cy="-453" rx="141.88" ry="18"/>
<text text-anchor="middle" x="664.24" y="-449.3" font-family="Times,serif" font-size="14.00" fill="blue">Non&#45;Modifiable Risk Factors</text>
</a>
</g>
</g>
<!-- ExclusionCriteria&#45;&gt;NonModifiableRiskFactors -->
<g id="edge10" class="edge">
<title>ExclusionCriteria&#45;&gt;NonModifiableRiskFactors</title>
<path fill="none" stroke="blue" d="M592.45,-521.8C605.84,-509.16 624.19,-491.82 638.99,-477.85"/>
<polygon fill="blue" stroke="blue" points="641.49,-480.3 646.36,-470.89 636.69,-475.21 641.49,-480.3"/>
<text text-anchor="middle" x="630.24" y="-492.8" font-family="Times,serif" font-size="14.00" fill="blue">if</text>
</g>
<!-- ConflictingCarePlan -->
<g id="node7" class="node">
<title>ConflictingCarePlan</title>
<g id="a_node7"><a xlink:title="Patients who are currently enrolled in a different cognitive care plan or research study that conflicts with the protocol.">
<ellipse fill="none" stroke="blue" cx="933.24" cy="-453" rx="109.38" ry="18"/>
<text text-anchor="middle" x="933.24" y="-449.3" font-family="Times,serif" font-size="14.00" fill="blue">Conflicting Care Plan</text>
</a>
</g>
</g>
<!-- ExclusionCriteria&#45;&gt;ConflictingCarePlan -->
<g id="edge11" class="edge">
<title>ExclusionCriteria&#45;&gt;ConflictingCarePlan</title>
<path fill="none" stroke="blue" d="M646.46,-521.9C709.82,-506.9 801.35,-485.23 863.85,-470.43"/>
<polygon fill="blue" stroke="blue" points="864.7,-473.83 873.62,-468.12 863.09,-467.01 864.7,-473.83"/>
<text text-anchor="middle" x="780.24" y="-492.8" font-family="Times,serif" font-size="14.00" fill="blue">if</text>
</g>
<!-- AdminAction -->
<g id="node8" class="node">
<title>AdminAction</title>
<g id="a_node8"><a xlink:title="Implement a user interface feature: a button at the patient level in the top menu of the electronic health record (EHR) system.">
<ellipse fill="none" stroke="blue" cx="120.24" cy="-366" rx="111.58" ry="18"/>
<text text-anchor="middle" x="120.24" y="-362.3" font-family="Times,serif" font-size="14.00" fill="blue">Administrative Action</text>
</a>
</g>
</g>
<!-- ModifiableRiskFactors&#45;&gt;AdminAction -->
<g id="edge3" class="edge">
<title>ModifiableRiskFactors&#45;&gt;AdminAction</title>
<path fill="none" stroke="blue" d="M120.24,-434.8C120.24,-423.16 120.24,-407.55 120.24,-394.24"/>
<polygon fill="blue" stroke="blue" points="123.74,-394.18 120.24,-384.18 116.74,-394.18 123.74,-394.18"/>
<text text-anchor="middle" x="136.74" y="-405.8" font-family="Times,serif" font-size="14.00" fill="blue">then</text>
</g>
<!-- DataProcessing -->
<g id="node9" class="node">
<title>DataProcessing</title>
<g id="a_node9"><a xlink:title="Process the &#39;Structured Assessment&#39; and &#39;Questionnaire&#39; responses recorded in the patient&#39;s notes.">
<ellipse fill="none" stroke="blue" cx="120.24" cy="-279" rx="86.38" ry="18"/>
<text text-anchor="middle" x="120.24" y="-275.3" font-family="Times,serif" font-size="14.00" fill="blue">Data Processing</text>
</a>
</g>
</g>
<!-- AdminAction&#45;&gt;DataProcessing -->
<g id="edge4" class="edge">
<title>AdminAction&#45;&gt;DataProcessing</title>
<path fill="none" stroke="blue" d="M120.24,-347.8C120.24,-336.16 120.24,-320.55 120.24,-307.24"/>
<polygon fill="blue" stroke="blue" points="123.74,-307.18 120.24,-297.18 116.74,-307.18 123.74,-307.18"/>
<text text-anchor="middle" x="133.74" y="-318.8" font-family="Times,serif" font-size="14.00" fill="blue">and</text>
</g>
<!-- DocumentGeneration -->
<g id="node10" class="node">
<title>DocumentGeneration</title>
<g id="a_node10"><a xlink:title="Generate a new external document in rich text format (RTF) that is presented in an editable format in a new window or tab.">
<ellipse fill="none" stroke="blue" cx="120.24" cy="-192" rx="112.38" ry="18"/>
<text text-anchor="middle" x="120.24" y="-188.3" font-family="Times,serif" font-size="14.00" fill="blue">Document Generation</text>
</a>
</g>
</g>
<!-- DataProcessing&#45;&gt;DocumentGeneration -->
<g id="edge5" class="edge">
<title>DataProcessing&#45;&gt;DocumentGeneration</title>
<path fill="none" stroke="blue" d="M120.24,-260.8C120.24,-249.16 120.24,-233.55 120.24,-220.24"/>
<polygon fill="blue" stroke="blue" points="123.74,-220.18 120.24,-210.18 116.74,-220.18 123.74,-220.18"/>
<text text-anchor="middle" x="133.74" y="-231.8" font-family="Times,serif" font-size="14.00" fill="blue">and</text>
</g>
<!-- CarePlanDevelopment -->
<g id="node11" class="node">
<title>CarePlanDevelopment</title>
<g id="a_node11"><a xlink:title="Develop a care plan with sections for structured assessment responses, API call to &#39;Claude&#45;3.5&#45;sonnet&#39;, and placeholders for activities, lifestyle modifications, and next appointment date.">
<ellipse fill="none" stroke="blue" cx="120.24" cy="-105" rx="120.48" ry="18"/>
<text text-anchor="middle" x="120.24" y="-101.3" font-family="Times,serif" font-size="14.00" fill="blue">Care Plan Development</text>
</a>
</g>
</g>
<!-- DocumentGeneration&#45;&gt;CarePlanDevelopment -->
<g id="edge6" class="edge">
<title>DocumentGeneration&#45;&gt;CarePlanDevelopment</title>
<path fill="none" stroke="blue" d="M120.24,-173.8C120.24,-162.16 120.24,-146.55 120.24,-133.24"/>
<polygon fill="blue" stroke="blue" points="123.74,-133.18 120.24,-123.18 116.74,-133.18 123.74,-133.18"/>
<text text-anchor="middle" x="133.74" y="-144.8" font-family="Times,serif" font-size="14.00" fill="blue">and</text>
</g>
<!-- ReviewApproval -->
<g id="node12" class="node">
<title>ReviewApproval</title>
<g id="a_node12"><a xlink:title="Ensure the generated care plan is reviewed by a healthcare professional for accuracy and relevance.">
<ellipse fill="none" stroke="blue" cx="120.24" cy="-18" rx="108.58" ry="18"/>
<text text-anchor="middle" x="120.24" y="-14.3" font-family="Times,serif" font-size="14.00" fill="blue">Review and Approval</text>
</a>
</g>
</g>
<!-- CarePlanDevelopment&#45;&gt;ReviewApproval -->
<g id="edge7" class="edge">
<title>CarePlanDevelopment&#45;&gt;ReviewApproval</title>
<path fill="none" stroke="blue" d="M120.24,-86.8C120.24,-75.16 120.24,-59.55 120.24,-46.24"/>
<polygon fill="blue" stroke="blue" points="123.74,-46.18 120.24,-36.18 116.74,-46.18 123.74,-46.18"/>
<text text-anchor="middle" x="133.74" y="-57.8" font-family="Times,serif" font-size="14.00" fill="blue">and</text>
</g>
</g>
</svg>
