<?xml version="1.0" encoding="UTF-8" standalone="no"?><!DOCTYPE svg PUBLIC "-//W3C//DTD SVG 1.1//EN" "http://www.w3.org/Graphics/SVG/1.1/DTD/svg11.dtd"><!-- Generated by graphviz version 2.40.1 (20161225.0304)
 --><!-- Title: G Pages: 1 --><svg xmlns="http://www.w3.org/2000/svg" xmlns:xlink="http://www.w3.org/1999/xlink" width="1004pt" height="383pt" viewBox="0.00 0.00 1003.85 383.40">
<g id="graph0" class="graph" transform="scale(1 1) rotate(0) translate(4 379.4)">
<title>G</title>
<polygon fill="#ffffff" stroke="transparent" points="-4,4 -4,-379.4 999.8519,-379.4 999.8519,4 -4,4"/>
<!-- AllPregnantWomen -->
<g id="node1" class="node">
<title>AllPregnantWomen</title>
<polygon fill="none" stroke="#0000ff" points="652.8312,-375.4 521.0037,-357.4 652.8312,-339.4 784.6587,-357.4 652.8312,-375.4"/>
<text text-anchor="middle" x="652.8312" y="-353.2" font-family="Times,serif" font-size="14.00" fill="#0000ff">All Pregnant Women</text>
</g>
<!-- RhDNegativeUnsensitized -->
<g id="node2" class="node">
<title>RhDNegativeUnsensitized</title>
<polygon fill="none" stroke="#0000ff" points="470.8312,-302.4 285.5942,-284.4 470.8312,-266.4 656.0682,-284.4 470.8312,-302.4"/>
<text text-anchor="middle" x="470.8312" y="-280.2" font-family="Times,serif" font-size="14.00" fill="#0000ff">Rh (D)-Negative, Unsensitized</text>
</g>
<!-- AllPregnantWomen&#45;&gt;RhDNegativeUnsensitized -->
<g id="edge2" class="edge">
<title>AllPregnantWomen-&gt;RhDNegativeUnsensitized</title>
<path fill="none" stroke="#000000" d="M619.0249,-343.8403C590.238,-332.2939 548.6098,-315.5969 516.7983,-302.8373"/>
<polygon fill="#000000" stroke="#000000" points="517.8502,-299.4883 507.266,-299.0139 515.2443,-305.9851 517.8502,-299.4883"/>
</g>
<!-- BloodTypingAntibodyTestingFirstVisit -->
<g id="node5" class="node">
<title>BloodTypingAntibodyTestingFirstVisit</title>
<polygon fill="none" stroke="#000000" points="995.8726,-302.4 673.7898,-302.4 673.7898,-266.4 995.8726,-266.4 995.8726,-302.4"/>
<text text-anchor="middle" x="834.8312" y="-280.2" font-family="Times,serif" font-size="14.00" fill="#000000">Rh (D) Blood typing &amp; Antibody Testing at First Visit</text>
</g>
<!-- AllPregnantWomen&#45;&gt;BloodTypingAntibodyTestingFirstVisit -->
<g id="edge1" class="edge">
<title>AllPregnantWomen-&gt;BloodTypingAntibodyTestingFirstVisit</title>
<path fill="none" stroke="#000000" d="M686.6375,-343.8403C712.8885,-333.3111 749.8182,-318.4986 780.2443,-306.2948"/>
<polygon fill="#000000" stroke="#000000" points="781.8943,-309.4041 789.8725,-302.4329 779.2883,-302.9072 781.8943,-309.4041"/>
</g>
<!-- BiologicalFatherRhDPositive -->
<g id="node3" class="node">
<title>BiologicalFatherRhDPositive</title>
<polygon fill="none" stroke="#0000ff" points="290.8312,-213.6 83.5477,-195.6 290.8312,-177.6 498.1147,-195.6 290.8312,-213.6"/>
<text text-anchor="middle" x="290.8312" y="-191.4" font-family="Times,serif" font-size="14.00" fill="#0000ff">Biological Father Rh (D)-Positive?</text>
</g>
<!-- RhDNegativeUnsensitized&#45;&gt;BiologicalFatherRhDPositive -->
<g id="edge3" class="edge">
<title>RhDNegativeUnsensitized-&gt;BiologicalFatherRhDPositive</title>
<path fill="none" stroke="#000000" d="M440.2967,-269.3363C410.3533,-254.5642 364.5143,-231.9503 331.4961,-215.6613"/>
<polygon fill="#000000" stroke="#000000" points="332.6371,-212.3215 322.1205,-211.0361 329.5401,-218.5992 332.6371,-212.3215"/>
<text text-anchor="middle" x="439.4364" y="-235.8" font-family="Times,serif" font-size="14.00" fill="#000000">No / Unknown</text>
</g>
<!-- RepeatedAntibodyTesting2428Weeks -->
<g id="node6" class="node">
<title>RepeatedAntibodyTesting2428Weeks</title>
<polygon fill="none" stroke="#000000" points="783.4913,-213.6 516.1712,-213.6 516.1712,-177.6 783.4913,-177.6 783.4913,-213.6"/>
<text text-anchor="middle" x="649.8312" y="-191.4" font-family="Times,serif" font-size="14.00" fill="#000000">Repeated Antibody Testing at 24–28 Weeks</text>
</g>
<!-- RhDNegativeUnsensitized&#45;&gt;RepeatedAntibodyTesting2428Weeks -->
<g id="edge4" class="edge">
<title>RhDNegativeUnsensitized-&gt;RepeatedAntibodyTesting2428Weeks</title>
<path fill="none" stroke="#000000" d="M501.1961,-269.3363C529.4298,-255.3298 571.8747,-234.2734 604.1881,-218.2431"/>
<polygon fill="#000000" stroke="#000000" points="606.0349,-221.234 613.4377,-213.6544 602.924,-214.9632 606.0349,-221.234"/>
<text text-anchor="middle" x="587.7141" y="-235.8" font-family="Times,serif" font-size="14.00" fill="#000000">Yes</text>
</g>
<!-- GestationPeriod -->
<g id="node4" class="node">
<title>GestationPeriod</title>
<polygon fill="none" stroke="#0000ff" points="181.8312,-124.8 .1686,-106.8 181.8312,-88.8 363.4938,-106.8 181.8312,-124.8"/>
<text text-anchor="middle" x="181.8312" y="-102.6" font-family="Times,serif" font-size="14.00" fill="#0000ff">Gestation Period &lt; 13 Weeks?</text>
</g>
<!-- BiologicalFatherRhDPositive&#45;&gt;GestationPeriod -->
<g id="edge6" class="edge">
<title>BiologicalFatherRhDPositive-&gt;GestationPeriod</title>
<path fill="none" stroke="#000000" d="M270.8389,-179.3127C253.6302,-165.2931 228.6238,-144.9209 209.495,-129.3371"/>
<polygon fill="#000000" stroke="#000000" points="211.6603,-126.5867 201.6967,-122.984 207.239,-132.0137 211.6603,-126.5867"/>
<text text-anchor="middle" x="257.7141" y="-147" font-family="Times,serif" font-size="14.00" fill="#000000">Yes</text>
</g>
<!-- FullDoseRhDImmunoglobulin -->
<g id="node7" class="node">
<title>FullDoseRhDImmunoglobulin</title>
<polygon fill="none" stroke="#000000" points="505.5389,-36 294.1235,-36 294.1235,0 505.5389,0 505.5389,-36"/>
<text text-anchor="middle" x="399.8312" y="-13.8" font-family="Times,serif" font-size="14.00" fill="#000000">Full Dose Rh (D) Immunoglobulin</text>
</g>
<!-- BiologicalFatherRhDPositive&#45;&gt;FullDoseRhDImmunoglobulin -->
<g id="edge5" class="edge">
<title>BiologicalFatherRhDPositive-&gt;FullDoseRhDImmunoglobulin</title>
<path fill="none" stroke="#000000" d="M316.3985,-179.7713C334.7718,-167.0954 358.7022,-147.6858 372.8312,-124.8 387.6624,-100.7768 394.3669,-68.9463 397.3856,-46.3007"/>
<polygon fill="#000000" stroke="#000000" points="400.8697,-46.6401 398.56,-36.3001 393.9175,-45.8235 400.8697,-46.6401"/>
<text text-anchor="middle" x="397.3845" y="-102.6" font-family="Times,serif" font-size="14.00" fill="#000000">No</text>
</g>
<!-- GestationPeriod&#45;&gt;FullDoseRhDImmunoglobulin -->
<g id="edge7" class="edge">
<title>GestationPeriod-&gt;FullDoseRhDImmunoglobulin</title>
<path fill="none" stroke="#000000" d="M217.8295,-92.1365C252.7604,-77.9077 306.2033,-56.1383 346.154,-39.8648"/>
<polygon fill="#000000" stroke="#000000" points="347.545,-43.0775 355.4858,-36.0636 344.9042,-36.5947 347.545,-43.0775"/>
<text text-anchor="middle" x="319.3845" y="-58.2" font-family="Times,serif" font-size="14.00" fill="#000000">No</text>
</g>
<!-- HalfDoseRhDImmunoglobulin -->
<g id="node8" class="node">
<title>HalfDoseRhDImmunoglobulin</title>
<polygon fill="none" stroke="#000000" points="276.6358,-36 55.0266,-36 55.0266,0 276.6358,0 276.6358,-36"/>
<text text-anchor="middle" x="165.8312" y="-13.8" font-family="Times,serif" font-size="14.00" fill="#000000">50 µg Dose Rh (D) Immunoglobulin</text>
</g>
<!-- GestationPeriod&#45;&gt;HalfDoseRhDImmunoglobulin -->
<g id="edge8" class="edge">
<title>GestationPeriod-&gt;HalfDoseRhDImmunoglobulin</title>
<path fill="none" stroke="#000000" d="M178.5934,-88.83C176.3959,-76.6338 173.4446,-60.2543 170.9337,-46.3187"/>
<polygon fill="#000000" stroke="#000000" points="174.337,-45.4689 169.1191,-36.2481 167.4479,-46.7103 174.337,-45.4689"/>
<text text-anchor="middle" x="186.7141" y="-58.2" font-family="Times,serif" font-size="14.00" fill="#000000">Yes</text>
</g>
</g>
</svg>