<?xml version="1.0" encoding="UTF-8" standalone="no"?><!DOCTYPE svg PUBLIC "-//W3C//DTD SVG 1.1//EN" "http://www.w3.org/Graphics/SVG/1.1/DTD/svg11.dtd"><!-- Generated by graphviz version 2.40.1 (20161225.0304)
 --><!-- Title: G Pages: 1 --><svg xmlns="http://www.w3.org/2000/svg" xmlns:xlink="http://www.w3.org/1999/xlink" width="457pt" height="352pt" viewBox="0.00 0.00 456.68 351.80">
<g id="graph0" class="graph" transform="scale(1 1) rotate(0) translate(4 347.8)">
<title>G</title>
<polygon fill="#ffffff" stroke="transparent" points="-4,4 -4,-347.8 452.6842,-347.8 452.6842,4 -4,4"/>
<!-- All Adults ≥19 years old -->
<g id="node1" class="node">
<title>All Adults ≥19 years old</title>
<polygon fill="none" stroke="#0000ff" points="235.5316,-343.8 78.6129,-325.8 235.5316,-307.8 392.4503,-325.8 235.5316,-343.8"/>
<text text-anchor="middle" x="235.5316" y="-321.6" font-family="Times,serif" font-size="14.00" fill="#0000ff">All Adults ≥19 years old</text>
</g>
<!-- Is age 64 years or younger? -->
<g id="node2" class="node">
<title>Is age 64 years or younger?</title>
<polygon fill="none" stroke="#0000ff" points="235.5316,-270.8 69.2391,-252.8 235.5316,-234.8 401.8241,-252.8 235.5316,-270.8"/>
<text text-anchor="middle" x="235.5316" y="-248.6" font-family="Times,serif" font-size="14.00" fill="#0000ff">Is age 64 years or younger?</text>
</g>
<!-- All Adults ≥19 years old&#45;&gt;Is age 64 years or younger? -->
<g id="edge1" class="edge">
<title>All Adults ≥19 years old-&gt;Is age 64 years or younger?</title>
<path fill="none" stroke="#000000" d="M235.5316,-307.7551C235.5316,-299.6828 235.5316,-289.9764 235.5316,-280.9817"/>
<polygon fill="#000000" stroke="#000000" points="239.0317,-280.8903 235.5316,-270.8904 232.0317,-280.8904 239.0317,-280.8903"/>
</g>
<!-- Screen for Anxiety Disorders -->
<g id="node3" class="node">
<title>Screen for Anxiety Disorders</title>
<polygon fill="none" stroke="#0000ff" points="218.9649,-182 38.0983,-182 38.0983,-146 218.9649,-146 218.9649,-182"/>
<text text-anchor="middle" x="128.5316" y="-159.8" font-family="Times,serif" font-size="14.00" fill="#0000ff">Screen for Anxiety Disorders</text>
</g>
<!-- Is age 64 years or younger?&#45;&gt;Screen for Anxiety Disorders -->
<g id="edge2" class="edge">
<title>Is age 64 years or younger?-&gt;Screen for Anxiety Disorders</title>
<path fill="none" stroke="#000000" d="M215.9062,-236.5127C199.7918,-223.1393 176.7123,-203.9855 158.3199,-188.7215"/>
<polygon fill="#000000" stroke="#000000" points="160.1714,-185.7098 150.241,-182.0168 155.701,-191.0964 160.1714,-185.7098"/>
<text text-anchor="middle" x="203.4145" y="-204.2" font-family="Times,serif" font-size="14.00" fill="#000000">Yes</text>
</g>
<!-- Evidence insufficient for screening -->
<g id="node4" class="node">
<title>Evidence insufficient for screening</title>
<polygon fill="none" stroke="#0000ff" points="448.837,-182 236.2262,-182 236.2262,-146 448.837,-146 448.837,-182"/>
<text text-anchor="middle" x="342.5316" y="-159.8" font-family="Times,serif" font-size="14.00" fill="#0000ff">Evidence insufficient for screening</text>
</g>
<!-- Is age 64 years or younger?&#45;&gt;Evidence insufficient for screening -->
<g id="edge3" class="edge">
<title>Is age 64 years or younger?-&gt;Evidence insufficient for screening</title>
<path fill="none" stroke="#000000" d="M255.157,-236.5127C271.2714,-223.1393 294.3509,-203.9855 312.7433,-188.7215"/>
<polygon fill="#000000" stroke="#000000" points="315.3622,-191.0964 320.8222,-182.0168 310.8918,-185.7098 315.3622,-191.0964"/>
<text text-anchor="middle" x="307.0849" y="-204.2" font-family="Times,serif" font-size="14.00" fill="#000000">No</text>
</g>
<!-- *Screening tool: GAD, EPDS, GAS, GAI* -->
<g id="node5" class="node">
<title>*Screening tool: GAD, EPDS, GAS, GAI*</title>
<polygon fill="none" stroke="#0000ff" points="257.0948,-109 -.0316,-109 -.0316,-73 257.0948,-73 257.0948,-109"/>
<text text-anchor="middle" x="128.5316" y="-86.8" font-family="Times,serif" font-size="14.00" fill="#0000ff">*Screening tool: GAD, EPDS, GAS, GAI*</text>
</g>
<!-- Screen for Anxiety Disorders&#45;&gt;*Screening tool: GAD, EPDS, GAS, GAI* -->
<g id="edge4" class="edge">
<title>Screen for Anxiety Disorders-&gt;*Screening tool: GAD, EPDS, GAS, GAI*</title>
<path fill="none" stroke="#000000" d="M128.5316,-145.9551C128.5316,-137.8828 128.5316,-128.1764 128.5316,-119.1817"/>
<polygon fill="#000000" stroke="#000000" points="132.0317,-119.0903 128.5316,-109.0904 125.0317,-119.0904 132.0317,-119.0903"/>
</g>
<!-- *Frequency: Use clinical judgment* -->
<g id="node6" class="node">
<title>*Frequency: Use clinical judgment*</title>
<polygon fill="none" stroke="#0000ff" points="238.3679,-36 18.6953,-36 18.6953,0 238.3679,0 238.3679,-36"/>
<text text-anchor="middle" x="128.5316" y="-13.8" font-family="Times,serif" font-size="14.00" fill="#0000ff">*Frequency: Use clinical judgment*</text>
</g>
<!-- *Screening tool: GAD, EPDS, GAS, GAI*&#45;&gt;*Frequency: Use clinical judgment* -->
<g id="edge5" class="edge">
<title>*Screening tool: GAD, EPDS, GAS, GAI*-&gt;*Frequency: Use clinical judgment*</title>
<path fill="none" stroke="#000000" d="M128.5316,-72.9551C128.5316,-64.8828 128.5316,-55.1764 128.5316,-46.1817"/>
<polygon fill="#000000" stroke="#000000" points="132.0317,-46.0903 128.5316,-36.0904 125.0317,-46.0904 132.0317,-46.0903"/>
</g>
</g>
</svg>