<?xml version="1.0" encoding="UTF-8" standalone="no"?>
<!DOCTYPE svg PUBLIC "-//W3C//DTD SVG 1.1//EN"
 "http://www.w3.org/Graphics/SVG/1.1/DTD/svg11.dtd">
<!-- Generated by graphviz version 2.43.0 (0)
 -->
<!-- Title: ClinicalProtocol Pages: 1 -->
<svg width="261pt" height="1349pt"
 viewBox="0.00 0.00 261.48 1349.00" xmlns="http://www.w3.org/2000/svg" xmlns:xlink="http://www.w3.org/1999/xlink">
<g id="graph0" class="graph" transform="scale(1 1) rotate(0) translate(4 1345)">
<title>ClinicalProtocol</title>
<polygon fill="white" stroke="transparent" points="-4,4 -4,-1345 257.48,-1345 257.48,4 -4,4"/>
<!-- InitialPop -->
<g id="node1" class="node">
<title>InitialPop</title>
<g id="a_node1"><a xlink:title="The initial population includes all patients who are currently prescribed medications known to increase serotonin levels.">
<path fill="none" stroke="green" d="M184.24,-1341C184.24,-1341 69.24,-1341 69.24,-1341 63.24,-1341 57.24,-1335 57.24,-1329 57.24,-1329 57.24,-1317 57.24,-1317 57.24,-1311 63.24,-1305 69.24,-1305 69.24,-1305 184.24,-1305 184.24,-1305 190.24,-1305 196.24,-1311 196.24,-1317 196.24,-1317 196.24,-1329 196.24,-1329 196.24,-1335 190.24,-1341 184.24,-1341"/>
<text text-anchor="middle" x="126.74" y="-1319.3" font-family="Times,serif" font-size="14.00" fill="green">Initial Population</text>
</a>
</g>
</g>
<!-- MedsIncreaseSerotonin -->
<g id="node6" class="node">
<title>MedsIncreaseSerotonin</title>
<g id="a_node6"><a xlink:title="Patients prescribed medications known to increase serotonin levels.">
<ellipse fill="none" stroke="blue" cx="126.74" cy="-1236" rx="126.98" ry="18"/>
<text text-anchor="middle" x="126.74" y="-1232.3" font-family="Times,serif" font-size="14.00" fill="blue">Meds Increase Serotonin</text>
</a>
</g>
</g>
<!-- InitialPop&#45;&gt;MedsIncreaseSerotonin -->
<g id="edge1" class="edge">
<title>InitialPop&#45;&gt;MedsIncreaseSerotonin</title>
<path fill="none" stroke="blue" d="M126.74,-1304.8C126.74,-1293.16 126.74,-1277.55 126.74,-1264.24"/>
<polygon fill="blue" stroke="blue" points="130.24,-1264.18 126.74,-1254.18 123.24,-1264.18 130.24,-1264.18"/>
<text text-anchor="middle" x="131.74" y="-1275.8" font-family="Times,serif" font-size="14.00" fill="blue">if</text>
</g>
<!-- ScreeningSubset -->
<g id="node2" class="node">
<title>ScreeningSubset</title>
<g id="a_node2"><a xlink:title="Subset includes patients on additional medications that may interact to increase the risk of serotonin syndrome.">
<path fill="none" stroke="green" d="M241.24,-1167C241.24,-1167 12.24,-1167 12.24,-1167 6.24,-1167 0.24,-1161 0.24,-1155 0.24,-1155 0.24,-1143 0.24,-1143 0.24,-1137 6.24,-1131 12.24,-1131 12.24,-1131 241.24,-1131 241.24,-1131 247.24,-1131 253.24,-1137 253.24,-1143 253.24,-1143 253.24,-1155 253.24,-1155 253.24,-1161 247.24,-1167 241.24,-1167"/>
<text text-anchor="middle" x="126.74" y="-1145.3" font-family="Times,serif" font-size="14.00" fill="green">Subset Considered for Screening</text>
</a>
</g>
</g>
<!-- AdditionalMeds -->
<g id="node7" class="node">
<title>AdditionalMeds</title>
<g id="a_node7"><a xlink:title="Patients on additional medications that may interact to increase the risk of serotonin syndrome.">
<ellipse fill="none" stroke="blue" cx="126.74" cy="-1062" rx="86.38" ry="18"/>
<text text-anchor="middle" x="126.74" y="-1058.3" font-family="Times,serif" font-size="14.00" fill="blue">Additional Meds</text>
</a>
</g>
</g>
<!-- ScreeningSubset&#45;&gt;AdditionalMeds -->
<g id="edge3" class="edge">
<title>ScreeningSubset&#45;&gt;AdditionalMeds</title>
<path fill="none" stroke="blue" d="M126.74,-1130.8C126.74,-1119.16 126.74,-1103.55 126.74,-1090.24"/>
<polygon fill="blue" stroke="blue" points="130.24,-1090.18 126.74,-1080.18 123.24,-1090.18 130.24,-1090.18"/>
<text text-anchor="middle" x="131.74" y="-1101.8" font-family="Times,serif" font-size="14.00" fill="blue">if</text>
</g>
<!-- ExclusionCriteria -->
<g id="node3" class="node">
<title>ExclusionCriteria</title>
<g id="a_node3"><a xlink:title="Patients excluded if they have a history of serotonin syndrome, discontinued medications, or are under palliative care.">
<path fill="none" stroke="green" d="M187.74,-993C187.74,-993 65.74,-993 65.74,-993 59.74,-993 53.74,-987 53.74,-981 53.74,-981 53.74,-969 53.74,-969 53.74,-963 59.74,-957 65.74,-957 65.74,-957 187.74,-957 187.74,-957 193.74,-957 199.74,-963 199.74,-969 199.74,-969 199.74,-981 199.74,-981 199.74,-987 193.74,-993 187.74,-993"/>
<text text-anchor="middle" x="126.74" y="-971.3" font-family="Times,serif" font-size="14.00" fill="green">Exclusion Criteria</text>
</a>
</g>
</g>
<!-- NoHistorySS -->
<g id="node8" class="node">
<title>NoHistorySS</title>
<g id="a_node8"><a xlink:title="Patients with no documented history of serotonin syndrome.">
<ellipse fill="none" stroke="blue" cx="126.74" cy="-888" rx="88.28" ry="18"/>
<text text-anchor="middle" x="126.74" y="-884.3" font-family="Times,serif" font-size="14.00" fill="blue">No History of SS</text>
</a>
</g>
</g>
<!-- ExclusionCriteria&#45;&gt;NoHistorySS -->
<g id="edge5" class="edge">
<title>ExclusionCriteria&#45;&gt;NoHistorySS</title>
<path fill="none" stroke="blue" d="M126.74,-956.8C126.74,-945.16 126.74,-929.55 126.74,-916.24"/>
<polygon fill="blue" stroke="blue" points="130.24,-916.18 126.74,-906.18 123.24,-916.18 130.24,-916.18"/>
<text text-anchor="middle" x="131.74" y="-927.8" font-family="Times,serif" font-size="14.00" fill="blue">if</text>
</g>
<!-- DiagnosticInterventions -->
<g id="node4" class="node">
<title>DiagnosticInterventions</title>
<g id="a_node4"><a xlink:title="Diagnostic interventions include medication review, clinical assessment, and laboratory tests.">
<path fill="none" stroke="green" d="M211.24,-645C211.24,-645 42.24,-645 42.24,-645 36.24,-645 30.24,-639 30.24,-633 30.24,-633 30.24,-621 30.24,-621 30.24,-615 36.24,-609 42.24,-609 42.24,-609 211.24,-609 211.24,-609 217.24,-609 223.24,-615 223.24,-621 223.24,-621 223.24,-633 223.24,-633 223.24,-639 217.24,-645 211.24,-645"/>
<text text-anchor="middle" x="126.74" y="-623.3" font-family="Times,serif" font-size="14.00" fill="green">Diagnostic Interventions</text>
</a>
</g>
</g>
<!-- MedReview -->
<g id="node11" class="node">
<title>MedReview</title>
<g id="a_node11"><a xlink:title="Comprehensive medication review to identify potential drug interactions.">
<ellipse fill="none" stroke="blue" cx="126.74" cy="-540" rx="98.58" ry="18"/>
<text text-anchor="middle" x="126.74" y="-536.3" font-family="Times,serif" font-size="14.00" fill="blue">Medication Review</text>
</a>
</g>
</g>
<!-- DiagnosticInterventions&#45;&gt;MedReview -->
<g id="edge9" class="edge">
<title>DiagnosticInterventions&#45;&gt;MedReview</title>
<path fill="none" stroke="blue" d="M126.74,-608.8C126.74,-597.16 126.74,-581.55 126.74,-568.24"/>
<polygon fill="blue" stroke="blue" points="130.24,-568.18 126.74,-558.18 123.24,-568.18 130.24,-568.18"/>
<text text-anchor="middle" x="131.74" y="-579.8" font-family="Times,serif" font-size="14.00" fill="blue">if</text>
</g>
<!-- SuccessfulScreen -->
<g id="node5" class="node">
<title>SuccessfulScreen</title>
<g id="a_node5"><a xlink:title="A screen is successful if drug interactions are addressed, patients are educated, and follow&#45;up is scheduled.">
<path fill="none" stroke="green" d="M187.74,-297C187.74,-297 65.74,-297 65.74,-297 59.74,-297 53.74,-291 53.74,-285 53.74,-285 53.74,-273 53.74,-273 53.74,-267 59.74,-261 65.74,-261 65.74,-261 187.74,-261 187.74,-261 193.74,-261 199.74,-267 199.74,-273 199.74,-273 199.74,-285 199.74,-285 199.74,-291 193.74,-297 187.74,-297"/>
<text text-anchor="middle" x="126.74" y="-275.3" font-family="Times,serif" font-size="14.00" fill="green">Successful Screen</text>
</a>
</g>
</g>
<!-- AddressInteractions -->
<g id="node14" class="node">
<title>AddressInteractions</title>
<g id="a_node14"><a xlink:title="Potential drug interactions are identified and addressed.">
<ellipse fill="none" stroke="blue" cx="126.74" cy="-192" rx="107.48" ry="18"/>
<text text-anchor="middle" x="126.74" y="-188.3" font-family="Times,serif" font-size="14.00" fill="blue">Address Interactions</text>
</a>
</g>
</g>
<!-- SuccessfulScreen&#45;&gt;AddressInteractions -->
<g id="edge13" class="edge">
<title>SuccessfulScreen&#45;&gt;AddressInteractions</title>
<path fill="none" stroke="blue" d="M126.74,-260.8C126.74,-249.16 126.74,-233.55 126.74,-220.24"/>
<polygon fill="blue" stroke="blue" points="130.24,-220.18 126.74,-210.18 123.24,-220.18 130.24,-220.18"/>
<text text-anchor="middle" x="131.74" y="-231.8" font-family="Times,serif" font-size="14.00" fill="blue">if</text>
</g>
<!-- MedsIncreaseSerotonin&#45;&gt;ScreeningSubset -->
<g id="edge2" class="edge">
<title>MedsIncreaseSerotonin&#45;&gt;ScreeningSubset</title>
<path fill="none" stroke="blue" d="M126.74,-1217.8C126.74,-1206.16 126.74,-1190.55 126.74,-1177.24"/>
<polygon fill="blue" stroke="blue" points="130.24,-1177.18 126.74,-1167.18 123.24,-1177.18 130.24,-1177.18"/>
<text text-anchor="middle" x="143.24" y="-1188.8" font-family="Times,serif" font-size="14.00" fill="blue">then</text>
</g>
<!-- AdditionalMeds&#45;&gt;ExclusionCriteria -->
<g id="edge4" class="edge">
<title>AdditionalMeds&#45;&gt;ExclusionCriteria</title>
<path fill="none" stroke="blue" d="M126.74,-1043.8C126.74,-1032.16 126.74,-1016.55 126.74,-1003.24"/>
<polygon fill="blue" stroke="blue" points="130.24,-1003.18 126.74,-993.18 123.24,-1003.18 130.24,-1003.18"/>
<text text-anchor="middle" x="143.24" y="-1014.8" font-family="Times,serif" font-size="14.00" fill="blue">then</text>
</g>
<!-- DiscontinuedMeds -->
<g id="node9" class="node">
<title>DiscontinuedMeds</title>
<g id="a_node9"><a xlink:title="Patients who have discontinued all serotonergic medications for at least 5 half&#45;lives.">
<ellipse fill="none" stroke="blue" cx="126.74" cy="-801" rx="100.18" ry="18"/>
<text text-anchor="middle" x="126.74" y="-797.3" font-family="Times,serif" font-size="14.00" fill="blue">Discontinued Meds</text>
</a>
</g>
</g>
<!-- NoHistorySS&#45;&gt;DiscontinuedMeds -->
<g id="edge6" class="edge">
<title>NoHistorySS&#45;&gt;DiscontinuedMeds</title>
<path fill="none" stroke="blue" d="M126.74,-869.8C126.74,-858.16 126.74,-842.55 126.74,-829.24"/>
<polygon fill="blue" stroke="blue" points="130.24,-829.18 126.74,-819.18 123.24,-829.18 130.24,-829.18"/>
<text text-anchor="middle" x="140.24" y="-840.8" font-family="Times,serif" font-size="14.00" fill="blue">and</text>
</g>
<!-- NotPalliativeCare -->
<g id="node10" class="node">
<title>NotPalliativeCare</title>
<g id="a_node10"><a xlink:title="Patients not under palliative care.">
<ellipse fill="none" stroke="blue" cx="126.74" cy="-714" rx="98.58" ry="18"/>
<text text-anchor="middle" x="126.74" y="-710.3" font-family="Times,serif" font-size="14.00" fill="blue">Not Palliative Care</text>
</a>
</g>
</g>
<!-- DiscontinuedMeds&#45;&gt;NotPalliativeCare -->
<g id="edge7" class="edge">
<title>DiscontinuedMeds&#45;&gt;NotPalliativeCare</title>
<path fill="none" stroke="blue" d="M126.74,-782.8C126.74,-771.16 126.74,-755.55 126.74,-742.24"/>
<polygon fill="blue" stroke="blue" points="130.24,-742.18 126.74,-732.18 123.24,-742.18 130.24,-742.18"/>
<text text-anchor="middle" x="140.24" y="-753.8" font-family="Times,serif" font-size="14.00" fill="blue">and</text>
</g>
<!-- NotPalliativeCare&#45;&gt;DiagnosticInterventions -->
<g id="edge8" class="edge">
<title>NotPalliativeCare&#45;&gt;DiagnosticInterventions</title>
<path fill="none" stroke="blue" d="M126.74,-695.8C126.74,-684.16 126.74,-668.55 126.74,-655.24"/>
<polygon fill="blue" stroke="blue" points="130.24,-655.18 126.74,-645.18 123.24,-655.18 130.24,-655.18"/>
<text text-anchor="middle" x="143.24" y="-666.8" font-family="Times,serif" font-size="14.00" fill="blue">then</text>
</g>
<!-- ClinicalAssessment -->
<g id="node12" class="node">
<title>ClinicalAssessment</title>
<g id="a_node12"><a xlink:title="Clinical assessment for symptoms of serotonin syndrome.">
<ellipse fill="none" stroke="blue" cx="126.74" cy="-453" rx="103.18" ry="18"/>
<text text-anchor="middle" x="126.74" y="-449.3" font-family="Times,serif" font-size="14.00" fill="blue">Clinical Assessment</text>
</a>
</g>
</g>
<!-- MedReview&#45;&gt;ClinicalAssessment -->
<g id="edge10" class="edge">
<title>MedReview&#45;&gt;ClinicalAssessment</title>
<path fill="none" stroke="blue" d="M126.74,-521.8C126.74,-510.16 126.74,-494.55 126.74,-481.24"/>
<polygon fill="blue" stroke="blue" points="130.24,-481.18 126.74,-471.18 123.24,-481.18 130.24,-481.18"/>
<text text-anchor="middle" x="140.24" y="-492.8" font-family="Times,serif" font-size="14.00" fill="blue">and</text>
</g>
<!-- LabTests -->
<g id="node13" class="node">
<title>LabTests</title>
<g id="a_node13"><a xlink:title="Laboratory tests to rule out other causes of symptoms.">
<ellipse fill="none" stroke="blue" cx="126.74" cy="-366" rx="89.08" ry="18"/>
<text text-anchor="middle" x="126.74" y="-362.3" font-family="Times,serif" font-size="14.00" fill="blue">Laboratory Tests</text>
</a>
</g>
</g>
<!-- ClinicalAssessment&#45;&gt;LabTests -->
<g id="edge11" class="edge">
<title>ClinicalAssessment&#45;&gt;LabTests</title>
<path fill="none" stroke="blue" d="M126.74,-434.8C126.74,-423.16 126.74,-407.55 126.74,-394.24"/>
<polygon fill="blue" stroke="blue" points="130.24,-394.18 126.74,-384.18 123.24,-394.18 130.24,-394.18"/>
<text text-anchor="middle" x="140.24" y="-405.8" font-family="Times,serif" font-size="14.00" fill="blue">and</text>
</g>
<!-- LabTests&#45;&gt;SuccessfulScreen -->
<g id="edge12" class="edge">
<title>LabTests&#45;&gt;SuccessfulScreen</title>
<path fill="none" stroke="blue" d="M126.74,-347.8C126.74,-336.16 126.74,-320.55 126.74,-307.24"/>
<polygon fill="blue" stroke="blue" points="130.24,-307.18 126.74,-297.18 123.24,-307.18 130.24,-307.18"/>
<text text-anchor="middle" x="143.24" y="-318.8" font-family="Times,serif" font-size="14.00" fill="blue">then</text>
</g>
<!-- EducatePatients -->
<g id="node15" class="node">
<title>EducatePatients</title>
<g id="a_node15"><a xlink:title="Patients are educated about the signs and symptoms of serotonin syndrome.">
<ellipse fill="none" stroke="blue" cx="126.74" cy="-105" rx="89.88" ry="18"/>
<text text-anchor="middle" x="126.74" y="-101.3" font-family="Times,serif" font-size="14.00" fill="blue">Educate Patients</text>
</a>
</g>
</g>
<!-- AddressInteractions&#45;&gt;EducatePatients -->
<g id="edge14" class="edge">
<title>AddressInteractions&#45;&gt;EducatePatients</title>
<path fill="none" stroke="blue" d="M126.74,-173.8C126.74,-162.16 126.74,-146.55 126.74,-133.24"/>
<polygon fill="blue" stroke="blue" points="130.24,-133.18 126.74,-123.18 123.24,-133.18 130.24,-133.18"/>
<text text-anchor="middle" x="140.24" y="-144.8" font-family="Times,serif" font-size="14.00" fill="blue">and</text>
</g>
<!-- ScheduleFollowUp -->
<g id="node16" class="node">
<title>ScheduleFollowUp</title>
<g id="a_node16"><a xlink:title="Follow&#45;up appointments are scheduled.">
<ellipse fill="none" stroke="blue" cx="126.74" cy="-18" rx="102.88" ry="18"/>
<text text-anchor="middle" x="126.74" y="-14.3" font-family="Times,serif" font-size="14.00" fill="blue">Schedule Follow&#45;Up</text>
</a>
</g>
</g>
<!-- EducatePatients&#45;&gt;ScheduleFollowUp -->
<g id="edge15" class="edge">
<title>EducatePatients&#45;&gt;ScheduleFollowUp</title>
<path fill="none" stroke="blue" d="M126.74,-86.8C126.74,-75.16 126.74,-59.55 126.74,-46.24"/>
<polygon fill="blue" stroke="blue" points="130.24,-46.18 126.74,-36.18 123.24,-46.18 130.24,-46.18"/>
<text text-anchor="middle" x="140.24" y="-57.8" font-family="Times,serif" font-size="14.00" fill="blue">and</text>
</g>
</g>
</svg>
