<?xml version="1.0" encoding="UTF-8" standalone="no"?>
<!DOCTYPE svg PUBLIC "-//W3C//DTD SVG 1.1//EN"
 "http://www.w3.org/Graphics/SVG/1.1/DTD/svg11.dtd">
<!-- Generated by graphviz version 2.43.0 (0)
 -->
<!-- Title: ReturnToPlayProtocol Pages: 1 -->
<svg width="429pt" height="1001pt"
 viewBox="0.00 0.00 429.27 1001.00" xmlns="http://www.w3.org/2000/svg" xmlns:xlink="http://www.w3.org/1999/xlink">
<g id="graph0" class="graph" transform="scale(1 1) rotate(0) translate(4 997)">
<title>ReturnToPlayProtocol</title>
<polygon fill="white" stroke="transparent" points="-4,4 -4,-997 425.27,-997 425.27,4 -4,4"/>
<!-- InitialPopulation -->
<g id="node1" class="node">
<title>InitialPopulation</title>
<g id="a_node1"><a xlink:title="All individuals who have participated in sports activities and have been diagnosed with a concussion.">
<path fill="none" stroke="green" d="M342.94,-993C342.94,-993 227.94,-993 227.94,-993 221.94,-993 215.94,-987 215.94,-981 215.94,-981 215.94,-969 215.94,-969 215.94,-963 221.94,-957 227.94,-957 227.94,-957 342.94,-957 342.94,-957 348.94,-957 354.94,-963 354.94,-969 354.94,-969 354.94,-981 354.94,-981 354.94,-987 348.94,-993 342.94,-993"/>
<text text-anchor="middle" x="285.44" y="-971.3" font-family="Times,serif" font-size="14.00" fill="green">Initial Population</text>
</a>
</g>
</g>
<!-- MedicallyEvaluated -->
<g id="node3" class="node">
<title>MedicallyEvaluated</title>
<g id="a_node3"><a xlink:title="Individuals who have been medically evaluated and diagnosed with a concussion.">
<ellipse fill="none" stroke="blue" cx="285.44" cy="-888" rx="105.08" ry="18"/>
<text text-anchor="middle" x="285.44" y="-884.3" font-family="Times,serif" font-size="14.00" fill="blue">Medically Evaluated</text>
</a>
</g>
</g>
<!-- InitialPopulation&#45;&gt;MedicallyEvaluated -->
<g id="edge1" class="edge">
<title>InitialPopulation&#45;&gt;MedicallyEvaluated</title>
<path fill="none" stroke="blue" d="M285.44,-956.8C285.44,-945.16 285.44,-929.55 285.44,-916.24"/>
<polygon fill="blue" stroke="blue" points="288.94,-916.18 285.44,-906.18 281.94,-916.18 288.94,-916.18"/>
<text text-anchor="middle" x="290.44" y="-927.8" font-family="Times,serif" font-size="14.00" fill="blue">if</text>
</g>
<!-- SubsetInConsideration -->
<g id="node2" class="node">
<title>SubsetInConsideration</title>
<g id="a_node2"><a xlink:title="Individuals from the initial population who have been medically evaluated and diagnosed with a concussion by a qualified healthcare professional.">
<path fill="none" stroke="green" d="M367.44,-471C367.44,-471 203.44,-471 203.44,-471 197.44,-471 191.44,-465 191.44,-459 191.44,-459 191.44,-447 191.44,-447 191.44,-441 197.44,-435 203.44,-435 203.44,-435 367.44,-435 367.44,-435 373.44,-435 379.44,-441 379.44,-447 379.44,-447 379.44,-459 379.44,-459 379.44,-465 373.44,-471 367.44,-471"/>
<text text-anchor="middle" x="285.44" y="-449.3" font-family="Times,serif" font-size="14.00" fill="green">Subset in Consideration</text>
</a>
</g>
</g>
<!-- InitialRest -->
<g id="node8" class="node">
<title>InitialRest</title>
<g id="a_node8"><a xlink:title="Ensure a period of physical and cognitive rest immediately following the concussion, as recommended by a healthcare provider.">
<ellipse fill="none" stroke="blue" cx="226.44" cy="-366" rx="61.99" ry="18"/>
<text text-anchor="middle" x="226.44" y="-362.3" font-family="Times,serif" font-size="14.00" fill="blue">Initial Rest</text>
</a>
</g>
</g>
<!-- SubsetInConsideration&#45;&gt;InitialRest -->
<g id="edge7" class="edge">
<title>SubsetInConsideration&#45;&gt;InitialRest</title>
<path fill="none" stroke="blue" d="M273.5,-434.8C265.04,-422.62 253.57,-406.09 244.07,-392.4"/>
<polygon fill="blue" stroke="blue" points="246.73,-390.1 238.16,-383.89 240.98,-394.1 246.73,-390.1"/>
<text text-anchor="middle" x="265.44" y="-405.8" font-family="Times,serif" font-size="14.00" fill="blue">if</text>
</g>
<!-- SportsRelatedConcussion -->
<g id="node4" class="node">
<title>SportsRelatedConcussion</title>
<g id="a_node4"><a xlink:title="Individuals who have sustained a concussion during sports activities.">
<ellipse fill="none" stroke="blue" cx="285.44" cy="-801" rx="135.68" ry="18"/>
<text text-anchor="middle" x="285.44" y="-797.3" font-family="Times,serif" font-size="14.00" fill="blue">Sports&#45;Related Concussion</text>
</a>
</g>
</g>
<!-- MedicallyEvaluated&#45;&gt;SportsRelatedConcussion -->
<g id="edge2" class="edge">
<title>MedicallyEvaluated&#45;&gt;SportsRelatedConcussion</title>
<path fill="none" stroke="blue" d="M285.44,-869.8C285.44,-858.16 285.44,-842.55 285.44,-829.24"/>
<polygon fill="blue" stroke="blue" points="288.94,-829.18 285.44,-819.18 281.94,-829.18 288.94,-829.18"/>
<text text-anchor="middle" x="298.94" y="-840.8" font-family="Times,serif" font-size="14.00" fill="blue">and</text>
</g>
<!-- NoPreExistingConditions -->
<g id="node5" class="node">
<title>NoPreExistingConditions</title>
<g id="a_node5"><a xlink:title="Individuals without pre&#45;existing neurological conditions that may complicate the concussion recovery process, unless cleared by a specialist.">
<ellipse fill="none" stroke="blue" cx="285.44" cy="-714" rx="135.68" ry="18"/>
<text text-anchor="middle" x="285.44" y="-710.3" font-family="Times,serif" font-size="14.00" fill="blue">No Pre&#45;existing Conditions</text>
</a>
</g>
</g>
<!-- SportsRelatedConcussion&#45;&gt;NoPreExistingConditions -->
<g id="edge3" class="edge">
<title>SportsRelatedConcussion&#45;&gt;NoPreExistingConditions</title>
<path fill="none" stroke="blue" d="M285.44,-782.8C285.44,-771.16 285.44,-755.55 285.44,-742.24"/>
<polygon fill="blue" stroke="blue" points="288.94,-742.18 285.44,-732.18 281.94,-742.18 288.94,-742.18"/>
<text text-anchor="middle" x="298.94" y="-753.8" font-family="Times,serif" font-size="14.00" fill="blue">and</text>
</g>
<!-- CompletedRestPeriod -->
<g id="node6" class="node">
<title>CompletedRestPeriod</title>
<g id="a_node6"><a xlink:title="Individuals who have completed the initial rest period as recommended by their healthcare provider.">
<ellipse fill="none" stroke="blue" cx="285.44" cy="-627" rx="117.78" ry="18"/>
<text text-anchor="middle" x="285.44" y="-623.3" font-family="Times,serif" font-size="14.00" fill="blue">Completed Rest Period</text>
</a>
</g>
</g>
<!-- NoPreExistingConditions&#45;&gt;CompletedRestPeriod -->
<g id="edge4" class="edge">
<title>NoPreExistingConditions&#45;&gt;CompletedRestPeriod</title>
<path fill="none" stroke="blue" d="M285.44,-695.8C285.44,-684.16 285.44,-668.55 285.44,-655.24"/>
<polygon fill="blue" stroke="blue" points="288.94,-655.18 285.44,-645.18 281.94,-655.18 288.94,-655.18"/>
<text text-anchor="middle" x="298.94" y="-666.8" font-family="Times,serif" font-size="14.00" fill="blue">and</text>
</g>
<!-- SymptomsResolved -->
<g id="node7" class="node">
<title>SymptomsResolved</title>
<g id="a_node7"><a xlink:title="Individuals who exhibit prolonged post&#45;concussion symptoms that have resolved to baseline levels.">
<ellipse fill="none" stroke="blue" cx="285.44" cy="-540" rx="104.78" ry="18"/>
<text text-anchor="middle" x="285.44" y="-536.3" font-family="Times,serif" font-size="14.00" fill="blue">Symptoms Resolved</text>
</a>
</g>
</g>
<!-- CompletedRestPeriod&#45;&gt;SymptomsResolved -->
<g id="edge5" class="edge">
<title>CompletedRestPeriod&#45;&gt;SymptomsResolved</title>
<path fill="none" stroke="blue" d="M285.44,-608.8C285.44,-597.16 285.44,-581.55 285.44,-568.24"/>
<polygon fill="blue" stroke="blue" points="288.94,-568.18 285.44,-558.18 281.94,-568.18 288.94,-568.18"/>
<text text-anchor="middle" x="298.94" y="-579.8" font-family="Times,serif" font-size="14.00" fill="blue">and</text>
</g>
<!-- SymptomsResolved&#45;&gt;SubsetInConsideration -->
<g id="edge6" class="edge">
<title>SymptomsResolved&#45;&gt;SubsetInConsideration</title>
<path fill="none" stroke="blue" d="M285.44,-521.8C285.44,-510.16 285.44,-494.55 285.44,-481.24"/>
<polygon fill="blue" stroke="blue" points="288.94,-481.18 285.44,-471.18 281.94,-481.18 288.94,-481.18"/>
<text text-anchor="middle" x="301.94" y="-492.8" font-family="Times,serif" font-size="14.00" fill="blue">then</text>
</g>
<!-- GradualReturn -->
<g id="node9" class="node">
<title>GradualReturn</title>
<g id="a_node9"><a xlink:title="Follow a stepwise return&#45;to&#45;play protocol with stages of increasing physical activity.">
<ellipse fill="none" stroke="blue" cx="182.44" cy="-279" rx="118.08" ry="18"/>
<text text-anchor="middle" x="182.44" y="-275.3" font-family="Times,serif" font-size="14.00" fill="blue">Gradual Return&#45;to&#45;Play</text>
</a>
</g>
</g>
<!-- InitialRest&#45;&gt;GradualReturn -->
<g id="edge8" class="edge">
<title>InitialRest&#45;&gt;GradualReturn</title>
<path fill="none" stroke="blue" d="M217.53,-347.8C211.33,-335.82 202.94,-319.62 195.92,-306.06"/>
<polygon fill="blue" stroke="blue" points="199.03,-304.45 191.33,-297.18 192.82,-307.67 199.03,-304.45"/>
<text text-anchor="middle" x="220.94" y="-318.8" font-family="Times,serif" font-size="14.00" fill="blue">and</text>
</g>
<!-- MedicalClearance -->
<g id="node10" class="node">
<title>MedicalClearance</title>
<g id="a_node10"><a xlink:title="Obtain written clearance from a healthcare professional experienced in concussion management.">
<ellipse fill="none" stroke="blue" cx="170.44" cy="-192" rx="96.68" ry="18"/>
<text text-anchor="middle" x="170.44" y="-188.3" font-family="Times,serif" font-size="14.00" fill="blue">Medical Clearance</text>
</a>
</g>
</g>
<!-- GradualReturn&#45;&gt;MedicalClearance -->
<g id="edge9" class="edge">
<title>GradualReturn&#45;&gt;MedicalClearance</title>
<path fill="none" stroke="blue" d="M180.01,-260.8C178.37,-249.16 176.16,-233.55 174.28,-220.24"/>
<polygon fill="blue" stroke="blue" points="177.72,-219.59 172.86,-210.18 170.79,-220.57 177.72,-219.59"/>
<text text-anchor="middle" x="190.94" y="-231.8" font-family="Times,serif" font-size="14.00" fill="blue">and</text>
</g>
<!-- EducationDocumentation -->
<g id="node11" class="node">
<title>EducationDocumentation</title>
<g id="a_node11"><a xlink:title="Educate the athlete and document each stage of the return&#45;to&#45;play process.">
<ellipse fill="none" stroke="blue" cx="151.44" cy="-105" rx="151.37" ry="18"/>
<text text-anchor="middle" x="151.44" y="-101.3" font-family="Times,serif" font-size="14.00" fill="blue">Education and Documentation</text>
</a>
</g>
</g>
<!-- MedicalClearance&#45;&gt;EducationDocumentation -->
<g id="edge10" class="edge">
<title>MedicalClearance&#45;&gt;EducationDocumentation</title>
<path fill="none" stroke="blue" d="M166.59,-173.8C163.99,-162.16 160.5,-146.55 157.52,-133.24"/>
<polygon fill="blue" stroke="blue" points="160.87,-132.17 155.28,-123.18 154.04,-133.7 160.87,-132.17"/>
<text text-anchor="middle" x="175.94" y="-144.8" font-family="Times,serif" font-size="14.00" fill="blue">and</text>
</g>
<!-- PostReturnMonitoring -->
<g id="node12" class="node">
<title>PostReturnMonitoring</title>
<g id="a_node12"><a xlink:title="Continue to monitor the athlete for any recurrence of symptoms after returning to play.">
<ellipse fill="none" stroke="blue" cx="241.44" cy="-18" rx="120.48" ry="18"/>
<text text-anchor="middle" x="241.44" y="-14.3" font-family="Times,serif" font-size="14.00" fill="blue">Post&#45;Return Monitoring</text>
</a>
</g>
</g>
<!-- EducationDocumentation&#45;&gt;PostReturnMonitoring -->
<g id="edge11" class="edge">
<title>EducationDocumentation&#45;&gt;PostReturnMonitoring</title>
<path fill="none" stroke="blue" d="M169.65,-86.8C183.03,-74.16 201.39,-56.82 216.19,-42.85"/>
<polygon fill="blue" stroke="blue" points="218.69,-45.3 223.56,-35.89 213.88,-40.21 218.69,-45.3"/>
<text text-anchor="middle" x="215.94" y="-57.8" font-family="Times,serif" font-size="14.00" fill="blue">and</text>
</g>
<!-- PostReturnMonitoring&#45;&gt;SubsetInConsideration -->
<g id="edge12" class="edge">
<title>PostReturnMonitoring&#45;&gt;SubsetInConsideration</title>
<path fill="none" stroke="blue" d="M276.61,-35.32C301.49,-49.55 330.44,-72.81 330.44,-104 330.44,-367 330.44,-367 330.44,-367 330.44,-388.84 318.69,-410.55 307.2,-426.56"/>
<polygon fill="blue" stroke="blue" points="304.18,-424.75 300.92,-434.83 309.76,-428.98 304.18,-424.75"/>
<text text-anchor="middle" x="346.94" y="-231.8" font-family="Times,serif" font-size="14.00" fill="blue">then</text>
</g>
</g>
</svg>
