<?xml version="1.0" encoding="UTF-8" standalone="no"?>
<!DOCTYPE svg PUBLIC "-//W3C//DTD SVG 1.1//EN"
 "http://www.w3.org/Graphics/SVG/1.1/DTD/svg11.dtd">
<!-- Generated by graphviz version 2.43.0 (0)
 -->
<!-- Title: %3 Pages: 1 -->
<svg width="457pt" height="392pt"
 viewBox="0.00 0.00 457.33 392.00" xmlns="http://www.w3.org/2000/svg" xmlns:xlink="http://www.w3.org/1999/xlink">
<g id="graph0" class="graph" transform="scale(1 1) rotate(0) translate(4 388)">
<title>%3</title>
<polygon fill="white" stroke="transparent" points="-4,4 -4,-388 453.33,-388 453.33,4 -4,4"/>
<!-- InitialPopulation -->
<g id="node1" class="node">
<title>InitialPopulation</title>
<g id="a_node1"><a xlink:title="All patients currently prescribed GLP&#45;1 receptor agonists, including but not limited to medications such as exenatide, liraglutide, dulaglutide, semaglutide, and albiglutide.">
<path fill="none" stroke="green" d="M290.44,-384C290.44,-384 175.44,-384 175.44,-384 169.44,-384 163.44,-378 163.44,-372 163.44,-372 163.44,-360 163.44,-360 163.44,-354 169.44,-348 175.44,-348 175.44,-348 290.44,-348 290.44,-348 296.44,-348 302.44,-354 302.44,-360 302.44,-360 302.44,-372 302.44,-372 302.44,-378 296.44,-384 290.44,-384"/>
<text text-anchor="middle" x="232.94" y="-362.3" font-family="Times,serif" font-size="14.00" fill="green">Initial Population</text>
</a>
</g>
</g>
<!-- OnGLP1For4Weeks -->
<g id="node4" class="node">
<title>OnGLP1For4Weeks</title>
<g id="a_node4"><a xlink:title="Patients have been on GLP&#45;1 medications for at least 4 weeks.">
<ellipse fill="none" stroke="blue" cx="118.94" cy="-279" rx="118.88" ry="18"/>
<text text-anchor="middle" x="118.94" y="-275.3" font-family="Times,serif" font-size="14.00" fill="blue">On GLP&#45;1 for ≥4 weeks</text>
</a>
</g>
</g>
<!-- InitialPopulation&#45;&gt;OnGLP1For4Weeks -->
<g id="edge1" class="edge">
<title>InitialPopulation&#45;&gt;OnGLP1For4Weeks</title>
<path fill="none" stroke="blue" d="M209.87,-347.8C192.53,-334.87 168.6,-317.03 149.64,-302.89"/>
<polygon fill="blue" stroke="blue" points="151.69,-300.06 141.59,-296.89 147.51,-305.67 151.69,-300.06"/>
<text text-anchor="middle" x="187.94" y="-318.8" font-family="Times,serif" font-size="14.00" fill="blue">if</text>
</g>
<!-- NotDiscontinued -->
<g id="node5" class="node">
<title>NotDiscontinued</title>
<g id="a_node5"><a xlink:title="Patients who have not discontinued GLP&#45;1 medications.">
<ellipse fill="none" stroke="blue" cx="347.94" cy="-279" rx="91.78" ry="18"/>
<text text-anchor="middle" x="347.94" y="-275.3" font-family="Times,serif" font-size="14.00" fill="blue">Not Discontinued</text>
</a>
</g>
</g>
<!-- InitialPopulation&#45;&gt;NotDiscontinued -->
<g id="edge3" class="edge">
<title>InitialPopulation&#45;&gt;NotDiscontinued</title>
<path fill="none" stroke="blue" d="M256.21,-347.8C273.82,-334.78 298.16,-316.79 317.35,-302.61"/>
<polygon fill="blue" stroke="blue" points="319.52,-305.36 325.48,-296.6 315.36,-299.73 319.52,-305.36"/>
<text text-anchor="middle" x="301.94" y="-318.8" font-family="Times,serif" font-size="14.00" fill="blue">if</text>
</g>
<!-- SubsetInConsideration -->
<g id="node2" class="node">
<title>SubsetInConsideration</title>
<g id="a_node2"><a xlink:title="Patients from the initial population who have been on GLP&#45;1 medications for at least 4 weeks.">
<path fill="none" stroke="green" d="M200.94,-210C200.94,-210 36.94,-210 36.94,-210 30.94,-210 24.94,-204 24.94,-198 24.94,-198 24.94,-186 24.94,-186 24.94,-180 30.94,-174 36.94,-174 36.94,-174 200.94,-174 200.94,-174 206.94,-174 212.94,-180 212.94,-186 212.94,-186 212.94,-198 212.94,-198 212.94,-204 206.94,-210 200.94,-210"/>
<text text-anchor="middle" x="118.94" y="-188.3" font-family="Times,serif" font-size="14.00" fill="green">Subset in Consideration</text>
</a>
</g>
</g>
<!-- ExcludedPopulation -->
<g id="node3" class="node">
<title>ExcludedPopulation</title>
<g id="a_node3"><a xlink:title="Patients who meet any of the exclusion criteria.">
<path fill="none" stroke="green" d="M417.44,-36C417.44,-36 278.44,-36 278.44,-36 272.44,-36 266.44,-30 266.44,-24 266.44,-24 266.44,-12 266.44,-12 266.44,-6 272.44,0 278.44,0 278.44,0 417.44,0 417.44,0 423.44,0 429.44,-6 429.44,-12 429.44,-12 429.44,-24 429.44,-24 429.44,-30 423.44,-36 417.44,-36"/>
<text text-anchor="middle" x="347.94" y="-14.3" font-family="Times,serif" font-size="14.00" fill="green">Excluded Population</text>
</a>
</g>
</g>
<!-- OnGLP1For4Weeks&#45;&gt;SubsetInConsideration -->
<g id="edge2" class="edge">
<title>OnGLP1For4Weeks&#45;&gt;SubsetInConsideration</title>
<path fill="none" stroke="blue" d="M118.94,-260.8C118.94,-249.16 118.94,-233.55 118.94,-220.24"/>
<polygon fill="blue" stroke="blue" points="122.44,-220.18 118.94,-210.18 115.44,-220.18 122.44,-220.18"/>
<text text-anchor="middle" x="135.44" y="-231.8" font-family="Times,serif" font-size="14.00" fill="blue">then</text>
</g>
<!-- NoAllergies -->
<g id="node6" class="node">
<title>NoAllergies</title>
<g id="a_node6"><a xlink:title="Patients without documented allergies or adverse reactions to GLP&#45;1 medications that have led to discontinuation.">
<ellipse fill="none" stroke="blue" cx="347.94" cy="-192" rx="67.69" ry="18"/>
<text text-anchor="middle" x="347.94" y="-188.3" font-family="Times,serif" font-size="14.00" fill="blue">No Allergies</text>
</a>
</g>
</g>
<!-- NotDiscontinued&#45;&gt;NoAllergies -->
<g id="edge4" class="edge">
<title>NotDiscontinued&#45;&gt;NoAllergies</title>
<path fill="none" stroke="blue" d="M347.94,-260.8C347.94,-249.16 347.94,-233.55 347.94,-220.24"/>
<polygon fill="blue" stroke="blue" points="351.44,-220.18 347.94,-210.18 344.44,-220.18 351.44,-220.18"/>
<text text-anchor="middle" x="361.44" y="-231.8" font-family="Times,serif" font-size="14.00" fill="blue">and</text>
</g>
<!-- NotInTrial -->
<g id="node7" class="node">
<title>NotInTrial</title>
<g id="a_node7"><a xlink:title="Patients not currently participating in a clinical trial that includes monitoring for GLP&#45;1 medication side effects.">
<ellipse fill="none" stroke="blue" cx="347.94" cy="-105" rx="101.28" ry="18"/>
<text text-anchor="middle" x="347.94" y="-101.3" font-family="Times,serif" font-size="14.00" fill="blue">Not in Clinical Trial</text>
</a>
</g>
</g>
<!-- NoAllergies&#45;&gt;NotInTrial -->
<g id="edge5" class="edge">
<title>NoAllergies&#45;&gt;NotInTrial</title>
<path fill="none" stroke="blue" d="M347.94,-173.8C347.94,-162.16 347.94,-146.55 347.94,-133.24"/>
<polygon fill="blue" stroke="blue" points="351.44,-133.18 347.94,-123.18 344.44,-133.18 351.44,-133.18"/>
<text text-anchor="middle" x="361.44" y="-144.8" font-family="Times,serif" font-size="14.00" fill="blue">and</text>
</g>
<!-- NotInTrial&#45;&gt;ExcludedPopulation -->
<g id="edge6" class="edge">
<title>NotInTrial&#45;&gt;ExcludedPopulation</title>
<path fill="none" stroke="blue" d="M347.94,-86.8C347.94,-75.16 347.94,-59.55 347.94,-46.24"/>
<polygon fill="blue" stroke="blue" points="351.44,-46.18 347.94,-36.18 344.44,-46.18 351.44,-46.18"/>
<text text-anchor="middle" x="364.44" y="-57.8" font-family="Times,serif" font-size="14.00" fill="blue">then</text>
</g>
</g>
</svg>
