<?xml version="1.0" encoding="UTF-8" standalone="no"?>
<!DOCTYPE svg PUBLIC "-//W3C//DTD SVG 1.1//EN"
 "http://www.w3.org/Graphics/SVG/1.1/DTD/svg11.dtd">
<!-- Generated by graphviz version 2.43.0 (0)
 -->
<!-- Title: %3 Pages: 1 -->
<svg width="672pt" height="218pt"
 viewBox="0.00 0.00 672.43 218.00" xmlns="http://www.w3.org/2000/svg" xmlns:xlink="http://www.w3.org/1999/xlink">
<g id="graph0" class="graph" transform="scale(1 1) rotate(0) translate(4 214)">
<title>%3</title>
<polygon fill="white" stroke="transparent" points="-4,4 -4,-214 668.43,-214 668.43,4 -4,4"/>
<!-- InitialPopulation -->
<g id="node1" class="node">
<title>InitialPopulation</title>
<g id="a_node1"><a xlink:title="All patient appointments recorded in the Canvas Electronic Medical Record (EMR) system.">
<path fill="none" stroke="green" d="M344.79,-210C344.79,-210 229.79,-210 229.79,-210 223.79,-210 217.79,-204 217.79,-198 217.79,-198 217.79,-186 217.79,-186 217.79,-180 223.79,-174 229.79,-174 229.79,-174 344.79,-174 344.79,-174 350.79,-174 356.79,-180 356.79,-186 356.79,-186 356.79,-198 356.79,-198 356.79,-204 350.79,-210 344.79,-210"/>
<text text-anchor="middle" x="287.29" y="-188.3" font-family="Times,serif" font-size="14.00" fill="green">Initial Population</text>
</a>
</g>
</g>
<!-- NotTelehealth -->
<g id="node3" class="node">
<title>NotTelehealth</title>
<g id="a_node3"><a xlink:title="Appointments that are not labeled as &#39;telehealth&#39;.">
<ellipse fill="none" stroke="blue" cx="79.29" cy="-105" rx="79.09" ry="18"/>
<text text-anchor="middle" x="79.29" y="-101.3" font-family="Times,serif" font-size="14.00" fill="blue">Not Telehealth</text>
</a>
</g>
</g>
<!-- InitialPopulation&#45;&gt;NotTelehealth -->
<g id="edge1" class="edge">
<title>InitialPopulation&#45;&gt;NotTelehealth</title>
<path fill="none" stroke="blue" d="M245.2,-173.8C210.44,-159.59 161.17,-139.46 125.36,-124.83"/>
<polygon fill="blue" stroke="blue" points="126.68,-121.58 116.1,-121.04 124.03,-128.06 126.68,-121.58"/>
<text text-anchor="middle" x="201.29" y="-144.8" font-family="Times,serif" font-size="14.00" fill="blue">if</text>
</g>
<!-- CanceledOrNoShow -->
<g id="node4" class="node">
<title>CanceledOrNoShow</title>
<g id="a_node4"><a xlink:title="Telehealth appointments that have been canceled or marked as &#39;no&#45;show&#39;.">
<ellipse fill="none" stroke="blue" cx="287.29" cy="-105" rx="110.48" ry="18"/>
<text text-anchor="middle" x="287.29" y="-101.3" font-family="Times,serif" font-size="14.00" fill="blue">Canceled or No&#45;Show</text>
</a>
</g>
</g>
<!-- InitialPopulation&#45;&gt;CanceledOrNoShow -->
<g id="edge3" class="edge">
<title>InitialPopulation&#45;&gt;CanceledOrNoShow</title>
<path fill="none" stroke="blue" d="M287.29,-173.8C287.29,-162.16 287.29,-146.55 287.29,-133.24"/>
<polygon fill="blue" stroke="blue" points="290.79,-133.18 287.29,-123.18 283.79,-133.18 290.79,-133.18"/>
<text text-anchor="middle" x="292.29" y="-144.8" font-family="Times,serif" font-size="14.00" fill="blue">if</text>
</g>
<!-- DuplicatesOrErroneous -->
<g id="node5" class="node">
<title>DuplicatesOrErroneous</title>
<g id="a_node5"><a xlink:title="Appointments that are duplicates or have been erroneously entered.">
<ellipse fill="none" stroke="blue" cx="540.29" cy="-105" rx="124.28" ry="18"/>
<text text-anchor="middle" x="540.29" y="-101.3" font-family="Times,serif" font-size="14.00" fill="blue">Duplicates or Erroneous</text>
</a>
</g>
</g>
<!-- InitialPopulation&#45;&gt;DuplicatesOrErroneous -->
<g id="edge5" class="edge">
<title>InitialPopulation&#45;&gt;DuplicatesOrErroneous</title>
<path fill="none" stroke="blue" d="M338.19,-173.9C380.31,-159.75 440.1,-139.66 483.72,-125.01"/>
<polygon fill="blue" stroke="blue" points="484.96,-128.28 493.32,-121.78 482.73,-121.65 484.96,-128.28"/>
<text text-anchor="middle" x="434.29" y="-144.8" font-family="Times,serif" font-size="14.00" fill="blue">if</text>
</g>
<!-- TelehealthAppointments -->
<g id="node2" class="node">
<title>TelehealthAppointments</title>
<g id="a_node2"><a xlink:title="Appointments that are specifically categorized as &#39;telehealth&#39; within the Canvas EMR system.">
<path fill="none" stroke="green" d="M372.79,-36C372.79,-36 201.79,-36 201.79,-36 195.79,-36 189.79,-30 189.79,-24 189.79,-24 189.79,-12 189.79,-12 189.79,-6 195.79,0 201.79,0 201.79,0 372.79,0 372.79,0 378.79,0 384.79,-6 384.79,-12 384.79,-12 384.79,-24 384.79,-24 384.79,-30 378.79,-36 372.79,-36"/>
<text text-anchor="middle" x="287.29" y="-14.3" font-family="Times,serif" font-size="14.00" fill="green">Telehealth Appointments</text>
</a>
</g>
</g>
<!-- NotTelehealth&#45;&gt;TelehealthAppointments -->
<g id="edge2" class="edge">
<title>NotTelehealth&#45;&gt;TelehealthAppointments</title>
<path fill="none" stroke="blue" d="M116,-89C149.3,-75.39 198.72,-55.2 235.93,-39.99"/>
<polygon fill="blue" stroke="blue" points="237.66,-43.06 245.59,-36.04 235.01,-36.58 237.66,-43.06"/>
<text text-anchor="middle" x="212.79" y="-57.8" font-family="Times,serif" font-size="14.00" fill="blue">then</text>
</g>
<!-- CanceledOrNoShow&#45;&gt;TelehealthAppointments -->
<g id="edge4" class="edge">
<title>CanceledOrNoShow&#45;&gt;TelehealthAppointments</title>
<path fill="none" stroke="blue" d="M287.29,-86.8C287.29,-75.16 287.29,-59.55 287.29,-46.24"/>
<polygon fill="blue" stroke="blue" points="290.79,-46.18 287.29,-36.18 283.79,-46.18 290.79,-46.18"/>
<text text-anchor="middle" x="303.79" y="-57.8" font-family="Times,serif" font-size="14.00" fill="blue">then</text>
</g>
<!-- DuplicatesOrErroneous&#45;&gt;TelehealthAppointments -->
<g id="edge6" class="edge">
<title>DuplicatesOrErroneous&#45;&gt;TelehealthAppointments</title>
<path fill="none" stroke="blue" d="M493.59,-88.31C452.49,-74.5 392.39,-54.31 347.65,-39.28"/>
<polygon fill="blue" stroke="blue" points="348.66,-35.92 338.06,-36.06 346.43,-42.56 348.66,-35.92"/>
<text text-anchor="middle" x="445.79" y="-57.8" font-family="Times,serif" font-size="14.00" fill="blue">then</text>
</g>
</g>
</svg>
