<?xml version="1.0" encoding="UTF-8" standalone="no"?>
<!DOCTYPE svg PUBLIC "-//W3C//DTD SVG 1.1//EN"
 "http://www.w3.org/Graphics/SVG/1.1/DTD/svg11.dtd">
<!-- Generated by graphviz version 11.0.0 (20240428.1522)
 -->
<!-- Title: StrokeGuidelines Pages: 1 -->
<svg width="1416pt" height="495pt"
 viewBox="0.00 0.00 1416.00 495.00" xmlns="http://www.w3.org/2000/svg" xmlns:xlink="http://www.w3.org/1999/xlink">
<g id="graph0" class="graph" transform="scale(1 1) rotate(0) translate(4 491)">
<title>StrokeGuidelines</title>
<polygon fill="white" stroke="none" points="-4,4 -4,-491 1412,-491 1412,4 -4,4"/>
<g id="clust1" class="cluster">
<title>cluster_0</title>
<polygon fill="lightgrey" stroke="black" points="8,-8 8,-479 1400,-479 1400,-8 8,-8"/>
</g>
<!-- MinorStrokeOrTIA -->
<g id="node1" class="node">
<title>MinorStrokeOrTIA</title>
<polygon fill="white" stroke="white" points="756.5,-471 557.5,-471 557.5,-435 756.5,-435 756.5,-471"/>
<text text-anchor="middle" x="657" y="-447.57" font-family="Arial" font-size="14.00">Minor Ischaemic Stroke or TIA</text>
</g>
<!-- LifestyleModification -->
<g id="node2" class="node">
<title>LifestyleModification</title>
<polygon fill="white" stroke="white" points="310.12,-391.12 15.88,-391.12 15.88,-351.62 310.12,-351.62 310.12,-391.12"/>
<text text-anchor="middle" x="163" y="-373.82" font-family="Arial" font-size="14.00">Support to modify lifestyle factors</text>
<text text-anchor="middle" x="163" y="-358.07" font-family="Arial" font-size="14.00">(smoking, alcohol consumption, diet, exercise)</text>
</g>
<!-- MinorStrokeOrTIA&#45;&gt;LifestyleModification -->
<g id="edge1" class="edge">
<title>MinorStrokeOrTIA&#45;&gt;LifestyleModification</title>
<path fill="none" stroke="black" d="M557.11,-436.7C489.79,-426.3 399.01,-412.1 319,-399 308.22,-397.24 297.03,-395.38 285.81,-393.5"/>
<polygon fill="black" stroke="black" points="286.54,-390.07 276.09,-391.86 285.37,-396.97 286.54,-390.07"/>
</g>
<!-- AtrialFibrillationCheck -->
<g id="node3" class="node">
<title>AtrialFibrillationCheck</title>
<polygon fill="white" stroke="white" points="436,-389.38 327.79,-371.38 436,-353.38 544.21,-371.38 436,-389.38"/>
<text text-anchor="middle" x="436" y="-365.95" font-family="Arial" font-size="14.00"> Atrial Fibrillation</text>
</g>
<!-- MinorStrokeOrTIA&#45;&gt;AtrialFibrillationCheck -->
<g id="edge2" class="edge">
<title>MinorStrokeOrTIA&#45;&gt;AtrialFibrillationCheck</title>
<path fill="none" stroke="black" d="M608.5,-434.53C569.99,-420.65 516.63,-401.42 479.49,-388.04"/>
<polygon fill="black" stroke="black" points="481.01,-384.87 470.42,-384.78 478.64,-391.46 481.01,-384.87"/>
</g>
<!-- HighIntensityStatin -->
<g id="node4" class="node">
<title>HighIntensityStatin</title>
<polygon fill="white" stroke="white" points="751.62,-391.12 562.38,-391.12 562.38,-351.62 751.62,-351.62 751.62,-391.12"/>
<text text-anchor="middle" x="657" y="-373.82" font-family="Arial" font-size="14.00">High Intensity Statin Therapy</text>
<text text-anchor="middle" x="657" y="-358.07" font-family="Arial" font-size="14.00">(atorvastatin 20&#45;80 mg daily)</text>
</g>
<!-- MinorStrokeOrTIA&#45;&gt;HighIntensityStatin -->
<g id="edge3" class="edge">
<title>MinorStrokeOrTIA&#45;&gt;HighIntensityStatin</title>
<path fill="none" stroke="black" d="M657,-434.72C657,-425.38 657,-413.58 657,-402.76"/>
<polygon fill="black" stroke="black" points="660.5,-403.09 657,-393.09 653.5,-403.09 660.5,-403.09"/>
</g>
<!-- BloodPressureTherapy -->
<g id="node5" class="node">
<title>BloodPressureTherapy</title>
<polygon fill="white" stroke="white" points="1032.38,-399 769.62,-399 769.62,-343.75 1032.38,-343.75 1032.38,-399"/>
<text text-anchor="middle" x="901" y="-381.7" font-family="Arial" font-size="14.00">Blood Pressure&#45;Lowering Therapy</text>
<text text-anchor="middle" x="901" y="-365.95" font-family="Arial" font-size="14.00">(thiazide&#45;like diuretic, long&#45;acting calcium</text>
<text text-anchor="middle" x="901" y="-350.2" font-family="Arial" font-size="14.00">channel blocker or ACE inhibitor)</text>
</g>
<!-- MinorStrokeOrTIA&#45;&gt;BloodPressureTherapy -->
<g id="edge4" class="edge">
<title>MinorStrokeOrTIA&#45;&gt;BloodPressureTherapy</title>
<path fill="none" stroke="black" d="M710.55,-434.53C739.03,-425.23 774.87,-413.54 807.75,-402.8"/>
<polygon fill="black" stroke="black" points="808.45,-406.26 816.88,-399.83 806.28,-399.6 808.45,-406.26"/>
</g>
<!-- CarotidImaging -->
<g id="node9" class="node">
<title>CarotidImaging</title>
<polygon fill="white" stroke="white" points="1391.75,-391.12 1050.25,-391.12 1050.25,-351.62 1391.75,-351.62 1391.75,-391.12"/>
<text text-anchor="middle" x="1221" y="-373.82" font-family="Arial" font-size="14.00">Carotid Imaging</text>
<text text-anchor="middle" x="1221" y="-358.07" font-family="Arial" font-size="14.00">(duplex ultrasound, CT angiography, MR angiography)</text>
</g>
<!-- MinorStrokeOrTIA&#45;&gt;CarotidImaging -->
<g id="edge8" class="edge">
<title>MinorStrokeOrTIA&#45;&gt;CarotidImaging</title>
<path fill="none" stroke="black" d="M756.89,-438.48C834.42,-427.93 944.57,-412.79 1041,-399 1053.95,-397.15 1067.42,-395.2 1080.9,-393.23"/>
<polygon fill="black" stroke="black" points="1081.33,-396.71 1090.72,-391.8 1080.32,-389.78 1081.33,-396.71"/>
</g>
<!-- DualAntiplateletTherapy -->
<g id="node6" class="node">
<title>DualAntiplateletTherapy</title>
<polygon fill="white" stroke="white" points="441.38,-291.25 274.62,-291.25 274.62,-236 441.38,-236 441.38,-291.25"/>
<text text-anchor="middle" x="358" y="-273.95" font-family="Arial" font-size="14.00">Dual Antiplatelet Therapy</text>
<text text-anchor="middle" x="358" y="-258.2" font-family="Arial" font-size="14.00">(clopidogrel + aspirin or</text>
<text text-anchor="middle" x="358" y="-242.45" font-family="Arial" font-size="14.00"> ticagrelor + aspirin)</text>
</g>
<!-- AtrialFibrillationCheck&#45;&gt;DualAntiplateletTherapy -->
<g id="edge6" class="edge">
<title>AtrialFibrillationCheck&#45;&gt;DualAntiplateletTherapy</title>
<path fill="none" stroke="black" d="M424.82,-355.22C414.37,-341.06 398.36,-319.35 384.63,-300.73"/>
<polygon fill="black" stroke="black" points="387.56,-298.8 378.8,-292.83 381.92,-302.95 387.56,-298.8"/>
<text text-anchor="middle" x="409.25" y="-312.45" font-family="Times,serif" font-size="14.00">No</text>
</g>
<!-- AnticoagulationTherapy -->
<g id="node8" class="node">
<title>AnticoagulationTherapy</title>
<polygon fill="white" stroke="white" points="568.12,-281.62 459.88,-281.62 459.88,-245.62 568.12,-245.62 568.12,-281.62"/>
<text text-anchor="middle" x="514" y="-258.2" font-family="Arial" font-size="14.00">Anticoagulation</text>
</g>
<!-- AtrialFibrillationCheck&#45;&gt;AnticoagulationTherapy -->
<g id="edge7" class="edge">
<title>AtrialFibrillationCheck&#45;&gt;AnticoagulationTherapy</title>
<path fill="none" stroke="black" d="M447.18,-355.22C459.54,-338.46 479.69,-311.14 494.63,-290.88"/>
<polygon fill="black" stroke="black" points="497.27,-293.2 500.39,-283.07 491.64,-289.04 497.27,-293.2"/>
<text text-anchor="middle" x="489.12" y="-312.45" font-family="Times,serif" font-size="14.00">Yes</text>
</g>
<!-- Monotherapy -->
<g id="node7" class="node">
<title>Monotherapy</title>
<polygon fill="white" stroke="white" points="440.62,-163.75 275.38,-163.75 275.38,-124.25 440.62,-124.25 440.62,-163.75"/>
<text text-anchor="middle" x="358" y="-146.45" font-family="Arial" font-size="14.00">Monotherapy</text>
<text text-anchor="middle" x="358" y="-130.7" font-family="Arial" font-size="14.00">(clopidogrel or ticagrelor)</text>
</g>
<!-- DualAntiplateletTherapy&#45;&gt;Monotherapy -->
<g id="edge5" class="edge">
<title>DualAntiplateletTherapy&#45;&gt;Monotherapy</title>
<path fill="none" stroke="black" d="M358,-235.64C358,-217.72 358,-194.17 358,-175.56"/>
<polygon fill="black" stroke="black" points="361.5,-175.67 358,-165.67 354.5,-175.67 361.5,-175.67"/>
<text text-anchor="middle" x="404.12" y="-204.7" font-family="Times,serif" font-size="14.00">After 21&#45;30 days</text>
</g>
<!-- MildModerateCarotidStenosis -->
<g id="node11" class="node">
<title>MildModerateCarotidStenosis</title>
<polygon fill="white" stroke="white" points="1154.75,-283.38 933.25,-283.38 933.25,-243.88 1154.75,-243.88 1154.75,-283.38"/>
<text text-anchor="middle" x="1044" y="-266.07" font-family="Arial" font-size="14.00">Mild or Moderate Carotid Stenosis</text>
<text text-anchor="middle" x="1044" y="-250.32" font-family="Arial" font-size="14.00">(&lt;50%)</text>
</g>
<!-- CarotidImaging&#45;&gt;MildModerateCarotidStenosis -->
<g id="edge9" class="edge">
<title>CarotidImaging&#45;&gt;MildModerateCarotidStenosis</title>
<path fill="none" stroke="black" d="M1188.95,-351.22C1160.09,-333.98 1117.49,-308.53 1085.94,-289.68"/>
<polygon fill="black" stroke="black" points="1087.79,-286.71 1077.41,-284.59 1084.2,-292.72 1087.79,-286.71"/>
</g>
<!-- SevereCarotidStenosis -->
<g id="node12" class="node">
<title>SevereCarotidStenosis</title>
<polygon fill="white" stroke="white" points="1336.75,-283.38 1175.25,-283.38 1175.25,-243.88 1336.75,-243.88 1336.75,-283.38"/>
<text text-anchor="middle" x="1256" y="-266.07" font-family="Arial" font-size="14.00">Severe Carotid Stenosis</text>
<text text-anchor="middle" x="1256" y="-250.32" font-family="Arial" font-size="14.00">(50&#45;99%)</text>
</g>
<!-- CarotidImaging&#45;&gt;SevereCarotidStenosis -->
<g id="edge10" class="edge">
<title>CarotidImaging&#45;&gt;SevereCarotidStenosis</title>
<path fill="none" stroke="black" d="M1227.26,-351.47C1232.5,-335.63 1240.08,-312.73 1246.14,-294.42"/>
<polygon fill="black" stroke="black" points="1249.38,-295.75 1249.2,-285.16 1242.74,-293.55 1249.38,-295.75"/>
</g>
<!-- NoIntervention -->
<g id="node10" class="node">
<title>NoIntervention</title>
<polygon fill="white" stroke="white" points="1132.5,-163.75 951.5,-163.75 951.5,-124.25 1132.5,-124.25 1132.5,-163.75"/>
<text text-anchor="middle" x="1042" y="-146.45" font-family="Arial" font-size="14.00">No Carotid Intervention</text>
<text text-anchor="middle" x="1042" y="-130.7" font-family="Arial" font-size="14.00">Optimal Medical Treatment</text>
</g>
<!-- MildModerateCarotidStenosis&#45;&gt;NoIntervention -->
<g id="edge11" class="edge">
<title>MildModerateCarotidStenosis&#45;&gt;NoIntervention</title>
<path fill="none" stroke="black" d="M1043.67,-243.46C1043.36,-225.09 1042.89,-197.06 1042.52,-175.6"/>
<polygon fill="black" stroke="black" points="1046.02,-175.6 1042.35,-165.67 1039.02,-175.72 1046.02,-175.6"/>
</g>
<!-- SuitableForSurgery -->
<g id="node14" class="node">
<title>SuitableForSurgery</title>
<polygon fill="white" stroke="white" points="1257,-183.5 1151,-144 1257,-104.5 1363,-144 1257,-183.5"/>
<text text-anchor="middle" x="1257" y="-146.45" font-family="Arial" font-size="14.00">Suitable for</text>
<text text-anchor="middle" x="1257" y="-130.7" font-family="Arial" font-size="14.00"> open surgery?</text>
</g>
<!-- SevereCarotidStenosis&#45;&gt;SuitableForSurgery -->
<g id="edge12" class="edge">
<title>SevereCarotidStenosis&#45;&gt;SuitableForSurgery</title>
<path fill="none" stroke="black" d="M1256.16,-243.46C1256.28,-230.22 1256.43,-211.96 1256.58,-194.75"/>
<polygon fill="black" stroke="black" points="1260.07,-195.21 1256.66,-185.18 1253.07,-195.15 1260.07,-195.21"/>
</g>
<!-- CarotidAngioplasty -->
<g id="node13" class="node">
<title>CarotidAngioplasty</title>
<polygon fill="white" stroke="white" points="1153.75,-52 884.25,-52 884.25,-16 1153.75,-16 1153.75,-52"/>
<text text-anchor="middle" x="1019" y="-28.57" font-family="Arial" font-size="14.00">Consider Carotid Angioplasty and Stenting</text>
</g>
<!-- SuitableForSurgery&#45;&gt;CarotidAngioplasty -->
<g id="edge13" class="edge">
<title>SuitableForSurgery&#45;&gt;CarotidAngioplasty</title>
<path fill="none" stroke="black" d="M1209.98,-121.66C1168.85,-103 1109.36,-76 1067.73,-57.11"/>
<polygon fill="black" stroke="black" points="1069.22,-53.95 1058.67,-53 1066.33,-60.32 1069.22,-53.95"/>
<text text-anchor="middle" x="1138.25" y="-73.2" font-family="Times,serif" font-size="14.00">No</text>
</g>
<!-- ReferForEndarterectomy -->
<g id="node15" class="node">
<title>ReferForEndarterectomy</title>
<polygon fill="white" stroke="white" points="1387.75,-52 1172.25,-52 1172.25,-16 1387.75,-16 1387.75,-52"/>
<text text-anchor="middle" x="1280" y="-28.57" font-family="Arial" font-size="14.00">Refer for Carotid Endarterectomy</text>
</g>
<!-- SuitableForSurgery&#45;&gt;ReferForEndarterectomy -->
<g id="edge14" class="edge">
<title>SuitableForSurgery&#45;&gt;ReferForEndarterectomy</title>
<path fill="none" stroke="black" d="M1264.66,-107.04C1267.69,-92.8 1271.13,-76.67 1273.98,-63.29"/>
<polygon fill="black" stroke="black" points="1277.33,-64.35 1275.99,-53.84 1270.48,-62.89 1277.33,-64.35"/>
<text text-anchor="middle" x="1281.12" y="-73.2" font-family="Times,serif" font-size="14.00">Yes</text>
</g>
</g>
</svg>
