<?xml version="1.0" encoding="UTF-8" standalone="no"?>
<!DOCTYPE svg PUBLIC "-//W3C//DTD SVG 1.1//EN"
 "http://www.w3.org/Graphics/SVG/1.1/DTD/svg11.dtd">
<!-- Generated by graphviz version 11.0.0 (20240428.1522)
 -->
<!-- Title: MyastheniaGravisTreatment Pages: 1 -->
<svg width="456pt" height="1004pt"
 viewBox="0.00 0.00 455.50 1003.50" xmlns="http://www.w3.org/2000/svg" xmlns:xlink="http://www.w3.org/1999/xlink">
<g id="graph0" class="graph" transform="scale(1 1) rotate(0) translate(4 999.5)">
<title>MyastheniaGravisTreatment</title>
<polygon fill="white" stroke="none" points="-4,4 -4,-999.5 451.5,-999.5 451.5,4 -4,4"/>
<!-- StartTreatment -->
<g id="node1" class="node">
<title>StartTreatment</title>
<polygon fill="lightblue" stroke="lightblue" points="362.88,-995.5 67.12,-995.5 67.12,-959.5 362.88,-959.5 362.88,-995.5"/>
<text text-anchor="middle" x="215" y="-972.45" font-family="Times,serif" font-size="14.00">Start Treatment for Generalised Myasthenia Gravis</text>
</g>
<!-- AchRAB -->
<g id="node12" class="node">
<title>AchRAB</title>
<polygon fill="lightblue" stroke="lightblue" points="339.25,-923.5 90.75,-923.5 90.75,-887.5 339.25,-887.5 339.25,-923.5"/>
<text text-anchor="middle" x="215" y="-900.45" font-family="Times,serif" font-size="14.00">ACh&#45;R Ab seropositive &amp; under 45 years?</text>
</g>
<!-- StartTreatment&#45;&gt;AchRAB -->
<g id="edge1" class="edge">
<title>StartTreatment&#45;&gt;AchRAB</title>
<path fill="none" stroke="black" d="M215,-959.2C215,-951.91 215,-943.23 215,-935.04"/>
<polygon fill="black" stroke="black" points="218.5,-935.12 215,-925.12 211.5,-935.12 218.5,-935.12"/>
</g>
<!-- StartPyridostigmine -->
<g id="node2" class="node">
<title>StartPyridostigmine</title>
<polygon fill="lightblue" stroke="lightblue" points="279.25,-762 150.75,-762 150.75,-726 279.25,-726 279.25,-762"/>
<text text-anchor="middle" x="215" y="-738.95" font-family="Times,serif" font-size="14.00">Start Pyridostigmine</text>
</g>
<!-- PyridostigmineProtocol -->
<g id="node3" class="node">
<title>PyridostigmineProtocol</title>
<polygon fill="lightblue" stroke="lightblue" points="335.12,-690 94.88,-690 94.88,-654 335.12,-654 335.12,-690"/>
<text text-anchor="middle" x="215" y="-666.95" font-family="Times,serif" font-size="14.00">Pyridostigmine Dose Escalation Protocol</text>
</g>
<!-- StartPyridostigmine&#45;&gt;PyridostigmineProtocol -->
<g id="edge4" class="edge">
<title>StartPyridostigmine&#45;&gt;PyridostigmineProtocol</title>
<path fill="none" stroke="black" d="M215,-725.7C215,-718.41 215,-709.73 215,-701.54"/>
<polygon fill="black" stroke="black" points="218.5,-701.62 215,-691.62 211.5,-701.62 218.5,-701.62"/>
</g>
<!-- PyridostigmineEffective -->
<g id="node4" class="node">
<title>PyridostigmineEffective</title>
<polygon fill="lightblue" stroke="lightblue" points="294.25,-618 135.75,-618 135.75,-582 294.25,-582 294.25,-618"/>
<text text-anchor="middle" x="215" y="-594.95" font-family="Times,serif" font-size="14.00">Pyridostigmine Effective?</text>
</g>
<!-- PyridostigmineProtocol&#45;&gt;PyridostigmineEffective -->
<g id="edge6" class="edge">
<title>PyridostigmineProtocol&#45;&gt;PyridostigmineEffective</title>
<path fill="none" stroke="black" d="M215,-653.7C215,-646.41 215,-637.73 215,-629.54"/>
<polygon fill="black" stroke="black" points="218.5,-629.62 215,-619.62 211.5,-629.62 218.5,-629.62"/>
</g>
<!-- StartPrednisolone -->
<g id="node5" class="node">
<title>StartPrednisolone</title>
<polygon fill="lightblue" stroke="lightblue" points="221.88,-529.5 106.12,-529.5 106.12,-493.5 221.88,-493.5 221.88,-529.5"/>
<text text-anchor="middle" x="164" y="-506.45" font-family="Times,serif" font-size="14.00">Start Prednisolone</text>
</g>
<!-- PyridostigmineEffective&#45;&gt;StartPrednisolone -->
<g id="edge7" class="edge">
<title>PyridostigmineEffective&#45;&gt;StartPrednisolone</title>
<path fill="none" stroke="black" d="M204.92,-581.91C197.78,-569.79 188.04,-553.27 179.85,-539.39"/>
<polygon fill="black" stroke="black" points="183.09,-537.99 175,-531.15 177.06,-541.55 183.09,-537.99"/>
<text text-anchor="middle" x="203.25" y="-550.7" font-family="Times,serif" font-size="14.00">No</text>
</g>
<!-- Remission -->
<g id="node9" class="node">
<title>Remission</title>
<polygon fill="lightblue" stroke="lightblue" points="328.75,-295 203.25,-295 203.25,-259 328.75,-259 328.75,-295"/>
<text text-anchor="middle" x="266" y="-271.95" font-family="Times,serif" font-size="14.00">Remission achieved</text>
</g>
<!-- PyridostigmineEffective&#45;&gt;Remission -->
<g id="edge8" class="edge">
<title>PyridostigmineEffective&#45;&gt;Remission</title>
<path fill="none" stroke="black" d="M232.84,-581.53C247.54,-565.2 266,-539.35 266,-512.5 266,-512.5 266,-512.5 266,-364.5 266,-345.17 266,-323.4 266,-306.54"/>
<polygon fill="black" stroke="black" points="269.5,-306.75 266,-296.75 262.5,-306.75 269.5,-306.75"/>
<text text-anchor="middle" x="276.12" y="-433.45" font-family="Times,serif" font-size="14.00">Yes</text>
</g>
<!-- PrednisoloneProtocol -->
<g id="node6" class="node">
<title>PrednisoloneProtocol</title>
<polygon fill="lightblue" stroke="lightblue" points="229.75,-456.5 2.25,-456.5 2.25,-420.5 229.75,-420.5 229.75,-456.5"/>
<text text-anchor="middle" x="116" y="-433.45" font-family="Times,serif" font-size="14.00">Prednisolone Dose Escalation Protocol</text>
</g>
<!-- StartPrednisolone&#45;&gt;PrednisoloneProtocol -->
<g id="edge9" class="edge">
<title>StartPrednisolone&#45;&gt;PrednisoloneProtocol</title>
<path fill="none" stroke="black" d="M152.38,-493.31C146.84,-485.12 140.08,-475.12 133.91,-465.98"/>
<polygon fill="black" stroke="black" points="136.86,-464.11 128.36,-457.78 131.06,-468.03 136.86,-464.11"/>
</g>
<!-- PrednisoloneEffective -->
<g id="node7" class="node">
<title>PrednisoloneEffective</title>
<polygon fill="lightblue" stroke="lightblue" points="232,-383.5 0,-383.5 0,-347.5 232,-347.5 232,-383.5"/>
<text text-anchor="middle" x="116" y="-360.45" font-family="Times,serif" font-size="14.00">Prednisolone Effective After 3 months?</text>
</g>
<!-- PrednisoloneProtocol&#45;&gt;PrednisoloneEffective -->
<g id="edge10" class="edge">
<title>PrednisoloneProtocol&#45;&gt;PrednisoloneEffective</title>
<path fill="none" stroke="black" d="M116,-420.31C116,-412.73 116,-403.6 116,-395.04"/>
<polygon fill="black" stroke="black" points="119.5,-395.04 116,-385.04 112.5,-395.04 119.5,-395.04"/>
</g>
<!-- PrednisoloneEffective&#45;&gt;Remission -->
<g id="edge12" class="edge">
<title>PrednisoloneEffective&#45;&gt;Remission</title>
<path fill="none" stroke="black" d="M145.99,-347.2C168.91,-333.99 200.73,-315.64 225.84,-301.16"/>
<polygon fill="black" stroke="black" points="227.58,-304.2 234.49,-296.17 224.08,-298.13 227.58,-304.2"/>
<text text-anchor="middle" x="215.12" y="-316.2" font-family="Times,serif" font-size="14.00">Yes</text>
</g>
<!-- SpecialistOpinion -->
<g id="node10" class="node">
<title>SpecialistOpinion</title>
<polygon fill="lightblue" stroke="lightblue" points="185.25,-295 38.75,-295 38.75,-259 185.25,-259 185.25,-295"/>
<text text-anchor="middle" x="112" y="-271.95" font-family="Times,serif" font-size="14.00">Seek Specialist Opinion</text>
</g>
<!-- PrednisoloneEffective&#45;&gt;SpecialistOpinion -->
<g id="edge11" class="edge">
<title>PrednisoloneEffective&#45;&gt;SpecialistOpinion</title>
<path fill="none" stroke="black" d="M115.21,-347.41C114.67,-335.76 113.94,-320.05 113.32,-306.52"/>
<polygon fill="black" stroke="black" points="116.83,-306.69 112.87,-296.86 109.84,-307.01 116.83,-306.69"/>
<text text-anchor="middle" x="123.25" y="-316.2" font-family="Times,serif" font-size="14.00">No</text>
</g>
<!-- IntroduceImmunosuppression -->
<g id="node8" class="node">
<title>IntroduceImmunosuppression</title>
<polygon fill="lightblue" stroke="lightblue" points="260.25,-46.75 77.75,-46.75 77.75,-10.75 260.25,-10.75 260.25,-46.75"/>
<text text-anchor="middle" x="169" y="-23.7" font-family="Times,serif" font-size="14.00">Introduce Immunosuppression</text>
</g>
<!-- WithdrawalProtocol -->
<g id="node11" class="node">
<title>WithdrawalProtocol</title>
<polygon fill="lightblue" stroke="lightblue" points="367.38,-223 164.62,-223 164.62,-187 367.38,-187 367.38,-223"/>
<text text-anchor="middle" x="266" y="-199.95" font-family="Times,serif" font-size="14.00">Prednisolone Withdrawal Protocol</text>
</g>
<!-- Remission&#45;&gt;WithdrawalProtocol -->
<g id="edge13" class="edge">
<title>Remission&#45;&gt;WithdrawalProtocol</title>
<path fill="none" stroke="black" d="M266,-258.7C266,-251.41 266,-242.73 266,-234.54"/>
<polygon fill="black" stroke="black" points="269.5,-234.62 266,-224.62 262.5,-234.62 269.5,-234.62"/>
</g>
<!-- RelapseonWithdrawing -->
<g id="node13" class="node">
<title>RelapseonWithdrawing</title>
<polygon fill="lightblue" stroke="lightblue" points="368.5,-151 163.5,-151 163.5,-110 368.5,-110 368.5,-151"/>
<text text-anchor="middle" x="266" y="-133.7" font-family="Times,serif" font-size="14.00">Relapse on reducing Prednisolone </text>
<text text-anchor="middle" x="266" y="-117.2" font-family="Times,serif" font-size="14.00"> to &gt;15&#45;20mg on alternate days?</text>
</g>
<!-- WithdrawalProtocol&#45;&gt;RelapseonWithdrawing -->
<g id="edge14" class="edge">
<title>WithdrawalProtocol&#45;&gt;RelapseonWithdrawing</title>
<path fill="none" stroke="black" d="M266,-186.82C266,-179.59 266,-170.95 266,-162.66"/>
<polygon fill="black" stroke="black" points="269.5,-162.89 266,-152.89 262.5,-162.89 269.5,-162.89"/>
</g>
<!-- AchRAB&#45;&gt;StartPyridostigmine -->
<g id="edge3" class="edge">
<title>AchRAB&#45;&gt;StartPyridostigmine</title>
<path fill="none" stroke="black" d="M212.3,-887.32C209.36,-866.45 205.35,-830.14 207.5,-799 208.07,-790.75 209.12,-781.85 210.27,-773.69"/>
<polygon fill="black" stroke="black" points="213.71,-774.35 211.73,-763.94 206.78,-773.31 213.71,-774.35"/>
<text text-anchor="middle" x="216.25" y="-811.95" font-family="Times,serif" font-size="14.00">No</text>
</g>
<!-- Thymectomy -->
<g id="node14" class="node">
<title>Thymectomy</title>
<polygon fill="lightblue" stroke="lightblue" points="374.62,-835 233.38,-835 233.38,-799 374.62,-799 374.62,-835"/>
<text text-anchor="middle" x="304" y="-811.95" font-family="Times,serif" font-size="14.00">Consider Thymectomy</text>
</g>
<!-- AchRAB&#45;&gt;Thymectomy -->
<g id="edge2" class="edge">
<title>AchRAB&#45;&gt;Thymectomy</title>
<path fill="none" stroke="black" d="M232.58,-887.41C245.54,-874.82 263.38,-857.48 277.98,-843.29"/>
<polygon fill="black" stroke="black" points="280.33,-845.88 285.06,-836.41 275.45,-840.86 280.33,-845.88"/>
<text text-anchor="middle" x="277.12" y="-856.2" font-family="Times,serif" font-size="14.00">Yes</text>
</g>
<!-- RelapseonWithdrawing&#45;&gt;IntroduceImmunosuppression -->
<g id="edge15" class="edge">
<title>RelapseonWithdrawing&#45;&gt;IntroduceImmunosuppression</title>
<path fill="none" stroke="black" d="M246.84,-109.79C231.56,-94.08 210.06,-71.97 193.52,-54.97"/>
<polygon fill="black" stroke="black" points="196.39,-52.9 186.91,-48.17 191.37,-57.78 196.39,-52.9"/>
<text text-anchor="middle" x="240.12" y="-78.7" font-family="Times,serif" font-size="14.00">Yes</text>
</g>
<!-- MaintenancePrednisolone -->
<g id="node15" class="node">
<title>MaintenancePrednisolone</title>
<polygon fill="lightblue" stroke="lightblue" points="447.5,-57.5 278.5,-57.5 278.5,0 447.5,0 447.5,-57.5"/>
<text text-anchor="middle" x="363" y="-40.2" font-family="Times,serif" font-size="14.00">Maintain patient on</text>
<text text-anchor="middle" x="363" y="-23.7" font-family="Times,serif" font-size="14.00">lowest dose of Prednisolone</text>
<text text-anchor="middle" x="363" y="-7.2" font-family="Times,serif" font-size="14.00">achieving symptom control</text>
</g>
<!-- RelapseonWithdrawing&#45;&gt;MaintenancePrednisolone -->
<g id="edge16" class="edge">
<title>RelapseonWithdrawing&#45;&gt;MaintenancePrednisolone</title>
<path fill="none" stroke="black" d="M285.16,-109.79C297.37,-97.24 313.55,-80.61 327.99,-65.75"/>
<polygon fill="black" stroke="black" points="330.28,-68.42 334.74,-58.81 325.26,-63.54 330.28,-68.42"/>
<text text-anchor="middle" x="325.25" y="-78.7" font-family="Times,serif" font-size="14.00">No</text>
</g>
<!-- Thymectomy&#45;&gt;StartPyridostigmine -->
<g id="edge5" class="edge">
<title>Thymectomy&#45;&gt;StartPyridostigmine</title>
<path fill="none" stroke="black" d="M282.46,-798.81C271.39,-789.98 257.71,-779.07 245.57,-769.39"/>
<polygon fill="black" stroke="black" points="247.84,-766.72 237.84,-763.22 243.47,-772.19 247.84,-766.72"/>
</g>
</g>
</svg>
