<?xml version="1.0" encoding="UTF-8" standalone="no"?><!DOCTYPE svg PUBLIC "-//W3C//DTD SVG 1.1//EN" "http://www.w3.org/Graphics/SVG/1.1/DTD/svg11.dtd"><!-- Generated by graphviz version 2.40.1 (20161225.0304)
 --><!-- Title: Insulin_Titration Pages: 1 --><svg xmlns="http://www.w3.org/2000/svg" xmlns:xlink="http://www.w3.org/1999/xlink" width="915pt" height="682pt" viewBox="0.00 0.00 914.53 681.60">
<g id="graph0" class="graph" transform="scale(1 1) rotate(0) translate(4 677.6)">
<title>Insulin_Titration</title>
<polygon fill="#ffffff" stroke="transparent" points="-4,4 -4,-677.6 910.5348,-677.6 910.5348,4 -4,4"/>
<!-- Initiate_Insulin -->
<g id="node1" class="node">
<title>Initiate_Insulin</title>
<polygon fill="none" stroke="#000000" points="471.1682,-673.8014 183.0718,-673.8014 183.0718,-614.9986 471.1682,-614.9986 471.1682,-673.8014"/>
<text text-anchor="middle" x="327.12" y="-657" font-family="Times,serif" font-size="14.00" fill="#000000">Start with bedtime intermediate-acting insulin or</text>
<text text-anchor="middle" x="327.12" y="-640.2" font-family="Times,serif" font-size="14.00" fill="#000000">bedtime or morning long-acting insulin;</text>
<text text-anchor="middle" x="327.12" y="-623.4" font-family="Times,serif" font-size="14.00" fill="#000000">can initiate with 10 units or 0.2 units per kg</text>
</g>
<!-- Check_Fasting_Glucose -->
<g id="node2" class="node">
<title>Check_Fasting_Glucose</title>
<polygon fill="none" stroke="#000000" points="525.2046,-578.2 129.0354,-578.2 129.0354,-486.2 525.2046,-486.2 525.2046,-578.2"/>
<text text-anchor="middle" x="327.12" y="-561.6" font-family="Times,serif" font-size="14.00" fill="#000000">Check fasting glucose (fingerstick) usually daily and</text>
<text text-anchor="middle" x="327.12" y="-544.8" font-family="Times,serif" font-size="14.00" fill="#000000">increase dose, typically by 2 units every 3 days until fasting levels</text>
<text text-anchor="middle" x="327.12" y="-528" font-family="Times,serif" font-size="14.00" fill="#000000">are in target range (80-130 mg/dL or 4.4-7.2 mmol/L)*;</text>
<text text-anchor="middle" x="327.12" y="-511.2" font-family="Times,serif" font-size="14.00" fill="#000000">can increase dose in larger increments, e.g., by 4 units every 3 days,</text>
<text text-anchor="middle" x="327.12" y="-494.4" font-family="Times,serif" font-size="14.00" fill="#000000">if fasting glucose &gt;180 mg/dL (&gt;10 mmol/L)</text>
</g>
<!-- Initiate_Insulin&#45;&gt;Check_Fasting_Glucose -->
<g id="edge1" class="edge">
<title>Initiate_Insulin-&gt;Check_Fasting_Glucose</title>
<path fill="none" stroke="#000000" d="M327.12,-614.9208C327.12,-606.8069 327.12,-597.7257 327.12,-588.633"/>
<polygon fill="#000000" stroke="#000000" points="330.6201,-588.4129 327.12,-578.4129 323.6201,-588.4129 330.6201,-588.4129"/>
</g>
<!-- Hypoglycemia -->
<g id="node3" class="node">
<title>Hypoglycemia</title>
<polygon fill="none" stroke="#000000" points="535.6922,-449.0019 94.5478,-449.0019 94.5478,-407.7981 535.6922,-407.7981 535.6922,-449.0019"/>
<text text-anchor="middle" x="315.12" y="-432.6" font-family="Times,serif" font-size="14.00" fill="#000000">If hypoglycemia occurs, or fasting glucose level &lt;80 mg/dL (4.4 mmol/L)*,</text>
<text text-anchor="middle" x="315.12" y="-415.8" font-family="Times,serif" font-size="14.00" fill="#000000">reduce bedtime dose by 4 units or 10% ~ whichever is greater</text>
</g>
<!-- Check_Fasting_Glucose&#45;&gt;Hypoglycemia -->
<g id="edge2" class="edge">
<title>Check_Fasting_Glucose-&gt;Hypoglycemia</title>
<path fill="none" stroke="#000000" d="M321.7867,-486.0673C320.7392,-477.0064 319.6643,-467.7081 318.6917,-459.2955"/>
<polygon fill="#000000" stroke="#000000" points="322.1497,-458.7297 317.5244,-449.1978 315.196,-459.5337 322.1497,-458.7297"/>
</g>
<!-- A1C_2_3_Months -->
<g id="node4" class="node">
<title>A1C_2_3_Months</title>
<polygon fill="none" stroke="#000000" points="730.12,-446.4 553.7903,-428.4 730.12,-410.4 906.4497,-428.4 730.12,-446.4"/>
<text text-anchor="middle" x="730.12" y="-424.2" font-family="Times,serif" font-size="14.00" fill="#000000">A1C ≥7% after 2-3 months?</text>
</g>
<!-- Check_Fasting_Glucose&#45;&gt;A1C_2_3_Months -->
<g id="edge3" class="edge">
<title>Check_Fasting_Glucose-&gt;A1C_2_3_Months</title>
<path fill="none" stroke="#000000" d="M505.9351,-486.1429C564.8778,-470.9611 626.4432,-455.1039 670.1106,-443.8565"/>
<polygon fill="#000000" stroke="#000000" points="671.1685,-447.1983 679.9795,-441.3146 669.4225,-440.4196 671.1685,-447.1983"/>
</g>
<!-- Check_Glucose_Range -->
<g id="node5" class="node">
<title>Check_Glucose_Range</title>
<polygon fill="none" stroke="#000000" points="718.7052,-354.8 257.5348,-354.8 257.5348,-262.8 718.7052,-262.8 718.7052,-354.8"/>
<text text-anchor="middle" x="488.12" y="-338.2" font-family="Times,serif" font-size="14.00" fill="#000000">If fasting glucose in target range (80-130 mg/dL or 4.4-7.2 mmol/L)*,</text>
<text text-anchor="middle" x="488.12" y="-321.4" font-family="Times,serif" font-size="14.00" fill="#000000">check glucose pre-lunch, -dinner, and -bed;</text>
<text text-anchor="middle" x="488.12" y="-304.6" font-family="Times,serif" font-size="14.00" fill="#000000">depending on glucose results, add second injection;</text>
<text text-anchor="middle" x="488.12" y="-287.8" font-family="Times,serif" font-size="14.00" fill="#000000">can usually begin with approximately 4 units and adjust by 2 units every 3 days</text>
<text text-anchor="middle" x="488.12" y="-271" font-family="Times,serif" font-size="14.00" fill="#000000">until glucose in range</text>
</g>
<!-- A1C_2_3_Months&#45;&gt;Check_Glucose_Range -->
<g id="edge4" class="edge">
<title>A1C_2_3_Months-&gt;Check_Glucose_Range</title>
<path fill="none" stroke="#000000" d="M699.4705,-413.2526C671.9769,-399.6648 630.0242,-378.9312 590.7229,-359.5079"/>
<polygon fill="#000000" stroke="#000000" points="591.8463,-356.159 581.3306,-354.8661 588.7448,-362.4344 591.8463,-356.159"/>
<text text-anchor="middle" x="655.0029" y="-377" font-family="Times,serif" font-size="14.00" fill="#000000">Yes</text>
</g>
<!-- Continue_Regimen -->
<g id="node10" class="node">
<title>Continue_Regimen</title>
<polygon fill="none" stroke="#000000" points="875.5231,-49.8019 706.7169,-49.8019 706.7169,-8.5981 875.5231,-8.5981 875.5231,-49.8019"/>
<text text-anchor="middle" x="791.12" y="-33.4" font-family="Times,serif" font-size="14.00" fill="#000000">Continue regimen;</text>
<text text-anchor="middle" x="791.12" y="-16.6" font-family="Times,serif" font-size="14.00" fill="#000000">check A1C every 3 months</text>
</g>
<!-- A1C_2_3_Months&#45;&gt;Continue_Regimen -->
<g id="edge5" class="edge">
<title>A1C_2_3_Months-&gt;Continue_Regimen</title>
<path fill="none" stroke="#000000" d="M748.4121,-412.1569C770.3257,-390.8099 804.12,-351.0414 804.12,-308.8 804.12,-308.8 804.12,-308.8 804.12,-129.2 804.12,-105.9011 800.6068,-79.8015 797.2331,-60.1096"/>
<polygon fill="#000000" stroke="#000000" points="800.6602,-59.3912 795.4488,-50.1667 793.7702,-60.6277 800.6602,-59.3912"/>
<text text-anchor="middle" x="812.6733" y="-200.8" font-family="Times,serif" font-size="14.00" fill="#000000">No</text>
</g>
<!-- Pre_Lunch_Glucose -->
<g id="node6" class="node">
<title>Pre_Lunch_Glucose</title>
<polygon fill="none" stroke="#000000" points="767.9935,-225.6019 550.2465,-225.6019 550.2465,-184.3981 767.9935,-184.3981 767.9935,-225.6019"/>
<text text-anchor="middle" x="659.12" y="-209.2" font-family="Times,serif" font-size="14.00" fill="#000000">Pre-lunch glucose out of range;</text>
<text text-anchor="middle" x="659.12" y="-192.4" font-family="Times,serif" font-size="14.00" fill="#000000">add rapid-acting insulin at breakfast</text>
</g>
<!-- Check_Glucose_Range&#45;&gt;Pre_Lunch_Glucose -->
<g id="edge6" class="edge">
<title>Check_Glucose_Range-&gt;Pre_Lunch_Glucose</title>
<path fill="none" stroke="#000000" d="M564.1189,-262.6673C581.8653,-251.8949 600.1646,-240.787 615.9074,-231.2308"/>
<polygon fill="#000000" stroke="#000000" points="618.1255,-233.9788 624.8577,-225.7978 614.4931,-227.995 618.1255,-233.9788"/>
</g>
<!-- Pre_Dinner_Glucose -->
<g id="node7" class="node">
<title>Pre_Dinner_Glucose</title>
<polygon fill="none" stroke="#000000" points="312.3601,-225.6019 -.1201,-225.6019 -.1201,-184.3981 312.3601,-184.3981 312.3601,-225.6019"/>
<text text-anchor="middle" x="156.12" y="-209.2" font-family="Times,serif" font-size="14.00" fill="#000000">Pre-dinner glucose out of range;</text>
<text text-anchor="middle" x="156.12" y="-192.4" font-family="Times,serif" font-size="14.00" fill="#000000">add NPH insulin at breakfast or rapid-acting at lunch</text>
</g>
<!-- Check_Glucose_Range&#45;&gt;Pre_Dinner_Glucose -->
<g id="edge7" class="edge">
<title>Check_Glucose_Range-&gt;Pre_Dinner_Glucose</title>
<path fill="none" stroke="#000000" d="M340.5665,-262.6673C303.0565,-250.9398 264.2743,-238.8145 232.009,-228.7267"/>
<polygon fill="#000000" stroke="#000000" points="232.8023,-225.3078 222.2135,-225.6642 230.7134,-231.9888 232.8023,-225.3078"/>
</g>
<!-- Pre_Bed_Glucose -->
<g id="node8" class="node">
<title>Pre_Bed_Glucose</title>
<polygon fill="none" stroke="#000000" points="531.9589,-225.6019 330.2811,-225.6019 330.2811,-184.3981 531.9589,-184.3981 531.9589,-225.6019"/>
<text text-anchor="middle" x="431.12" y="-209.2" font-family="Times,serif" font-size="14.00" fill="#000000">Pre-bed glucose out of range;</text>
<text text-anchor="middle" x="431.12" y="-192.4" font-family="Times,serif" font-size="14.00" fill="#000000">add rapid-acting insulin at dinner</text>
</g>
<!-- Check_Glucose_Range&#45;&gt;Pre_Bed_Glucose -->
<g id="edge8" class="edge">
<title>Check_Glucose_Range-&gt;Pre_Bed_Glucose</title>
<path fill="none" stroke="#000000" d="M462.787,-262.6673C457.5903,-253.2037 452.2513,-243.4811 447.4727,-234.7792"/>
<polygon fill="#000000" stroke="#000000" points="450.4221,-232.8785 442.5408,-225.7978 444.2863,-236.2479 450.4221,-232.8785"/>
</g>
<!-- A1C_3_Months -->
<g id="node9" class="node">
<title>A1C_3_Months</title>
<polygon fill="none" stroke="#000000" points="444.12,-147.2 279.0401,-129.2 444.12,-111.2 609.1999,-129.2 444.12,-147.2"/>
<text text-anchor="middle" x="444.12" y="-125" font-family="Times,serif" font-size="14.00" fill="#000000">A1C ≥7% after 3 months?</text>
</g>
<!-- Pre_Lunch_Glucose&#45;&gt;A1C_3_Months -->
<g id="edge9" class="edge">
<title>Pre_Lunch_Glucose-&gt;A1C_3_Months</title>
<path fill="none" stroke="#000000" d="M600.6543,-184.3874C566.8474,-172.4685 524.8063,-157.6466 492.8082,-146.3654"/>
<polygon fill="#000000" stroke="#000000" points="493.8153,-143.0094 483.2205,-142.9852 491.4877,-149.6111 493.8153,-143.0094"/>
</g>
<!-- Pre_Dinner_Glucose&#45;&gt;A1C_3_Months -->
<g id="edge10" class="edge">
<title>Pre_Dinner_Glucose-&gt;A1C_3_Months</title>
<path fill="none" stroke="#000000" d="M234.4368,-184.3874C282.1867,-171.8199 342.1997,-156.0248 385.7744,-144.5562"/>
<polygon fill="#000000" stroke="#000000" points="386.8646,-147.8886 395.6444,-141.9585 385.0829,-141.1191 386.8646,-147.8886"/>
</g>
<!-- Pre_Bed_Glucose&#45;&gt;A1C_3_Months -->
<g id="edge11" class="edge">
<title>Pre_Bed_Glucose-&gt;A1C_3_Months</title>
<path fill="none" stroke="#000000" d="M434.6723,-184.2873C436.1096,-175.9068 437.7908,-166.1039 439.3334,-157.1093"/>
<polygon fill="#000000" stroke="#000000" points="442.8169,-157.5033 441.0577,-147.0556 435.9176,-156.32 442.8169,-157.5033"/>
</g>
<!-- A1C_3_Months&#45;&gt;Continue_Regimen -->
<g id="edge12" class="edge">
<title>A1C_3_Months-&gt;Continue_Regimen</title>
<path fill="none" stroke="#000000" d="M489.4842,-116.1267C545.2525,-100.0552 640.9275,-72.4831 709.5821,-52.698"/>
<polygon fill="#000000" stroke="#000000" points="710.8677,-55.97 719.5074,-49.8376 708.9293,-49.2437 710.8677,-55.97"/>
<text text-anchor="middle" x="625.6733" y="-80.6" font-family="Times,serif" font-size="14.00" fill="#000000">No</text>
</g>
<!-- Recheck_Glucose_Levels -->
<g id="node11" class="node">
<title>Recheck_Glucose_Levels</title>
<polygon fill="none" stroke="#000000" points="663.6006,-58.6014 224.6394,-58.6014 224.6394,.2014 663.6006,.2014 663.6006,-58.6014"/>
<text text-anchor="middle" x="444.12" y="-41.8" font-family="Times,serif" font-size="14.00" fill="#000000">Recheck pre-meal glucose levels and if out of range,</text>
<text text-anchor="middle" x="444.12" y="-25" font-family="Times,serif" font-size="14.00" fill="#000000">may need to add another injection; if A1C continues to be out of range,</text>
<text text-anchor="middle" x="444.12" y="-8.2" font-family="Times,serif" font-size="14.00" fill="#000000">check 2-hour postprandial levels and adjust preprandial rapid-acting insulin</text>
</g>
<!-- A1C_3_Months&#45;&gt;Recheck_Glucose_Levels -->
<g id="edge13" class="edge">
<title>A1C_3_Months-&gt;Recheck_Glucose_Levels</title>
<path fill="none" stroke="#000000" d="M444.12,-110.8585C444.12,-99.0616 444.12,-83.2707 444.12,-68.7196"/>
<polygon fill="#000000" stroke="#000000" points="447.6201,-68.4182 444.12,-58.4182 440.6201,-68.4182 447.6201,-68.4182"/>
<text text-anchor="middle" x="455.0029" y="-80.6" font-family="Times,serif" font-size="14.00" fill="#000000">Yes</text>
</g>
</g>
</svg>