<?xml version="1.0" encoding="UTF-8" standalone="no"?>
<!DOCTYPE svg PUBLIC "-//W3C//DTD SVG 1.1//EN"
 "http://www.w3.org/Graphics/SVG/1.1/DTD/svg11.dtd">
<!-- Generated by graphviz version 11.0.0 (20240428.1522)
 -->
<!-- Title: GTCS_Treatment Pages: 1 -->
<svg width="387pt" height="537pt"
 viewBox="0.00 0.00 386.88 537.00" xmlns="http://www.w3.org/2000/svg" xmlns:xlink="http://www.w3.org/1999/xlink">
<g id="graph0" class="graph" transform="scale(1 1) rotate(0) translate(4 533)">
<title>GTCS_Treatment</title>
<polygon fill="white" stroke="none" points="-4,4 -4,-533 382.88,-533 382.88,4 -4,4"/>
<!-- Patient_Characteristics -->
<g id="node1" class="node">
<title>Patient_Characteristics</title>
<polygon fill="none" stroke="black" points="219.62,-529 124.88,-529 124.88,-493 219.62,-493 219.62,-529"/>
<text text-anchor="middle" x="172.25" y="-513.35" font-family="Times,serif" font-size="7.00">Epilepsy &#160;with generalised </text>
<text text-anchor="middle" x="172.25" y="-504.35" font-family="Times,serif" font-size="7.00"> tonic&#45;clonic seizures</text>
</g>
<!-- Women_Girls -->
<g id="node2" class="node">
<title>Women_Girls</title>
<polygon fill="none" stroke="black" points="80.5,-457 0,-457 0,-421 80.5,-421 80.5,-457"/>
<text text-anchor="middle" x="40.25" y="-441.35" font-family="Times,serif" font-size="7.00">Women and Girls</text>
<text text-anchor="middle" x="40.25" y="-432.35" font-family="Times,serif" font-size="7.00">(able to have children)</text>
</g>
<!-- Patient_Characteristics&#45;&gt;Women_Girls -->
<g id="edge1" class="edge">
<title>Patient_Characteristics&#45;&gt;Women_Girls</title>
<path fill="none" stroke="black" d="M139.28,-492.52C122.22,-483.47 101.2,-472.32 82.91,-462.62"/>
<polygon fill="black" stroke="black" points="84.61,-459.56 74.14,-457.97 81.33,-465.75 84.61,-459.56"/>
</g>
<!-- Girls_Young -->
<g id="node3" class="node">
<title>Girls_Young</title>
<polygon fill="none" stroke="black" points="179.5,-457 99,-457 99,-421 179.5,-421 179.5,-457"/>
<text text-anchor="middle" x="139.25" y="-445.85" font-family="Times,serif" font-size="7.00">Girls (Under 10 years)</text>
<text text-anchor="middle" x="139.25" y="-436.85" font-family="Times,serif" font-size="7.00">Unlikely to need </text>
<text text-anchor="middle" x="139.25" y="-427.85" font-family="Times,serif" font-size="7.00"> treatment when older</text>
</g>
<!-- Patient_Characteristics&#45;&gt;Girls_Young -->
<g id="edge2" class="edge">
<title>Patient_Characteristics&#45;&gt;Girls_Young</title>
<path fill="none" stroke="black" d="M164.09,-492.7C160.5,-485.07 156.18,-475.92 152.17,-467.4"/>
<polygon fill="black" stroke="black" points="155.39,-466.03 147.96,-458.47 149.06,-469.01 155.39,-466.03"/>
</g>
<!-- Women_Unable -->
<g id="node4" class="node">
<title>Women_Unable</title>
<polygon fill="none" stroke="black" points="303.25,-457 197.25,-457 197.25,-421 303.25,-421 303.25,-457"/>
<text text-anchor="middle" x="250.25" y="-436.85" font-family="Times,serif" font-size="7.00">Women unable to have children</text>
</g>
<!-- Patient_Characteristics&#45;&gt;Women_Unable -->
<g id="edge3" class="edge">
<title>Patient_Characteristics&#45;&gt;Women_Unable</title>
<path fill="none" stroke="black" d="M191.53,-492.7C200.91,-484.28 212.34,-474.02 222.63,-464.79"/>
<polygon fill="black" stroke="black" points="224.69,-467.64 229.79,-458.36 220.01,-462.43 224.69,-467.64"/>
</g>
<!-- Boys_Men -->
<g id="node5" class="node">
<title>Boys_Men</title>
<polygon fill="none" stroke="black" points="378.88,-457 321.62,-457 321.62,-421 378.88,-421 378.88,-457"/>
<text text-anchor="middle" x="350.25" y="-436.85" font-family="Times,serif" font-size="7.00">Boys and Men</text>
</g>
<!-- Patient_Characteristics&#45;&gt;Boys_Men -->
<g id="edge4" class="edge">
<title>Patient_Characteristics&#45;&gt;Boys_Men</title>
<path fill="none" stroke="black" d="M219.83,-492.78C244.6,-483.63 275.56,-471.92 310.74,-457.52"/>
<polygon fill="black" stroke="black" points="311.97,-460.8 319.88,-453.75 309.3,-454.32 311.97,-460.8"/>
</g>
<!-- First_Line_women -->
<g id="node9" class="node">
<title>First_Line_women</title>
<polygon fill="none" stroke="black" points="115,-385 1.5,-385 1.5,-349 115,-349 115,-385"/>
<text text-anchor="middle" x="58.25" y="-373.85" font-family="Times,serif" font-size="7.00">First&#45;Line Monotherapy Options:</text>
<text text-anchor="middle" x="58.25" y="-364.85" font-family="Times,serif" font-size="7.00"> &#45; Lamotrigine</text>
<text text-anchor="middle" x="58.25" y="-355.85" font-family="Times,serif" font-size="7.00">&#45; Levetiracetam</text>
</g>
<!-- Women_Girls&#45;&gt;First_Line_women -->
<g id="edge5" class="edge">
<title>Women_Girls&#45;&gt;First_Line_women</title>
<path fill="none" stroke="black" d="M44.7,-420.7C46.6,-413.32 48.86,-404.52 50.99,-396.25"/>
<polygon fill="black" stroke="black" points="54.37,-397.13 53.47,-386.57 47.59,-395.38 54.37,-397.13"/>
</g>
<!-- First_Line -->
<g id="node8" class="node">
<title>First_Line</title>
<polygon fill="none" stroke="black" points="290.12,-385 204.38,-385 204.38,-349 290.12,-349 290.12,-385"/>
<text text-anchor="middle" x="247.25" y="-369.35" font-family="Times,serif" font-size="7.00">Offer Sodium Valproate </text>
<text text-anchor="middle" x="247.25" y="-360.35" font-family="Times,serif" font-size="7.00"> as monotherapy</text>
</g>
<!-- Girls_Young&#45;&gt;First_Line -->
<g id="edge9" class="edge">
<title>Girls_Young&#45;&gt;First_Line</title>
<path fill="none" stroke="black" d="M166.22,-420.52C179.86,-411.68 196.59,-400.84 211.3,-391.3"/>
<polygon fill="black" stroke="black" points="212.86,-394.46 219.35,-386.08 209.05,-388.59 212.86,-394.46"/>
</g>
<!-- Women_Unable&#45;&gt;First_Line -->
<g id="edge10" class="edge">
<title>Women_Unable&#45;&gt;First_Line</title>
<path fill="none" stroke="black" d="M249.51,-420.7C249.2,-413.41 248.82,-404.73 248.47,-396.54"/>
<polygon fill="black" stroke="black" points="251.97,-396.46 248.05,-386.62 244.98,-396.76 251.97,-396.46"/>
</g>
<!-- Boys_Men&#45;&gt;First_Line -->
<g id="edge11" class="edge">
<title>Boys_Men&#45;&gt;First_Line</title>
<path fill="none" stroke="black" d="M324.52,-420.52C311.65,-411.76 295.87,-401.04 281.94,-391.58"/>
<polygon fill="black" stroke="black" points="284.14,-388.84 273.9,-386.11 280.2,-394.63 284.14,-388.84"/>
</g>
<!-- Treatment_Unsuccessful -->
<g id="node6" class="node">
<title>Treatment_Unsuccessful</title>
<polygon fill="none" stroke="lightcoral" points="211,-241 115.5,-241 115.5,-205 211,-205 211,-241"/>
<text text-anchor="middle" x="163.25" y="-220.85" font-family="Times,serif" font-size="7.00">Monotherapy Unsuccessful</text>
</g>
<!-- Add_On_First_Line -->
<g id="node11" class="node">
<title>Add_On_First_Line</title>
<polygon fill="none" stroke="black" points="212.12,-169 114.38,-169 114.38,-98 212.12,-98 212.12,-169"/>
<text text-anchor="middle" x="163.25" y="-158.35" font-family="Times,serif" font-size="7.00">First&#45;Line Add&#45;On Options:</text>
<text text-anchor="middle" x="163.25" y="-149.35" font-family="Times,serif" font-size="7.00">&#45; Clobazam</text>
<text text-anchor="middle" x="163.25" y="-140.35" font-family="Times,serif" font-size="7.00">&#45; Lamotrigine</text>
<text text-anchor="middle" x="163.25" y="-131.35" font-family="Times,serif" font-size="7.00">&#45; Levetiracetam</text>
<text text-anchor="middle" x="163.25" y="-122.35" font-family="Times,serif" font-size="7.00">&#45; Perampanel</text>
<text text-anchor="middle" x="163.25" y="-113.35" font-family="Times,serif" font-size="7.00">&#45; Sodium valproate</text>
<text text-anchor="middle" x="163.25" y="-104.35" font-family="Times,serif" font-size="7.00">&#45; Topiramate</text>
</g>
<!-- Treatment_Unsuccessful&#45;&gt;Add_On_First_Line -->
<g id="edge15" class="edge">
<title>Treatment_Unsuccessful&#45;&gt;Add_On_First_Line</title>
<path fill="none" stroke="black" d="M163.25,-204.71C163.25,-197.8 163.25,-189.47 163.25,-181"/>
<polygon fill="black" stroke="black" points="166.75,-181 163.25,-171 159.75,-181 166.75,-181"/>
</g>
<!-- Valproate_women -->
<g id="node7" class="node">
<title>Valproate_women</title>
<polygon fill="none" stroke="black" points="151.75,-313 42.75,-313 42.75,-277 151.75,-277 151.75,-313"/>
<text text-anchor="middle" x="97.25" y="-301.85" font-family="Times,serif" font-size="7.00">Consider Sodium Valproate </text>
<text text-anchor="middle" x="97.25" y="-292.85" font-family="Times,serif" font-size="7.00"> if other options unsuccessful </text>
<text text-anchor="middle" x="97.25" y="-283.85" font-family="Times,serif" font-size="7.00"> Following MHRA safety advice</text>
</g>
<!-- Valproate_women&#45;&gt;Treatment_Unsuccessful -->
<g id="edge8" class="edge">
<title>Valproate_women&#45;&gt;Treatment_Unsuccessful</title>
<path fill="none" stroke="black" d="M113.56,-276.7C121.32,-268.47 130.74,-258.48 139.28,-249.42"/>
<polygon fill="black" stroke="black" points="141.77,-251.88 146.08,-242.21 136.68,-247.08 141.77,-251.88"/>
</g>
<!-- Second_Line -->
<g id="node10" class="node">
<title>Second_Line</title>
<polygon fill="none" stroke="black" points="298.75,-313 177.75,-313 177.75,-277 298.75,-277 298.75,-313"/>
<text text-anchor="middle" x="238.25" y="-301.85" font-family="Times,serif" font-size="7.00">Second&#45;Line Monotherapy Options:</text>
<text text-anchor="middle" x="238.25" y="-292.85" font-family="Times,serif" font-size="7.00">&#45; Lamotrigine</text>
<text text-anchor="middle" x="238.25" y="-283.85" font-family="Times,serif" font-size="7.00">&#45; Levetiracetam</text>
</g>
<!-- First_Line&#45;&gt;Second_Line -->
<g id="edge12" class="edge">
<title>First_Line&#45;&gt;Second_Line</title>
<path fill="none" stroke="black" d="M245.03,-348.7C244.08,-341.32 242.95,-332.52 241.88,-324.25"/>
<polygon fill="black" stroke="black" points="245.39,-324.08 240.64,-314.61 238.45,-324.97 245.39,-324.08"/>
</g>
<!-- First_Line_women&#45;&gt;Valproate_women -->
<g id="edge6" class="edge">
<title>First_Line_women&#45;&gt;Valproate_women</title>
<path fill="none" stroke="black" d="M67.89,-348.7C72.19,-340.98 77.35,-331.71 82.14,-323.11"/>
<polygon fill="black" stroke="black" points="85.17,-324.87 86.98,-314.43 79.06,-321.46 85.17,-324.87"/>
</g>
<!-- First_Line_women&#45;&gt;First_Line_women -->
<g id="edge7" class="edge">
<title>First_Line_women&#45;&gt;First_Line_women</title>
<path fill="none" stroke="black" d="M115.28,-373.38C125.7,-372.57 133,-370.45 133,-367 133,-365.01 130.56,-363.46 126.49,-362.35"/>
<polygon fill="black" stroke="black" points="127.2,-358.92 116.78,-360.85 126.13,-365.83 127.2,-358.92"/>
<text text-anchor="middle" x="158.12" y="-369.35" font-family="Times,serif" font-size="7.00">If one drugs fails,</text>
<text text-anchor="middle" x="158.12" y="-360.35" font-family="Times,serif" font-size="7.00"> try the other</text>
</g>
<!-- Second_Line&#45;&gt;Treatment_Unsuccessful -->
<g id="edge13" class="edge">
<title>Second_Line&#45;&gt;Treatment_Unsuccessful</title>
<path fill="none" stroke="black" d="M219.71,-276.7C210.79,-268.37 199.92,-258.22 190.11,-249.07"/>
<polygon fill="black" stroke="black" points="192.64,-246.64 182.94,-242.38 187.86,-251.76 192.64,-246.64"/>
</g>
<!-- Second_Line&#45;&gt;Second_Line -->
<g id="edge14" class="edge">
<title>Second_Line&#45;&gt;Second_Line</title>
<path fill="none" stroke="black" d="M299.14,-301.3C309.54,-300.44 316.75,-298.34 316.75,-295 316.75,-293.07 314.34,-291.55 310.3,-290.45"/>
<polygon fill="black" stroke="black" points="311.06,-287.03 300.64,-288.93 309.97,-293.94 311.06,-287.03"/>
<text text-anchor="middle" x="341.88" y="-297.35" font-family="Times,serif" font-size="7.00">If one drugs fails,</text>
<text text-anchor="middle" x="341.88" y="-288.35" font-family="Times,serif" font-size="7.00"> try the other</text>
</g>
<!-- Add_On_Second_Line -->
<g id="node12" class="node">
<title>Add_On_Second_Line</title>
<polygon fill="none" stroke="black" points="215.88,-62 110.62,-62 110.62,0 215.88,0 215.88,-62"/>
<text text-anchor="middle" x="163.25" y="-51.35" font-family="Times,serif" font-size="7.00">Second&#45;Line Add&#45;On Options:</text>
<text text-anchor="middle" x="163.25" y="-42.35" font-family="Times,serif" font-size="7.00">&#45; Brivaracetam</text>
<text text-anchor="middle" x="163.25" y="-33.35" font-family="Times,serif" font-size="7.00">&#45; Lacosamide</text>
<text text-anchor="middle" x="163.25" y="-24.35" font-family="Times,serif" font-size="7.00">&#45; Phenobarbital</text>
<text text-anchor="middle" x="163.25" y="-15.35" font-family="Times,serif" font-size="7.00">&#45; Primidone</text>
<text text-anchor="middle" x="163.25" y="-6.35" font-family="Times,serif" font-size="7.00">&#45; Zonisamide</text>
</g>
<!-- Add_On_First_Line&#45;&gt;Add_On_Second_Line -->
<g id="edge16" class="edge">
<title>Add_On_First_Line&#45;&gt;Add_On_Second_Line</title>
<path fill="none" stroke="black" d="M163.25,-97.63C163.25,-89.94 163.25,-81.71 163.25,-73.77"/>
<polygon fill="black" stroke="black" points="166.75,-73.96 163.25,-63.96 159.75,-73.96 166.75,-73.96"/>
</g>
</g>
</svg>
