<?xml version="1.0" encoding="UTF-8" standalone="no"?>
<!DOCTYPE svg PUBLIC "-//W3C//DTD SVG 1.1//EN"
 "http://www.w3.org/Graphics/SVG/1.1/DTD/svg11.dtd">
<!-- Generated by graphviz version 2.43.0 (0)
 -->
<!-- Title: %3 Pages: 1 -->
<svg width="300pt" height="1001pt"
 viewBox="0.00 0.00 300.47 1001.00" xmlns="http://www.w3.org/2000/svg" xmlns:xlink="http://www.w3.org/1999/xlink">
<g id="graph0" class="graph" transform="scale(1 1) rotate(0) translate(4 997)">
<title>%3</title>
<polygon fill="white" stroke="transparent" points="-4,4 -4,-997 296.47,-997 296.47,4 -4,4"/>
<!-- InitialPopulation -->
<g id="node1" class="node">
<title>InitialPopulation</title>
<g id="a_node1"><a xlink:title="All registered patients within the healthcare facility&#39;s EHR system.">
<path fill="none" stroke="green" d="M203.74,-993C203.74,-993 88.74,-993 88.74,-993 82.74,-993 76.74,-987 76.74,-981 76.74,-981 76.74,-969 76.74,-969 76.74,-963 82.74,-957 88.74,-957 88.74,-957 203.74,-957 203.74,-957 209.74,-957 215.74,-963 215.74,-969 215.74,-969 215.74,-981 215.74,-981 215.74,-987 209.74,-993 203.74,-993"/>
<text text-anchor="middle" x="146.24" y="-971.3" font-family="Times,serif" font-size="14.00" fill="green">Initial Population</text>
</a>
</g>
</g>
<!-- AppointmentLast12Months -->
<g id="node4" class="node">
<title>AppointmentLast12Months</title>
<g id="a_node4"><a xlink:title="Patients with at least one appointment scheduled within the last 12 months.">
<ellipse fill="none" stroke="blue" cx="146.24" cy="-888" rx="146.47" ry="18"/>
<text text-anchor="middle" x="146.24" y="-884.3" font-family="Times,serif" font-size="14.00" fill="blue">Appointment Last 12 Months</text>
</a>
</g>
</g>
<!-- InitialPopulation&#45;&gt;AppointmentLast12Months -->
<g id="edge1" class="edge">
<title>InitialPopulation&#45;&gt;AppointmentLast12Months</title>
<path fill="none" stroke="blue" d="M146.24,-956.8C146.24,-945.16 146.24,-929.55 146.24,-916.24"/>
<polygon fill="blue" stroke="blue" points="149.74,-916.18 146.24,-906.18 142.74,-916.18 149.74,-916.18"/>
<text text-anchor="middle" x="151.24" y="-927.8" font-family="Times,serif" font-size="14.00" fill="blue">if</text>
</g>
<!-- SubsetInConsideration -->
<g id="node2" class="node">
<title>SubsetInConsideration</title>
<g id="a_node2"><a xlink:title="Patients with at least one appointment scheduled within the last 12 months.">
<path fill="none" stroke="green" d="M228.24,-471C228.24,-471 64.24,-471 64.24,-471 58.24,-471 52.24,-465 52.24,-459 52.24,-459 52.24,-447 52.24,-447 52.24,-441 58.24,-435 64.24,-435 64.24,-435 228.24,-435 228.24,-435 234.24,-435 240.24,-441 240.24,-447 240.24,-447 240.24,-459 240.24,-459 240.24,-465 234.24,-471 228.24,-471"/>
<text text-anchor="middle" x="146.24" y="-449.3" font-family="Times,serif" font-size="14.00" fill="green">Subset in Consideration</text>
</a>
</g>
</g>
<!-- Diagnostic -->
<g id="node9" class="node">
<title>Diagnostic</title>
<g id="a_node9"><a xlink:title="Verify the integrity and completeness of the appointment data.">
<ellipse fill="none" stroke="blue" cx="146.24" cy="-366" rx="59.59" ry="18"/>
<text text-anchor="middle" x="146.24" y="-362.3" font-family="Times,serif" font-size="14.00" fill="blue">Diagnostic</text>
</a>
</g>
</g>
<!-- SubsetInConsideration&#45;&gt;Diagnostic -->
<g id="edge7" class="edge">
<title>SubsetInConsideration&#45;&gt;Diagnostic</title>
<path fill="none" stroke="blue" d="M146.24,-434.8C146.24,-423.16 146.24,-407.55 146.24,-394.24"/>
<polygon fill="blue" stroke="blue" points="149.74,-394.18 146.24,-384.18 142.74,-394.18 149.74,-394.18"/>
<text text-anchor="middle" x="151.24" y="-405.8" font-family="Times,serif" font-size="14.00" fill="blue">if</text>
</g>
<!-- FinalPopulation -->
<g id="node3" class="node">
<title>FinalPopulation</title>
<g id="a_node3"><a xlink:title="Patients meeting all criteria for appointment record retrieval.">
<path fill="none" stroke="green" d="M200.74,-36C200.74,-36 91.74,-36 91.74,-36 85.74,-36 79.74,-30 79.74,-24 79.74,-24 79.74,-12 79.74,-12 79.74,-6 85.74,0 91.74,0 91.74,0 200.74,0 200.74,0 206.74,0 212.74,-6 212.74,-12 212.74,-12 212.74,-24 212.74,-24 212.74,-30 206.74,-36 200.74,-36"/>
<text text-anchor="middle" x="146.24" y="-14.3" font-family="Times,serif" font-size="14.00" fill="green">Final Population</text>
</a>
</g>
</g>
<!-- NotOptedOut -->
<g id="node5" class="node">
<title>NotOptedOut</title>
<g id="a_node5"><a xlink:title="Patients who have not opted out of data sharing or have unrestricted access to their appointment records.">
<ellipse fill="none" stroke="blue" cx="146.24" cy="-801" rx="79.09" ry="18"/>
<text text-anchor="middle" x="146.24" y="-797.3" font-family="Times,serif" font-size="14.00" fill="blue">Not Opted Out</text>
</a>
</g>
</g>
<!-- AppointmentLast12Months&#45;&gt;NotOptedOut -->
<g id="edge2" class="edge">
<title>AppointmentLast12Months&#45;&gt;NotOptedOut</title>
<path fill="none" stroke="blue" d="M146.24,-869.8C146.24,-858.16 146.24,-842.55 146.24,-829.24"/>
<polygon fill="blue" stroke="blue" points="149.74,-829.18 146.24,-819.18 142.74,-829.18 149.74,-829.18"/>
<text text-anchor="middle" x="159.74" y="-840.8" font-family="Times,serif" font-size="14.00" fill="blue">and</text>
</g>
<!-- NotDeceased -->
<g id="node6" class="node">
<title>NotDeceased</title>
<g id="a_node6"><a xlink:title="Patients who are not deceased and whose records are active in the EHR system.">
<ellipse fill="none" stroke="blue" cx="146.24" cy="-714" rx="75.29" ry="18"/>
<text text-anchor="middle" x="146.24" y="-710.3" font-family="Times,serif" font-size="14.00" fill="blue">Not Deceased</text>
</a>
</g>
</g>
<!-- NotOptedOut&#45;&gt;NotDeceased -->
<g id="edge3" class="edge">
<title>NotOptedOut&#45;&gt;NotDeceased</title>
<path fill="none" stroke="blue" d="M146.24,-782.8C146.24,-771.16 146.24,-755.55 146.24,-742.24"/>
<polygon fill="blue" stroke="blue" points="149.74,-742.18 146.24,-732.18 142.74,-742.18 149.74,-742.18"/>
<text text-anchor="middle" x="159.74" y="-753.8" font-family="Times,serif" font-size="14.00" fill="blue">and</text>
</g>
<!-- NotCanceled -->
<g id="node7" class="node">
<title>NotCanceled</title>
<g id="a_node7"><a xlink:title="Patients whose appointments were not canceled without rescheduling within the 12&#45;month period.">
<ellipse fill="none" stroke="blue" cx="146.24" cy="-627" rx="73.39" ry="18"/>
<text text-anchor="middle" x="146.24" y="-623.3" font-family="Times,serif" font-size="14.00" fill="blue">Not Canceled</text>
</a>
</g>
</g>
<!-- NotDeceased&#45;&gt;NotCanceled -->
<g id="edge4" class="edge">
<title>NotDeceased&#45;&gt;NotCanceled</title>
<path fill="none" stroke="blue" d="M146.24,-695.8C146.24,-684.16 146.24,-668.55 146.24,-655.24"/>
<polygon fill="blue" stroke="blue" points="149.74,-655.18 146.24,-645.18 142.74,-655.18 149.74,-655.18"/>
<text text-anchor="middle" x="159.74" y="-666.8" font-family="Times,serif" font-size="14.00" fill="blue">and</text>
</g>
<!-- NotNoShow -->
<g id="node8" class="node">
<title>NotNoShow</title>
<g id="a_node8"><a xlink:title="Patients whose appointments are not marked as &#39;no&#45;show&#39; without follow&#45;up or rescheduling.">
<ellipse fill="none" stroke="blue" cx="146.24" cy="-540" rx="72.29" ry="18"/>
<text text-anchor="middle" x="146.24" y="-536.3" font-family="Times,serif" font-size="14.00" fill="blue">Not No&#45;Show</text>
</a>
</g>
</g>
<!-- NotCanceled&#45;&gt;NotNoShow -->
<g id="edge5" class="edge">
<title>NotCanceled&#45;&gt;NotNoShow</title>
<path fill="none" stroke="blue" d="M146.24,-608.8C146.24,-597.16 146.24,-581.55 146.24,-568.24"/>
<polygon fill="blue" stroke="blue" points="149.74,-568.18 146.24,-558.18 142.74,-568.18 149.74,-568.18"/>
<text text-anchor="middle" x="159.74" y="-579.8" font-family="Times,serif" font-size="14.00" fill="blue">and</text>
</g>
<!-- NotNoShow&#45;&gt;SubsetInConsideration -->
<g id="edge6" class="edge">
<title>NotNoShow&#45;&gt;SubsetInConsideration</title>
<path fill="none" stroke="blue" d="M146.24,-521.8C146.24,-510.16 146.24,-494.55 146.24,-481.24"/>
<polygon fill="blue" stroke="blue" points="149.74,-481.18 146.24,-471.18 142.74,-481.18 149.74,-481.18"/>
<text text-anchor="middle" x="162.74" y="-492.8" font-family="Times,serif" font-size="14.00" fill="blue">then</text>
</g>
<!-- Administrative -->
<g id="node10" class="node">
<title>Administrative</title>
<g id="a_node10"><a xlink:title="Generate a comprehensive report of all appointments for the subset of patients.">
<ellipse fill="none" stroke="blue" cx="146.24" cy="-279" rx="79.09" ry="18"/>
<text text-anchor="middle" x="146.24" y="-275.3" font-family="Times,serif" font-size="14.00" fill="blue">Administrative</text>
</a>
</g>
</g>
<!-- Diagnostic&#45;&gt;Administrative -->
<g id="edge8" class="edge">
<title>Diagnostic&#45;&gt;Administrative</title>
<path fill="none" stroke="blue" d="M146.24,-347.8C146.24,-336.16 146.24,-320.55 146.24,-307.24"/>
<polygon fill="blue" stroke="blue" points="149.74,-307.18 146.24,-297.18 142.74,-307.18 149.74,-307.18"/>
<text text-anchor="middle" x="159.74" y="-318.8" font-family="Times,serif" font-size="14.00" fill="blue">and</text>
</g>
<!-- Therapeutic -->
<g id="node11" class="node">
<title>Therapeutic</title>
<g id="a_node11"><a xlink:title="Ensure follow&#45;up actions from past appointments are documented and communicated.">
<ellipse fill="none" stroke="blue" cx="146.24" cy="-192" rx="66.09" ry="18"/>
<text text-anchor="middle" x="146.24" y="-188.3" font-family="Times,serif" font-size="14.00" fill="blue">Therapeutic</text>
</a>
</g>
</g>
<!-- Administrative&#45;&gt;Therapeutic -->
<g id="edge9" class="edge">
<title>Administrative&#45;&gt;Therapeutic</title>
<path fill="none" stroke="blue" d="M146.24,-260.8C146.24,-249.16 146.24,-233.55 146.24,-220.24"/>
<polygon fill="blue" stroke="blue" points="149.74,-220.18 146.24,-210.18 142.74,-220.18 149.74,-220.18"/>
<text text-anchor="middle" x="159.74" y="-231.8" font-family="Times,serif" font-size="14.00" fill="blue">and</text>
</g>
<!-- DataManagement -->
<g id="node12" class="node">
<title>DataManagement</title>
<g id="a_node12"><a xlink:title="Update the EHR system to reflect changes in appointment status.">
<ellipse fill="none" stroke="blue" cx="146.24" cy="-105" rx="96.68" ry="18"/>
<text text-anchor="middle" x="146.24" y="-101.3" font-family="Times,serif" font-size="14.00" fill="blue">Data Management</text>
</a>
</g>
</g>
<!-- Therapeutic&#45;&gt;DataManagement -->
<g id="edge10" class="edge">
<title>Therapeutic&#45;&gt;DataManagement</title>
<path fill="none" stroke="blue" d="M146.24,-173.8C146.24,-162.16 146.24,-146.55 146.24,-133.24"/>
<polygon fill="blue" stroke="blue" points="149.74,-133.18 146.24,-123.18 142.74,-133.18 149.74,-133.18"/>
<text text-anchor="middle" x="159.74" y="-144.8" font-family="Times,serif" font-size="14.00" fill="blue">and</text>
</g>
<!-- DataManagement&#45;&gt;FinalPopulation -->
<g id="edge11" class="edge">
<title>DataManagement&#45;&gt;FinalPopulation</title>
<path fill="none" stroke="blue" d="M146.24,-86.8C146.24,-75.16 146.24,-59.55 146.24,-46.24"/>
<polygon fill="blue" stroke="blue" points="149.74,-46.18 146.24,-36.18 142.74,-46.18 149.74,-46.18"/>
<text text-anchor="middle" x="162.74" y="-57.8" font-family="Times,serif" font-size="14.00" fill="blue">then</text>
</g>
</g>
</svg>
