<?xml version="1.0" encoding="UTF-8" standalone="no"?>
<!DOCTYPE svg PUBLIC "-//W3C//DTD SVG 1.1//EN"
 "http://www.w3.org/Graphics/SVG/1.1/DTD/svg11.dtd">
<!-- Generated by graphviz version 2.43.0 (0)
 -->
<!-- Title: SerotoninSyndromeProtocol Pages: 1 -->
<svg width="829pt" height="566pt"
 viewBox="0.00 0.00 828.73 566.00" xmlns="http://www.w3.org/2000/svg" xmlns:xlink="http://www.w3.org/1999/xlink">
<g id="graph0" class="graph" transform="scale(1 1) rotate(0) translate(4 562)">
<title>SerotoninSyndromeProtocol</title>
<polygon fill="white" stroke="transparent" points="-4,4 -4,-562 824.73,-562 824.73,4 -4,4"/>
<!-- InitialPopulation -->
<g id="node1" class="node">
<title>InitialPopulation</title>
<g id="a_node1"><a xlink:title="All patients prescribed medications known to increase serotonin levels.">
<path fill="none" stroke="green" d="M397.89,-558C397.89,-558 282.89,-558 282.89,-558 276.89,-558 270.89,-552 270.89,-546 270.89,-546 270.89,-534 270.89,-534 270.89,-528 276.89,-522 282.89,-522 282.89,-522 397.89,-522 397.89,-522 403.89,-522 409.89,-528 409.89,-534 409.89,-534 409.89,-546 409.89,-546 409.89,-552 403.89,-558 397.89,-558"/>
<text text-anchor="middle" x="340.39" y="-536.3" font-family="Times,serif" font-size="14.00" fill="green">Initial Population</text>
</a>
</g>
</g>
<!-- AdditionalMeds -->
<g id="node5" class="node">
<title>AdditionalMeds</title>
<g id="a_node5"><a xlink:title="Patients prescribed additional medications that may interact to increase the risk of serotonin syndrome.">
<ellipse fill="none" stroke="blue" cx="340.39" cy="-453" rx="117.78" ry="18"/>
<text text-anchor="middle" x="340.39" y="-449.3" font-family="Times,serif" font-size="14.00" fill="blue">Additional Medications</text>
</a>
</g>
</g>
<!-- InitialPopulation&#45;&gt;AdditionalMeds -->
<g id="edge1" class="edge">
<title>InitialPopulation&#45;&gt;AdditionalMeds</title>
<path fill="none" stroke="blue" d="M340.39,-521.8C340.39,-510.16 340.39,-494.55 340.39,-481.24"/>
<polygon fill="blue" stroke="blue" points="343.89,-481.18 340.39,-471.18 336.89,-481.18 343.89,-481.18"/>
<text text-anchor="middle" x="345.39" y="-492.8" font-family="Times,serif" font-size="14.00" fill="blue">if</text>
</g>
<!-- ScreeningSubset -->
<g id="node2" class="node">
<title>ScreeningSubset</title>
<g id="a_node2"><a xlink:title="Patients prescribed additional medications that may interact to increase the risk of serotonin syndrome.">
<path fill="none" stroke="green" d="M399.89,-384C399.89,-384 280.89,-384 280.89,-384 274.89,-384 268.89,-378 268.89,-372 268.89,-372 268.89,-360 268.89,-360 268.89,-354 274.89,-348 280.89,-348 280.89,-348 399.89,-348 399.89,-348 405.89,-348 411.89,-354 411.89,-360 411.89,-360 411.89,-372 411.89,-372 411.89,-378 405.89,-384 399.89,-384"/>
<text text-anchor="middle" x="340.39" y="-362.3" font-family="Times,serif" font-size="14.00" fill="green">Screening Subset</text>
</a>
</g>
</g>
<!-- NoHistorySS -->
<g id="node6" class="node">
<title>NoHistorySS</title>
<g id="a_node6"><a xlink:title="No documented history of serotonin syndrome while off serotonergic medications.">
<ellipse fill="none" stroke="blue" cx="88.39" cy="-279" rx="88.28" ry="18"/>
<text text-anchor="middle" x="88.39" y="-275.3" font-family="Times,serif" font-size="14.00" fill="blue">No History of SS</text>
</a>
</g>
</g>
<!-- ScreeningSubset&#45;&gt;NoHistorySS -->
<g id="edge3" class="edge">
<title>ScreeningSubset&#45;&gt;NoHistorySS</title>
<path fill="none" stroke="blue" d="M289.7,-347.9C246.81,-333.43 185.52,-312.76 141.86,-298.04"/>
<polygon fill="blue" stroke="blue" points="142.87,-294.68 132.27,-294.8 140.63,-301.31 142.87,-294.68"/>
<text text-anchor="middle" x="235.39" y="-318.8" font-family="Times,serif" font-size="14.00" fill="blue">if</text>
</g>
<!-- StableRegimen -->
<g id="node7" class="node">
<title>StableRegimen</title>
<g id="a_node7"><a xlink:title="Stable regimen of interacting medications for more than 6 months without symptoms.">
<ellipse fill="none" stroke="blue" cx="279.39" cy="-279" rx="84.49" ry="18"/>
<text text-anchor="middle" x="279.39" y="-275.3" font-family="Times,serif" font-size="14.00" fill="blue">Stable Regimen</text>
</a>
</g>
</g>
<!-- ScreeningSubset&#45;&gt;StableRegimen -->
<g id="edge5" class="edge">
<title>ScreeningSubset&#45;&gt;StableRegimen</title>
<path fill="none" stroke="blue" d="M328.05,-347.8C319.31,-335.62 307.44,-319.09 297.62,-305.4"/>
<polygon fill="blue" stroke="blue" points="300.18,-302.97 291.51,-296.89 294.5,-307.05 300.18,-302.97"/>
<text text-anchor="middle" x="319.39" y="-318.8" font-family="Times,serif" font-size="14.00" fill="blue">if</text>
</g>
<!-- NoContraindications -->
<g id="node8" class="node">
<title>NoContraindications</title>
<g id="a_node8"><a xlink:title="No contraindications to diagnostic interventions.">
<ellipse fill="none" stroke="blue" cx="491.39" cy="-279" rx="109.38" ry="18"/>
<text text-anchor="middle" x="491.39" y="-275.3" font-family="Times,serif" font-size="14.00" fill="blue">No Contraindications</text>
</a>
</g>
</g>
<!-- ScreeningSubset&#45;&gt;NoContraindications -->
<g id="edge7" class="edge">
<title>ScreeningSubset&#45;&gt;NoContraindications</title>
<path fill="none" stroke="blue" d="M370.95,-347.8C394.67,-334.45 427.68,-315.86 453.15,-301.53"/>
<polygon fill="blue" stroke="blue" points="455.17,-304.41 462.16,-296.45 451.73,-298.31 455.17,-304.41"/>
<text text-anchor="middle" x="430.39" y="-318.8" font-family="Times,serif" font-size="14.00" fill="blue">if</text>
</g>
<!-- MedReview -->
<g id="node9" class="node">
<title>MedReview</title>
<g id="a_node9"><a xlink:title="Comprehensive medication review to identify potential drug interactions.">
<ellipse fill="none" stroke="blue" cx="717.39" cy="-279" rx="98.58" ry="18"/>
<text text-anchor="middle" x="717.39" y="-275.3" font-family="Times,serif" font-size="14.00" fill="blue">Medication Review</text>
</a>
</g>
</g>
<!-- ScreeningSubset&#45;&gt;MedReview -->
<g id="edge9" class="edge">
<title>ScreeningSubset&#45;&gt;MedReview</title>
<path fill="none" stroke="blue" d="M412.19,-348.81C479.96,-333.53 580.91,-310.77 647.91,-295.67"/>
<polygon fill="blue" stroke="blue" points="648.96,-299.02 657.95,-293.4 647.43,-292.19 648.96,-299.02"/>
<text text-anchor="middle" x="557.39" y="-318.8" font-family="Times,serif" font-size="14.00" fill="blue">if</text>
</g>
<!-- ExcludedPatients -->
<g id="node3" class="node">
<title>ExcludedPatients</title>
<g id="a_node3"><a xlink:title="Patients meeting exclusion criteria.">
<path fill="none" stroke="green" d="M340.39,-210C340.39,-210 218.39,-210 218.39,-210 212.39,-210 206.39,-204 206.39,-198 206.39,-198 206.39,-186 206.39,-186 206.39,-180 212.39,-174 218.39,-174 218.39,-174 340.39,-174 340.39,-174 346.39,-174 352.39,-180 352.39,-186 352.39,-186 352.39,-198 352.39,-198 352.39,-204 346.39,-210 340.39,-210"/>
<text text-anchor="middle" x="279.39" y="-188.3" font-family="Times,serif" font-size="14.00" fill="green">Excluded Patients</text>
</a>
</g>
</g>
<!-- SuccessfulScreen -->
<g id="node4" class="node">
<title>SuccessfulScreen</title>
<g id="a_node4"><a xlink:title="Identification and documentation of potential risk factors for serotonin syndrome.">
<path fill="none" stroke="green" d="M778.39,-36C778.39,-36 656.39,-36 656.39,-36 650.39,-36 644.39,-30 644.39,-24 644.39,-24 644.39,-12 644.39,-12 644.39,-6 650.39,0 656.39,0 656.39,0 778.39,0 778.39,0 784.39,0 790.39,-6 790.39,-12 790.39,-12 790.39,-24 790.39,-24 790.39,-30 784.39,-36 778.39,-36"/>
<text text-anchor="middle" x="717.39" y="-14.3" font-family="Times,serif" font-size="14.00" fill="green">Successful Screen</text>
</a>
</g>
</g>
<!-- AdditionalMeds&#45;&gt;ScreeningSubset -->
<g id="edge2" class="edge">
<title>AdditionalMeds&#45;&gt;ScreeningSubset</title>
<path fill="none" stroke="blue" d="M340.39,-434.8C340.39,-423.16 340.39,-407.55 340.39,-394.24"/>
<polygon fill="blue" stroke="blue" points="343.89,-394.18 340.39,-384.18 336.89,-394.18 343.89,-394.18"/>
<text text-anchor="middle" x="356.89" y="-405.8" font-family="Times,serif" font-size="14.00" fill="blue">then</text>
</g>
<!-- NoHistorySS&#45;&gt;ExcludedPatients -->
<g id="edge4" class="edge">
<title>NoHistorySS&#45;&gt;ExcludedPatients</title>
<path fill="none" stroke="blue" d="M123.42,-262.41C153.84,-248.87 198.16,-229.15 231.79,-214.18"/>
<polygon fill="blue" stroke="blue" points="233.26,-217.36 240.97,-210.1 230.41,-210.97 233.26,-217.36"/>
<text text-anchor="middle" x="211.89" y="-231.8" font-family="Times,serif" font-size="14.00" fill="blue">then</text>
</g>
<!-- StableRegimen&#45;&gt;ExcludedPatients -->
<g id="edge6" class="edge">
<title>StableRegimen&#45;&gt;ExcludedPatients</title>
<path fill="none" stroke="blue" d="M279.39,-260.8C279.39,-249.16 279.39,-233.55 279.39,-220.24"/>
<polygon fill="blue" stroke="blue" points="282.89,-220.18 279.39,-210.18 275.89,-220.18 282.89,-220.18"/>
<text text-anchor="middle" x="295.89" y="-231.8" font-family="Times,serif" font-size="14.00" fill="blue">then</text>
</g>
<!-- NoContraindications&#45;&gt;ExcludedPatients -->
<g id="edge8" class="edge">
<title>NoContraindications&#45;&gt;ExcludedPatients</title>
<path fill="none" stroke="blue" d="M451.52,-262.01C417.6,-248.42 368.66,-228.79 331.62,-213.94"/>
<polygon fill="blue" stroke="blue" points="332.58,-210.56 322,-210.08 329.98,-217.05 332.58,-210.56"/>
<text text-anchor="middle" x="414.89" y="-231.8" font-family="Times,serif" font-size="14.00" fill="blue">then</text>
</g>
<!-- ClinicalAssessment -->
<g id="node10" class="node">
<title>ClinicalAssessment</title>
<g id="a_node10"><a xlink:title="Clinical assessment for symptoms of serotonin syndrome.">
<ellipse fill="none" stroke="blue" cx="717.39" cy="-192" rx="103.18" ry="18"/>
<text text-anchor="middle" x="717.39" y="-188.3" font-family="Times,serif" font-size="14.00" fill="blue">Clinical Assessment</text>
</a>
</g>
</g>
<!-- MedReview&#45;&gt;ClinicalAssessment -->
<g id="edge10" class="edge">
<title>MedReview&#45;&gt;ClinicalAssessment</title>
<path fill="none" stroke="blue" d="M717.39,-260.8C717.39,-249.16 717.39,-233.55 717.39,-220.24"/>
<polygon fill="blue" stroke="blue" points="720.89,-220.18 717.39,-210.18 713.89,-220.18 720.89,-220.18"/>
<text text-anchor="middle" x="730.89" y="-231.8" font-family="Times,serif" font-size="14.00" fill="blue">and</text>
</g>
<!-- LabTests -->
<g id="node11" class="node">
<title>LabTests</title>
<g id="a_node11"><a xlink:title="Laboratory tests to rule out other causes of symptoms.">
<ellipse fill="none" stroke="blue" cx="717.39" cy="-105" rx="89.08" ry="18"/>
<text text-anchor="middle" x="717.39" y="-101.3" font-family="Times,serif" font-size="14.00" fill="blue">Laboratory Tests</text>
</a>
</g>
</g>
<!-- ClinicalAssessment&#45;&gt;LabTests -->
<g id="edge11" class="edge">
<title>ClinicalAssessment&#45;&gt;LabTests</title>
<path fill="none" stroke="blue" d="M717.39,-173.8C717.39,-162.16 717.39,-146.55 717.39,-133.24"/>
<polygon fill="blue" stroke="blue" points="720.89,-133.18 717.39,-123.18 713.89,-133.18 720.89,-133.18"/>
<text text-anchor="middle" x="730.89" y="-144.8" font-family="Times,serif" font-size="14.00" fill="blue">and</text>
</g>
<!-- LabTests&#45;&gt;SuccessfulScreen -->
<g id="edge12" class="edge">
<title>LabTests&#45;&gt;SuccessfulScreen</title>
<path fill="none" stroke="blue" d="M717.39,-86.8C717.39,-75.16 717.39,-59.55 717.39,-46.24"/>
<polygon fill="blue" stroke="blue" points="720.89,-46.18 717.39,-36.18 713.89,-46.18 720.89,-46.18"/>
<text text-anchor="middle" x="733.89" y="-57.8" font-family="Times,serif" font-size="14.00" fill="blue">then</text>
</g>
</g>
</svg>
