<?xml version="1.0" encoding="UTF-8" standalone="no"?><!DOCTYPE svg PUBLIC "-//W3C//DTD SVG 1.1//EN" "http://www.w3.org/Graphics/SVG/1.1/DTD/svg11.dtd"><!-- Generated by graphviz version 2.40.1 (20161225.0304)
 --><!-- Title: CAPAntibioticTherapy Pages: 1 --><svg xmlns="http://www.w3.org/2000/svg" xmlns:xlink="http://www.w3.org/1999/xlink" width="1078pt" height="534pt" viewBox="0.00 0.00 1078.43 533.80">
<g id="graph0" class="graph" transform="scale(1 1) rotate(0) translate(4 529.8)">
<title>CAPAntibioticTherapy</title>
<polygon fill="#ffffff" stroke="transparent" points="-4,4 -4,-529.8 1074.4298,-529.8 1074.4298,4 -4,4"/>
<!-- start -->
<g id="node1" class="node">
<title>start</title>
<ellipse fill="#d3d3d3" stroke="#d3d3d3" cx="536.8279" cy="-507.8" rx="210.7026" ry="18"/>
<text text-anchor="middle" x="536.8279" y="-503.6" font-family="Times,serif" font-size="14.00" fill="#000000">Community-Acquired Pneumonia (CAP) Diagnosis</text>
</g>
<!-- comorbidities -->
<g id="node2" class="node">
<title>comorbidities</title>
<polygon fill="#add8e6" stroke="#add8e6" points="638.0448,-452.8 435.611,-452.8 435.611,-360.8 638.0448,-360.8 638.0448,-452.8"/>
<text text-anchor="middle" x="536.8279" y="-436.2" font-family="Times,serif" font-size="14.00" fill="#000000">Are any of the following present:</text>
<text text-anchor="middle" x="536.8279" y="-419.4" font-family="Times,serif" font-size="14.00" fill="#000000"> Comorbidities</text>
<text text-anchor="middle" x="536.8279" y="-402.6" font-family="Times,serif" font-size="14.00" fill="#000000">Recent antibiotic use</text>
<text text-anchor="middle" x="536.8279" y="-385.8" font-family="Times,serif" font-size="14.00" fill="#000000">Age ≥ 65</text>
<text text-anchor="middle" x="536.8279" y="-369" font-family="Times,serif" font-size="14.00" fill="#000000">Smoking</text>
</g>
<!-- start&#45;&gt;comorbidities -->
<g id="edge1" class="edge">
<title>start-&gt;comorbidities</title>
<path fill="none" stroke="#000000" d="M536.8279,-489.7432C536.8279,-482.0788 536.8279,-472.6854 536.8279,-463.0087"/>
<polygon fill="#000000" stroke="#000000" points="540.328,-462.8827 536.8279,-452.8827 533.328,-462.8828 540.328,-462.8827"/>
</g>
<!-- penicillinAllergy -->
<g id="node3" class="node">
<title>penicillinAllergy</title>
<polygon fill="#add8e6" stroke="#add8e6" points="520.3217,-308 331.3341,-308 331.3341,-272 520.3217,-272 520.3217,-308"/>
<text text-anchor="middle" x="425.8279" y="-285.8" font-family="Times,serif" font-size="14.00" fill="#000000">Penicillin Allergy/Intolerance?</text>
</g>
<!-- comorbidities&#45;&gt;penicillinAllergy -->
<g id="edge2" class="edge">
<title>comorbidities-&gt;penicillinAllergy</title>
<path fill="none" stroke="#000000" d="M492.9578,-360.6375C478.3687,-345.2862 462.6571,-328.7536 450.1042,-315.5448"/>
<polygon fill="#000000" stroke="#000000" points="452.5366,-313.0236 443.1107,-308.1859 447.4625,-317.8458 452.5366,-313.0236"/>
<text text-anchor="middle" x="482.3812" y="-330.2" font-family="Times,serif" font-size="14.00" fill="#000000">No</text>
</g>
<!-- penicillinAllergyComorbid -->
<g id="node13" class="node">
<title>penicillinAllergyComorbid</title>
<polygon fill="#add8e6" stroke="#add8e6" points="742.3217,-308 553.3341,-308 553.3341,-272 742.3217,-272 742.3217,-308"/>
<text text-anchor="middle" x="647.8279" y="-285.8" font-family="Times,serif" font-size="14.00" fill="#000000">Penicillin Allergy/Intolerance?</text>
</g>
<!-- comorbidities&#45;&gt;penicillinAllergyComorbid -->
<g id="edge3" class="edge">
<title>comorbidities-&gt;penicillinAllergyComorbid</title>
<path fill="none" stroke="#000000" d="M580.698,-360.6375C595.2871,-345.2862 610.9987,-328.7536 623.5516,-315.5448"/>
<polygon fill="#000000" stroke="#000000" points="626.1933,-317.8458 630.5451,-308.1859 621.1192,-313.0236 626.1933,-317.8458"/>
<text text-anchor="middle" x="622.7108" y="-330.2" font-family="Times,serif" font-size="14.00" fill="#000000">Yes</text>
</g>
<!-- cephalosporinAllergy -->
<g id="node4" class="node">
<title>cephalosporinAllergy</title>
<polygon fill="#add8e6" stroke="#add8e6" points="278.9578,-219.2 128.698,-219.2 128.698,-183.2 278.9578,-183.2 278.9578,-219.2"/>
<text text-anchor="middle" x="203.8279" y="-197" font-family="Times,serif" font-size="14.00" fill="#000000">Cephalosporin Allergy?</text>
</g>
<!-- penicillinAllergy&#45;&gt;cephalosporinAllergy -->
<g id="edge4" class="edge">
<title>penicillinAllergy-&gt;cephalosporinAllergy</title>
<path fill="none" stroke="#000000" d="M380.6353,-271.923C345.2231,-257.7581 295.8253,-237.999 258.242,-222.9657"/>
<polygon fill="#000000" stroke="#000000" points="259.5419,-219.716 248.9572,-219.2517 256.9421,-226.2154 259.5419,-219.716"/>
<text text-anchor="middle" x="345.7108" y="-241.4" font-family="Times,serif" font-size="14.00" fill="#000000">Yes</text>
</g>
<!-- macrolide -->
<g id="node12" class="node">
<title>macrolide</title>
<polygon fill="#add8e6" stroke="#add8e6" points="554.5045,-219.2 297.1513,-219.2 297.1513,-183.2 554.5045,-183.2 554.5045,-219.2"/>
<text text-anchor="middle" x="425.8279" y="-197" font-family="Times,serif" font-size="14.00" fill="#000000">Amoxicillin + Macrolide or + Doxycycline</text>
</g>
<!-- penicillinAllergy&#45;&gt;macrolide -->
<g id="edge5" class="edge">
<title>penicillinAllergy-&gt;macrolide</title>
<path fill="none" stroke="#000000" d="M425.8279,-271.6006C425.8279,-259.4949 425.8279,-243.4076 425.8279,-229.6674"/>
<polygon fill="#000000" stroke="#000000" points="429.328,-229.272 425.8279,-219.272 422.328,-229.2721 429.328,-229.272"/>
<text text-anchor="middle" x="434.3812" y="-241.4" font-family="Times,serif" font-size="14.00" fill="#000000">No</text>
</g>
<!-- thirdGenCephalosporinMacrolide -->
<g id="node8" class="node">
<title>thirdGenCephalosporinMacrolide</title>
<polygon fill="#add8e6" stroke="#add8e6" points="615.9737,-130.4 295.6821,-130.4 295.6821,-94.4 615.9737,-94.4 615.9737,-130.4"/>
<text text-anchor="middle" x="455.8279" y="-108.2" font-family="Times,serif" font-size="14.00" fill="#000000">3rd Gen Cephalosporin + Macrolide or + Doxycycline</text>
</g>
<!-- cephalosporinAllergy&#45;&gt;thirdGenCephalosporinMacrolide -->
<g id="edge7" class="edge">
<title>cephalosporinAllergy-&gt;thirdGenCephalosporinMacrolide</title>
<path fill="none" stroke="#000000" d="M255.1276,-183.123C295.6659,-168.838 352.3499,-148.8637 395.1422,-133.7845"/>
<polygon fill="#000000" stroke="#000000" points="396.3317,-137.0763 404.6,-130.4517 394.0052,-130.4742 396.3317,-137.0763"/>
<text text-anchor="middle" x="361.3812" y="-152.6" font-family="Times,serif" font-size="14.00" fill="#000000">No</text>
</g>
<!-- fluoroLefamulinorOmadacycline -->
<g id="node11" class="node">
<title>fluoroLefamulinorOmadacycline</title>
<polygon fill="#add8e6" stroke="#add8e6" points="277.4839,-130.4 .1719,-130.4 .1719,-94.4 277.4839,-94.4 277.4839,-130.4"/>
<text text-anchor="middle" x="138.8279" y="-108.2" font-family="Times,serif" font-size="14.00" fill="#000000">Fluoroquinolone, Lefamulin, or Omadacycline</text>
</g>
<!-- cephalosporinAllergy&#45;&gt;fluoroLefamulinorOmadacycline -->
<g id="edge6" class="edge">
<title>cephalosporinAllergy-&gt;fluoroLefamulinorOmadacycline</title>
<path fill="none" stroke="#000000" d="M190.3599,-182.8006C181.06,-170.0956 168.5501,-153.0051 158.185,-138.8448"/>
<polygon fill="#000000" stroke="#000000" points="160.7871,-136.474 152.0563,-130.472 155.1386,-140.6086 160.7871,-136.474"/>
<text text-anchor="middle" x="188.7108" y="-152.6" font-family="Times,serif" font-size="14.00" fill="#000000">Yes</text>
</g>
<!-- cephalosporinAllergyComorbid -->
<g id="node5" class="node">
<title>cephalosporinAllergyComorbid</title>
<polygon fill="#add8e6" stroke="#add8e6" points="722.9578,-219.2 572.698,-219.2 572.698,-183.2 722.9578,-183.2 722.9578,-219.2"/>
<text text-anchor="middle" x="647.8279" y="-197" font-family="Times,serif" font-size="14.00" fill="#000000">Cephalosporin Allergy?</text>
</g>
<!-- structuralLungDiseaseComorbid -->
<g id="node6" class="node">
<title>structuralLungDiseaseComorbid</title>
<polygon fill="#add8e6" stroke="#add8e6" points="791.3309,-130.4 634.3249,-130.4 634.3249,-94.4 791.3309,-94.4 791.3309,-130.4"/>
<text text-anchor="middle" x="712.8279" y="-108.2" font-family="Times,serif" font-size="14.00" fill="#000000">Structural Lung Disease?</text>
</g>
<!-- cephalosporinAllergyComorbid&#45;&gt;structuralLungDiseaseComorbid -->
<g id="edge10" class="edge">
<title>cephalosporinAllergyComorbid-&gt;structuralLungDiseaseComorbid</title>
<path fill="none" stroke="#000000" d="M661.2959,-182.8006C670.5958,-170.0956 683.1057,-153.0051 693.4708,-138.8448"/>
<polygon fill="#000000" stroke="#000000" points="696.5172,-140.6086 699.5995,-130.472 690.8687,-136.474 696.5172,-140.6086"/>
<text text-anchor="middle" x="696.7108" y="-152.6" font-family="Times,serif" font-size="14.00" fill="#000000">Yes</text>
</g>
<!-- cephalosporinAllergyComorbid&#45;&gt;thirdGenCephalosporinMacrolide -->
<g id="edge11" class="edge">
<title>cephalosporinAllergyComorbid-&gt;thirdGenCephalosporinMacrolide</title>
<path fill="none" stroke="#000000" d="M608.5105,-183.0157C578.2547,-169.0224 536.2958,-149.6164 504.019,-134.6884"/>
<polygon fill="#000000" stroke="#000000" points="505.3097,-131.4292 494.7642,-130.408 502.3712,-137.7826 505.3097,-131.4292"/>
<text text-anchor="middle" x="577.3812" y="-152.6" font-family="Times,serif" font-size="14.00" fill="#000000">No</text>
</g>
<!-- respiratoryFluoroquinolone -->
<g id="node9" class="node">
<title>respiratoryFluoroquinolone</title>
<polygon fill="#add8e6" stroke="#add8e6" points="687.2084,-41.4019 476.4474,-41.4019 476.4474,-.1981 687.2084,-.1981 687.2084,-41.4019"/>
<text text-anchor="middle" x="581.8279" y="-25" font-family="Times,serif" font-size="14.00" fill="#000000">Respiratory Fluoroquinolone</text>
<text text-anchor="middle" x="581.8279" y="-8.2" font-family="Times,serif" font-size="14.00" fill="#000000">(e.g., Levofloxacin, Moxifloxacin)</text>
</g>
<!-- structuralLungDiseaseComorbid&#45;&gt;respiratoryFluoroquinolone -->
<g id="edge12" class="edge">
<title>structuralLungDiseaseComorbid-&gt;respiratoryFluoroquinolone</title>
<path fill="none" stroke="#000000" d="M686.9465,-94.3028C667.725,-80.8624 641.2121,-62.3236 619.6224,-47.2273"/>
<polygon fill="#000000" stroke="#000000" points="621.5145,-44.2796 611.3136,-41.4175 617.5032,-50.0163 621.5145,-44.2796"/>
<text text-anchor="middle" x="669.7108" y="-63.8" font-family="Times,serif" font-size="14.00" fill="#000000">Yes</text>
</g>
<!-- lefamulinOmadacycline -->
<g id="node10" class="node">
<title>lefamulinOmadacycline</title>
<polygon fill="#add8e6" stroke="#add8e6" points="982.4839,-38.8 705.1719,-38.8 705.1719,-2.8 982.4839,-2.8 982.4839,-38.8"/>
<text text-anchor="middle" x="843.8279" y="-16.6" font-family="Times,serif" font-size="14.00" fill="#000000">Fluoroquinolone, Lefamulin, or Omadacycline</text>
</g>
<!-- structuralLungDiseaseComorbid&#45;&gt;lefamulinOmadacycline -->
<g id="edge13" class="edge">
<title>structuralLungDiseaseComorbid-&gt;lefamulinOmadacycline</title>
<path fill="none" stroke="#000000" d="M738.7093,-94.3028C758.984,-80.1259 787.3711,-60.2767 809.536,-44.7782"/>
<polygon fill="#000000" stroke="#000000" points="811.8107,-47.4584 818.0003,-38.8596 807.7993,-41.7217 811.8107,-47.4584"/>
<text text-anchor="middle" x="794.3812" y="-63.8" font-family="Times,serif" font-size="14.00" fill="#000000">No</text>
</g>
<!-- betaLactamMacrolide -->
<g id="node7" class="node">
<title>betaLactamMacrolide</title>
<polygon fill="#add8e6" stroke="#add8e6" points="1070.5318,-219.2 741.124,-219.2 741.124,-183.2 1070.5318,-183.2 1070.5318,-219.2"/>
<text text-anchor="middle" x="905.8279" y="-197" font-family="Times,serif" font-size="14.00" fill="#000000">Amoxicillin-Clavulanate + Macrolide or + Doxycycline</text>
</g>
<!-- penicillinAllergyComorbid&#45;&gt;cephalosporinAllergyComorbid -->
<g id="edge8" class="edge">
<title>penicillinAllergyComorbid-&gt;cephalosporinAllergyComorbid</title>
<path fill="none" stroke="#000000" d="M647.8279,-271.6006C647.8279,-259.4949 647.8279,-243.4076 647.8279,-229.6674"/>
<polygon fill="#000000" stroke="#000000" points="651.328,-229.272 647.8279,-219.272 644.328,-229.2721 651.328,-229.272"/>
<text text-anchor="middle" x="658.7108" y="-241.4" font-family="Times,serif" font-size="14.00" fill="#000000">Yes</text>
</g>
<!-- penicillinAllergyComorbid&#45;&gt;betaLactamMacrolide -->
<g id="edge9" class="edge">
<title>penicillinAllergyComorbid-&gt;betaLactamMacrolide</title>
<path fill="none" stroke="#000000" d="M700.349,-271.923C741.8525,-257.638 799.8862,-237.6637 843.6973,-222.5845"/>
<polygon fill="#000000" stroke="#000000" points="845.0638,-225.8157 853.3803,-219.2517 842.7856,-219.1968 845.0638,-225.8157"/>
<text text-anchor="middle" x="808.3812" y="-241.4" font-family="Times,serif" font-size="14.00" fill="#000000">No</text>
</g>
</g>
</svg>