<?xml version="1.0" encoding="UTF-8" standalone="no"?>
<!DOCTYPE svg PUBLIC "-//W3C//DTD SVG 1.1//EN"
 "http://www.w3.org/Graphics/SVG/1.1/DTD/svg11.dtd">
<!-- Generated by graphviz version 2.48.0 (20210717.1556)
 -->
<!-- Title: HbA1cManagementRecommendations Pages: 1 -->
<svg width="506pt" height="724pt"
 viewBox="0.00 0.00 505.50 724.00" xmlns="http://www.w3.org/2000/svg" xmlns:xlink="http://www.w3.org/1999/xlink">
<g id="graph0" class="graph" transform="scale(1 1) rotate(0) translate(4 720)">
<title>HbA1cManagementRecommendations</title>
<polygon fill="white" stroke="transparent" points="-4,4 -4,-720 501.5,-720 501.5,4 -4,4"/>
<!-- Start -->
<g id="node1" class="node">
<title>Start</title>
<text text-anchor="middle" x="248.5" y="-694.9" font-family="Arial" font-size="12.00">Start</text>
</g>
<!-- DiagnosedWithDiabetes -->
<g id="node2" class="node">
<title>DiagnosedWithDiabetes</title>
<text text-anchor="middle" x="248.5" y="-609.9" font-family="Arial" font-size="12.00">Diagnosed with Diabetes</text>
</g>
<!-- Start&#45;&gt;DiagnosedWithDiabetes -->
<g id="edge1" class="edge">
<title>Start&#45;&gt;DiagnosedWithDiabetes</title>
<path fill="none" stroke="black" d="M248.5,-679.8C248.5,-668.67 248.5,-653.94 248.5,-641.24"/>
<polygon fill="black" stroke="black" points="252,-641.18 248.5,-631.18 245,-641.18 252,-641.18"/>
<text text-anchor="middle" x="261.5" y="-652.4" font-family="Arial" font-size="12.00">Start</text>
</g>
<!-- RegularHbA1cTests -->
<g id="node3" class="node">
<title>RegularHbA1cTests</title>
<text text-anchor="middle" x="248.5" y="-524.9" font-family="Arial" font-size="12.00">Regular HbA1c Tests (Every 3&#45;6 months)</text>
</g>
<!-- DiagnosedWithDiabetes&#45;&gt;RegularHbA1cTests -->
<g id="edge2" class="edge">
<title>DiagnosedWithDiabetes&#45;&gt;RegularHbA1cTests</title>
<path fill="none" stroke="black" d="M248.5,-594.8C248.5,-583.67 248.5,-568.94 248.5,-556.24"/>
<polygon fill="black" stroke="black" points="252,-556.18 248.5,-546.18 245,-556.18 252,-556.18"/>
<text text-anchor="middle" x="298" y="-567.4" font-family="Arial" font-size="12.00">Confirm Diagnosis</text>
</g>
<!-- EvaluateHbA1cResults -->
<g id="node4" class="node">
<title>EvaluateHbA1cResults</title>
<text text-anchor="middle" x="248.5" y="-439.9" font-family="Arial" font-size="12.00">Evaluate HbA1c Results</text>
</g>
<!-- RegularHbA1cTests&#45;&gt;EvaluateHbA1cResults -->
<g id="edge3" class="edge">
<title>RegularHbA1cTests&#45;&gt;EvaluateHbA1cResults</title>
<path fill="none" stroke="black" d="M248.5,-509.8C248.5,-498.67 248.5,-483.94 248.5,-471.24"/>
<polygon fill="black" stroke="black" points="252,-471.18 248.5,-461.18 245,-471.18 252,-471.18"/>
<text text-anchor="middle" x="286.5" y="-482.4" font-family="Arial" font-size="12.00">Conduct Tests</text>
</g>
<!-- GoalsAchieved -->
<g id="node9" class="node">
<title>GoalsAchieved</title>
<text text-anchor="middle" x="69.5" y="-354.9" font-family="Arial" font-size="12.00">HbA1c Goals Achieved</text>
</g>
<!-- EvaluateHbA1cResults&#45;&gt;GoalsAchieved -->
<g id="edge4" class="edge">
<title>EvaluateHbA1cResults&#45;&gt;GoalsAchieved</title>
<path fill="none" stroke="black" d="M211.41,-424.8C183.6,-411.91 145.36,-394.17 115.58,-380.37"/>
<polygon fill="black" stroke="black" points="116.78,-377.06 106.23,-376.03 113.83,-383.42 116.78,-377.06"/>
<text text-anchor="middle" x="204.5" y="-397.4" font-family="Arial" font-size="12.00">HbA1c &lt; 7%</text>
</g>
<!-- FurtherAdjustmentsNeeded -->
<g id="node10" class="node">
<title>FurtherAdjustmentsNeeded</title>
<text text-anchor="middle" x="248.5" y="-354.9" font-family="Arial" font-size="12.00">Further Adjustments Needed</text>
</g>
<!-- EvaluateHbA1cResults&#45;&gt;FurtherAdjustmentsNeeded -->
<g id="edge5" class="edge">
<title>EvaluateHbA1cResults&#45;&gt;FurtherAdjustmentsNeeded</title>
<path fill="none" stroke="black" d="M248.5,-424.8C248.5,-413.67 248.5,-398.94 248.5,-386.24"/>
<polygon fill="black" stroke="black" points="252,-386.18 248.5,-376.18 245,-386.18 252,-386.18"/>
<text text-anchor="middle" x="282" y="-397.4" font-family="Arial" font-size="12.00">HbA1c ≥ 7%</text>
</g>
<!-- LifestyleModifications -->
<g id="node5" class="node">
<title>LifestyleModifications</title>
<text text-anchor="middle" x="211.5" y="-269.9" font-family="Arial" font-size="12.00">Lifestyle Modifications</text>
</g>
<!-- MedicalTherapy -->
<g id="node6" class="node">
<title>MedicalTherapy</title>
<text text-anchor="middle" x="188.5" y="-184.9" font-family="Arial" font-size="12.00">Medical Therapy</text>
</g>
<!-- LifestyleModifications&#45;&gt;MedicalTherapy -->
<g id="edge8" class="edge">
<title>LifestyleModifications&#45;&gt;MedicalTherapy</title>
<path fill="none" stroke="black" d="M195.31,-254.73C191.32,-249.44 187.59,-243.32 185.5,-237 183.37,-230.55 182.89,-223.35 183.24,-216.53"/>
<polygon fill="black" stroke="black" points="186.75,-216.6 184.34,-206.28 179.79,-215.85 186.75,-216.6"/>
<text text-anchor="middle" x="281.5" y="-227.4" font-family="Arial" font-size="12.00">Diet, Exercise, Weight Management</text>
</g>
<!-- PatientEducation -->
<g id="node7" class="node">
<title>PatientEducation</title>
<text text-anchor="middle" x="207.5" y="-99.9" font-family="Arial" font-size="12.00">Patient Education on Diabetes Management</text>
</g>
<!-- MedicalTherapy&#45;&gt;PatientEducation -->
<g id="edge9" class="edge">
<title>MedicalTherapy&#45;&gt;PatientEducation</title>
<path fill="none" stroke="black" d="M189.67,-169.94C190.54,-160.69 192.02,-149.12 194.5,-139 195.16,-136.32 195.95,-133.56 196.83,-130.82"/>
<polygon fill="black" stroke="black" points="200.2,-131.79 200.21,-121.2 193.59,-129.47 200.2,-131.79"/>
<text text-anchor="middle" x="290" y="-142.4" font-family="Arial" font-size="12.00">Medication Adjustment if Necessary</text>
</g>
<!-- Monitoring -->
<g id="node8" class="node">
<title>Monitoring</title>
<text text-anchor="middle" x="303.5" y="-14.9" font-family="Arial" font-size="12.00">Continuous Monitoring and Adjustments</text>
</g>
<!-- PatientEducation&#45;&gt;Monitoring -->
<g id="edge10" class="edge">
<title>PatientEducation&#45;&gt;Monitoring</title>
<path fill="none" stroke="black" d="M210.94,-84.7C213.69,-74.69 218.47,-62.44 226.5,-54 231.12,-49.14 236.55,-44.9 242.35,-41.21"/>
<polygon fill="black" stroke="black" points="244.13,-44.22 251.05,-36.2 240.64,-38.16 244.13,-44.22"/>
<text text-anchor="middle" x="306" y="-57.4" font-family="Arial" font-size="12.00">Educate on Self&#45;Management</text>
</g>
<!-- Monitoring&#45;&gt;EvaluateHbA1cResults -->
<g id="edge11" class="edge">
<title>Monitoring&#45;&gt;EvaluateHbA1cResults</title>
<path fill="none" stroke="black" d="M361.59,-36.03C370.51,-40.7 378.93,-46.59 385.5,-54 400.25,-70.62 399.5,-79.78 399.5,-102 399.5,-359 399.5,-359 399.5,-359 399.5,-394.68 366.72,-415.13 331.7,-426.8"/>
<polygon fill="black" stroke="black" points="330.31,-423.57 321.79,-429.86 332.38,-430.25 330.31,-423.57"/>
<text text-anchor="middle" x="448.5" y="-227.4" font-family="Arial" font-size="12.00">Regular Follow&#45;up</text>
</g>
<!-- End -->
<g id="node11" class="node">
<title>End</title>
<text text-anchor="middle" x="62.5" y="-269.9" font-family="Arial" font-size="12.00">End</text>
</g>
<!-- GoalsAchieved&#45;&gt;End -->
<g id="edge6" class="edge">
<title>GoalsAchieved&#45;&gt;End</title>
<path fill="none" stroke="black" d="M66.06,-339.98C65.05,-334.29 64.06,-327.89 63.5,-322 62.86,-315.36 62.53,-308.17 62.37,-301.44"/>
<polygon fill="black" stroke="black" points="65.87,-301.32 62.24,-291.37 58.87,-301.41 65.87,-301.32"/>
<text text-anchor="middle" x="145" y="-312.4" font-family="Arial" font-size="12.00">Maintain Current Management</text>
</g>
<!-- FurtherAdjustmentsNeeded&#45;&gt;LifestyleModifications -->
<g id="edge7" class="edge">
<title>FurtherAdjustmentsNeeded&#45;&gt;LifestyleModifications</title>
<path fill="none" stroke="black" d="M240.83,-339.8C235.77,-328.45 229.04,-313.35 223.31,-300.48"/>
<polygon fill="black" stroke="black" points="226.43,-298.88 219.16,-291.18 220.03,-301.73 226.43,-298.88"/>
<text text-anchor="middle" x="286.5" y="-312.4" font-family="Arial" font-size="12.00">Implement Changes</text>
</g>
</g>
</svg>
