<?xml version="1.0" encoding="UTF-8" standalone="no"?>
<!DOCTYPE svg PUBLIC "-//W3C//DTD SVG 1.1//EN"
 "http://www.w3.org/Graphics/SVG/1.1/DTD/svg11.dtd">
<!-- Generated by graphviz version 2.43.0 (0)
 -->
<!-- Title: CVD_Risk_Evaluation Pages: 1 -->
<svg width="840pt" height="914pt"
 viewBox="0.00 0.00 840.13 914.00" xmlns="http://www.w3.org/2000/svg" xmlns:xlink="http://www.w3.org/1999/xlink">
<g id="graph0" class="graph" transform="scale(1 1) rotate(0) translate(4 910)">
<title>CVD_Risk_Evaluation</title>
<polygon fill="white" stroke="transparent" points="-4,4 -4,-910 836.13,-910 836.13,4 -4,4"/>
<!-- InitialPopulation -->
<g id="node1" class="node">
<title>InitialPopulation</title>
<g id="a_node1"><a xlink:title="Women aged 40&#45;75 years who are visiting a primary care clinic for routine health assessments">
<path fill="none" stroke="green" d="M457.19,-906C457.19,-906 342.19,-906 342.19,-906 336.19,-906 330.19,-900 330.19,-894 330.19,-894 330.19,-882 330.19,-882 330.19,-876 336.19,-870 342.19,-870 342.19,-870 457.19,-870 457.19,-870 463.19,-870 469.19,-876 469.19,-882 469.19,-882 469.19,-894 469.19,-894 469.19,-900 463.19,-906 457.19,-906"/>
<text text-anchor="middle" x="399.69" y="-884.3" font-family="Times,serif" font-size="14.00" fill="green">Initial Population</text>
</a>
</g>
</g>
<!-- SubsetScreening -->
<g id="node2" class="node">
<title>SubsetScreening</title>
<g id="a_node2"><a xlink:title="Women within the initial population who meet specific criteria">
<path fill="none" stroke="green" d="M514.19,-819C514.19,-819 285.19,-819 285.19,-819 279.19,-819 273.19,-813 273.19,-807 273.19,-807 273.19,-795 273.19,-795 273.19,-789 279.19,-783 285.19,-783 285.19,-783 514.19,-783 514.19,-783 520.19,-783 526.19,-789 526.19,-795 526.19,-795 526.19,-807 526.19,-807 526.19,-813 520.19,-819 514.19,-819"/>
<text text-anchor="middle" x="399.69" y="-797.3" font-family="Times,serif" font-size="14.00" fill="green">Subset Considered for Screening</text>
</a>
</g>
</g>
<!-- InitialPopulation&#45;&gt;SubsetScreening -->
<g id="edge1" class="edge">
<title>InitialPopulation&#45;&gt;SubsetScreening</title>
<path fill="none" stroke="blue" d="M399.69,-869.8C399.69,-858.16 399.69,-842.55 399.69,-829.24"/>
<polygon fill="blue" stroke="blue" points="403.19,-829.18 399.69,-819.18 396.19,-829.18 403.19,-829.18"/>
<text text-anchor="middle" x="404.69" y="-840.8" font-family="Times,serif" font-size="14.00" fill="blue">if</text>
</g>
<!-- Menopause -->
<g id="node6" class="node">
<title>Menopause</title>
<g id="a_node6"><a xlink:title="Women who have entered menopause">
<ellipse fill="none" stroke="blue" cx="63.69" cy="-714" rx="63.89" ry="18"/>
<text text-anchor="middle" x="63.69" y="-710.3" font-family="Times,serif" font-size="14.00" fill="blue">Menopause</text>
</a>
</g>
</g>
<!-- SubsetScreening&#45;&gt;Menopause -->
<g id="edge2" class="edge">
<title>SubsetScreening&#45;&gt;Menopause</title>
<path fill="none" stroke="blue" d="M332.1,-782.9C269.61,-767.09 177.82,-743.87 119.42,-729.1"/>
<polygon fill="blue" stroke="blue" points="120.18,-725.68 109.63,-726.62 118.47,-732.47 120.18,-725.68"/>
<text text-anchor="middle" x="257.69" y="-753.8" font-family="Times,serif" font-size="14.00" fill="blue">if</text>
</g>
<!-- Hypertension -->
<g id="node7" class="node">
<title>Hypertension</title>
<g id="a_node7"><a xlink:title="History of hypertension">
<ellipse fill="none" stroke="blue" cx="218.69" cy="-714" rx="73.39" ry="18"/>
<text text-anchor="middle" x="218.69" y="-710.3" font-family="Times,serif" font-size="14.00" fill="blue">Hypertension</text>
</a>
</g>
</g>
<!-- SubsetScreening&#45;&gt;Hypertension -->
<g id="edge3" class="edge">
<title>SubsetScreening&#45;&gt;Hypertension</title>
<path fill="none" stroke="blue" d="M363.07,-782.8C333.3,-768.82 291.3,-749.1 260.27,-734.53"/>
<polygon fill="blue" stroke="blue" points="261.56,-731.26 251.02,-730.18 258.58,-737.6 261.56,-731.26"/>
<text text-anchor="middle" x="325.69" y="-753.8" font-family="Times,serif" font-size="14.00" fill="blue">if</text>
</g>
<!-- Diabetes -->
<g id="node8" class="node">
<title>Diabetes</title>
<g id="a_node8"><a xlink:title="History of diabetes mellitus">
<ellipse fill="none" stroke="blue" cx="361.69" cy="-714" rx="51.99" ry="18"/>
<text text-anchor="middle" x="361.69" y="-710.3" font-family="Times,serif" font-size="14.00" fill="blue">Diabetes</text>
</a>
</g>
</g>
<!-- SubsetScreening&#45;&gt;Diabetes -->
<g id="edge4" class="edge">
<title>SubsetScreening&#45;&gt;Diabetes</title>
<path fill="none" stroke="blue" d="M392,-782.8C386.66,-770.85 379.45,-754.72 373.4,-741.18"/>
<polygon fill="blue" stroke="blue" points="376.52,-739.59 369.24,-731.89 370.13,-742.44 376.52,-739.59"/>
<text text-anchor="middle" x="388.69" y="-753.8" font-family="Times,serif" font-size="14.00" fill="blue">if</text>
</g>
<!-- Smoking -->
<g id="node9" class="node">
<title>Smoking</title>
<g id="a_node9"><a xlink:title="History of smoking">
<ellipse fill="none" stroke="blue" cx="482.69" cy="-714" rx="51.19" ry="18"/>
<text text-anchor="middle" x="482.69" y="-710.3" font-family="Times,serif" font-size="14.00" fill="blue">Smoking</text>
</a>
</g>
</g>
<!-- SubsetScreening&#45;&gt;Smoking -->
<g id="edge5" class="edge">
<title>SubsetScreening&#45;&gt;Smoking</title>
<path fill="none" stroke="blue" d="M416.49,-782.8C428.88,-770.11 445.89,-752.69 459.56,-738.69"/>
<polygon fill="blue" stroke="blue" points="462.29,-740.91 466.77,-731.31 457.28,-736.02 462.29,-740.91"/>
<text text-anchor="middle" x="451.69" y="-753.8" font-family="Times,serif" font-size="14.00" fill="blue">if</text>
</g>
<!-- HighBMI -->
<g id="node10" class="node">
<title>HighBMI</title>
<g id="a_node10"><a xlink:title="BMI greater than 25">
<ellipse fill="none" stroke="blue" cx="607.69" cy="-714" rx="55.79" ry="18"/>
<text text-anchor="middle" x="607.69" y="-710.3" font-family="Times,serif" font-size="14.00" fill="blue">High BMI</text>
</a>
</g>
</g>
<!-- SubsetScreening&#45;&gt;HighBMI -->
<g id="edge6" class="edge">
<title>SubsetScreening&#45;&gt;HighBMI</title>
<path fill="none" stroke="blue" d="M441.79,-782.8C477.75,-768.1 529.23,-747.06 565.28,-732.33"/>
<polygon fill="blue" stroke="blue" points="566.62,-735.56 574.56,-728.54 563.98,-729.08 566.62,-735.56"/>
<text text-anchor="middle" x="521.69" y="-753.8" font-family="Times,serif" font-size="14.00" fill="blue">if</text>
</g>
<!-- HighHDL -->
<g id="node11" class="node">
<title>HighHDL</title>
<g id="a_node11"><a xlink:title="High HDL cholesterol levels">
<ellipse fill="none" stroke="blue" cx="738.69" cy="-714" rx="57.39" ry="18"/>
<text text-anchor="middle" x="738.69" y="-710.3" font-family="Times,serif" font-size="14.00" fill="blue">High HDL</text>
</a>
</g>
</g>
<!-- SubsetScreening&#45;&gt;HighHDL -->
<g id="edge7" class="edge">
<title>SubsetScreening&#45;&gt;HighHDL</title>
<path fill="none" stroke="blue" d="M468.74,-782.96C523.95,-769.3 603.33,-749.57 672.69,-732 677.07,-730.89 681.61,-729.74 686.16,-728.57"/>
<polygon fill="blue" stroke="blue" points="687.28,-731.9 696.1,-726.02 685.55,-725.12 687.28,-731.9"/>
<text text-anchor="middle" x="603.69" y="-753.8" font-family="Times,serif" font-size="14.00" fill="blue">if</text>
</g>
<!-- ExclusionCriteria -->
<g id="node3" class="node">
<title>ExclusionCriteria</title>
<g id="a_node3"><a xlink:title="Women who meet any exclusion criteria">
<path fill="none" stroke="green" d="M482.69,-645C482.69,-645 360.69,-645 360.69,-645 354.69,-645 348.69,-639 348.69,-633 348.69,-633 348.69,-621 348.69,-621 348.69,-615 354.69,-609 360.69,-609 360.69,-609 482.69,-609 482.69,-609 488.69,-609 494.69,-615 494.69,-621 494.69,-621 494.69,-633 494.69,-633 494.69,-639 488.69,-645 482.69,-645"/>
<text text-anchor="middle" x="421.69" y="-623.3" font-family="Times,serif" font-size="14.00" fill="green">Exclusion Criteria</text>
</a>
</g>
</g>
<!-- KnownCVD -->
<g id="node12" class="node">
<title>KnownCVD</title>
<g id="a_node12"><a xlink:title="Known history of cardiovascular disease">
<ellipse fill="none" stroke="blue" cx="173.69" cy="-540" rx="65.79" ry="18"/>
<text text-anchor="middle" x="173.69" y="-536.3" font-family="Times,serif" font-size="14.00" fill="blue">Known CVD</text>
</a>
</g>
</g>
<!-- ExclusionCriteria&#45;&gt;KnownCVD -->
<g id="edge14" class="edge">
<title>ExclusionCriteria&#45;&gt;KnownCVD</title>
<path fill="none" stroke="blue" d="M371.81,-608.9C328.37,-594.01 265.77,-572.56 222.62,-557.77"/>
<polygon fill="blue" stroke="blue" points="223.51,-554.37 212.91,-554.44 221.24,-560.99 223.51,-554.37"/>
<text text-anchor="middle" x="317.69" y="-579.8" font-family="Times,serif" font-size="14.00" fill="blue">if</text>
</g>
<!-- BreastCancer -->
<g id="node13" class="node">
<title>BreastCancer</title>
<g id="a_node13"><a xlink:title="Currently undergoing treatment for breast cancer">
<ellipse fill="none" stroke="blue" cx="334.69" cy="-540" rx="77.19" ry="18"/>
<text text-anchor="middle" x="334.69" y="-536.3" font-family="Times,serif" font-size="14.00" fill="blue">Breast Cancer</text>
</a>
</g>
</g>
<!-- ExclusionCriteria&#45;&gt;BreastCancer -->
<g id="edge15" class="edge">
<title>ExclusionCriteria&#45;&gt;BreastCancer</title>
<path fill="none" stroke="blue" d="M404.09,-608.8C391.19,-596.19 373.5,-578.92 359.22,-564.96"/>
<polygon fill="blue" stroke="blue" points="361.28,-562.08 351.68,-557.6 356.39,-567.09 361.28,-562.08"/>
<text text-anchor="middle" x="388.69" y="-579.8" font-family="Times,serif" font-size="14.00" fill="blue">if</text>
</g>
<!-- ChronicIllness -->
<g id="node14" class="node">
<title>ChronicIllness</title>
<g id="a_node14"><a xlink:title="Severe chronic illnesses limiting life expectancy to less than 1 year">
<ellipse fill="none" stroke="blue" cx="509.69" cy="-540" rx="79.89" ry="18"/>
<text text-anchor="middle" x="509.69" y="-536.3" font-family="Times,serif" font-size="14.00" fill="blue">Chronic Illness</text>
</a>
</g>
</g>
<!-- ExclusionCriteria&#45;&gt;ChronicIllness -->
<g id="edge16" class="edge">
<title>ExclusionCriteria&#45;&gt;ChronicIllness</title>
<path fill="none" stroke="blue" d="M439.5,-608.8C452.67,-596.08 470.77,-578.6 485.29,-564.57"/>
<polygon fill="blue" stroke="blue" points="487.75,-567.06 492.51,-557.6 482.89,-562.03 487.75,-567.06"/>
<text text-anchor="middle" x="476.69" y="-579.8" font-family="Times,serif" font-size="14.00" fill="blue">if</text>
</g>
<!-- CognitiveImpairment -->
<g id="node15" class="node">
<title>CognitiveImpairment</title>
<g id="a_node15"><a xlink:title="Cognitive impairments preventing informed consent">
<ellipse fill="none" stroke="blue" cx="719.69" cy="-540" rx="112.38" ry="18"/>
<text text-anchor="middle" x="719.69" y="-536.3" font-family="Times,serif" font-size="14.00" fill="blue">Cognitive Impairment</text>
</a>
</g>
</g>
<!-- ExclusionCriteria&#45;&gt;CognitiveImpairment -->
<g id="edge17" class="edge">
<title>ExclusionCriteria&#45;&gt;CognitiveImpairment</title>
<path fill="none" stroke="blue" d="M481.64,-608.9C532.74,-594.33 605.9,-573.46 657.6,-558.71"/>
<polygon fill="blue" stroke="blue" points="658.66,-562.05 667.32,-555.94 656.74,-555.32 658.66,-562.05"/>
<text text-anchor="middle" x="593.69" y="-579.8" font-family="Times,serif" font-size="14.00" fill="blue">if</text>
</g>
<!-- SuccessfulScreen -->
<g id="node4" class="node">
<title>SuccessfulScreen</title>
<g id="a_node4"><a xlink:title="Women who have undergone comprehensive assessment and identified as high risk">
<path fill="none" stroke="green" d="M453.69,-471C453.69,-471 331.69,-471 331.69,-471 325.69,-471 319.69,-465 319.69,-459 319.69,-459 319.69,-447 319.69,-447 319.69,-441 325.69,-435 331.69,-435 331.69,-435 453.69,-435 453.69,-435 459.69,-435 465.69,-441 465.69,-447 465.69,-447 465.69,-459 465.69,-459 465.69,-465 459.69,-471 453.69,-471"/>
<text text-anchor="middle" x="392.69" y="-449.3" font-family="Times,serif" font-size="14.00" fill="green">Successful Screen</text>
</a>
</g>
</g>
<!-- ComprehensiveAssessment -->
<g id="node16" class="node">
<title>ComprehensiveAssessment</title>
<g id="a_node16"><a xlink:title="Comprehensive assessment of all risk factors">
<ellipse fill="none" stroke="blue" cx="392.69" cy="-366" rx="141.07" ry="18"/>
<text text-anchor="middle" x="392.69" y="-362.3" font-family="Times,serif" font-size="14.00" fill="blue">Comprehensive Assessment</text>
</a>
</g>
</g>
<!-- SuccessfulScreen&#45;&gt;ComprehensiveAssessment -->
<g id="edge22" class="edge">
<title>SuccessfulScreen&#45;&gt;ComprehensiveAssessment</title>
<path fill="none" stroke="blue" d="M392.69,-434.8C392.69,-423.16 392.69,-407.55 392.69,-394.24"/>
<polygon fill="blue" stroke="blue" points="396.19,-394.18 392.69,-384.18 389.19,-394.18 396.19,-394.18"/>
<text text-anchor="middle" x="397.69" y="-405.8" font-family="Times,serif" font-size="14.00" fill="blue">if</text>
</g>
<!-- FollowUp -->
<g id="node5" class="node">
<title>FollowUp</title>
<g id="a_node5"><a xlink:title="Annual reassessment and continuous monitoring for high&#45;risk women">
<path fill="none" stroke="green" d="M425.19,-36C425.19,-36 360.19,-36 360.19,-36 354.19,-36 348.19,-30 348.19,-24 348.19,-24 348.19,-12 348.19,-12 348.19,-6 354.19,0 360.19,0 360.19,0 425.19,0 425.19,0 431.19,0 437.19,-6 437.19,-12 437.19,-12 437.19,-24 437.19,-24 437.19,-30 431.19,-36 425.19,-36"/>
<text text-anchor="middle" x="392.69" y="-14.3" font-family="Times,serif" font-size="14.00" fill="green">Follow&#45;Up</text>
</a>
</g>
</g>
<!-- Menopause&#45;&gt;ExclusionCriteria -->
<g id="edge8" class="edge">
<title>Menopause&#45;&gt;ExclusionCriteria</title>
<path fill="none" stroke="blue" d="M110.35,-701.69C152.49,-691.5 216.22,-676.14 271.69,-663 293.36,-657.87 316.79,-652.37 338.56,-647.29"/>
<polygon fill="blue" stroke="blue" points="339.49,-650.67 348.43,-644.99 337.9,-643.85 339.49,-650.67"/>
<text text-anchor="middle" x="288.19" y="-666.8" font-family="Times,serif" font-size="14.00" fill="blue">then</text>
</g>
<!-- Hypertension&#45;&gt;ExclusionCriteria -->
<g id="edge9" class="edge">
<title>Hypertension&#45;&gt;ExclusionCriteria</title>
<path fill="none" stroke="blue" d="M254.05,-698.19C286.48,-684.61 334.87,-664.36 371.33,-649.09"/>
<polygon fill="blue" stroke="blue" points="372.93,-652.21 380.81,-645.12 370.23,-645.76 372.93,-652.21"/>
<text text-anchor="middle" x="349.19" y="-666.8" font-family="Times,serif" font-size="14.00" fill="blue">then</text>
</g>
<!-- Diabetes&#45;&gt;ExclusionCriteria -->
<g id="edge10" class="edge">
<title>Diabetes&#45;&gt;ExclusionCriteria</title>
<path fill="none" stroke="blue" d="M373.55,-696.21C382.2,-683.95 394.08,-667.11 403.88,-653.24"/>
<polygon fill="blue" stroke="blue" points="406.75,-655.24 409.66,-645.05 401.03,-651.2 406.75,-655.24"/>
<text text-anchor="middle" x="412.19" y="-666.8" font-family="Times,serif" font-size="14.00" fill="blue">then</text>
</g>
<!-- Smoking&#45;&gt;ExclusionCriteria -->
<g id="edge11" class="edge">
<title>Smoking&#45;&gt;ExclusionCriteria</title>
<path fill="none" stroke="blue" d="M470.64,-696.21C461.84,-683.95 449.76,-667.11 439.81,-653.24"/>
<polygon fill="blue" stroke="blue" points="442.6,-651.13 433.93,-645.05 436.92,-655.21 442.6,-651.13"/>
<text text-anchor="middle" x="473.19" y="-666.8" font-family="Times,serif" font-size="14.00" fill="blue">then</text>
</g>
<!-- HighBMI&#45;&gt;ExclusionCriteria -->
<g id="edge12" class="edge">
<title>HighBMI&#45;&gt;ExclusionCriteria</title>
<path fill="none" stroke="blue" d="M576.56,-698.77C546.97,-685.25 502.1,-664.74 468.25,-649.28"/>
<polygon fill="blue" stroke="blue" points="469.57,-646.03 459.02,-645.06 466.66,-652.4 469.57,-646.03"/>
<text text-anchor="middle" x="543.19" y="-666.8" font-family="Times,serif" font-size="14.00" fill="blue">then</text>
</g>
<!-- HighHDL&#45;&gt;ExclusionCriteria -->
<g id="edge13" class="edge">
<title>HighHDL&#45;&gt;ExclusionCriteria</title>
<path fill="none" stroke="blue" d="M698.5,-701.06C663.1,-690.66 610.11,-675.35 563.69,-663 544.07,-657.78 522.84,-652.4 502.94,-647.48"/>
<polygon fill="blue" stroke="blue" points="503.52,-644.02 492.97,-645.03 501.84,-650.82 503.52,-644.02"/>
<text text-anchor="middle" x="634.19" y="-666.8" font-family="Times,serif" font-size="14.00" fill="blue">then</text>
</g>
<!-- KnownCVD&#45;&gt;SuccessfulScreen -->
<g id="edge18" class="edge">
<title>KnownCVD&#45;&gt;SuccessfulScreen</title>
<path fill="none" stroke="blue" d="M209.86,-524.96C245.06,-511.3 298.98,-490.37 339.16,-474.78"/>
<polygon fill="blue" stroke="blue" points="340.48,-478.02 348.54,-471.14 337.95,-471.49 340.48,-478.02"/>
<text text-anchor="middle" x="313.19" y="-492.8" font-family="Times,serif" font-size="14.00" fill="blue">then</text>
</g>
<!-- BreastCancer&#45;&gt;SuccessfulScreen -->
<g id="edge19" class="edge">
<title>BreastCancer&#45;&gt;SuccessfulScreen</title>
<path fill="none" stroke="blue" d="M346.43,-521.8C354.69,-509.7 365.87,-493.3 375.18,-479.67"/>
<polygon fill="blue" stroke="blue" points="378.23,-481.41 380.97,-471.18 372.45,-477.46 378.23,-481.41"/>
<text text-anchor="middle" x="384.19" y="-492.8" font-family="Times,serif" font-size="14.00" fill="blue">then</text>
</g>
<!-- ChronicIllness&#45;&gt;SuccessfulScreen -->
<g id="edge20" class="edge">
<title>ChronicIllness&#45;&gt;SuccessfulScreen</title>
<path fill="none" stroke="blue" d="M487.14,-522.61C469.36,-509.69 444.34,-491.52 424.53,-477.13"/>
<polygon fill="blue" stroke="blue" points="426.54,-474.26 416.39,-471.21 422.42,-479.92 426.54,-474.26"/>
<text text-anchor="middle" x="475.19" y="-492.8" font-family="Times,serif" font-size="14.00" fill="blue">then</text>
</g>
<!-- CognitiveImpairment&#45;&gt;SuccessfulScreen -->
<g id="edge21" class="edge">
<title>CognitiveImpairment&#45;&gt;SuccessfulScreen</title>
<path fill="none" stroke="blue" d="M663.48,-524.39C609.51,-510.36 527.62,-489.07 468.03,-473.58"/>
<polygon fill="blue" stroke="blue" points="468.85,-470.18 458.29,-471.05 467.09,-476.95 468.85,-470.18"/>
<text text-anchor="middle" x="593.19" y="-492.8" font-family="Times,serif" font-size="14.00" fill="blue">then</text>
</g>
<!-- HighRiskIdentification -->
<g id="node17" class="node">
<title>HighRiskIdentification</title>
<g id="a_node17"><a xlink:title="Identification of women at high risk for CVD">
<ellipse fill="none" stroke="blue" cx="392.69" cy="-279" rx="120.48" ry="18"/>
<text text-anchor="middle" x="392.69" y="-275.3" font-family="Times,serif" font-size="14.00" fill="blue">High Risk Identification</text>
</a>
</g>
</g>
<!-- ComprehensiveAssessment&#45;&gt;HighRiskIdentification -->
<g id="edge23" class="edge">
<title>ComprehensiveAssessment&#45;&gt;HighRiskIdentification</title>
<path fill="none" stroke="blue" d="M392.69,-347.8C392.69,-336.16 392.69,-320.55 392.69,-307.24"/>
<polygon fill="blue" stroke="blue" points="396.19,-307.18 392.69,-297.18 389.19,-307.18 396.19,-307.18"/>
<text text-anchor="middle" x="406.19" y="-318.8" font-family="Times,serif" font-size="14.00" fill="blue">and</text>
</g>
<!-- PersonalizedPlan -->
<g id="node18" class="node">
<title>PersonalizedPlan</title>
<g id="a_node18"><a xlink:title="Development of a personalized risk management plan">
<ellipse fill="none" stroke="blue" cx="392.69" cy="-192" rx="92.88" ry="18"/>
<text text-anchor="middle" x="392.69" y="-188.3" font-family="Times,serif" font-size="14.00" fill="blue">Personalized Plan</text>
</a>
</g>
</g>
<!-- HighRiskIdentification&#45;&gt;PersonalizedPlan -->
<g id="edge24" class="edge">
<title>HighRiskIdentification&#45;&gt;PersonalizedPlan</title>
<path fill="none" stroke="blue" d="M392.69,-260.8C392.69,-249.16 392.69,-233.55 392.69,-220.24"/>
<polygon fill="blue" stroke="blue" points="396.19,-220.18 392.69,-210.18 389.19,-220.18 396.19,-220.18"/>
<text text-anchor="middle" x="406.19" y="-231.8" font-family="Times,serif" font-size="14.00" fill="blue">and</text>
</g>
<!-- Referral -->
<g id="node19" class="node">
<title>Referral</title>
<g id="a_node19"><a xlink:title="Referral to a cardiologist or specialist if necessary">
<ellipse fill="none" stroke="blue" cx="392.69" cy="-105" rx="48.99" ry="18"/>
<text text-anchor="middle" x="392.69" y="-101.3" font-family="Times,serif" font-size="14.00" fill="blue">Referral</text>
</a>
</g>
</g>
<!-- PersonalizedPlan&#45;&gt;Referral -->
<g id="edge25" class="edge">
<title>PersonalizedPlan&#45;&gt;Referral</title>
<path fill="none" stroke="blue" d="M392.69,-173.8C392.69,-162.16 392.69,-146.55 392.69,-133.24"/>
<polygon fill="blue" stroke="blue" points="396.19,-133.18 392.69,-123.18 389.19,-133.18 396.19,-133.18"/>
<text text-anchor="middle" x="406.19" y="-144.8" font-family="Times,serif" font-size="14.00" fill="blue">and</text>
</g>
<!-- Referral&#45;&gt;FollowUp -->
<g id="edge26" class="edge">
<title>Referral&#45;&gt;FollowUp</title>
<path fill="none" stroke="blue" d="M392.69,-86.8C392.69,-75.16 392.69,-59.55 392.69,-46.24"/>
<polygon fill="blue" stroke="blue" points="396.19,-46.18 392.69,-36.18 389.19,-46.18 396.19,-46.18"/>
<text text-anchor="middle" x="409.19" y="-57.8" font-family="Times,serif" font-size="14.00" fill="blue">then</text>
</g>
</g>
</svg>
