<?xml version="1.0" encoding="UTF-8" standalone="no"?>
<!DOCTYPE svg PUBLIC "-//W3C//DTD SVG 1.1//EN"
 "http://www.w3.org/Graphics/SVG/1.1/DTD/svg11.dtd">
<!-- Generated by graphviz version 2.43.0 (0)
 -->
<!-- Title: SerotoninSyndromeProtocol Pages: 1 -->
<svg width="760pt" height="392pt"
 viewBox="0.00 0.00 760.14 392.00" xmlns="http://www.w3.org/2000/svg" xmlns:xlink="http://www.w3.org/1999/xlink">
<g id="graph0" class="graph" transform="scale(1 1) rotate(0) translate(4 388)">
<title>SerotoninSyndromeProtocol</title>
<polygon fill="white" stroke="transparent" points="-4,4 -4,-388 756.14,-388 756.14,4 -4,4"/>
<!-- InitialPopulation -->
<g id="node1" class="node">
<title>InitialPopulation</title>
<g id="a_node1"><a xlink:title="All patients prescribed medications known to increase serotonin levels or interact with serotonergic agents.">
<path fill="none" stroke="green" d="M453,-384C453,-384 338,-384 338,-384 332,-384 326,-378 326,-372 326,-372 326,-360 326,-360 326,-354 332,-348 338,-348 338,-348 453,-348 453,-348 459,-348 465,-354 465,-360 465,-360 465,-372 465,-372 465,-378 459,-384 453,-384"/>
<text text-anchor="middle" x="395.5" y="-362.3" font-family="Times,serif" font-size="14.00" fill="green">Initial Population</text>
</a>
</g>
</g>
<!-- TwoOrMoreMeds -->
<g id="node6" class="node">
<title>TwoOrMoreMeds</title>
<g id="a_node6"><a xlink:title="Patients prescribed two or more serotonergic medications.">
<ellipse fill="none" stroke="blue" cx="291.5" cy="-279" rx="98.28" ry="18"/>
<text text-anchor="middle" x="291.5" y="-275.3" font-family="Times,serif" font-size="14.00" fill="blue">Two or More Meds</text>
</a>
</g>
</g>
<!-- InitialPopulation&#45;&gt;TwoOrMoreMeds -->
<g id="edge1" class="edge">
<title>InitialPopulation&#45;&gt;TwoOrMoreMeds</title>
<path fill="none" stroke="blue" d="M374.45,-347.8C358.85,-335.04 337.39,-317.5 320.21,-303.46"/>
<polygon fill="blue" stroke="blue" points="322.12,-300.5 312.16,-296.89 317.69,-305.92 322.12,-300.5"/>
<text text-anchor="middle" x="355.5" y="-318.8" font-family="Times,serif" font-size="14.00" fill="blue">if</text>
</g>
<!-- PotentiateCombo -->
<g id="node7" class="node">
<title>PotentiateCombo</title>
<g id="a_node7"><a xlink:title="Combination of serotonergic medication and a medication known to potentiate serotonin syndrome.">
<ellipse fill="none" stroke="blue" cx="501.5" cy="-279" rx="93.68" ry="18"/>
<text text-anchor="middle" x="501.5" y="-275.3" font-family="Times,serif" font-size="14.00" fill="blue">Potentiate Combo</text>
</a>
</g>
</g>
<!-- InitialPopulation&#45;&gt;PotentiateCombo -->
<g id="edge3" class="edge">
<title>InitialPopulation&#45;&gt;PotentiateCombo</title>
<path fill="none" stroke="blue" d="M416.95,-347.8C432.96,-334.96 455.02,-317.27 472.58,-303.19"/>
<polygon fill="blue" stroke="blue" points="475.19,-305.58 480.8,-296.6 470.81,-300.12 475.19,-305.58"/>
<text text-anchor="middle" x="460.5" y="-318.8" font-family="Times,serif" font-size="14.00" fill="blue">if</text>
</g>
<!-- ScreeningSubset -->
<g id="node2" class="node">
<title>ScreeningSubset</title>
<g id="a_node2"><a xlink:title="Patients prescribed two or more serotonergic medications or a combination with a medication known to potentiate serotonin syndrome.">
<path fill="none" stroke="green" d="M456,-210C456,-210 337,-210 337,-210 331,-210 325,-204 325,-198 325,-198 325,-186 325,-186 325,-180 331,-174 337,-174 337,-174 456,-174 456,-174 462,-174 468,-180 468,-186 468,-186 468,-198 468,-198 468,-204 462,-210 456,-210"/>
<text text-anchor="middle" x="396.5" y="-188.3" font-family="Times,serif" font-size="14.00" fill="green">Screening Subset</text>
</a>
</g>
</g>
<!-- DiagnosticInterventions -->
<g id="node4" class="node">
<title>DiagnosticInterventions</title>
<g id="a_node4"><a xlink:title="Monitoring symptoms, lab tests, and use of assessment tools for serotonin syndrome.">
<path fill="none" stroke="green" d="M181,-123C181,-123 12,-123 12,-123 6,-123 0,-117 0,-111 0,-111 0,-99 0,-99 0,-93 6,-87 12,-87 12,-87 181,-87 181,-87 187,-87 193,-93 193,-99 193,-99 193,-111 193,-111 193,-117 187,-123 181,-123"/>
<text text-anchor="middle" x="96.5" y="-101.3" font-family="Times,serif" font-size="14.00" fill="green">Diagnostic Interventions</text>
</a>
</g>
</g>
<!-- ScreeningSubset&#45;&gt;DiagnosticInterventions -->
<g id="edge11" class="edge">
<title>ScreeningSubset&#45;&gt;DiagnosticInterventions</title>
<path fill="none" stroke="blue" d="M336.15,-173.9C287.12,-160.01 217.92,-140.4 166.47,-125.82"/>
<polygon fill="blue" stroke="blue" points="167.33,-122.43 156.75,-123.07 165.42,-129.16 167.33,-122.43"/>
<text text-anchor="middle" x="269.5" y="-144.8" font-family="Times,serif" font-size="14.00" fill="blue">if</text>
</g>
<!-- HistoryNoMeds -->
<g id="node8" class="node">
<title>HistoryNoMeds</title>
<g id="a_node8"><a xlink:title="Patients with a history of serotonin syndrome not on serotonergic medications.">
<ellipse fill="none" stroke="blue" cx="300.5" cy="-105" rx="89.88" ry="18"/>
<text text-anchor="middle" x="300.5" y="-101.3" font-family="Times,serif" font-size="14.00" fill="blue">History No Meds</text>
</a>
</g>
</g>
<!-- ScreeningSubset&#45;&gt;HistoryNoMeds -->
<g id="edge5" class="edge">
<title>ScreeningSubset&#45;&gt;HistoryNoMeds</title>
<path fill="none" stroke="blue" d="M377.07,-173.8C362.8,-161.16 343.22,-143.82 327.43,-129.85"/>
<polygon fill="blue" stroke="blue" points="329.38,-126.89 319.57,-122.89 324.74,-132.13 329.38,-126.89"/>
<text text-anchor="middle" x="359.5" y="-144.8" font-family="Times,serif" font-size="14.00" fill="blue">if</text>
</g>
<!-- StableRegimen -->
<g id="node9" class="node">
<title>StableRegimen</title>
<g id="a_node9"><a xlink:title="Patients on a stable regimen for more than six months without changes and no history of serotonin syndrome.">
<ellipse fill="none" stroke="blue" cx="492.5" cy="-105" rx="84.49" ry="18"/>
<text text-anchor="middle" x="492.5" y="-101.3" font-family="Times,serif" font-size="14.00" fill="blue">Stable Regimen</text>
</a>
</g>
</g>
<!-- ScreeningSubset&#45;&gt;StableRegimen -->
<g id="edge7" class="edge">
<title>ScreeningSubset&#45;&gt;StableRegimen</title>
<path fill="none" stroke="blue" d="M415.93,-173.8C430.3,-161.08 450.04,-143.6 465.88,-129.57"/>
<polygon fill="blue" stroke="blue" points="468.59,-131.85 473.76,-122.6 463.95,-126.61 468.59,-131.85"/>
<text text-anchor="middle" x="455.5" y="-144.8" font-family="Times,serif" font-size="14.00" fill="blue">if</text>
</g>
<!-- PalliativeCare -->
<g id="node10" class="node">
<title>PalliativeCare</title>
<g id="a_node10"><a xlink:title="Patients under palliative care where risk is outweighed by benefits.">
<ellipse fill="none" stroke="blue" cx="673.5" cy="-105" rx="78.79" ry="18"/>
<text text-anchor="middle" x="673.5" y="-101.3" font-family="Times,serif" font-size="14.00" fill="blue">Palliative Care</text>
</a>
</g>
</g>
<!-- ScreeningSubset&#45;&gt;PalliativeCare -->
<g id="edge9" class="edge">
<title>ScreeningSubset&#45;&gt;PalliativeCare</title>
<path fill="none" stroke="blue" d="M452.22,-173.9C500.7,-159.02 570.55,-137.59 618.75,-122.8"/>
<polygon fill="blue" stroke="blue" points="619.85,-126.12 628.38,-119.84 617.8,-119.43 619.85,-126.12"/>
<text text-anchor="middle" x="556.5" y="-144.8" font-family="Times,serif" font-size="14.00" fill="blue">if</text>
</g>
<!-- ExclusionCriteria -->
<g id="node3" class="node">
<title>ExclusionCriteria</title>
<g id="a_node3"><a xlink:title="Patients with a history of serotonin syndrome not on medications, stable regimen for 6+ months, or under palliative care.">
<path fill="none" stroke="green" d="M553.5,-36C553.5,-36 431.5,-36 431.5,-36 425.5,-36 419.5,-30 419.5,-24 419.5,-24 419.5,-12 419.5,-12 419.5,-6 425.5,0 431.5,0 431.5,0 553.5,0 553.5,0 559.5,0 565.5,-6 565.5,-12 565.5,-12 565.5,-24 565.5,-24 565.5,-30 559.5,-36 553.5,-36"/>
<text text-anchor="middle" x="492.5" y="-14.3" font-family="Times,serif" font-size="14.00" fill="green">Exclusion Criteria</text>
</a>
</g>
</g>
<!-- SuccessfulScreens -->
<g id="node5" class="node">
<title>SuccessfulScreens</title>
<g id="a_node5"><a xlink:title="Identification of symptoms, medication adjustment, patient education, and follow&#45;up assessments.">
<path fill="none" stroke="green" d="M161.5,-36C161.5,-36 31.5,-36 31.5,-36 25.5,-36 19.5,-30 19.5,-24 19.5,-24 19.5,-12 19.5,-12 19.5,-6 25.5,0 31.5,0 31.5,0 161.5,0 161.5,0 167.5,0 173.5,-6 173.5,-12 173.5,-12 173.5,-24 173.5,-24 173.5,-30 167.5,-36 161.5,-36"/>
<text text-anchor="middle" x="96.5" y="-14.3" font-family="Times,serif" font-size="14.00" fill="green">Successful Screens</text>
</a>
</g>
</g>
<!-- DiagnosticInterventions&#45;&gt;SuccessfulScreens -->
<g id="edge12" class="edge">
<title>DiagnosticInterventions&#45;&gt;SuccessfulScreens</title>
<path fill="none" stroke="blue" d="M96.5,-86.8C96.5,-75.16 96.5,-59.55 96.5,-46.24"/>
<polygon fill="blue" stroke="blue" points="100,-46.18 96.5,-36.18 93,-46.18 100,-46.18"/>
<text text-anchor="middle" x="113" y="-57.8" font-family="Times,serif" font-size="14.00" fill="blue">then</text>
</g>
<!-- TwoOrMoreMeds&#45;&gt;ScreeningSubset -->
<g id="edge2" class="edge">
<title>TwoOrMoreMeds&#45;&gt;ScreeningSubset</title>
<path fill="none" stroke="blue" d="M312.24,-261.21C327.96,-248.48 349.76,-230.84 367.25,-216.68"/>
<polygon fill="blue" stroke="blue" points="369.87,-219.06 375.44,-210.05 365.46,-213.62 369.87,-219.06"/>
<text text-anchor="middle" x="367" y="-231.8" font-family="Times,serif" font-size="14.00" fill="blue">then</text>
</g>
<!-- PotentiateCombo&#45;&gt;ScreeningSubset -->
<g id="edge4" class="edge">
<title>PotentiateCombo&#45;&gt;ScreeningSubset</title>
<path fill="none" stroke="blue" d="M481.01,-261.41C465.31,-248.7 443.45,-231 425.89,-216.79"/>
<polygon fill="blue" stroke="blue" points="427.64,-213.7 417.66,-210.13 423.23,-219.14 427.64,-213.7"/>
<text text-anchor="middle" x="472" y="-231.8" font-family="Times,serif" font-size="14.00" fill="blue">then</text>
</g>
<!-- HistoryNoMeds&#45;&gt;ExclusionCriteria -->
<g id="edge6" class="edge">
<title>HistoryNoMeds&#45;&gt;ExclusionCriteria</title>
<path fill="none" stroke="blue" d="M335.72,-88.41C366.29,-74.87 410.85,-55.15 444.65,-40.18"/>
<polygon fill="blue" stroke="blue" points="446.15,-43.35 453.88,-36.1 443.32,-36.94 446.15,-43.35"/>
<text text-anchor="middle" x="425" y="-57.8" font-family="Times,serif" font-size="14.00" fill="blue">then</text>
</g>
<!-- StableRegimen&#45;&gt;ExclusionCriteria -->
<g id="edge8" class="edge">
<title>StableRegimen&#45;&gt;ExclusionCriteria</title>
<path fill="none" stroke="blue" d="M492.5,-86.8C492.5,-75.16 492.5,-59.55 492.5,-46.24"/>
<polygon fill="blue" stroke="blue" points="496,-46.18 492.5,-36.18 489,-46.18 496,-46.18"/>
<text text-anchor="middle" x="509" y="-57.8" font-family="Times,serif" font-size="14.00" fill="blue">then</text>
</g>
<!-- PalliativeCare&#45;&gt;ExclusionCriteria -->
<g id="edge10" class="edge">
<title>PalliativeCare&#45;&gt;ExclusionCriteria</title>
<path fill="none" stroke="blue" d="M640.72,-88.61C611.98,-75.11 569.9,-55.35 537.92,-40.33"/>
<polygon fill="blue" stroke="blue" points="539.3,-37.11 528.76,-36.03 536.33,-43.45 539.3,-37.11"/>
<text text-anchor="middle" x="610" y="-57.8" font-family="Times,serif" font-size="14.00" fill="blue">then</text>
</g>
</g>
</svg>
