<?xml version="1.0" encoding="UTF-8" standalone="no"?><!DOCTYPE svg PUBLIC "-//W3C//DTD SVG 1.1//EN" "http://www.w3.org/Graphics/SVG/1.1/DTD/svg11.dtd"><!-- Generated by graphviz version 2.40.1 (20161225.0304)
 --><!-- Title: G Pages: 1 --><svg xmlns="http://www.w3.org/2000/svg" xmlns:xlink="http://www.w3.org/1999/xlink" width="357pt" height="222pt" viewBox="0.00 0.00 357.03 221.60">
<g id="graph0" class="graph" transform="scale(1 1) rotate(0) translate(4 217.6)">
<title>G</title>
<polygon fill="#ffffff" stroke="transparent" points="-4,4 -4,-217.6 353.0331,-217.6 353.0331,4 -4,4"/>
<!-- A -->
<g id="node1" class="node">
<title>A</title>
<polygon fill="none" stroke="#0000ff" points="174.5165,-213.6 31.7314,-195.6 174.5165,-177.6 317.3017,-195.6 174.5165,-213.6"/>
<text text-anchor="middle" x="174.5165" y="-191.4" font-family="Times,serif" font-size="14.00" fill="#0000ff">Is the person pregnant?</text>
</g>
<!-- B -->
<g id="node2" class="node">
<title>B</title>
<polygon fill="none" stroke="#0000ff" points="174.5165,-124.8 -.0165,-106.8 174.5165,-88.8 349.0496,-106.8 174.5165,-124.8"/>
<text text-anchor="middle" x="174.5165" y="-102.6" font-family="Times,serif" font-size="14.00" fill="#0000ff">Is this the first prenatal visit?</text>
</g>
<!-- A&#45;&gt;B -->
<g id="edge1" class="edge">
<title>A-&gt;B</title>
<path fill="none" stroke="#000000" d="M174.5165,-177.2006C174.5165,-165.0949 174.5165,-149.0076 174.5165,-135.2674"/>
<polygon fill="#000000" stroke="#000000" points="178.0166,-134.872 174.5165,-124.872 171.0166,-134.8721 178.0166,-134.872"/>
<text text-anchor="middle" x="185.3994" y="-147" font-family="Times,serif" font-size="14.00" fill="#000000">Yes</text>
</g>
<!-- C -->
<g id="node3" class="node">
<title>C</title>
<polygon fill="none" stroke="#000000" points="255.0061,-36 94.0269,-36 94.0269,0 255.0061,0 255.0061,-36"/>
<text text-anchor="middle" x="174.5165" y="-13.8" font-family="Times,serif" font-size="14.00" fill="#000000">Screen for HBV Infection</text>
</g>
<!-- B&#45;&gt;C -->
<g id="edge2" class="edge">
<title>B-&gt;C</title>
<path fill="none" stroke="#000000" d="M174.5165,-88.4006C174.5165,-76.2949 174.5165,-60.2076 174.5165,-46.4674"/>
<polygon fill="#000000" stroke="#000000" points="178.0166,-46.072 174.5165,-36.072 171.0166,-46.0721 178.0166,-46.072"/>
<text text-anchor="middle" x="185.3994" y="-58.2" font-family="Times,serif" font-size="14.00" fill="#000000">Yes</text>
</g>
</g>
</svg>