<?xml version="1.0" encoding="UTF-8" standalone="no"?>
<!DOCTYPE svg PUBLIC "-//W3C//DTD SVG 1.1//EN"
 "http://www.w3.org/Graphics/SVG/1.1/DTD/svg11.dtd">
<!-- Generated by graphviz version 2.43.0 (0)
 -->
<!-- Title: %3 Pages: 1 -->
<svg width="410pt" height="1283pt"
 viewBox="0.00 0.00 410.29 1283.00" xmlns="http://www.w3.org/2000/svg" xmlns:xlink="http://www.w3.org/1999/xlink">
<g id="graph0" class="graph" transform="scale(1 1) rotate(0) translate(4 1279)">
<title>%3</title>
<polygon fill="white" stroke="transparent" points="-4,4 -4,-1279 406.29,-1279 406.29,4 -4,4"/>
<!-- InitialPop -->
<g id="node1" class="node">
<title>InitialPop</title>
<g id="a_node1"><a xlink:title="Male patients aged 18 to 39 years">
<path fill="none" stroke="green" d="M231,-1275C231,-1275 116,-1275 116,-1275 110,-1275 104,-1269 104,-1263 104,-1263 104,-1251 104,-1251 104,-1245 110,-1239 116,-1239 116,-1239 231,-1239 231,-1239 237,-1239 243,-1245 243,-1251 243,-1251 243,-1263 243,-1263 243,-1269 237,-1275 231,-1275"/>
<text text-anchor="middle" x="173.5" y="-1253.3" font-family="Times,serif" font-size="14.00" fill="green">Initial Population</text>
</a>
</g>
</g>
<!-- SubsetPop -->
<g id="node2" class="node">
<title>SubsetPop</title>
<g id="a_node2"><a xlink:title="Male patients within the initial population who have not had a documented blood pressure screening in the past year">
<path fill="none" stroke="green" d="M234.5,-1188C234.5,-1188 112.5,-1188 112.5,-1188 106.5,-1188 100.5,-1182 100.5,-1176 100.5,-1176 100.5,-1164 100.5,-1164 100.5,-1158 106.5,-1152 112.5,-1152 112.5,-1152 234.5,-1152 234.5,-1152 240.5,-1152 246.5,-1158 246.5,-1164 246.5,-1164 246.5,-1176 246.5,-1176 246.5,-1182 240.5,-1188 234.5,-1188"/>
<text text-anchor="middle" x="173.5" y="-1166.3" font-family="Times,serif" font-size="14.00" fill="green">Subset Population</text>
</a>
</g>
</g>
<!-- InitialPop&#45;&gt;SubsetPop -->
<g id="edge1" class="edge">
<title>InitialPop&#45;&gt;SubsetPop</title>
<path fill="none" stroke="blue" d="M173.5,-1238.8C173.5,-1227.16 173.5,-1211.55 173.5,-1198.24"/>
<polygon fill="blue" stroke="blue" points="177,-1198.18 173.5,-1188.18 170,-1198.18 177,-1198.18"/>
<text text-anchor="middle" x="178.5" y="-1209.8" font-family="Times,serif" font-size="14.00" fill="blue">if</text>
</g>
<!-- NoScreening -->
<g id="node7" class="node">
<title>NoScreening</title>
<g id="a_node7"><a xlink:title="No documented blood pressure screening in the past year">
<ellipse fill="none" stroke="blue" cx="173.5" cy="-1083" rx="73.39" ry="18"/>
<text text-anchor="middle" x="173.5" y="-1079.3" font-family="Times,serif" font-size="14.00" fill="blue">No Screening</text>
</a>
</g>
</g>
<!-- SubsetPop&#45;&gt;NoScreening -->
<g id="edge2" class="edge">
<title>SubsetPop&#45;&gt;NoScreening</title>
<path fill="none" stroke="blue" d="M173.5,-1151.8C173.5,-1140.16 173.5,-1124.55 173.5,-1111.24"/>
<polygon fill="blue" stroke="blue" points="177,-1111.18 173.5,-1101.18 170,-1111.18 177,-1111.18"/>
<text text-anchor="middle" x="178.5" y="-1122.8" font-family="Times,serif" font-size="14.00" fill="blue">if</text>
</g>
<!-- EligiblePop -->
<g id="node3" class="node">
<title>EligiblePop</title>
<g id="a_node3"><a xlink:title="Eligible male patients for blood pressure screening">
<path fill="none" stroke="green" d="M237.5,-1014C237.5,-1014 109.5,-1014 109.5,-1014 103.5,-1014 97.5,-1008 97.5,-1002 97.5,-1002 97.5,-990 97.5,-990 97.5,-984 103.5,-978 109.5,-978 109.5,-978 237.5,-978 237.5,-978 243.5,-978 249.5,-984 249.5,-990 249.5,-990 249.5,-1002 249.5,-1002 249.5,-1008 243.5,-1014 237.5,-1014"/>
<text text-anchor="middle" x="173.5" y="-992.3" font-family="Times,serif" font-size="14.00" fill="green">Eligible Population</text>
</a>
</g>
</g>
<!-- NoHypertension -->
<g id="node8" class="node">
<title>NoHypertension</title>
<g id="a_node8"><a xlink:title="No documented diagnosis of hypertension">
<ellipse fill="none" stroke="blue" cx="173.5" cy="-909" rx="89.88" ry="18"/>
<text text-anchor="middle" x="173.5" y="-905.3" font-family="Times,serif" font-size="14.00" fill="blue">No Hypertension</text>
</a>
</g>
</g>
<!-- EligiblePop&#45;&gt;NoHypertension -->
<g id="edge4" class="edge">
<title>EligiblePop&#45;&gt;NoHypertension</title>
<path fill="none" stroke="blue" d="M173.5,-977.8C173.5,-966.16 173.5,-950.55 173.5,-937.24"/>
<polygon fill="blue" stroke="blue" points="177,-937.18 173.5,-927.18 170,-937.18 177,-937.18"/>
<text text-anchor="middle" x="178.5" y="-948.8" font-family="Times,serif" font-size="14.00" fill="blue">if</text>
</g>
<!-- NormalBP -->
<g id="node4" class="node">
<title>NormalBP</title>
<g id="a_node4"><a xlink:title="Blood pressure reading is normal (systolic &lt;120 mmHg and diastolic &lt;80 mmHg)">
<path fill="none" stroke="green" d="M83,-264C83,-264 12,-264 12,-264 6,-264 0,-258 0,-252 0,-252 0,-240 0,-240 0,-234 6,-228 12,-228 12,-228 83,-228 83,-228 89,-228 95,-234 95,-240 95,-240 95,-252 95,-252 95,-258 89,-264 83,-264"/>
<text text-anchor="middle" x="47.5" y="-242.3" font-family="Times,serif" font-size="14.00" fill="green">Normal BP</text>
</a>
</g>
</g>
<!-- DocumentActions -->
<g id="node17" class="node">
<title>DocumentActions</title>
<g id="a_node17"><a xlink:title="Document all actions taken in the EHR">
<ellipse fill="none" stroke="blue" cx="173.5" cy="-105" rx="94.78" ry="18"/>
<text text-anchor="middle" x="173.5" y="-101.3" font-family="Times,serif" font-size="14.00" fill="blue">Document Actions</text>
</a>
</g>
</g>
<!-- NormalBP&#45;&gt;DocumentActions -->
<g id="edge14" class="edge">
<title>NormalBP&#45;&gt;DocumentActions</title>
<path fill="none" stroke="blue" d="M40.31,-227.92C35.1,-212.66 30.54,-190.27 40.5,-174 55.51,-149.47 82.47,-133.43 108.21,-123.13"/>
<polygon fill="blue" stroke="blue" points="109.49,-126.39 117.61,-119.59 107.02,-119.84 109.49,-126.39"/>
<text text-anchor="middle" x="57" y="-188.3" font-family="Times,serif" font-size="14.00" fill="blue">then</text>
</g>
<!-- ElevatedBP -->
<g id="node5" class="node">
<title>ElevatedBP</title>
<g id="a_node5"><a xlink:title="Blood pressure reading is elevated (systolic 120&#45;129 mmHg and diastolic &lt;80 mmHg)">
<path fill="none" stroke="green" d="M213.5,-318C213.5,-318 133.5,-318 133.5,-318 127.5,-318 121.5,-312 121.5,-306 121.5,-306 121.5,-294 121.5,-294 121.5,-288 127.5,-282 133.5,-282 133.5,-282 213.5,-282 213.5,-282 219.5,-282 225.5,-288 225.5,-294 225.5,-294 225.5,-306 225.5,-306 225.5,-312 219.5,-318 213.5,-318"/>
<text text-anchor="middle" x="173.5" y="-296.3" font-family="Times,serif" font-size="14.00" fill="green">Elevated BP</text>
</a>
</g>
</g>
<!-- LifestyleCounsel -->
<g id="node15" class="node">
<title>LifestyleCounsel</title>
<g id="a_node15"><a xlink:title="Provide lifestyle modification counseling">
<ellipse fill="none" stroke="blue" cx="173.5" cy="-192" rx="90.98" ry="18"/>
<text text-anchor="middle" x="173.5" y="-188.3" font-family="Times,serif" font-size="14.00" fill="blue">Lifestyle Counsel</text>
</a>
</g>
</g>
<!-- ElevatedBP&#45;&gt;LifestyleCounsel -->
<g id="edge15" class="edge">
<title>ElevatedBP&#45;&gt;LifestyleCounsel</title>
<path fill="none" stroke="blue" d="M173.5,-281.97C173.5,-265.38 173.5,-239.88 173.5,-220.43"/>
<polygon fill="blue" stroke="blue" points="177,-220.34 173.5,-210.34 170,-220.34 177,-220.34"/>
<text text-anchor="middle" x="190" y="-242.3" font-family="Times,serif" font-size="14.00" fill="blue">then</text>
</g>
<!-- Hypertension -->
<g id="node6" class="node">
<title>Hypertension</title>
<g id="a_node6"><a xlink:title="Blood pressure reading indicates hypertension (systolic ≥130 mmHg or diastolic ≥80 mmHg)">
<path fill="none" stroke="green" d="M366,-318C366,-318 277,-318 277,-318 271,-318 265,-312 265,-306 265,-306 265,-294 265,-294 265,-288 271,-282 277,-282 277,-282 366,-282 366,-282 372,-282 378,-288 378,-294 378,-294 378,-306 378,-306 378,-312 372,-318 366,-318"/>
<text text-anchor="middle" x="321.5" y="-296.3" font-family="Times,serif" font-size="14.00" fill="green">Hypertension</text>
</a>
</g>
</g>
<!-- ReferEval -->
<g id="node16" class="node">
<title>ReferEval</title>
<g id="a_node16"><a xlink:title="Refer for further evaluation and management">
<ellipse fill="none" stroke="blue" cx="342.5" cy="-192" rx="59.59" ry="18"/>
<text text-anchor="middle" x="342.5" y="-188.3" font-family="Times,serif" font-size="14.00" fill="blue">Refer Eval</text>
</a>
</g>
</g>
<!-- Hypertension&#45;&gt;ReferEval -->
<g id="edge17" class="edge">
<title>Hypertension&#45;&gt;ReferEval</title>
<path fill="none" stroke="blue" d="M324.87,-281.97C328.2,-265.2 333.32,-239.34 337.19,-219.81"/>
<polygon fill="blue" stroke="blue" points="340.62,-220.48 339.13,-209.99 333.76,-219.12 340.62,-220.48"/>
<text text-anchor="middle" x="351" y="-242.3" font-family="Times,serif" font-size="14.00" fill="blue">then</text>
</g>
<!-- NoScreening&#45;&gt;EligiblePop -->
<g id="edge3" class="edge">
<title>NoScreening&#45;&gt;EligiblePop</title>
<path fill="none" stroke="blue" d="M173.5,-1064.8C173.5,-1053.16 173.5,-1037.55 173.5,-1024.24"/>
<polygon fill="blue" stroke="blue" points="177,-1024.18 173.5,-1014.18 170,-1024.18 177,-1024.18"/>
<text text-anchor="middle" x="190" y="-1035.8" font-family="Times,serif" font-size="14.00" fill="blue">then</text>
</g>
<!-- NoMeds -->
<g id="node9" class="node">
<title>NoMeds</title>
<g id="a_node9"><a xlink:title="Not currently on antihypertensive medication">
<ellipse fill="none" stroke="blue" cx="173.5" cy="-822" rx="51.99" ry="18"/>
<text text-anchor="middle" x="173.5" y="-818.3" font-family="Times,serif" font-size="14.00" fill="blue">No Meds</text>
</a>
</g>
</g>
<!-- NoHypertension&#45;&gt;NoMeds -->
<g id="edge5" class="edge">
<title>NoHypertension&#45;&gt;NoMeds</title>
<path fill="none" stroke="blue" d="M173.5,-890.8C173.5,-879.16 173.5,-863.55 173.5,-850.24"/>
<polygon fill="blue" stroke="blue" points="177,-850.18 173.5,-840.18 170,-850.18 177,-850.18"/>
<text text-anchor="middle" x="187" y="-861.8" font-family="Times,serif" font-size="14.00" fill="blue">and</text>
</g>
<!-- NoSecondaryCause -->
<g id="node10" class="node">
<title>NoSecondaryCause</title>
<g id="a_node10"><a xlink:title="No known secondary cause of hypertension">
<ellipse fill="none" stroke="blue" cx="173.5" cy="-735" rx="106.68" ry="18"/>
<text text-anchor="middle" x="173.5" y="-731.3" font-family="Times,serif" font-size="14.00" fill="blue">No Secondary Cause</text>
</a>
</g>
</g>
<!-- NoMeds&#45;&gt;NoSecondaryCause -->
<g id="edge6" class="edge">
<title>NoMeds&#45;&gt;NoSecondaryCause</title>
<path fill="none" stroke="blue" d="M173.5,-803.8C173.5,-792.16 173.5,-776.55 173.5,-763.24"/>
<polygon fill="blue" stroke="blue" points="177,-763.18 173.5,-753.18 170,-763.18 177,-763.18"/>
<text text-anchor="middle" x="187" y="-774.8" font-family="Times,serif" font-size="14.00" fill="blue">and</text>
</g>
<!-- NotHospitalized -->
<g id="node11" class="node">
<title>NotHospitalized</title>
<g id="a_node11"><a xlink:title="Not currently hospitalized or in a long&#45;term care facility">
<ellipse fill="none" stroke="blue" cx="173.5" cy="-648" rx="89.08" ry="18"/>
<text text-anchor="middle" x="173.5" y="-644.3" font-family="Times,serif" font-size="14.00" fill="blue">Not Hospitalized</text>
</a>
</g>
</g>
<!-- NoSecondaryCause&#45;&gt;NotHospitalized -->
<g id="edge7" class="edge">
<title>NoSecondaryCause&#45;&gt;NotHospitalized</title>
<path fill="none" stroke="blue" d="M173.5,-716.8C173.5,-705.16 173.5,-689.55 173.5,-676.24"/>
<polygon fill="blue" stroke="blue" points="177,-676.18 173.5,-666.18 170,-676.18 177,-676.18"/>
<text text-anchor="middle" x="187" y="-687.8" font-family="Times,serif" font-size="14.00" fill="blue">and</text>
</g>
<!-- NotTerminal -->
<g id="node12" class="node">
<title>NotTerminal</title>
<g id="a_node12"><a xlink:title="No terminal illness or under palliative care">
<ellipse fill="none" stroke="blue" cx="173.5" cy="-561" rx="71.49" ry="18"/>
<text text-anchor="middle" x="173.5" y="-557.3" font-family="Times,serif" font-size="14.00" fill="blue">Not Terminal</text>
</a>
</g>
</g>
<!-- NotHospitalized&#45;&gt;NotTerminal -->
<g id="edge8" class="edge">
<title>NotHospitalized&#45;&gt;NotTerminal</title>
<path fill="none" stroke="blue" d="M173.5,-629.8C173.5,-618.16 173.5,-602.55 173.5,-589.24"/>
<polygon fill="blue" stroke="blue" points="177,-589.18 173.5,-579.18 170,-589.18 177,-589.18"/>
<text text-anchor="middle" x="187" y="-600.8" font-family="Times,serif" font-size="14.00" fill="blue">and</text>
</g>
<!-- ValidatedSphyg -->
<g id="node13" class="node">
<title>ValidatedSphyg</title>
<g id="a_node13"><a xlink:title="Use of a validated and calibrated sphygmomanometer">
<ellipse fill="none" stroke="blue" cx="173.5" cy="-474" rx="86.38" ry="18"/>
<text text-anchor="middle" x="173.5" y="-470.3" font-family="Times,serif" font-size="14.00" fill="blue">Validated Sphyg</text>
</a>
</g>
</g>
<!-- NotTerminal&#45;&gt;ValidatedSphyg -->
<g id="edge9" class="edge">
<title>NotTerminal&#45;&gt;ValidatedSphyg</title>
<path fill="none" stroke="blue" d="M173.5,-542.8C173.5,-531.16 173.5,-515.55 173.5,-502.24"/>
<polygon fill="blue" stroke="blue" points="177,-502.18 173.5,-492.18 170,-502.18 177,-502.18"/>
<text text-anchor="middle" x="187" y="-513.8" font-family="Times,serif" font-size="14.00" fill="blue">and</text>
</g>
<!-- RecordBP -->
<g id="node14" class="node">
<title>RecordBP</title>
<g id="a_node14"><a xlink:title="Record the blood pressure reading in the patient&#39;s EHR">
<ellipse fill="none" stroke="blue" cx="173.5" cy="-387" rx="59.59" ry="18"/>
<text text-anchor="middle" x="173.5" y="-383.3" font-family="Times,serif" font-size="14.00" fill="blue">Record BP</text>
</a>
</g>
</g>
<!-- ValidatedSphyg&#45;&gt;RecordBP -->
<g id="edge10" class="edge">
<title>ValidatedSphyg&#45;&gt;RecordBP</title>
<path fill="none" stroke="blue" d="M173.5,-455.8C173.5,-444.16 173.5,-428.55 173.5,-415.24"/>
<polygon fill="blue" stroke="blue" points="177,-415.18 173.5,-405.18 170,-415.18 177,-415.18"/>
<text text-anchor="middle" x="187" y="-426.8" font-family="Times,serif" font-size="14.00" fill="blue">and</text>
</g>
<!-- RecordBP&#45;&gt;NormalBP -->
<g id="edge11" class="edge">
<title>RecordBP&#45;&gt;NormalBP</title>
<path fill="none" stroke="blue" d="M155.44,-369.63C149.3,-363.88 142.47,-357.28 136.5,-351 111.77,-325.01 85.26,-293.51 67.67,-272.03"/>
<polygon fill="blue" stroke="blue" points="70.19,-269.58 61.16,-264.05 64.76,-274.01 70.19,-269.58"/>
<text text-anchor="middle" x="153" y="-339.8" font-family="Times,serif" font-size="14.00" fill="blue">then</text>
</g>
<!-- RecordBP&#45;&gt;ElevatedBP -->
<g id="edge12" class="edge">
<title>RecordBP&#45;&gt;ElevatedBP</title>
<path fill="none" stroke="blue" d="M173.5,-368.8C173.5,-357.16 173.5,-341.55 173.5,-328.24"/>
<polygon fill="blue" stroke="blue" points="177,-328.18 173.5,-318.18 170,-328.18 177,-328.18"/>
<text text-anchor="middle" x="190" y="-339.8" font-family="Times,serif" font-size="14.00" fill="blue">then</text>
</g>
<!-- RecordBP&#45;&gt;Hypertension -->
<g id="edge13" class="edge">
<title>RecordBP&#45;&gt;Hypertension</title>
<path fill="none" stroke="blue" d="M199.96,-370.8C223.02,-357.56 256.75,-338.19 282.83,-323.21"/>
<polygon fill="blue" stroke="blue" points="284.78,-326.13 291.71,-318.11 281.29,-320.06 284.78,-326.13"/>
<text text-anchor="middle" x="273" y="-339.8" font-family="Times,serif" font-size="14.00" fill="blue">then</text>
</g>
<!-- LifestyleCounsel&#45;&gt;DocumentActions -->
<g id="edge16" class="edge">
<title>LifestyleCounsel&#45;&gt;DocumentActions</title>
<path fill="none" stroke="blue" d="M173.5,-173.8C173.5,-162.16 173.5,-146.55 173.5,-133.24"/>
<polygon fill="blue" stroke="blue" points="177,-133.18 173.5,-123.18 170,-133.18 177,-133.18"/>
<text text-anchor="middle" x="190" y="-144.8" font-family="Times,serif" font-size="14.00" fill="blue">then</text>
</g>
<!-- ReferEval&#45;&gt;DocumentActions -->
<g id="edge18" class="edge">
<title>ReferEval&#45;&gt;DocumentActions</title>
<path fill="none" stroke="blue" d="M313.06,-176.19C285.81,-162.49 245.02,-141.97 214.57,-126.65"/>
<polygon fill="blue" stroke="blue" points="215.98,-123.45 205.47,-122.08 212.83,-129.7 215.98,-123.45"/>
<text text-anchor="middle" x="285" y="-144.8" font-family="Times,serif" font-size="14.00" fill="blue">then</text>
</g>
<!-- Compliance -->
<g id="node18" class="node">
<title>Compliance</title>
<g id="a_node18"><a xlink:title="Ensure compliance with the US Preventive Services Task Force guidelines">
<ellipse fill="none" stroke="blue" cx="173.5" cy="-18" rx="64.99" ry="18"/>
<text text-anchor="middle" x="173.5" y="-14.3" font-family="Times,serif" font-size="14.00" fill="blue">Compliance</text>
</a>
</g>
</g>
<!-- DocumentActions&#45;&gt;Compliance -->
<g id="edge19" class="edge">
<title>DocumentActions&#45;&gt;Compliance</title>
<path fill="none" stroke="blue" d="M173.5,-86.8C173.5,-75.16 173.5,-59.55 173.5,-46.24"/>
<polygon fill="blue" stroke="blue" points="177,-46.18 173.5,-36.18 170,-46.18 177,-46.18"/>
<text text-anchor="middle" x="190" y="-57.8" font-family="Times,serif" font-size="14.00" fill="blue">then</text>
</g>
</g>
</svg>
