<?xml version="1.0" encoding="UTF-8" standalone="no"?>
<!DOCTYPE svg PUBLIC "-//W3C//DTD SVG 1.1//EN"
 "http://www.w3.org/Graphics/SVG/1.1/DTD/svg11.dtd">
<!-- Generated by graphviz version 11.0.0 (20240428.1522)
 -->
<!-- Title: RLS_Treatment Pages: 1 -->
<svg width="1030pt" height="744pt"
 viewBox="0.00 0.00 1029.62 743.79" xmlns="http://www.w3.org/2000/svg" xmlns:xlink="http://www.w3.org/1999/xlink">
<g id="graph0" class="graph" transform="scale(1 1) rotate(0) translate(4 739.79)">
<title>RLS_Treatment</title>
<polygon fill="white" stroke="none" points="-4,4 -4,-739.79 1025.62,-739.79 1025.62,4 -4,4"/>
<!-- start -->
<g id="node1" class="node">
<title>start</title>
<ellipse fill="lightblue" stroke="black" cx="415.25" cy="-660.89" rx="74.89" ry="74.89"/>
<text text-anchor="middle" x="415.25" y="-655.84" font-family="Times,serif" font-size="14.00">Patient with RLS</text>
</g>
<!-- nonpharmacologic -->
<g id="node6" class="node">
<title>nonpharmacologic</title>
<polygon fill="none" stroke="black" points="418.25,-550 180.25,-550 180.25,-514 418.25,-514 418.25,-550"/>
<text text-anchor="middle" x="299.25" y="-526.95" font-family="Times,serif" font-size="14.00"> Consider nonpharmacologic approaches</text>
</g>
<!-- start&#45;&gt;nonpharmacologic -->
<g id="edge1" class="edge">
<title>start&#45;&gt;nonpharmacologic</title>
<path fill="none" stroke="black" d="M365.05,-604.97C350.28,-588.82 334.82,-571.92 322.61,-558.55"/>
<polygon fill="black" stroke="black" points="325.44,-556.46 316.11,-551.44 320.27,-561.18 325.44,-556.46"/>
</g>
<!-- serum_ferritin -->
<g id="node7" class="node">
<title>serum_ferritin</title>
<polygon fill="none" stroke="black" points="646,-550 490.5,-550 490.5,-514 646,-514 646,-550"/>
<text text-anchor="middle" x="568.25" y="-526.95" font-family="Times,serif" font-size="14.00">Serum Ferritin ≤ 75 µg/L</text>
</g>
<!-- start&#45;&gt;serum_ferritin -->
<g id="edge2" class="edge">
<title>start&#45;&gt;serum_ferritin</title>
<path fill="none" stroke="black" d="M472.66,-612.28C495.1,-593.67 519.89,-573.11 538.6,-557.59"/>
<polygon fill="black" stroke="black" points="540.63,-560.46 546.09,-551.38 536.16,-555.07 540.63,-560.46"/>
</g>
<!-- moderate_severe_RLS -->
<g id="node2" class="node">
<title>moderate_severe_RLS</title>
<polygon fill="none" stroke="black" points="691.12,-365.5 539.38,-365.5 539.38,-329.5 691.12,-329.5 691.12,-365.5"/>
<text text-anchor="middle" x="615.25" y="-342.45" font-family="Times,serif" font-size="14.00">Moderate to Severe RLS</text>
</g>
<!-- pharmacologic_agent -->
<g id="node4" class="node">
<title>pharmacologic_agent</title>
<polygon fill="none" stroke="black" points="714,-291 516.5,-291 516.5,-250 714,-250 714,-291"/>
<text text-anchor="middle" x="615.25" y="-273.7" font-family="Times,serif" font-size="14.00">Consider pharmacological agents</text>
<text text-anchor="middle" x="615.25" y="-257.2" font-family="Times,serif" font-size="14.00"> based on treatment goals</text>
</g>
<!-- moderate_severe_RLS&#45;&gt;pharmacologic_agent -->
<g id="edge7" class="edge">
<title>moderate_severe_RLS&#45;&gt;pharmacologic_agent</title>
<path fill="none" stroke="black" d="M615.25,-329.1C615.25,-321.28 615.25,-311.8 615.25,-302.81"/>
<polygon fill="black" stroke="black" points="618.75,-302.96 615.25,-292.96 611.75,-302.96 618.75,-302.96"/>
</g>
<!-- target_sleep -->
<g id="node3" class="node">
<title>target_sleep</title>
<polygon fill="none" stroke="black" points="556.75,-197.5 465.75,-197.5 465.75,-161.5 556.75,-161.5 556.75,-197.5"/>
<text text-anchor="middle" x="511.25" y="-174.45" font-family="Times,serif" font-size="14.00">Target Sleep?</text>
</g>
<!-- subjective_sleep -->
<g id="node17" class="node">
<title>subjective_sleep</title>
<polygon fill="none" stroke="orange" points="537.5,-124.5 433,-124.5 433,-88.5 537.5,-88.5 537.5,-124.5"/>
<text text-anchor="middle" x="485.25" y="-101.45" font-family="Times,serif" font-size="14.00" fill="orange">Subjective sleep</text>
</g>
<!-- target_sleep&#45;&gt;subjective_sleep -->
<g id="edge13" class="edge">
<title>target_sleep&#45;&gt;subjective_sleep</title>
<path fill="none" stroke="black" d="M504.96,-161.31C502.08,-153.46 498.61,-143.97 495.38,-135.16"/>
<polygon fill="black" stroke="black" points="498.73,-134.14 492.01,-125.95 492.16,-136.54 498.73,-134.14"/>
</g>
<!-- objective_sleep -->
<g id="node18" class="node">
<title>objective_sleep</title>
<polygon fill="none" stroke="green" points="415.25,-124.5 315.25,-124.5 315.25,-88.5 415.25,-88.5 415.25,-124.5"/>
<text text-anchor="middle" x="365.25" y="-101.45" font-family="Times,serif" font-size="14.00" fill="green">Objective sleep</text>
</g>
<!-- target_sleep&#45;&gt;objective_sleep -->
<g id="edge14" class="edge">
<title>target_sleep&#45;&gt;objective_sleep</title>
<path fill="none" stroke="black" d="M475.53,-161.13C456.18,-151.72 432.05,-139.98 411.29,-129.89"/>
<polygon fill="black" stroke="black" points="412.99,-126.82 402.46,-125.6 409.93,-133.12 412.99,-126.82"/>
</g>
<!-- PLMS -->
<g id="node19" class="node">
<title>PLMS</title>
<polygon fill="none" stroke="purple" points="609.25,-124.5 555.25,-124.5 555.25,-88.5 609.25,-88.5 609.25,-124.5"/>
<text text-anchor="middle" x="582.25" y="-101.45" font-family="Times,serif" font-size="14.00" fill="purple">PLMS</text>
</g>
<!-- target_sleep&#45;&gt;PLMS -->
<g id="edge15" class="edge">
<title>target_sleep&#45;&gt;PLMS</title>
<path fill="none" stroke="black" d="M528.44,-161.31C537.07,-152.68 547.69,-142.06 557.22,-132.53"/>
<polygon fill="black" stroke="black" points="559.55,-135.15 564.15,-125.6 554.6,-130.2 559.55,-135.15"/>
</g>
<!-- pharmacologic_agent&#45;&gt;target_sleep -->
<g id="edge8" class="edge">
<title>pharmacologic_agent&#45;&gt;target_sleep</title>
<path fill="none" stroke="black" d="M591.91,-249.53C576.65,-236.47 556.6,-219.31 540.31,-205.37"/>
<polygon fill="black" stroke="black" points="542.72,-202.83 532.85,-198.98 538.17,-208.14 542.72,-202.83"/>
</g>
<!-- concomitant_psychiatric -->
<g id="node14" class="node">
<title>concomitant_psychiatric</title>
<polygon fill="none" stroke="blue" points="296.88,-124.5 77.62,-124.5 77.62,-88.5 296.88,-88.5 296.88,-124.5"/>
<text text-anchor="middle" x="187.25" y="-101.45" font-family="Times,serif" font-size="14.00" fill="blue">Concomitant Psychiatric Symptoms?</text>
</g>
<!-- pharmacologic_agent&#45;&gt;concomitant_psychiatric -->
<g id="edge9" class="edge">
<title>pharmacologic_agent&#45;&gt;concomitant_psychiatric</title>
<path fill="none" stroke="black" d="M562.77,-249.64C481.83,-219 327.19,-160.47 243.83,-128.92"/>
<polygon fill="black" stroke="black" points="245.3,-125.73 234.71,-125.46 242.82,-132.28 245.3,-125.73"/>
</g>
<!-- improve_QoL -->
<g id="node15" class="node">
<title>improve_QoL</title>
<polygon fill="none" stroke="red" points="724.75,-124.5 627.75,-124.5 627.75,-88.5 724.75,-88.5 724.75,-124.5"/>
<text text-anchor="middle" x="676.25" y="-101.45" font-family="Times,serif" font-size="14.00" fill="red">Improve QoL?</text>
</g>
<!-- pharmacologic_agent&#45;&gt;improve_QoL -->
<g id="edge10" class="edge">
<title>pharmacologic_agent&#45;&gt;improve_QoL</title>
<path fill="none" stroke="black" d="M613.68,-249.9C612.55,-223.12 614.27,-174.76 637.25,-142.5 639.66,-139.11 642.45,-135.82 645.42,-132.7"/>
<polygon fill="black" stroke="black" points="647.66,-135.4 652.41,-125.93 642.79,-130.37 647.66,-135.4"/>
</g>
<!-- avoid_augmentation -->
<g id="node16" class="node">
<title>avoid_augmentation</title>
<polygon fill="none" stroke="maroon" points="873.62,-124.5 742.88,-124.5 742.88,-88.5 873.62,-88.5 873.62,-124.5"/>
<text text-anchor="middle" x="808.25" y="-101.45" font-family="Times,serif" font-size="14.00" fill="maroon">Avoid Augmentation</text>
</g>
<!-- pharmacologic_agent&#45;&gt;avoid_augmentation -->
<g id="edge11" class="edge">
<title>pharmacologic_agent&#45;&gt;avoid_augmentation</title>
<path fill="none" stroke="black" d="M622.69,-249.73C633.89,-220.35 654.49,-167.92 661.25,-161.5 672.75,-150.57 704.33,-138.38 735.28,-128.35"/>
<polygon fill="black" stroke="black" points="736.26,-131.71 744.73,-125.35 734.14,-125.04 736.26,-131.71"/>
</g>
<!-- oxycodone_naloxone -->
<g id="node20" class="node">
<title>oxycodone_naloxone</title>
<polygon fill="none" stroke="black" points="850.75,-197.5 669.75,-197.5 669.75,-161.5 850.75,-161.5 850.75,-197.5"/>
<text text-anchor="middle" x="760.25" y="-174.45" font-family="Times,serif" font-size="14.00">Consider oxycodone/naloxone</text>
</g>
<!-- pharmacologic_agent&#45;&gt;oxycodone_naloxone -->
<g id="edge12" class="edge">
<title>pharmacologic_agent&#45;&gt;oxycodone_naloxone</title>
<path fill="none" stroke="black" d="M647.79,-249.53C669.86,-235.98 699.1,-218.03 722.24,-203.83"/>
<polygon fill="black" stroke="black" points="723.76,-207.01 730.45,-198.79 720.1,-201.04 723.76,-207.01"/>
<text text-anchor="middle" x="789" y="-218.7" font-family="Times,serif" font-size="14.00">No response to first line agents?</text>
</g>
<!-- vibrating_pads -->
<g id="node5" class="node">
<title>vibrating_pads</title>
<polygon fill="none" stroke="black" points="476.38,-459 380.12,-459 380.12,-423 476.38,-423 476.38,-459"/>
<text text-anchor="middle" x="428.25" y="-435.95" font-family="Times,serif" font-size="14.00">Vibrating pads</text>
</g>
<!-- nonpharmacologic&#45;&gt;vibrating_pads -->
<g id="edge46" class="edge">
<title>nonpharmacologic&#45;&gt;vibrating_pads</title>
<path fill="none" stroke="black" d="M324.43,-513.63C344.23,-499.97 372.02,-480.79 393.87,-465.72"/>
<polygon fill="black" stroke="black" points="395.65,-468.75 401.89,-460.19 391.67,-462.99 395.65,-468.75"/>
</g>
<!-- pneumatic_compression -->
<g id="node13" class="node">
<title>pneumatic_compression</title>
<polygon fill="none" stroke="black" points="146.5,-459 0,-459 0,-423 146.5,-423 146.5,-459"/>
<text text-anchor="middle" x="73.25" y="-435.95" font-family="Times,serif" font-size="14.00">Pneumatic compression</text>
</g>
<!-- nonpharmacologic&#45;&gt;pneumatic_compression -->
<g id="edge43" class="edge">
<title>nonpharmacologic&#45;&gt;pneumatic_compression</title>
<path fill="none" stroke="black" d="M254.87,-513.52C218.56,-499.22 167.04,-478.94 128.14,-463.62"/>
<polygon fill="black" stroke="black" points="129.52,-460.4 118.94,-459.99 126.96,-466.91 129.52,-460.4"/>
</g>
<!-- NIRS -->
<g id="node27" class="node">
<title>NIRS</title>
<polygon fill="none" stroke="black" points="218.25,-459 164.25,-459 164.25,-423 218.25,-423 218.25,-459"/>
<text text-anchor="middle" x="191.25" y="-435.95" font-family="Times,serif" font-size="14.00">NIRS</text>
</g>
<!-- nonpharmacologic&#45;&gt;NIRS -->
<g id="edge44" class="edge">
<title>nonpharmacologic&#45;&gt;NIRS</title>
<path fill="none" stroke="black" d="M278.17,-513.63C261.82,-500.15 238.95,-481.31 220.77,-466.33"/>
<polygon fill="black" stroke="black" points="223.39,-463.95 213.44,-460.29 218.94,-469.35 223.39,-463.95"/>
</g>
<!-- rTMS -->
<g id="node28" class="node">
<title>rTMS</title>
<polygon fill="none" stroke="black" points="290.25,-459 236.25,-459 236.25,-423 290.25,-423 290.25,-459"/>
<text text-anchor="middle" x="263.25" y="-435.95" font-family="Times,serif" font-size="14.00">rTMS</text>
</g>
<!-- nonpharmacologic&#45;&gt;rTMS -->
<g id="edge45" class="edge">
<title>nonpharmacologic&#45;&gt;rTMS</title>
<path fill="none" stroke="black" d="M292.31,-513.84C287.26,-501.36 280.32,-484.2 274.49,-469.78"/>
<polygon fill="black" stroke="black" points="277.85,-468.77 270.86,-460.81 271.37,-471.4 277.85,-468.77"/>
</g>
<!-- tDCS -->
<g id="node29" class="node">
<title>tDCS</title>
<polygon fill="none" stroke="black" points="362.25,-459 308.25,-459 308.25,-423 362.25,-423 362.25,-459"/>
<text text-anchor="middle" x="335.25" y="-435.95" font-family="Times,serif" font-size="14.00">tDCS</text>
</g>
<!-- nonpharmacologic&#45;&gt;tDCS -->
<g id="edge47" class="edge">
<title>nonpharmacologic&#45;&gt;tDCS</title>
<path fill="none" stroke="black" d="M306.19,-513.84C311.24,-501.36 318.18,-484.2 324.01,-469.78"/>
<polygon fill="black" stroke="black" points="327.13,-471.4 327.64,-460.81 320.65,-468.77 327.13,-471.4"/>
</g>
<!-- secondary_RLS -->
<g id="node8" class="node">
<title>secondary_RLS</title>
<polygon fill="none" stroke="black" points="832.25,-459 660.25,-459 660.25,-423 832.25,-423 832.25,-459"/>
<text text-anchor="middle" x="746.25" y="-435.95" font-family="Times,serif" font-size="14.00">Secondary RLS (ESRD/HD)</text>
</g>
<!-- serum_ferritin&#45;&gt;secondary_RLS -->
<g id="edge4" class="edge">
<title>serum_ferritin&#45;&gt;secondary_RLS</title>
<path fill="none" stroke="black" d="M602.99,-513.63C631.08,-499.58 670.83,-479.71 701.33,-464.46"/>
<polygon fill="black" stroke="black" points="702.56,-467.76 709.94,-460.16 699.43,-461.5 702.56,-467.76"/>
<text text-anchor="middle" x="676.5" y="-482.7" font-family="Times,serif" font-size="14.00">No</text>
</g>
<!-- ferrous_sulfate_vitC -->
<g id="node9" class="node">
<title>ferrous_sulfate_vitC</title>
<polygon fill="none" stroke="black" points="642.25,-461.5 494.25,-461.5 494.25,-420.5 642.25,-420.5 642.25,-461.5"/>
<text text-anchor="middle" x="568.25" y="-444.2" font-family="Times,serif" font-size="14.00">Prescribe ferrous sulfate</text>
<text text-anchor="middle" x="568.25" y="-427.7" font-family="Times,serif" font-size="14.00"> and vitamin C</text>
</g>
<!-- serum_ferritin&#45;&gt;ferrous_sulfate_vitC -->
<g id="edge3" class="edge">
<title>serum_ferritin&#45;&gt;ferrous_sulfate_vitC</title>
<path fill="none" stroke="black" d="M568.25,-513.84C568.25,-502.35 568.25,-486.9 568.25,-473.27"/>
<polygon fill="black" stroke="black" points="571.75,-473.42 568.25,-463.42 564.75,-473.42 571.75,-473.42"/>
<text text-anchor="middle" x="578.38" y="-482.7" font-family="Times,serif" font-size="14.00">Yes</text>
</g>
<!-- secondary_RLS&#45;&gt;moderate_severe_RLS -->
<g id="edge6" class="edge">
<title>secondary_RLS&#45;&gt;moderate_severe_RLS</title>
<path fill="none" stroke="black" d="M721.3,-422.57C700.91,-408.33 671.86,-388.04 649.32,-372.3"/>
<polygon fill="black" stroke="black" points="651.55,-369.58 641.35,-366.73 647.54,-375.32 651.55,-369.58"/>
<text text-anchor="middle" x="701.5" y="-389.2" font-family="Times,serif" font-size="14.00">No</text>
</g>
<!-- vitamin_C_E -->
<g id="node10" class="node">
<title>vitamin_C_E</title>
<polygon fill="none" stroke="black" points="895.38,-368 709.12,-368 709.12,-327 895.38,-327 895.38,-368"/>
<text text-anchor="middle" x="802.25" y="-350.7" font-family="Times,serif" font-size="14.00">Prescribe Vitamin C and E, </text>
<text text-anchor="middle" x="802.25" y="-334.2" font-family="Times,serif" font-size="14.00">consider exercise and levodopa</text>
</g>
<!-- secondary_RLS&#45;&gt;vitamin_C_E -->
<g id="edge5" class="edge">
<title>secondary_RLS&#45;&gt;vitamin_C_E</title>
<path fill="none" stroke="black" d="M756.78,-422.79C764.51,-410.17 775.18,-392.73 784.25,-377.92"/>
<polygon fill="black" stroke="black" points="787.18,-379.82 789.42,-369.47 781.21,-376.17 787.18,-379.82"/>
<text text-anchor="middle" x="790.38" y="-389.2" font-family="Times,serif" font-size="14.00">Yes</text>
</g>
<!-- IV_FCM -->
<g id="node11" class="node">
<title>IV_FCM</title>
<polygon fill="none" stroke="black" points="1021.62,-36 818.88,-36 818.88,0 1021.62,0 1021.62,-36"/>
<text text-anchor="middle" x="920.25" y="-12.95" font-family="Times,serif" font-size="14.00">Intravenous ferric carboxymaltose</text>
</g>
<!-- gabapentin_enacarbil -->
<g id="node12" class="node">
<title>gabapentin_enacarbil</title>
<polygon fill="none" stroke="black" points="253,-36 121.5,-36 121.5,0 253,0 253,-36"/>
<text text-anchor="middle" x="187.25" y="-12.95" font-family="Times,serif" font-size="14.00">Gabapentin enacarbil</text>
</g>
<!-- concomitant_psychiatric&#45;&gt;gabapentin_enacarbil -->
<g id="edge33" class="edge">
<title>concomitant_psychiatric&#45;&gt;gabapentin_enacarbil</title>
<path fill="none" stroke="blue" d="M187.25,-88.41C187.25,-76.76 187.25,-61.05 187.25,-47.52"/>
<polygon fill="blue" stroke="blue" points="190.75,-47.86 187.25,-37.86 183.75,-47.86 190.75,-47.86"/>
</g>
<!-- ropinirole -->
<g id="node21" class="node">
<title>ropinirole</title>
<polygon fill="none" stroke="black" points="423.88,-36 354.62,-36 354.62,0 423.88,0 423.88,-36"/>
<text text-anchor="middle" x="389.25" y="-12.95" font-family="Times,serif" font-size="14.00">ropinirole</text>
</g>
<!-- concomitant_psychiatric&#45;&gt;ropinirole -->
<g id="edge31" class="edge">
<title>concomitant_psychiatric&#45;&gt;ropinirole</title>
<path fill="none" stroke="blue" d="M265.3,-88.08C281.5,-83.29 298.21,-77.46 313.25,-70.5 329.08,-63.18 345.27,-52.7 358.61,-43.11"/>
<polygon fill="blue" stroke="blue" points="360.59,-46 366.56,-37.24 356.44,-40.37 360.59,-46"/>
</g>
<!-- pramipexole -->
<g id="node22" class="node">
<title>pramipexole</title>
<polygon fill="none" stroke="black" points="526.38,-36 442.12,-36 442.12,0 526.38,0 526.38,-36"/>
<text text-anchor="middle" x="484.25" y="-12.95" font-family="Times,serif" font-size="14.00">pramipexole</text>
</g>
<!-- concomitant_psychiatric&#45;&gt;pramipexole -->
<g id="edge32" class="edge">
<title>concomitant_psychiatric&#45;&gt;pramipexole</title>
<path fill="none" stroke="blue" d="M297.15,-89.79C300.21,-89.35 303.25,-88.92 306.25,-88.5 363.57,-80.41 383.76,-96.95 435.25,-70.5 446.9,-64.52 457.31,-54.65 465.5,-45.14"/>
<polygon fill="blue" stroke="blue" points="468.15,-47.44 471.7,-37.46 462.7,-43.04 468.15,-47.44"/>
</g>
<!-- improve_QoL&#45;&gt;IV_FCM -->
<g id="edge38" class="edge">
<title>improve_QoL&#45;&gt;IV_FCM</title>
<path fill="none" stroke="red" d="M725.19,-90.71C728.25,-89.92 731.28,-89.18 734.25,-88.5 781.68,-77.64 796.96,-88.29 842.25,-70.5 859.31,-63.8 876.5,-52.99 890.38,-43"/>
<polygon fill="red" stroke="red" points="892.27,-45.95 898.21,-37.17 888.09,-40.33 892.27,-45.95"/>
</g>
<!-- improve_QoL&#45;&gt;gabapentin_enacarbil -->
<g id="edge37" class="edge">
<title>improve_QoL&#45;&gt;gabapentin_enacarbil</title>
<path fill="none" stroke="red" d="M627.36,-90.49C624.29,-89.76 621.24,-89.09 618.25,-88.5 541.96,-73.5 518.76,-92.7 444.25,-70.5 428.91,-65.93 427.55,-58.69 412.25,-54 351.32,-35.3 330.52,-46.19 264.44,-36.18"/>
<polygon fill="red" stroke="red" points="265.36,-32.79 254.92,-34.63 264.23,-39.7 265.36,-32.79"/>
</g>
<!-- improve_QoL&#45;&gt;ropinirole -->
<g id="edge34" class="edge">
<title>improve_QoL&#45;&gt;ropinirole</title>
<path fill="none" stroke="red" d="M627.27,-90.89C624.22,-90.06 621.2,-89.25 618.25,-88.5 582.1,-79.25 571.35,-83.16 536.25,-70.5 521.2,-65.07 519.21,-59.67 504.25,-54 476.78,-43.59 466.33,-45.36 435.1,-36.29"/>
<polygon fill="red" stroke="red" points="436.21,-32.97 425.63,-33.38 434.16,-39.66 436.21,-32.97"/>
</g>
<!-- improve_QoL&#45;&gt;pramipexole -->
<g id="edge35" class="edge">
<title>improve_QoL&#45;&gt;pramipexole</title>
<path fill="none" stroke="red" d="M640.8,-88.18C629.42,-82.58 616.78,-76.32 605.25,-70.5 590.96,-63.3 587.83,-60.6 573.25,-54 561.79,-48.81 549.31,-43.62 537.42,-38.89"/>
<polygon fill="red" stroke="red" points="538.72,-35.64 528.13,-35.24 536.16,-42.16 538.72,-35.64"/>
</g>
<!-- rotigotine -->
<g id="node23" class="node">
<title>rotigotine</title>
<polygon fill="none" stroke="black" points="612.5,-36 544,-36 544,0 612.5,0 612.5,-36"/>
<text text-anchor="middle" x="578.25" y="-12.95" font-family="Times,serif" font-size="14.00">rotigotine</text>
</g>
<!-- improve_QoL&#45;&gt;rotigotine -->
<g id="edge39" class="edge">
<title>improve_QoL&#45;&gt;rotigotine</title>
<path fill="none" stroke="red" d="M673.49,-88.39C670.93,-77.4 666.12,-63.45 657.25,-54 654.4,-50.97 639.18,-43.98 622.85,-37.05"/>
<polygon fill="red" stroke="red" points="624.6,-33.99 614.03,-33.36 621.9,-40.45 624.6,-33.99"/>
</g>
<!-- cabergoline -->
<g id="node24" class="node">
<title>cabergoline</title>
<polygon fill="none" stroke="black" points="800.75,-36 721.75,-36 721.75,0 800.75,0 800.75,-36"/>
<text text-anchor="middle" x="761.25" y="-12.95" font-family="Times,serif" font-size="14.00">cabergoline</text>
</g>
<!-- improve_QoL&#45;&gt;cabergoline -->
<g id="edge36" class="edge">
<title>improve_QoL&#45;&gt;cabergoline</title>
<path fill="none" stroke="red" d="M724.87,-89.29C739.46,-83.44 752.8,-76.73 757.25,-70.5 761.94,-63.93 763.83,-55.61 764.3,-47.59"/>
<polygon fill="red" stroke="red" points="767.81,-47.74 764.17,-37.79 760.81,-47.84 767.81,-47.74"/>
</g>
<!-- pregabalin -->
<g id="node25" class="node">
<title>pregabalin</title>
<polygon fill="none" stroke="black" points="703.75,-36 630.75,-36 630.75,0 703.75,0 703.75,-36"/>
<text text-anchor="middle" x="667.25" y="-12.95" font-family="Times,serif" font-size="14.00">pregabalin</text>
</g>
<!-- improve_QoL&#45;&gt;pregabalin -->
<g id="edge40" class="edge">
<title>improve_QoL&#45;&gt;pregabalin</title>
<path fill="none" stroke="red" d="M684.6,-88.24C688.39,-78.2 691.39,-65.32 688.25,-54 687.53,-51.41 686.56,-48.81 685.44,-46.28"/>
<polygon fill="red" stroke="red" points="688.64,-44.83 680.85,-37.65 682.45,-48.12 688.64,-44.83"/>
</g>
<!-- avoid_augmentation&#45;&gt;cabergoline -->
<g id="edge42" class="edge">
<title>avoid_augmentation&#45;&gt;cabergoline</title>
<path fill="none" stroke="maroon" d="M859.35,-88.22C876.94,-79.45 889.86,-67.74 879.25,-54 861.77,-31.37 844.35,-42.42 812.04,-35.89"/>
<polygon fill="maroon" stroke="maroon" points="813.03,-32.53 802.48,-33.46 811.31,-39.31 813.03,-32.53"/>
<text text-anchor="middle" x="911.38" y="-57.2" font-family="Times,serif" font-size="14.00" fill="maroon">short term</text>
</g>
<!-- avoid_augmentation&#45;&gt;pregabalin -->
<g id="edge41" class="edge">
<title>avoid_augmentation&#45;&gt;pregabalin</title>
<path fill="none" stroke="maroon" d="M798.75,-88.47C791.67,-77.22 781.05,-62.96 768.25,-54 749.34,-40.77 739.41,-43.59 714.71,-36.48"/>
<polygon fill="maroon" stroke="maroon" points="716.06,-33.24 705.47,-33.53 713.93,-39.91 716.06,-33.24"/>
<text text-anchor="middle" x="811.88" y="-57.2" font-family="Times,serif" font-size="14.00" fill="maroon">long term</text>
</g>
<!-- subjective_sleep&#45;&gt;gabapentin_enacarbil -->
<g id="edge25" class="edge">
<title>subjective_sleep&#45;&gt;gabapentin_enacarbil</title>
<path fill="none" stroke="orange" d="M432.78,-90.43C429.9,-89.74 427.05,-89.09 424.25,-88.5 370.64,-77.12 354.87,-85.85 302.25,-70.5 277.46,-63.27 251.08,-51.76 229.84,-41.45"/>
<polygon fill="orange" stroke="orange" points="231.42,-38.32 220.91,-37.02 228.32,-44.6 231.42,-38.32"/>
</g>
<!-- subjective_sleep&#45;&gt;ropinirole -->
<g id="edge26" class="edge">
<title>subjective_sleep&#45;&gt;ropinirole</title>
<path fill="none" stroke="orange" d="M432.94,-89.22C417.48,-83.42 403.32,-76.76 398.25,-70.5 392.97,-63.98 390.33,-55.45 389.11,-47.22"/>
<polygon fill="orange" stroke="orange" points="392.62,-47.21 388.33,-37.52 385.64,-47.77 392.62,-47.21"/>
</g>
<!-- subjective_sleep&#45;&gt;pramipexole -->
<g id="edge27" class="edge">
<title>subjective_sleep&#45;&gt;pramipexole</title>
<path fill="none" stroke="orange" d="M485.05,-88.41C484.92,-76.76 484.74,-61.05 484.58,-47.52"/>
<polygon fill="orange" stroke="orange" points="488.08,-47.82 484.47,-37.86 481.08,-47.9 488.08,-47.82"/>
</g>
<!-- subjective_sleep&#45;&gt;rotigotine -->
<g id="edge29" class="edge">
<title>subjective_sleep&#45;&gt;rotigotine</title>
<path fill="none" stroke="orange" d="M506.95,-88.08C513.58,-82.59 520.82,-76.4 527.25,-70.5 536.29,-62.2 545.84,-52.76 554.2,-44.24"/>
<polygon fill="orange" stroke="orange" points="556.59,-46.8 561.05,-37.19 551.57,-41.93 556.59,-46.8"/>
</g>
<!-- subjective_sleep&#45;&gt;cabergoline -->
<g id="edge24" class="edge">
<title>subjective_sleep&#45;&gt;cabergoline</title>
<path fill="none" stroke="orange" d="M537.7,-90.34C540.58,-89.68 543.45,-89.06 546.25,-88.5 611.24,-75.57 632.92,-95.58 694.25,-70.5 709.4,-64.3 724.07,-53.73 735.8,-43.77"/>
<polygon fill="orange" stroke="orange" points="737.87,-46.61 743.03,-37.36 733.22,-41.37 737.87,-46.61"/>
</g>
<!-- subjective_sleep&#45;&gt;pregabalin -->
<g id="edge28" class="edge">
<title>subjective_sleep&#45;&gt;pregabalin</title>
<path fill="none" stroke="orange" d="M537.8,-90.75C540.65,-89.98 543.49,-89.23 546.25,-88.5 578.57,-80.01 590.44,-87.43 619.25,-70.5 630.27,-64.03 640.3,-54.25 648.3,-44.94"/>
<polygon fill="orange" stroke="orange" points="650.79,-47.44 654.37,-37.47 645.35,-43.03 650.79,-47.44"/>
</g>
<!-- levodopa -->
<g id="node26" class="node">
<title>levodopa</title>
<polygon fill="none" stroke="black" points="337,-36 271.5,-36 271.5,0 337,0 337,-36"/>
<text text-anchor="middle" x="304.25" y="-12.95" font-family="Times,serif" font-size="14.00">levodopa</text>
</g>
<!-- subjective_sleep&#45;&gt;levodopa -->
<g id="edge30" class="edge">
<title>subjective_sleep&#45;&gt;levodopa</title>
<path fill="none" stroke="orange" d="M432.77,-90.48C429.89,-89.78 427.04,-89.12 424.25,-88.5 400.06,-83.17 332.02,-87.75 314.25,-70.5 308.05,-64.48 305.07,-55.85 303.78,-47.37"/>
<polygon fill="orange" stroke="orange" points="307.29,-47.37 303.03,-37.67 300.31,-47.91 307.29,-47.37"/>
</g>
<!-- objective_sleep&#45;&gt;gabapentin_enacarbil -->
<g id="edge22" class="edge">
<title>objective_sleep&#45;&gt;gabapentin_enacarbil</title>
<path fill="none" stroke="green" d="M314.86,-90.81C283.53,-81.63 248.88,-71.39 247.25,-70.5 234.57,-63.59 222.18,-53.67 211.98,-44.37"/>
<polygon fill="green" stroke="green" points="214.4,-41.83 204.73,-37.49 209.58,-46.91 214.4,-41.83"/>
</g>
<!-- objective_sleep&#45;&gt;ropinirole -->
<g id="edge21" class="edge">
<title>objective_sleep&#45;&gt;ropinirole</title>
<path fill="none" stroke="green" d="M367.78,-88.14C369.46,-78.06 371.96,-65.18 375.25,-54 375.93,-51.69 376.7,-49.33 377.52,-46.97"/>
<polygon fill="green" stroke="green" points="380.79,-48.22 381.07,-37.63 374.25,-45.74 380.79,-48.22"/>
</g>
<!-- objective_sleep&#45;&gt;pregabalin -->
<g id="edge23" class="edge">
<title>objective_sleep&#45;&gt;pregabalin</title>
<path fill="none" stroke="green" d="M415.64,-90.35C418.54,-89.67 421.42,-89.05 424.25,-88.5 499.69,-73.8 524.48,-98 596.25,-70.5 612.27,-64.36 627.94,-53.65 640.46,-43.58"/>
<polygon fill="green" stroke="green" points="642.41,-46.52 647.83,-37.41 637.92,-41.15 642.41,-46.52"/>
</g>
<!-- PLMS&#45;&gt;ropinirole -->
<g id="edge16" class="edge">
<title>PLMS&#45;&gt;ropinirole</title>
<path fill="none" stroke="purple" d="M555.07,-91.64C552.14,-90.45 549.16,-89.38 546.25,-88.5 492.5,-72.34 468.23,-101.21 421.25,-70.5 412.38,-64.7 405.54,-55.51 400.51,-46.48"/>
<polygon fill="purple" stroke="purple" points="403.65,-44.94 396.08,-37.53 397.38,-48.04 403.65,-44.94"/>
</g>
<!-- PLMS&#45;&gt;pramipexole -->
<g id="edge17" class="edge">
<title>PLMS&#45;&gt;pramipexole</title>
<path fill="none" stroke="purple" d="M555.06,-92.64C537.25,-84.06 516.67,-73.77 513.25,-70.5 506.27,-63.81 500.5,-55.07 495.99,-46.7"/>
<polygon fill="purple" stroke="purple" points="499.18,-45.25 491.63,-37.82 492.9,-48.34 499.18,-45.25"/>
</g>
<!-- PLMS&#45;&gt;rotigotine -->
<g id="edge18" class="edge">
<title>PLMS&#45;&gt;rotigotine</title>
<path fill="none" stroke="purple" d="M581.46,-88.41C580.92,-76.76 580.19,-61.05 579.57,-47.52"/>
<polygon fill="purple" stroke="purple" points="583.08,-47.69 579.12,-37.86 576.09,-48.01 583.08,-47.69"/>
</g>
<!-- PLMS&#45;&gt;cabergoline -->
<g id="edge19" class="edge">
<title>PLMS&#45;&gt;cabergoline</title>
<path fill="none" stroke="purple" d="M609.44,-91.67C612.37,-90.48 615.34,-89.39 618.25,-88.5 668.13,-73.2 691.82,-100.85 734.25,-70.5 742.42,-64.65 748.32,-55.57 752.48,-46.65"/>
<polygon fill="purple" stroke="purple" points="755.68,-48.06 756.16,-37.48 749.19,-45.46 755.68,-48.06"/>
</g>
<!-- PLMS&#45;&gt;pregabalin -->
<g id="edge20" class="edge">
<title>PLMS&#45;&gt;pregabalin</title>
<path fill="none" stroke="purple" d="M609.6,-91.55C622.93,-84.37 637.17,-75.98 642.25,-70.5 648.54,-63.71 653.57,-55.04 657.41,-46.76"/>
<polygon fill="purple" stroke="purple" points="660.58,-48.26 661.21,-37.68 654.12,-45.55 660.58,-48.26"/>
</g>
</g>
</svg>
