<svg xmlns="http://www.w3.org/2000/svg" viewBox="0 0 100 100">
  <!-- Brand background: pure-black rounded square, matching the group_therapy icon -->
  <rect x="0" y="0" width="100" height="100" rx="22" ry="22" fill="#000000"/>
  <!-- Binding tabs -->
  <rect x="33" y="15" width="7" height="14" rx="3.5" fill="#ffffff"/>
  <rect x="60" y="15" width="7" height="14" rx="3.5" fill="#ffffff"/>
  <!-- Calendar body (solid white glyph) -->
  <rect x="19" y="23" width="62" height="56" rx="9" ry="9" fill="#ffffff"/>
  <!-- Header divider -->
  <rect x="19" y="39" width="62" height="4" fill="#000000"/>
  <!-- Date grid (punched out of the white body) -->
  <g fill="#000000">
    <circle cx="31" cy="52" r="3.1"/>
    <circle cx="44" cy="52" r="3.1"/>
    <circle cx="57" cy="52" r="3.1"/>
    <circle cx="70" cy="52" r="3.1"/>
    <circle cx="31" cy="62" r="3.1"/>
    <circle cx="44" cy="62" r="3.1"/>
    <circle cx="57" cy="62" r="3.1"/>
    <circle cx="70" cy="62" r="3.1"/>
    <circle cx="31" cy="72" r="3.1"/>
    <circle cx="44" cy="72" r="3.1"/>
    <circle cx="57" cy="72" r="3.1"/>
    <circle cx="70" cy="72" r="3.1"/>
  </g>
</svg>
