<?xml version="1.0" encoding="UTF-8" standalone="no"?>
<!DOCTYPE svg PUBLIC "-//W3C//DTD SVG 1.1//EN"
 "http://www.w3.org/Graphics/SVG/1.1/DTD/svg11.dtd">
<!-- Generated by graphviz version 11.0.0 (20240428.1522)
 -->
<!-- Title: G Pages: 1 -->
<svg width="1286pt" height="675pt"
 viewBox="0.00 0.00 1286.12 674.50" xmlns="http://www.w3.org/2000/svg" xmlns:xlink="http://www.w3.org/1999/xlink">
<g id="graph0" class="graph" transform="scale(1 1) rotate(0) translate(4 670.5)">
<title>G</title>
<polygon fill="white" stroke="none" points="-4,4 -4,-670.5 1282.12,-670.5 1282.12,4 -4,4"/>
<!-- Diagnosis -->
<g id="node1" class="node">
<title>Diagnosis</title>
<polygon fill="none" stroke="black" points="694.38,-594.5 463.96,-576.5 694.37,-558.5 924.79,-576.5 694.38,-594.5"/>
<text text-anchor="middle" x="694.38" y="-571.45" font-family="Times,serif" font-size="14.00">Orthostatic Hypotension (OH) Diagnosis</text>
</g>
<!-- ManagementGoals -->
<g id="node3" class="node">
<title>ManagementGoals</title>
<polygon fill="none" stroke="black" points="756,-522.5 632.75,-522.5 632.75,-486.5 756,-486.5 756,-522.5"/>
<text text-anchor="middle" x="694.38" y="-499.45" font-family="Times,serif" font-size="14.00">Management Goals</text>
</g>
<!-- Diagnosis&#45;&gt;ManagementGoals -->
<g id="edge2" class="edge">
<title>Diagnosis&#45;&gt;ManagementGoals</title>
<path fill="none" stroke="black" d="M694.38,-558.2C694.38,-550.91 694.38,-542.23 694.38,-534.04"/>
<polygon fill="black" stroke="black" points="697.88,-534.12 694.38,-524.12 690.88,-534.12 697.88,-534.12"/>
</g>
<!-- Criteria -->
<g id="node2" class="node">
<title>Criteria</title>
<polygon fill="none" stroke="black" points="840.38,-666.5 548.38,-666.5 548.38,-630.5 840.38,-630.5 840.38,-666.5"/>
<text text-anchor="middle" x="694.38" y="-643.45" font-family="Times,serif" font-size="14.00">Fall in BP within 3 min of active standing or HUT</text>
</g>
<!-- Criteria&#45;&gt;Diagnosis -->
<g id="edge1" class="edge">
<title>Criteria&#45;&gt;Diagnosis</title>
<path fill="none" stroke="black" d="M694.38,-630.2C694.38,-622.91 694.38,-614.23 694.38,-606.04"/>
<polygon fill="black" stroke="black" points="697.88,-606.12 694.38,-596.12 690.88,-606.12 697.88,-606.12"/>
</g>
<!-- ImproveFunction -->
<g id="node4" class="node">
<title>ImproveFunction</title>
<polygon fill="none" stroke="black" points="742.88,-450.5 423.88,-450.5 423.88,-414.5 742.88,-414.5 742.88,-450.5"/>
<text text-anchor="middle" x="583.38" y="-427.45" font-family="Times,serif" font-size="14.00">Improve patient&#39;s functional capacity and quality of life</text>
</g>
<!-- ManagementGoals&#45;&gt;ImproveFunction -->
<g id="edge3" class="edge">
<title>ManagementGoals&#45;&gt;ImproveFunction</title>
<path fill="none" stroke="black" d="M666.65,-486.02C652.64,-477.18 635.45,-466.34 620.33,-456.8"/>
<polygon fill="black" stroke="black" points="622.35,-453.94 612.03,-451.57 618.62,-459.86 622.35,-453.94"/>
</g>
<!-- PreventInjury -->
<g id="node5" class="node">
<title>PreventInjury</title>
<polygon fill="none" stroke="black" points="854,-450.5 760.75,-450.5 760.75,-414.5 854,-414.5 854,-450.5"/>
<text text-anchor="middle" x="807.38" y="-427.45" font-family="Times,serif" font-size="14.00">Prevent injury</text>
</g>
<!-- ManagementGoals&#45;&gt;PreventInjury -->
<g id="edge4" class="edge">
<title>ManagementGoals&#45;&gt;PreventInjury</title>
<path fill="none" stroke="black" d="M722.6,-486.02C736.86,-477.18 754.37,-466.34 769.76,-456.8"/>
<polygon fill="black" stroke="black" points="771.57,-459.8 778.22,-451.56 767.88,-453.85 771.57,-459.8"/>
</g>
<!-- ManagementStrategy -->
<g id="node6" class="node">
<title>ManagementStrategy</title>
<polygon fill="none" stroke="black" points="694.38,-378.5 564.57,-360.5 694.38,-342.5 824.18,-360.5 694.38,-378.5"/>
<text text-anchor="middle" x="694.38" y="-355.45" font-family="Times,serif" font-size="14.00">Management strategy</text>
</g>
<!-- ImproveFunction&#45;&gt;ManagementStrategy -->
<g id="edge5" class="edge">
<title>ImproveFunction&#45;&gt;ManagementStrategy</title>
<path fill="none" stroke="black" d="M611.1,-414.02C626.63,-404.22 646.06,-391.97 662.25,-381.76"/>
<polygon fill="black" stroke="black" points="663.98,-384.81 670.57,-376.51 660.24,-378.89 663.98,-384.81"/>
</g>
<!-- PreventInjury&#45;&gt;ManagementStrategy -->
<g id="edge6" class="edge">
<title>PreventInjury&#45;&gt;ManagementStrategy</title>
<path fill="none" stroke="black" d="M779.15,-414.02C763.34,-404.22 743.56,-391.97 727.08,-381.76"/>
<polygon fill="black" stroke="black" points="728.94,-378.79 718.59,-376.5 725.25,-384.74 728.94,-378.79"/>
</g>
<!-- EducationTraining -->
<g id="node7" class="node">
<title>EducationTraining</title>
<polygon fill="none" stroke="black" points="396.5,-304 210.25,-304 210.25,-268 396.5,-268 396.5,-304"/>
<text text-anchor="middle" x="303.38" y="-280.95" font-family="Times,serif" font-size="14.00">Education, advice, and training</text>
</g>
<!-- ManagementStrategy&#45;&gt;EducationTraining -->
<g id="edge7" class="edge">
<title>ManagementStrategy&#45;&gt;EducationTraining</title>
<path fill="none" stroke="black" d="M640.42,-349.5C580.62,-338.41 482.73,-320.26 407.81,-306.36"/>
<polygon fill="black" stroke="black" points="408.89,-303.01 398.42,-304.62 407.62,-309.89 408.89,-303.01"/>
</g>
<!-- PhysicalMeasures -->
<g id="node9" class="node">
<title>PhysicalMeasures</title>
<polygon fill="none" stroke="black" points="604.38,-304 486.38,-304 486.38,-268 604.38,-268 604.38,-304"/>
<text text-anchor="middle" x="545.38" y="-280.95" font-family="Times,serif" font-size="14.00">Physical Measures</text>
</g>
<!-- ManagementStrategy&#45;&gt;PhysicalMeasures -->
<g id="edge9" class="edge">
<title>ManagementStrategy&#45;&gt;PhysicalMeasures</title>
<path fill="none" stroke="black" d="M666.7,-346.03C645.56,-335.75 615.97,-321.35 591.31,-309.35"/>
<polygon fill="black" stroke="black" points="592.96,-306.26 582.44,-305.03 589.9,-312.56 592.96,-306.26"/>
</g>
<!-- WaterSaltIntake -->
<g id="node14" class="node">
<title>WaterSaltIntake</title>
<polygon fill="none" stroke="black" points="866.75,-306.5 622,-306.5 622,-265.5 866.75,-265.5 866.75,-306.5"/>
<text text-anchor="middle" x="744.38" y="-289.2" font-family="Times,serif" font-size="14.00">Increased water (2&#45;2.5 L/day)</text>
<text text-anchor="middle" x="744.38" y="-272.7" font-family="Times,serif" font-size="14.00">and salt ingestion (&gt;8g or 150 mmol/day)</text>
</g>
<!-- ManagementStrategy&#45;&gt;WaterSaltIntake -->
<g id="edge14" class="edge">
<title>ManagementStrategy&#45;&gt;WaterSaltIntake</title>
<path fill="none" stroke="black" d="M705.22,-343.77C710.77,-335.73 717.69,-325.69 724.17,-316.29"/>
<polygon fill="black" stroke="black" points="727.03,-318.32 729.83,-308.1 721.27,-314.34 727.03,-318.32"/>
</g>
<!-- Medications -->
<g id="node15" class="node">
<title>Medications</title>
<polygon fill="none" stroke="black" points="1041.12,-304 957.62,-304 957.62,-268 1041.12,-268 1041.12,-304"/>
<text text-anchor="middle" x="999.38" y="-280.95" font-family="Times,serif" font-size="14.00">Medications</text>
</g>
<!-- ManagementStrategy&#45;&gt;Medications -->
<g id="edge15" class="edge">
<title>ManagementStrategy&#45;&gt;Medications</title>
<path fill="none" stroke="black" d="M740.7,-348.49C796,-335.34 888.3,-313.4 946.39,-299.59"/>
<polygon fill="black" stroke="black" points="947.14,-303.01 956.06,-297.3 945.52,-296.2 947.14,-303.01"/>
</g>
<!-- FactorsInfluenceBP -->
<g id="node8" class="node">
<title>FactorsInfluenceBP</title>
<polygon fill="none" stroke="black" points="316.75,-196.5 0,-196.5 0,-160.5 316.75,-160.5 316.75,-196.5"/>
<text text-anchor="middle" x="158.38" y="-173.45" font-family="Times,serif" font-size="14.00">Factors influencing BP (foods, habits, positions, drugs)</text>
</g>
<!-- EducationTraining&#45;&gt;FactorsInfluenceBP -->
<g id="edge8" class="edge">
<title>EducationTraining&#45;&gt;FactorsInfluenceBP</title>
<path fill="none" stroke="black" d="M279.43,-267.58C255.4,-250.09 218.19,-223.02 191.37,-203.51"/>
<polygon fill="black" stroke="black" points="193.72,-200.89 183.58,-197.84 189.61,-206.55 193.72,-200.89"/>
</g>
<!-- LegCrossing -->
<g id="node10" class="node">
<title>LegCrossing</title>
<polygon fill="none" stroke="black" points="420.25,-196.5 334.5,-196.5 334.5,-160.5 420.25,-160.5 420.25,-196.5"/>
<text text-anchor="middle" x="377.38" y="-173.45" font-family="Times,serif" font-size="14.00">Leg crossing</text>
</g>
<!-- PhysicalMeasures&#45;&gt;LegCrossing -->
<g id="edge10" class="edge">
<title>PhysicalMeasures&#45;&gt;LegCrossing</title>
<path fill="none" stroke="black" d="M517.63,-267.58C489.55,-249.94 445.93,-222.55 414.79,-203"/>
<polygon fill="black" stroke="black" points="416.77,-200.11 406.44,-197.75 413.05,-206.03 416.77,-200.11"/>
</g>
<!-- Squatting -->
<g id="node11" class="node">
<title>Squatting</title>
<polygon fill="none" stroke="black" points="506.25,-196.5 438.5,-196.5 438.5,-160.5 506.25,-160.5 506.25,-196.5"/>
<text text-anchor="middle" x="472.38" y="-173.45" font-family="Times,serif" font-size="14.00">Squatting</text>
</g>
<!-- PhysicalMeasures&#45;&gt;Squatting -->
<g id="edge11" class="edge">
<title>PhysicalMeasures&#45;&gt;Squatting</title>
<path fill="none" stroke="black" d="M533.32,-267.58C521.8,-250.93 504.27,-225.6 490.97,-206.37"/>
<polygon fill="black" stroke="black" points="493.88,-204.42 485.31,-198.19 488.12,-208.41 493.88,-204.42"/>
</g>
<!-- AbdominalBinders -->
<g id="node12" class="node">
<title>AbdominalBinders</title>
<polygon fill="none" stroke="black" points="760.25,-196.5 524.5,-196.5 524.5,-160.5 760.25,-160.5 760.25,-196.5"/>
<text text-anchor="middle" x="642.38" y="-173.45" font-family="Times,serif" font-size="14.00">Elastic abdominal binders and stockings</text>
</g>
<!-- PhysicalMeasures&#45;&gt;AbdominalBinders -->
<g id="edge12" class="edge">
<title>PhysicalMeasures&#45;&gt;AbdominalBinders</title>
<path fill="none" stroke="black" d="M561.39,-267.58C576.98,-250.63 600.85,-224.67 618.64,-205.32"/>
<polygon fill="black" stroke="black" points="621.12,-207.79 625.31,-198.06 615.96,-203.05 621.12,-207.79"/>
</g>
<!-- Exercise -->
<g id="node13" class="node">
<title>Exercise</title>
<polygon fill="none" stroke="black" points="882.62,-196.5 778.12,-196.5 778.12,-160.5 882.62,-160.5 882.62,-196.5"/>
<text text-anchor="middle" x="830.38" y="-173.45" font-family="Times,serif" font-size="14.00">Careful exercise</text>
</g>
<!-- PhysicalMeasures&#45;&gt;Exercise -->
<g id="edge13" class="edge">
<title>PhysicalMeasures&#45;&gt;Exercise</title>
<path fill="none" stroke="black" d="M592.44,-267.58C641.84,-249.29 719.56,-220.52 772.64,-200.87"/>
<polygon fill="black" stroke="black" points="773.66,-204.23 781.82,-197.47 771.23,-197.66 773.66,-204.23"/>
</g>
<!-- Fludrocortisone -->
<g id="node16" class="node">
<title>Fludrocortisone</title>
<polygon fill="none" stroke="black" points="1098.5,-196.5 900.25,-196.5 900.25,-160.5 1098.5,-160.5 1098.5,-196.5"/>
<text text-anchor="middle" x="999.38" y="-173.45" font-family="Times,serif" font-size="14.00">Fludrocortisone (0.1&#45;0.2 mg/day)</text>
</g>
<!-- Medications&#45;&gt;Fludrocortisone -->
<g id="edge16" class="edge">
<title>Medications&#45;&gt;Fludrocortisone</title>
<path fill="none" stroke="black" d="M999.38,-267.58C999.38,-251.47 999.38,-227.22 999.38,-208.24"/>
<polygon fill="black" stroke="black" points="1002.88,-208.46 999.38,-198.46 995.88,-208.46 1002.88,-208.46"/>
</g>
<!-- DOPS -->
<g id="node20" class="node">
<title>DOPS</title>
<polygon fill="none" stroke="black" points="1277.75,-196.5 1117,-196.5 1117,-160.5 1277.75,-160.5 1277.75,-196.5"/>
<text text-anchor="middle" x="1197.38" y="-173.45" font-family="Times,serif" font-size="14.00">DOPS (200&#45;400 mg daily)</text>
</g>
<!-- Medications&#45;&gt;DOPS -->
<g id="edge20" class="edge">
<title>Medications&#45;&gt;DOPS</title>
<path fill="none" stroke="black" d="M1032.07,-267.58C1065.6,-249.71 1117.92,-221.84 1154.7,-202.24"/>
<polygon fill="black" stroke="black" points="1156.12,-205.45 1163.29,-197.66 1152.82,-199.27 1156.12,-205.45"/>
<text text-anchor="middle" x="1202.75" y="-234.2" font-family="Times,serif" font-size="14.00">dopamine beta&#45;hydroxylase</text>
<text text-anchor="middle" x="1202.75" y="-217.7" font-family="Times,serif" font-size="14.00">deﬁciency</text>
</g>
<!-- Sympathomimetics -->
<g id="node17" class="node">
<title>Sympathomimetics</title>
<polygon fill="none" stroke="black" points="1060.62,-108 938.12,-108 938.12,-72 1060.62,-72 1060.62,-108"/>
<text text-anchor="middle" x="999.38" y="-84.95" font-family="Times,serif" font-size="14.00">Sympathomimetics</text>
</g>
<!-- Fludrocortisone&#45;&gt;Sympathomimetics -->
<g id="edge17" class="edge">
<title>Fludrocortisone&#45;&gt;Sympathomimetics</title>
<path fill="none" stroke="black" d="M999.38,-160.41C999.38,-148.76 999.38,-133.05 999.38,-119.52"/>
<polygon fill="black" stroke="black" points="1002.88,-119.86 999.38,-109.86 995.88,-119.86 1002.88,-119.86"/>
<text text-anchor="middle" x="1030.12" y="-129.2" font-family="Times,serif" font-size="14.00">second line</text>
</g>
<!-- Midodrine -->
<g id="node18" class="node">
<title>Midodrine</title>
<polygon fill="none" stroke="black" points="1044.5,-36 678.25,-36 678.25,0 1044.5,0 1044.5,-36"/>
<text text-anchor="middle" x="861.38" y="-12.95" font-family="Times,serif" font-size="14.00">Midodrine (start with 2.5 mg b.i.d. and increase to 10 mg t.i.d.)</text>
</g>
<!-- Sympathomimetics&#45;&gt;Midodrine -->
<g id="edge18" class="edge">
<title>Sympathomimetics&#45;&gt;Midodrine</title>
<path fill="none" stroke="black" d="M964.91,-71.52C946.91,-62.39 924.68,-51.11 905.44,-41.35"/>
<polygon fill="black" stroke="black" points="907.25,-38.35 896.75,-36.95 904.09,-44.59 907.25,-38.35"/>
</g>
<!-- Ephedrine -->
<g id="node19" class="node">
<title>Ephedrine</title>
<polygon fill="none" stroke="black" points="1211.75,-36 1063,-36 1063,0 1211.75,0 1211.75,-36"/>
<text text-anchor="middle" x="1137.38" y="-12.95" font-family="Times,serif" font-size="14.00">Ephedrine (15 mg t.i.d.)</text>
</g>
<!-- Sympathomimetics&#45;&gt;Ephedrine -->
<g id="edge19" class="edge">
<title>Sympathomimetics&#45;&gt;Ephedrine</title>
<path fill="none" stroke="black" d="M1033.84,-71.52C1051.84,-62.39 1074.07,-51.11 1093.31,-41.35"/>
<polygon fill="black" stroke="black" points="1094.66,-44.59 1102,-36.95 1091.5,-38.35 1094.66,-44.59"/>
</g>
</g>
</svg>
