<?xml version="1.0" encoding="UTF-8" standalone="no"?>
<!DOCTYPE svg PUBLIC "-//W3C//DTD SVG 1.1//EN"
 "http://www.w3.org/Graphics/SVG/1.1/DTD/svg11.dtd">
<!-- Generated by graphviz version 11.0.0 (20240428.1522)
 -->
<!-- Title: G Pages: 1 -->
<svg width="533pt" height="623pt"
 viewBox="0.00 0.00 533.12 622.50" xmlns="http://www.w3.org/2000/svg" xmlns:xlink="http://www.w3.org/1999/xlink">
<g id="graph0" class="graph" transform="scale(1 1) rotate(0) translate(4 618.5)">
<title>G</title>
<polygon fill="white" stroke="none" points="-4,4 -4,-618.5 529.12,-618.5 529.12,4 -4,4"/>
<!-- start -->
<g id="node1" class="node">
<title>start</title>
<polygon fill="none" stroke="black" points="326.5,-614.5 84.75,-614.5 84.75,-573.5 326.5,-573.5 326.5,-614.5"/>
<text text-anchor="middle" x="205.63" y="-597.2" font-family="Times,serif" font-size="14.00">Patient with Parkinson&#39;s disease</text>
<text text-anchor="middle" x="205.63" y="-580.7" font-family="Times,serif" font-size="14.00">and problematic impulse control disorder</text>
</g>
<!-- advice -->
<g id="node2" class="node">
<title>advice</title>
<polygon fill="none" stroke="black" points="340,-537.5 71.25,-537.5 71.25,-496.5 340,-496.5 340,-537.5"/>
<text text-anchor="middle" x="205.63" y="-520.2" font-family="Times,serif" font-size="14.00">Seek advice from a healthcare professional</text>
<text text-anchor="middle" x="205.63" y="-503.7" font-family="Times,serif" font-size="14.00">with specialist expertise in Parkinson&#39;s disease</text>
</g>
<!-- start&#45;&gt;advice -->
<g id="edge1" class="edge">
<title>start&#45;&gt;advice</title>
<path fill="none" stroke="black" d="M205.63,-573.29C205.63,-565.95 205.63,-557.41 205.63,-549.28"/>
<polygon fill="black" stroke="black" points="209.13,-549.35 205.63,-539.35 202.13,-549.35 209.13,-549.35"/>
</g>
<!-- discuss -->
<g id="node3" class="node">
<title>discuss</title>
<polygon fill="none" stroke="black" points="411.25,-460.5 0,-460.5 0,-386.5 411.25,-386.5 411.25,-460.5"/>
<text text-anchor="middle" x="205.63" y="-443.2" font-family="Times,serif" font-size="14.00">Discuss with patient and family:</text>
<text text-anchor="middle" x="205.63" y="-426.7" font-family="Times,serif" font-size="14.00">&#45; How the impulse control disorder is affecting life</text>
<text text-anchor="middle" x="205.63" y="-410.2" font-family="Times,serif" font-size="14.00">&#45; Possible treatments</text>
<text text-anchor="middle" x="205.63" y="-393.7" font-family="Times,serif" font-size="14.00">&#45; Benefits and disadvantages of reducing/stopping dopaminergic therapy</text>
</g>
<!-- advice&#45;&gt;discuss -->
<g id="edge2" class="edge">
<title>advice&#45;&gt;discuss</title>
<path fill="none" stroke="black" d="M205.63,-496.15C205.63,-489.06 205.63,-480.75 205.63,-472.33"/>
<polygon fill="black" stroke="black" points="209.13,-472.43 205.63,-462.43 202.13,-472.43 209.13,-472.43"/>
</g>
<!-- modify -->
<g id="node4" class="node">
<title>modify</title>
<polygon fill="none" stroke="black" points="322.38,-350.5 88.88,-350.5 88.88,-314.5 322.38,-314.5 322.38,-350.5"/>
<text text-anchor="middle" x="205.63" y="-327.45" font-family="Times,serif" font-size="14.00">Gradually reduce any dopamine agonist</text>
</g>
<!-- discuss&#45;&gt;modify -->
<g id="edge3" class="edge">
<title>discuss&#45;&gt;modify</title>
<path fill="none" stroke="black" d="M205.63,-386.04C205.63,-377.98 205.63,-369.55 205.63,-361.86"/>
<polygon fill="black" stroke="black" points="209.13,-362.07 205.63,-352.07 202.13,-362.07 209.13,-362.07"/>
</g>
<!-- monitor -->
<g id="node5" class="node">
<title>monitor</title>
<polygon fill="none" stroke="black" points="360.62,-278.5 50.63,-278.5 50.63,-237.5 360.62,-237.5 360.62,-278.5"/>
<text text-anchor="middle" x="205.63" y="-261.2" font-family="Times,serif" font-size="14.00">Monitor for improvement of impulse control disorder</text>
<text text-anchor="middle" x="205.63" y="-244.7" font-family="Times,serif" font-size="14.00">and symptoms of dopamine agonist withdrawal</text>
</g>
<!-- modify&#45;&gt;monitor -->
<g id="edge4" class="edge">
<title>modify&#45;&gt;monitor</title>
<path fill="none" stroke="black" d="M205.63,-314.32C205.63,-307.09 205.63,-298.45 205.63,-290.16"/>
<polygon fill="black" stroke="black" points="209.13,-290.39 205.63,-280.39 202.13,-290.39 209.13,-290.39"/>
</g>
<!-- effective -->
<g id="node6" class="node">
<title>effective</title>
<polygon fill="none" stroke="black" points="311.12,-201.5 100.13,-201.5 100.13,-165.5 311.12,-165.5 311.12,-201.5"/>
<text text-anchor="middle" x="205.63" y="-178.45" font-family="Times,serif" font-size="14.00">Impulse control disorder improves?</text>
</g>
<!-- monitor&#45;&gt;effective -->
<g id="edge5" class="edge">
<title>monitor&#45;&gt;effective</title>
<path fill="none" stroke="black" d="M205.63,-237.19C205.63,-229.75 205.63,-221.14 205.63,-213.07"/>
<polygon fill="black" stroke="black" points="209.13,-213.33 205.63,-203.33 202.13,-213.33 209.13,-213.33"/>
</g>
<!-- yes_effective -->
<g id="node7" class="node">
<title>yes_effective</title>
<polygon fill="none" stroke="black" points="249.63,-113 119.63,-113 119.63,-77 249.63,-77 249.63,-113"/>
<text text-anchor="middle" x="184.63" y="-89.95" font-family="Times,serif" font-size="14.00">Continue monitoring</text>
</g>
<!-- effective&#45;&gt;yes_effective -->
<g id="edge6" class="edge">
<title>effective&#45;&gt;yes_effective</title>
<path fill="none" stroke="black" d="M201.48,-165.41C198.65,-153.76 194.83,-138.05 191.55,-124.52"/>
<polygon fill="black" stroke="black" points="194.95,-123.71 189.19,-114.82 188.15,-125.36 194.95,-123.71"/>
<text text-anchor="middle" x="206.75" y="-134.2" font-family="Times,serif" font-size="14.00">Yes</text>
</g>
<!-- no_effective -->
<g id="node8" class="node">
<title>no_effective</title>
<polygon fill="none" stroke="black" points="517.25,-113 268,-113 268,-77 517.25,-77 517.25,-113"/>
<text text-anchor="middle" x="392.62" y="-89.95" font-family="Times,serif" font-size="14.00">Impulse control disorder does not improve</text>
</g>
<!-- effective&#45;&gt;no_effective -->
<g id="edge7" class="edge">
<title>effective&#45;&gt;no_effective</title>
<path fill="none" stroke="black" d="M243.02,-165.2C272.22,-151.69 313.02,-132.82 344.64,-118.2"/>
<polygon fill="black" stroke="black" points="346,-121.43 353.6,-114.05 343.06,-115.07 346,-121.43"/>
<text text-anchor="middle" x="323.88" y="-134.2" font-family="Times,serif" font-size="14.00">No</text>
</g>
<!-- therapy -->
<g id="node9" class="node">
<title>therapy</title>
<polygon fill="none" stroke="black" points="525.12,-41 260.12,-41 260.12,0 525.12,0 525.12,-41"/>
<text text-anchor="middle" x="392.62" y="-23.7" font-family="Times,serif" font-size="14.00">Offer specialist cognitive behavioural therapy</text>
<text text-anchor="middle" x="392.62" y="-7.2" font-family="Times,serif" font-size="14.00">(CBT) targeted at impulse control disorders</text>
</g>
<!-- no_effective&#45;&gt;therapy -->
<g id="edge8" class="edge">
<title>no_effective&#45;&gt;therapy</title>
<path fill="none" stroke="black" d="M392.62,-76.82C392.62,-69.59 392.62,-60.95 392.62,-52.66"/>
<polygon fill="black" stroke="black" points="396.13,-52.89 392.63,-42.89 389.13,-52.89 396.13,-52.89"/>
</g>
</g>
</svg>
