<?xml version="1.0" encoding="UTF-8" standalone="no"?><!DOCTYPE svg PUBLIC "-//W3C//DTD SVG 1.1//EN" "http://www.w3.org/Graphics/SVG/1.1/DTD/svg11.dtd"><!-- Generated by graphviz version 2.40.1 (20161225.0304)
 --><!-- Title: G Pages: 1 --><svg xmlns="http://www.w3.org/2000/svg" xmlns:xlink="http://www.w3.org/1999/xlink" width="1145pt" height="436pt" viewBox="0.00 0.00 1145.38 436.20">
<g id="graph0" class="graph" transform="scale(1 1) rotate(0) translate(4 432.2)">
<title>G</title>
<polygon fill="#ffffff" stroke="transparent" points="-4,4 -4,-432.2 1141.378,-432.2 1141.378,4 -4,4"/>
<!-- start -->
<g id="node1" class="node">
<title>start</title>
<polygon fill="none" stroke="#0000ff" points="720.1673,-428.2 302.7459,-410.2 720.1673,-392.2 1137.5887,-410.2 720.1673,-428.2"/>
<text text-anchor="middle" x="720.1673" y="-406" font-family="Times,serif" font-size="14.00" fill="#0000ff">Nonpregnant Adolescents and Adults who have ever been sexually active</text>
</g>
<!-- atIncreasedRisk -->
<g id="node2" class="node">
<title>atIncreasedRisk</title>
<polygon fill="none" stroke="#0000ff" points="720.1673,-355.2 540.793,-337.2 720.1673,-319.2 899.5416,-337.2 720.1673,-355.2"/>
<text text-anchor="middle" x="720.1673" y="-333" font-family="Times,serif" font-size="14.00" fill="#0000ff">At increased risk for syphilis?</text>
</g>
<!-- start&#45;&gt;atIncreasedRisk -->
<g id="edge1" class="edge">
<title>start-&gt;atIncreasedRisk</title>
<path fill="none" stroke="#000000" d="M720.1673,-392.1551C720.1673,-384.0828 720.1673,-374.3764 720.1673,-365.3817"/>
<polygon fill="#000000" stroke="#000000" points="723.6674,-365.2903 720.1673,-355.2904 716.6674,-365.2904 723.6674,-365.2903"/>
</g>
<!-- riskFactors -->
<g id="node3" class="node">
<title>riskFactors</title>
<polygon fill="none" stroke="#0000ff" points="448.1673,-266.5002 4.1205,-224.8 448.1673,-183.0998 892.2141,-224.8 448.1673,-266.5002"/>
<text text-anchor="middle" x="448.1673" y="-229" font-family="Times,serif" font-size="14.00" fill="#0000ff">Has any risk factor</text>
<text text-anchor="middle" x="448.1673" y="-212.2" font-family="Times,serif" font-size="14.00" fill="#0000ff">(MSM, HIV, STDs, Illicit drugs, Incarceration, Sex work, Military service)?</text>
</g>
<!-- atIncreasedRisk&#45;&gt;riskFactors -->
<g id="edge2" class="edge">
<title>atIncreasedRisk-&gt;riskFactors</title>
<path fill="none" stroke="#000000" d="M684.8869,-322.6209C648.3586,-307.5261 589.7758,-283.3176 540.0298,-262.7608"/>
<polygon fill="#000000" stroke="#000000" points="541.1086,-259.4196 530.5299,-258.8351 538.4352,-265.889 541.1086,-259.4196"/>
<text text-anchor="middle" x="644.0502" y="-288.6" font-family="Times,serif" font-size="14.00" fill="#000000">Yes</text>
</g>
<!-- noScreening -->
<g id="node7" class="node">
<title>noScreening</title>
<polygon fill="none" stroke="#000000" points="1056.2277,-38.8 876.1069,-38.8 876.1069,-2.8 1056.2277,-2.8 1056.2277,-38.8"/>
<text text-anchor="middle" x="966.1673" y="-16.6" font-family="Times,serif" font-size="14.00" fill="#000000">No Screening Recommended</text>
</g>
<!-- atIncreasedRisk&#45;&gt;noScreening -->
<g id="edge3" class="edge">
<title>atIncreasedRisk-&gt;noScreening</title>
<path fill="none" stroke="#000000" d="M789.1061,-325.974C827.1691,-316.332 872.4191,-298.632 901.1673,-266.4 956.828,-203.9941 965.6961,-99.3195 966.5513,-49.2102"/>
<polygon fill="#000000" stroke="#000000" points="970.052,-49.1249 966.6255,-39.0995 963.0521,-49.0735 970.052,-49.1249"/>
<text text-anchor="middle" x="964.7206" y="-152.6" font-family="Times,serif" font-size="14.00" fill="#000000">No</text>
</g>
<!-- communityPrevalence -->
<g id="node4" class="node">
<title>communityPrevalence</title>
<polygon fill="none" stroke="#0000ff" points="651.1673,-130.4 413.4465,-112.4 651.1673,-94.4 888.8881,-112.4 651.1673,-130.4"/>
<text text-anchor="middle" x="651.1673" y="-108.2" font-family="Times,serif" font-size="14.00" fill="#0000ff">High community prevalence of syphilis?</text>
</g>
<!-- riskFactors&#45;&gt;communityPrevalence -->
<g id="edge4" class="edge">
<title>riskFactors-&gt;communityPrevalence</title>
<path fill="none" stroke="#000000" d="M512.6767,-189.0815C545.99,-170.6361 585.462,-148.7807 613.7261,-133.131"/>
<polygon fill="#000000" stroke="#000000" points="615.4338,-136.1862 622.4869,-128.2802 612.043,-130.0622 615.4338,-136.1862"/>
<text text-anchor="middle" x="594.7206" y="-152.6" font-family="Times,serif" font-size="14.00" fill="#000000">No</text>
</g>
<!-- screenTraditional -->
<g id="node5" class="node">
<title>screenTraditional</title>
<polygon fill="none" stroke="#000000" points="366.5021,-41.4019 -.1675,-41.4019 -.1675,-.1981 366.5021,-.1981 366.5021,-41.4019"/>
<text text-anchor="middle" x="183.1673" y="-25" font-family="Times,serif" font-size="14.00" fill="#000000">Screen annually or every 3-6 months</text>
<text text-anchor="middle" x="183.1673" y="-8.2" font-family="Times,serif" font-size="14.00" fill="#000000">Traditional Algorithm (VDRL/RPR test, confirm with TP-PA)</text>
</g>
<!-- riskFactors&#45;&gt;screenTraditional -->
<g id="edge5" class="edge">
<title>riskFactors-&gt;screenTraditional</title>
<path fill="none" stroke="#000000" d="M399.8704,-187.6205C347.3402,-147.1821 264.6608,-83.5346 218.0832,-47.6786"/>
<polygon fill="#000000" stroke="#000000" points="220.1572,-44.8583 210.0982,-41.5317 215.8872,-50.4052 220.1572,-44.8583"/>
<text text-anchor="middle" x="336.0502" y="-108.2" font-family="Times,serif" font-size="14.00" fill="#000000">Yes</text>
</g>
<!-- screenReverse -->
<g id="node6" class="node">
<title>screenReverse</title>
<polygon fill="none" stroke="#000000" points="857.7449,-41.4019 384.5897,-41.4019 384.5897,-.1981 857.7449,-.1981 857.7449,-41.4019"/>
<text text-anchor="middle" x="621.1673" y="-25" font-family="Times,serif" font-size="14.00" fill="#000000">Screen annually or every 3-6 months</text>
<text text-anchor="middle" x="621.1673" y="-8.2" font-family="Times,serif" font-size="14.00" fill="#000000">Reverse Sequence Algorithm (Treponemal test, confirm with nontreponemal test)</text>
</g>
<!-- riskFactors&#45;&gt;screenReverse -->
<g id="edge6" class="edge">
<title>riskFactors-&gt;screenReverse</title>
<path fill="none" stroke="#000000" d="M413.6632,-186.2842C384.8209,-149.3932 353.3886,-94.3455 387.1673,-59.6 392.8286,-53.7766 402.3009,-48.8266 414.2752,-44.6192"/>
<polygon fill="#000000" stroke="#000000" points="415.438,-47.922 423.8982,-41.5442 413.3073,-41.2542 415.438,-47.922"/>
<text text-anchor="middle" x="391.0502" y="-108.2" font-family="Times,serif" font-size="14.00" fill="#000000">Yes</text>
</g>
<!-- communityPrevalence&#45;&gt;screenTraditional -->
<g id="edge7" class="edge">
<title>communityPrevalence-&gt;screenTraditional</title>
<path fill="none" stroke="#000000" d="M584.6113,-99.3732C510.3021,-84.8289 388.6835,-61.025 298.7514,-43.4229"/>
<polygon fill="#000000" stroke="#000000" points="299.2613,-39.9563 288.7752,-41.4703 297.9167,-46.826 299.2613,-39.9563"/>
<text text-anchor="middle" x="470.0502" y="-63.8" font-family="Times,serif" font-size="14.00" fill="#000000">Yes</text>
</g>
<!-- communityPrevalence&#45;&gt;screenReverse -->
<g id="edge8" class="edge">
<title>communityPrevalence-&gt;screenReverse</title>
<path fill="none" stroke="#000000" d="M645.383,-94.7386C641.3434,-82.4044 635.848,-65.6249 631.1132,-51.1683"/>
<polygon fill="#000000" stroke="#000000" points="634.4228,-50.028 627.9841,-41.6141 627.7705,-52.2068 634.4228,-50.028"/>
<text text-anchor="middle" x="650.0502" y="-63.8" font-family="Times,serif" font-size="14.00" fill="#000000">Yes</text>
</g>
<!-- communityPrevalence&#45;&gt;noScreening -->
<g id="edge9" class="edge">
<title>communityPrevalence-&gt;noScreening</title>
<path fill="none" stroke="#000000" d="M700.3861,-98.0875C752.4274,-82.9542 835.0387,-58.9314 894.3481,-41.6846"/>
<polygon fill="#000000" stroke="#000000" points="895.4025,-45.023 904.0275,-38.8699 893.4479,-38.3014 895.4025,-45.023"/>
<text text-anchor="middle" x="836.7206" y="-63.8" font-family="Times,serif" font-size="14.00" fill="#000000">No</text>
</g>
</g>
</svg>