<?xml version="1.0" encoding="UTF-8" standalone="no"?>
<!DOCTYPE svg PUBLIC "-//W3C//DTD SVG 1.1//EN"
 "http://www.w3.org/Graphics/SVG/1.1/DTD/svg11.dtd">
<!-- Generated by graphviz version 2.38.0 (20140413.2041)
 -->
<!-- Title: G Pages: 1 -->
<svg width="730pt" height="622pt"
 viewBox="0.00 0.00 730.00 622.00" xmlns="http://www.w3.org/2000/svg" xmlns:xlink="http://www.w3.org/1999/xlink">
<g id="graph0" class="graph" transform="scale(1 1) rotate(0) translate(4 618)">
<title>G</title>
<polygon fill="white" stroke="none" points="-4,4 -4,-618 726,-618 726,4 -4,4"/>
<!-- start -->
<g id="node1" class="node"><title>start</title>
<polygon fill="none" stroke="blue" points="615,-614 445,-614 445,-561 615,-561 615,-614"/>
<text text-anchor="middle" x="530" y="-598.8" font-family="Times,serif" font-size="14.00" fill="blue">Adult 40 years or older</text>
<text text-anchor="middle" x="530" y="-583.8" font-family="Times,serif" font-size="14.00" fill="blue">without known CVD,</text>
<text text-anchor="middle" x="530" y="-568.8" font-family="Times,serif" font-size="14.00" fill="blue">no signs/symptoms of CVD</text>
</g>
<!-- hasOneOrMoreRiskFactors -->
<g id="node2" class="node"><title>hasOneOrMoreRiskFactors</title>
<polygon fill="none" stroke="blue" points="530,-524 338,-471 530,-418 722,-471 530,-524"/>
<text text-anchor="middle" x="530" y="-482.3" font-family="Times,serif" font-size="14.00" fill="blue">Has 1 or more CVD risk factors</text>
<text text-anchor="middle" x="530" y="-467.3" font-family="Times,serif" font-size="14.00" fill="blue">(dyslipidemia, diabetes,</text>
<text text-anchor="middle" x="530" y="-452.3" font-family="Times,serif" font-size="14.00" fill="blue">hypertension, smoking)?</text>
</g>
<!-- start&#45;&gt;hasOneOrMoreRiskFactors -->
<g id="edge1" class="edge"><title>start&#45;&gt;hasOneOrMoreRiskFactors</title>
<path fill="none" stroke="black" d="M530,-560.804C530,-552.863 530,-543.744 530,-534.441"/>
<polygon fill="black" stroke="black" points="533.5,-534.321 530,-524.321 526.5,-534.321 533.5,-534.321"/>
</g>
<!-- estimatedTenYearRiskOver10 -->
<g id="node3" class="node"><title>estimatedTenYearRiskOver10</title>
<polygon fill="none" stroke="blue" points="364,-367 158,-329 364,-291 570,-329 364,-367"/>
<text text-anchor="middle" x="364" y="-332.8" font-family="Times,serif" font-size="14.00" fill="blue">Estimated 10&#45;year CVD event risk</text>
<text text-anchor="middle" x="364" y="-317.8" font-family="Times,serif" font-size="14.00" fill="blue">&gt;= 10%?</text>
</g>
<!-- hasOneOrMoreRiskFactors&#45;&gt;estimatedTenYearRiskOver10 -->
<g id="edge2" class="edge"><title>hasOneOrMoreRiskFactors&#45;&gt;estimatedTenYearRiskOver10</title>
<path fill="none" stroke="black" d="M483.318,-430.63C459.625,-410.648 431.014,-386.518 407.748,-366.896"/>
<polygon fill="black" stroke="black" points="409.979,-364.199 400.078,-360.427 405.466,-369.55 409.979,-364.199"/>
<text text-anchor="middle" x="458" y="-388.8" font-family="Times,serif" font-size="14.00">Yes</text>
</g>
<!-- currentEvidenceInsufficient -->
<g id="node8" class="node"><title>currentEvidenceInsufficient</title>
<polygon fill="none" stroke="blue" points="581.5,-38 406.5,-38 406.5,-0 581.5,-0 581.5,-38"/>
<text text-anchor="middle" x="494" y="-22.8" font-family="Times,serif" font-size="14.00" fill="blue">Current evidence insufficient</text>
<text text-anchor="middle" x="494" y="-7.8" font-family="Times,serif" font-size="14.00" fill="blue">(I statement)</text>
</g>
<!-- hasOneOrMoreRiskFactors&#45;&gt;currentEvidenceInsufficient -->
<g id="edge3" class="edge"><title>hasOneOrMoreRiskFactors&#45;&gt;currentEvidenceInsufficient</title>
<path fill="none" stroke="black" d="M563.402,-426.863C580.599,-400.407 598,-364.992 598,-330 598,-330 598,-330 598,-93 598,-70.3252 581.233,-54.0902 561.164,-42.7793"/>
<polygon fill="black" stroke="black" points="562.571,-39.5663 552.081,-38.0764 559.352,-45.7825 562.571,-39.5663"/>
<text text-anchor="middle" x="606.5" y="-198.3" font-family="Times,serif" font-size="14.00">No</text>
</g>
<!-- estimatedTenYearRisk7_5to10 -->
<g id="node4" class="node"><title>estimatedTenYearRisk7_5to10</title>
<polygon fill="none" stroke="blue" points="206,-240 2.84217e-14,-202 206,-164 412,-202 206,-240"/>
<text text-anchor="middle" x="206" y="-205.8" font-family="Times,serif" font-size="14.00" fill="blue">Estimated 10&#45;year CVD event risk</text>
<text text-anchor="middle" x="206" y="-190.8" font-family="Times,serif" font-size="14.00" fill="blue">7.5&#45;10%?</text>
</g>
<!-- estimatedTenYearRiskOver10&#45;&gt;estimatedTenYearRisk7_5to10 -->
<g id="edge5" class="edge"><title>estimatedTenYearRiskOver10&#45;&gt;estimatedTenYearRisk7_5to10</title>
<path fill="none" stroke="black" d="M325.753,-297.741C303.613,-280.225 275.592,-258.057 252.223,-239.569"/>
<polygon fill="black" stroke="black" points="254.183,-236.656 244.169,-233.197 249.84,-242.146 254.183,-236.656"/>
<text text-anchor="middle" x="303.5" y="-261.8" font-family="Times,serif" font-size="14.00">No</text>
</g>
<!-- prescribeStatin -->
<g id="node6" class="node"><title>prescribeStatin</title>
<polygon fill="none" stroke="blue" points="561.5,-221 430.5,-221 430.5,-183 561.5,-183 561.5,-221"/>
<text text-anchor="middle" x="496" y="-205.8" font-family="Times,serif" font-size="14.00" fill="blue">Prescribe statin</text>
<text text-anchor="middle" x="496" y="-190.8" font-family="Times,serif" font-size="14.00" fill="blue">(B recommendation)</text>
</g>
<!-- estimatedTenYearRiskOver10&#45;&gt;prescribeStatin -->
<g id="edge4" class="edge"><title>estimatedTenYearRiskOver10&#45;&gt;prescribeStatin</title>
<path fill="none" stroke="black" d="M396.969,-296.78C419.412,-275.526 448.721,-247.771 469.618,-227.983"/>
<polygon fill="black" stroke="black" points="472.054,-230.496 476.909,-221.079 467.241,-225.414 472.054,-230.496"/>
<text text-anchor="middle" x="449" y="-261.8" font-family="Times,serif" font-size="14.00">Yes</text>
</g>
<!-- over75 -->
<g id="node5" class="node"><title>over75</title>
<polygon fill="none" stroke="blue" points="206,-112 107.8,-94 206,-76 304.2,-94 206,-112"/>
<text text-anchor="middle" x="206" y="-90.3" font-family="Times,serif" font-size="14.00" fill="blue">Age &gt; 75 years?</text>
</g>
<!-- estimatedTenYearRisk7_5to10&#45;&gt;over75 -->
<g id="edge7" class="edge"><title>estimatedTenYearRisk7_5to10&#45;&gt;over75</title>
<path fill="none" stroke="black" d="M206,-163.926C206,-150.258 206,-135.033 206,-122.375"/>
<polygon fill="black" stroke="black" points="209.5,-122.016 206,-112.016 202.5,-122.016 209.5,-122.016"/>
<text text-anchor="middle" x="214.5" y="-134.8" font-family="Times,serif" font-size="14.00">No</text>
</g>
<!-- selectivelyOfferStatin -->
<g id="node7" class="node"><title>selectivelyOfferStatin</title>
<polygon fill="none" stroke="blue" points="462,-113 322,-113 322,-75 462,-75 462,-113"/>
<text text-anchor="middle" x="392" y="-97.8" font-family="Times,serif" font-size="14.00" fill="blue">Selectively offer statin</text>
<text text-anchor="middle" x="392" y="-82.8" font-family="Times,serif" font-size="14.00" fill="blue">(C recommendation)</text>
</g>
<!-- estimatedTenYearRisk7_5to10&#45;&gt;selectivelyOfferStatin -->
<g id="edge6" class="edge"><title>estimatedTenYearRisk7_5to10&#45;&gt;selectivelyOfferStatin</title>
<path fill="none" stroke="black" d="M255.356,-172.872C285.364,-155.771 323.213,-134.201 351.463,-118.102"/>
<polygon fill="black" stroke="black" points="353.32,-121.072 360.276,-113.08 349.854,-114.99 353.32,-121.072"/>
<text text-anchor="middle" x="338" y="-134.8" font-family="Times,serif" font-size="14.00">Yes</text>
</g>
<!-- over75&#45;&gt;currentEvidenceInsufficient -->
<g id="edge8" class="edge"><title>over75&#45;&gt;currentEvidenceInsufficient</title>
<path fill="none" stroke="black" d="M245.141,-83.0789C288.086,-72.1934 358.209,-54.4192 413.092,-40.508"/>
<polygon fill="black" stroke="black" points="413.97,-43.8962 422.803,-38.0464 412.25,-37.1108 413.97,-43.8962"/>
</g>
</g>
</svg>
