<?xml version="1.0" encoding="UTF-8" standalone="no"?>
<!DOCTYPE svg PUBLIC "-//W3C//DTD SVG 1.1//EN"
 "http://www.w3.org/Graphics/SVG/1.1/DTD/svg11.dtd">
<!-- Generated by graphviz version 2.38.0 (20140413.2041)
 -->
<!-- Title: G Pages: 1 -->
<svg width="991pt" height="465pt"
 viewBox="0.00 0.00 990.50 465.00" xmlns="http://www.w3.org/2000/svg" xmlns:xlink="http://www.w3.org/1999/xlink">
<g id="graph0" class="graph" transform="scale(1 1) rotate(0) translate(4 461)">
<title>G</title>
<polygon fill="white" stroke="none" points="-4,4 -4,-461 986.5,-461 986.5,4 -4,4"/>
<!-- start -->
<g id="node1" class="node"><title>start</title>
<polygon fill="none" stroke="blue" points="873.5,-457 626.5,-457 626.5,-421 873.5,-421 873.5,-457"/>
<text text-anchor="middle" x="750" y="-435.3" font-family="Times,serif" font-size="14.00" fill="blue">All asymptomatic adults 50 years or older</text>
</g>
<!-- age -->
<g id="node2" class="node"><title>age</title>
<polygon fill="none" stroke="blue" points="750,-384 663.698,-366 750,-348 836.302,-366 750,-384"/>
<text text-anchor="middle" x="750" y="-362.3" font-family="Times,serif" font-size="14.00" fill="blue">Age 65 to 75?</text>
</g>
<!-- start&#45;&gt;age -->
<g id="edge1" class="edge"><title>start&#45;&gt;age</title>
<path fill="none" stroke="black" d="M750,-420.813C750,-412.789 750,-403.047 750,-394.069"/>
<polygon fill="black" stroke="black" points="753.5,-394.029 750,-384.029 746.5,-394.029 753.5,-394.029"/>
</g>
<!-- everSmoked -->
<g id="node3" class="node"><title>everSmoked</title>
<polygon fill="none" stroke="blue" points="531,-297 443.86,-279 531,-261 618.14,-279 531,-297"/>
<text text-anchor="middle" x="531" y="-275.3" font-family="Times,serif" font-size="14.00" fill="blue">Ever smoked?</text>
</g>
<!-- age&#45;&gt;everSmoked -->
<g id="edge2" class="edge"><title>age&#45;&gt;everSmoked</title>
<path fill="none" stroke="black" d="M721.37,-353.888C682.349,-338.743 612.374,-311.584 568.998,-294.748"/>
<polygon fill="black" stroke="black" points="570.226,-291.47 559.637,-291.115 567.693,-297.996 570.226,-291.47"/>
<text text-anchor="middle" x="665" y="-318.8" font-family="Times,serif" font-size="14.00">Yes</text>
</g>
<!-- insufficientEvidence -->
<g id="node9" class="node"><title>insufficientEvidence</title>
<polygon fill="none" stroke="black" points="982.5,-36 633.5,-36 633.5,-0 982.5,-0 982.5,-36"/>
<text text-anchor="middle" x="808" y="-14.3" font-family="Times,serif" font-size="14.00">Insufficient evidence to assess balance of benefits and harms</text>
</g>
<!-- age&#45;&gt;insufficientEvidence -->
<g id="edge3" class="edge"><title>age&#45;&gt;insufficientEvidence</title>
<path fill="none" stroke="black" d="M782.394,-354.695C813.887,-342.41 857,-318.552 857,-280 857,-280 857,-280 857,-104 857,-81.6623 844.141,-59.9048 831.598,-43.9949"/>
<polygon fill="black" stroke="black" points="834.226,-41.6811 825.138,-36.236 828.847,-46.1603 834.226,-41.6811"/>
<text text-anchor="middle" x="865.5" y="-188.3" font-family="Times,serif" font-size="14.00">No</text>
</g>
<!-- sex -->
<g id="node4" class="node"><title>sex</title>
<polygon fill="none" stroke="blue" points="690,-210 650.452,-192 690,-174 729.548,-192 690,-210"/>
<text text-anchor="middle" x="690" y="-188.3" font-family="Times,serif" font-size="14.00" fill="blue">Sex?</text>
</g>
<!-- everSmoked&#45;&gt;sex -->
<g id="edge6" class="edge"><title>everSmoked&#45;&gt;sex</title>
<path fill="none" stroke="black" d="M554.12,-265.64C583.187,-250.101 632.97,-223.488 663.531,-207.15"/>
<polygon fill="black" stroke="black" points="665.559,-210.035 672.728,-202.234 662.259,-203.862 665.559,-210.035"/>
<text text-anchor="middle" x="632" y="-231.8" font-family="Times,serif" font-size="14.00">Yes</text>
</g>
<!-- ultrasonographyMenEverSmoked -->
<g id="node6" class="node"><title>ultrasonographyMenEverSmoked</title>
<polygon fill="none" stroke="black" points="280,-210 0,-210 0,-174 280,-174 280,-210"/>
<text text-anchor="middle" x="140" y="-188.3" font-family="Times,serif" font-size="14.00">1&#45;time screening for AAA with ultrasonography</text>
</g>
<!-- everSmoked&#45;&gt;ultrasonographyMenEverSmoked -->
<g id="edge4" class="edge"><title>everSmoked&#45;&gt;ultrasonographyMenEverSmoked</title>
<path fill="none" stroke="black" d="M490.629,-269.224C429.13,-255.854 310.473,-230.059 228.337,-212.204"/>
<polygon fill="black" stroke="black" points="229.023,-208.771 218.508,-210.067 227.536,-215.611 229.023,-208.771"/>
<text text-anchor="middle" x="370" y="-231.8" font-family="Times,serif" font-size="14.00">Yes</text>
</g>
<!-- ultrasonographyMenNeverSmoked -->
<g id="node7" class="node"><title>ultrasonographyMenNeverSmoked</title>
<polygon fill="none" stroke="black" points="632,-210 298,-210 298,-174 632,-174 632,-210"/>
<text text-anchor="middle" x="465" y="-188.3" font-family="Times,serif" font-size="14.00">Selectively offer screening for AAA with ultrasonography</text>
</g>
<!-- everSmoked&#45;&gt;ultrasonographyMenNeverSmoked -->
<g id="edge5" class="edge"><title>everSmoked&#45;&gt;ultrasonographyMenNeverSmoked</title>
<path fill="none" stroke="black" d="M519.504,-263.194C509.933,-250.868 496.088,-233.038 484.747,-218.432"/>
<polygon fill="black" stroke="black" points="487.308,-216.023 478.411,-210.271 481.779,-220.317 487.308,-216.023"/>
<text text-anchor="middle" x="510.5" y="-231.8" font-family="Times,serif" font-size="14.00">No</text>
</g>
<!-- familyHistory -->
<g id="node5" class="node"><title>familyHistory</title>
<polygon fill="none" stroke="blue" points="690,-123 551.414,-105 690,-87 828.586,-105 690,-123"/>
<text text-anchor="middle" x="690" y="-101.3" font-family="Times,serif" font-size="14.00" fill="blue">Family history of AAA?</text>
</g>
<!-- sex&#45;&gt;familyHistory -->
<g id="edge7" class="edge"><title>sex&#45;&gt;familyHistory</title>
<path fill="none" stroke="black" d="M690,-173.799C690,-162.163 690,-146.548 690,-133.237"/>
<polygon fill="black" stroke="black" points="693.5,-133.175 690,-123.175 686.5,-133.175 693.5,-133.175"/>
<text text-anchor="middle" x="710.5" y="-144.8" font-family="Times,serif" font-size="14.00">Female</text>
</g>
<!-- againstWomenNeverSmoked -->
<g id="node8" class="node"><title>againstWomenNeverSmoked</title>
<polygon fill="none" stroke="black" points="550.5,-36 341.5,-36 341.5,-0 550.5,-0 550.5,-36"/>
<text text-anchor="middle" x="446" y="-14.3" font-family="Times,serif" font-size="14.00">Against routine screening for AAA</text>
</g>
<!-- sex&#45;&gt;againstWomenNeverSmoked -->
<g id="edge10" class="edge"><title>sex&#45;&gt;againstWomenNeverSmoked</title>
<path fill="none" stroke="black" d="M669.209,-183.099C660.566,-179.994 650.38,-176.568 641,-174 531.205,-143.944 462.035,-211.144 390,-123 369.83,-98.32 394.796,-65.2715 417.524,-43.114"/>
<polygon fill="black" stroke="black" points="420.168,-45.4336 425.078,-36.0451 415.385,-40.3225 420.168,-45.4336"/>
<text text-anchor="middle" x="466" y="-101.3" font-family="Times,serif" font-size="14.00">Female, No Family History</text>
</g>
<!-- familyHistory&#45;&gt;againstWomenNeverSmoked -->
<g id="edge8" class="edge"><title>familyHistory&#45;&gt;againstWomenNeverSmoked</title>
<path fill="none" stroke="black" d="M654.259,-91.5492C614.961,-77.8592 551.215,-55.6526 504.586,-39.409"/>
<polygon fill="black" stroke="black" points="505.506,-36.0231 494.911,-36.0386 503.203,-42.6335 505.506,-36.0231"/>
<text text-anchor="middle" x="591.5" y="-57.8" font-family="Times,serif" font-size="14.00">No</text>
</g>
<!-- familyHistory&#45;&gt;insufficientEvidence -->
<g id="edge9" class="edge"><title>familyHistory&#45;&gt;insufficientEvidence</title>
<path fill="none" stroke="black" d="M710.017,-89.5809C728.048,-76.5925 754.871,-57.2708 775.896,-42.1254"/>
<polygon fill="black" stroke="black" points="778.15,-44.8155 784.219,-36.1307 774.059,-39.1357 778.15,-44.8155"/>
<text text-anchor="middle" x="768" y="-57.8" font-family="Times,serif" font-size="14.00">Yes</text>
</g>
</g>
</svg>
