<?xml version="1.0" encoding="UTF-8" standalone="no"?>
<!DOCTYPE svg PUBLIC "-//W3C//DTD SVG 1.1//EN"
 "http://www.w3.org/Graphics/SVG/1.1/DTD/svg11.dtd">
<!-- Generated by graphviz version 11.0.0 (20240428.1522)
 -->
<!-- Title: ALS_Ventilation Pages: 1 -->
<svg width="1893pt" height="385pt"
 viewBox="0.00 0.00 1892.62 385.00" xmlns="http://www.w3.org/2000/svg" xmlns:xlink="http://www.w3.org/1999/xlink">
<g id="graph0" class="graph" transform="scale(1 1) rotate(0) translate(4 381)">
<title>ALS_Ventilation</title>
<polygon fill="white" stroke="none" points="-4,4 -4,-381 1888.62,-381 1888.62,4 -4,4"/>
<!-- start -->
<g id="node1" class="node">
<title>start</title>
<ellipse fill="none" stroke="black" cx="967.12" cy="-359" rx="74.89" ry="18"/>
<text text-anchor="middle" x="967.12" y="-353.95" font-family="Times,serif" font-size="14.00">Patient with ALS</text>
</g>
<!-- criteria -->
<g id="node2" class="node">
<title>criteria</title>
<polygon fill="none" stroke="black" points="1013,-305 921.25,-305 921.25,-264 1013,-264 1013,-305"/>
<text text-anchor="middle" x="967.12" y="-287.7" font-family="Times,serif" font-size="14.00">Criteria for</text>
<text text-anchor="middle" x="967.12" y="-271.2" font-family="Times,serif" font-size="14.00">NIV initiation</text>
</g>
<!-- start&#45;&gt;criteria -->
<g id="edge1" class="edge">
<title>start&#45;&gt;criteria</title>
<path fill="none" stroke="black" d="M967.12,-340.82C967.12,-333.59 967.12,-324.95 967.12,-316.66"/>
<polygon fill="black" stroke="black" points="970.63,-316.89 967.13,-306.89 963.63,-316.89 970.63,-316.89"/>
</g>
<!-- symptoms -->
<g id="node3" class="node">
<title>symptoms</title>
<polygon fill="none" stroke="black" points="663,-219.75 433.25,-219.75 433.25,-178.75 663,-178.75 663,-219.75"/>
<text text-anchor="middle" x="548.12" y="-202.45" font-family="Times,serif" font-size="14.00">Symptoms of respiratory insufficiency,</text>
<text text-anchor="middle" x="548.12" y="-185.95" font-family="Times,serif" font-size="14.00">including orthopnea</text>
</g>
<!-- criteria&#45;&gt;symptoms -->
<g id="edge2" class="edge">
<title>criteria&#45;&gt;symptoms</title>
<path fill="none" stroke="black" d="M920.88,-275.37C862.54,-264.99 759.2,-246.19 671.12,-228 662.93,-226.31 654.43,-224.5 645.91,-222.65"/>
<polygon fill="black" stroke="black" points="646.72,-219.25 636.2,-220.53 645.23,-226.08 646.72,-219.25"/>
</g>
<!-- snip -->
<g id="node4" class="node">
<title>snip</title>
<polygon fill="none" stroke="black" points="819.62,-219.75 680.62,-219.75 680.62,-178.75 819.62,-178.75 819.62,-219.75"/>
<text text-anchor="middle" x="750.12" y="-202.45" font-family="Times,serif" font-size="14.00">SNIP ≤ 40 cm H2O or</text>
<text text-anchor="middle" x="750.12" y="-185.95" font-family="Times,serif" font-size="14.00">MIP ≤ 40 cm H2O</text>
</g>
<!-- criteria&#45;&gt;snip -->
<g id="edge3" class="edge">
<title>criteria&#45;&gt;snip</title>
<path fill="none" stroke="black" d="M920.84,-265.74C889.25,-253.63 847.04,-237.43 812.5,-224.18"/>
<polygon fill="black" stroke="black" points="814.05,-221.03 803.46,-220.71 811.54,-227.56 814.05,-221.03"/>
</g>
<!-- fvc65 -->
<g id="node5" class="node">
<title>fvc65</title>
<polygon fill="none" stroke="black" points="940.25,-219.75 838,-219.75 838,-178.75 940.25,-178.75 940.25,-219.75"/>
<text text-anchor="middle" x="889.12" y="-202.45" font-family="Times,serif" font-size="14.00">Upright reliable</text>
<text text-anchor="middle" x="889.12" y="-185.95" font-family="Times,serif" font-size="14.00">FVC &lt; 65%</text>
</g>
<!-- criteria&#45;&gt;fvc65 -->
<g id="edge4" class="edge">
<title>criteria&#45;&gt;fvc65</title>
<path fill="none" stroke="black" d="M948.64,-263.77C938.71,-253.17 926.29,-239.92 915.38,-228.27"/>
<polygon fill="black" stroke="black" points="918.17,-226.13 908.78,-221.23 913.07,-230.92 918.17,-226.13"/>
</g>
<!-- fvc80 -->
<g id="node6" class="node">
<title>fvc80</title>
<polygon fill="none" stroke="black" points="1133.62,-228 958.62,-228 958.62,-170.5 1133.62,-170.5 1133.62,-228"/>
<text text-anchor="middle" x="1046.12" y="-210.7" font-family="Times,serif" font-size="14.00">FVC sitting or supine &lt; 80%</text>
<text text-anchor="middle" x="1046.12" y="-194.2" font-family="Times,serif" font-size="14.00">with symptoms or signs</text>
<text text-anchor="middle" x="1046.12" y="-177.7" font-family="Times,serif" font-size="14.00">of respiratory insufficiency</text>
</g>
<!-- criteria&#45;&gt;fvc80 -->
<g id="edge5" class="edge">
<title>criteria&#45;&gt;fvc80</title>
<path fill="none" stroke="black" d="M985.85,-263.77C993.61,-255.59 1002.87,-245.83 1011.78,-236.45"/>
<polygon fill="black" stroke="black" points="1014.08,-239.1 1018.42,-229.44 1009,-234.29 1014.08,-239.1"/>
</g>
<!-- hypercapnia -->
<g id="node7" class="node">
<title>hypercapnia</title>
<polygon fill="none" stroke="black" points="1284.62,-219.75 1151.62,-219.75 1151.62,-178.75 1284.62,-178.75 1284.62,-219.75"/>
<text text-anchor="middle" x="1218.12" y="-202.45" font-family="Times,serif" font-size="14.00">Daytime hypercapnia</text>
<text text-anchor="middle" x="1218.12" y="-185.95" font-family="Times,serif" font-size="14.00">pCO2 &gt; 45 mm Hg</text>
</g>
<!-- criteria&#45;&gt;hypercapnia -->
<g id="edge6" class="edge">
<title>criteria&#45;&gt;hypercapnia</title>
<path fill="none" stroke="black" d="M1013.28,-269.62C1048.9,-258.75 1099.33,-243 1143.12,-228 1146.96,-226.69 1150.9,-225.31 1154.87,-223.9"/>
<polygon fill="black" stroke="black" points="1155.73,-227.31 1163.96,-220.64 1153.36,-220.73 1155.73,-227.31"/>
</g>
<!-- nocturnal -->
<g id="node8" class="node">
<title>nocturnal</title>
<polygon fill="none" stroke="black" points="1553.12,-219.75 1303.12,-219.75 1303.12,-178.75 1553.12,-178.75 1553.12,-219.75"/>
<text text-anchor="middle" x="1428.12" y="-202.45" font-family="Times,serif" font-size="14.00">Abnormal nocturnal oximetry</text>
<text text-anchor="middle" x="1428.12" y="-185.95" font-family="Times,serif" font-size="14.00">or symptomatic sleep&#45;disordered breathing</text>
</g>
<!-- criteria&#45;&gt;nocturnal -->
<g id="edge7" class="edge">
<title>criteria&#45;&gt;nocturnal</title>
<path fill="none" stroke="black" d="M1013.25,-276.21C1076.65,-266.07 1194.25,-246.81 1294.12,-228 1303.35,-226.26 1312.93,-224.4 1322.52,-222.49"/>
<polygon fill="black" stroke="black" points="1323.17,-225.93 1332.29,-220.53 1321.79,-219.07 1323.17,-225.93"/>
</g>
<!-- initiate_niv -->
<g id="node9" class="node">
<title>initiate_niv</title>
<polygon fill="none" stroke="black" points="1016.38,-134.5 917.88,-134.5 917.88,-93.5 1016.38,-93.5 1016.38,-134.5"/>
<text text-anchor="middle" x="967.12" y="-117.2" font-family="Times,serif" font-size="14.00">Initiate NIV</text>
<text text-anchor="middle" x="967.12" y="-100.7" font-family="Times,serif" font-size="14.00">within 4 weeks</text>
</g>
<!-- symptoms&#45;&gt;initiate_niv -->
<g id="edge8" class="edge">
<title>symptoms&#45;&gt;initiate_niv</title>
<path fill="none" stroke="black" d="M634.73,-178.3C646.93,-175.6 659.33,-172.93 671.12,-170.5 752.3,-153.74 846.45,-136.45 906.38,-125.72"/>
<polygon fill="black" stroke="black" points="906.81,-129.2 916.03,-123.99 905.57,-122.31 906.81,-129.2"/>
</g>
<!-- snip&#45;&gt;initiate_niv -->
<g id="edge9" class="edge">
<title>snip&#45;&gt;initiate_niv</title>
<path fill="none" stroke="black" d="M802.1,-178.31C833.67,-166.2 874.09,-150.69 907.03,-138.06"/>
<polygon fill="black" stroke="black" points="907.94,-141.45 916.02,-134.6 905.43,-134.92 907.94,-141.45"/>
</g>
<!-- fvc65&#45;&gt;initiate_niv -->
<g id="edge10" class="edge">
<title>fvc65&#45;&gt;initiate_niv</title>
<path fill="none" stroke="black" d="M907.61,-178.52C917.54,-167.92 929.96,-154.67 940.87,-143.02"/>
<polygon fill="black" stroke="black" points="943.18,-145.67 947.47,-135.98 938.08,-140.88 943.18,-145.67"/>
</g>
<!-- fvc80&#45;&gt;initiate_niv -->
<g id="edge11" class="edge">
<title>fvc80&#45;&gt;initiate_niv</title>
<path fill="none" stroke="black" d="M1019.38,-170.07C1011.12,-161.36 1002.03,-151.78 993.78,-143.08"/>
<polygon fill="black" stroke="black" points="996.33,-140.69 986.91,-135.85 991.25,-145.51 996.33,-140.69"/>
</g>
<!-- hypercapnia&#45;&gt;initiate_niv -->
<g id="edge12" class="edge">
<title>hypercapnia&#45;&gt;initiate_niv</title>
<path fill="none" stroke="black" d="M1165.38,-178.37C1157.93,-175.67 1150.35,-172.97 1143.12,-170.5 1104.83,-157.39 1061.48,-143.7 1027.38,-133.2"/>
<polygon fill="black" stroke="black" points="1028.68,-129.94 1018.09,-130.35 1026.63,-136.63 1028.68,-129.94"/>
</g>
<!-- nocturnal&#45;&gt;initiate_niv -->
<g id="edge13" class="edge">
<title>nocturnal&#45;&gt;initiate_niv</title>
<path fill="none" stroke="black" d="M1333.77,-178.27C1320.47,-175.58 1306.97,-172.92 1294.12,-170.5 1201.45,-153.04 1093.52,-135.21 1027.78,-124.62"/>
<polygon fill="black" stroke="black" points="1028.73,-121.23 1018.3,-123.1 1027.62,-128.14 1028.73,-121.23"/>
</g>
<!-- in_home -->
<g id="node10" class="node">
<title>in_home</title>
<polygon fill="none" stroke="black" points="198.25,-57.5 0,-57.5 0,0 198.25,0 198.25,-57.5"/>
<text text-anchor="middle" x="99.12" y="-40.2" font-family="Times,serif" font-size="14.00">Ensure in&#45;home NIV</text>
<text text-anchor="middle" x="99.12" y="-23.7" font-family="Times,serif" font-size="14.00">respiratory support for education,</text>
<text text-anchor="middle" x="99.12" y="-7.2" font-family="Times,serif" font-size="14.00">titration, and troubleshooting</text>
</g>
<!-- initiate_niv&#45;&gt;in_home -->
<g id="edge14" class="edge">
<title>initiate_niv&#45;&gt;in_home</title>
<path fill="none" stroke="black" d="M917.49,-112.39C797.46,-110.27 481.97,-100.85 209.77,-57.63"/>
<polygon fill="black" stroke="black" points="210.4,-54.18 199.97,-56.05 209.29,-61.1 210.4,-54.18"/>
</g>
<!-- inform -->
<g id="node11" class="node">
<title>inform</title>
<polygon fill="none" stroke="black" points="437.5,-57.5 216.75,-57.5 216.75,0 437.5,0 437.5,-57.5"/>
<text text-anchor="middle" x="327.12" y="-40.2" font-family="Times,serif" font-size="14.00">Inform patients that NIV may change</text>
<text text-anchor="middle" x="327.12" y="-23.7" font-family="Times,serif" font-size="14.00">survival trajectory and</text>
<text text-anchor="middle" x="327.12" y="-7.2" font-family="Times,serif" font-size="14.00">end&#45;of&#45;life experience</text>
</g>
<!-- initiate_niv&#45;&gt;inform -->
<g id="edge15" class="edge">
<title>initiate_niv&#45;&gt;inform</title>
<path fill="none" stroke="black" d="M917.64,-109.77C826.65,-103.38 626.53,-87.28 449.01,-57.91"/>
<polygon fill="black" stroke="black" points="449.82,-54.5 439.38,-56.3 448.66,-61.4 449.82,-54.5"/>
</g>
<!-- ongoing_assess -->
<g id="node12" class="node">
<title>ongoing_assess</title>
<polygon fill="none" stroke="black" points="734.75,-57.5 455.5,-57.5 455.5,0 734.75,0 734.75,-57.5"/>
<text text-anchor="middle" x="595.12" y="-40.2" font-family="Times,serif" font-size="14.00">Ongoing assessments by specialized</text>
<text text-anchor="middle" x="595.12" y="-23.7" font-family="Times,serif" font-size="14.00">respiratory therapist, including device download</text>
<text text-anchor="middle" x="595.12" y="-7.2" font-family="Times,serif" font-size="14.00">and possibly nocturnal oximetry</text>
</g>
<!-- initiate_niv&#45;&gt;ongoing_assess -->
<g id="edge16" class="edge">
<title>initiate_niv&#45;&gt;ongoing_assess</title>
<path fill="none" stroke="black" d="M917.73,-101.95C870.55,-91.39 797.25,-74.98 732.43,-60.48"/>
<polygon fill="black" stroke="black" points="733.28,-57.08 722.75,-58.31 731.75,-63.91 733.28,-57.08"/>
</g>
<!-- oxygen -->
<g id="node13" class="node">
<title>oxygen</title>
<polygon fill="none" stroke="black" points="961.88,-49.25 752.38,-49.25 752.38,-8.25 961.88,-8.25 961.88,-49.25"/>
<text text-anchor="middle" x="857.12" y="-31.95" font-family="Times,serif" font-size="14.00"> Consider oxygen if hypoxemia</text>
<text text-anchor="middle" x="857.12" y="-15.45" font-family="Times,serif" font-size="14.00">remains after optimal NIV pressure</text>
</g>
<!-- initiate_niv&#45;&gt;oxygen -->
<g id="edge17" class="edge">
<title>initiate_niv&#45;&gt;oxygen</title>
<path fill="none" stroke="black" d="M940.78,-93.06C926.22,-82.04 907.95,-68.21 892.19,-56.29"/>
<polygon fill="black" stroke="black" points="894.55,-53.69 884.46,-50.44 890.33,-59.27 894.55,-53.69"/>
</g>
<!-- mouthpiece -->
<g id="node14" class="node">
<title>mouthpiece</title>
<polygon fill="none" stroke="black" points="1174,-49.25 980.25,-49.25 980.25,-8.25 1174,-8.25 1174,-49.25"/>
<text text-anchor="middle" x="1077.12" y="-31.95" font-family="Times,serif" font-size="14.00">Consider mouthpiece ventilation</text>
<text text-anchor="middle" x="1077.12" y="-15.45" font-family="Times,serif" font-size="14.00">during the day</text>
</g>
<!-- initiate_niv&#45;&gt;mouthpiece -->
<g id="edge18" class="edge">
<title>initiate_niv&#45;&gt;mouthpiece</title>
<path fill="none" stroke="black" d="M993.47,-93.06C1008.03,-82.04 1026.3,-68.21 1042.06,-56.29"/>
<polygon fill="black" stroke="black" points="1043.92,-59.27 1049.79,-50.44 1039.7,-53.69 1043.92,-59.27"/>
</g>
<!-- invasive -->
<g id="node15" class="node">
<title>invasive</title>
<polygon fill="none" stroke="black" points="1353.88,-49.25 1192.38,-49.25 1192.38,-8.25 1353.88,-8.25 1353.88,-49.25"/>
<text text-anchor="middle" x="1273.12" y="-31.95" font-family="Times,serif" font-size="14.00">Invasive ventilation option</text>
<text text-anchor="middle" x="1273.12" y="-15.45" font-family="Times,serif" font-size="14.00">if NIV ineffective</text>
</g>
<!-- initiate_niv&#45;&gt;invasive -->
<g id="edge19" class="edge">
<title>initiate_niv&#45;&gt;invasive</title>
<path fill="none" stroke="black" d="M1016.63,-100.99C1060.53,-90.17 1126.3,-73.55 1183.12,-57.5 1188.26,-56.05 1193.56,-54.52 1198.88,-52.95"/>
<polygon fill="black" stroke="black" points="1199.77,-56.33 1208.36,-50.12 1197.77,-49.62 1199.77,-56.33"/>
</g>
<!-- advanced_planning -->
<g id="node16" class="node">
<title>advanced_planning</title>
<polygon fill="none" stroke="black" points="1566,-57.5 1372.25,-57.5 1372.25,0 1566,0 1566,-57.5"/>
<text text-anchor="middle" x="1469.12" y="-40.2" font-family="Times,serif" font-size="14.00">Discuss advanced care planning,</text>
<text text-anchor="middle" x="1469.12" y="-23.7" font-family="Times,serif" font-size="14.00">goals of care, and all</text>
<text text-anchor="middle" x="1469.12" y="-7.2" font-family="Times,serif" font-size="14.00">respiratory interventions</text>
</g>
<!-- initiate_niv&#45;&gt;advanced_planning -->
<g id="edge20" class="edge">
<title>initiate_niv&#45;&gt;advanced_planning</title>
<path fill="none" stroke="black" d="M1016.83,-107.92C1090.03,-100.03 1231.29,-83.23 1360.62,-57.91"/>
<polygon fill="black" stroke="black" points="1361.29,-61.35 1370.41,-55.97 1359.92,-54.48 1361.29,-61.35"/>
</g>
<!-- tracheostomy -->
<g id="node17" class="node">
<title>tracheostomy</title>
<polygon fill="none" stroke="black" points="1884.62,-57.5 1583.62,-57.5 1583.62,0 1884.62,0 1884.62,-57.5"/>
<text text-anchor="middle" x="1734.12" y="-40.2" font-family="Times,serif" font-size="14.00">Consider tracheostomy for upper airway obstruction</text>
<text text-anchor="middle" x="1734.12" y="-23.7" font-family="Times,serif" font-size="14.00">with vocal cord paresis; discuss</text>
<text text-anchor="middle" x="1734.12" y="-7.2" font-family="Times,serif" font-size="14.00">long&#45;term invasive ventilation</text>
</g>
<!-- initiate_niv&#45;&gt;tracheostomy -->
<g id="edge21" class="edge">
<title>initiate_niv&#45;&gt;tracheostomy</title>
<path fill="none" stroke="black" d="M1016.53,-109.87C1118.48,-103.1 1359.72,-85.56 1572.15,-57.85"/>
<polygon fill="black" stroke="black" points="1572.57,-61.33 1582.03,-56.55 1571.66,-54.39 1572.57,-61.33"/>
</g>
</g>
</svg>
