<?xml version="1.0" encoding="UTF-8" standalone="no"?>
<!DOCTYPE svg PUBLIC "-//W3C//DTD SVG 1.1//EN"
 "http://www.w3.org/Graphics/SVG/1.1/DTD/svg11.dtd">
<!-- Generated by graphviz version 2.38.0 (20140413.2041)
 -->
<!-- Title: G Pages: 1 -->
<svg width="570pt" height="585pt"
 viewBox="0.00 0.00 569.50 585.00" xmlns="http://www.w3.org/2000/svg" xmlns:xlink="http://www.w3.org/1999/xlink">
<g id="graph0" class="graph" transform="scale(1 1) rotate(0) translate(4 581)">
<title>G</title>
<polygon fill="white" stroke="none" points="-4,4 -4,-581 565.5,-581 565.5,4 -4,4"/>
<!-- start -->
<g id="node1" class="node"><title>start</title>
<polygon fill="none" stroke="blue" points="450.5,-577 252.5,-577 252.5,-539 450.5,-539 450.5,-577"/>
<text text-anchor="middle" x="351.5" y="-561.8" font-family="Times,serif" font-size="14.00" fill="blue">All pregnant persons and persons</text>
<text text-anchor="middle" x="351.5" y="-546.8" font-family="Times,serif" font-size="14.00" fill="blue">less than 1 year postpartum</text>
</g>
<!-- riskFactors -->
<g id="node2" class="node"><title>riskFactors</title>
<polygon fill="none" stroke="blue" points="351.5,-502 141.5,-404 351.5,-306 561.5,-404 351.5,-502"/>
<text text-anchor="middle" x="351.5" y="-437.8" font-family="Times,serif" font-size="14.00" fill="blue">History of depression, current</text>
<text text-anchor="middle" x="351.5" y="-422.8" font-family="Times,serif" font-size="14.00" fill="blue">depressive symptoms, low income,</text>
<text text-anchor="middle" x="351.5" y="-407.8" font-family="Times,serif" font-size="14.00" fill="blue">adolescent or single parenthood,</text>
<text text-anchor="middle" x="351.5" y="-392.8" font-family="Times,serif" font-size="14.00" fill="blue">recent intimate partner violence,</text>
<text text-anchor="middle" x="351.5" y="-377.8" font-family="Times,serif" font-size="14.00" fill="blue">elevated anxiety symptoms</text>
<text text-anchor="middle" x="351.5" y="-362.8" font-family="Times,serif" font-size="14.00" fill="blue">or history of negative life events?</text>
</g>
<!-- start&#45;&gt;riskFactors -->
<g id="edge1" class="edge"><title>start&#45;&gt;riskFactors</title>
<path fill="none" stroke="black" d="M351.5,-538.967C351.5,-531.517 351.5,-522.239 351.5,-512.063"/>
<polygon fill="black" stroke="black" points="355,-512.062 351.5,-502.062 348,-512.062 355,-512.062"/>
</g>
<!-- counselingNeeded -->
<g id="node3" class="node"><title>counselingNeeded</title>
<polygon fill="none" stroke="blue" points="306,-255 151,-255 151,-217 306,-217 306,-255"/>
<text text-anchor="middle" x="228.5" y="-239.8" font-family="Times,serif" font-size="14.00" fill="blue">Provide or refer to</text>
<text text-anchor="middle" x="228.5" y="-224.8" font-family="Times,serif" font-size="14.00" fill="blue">counseling interventions?</text>
</g>
<!-- riskFactors&#45;&gt;counselingNeeded -->
<g id="edge2" class="edge"><title>riskFactors&#45;&gt;counselingNeeded</title>
<path fill="none" stroke="black" d="M297.908,-330.673C280.216,-306.796 261.637,-281.721 248.158,-263.53"/>
<polygon fill="black" stroke="black" points="250.742,-261.139 241.976,-255.188 245.118,-265.306 250.742,-261.139"/>
<text text-anchor="middle" x="275" y="-276.8" font-family="Times,serif" font-size="14.00">yes</text>
</g>
<!-- noCounseling -->
<g id="node4" class="node"><title>noCounseling</title>
<polygon fill="none" stroke="blue" points="461,-254 324,-254 324,-218 461,-218 461,-254"/>
<text text-anchor="middle" x="392.5" y="-232.3" font-family="Times,serif" font-size="14.00" fill="blue">No counseling needed</text>
</g>
<!-- riskFactors&#45;&gt;noCounseling -->
<g id="edge3" class="edge"><title>riskFactors&#45;&gt;noCounseling</title>
<path fill="none" stroke="black" d="M373.081,-315.625C377.693,-296.952 382.231,-278.575 385.76,-264.289"/>
<polygon fill="black" stroke="black" points="389.246,-264.772 388.246,-254.225 382.45,-263.094 389.246,-264.772"/>
<text text-anchor="middle" x="389.5" y="-276.8" font-family="Times,serif" font-size="14.00">no</text>
</g>
<!-- cbt -->
<g id="node5" class="node"><title>cbt</title>
<polygon fill="none" stroke="blue" points="228.5,-180 7.5,-142 228.5,-104 449.5,-142 228.5,-180"/>
<text text-anchor="middle" x="228.5" y="-145.8" font-family="Times,serif" font-size="14.00" fill="blue">Cognitive Behavioral Therapy (CBT)</text>
<text text-anchor="middle" x="228.5" y="-130.8" font-family="Times,serif" font-size="14.00" fill="blue">or Interpersonal Therapy (IPT)?</text>
</g>
<!-- counselingNeeded&#45;&gt;cbt -->
<g id="edge4" class="edge"><title>counselingNeeded&#45;&gt;cbt</title>
<path fill="none" stroke="black" d="M228.5,-216.824C228.5,-209.132 228.5,-199.779 228.5,-190.349"/>
<polygon fill="black" stroke="black" points="232,-190.163 228.5,-180.163 225,-190.163 232,-190.163"/>
</g>
<!-- cbtSessions -->
<g id="node6" class="node"><title>cbtSessions</title>
<polygon fill="none" stroke="blue" points="217,-53 0,-53 0,-0 217,-0 217,-53"/>
<text text-anchor="middle" x="108.5" y="-37.8" font-family="Times,serif" font-size="14.00" fill="blue">6 to 12 weekly 1&#45; to 2&#45;hour</text>
<text text-anchor="middle" x="108.5" y="-22.8" font-family="Times,serif" font-size="14.00" fill="blue">group sessions during pregnancy</text>
<text text-anchor="middle" x="108.5" y="-7.8" font-family="Times,serif" font-size="14.00" fill="blue">+ 2 to 5 postpartum booster sessions</text>
</g>
<!-- cbt&#45;&gt;cbtSessions -->
<g id="edge5" class="edge"><title>cbt&#45;&gt;cbtSessions</title>
<path fill="none" stroke="black" d="M195.392,-109.685C179.149,-94.3218 159.59,-75.8227 143.145,-60.2687"/>
<polygon fill="black" stroke="black" points="145.502,-57.6802 135.832,-53.3514 140.692,-62.7658 145.502,-57.6802"/>
<text text-anchor="middle" x="182" y="-74.8" font-family="Times,serif" font-size="14.00">CBT</text>
</g>
<!-- iptSessions -->
<g id="node7" class="node"><title>iptSessions</title>
<polygon fill="none" stroke="blue" points="462,-53 235,-53 235,-0 462,-0 462,-53"/>
<text text-anchor="middle" x="348.5" y="-37.8" font-family="Times,serif" font-size="14.00" fill="blue">4 or 5 prenatal group sessions</text>
<text text-anchor="middle" x="348.5" y="-22.8" font-family="Times,serif" font-size="14.00" fill="blue">(60 to 90 minutes each) + 1 individual</text>
<text text-anchor="middle" x="348.5" y="-7.8" font-family="Times,serif" font-size="14.00" fill="blue">50&#45;minute postpartum session</text>
</g>
<!-- cbt&#45;&gt;iptSessions -->
<g id="edge6" class="edge"><title>cbt&#45;&gt;iptSessions</title>
<path fill="none" stroke="black" d="M261.608,-109.685C277.851,-94.3218 297.41,-75.8227 313.855,-60.2687"/>
<polygon fill="black" stroke="black" points="316.308,-62.7658 321.168,-53.3514 311.498,-57.6802 316.308,-62.7658"/>
<text text-anchor="middle" x="310" y="-74.8" font-family="Times,serif" font-size="14.00">IPT</text>
</g>
</g>
</svg>
