<?xml version="1.0" encoding="UTF-8" standalone="no"?>
<!DOCTYPE svg PUBLIC "-//W3C//DTD SVG 1.1//EN"
 "http://www.w3.org/Graphics/SVG/1.1/DTD/svg11.dtd">
<!-- Generated by graphviz version 2.38.0 (20140413.2041)
 -->
<!-- Title: G Pages: 1 -->
<svg width="1356pt" height="288pt"
 viewBox="0.00 0.00 1356.39 288.00" xmlns="http://www.w3.org/2000/svg" xmlns:xlink="http://www.w3.org/1999/xlink">
<g id="graph0" class="graph" transform="scale(1 1) rotate(0) translate(4 284)">
<title>G</title>
<polygon fill="white" stroke="none" points="-4,4 -4,-284 1352.39,-284 1352.39,4 -4,4"/>
<!-- Pregnant -->
<g id="node1" class="node"><title>Pregnant</title>
<polygon fill="none" stroke="blue" points="185.886,-245 125.894,-227 185.886,-209 245.877,-227 185.886,-245"/>
<text text-anchor="middle" x="185.886" y="-223.3" font-family="Times,serif" font-size="14.00" fill="blue">Pregnant</text>
</g>
<!-- gestationAge -->
<g id="node3" class="node"><title>gestationAge</title>
<polygon fill="none" stroke="blue" points="80.8858,-123 0.114,-105 80.8858,-87 161.658,-105 80.8858,-123"/>
<text text-anchor="middle" x="80.8858" y="-101.3" font-family="Times,serif" font-size="14.00" fill="blue">gestationAge</text>
</g>
<!-- Pregnant&#45;&gt;gestationAge -->
<g id="edge2" class="edge"><title>Pregnant&#45;&gt;gestationAge</title>
<path fill="none" stroke="black" d="M173.841,-212.234C155.838,-191.659 121.729,-152.678 100.213,-128.088"/>
<polygon fill="black" stroke="black" points="102.66,-125.569 93.4405,-120.348 97.3915,-130.179 102.66,-125.569"/>
<text text-anchor="middle" x="135.886" y="-144.8" font-family="Times,serif" font-size="14.00">Yes</text>
</g>
<!-- NotPregnant -->
<g id="node9" class="node"><title>NotPregnant</title>
<polygon fill="none" stroke="black" points="264.386,-123 179.386,-123 179.386,-87 264.386,-87 264.386,-123"/>
<text text-anchor="middle" x="221.886" y="-101.3" font-family="Times,serif" font-size="14.00">NotPregnant</text>
</g>
<!-- Pregnant&#45;&gt;NotPregnant -->
<g id="edge1" class="edge"><title>Pregnant&#45;&gt;NotPregnant</title>
<path fill="none" stroke="black" d="M190.592,-210.312C196.469,-190.721 206.619,-156.891 213.762,-133.079"/>
<polygon fill="black" stroke="black" points="217.191,-133.829 216.712,-123.245 210.486,-131.817 217.191,-133.829"/>
<text text-anchor="middle" x="220.386" y="-144.8" font-family="Times,serif" font-size="14.00">No</text>
</g>
<!-- Pregnant?\n[Not previously diagnosed\nwith type 1 or 2 diabetes] -->
<g id="node2" class="node"><title>Pregnant?\n[Not previously diagnosed\nwith type 1 or 2 diabetes]</title>
<polygon fill="none" stroke="blue" points="424.886,-280 263.886,-227 424.886,-174 585.886,-227 424.886,-280"/>
<text text-anchor="middle" x="424.886" y="-238.3" font-family="Times,serif" font-size="14.00" fill="blue">Pregnant?</text>
<text text-anchor="middle" x="424.886" y="-223.3" font-family="Times,serif" font-size="14.00" fill="blue">[Not previously diagnosed</text>
<text text-anchor="middle" x="424.886" y="-208.3" font-family="Times,serif" font-size="14.00" fill="blue">with type 1 or 2 diabetes]</text>
</g>
<!-- Screen -->
<g id="node5" class="node"><title>Screen</title>
<polygon fill="none" stroke="black" points="67.8858,-36 13.8858,-36 13.8858,-0 67.8858,-0 67.8858,-36"/>
<text text-anchor="middle" x="40.8858" y="-14.3" font-family="Times,serif" font-size="14.00">Screen</text>
</g>
<!-- gestationAge&#45;&gt;Screen -->
<g id="edge3" class="edge"><title>gestationAge&#45;&gt;Screen</title>
<path fill="none" stroke="black" d="M73.5492,-88.4097C67.9051,-76.4159 59.9752,-59.5648 53.3423,-45.4699"/>
<polygon fill="black" stroke="black" points="56.4264,-43.8037 49.0015,-36.2458 50.0927,-46.7843 56.4264,-43.8037"/>
<text text-anchor="middle" x="74.8858" y="-57.8" font-family="Times,serif" font-size="14.00">Yes</text>
</g>
<!-- NoScreen -->
<g id="node7" class="node"><title>NoScreen</title>
<polygon fill="none" stroke="black" points="155.886,-36 85.8858,-36 85.8858,-0 155.886,-0 155.886,-36"/>
<text text-anchor="middle" x="120.886" y="-14.3" font-family="Times,serif" font-size="14.00">NoScreen</text>
</g>
<!-- gestationAge&#45;&gt;NoScreen -->
<g id="edge4" class="edge"><title>gestationAge&#45;&gt;NoScreen</title>
<path fill="none" stroke="black" d="M88.2225,-88.4097C93.8666,-76.4159 101.797,-59.5648 108.429,-45.4699"/>
<polygon fill="black" stroke="black" points="111.679,-46.7843 112.77,-36.2458 105.345,-43.8037 111.679,-46.7843"/>
<text text-anchor="middle" x="112.386" y="-57.8" font-family="Times,serif" font-size="14.00">No</text>
</g>
<!-- Gestation Age\n&gt;= 24 weeks? -->
<g id="node4" class="node"><title>Gestation Age\n&gt;= 24 weeks?</title>
<polygon fill="none" stroke="blue" points="698.886,-265 603.886,-227 698.886,-189 793.886,-227 698.886,-265"/>
<text text-anchor="middle" x="698.886" y="-230.8" font-family="Times,serif" font-size="14.00" fill="blue">Gestation Age</text>
<text text-anchor="middle" x="698.886" y="-215.8" font-family="Times,serif" font-size="14.00" fill="blue">&gt;= 24 weeks?</text>
</g>
<!-- Screen for Gestational\nDiabetes -->
<g id="node6" class="node"><title>Screen for Gestational\nDiabetes</title>
<polygon fill="none" stroke="black" points="949.886,-246 811.886,-246 811.886,-208 949.886,-208 949.886,-246"/>
<text text-anchor="middle" x="880.886" y="-230.8" font-family="Times,serif" font-size="14.00">Screen for Gestational</text>
<text text-anchor="middle" x="880.886" y="-215.8" font-family="Times,serif" font-size="14.00">Diabetes</text>
</g>
<!-- No specific recommendation\nfor screening -->
<g id="node8" class="node"><title>No specific recommendation\nfor screening</title>
<polygon fill="none" stroke="black" points="1143.39,-246 968.386,-246 968.386,-208 1143.39,-208 1143.39,-246"/>
<text text-anchor="middle" x="1055.89" y="-230.8" font-family="Times,serif" font-size="14.00">No specific recommendation</text>
<text text-anchor="middle" x="1055.89" y="-215.8" font-family="Times,serif" font-size="14.00">for screening</text>
</g>
<!-- Not eligible for\nGestational Diabetes Screening -->
<g id="node10" class="node"><title>Not eligible for\nGestational Diabetes Screening</title>
<polygon fill="none" stroke="black" points="1348.39,-246 1161.39,-246 1161.39,-208 1348.39,-208 1348.39,-246"/>
<text text-anchor="middle" x="1254.89" y="-230.8" font-family="Times,serif" font-size="14.00">Not eligible for</text>
<text text-anchor="middle" x="1254.89" y="-215.8" font-family="Times,serif" font-size="14.00">Gestational Diabetes Screening</text>
</g>
</g>
</svg>
