<?xml version="1.0" encoding="UTF-8" standalone="no"?>
<!DOCTYPE svg PUBLIC "-//W3C//DTD SVG 1.1//EN"
 "http://www.w3.org/Graphics/SVG/1.1/DTD/svg11.dtd">
<!-- Generated by graphviz version 2.43.0 (0)
 -->
<!-- Title: ImmunizationProtocol Pages: 1 -->
<svg width="272pt" height="1175pt"
 viewBox="0.00 0.00 271.88 1175.00" xmlns="http://www.w3.org/2000/svg" xmlns:xlink="http://www.w3.org/1999/xlink">
<g id="graph0" class="graph" transform="scale(1 1) rotate(0) translate(4 1171)">
<title>ImmunizationProtocol</title>
<polygon fill="white" stroke="transparent" points="-4,4 -4,-1171 267.88,-1171 267.88,4 -4,4"/>
<!-- InitialPopulation -->
<g id="node1" class="node">
<title>InitialPopulation</title>
<g id="a_node1"><a xlink:title="The initial population includes all individuals aged 6 months and older who are eligible for vaccination according to the latest CDC guidelines.">
<path fill="none" stroke="green" d="M189.44,-1167C189.44,-1167 74.44,-1167 74.44,-1167 68.44,-1167 62.44,-1161 62.44,-1155 62.44,-1155 62.44,-1143 62.44,-1143 62.44,-1137 68.44,-1131 74.44,-1131 74.44,-1131 189.44,-1131 189.44,-1131 195.44,-1131 201.44,-1137 201.44,-1143 201.44,-1143 201.44,-1155 201.44,-1155 201.44,-1161 195.44,-1167 189.44,-1167"/>
<text text-anchor="middle" x="131.94" y="-1145.3" font-family="Times,serif" font-size="14.00" fill="green">Initial Population</text>
</a>
</g>
</g>
<!-- ScreeningSubset -->
<g id="node2" class="node">
<title>ScreeningSubset</title>
<g id="a_node2"><a xlink:title="From the initial population, the subset considered for screening includes individuals who have not received the current season&#39;s flu vaccine, have not received the latest COVID&#45;19 vaccine booster or primary series as recommended by health authorities, and are not currently experiencing acute illness with fever.">
<path fill="none" stroke="green" d="M246.44,-1080C246.44,-1080 17.44,-1080 17.44,-1080 11.44,-1080 5.44,-1074 5.44,-1068 5.44,-1068 5.44,-1056 5.44,-1056 5.44,-1050 11.44,-1044 17.44,-1044 17.44,-1044 246.44,-1044 246.44,-1044 252.44,-1044 258.44,-1050 258.44,-1056 258.44,-1056 258.44,-1068 258.44,-1068 258.44,-1074 252.44,-1080 246.44,-1080"/>
<text text-anchor="middle" x="131.94" y="-1058.3" font-family="Times,serif" font-size="14.00" fill="green">Subset Considered for Screening</text>
</a>
</g>
</g>
<!-- InitialPopulation&#45;&gt;ScreeningSubset -->
<g id="edge1" class="edge">
<title>InitialPopulation&#45;&gt;ScreeningSubset</title>
<path fill="none" stroke="blue" d="M131.94,-1130.8C131.94,-1119.16 131.94,-1103.55 131.94,-1090.24"/>
<polygon fill="blue" stroke="blue" points="135.44,-1090.18 131.94,-1080.18 128.44,-1090.18 135.44,-1090.18"/>
<text text-anchor="middle" x="136.94" y="-1101.8" font-family="Times,serif" font-size="14.00" fill="blue">if</text>
</g>
<!-- NotFluVaccine -->
<g id="node5" class="node">
<title>NotFluVaccine</title>
<g id="a_node5"><a xlink:title="Have not received the current season&#39;s flu vaccine.">
<ellipse fill="none" stroke="blue" cx="131.94" cy="-975" rx="83.69" ry="18"/>
<text text-anchor="middle" x="131.94" y="-971.3" font-family="Times,serif" font-size="14.00" fill="blue">Not Flu Vaccine</text>
</a>
</g>
</g>
<!-- ScreeningSubset&#45;&gt;NotFluVaccine -->
<g id="edge2" class="edge">
<title>ScreeningSubset&#45;&gt;NotFluVaccine</title>
<path fill="none" stroke="blue" d="M131.94,-1043.8C131.94,-1032.16 131.94,-1016.55 131.94,-1003.24"/>
<polygon fill="blue" stroke="blue" points="135.44,-1003.18 131.94,-993.18 128.44,-1003.18 135.44,-1003.18"/>
<text text-anchor="middle" x="136.94" y="-1014.8" font-family="Times,serif" font-size="14.00" fill="blue">if</text>
</g>
<!-- Excluded -->
<g id="node3" class="node">
<title>Excluded</title>
<g id="a_node3"><a xlink:title="Individuals from the subset will be excluded from receiving the vaccines if they have a known history of severe allergic reaction to any component of the flu or COVID&#45;19 vaccines, are currently experiencing moderate to severe acute illness, with or without fever, have a history of Guillain&#45;Barré Syndrome within 6 weeks following a previous dose of influenza vaccine, are younger than the minimum age approved for the specific COVID&#45;19 vaccine formulation, or have received another vaccine within the last 14 days.">
<path fill="none" stroke="green" d="M161.44,-732C161.44,-732 102.44,-732 102.44,-732 96.44,-732 90.44,-726 90.44,-720 90.44,-720 90.44,-708 90.44,-708 90.44,-702 96.44,-696 102.44,-696 102.44,-696 161.44,-696 161.44,-696 167.44,-696 173.44,-702 173.44,-708 173.44,-708 173.44,-720 173.44,-720 173.44,-726 167.44,-732 161.44,-732"/>
<text text-anchor="middle" x="131.94" y="-710.3" font-family="Times,serif" font-size="14.00" fill="green">Excluded</text>
</a>
</g>
</g>
<!-- NoSevereAllergy -->
<g id="node8" class="node">
<title>NoSevereAllergy</title>
<g id="a_node8"><a xlink:title="Have no known history of severe allergic reaction to any component of the flu or COVID&#45;19 vaccines.">
<ellipse fill="none" stroke="blue" cx="131.94" cy="-627" rx="94.78" ry="18"/>
<text text-anchor="middle" x="131.94" y="-623.3" font-family="Times,serif" font-size="14.00" fill="blue">No Severe Allergy</text>
</a>
</g>
</g>
<!-- Excluded&#45;&gt;NoSevereAllergy -->
<g id="edge6" class="edge">
<title>Excluded&#45;&gt;NoSevereAllergy</title>
<path fill="none" stroke="blue" d="M131.94,-695.8C131.94,-684.16 131.94,-668.55 131.94,-655.24"/>
<polygon fill="blue" stroke="blue" points="135.44,-655.18 131.94,-645.18 128.44,-655.18 135.44,-655.18"/>
<text text-anchor="middle" x="136.94" y="-666.8" font-family="Times,serif" font-size="14.00" fill="blue">if</text>
</g>
<!-- SuccessfulScreen -->
<g id="node4" class="node">
<title>SuccessfulScreen</title>
<g id="a_node4"><a xlink:title="Conditions for successful screens include confirmation that the individual has not received the current season&#39;s flu vaccine or the latest COVID&#45;19 vaccine booster/primary series, absence of any exclusion criteria, informed consent obtained, and successful administration of the appropriate vaccine(s) without immediate adverse reactions.">
<path fill="none" stroke="green" d="M192.94,-210C192.94,-210 70.94,-210 70.94,-210 64.94,-210 58.94,-204 58.94,-198 58.94,-198 58.94,-186 58.94,-186 58.94,-180 64.94,-174 70.94,-174 70.94,-174 192.94,-174 192.94,-174 198.94,-174 204.94,-180 204.94,-186 204.94,-186 204.94,-198 204.94,-198 204.94,-204 198.94,-210 192.94,-210"/>
<text text-anchor="middle" x="131.94" y="-188.3" font-family="Times,serif" font-size="14.00" fill="green">Successful Screen</text>
</a>
</g>
</g>
<!-- InformedConsent -->
<g id="node13" class="node">
<title>InformedConsent</title>
<g id="a_node13"><a xlink:title="Informed consent obtained from the individual or their guardian.">
<ellipse fill="none" stroke="blue" cx="131.94" cy="-105" rx="94.48" ry="18"/>
<text text-anchor="middle" x="131.94" y="-101.3" font-family="Times,serif" font-size="14.00" fill="blue">Informed Consent</text>
</a>
</g>
</g>
<!-- SuccessfulScreen&#45;&gt;InformedConsent -->
<g id="edge12" class="edge">
<title>SuccessfulScreen&#45;&gt;InformedConsent</title>
<path fill="none" stroke="blue" d="M131.94,-173.8C131.94,-162.16 131.94,-146.55 131.94,-133.24"/>
<polygon fill="blue" stroke="blue" points="135.44,-133.18 131.94,-123.18 128.44,-133.18 135.44,-133.18"/>
<text text-anchor="middle" x="136.94" y="-144.8" font-family="Times,serif" font-size="14.00" fill="blue">if</text>
</g>
<!-- NotCOVIDVaccine -->
<g id="node6" class="node">
<title>NotCOVIDVaccine</title>
<g id="a_node6"><a xlink:title="Have not received the latest COVID&#45;19 vaccine booster or primary series as recommended by health authorities.">
<ellipse fill="none" stroke="blue" cx="131.94" cy="-888" rx="100.18" ry="18"/>
<text text-anchor="middle" x="131.94" y="-884.3" font-family="Times,serif" font-size="14.00" fill="blue">Not COVID Vaccine</text>
</a>
</g>
</g>
<!-- NotFluVaccine&#45;&gt;NotCOVIDVaccine -->
<g id="edge3" class="edge">
<title>NotFluVaccine&#45;&gt;NotCOVIDVaccine</title>
<path fill="none" stroke="blue" d="M131.94,-956.8C131.94,-945.16 131.94,-929.55 131.94,-916.24"/>
<polygon fill="blue" stroke="blue" points="135.44,-916.18 131.94,-906.18 128.44,-916.18 135.44,-916.18"/>
<text text-anchor="middle" x="145.44" y="-927.8" font-family="Times,serif" font-size="14.00" fill="blue">and</text>
</g>
<!-- NoAcuteIllness -->
<g id="node7" class="node">
<title>NoAcuteIllness</title>
<g id="a_node7"><a xlink:title="Are not currently experiencing acute illness with fever.">
<ellipse fill="none" stroke="blue" cx="131.94" cy="-801" rx="86.38" ry="18"/>
<text text-anchor="middle" x="131.94" y="-797.3" font-family="Times,serif" font-size="14.00" fill="blue">No Acute Illness</text>
</a>
</g>
</g>
<!-- NotCOVIDVaccine&#45;&gt;NoAcuteIllness -->
<g id="edge4" class="edge">
<title>NotCOVIDVaccine&#45;&gt;NoAcuteIllness</title>
<path fill="none" stroke="blue" d="M131.94,-869.8C131.94,-858.16 131.94,-842.55 131.94,-829.24"/>
<polygon fill="blue" stroke="blue" points="135.44,-829.18 131.94,-819.18 128.44,-829.18 135.44,-829.18"/>
<text text-anchor="middle" x="145.44" y="-840.8" font-family="Times,serif" font-size="14.00" fill="blue">and</text>
</g>
<!-- NoAcuteIllness&#45;&gt;Excluded -->
<g id="edge5" class="edge">
<title>NoAcuteIllness&#45;&gt;Excluded</title>
<path fill="none" stroke="blue" d="M131.94,-782.8C131.94,-771.16 131.94,-755.55 131.94,-742.24"/>
<polygon fill="blue" stroke="blue" points="135.44,-742.18 131.94,-732.18 128.44,-742.18 135.44,-742.18"/>
<text text-anchor="middle" x="148.44" y="-753.8" font-family="Times,serif" font-size="14.00" fill="blue">then</text>
</g>
<!-- NoModerateIllness -->
<g id="node9" class="node">
<title>NoModerateIllness</title>
<g id="a_node9"><a xlink:title="Are not currently experiencing moderate to severe acute illness, with or without fever.">
<ellipse fill="none" stroke="blue" cx="131.94" cy="-540" rx="104.78" ry="18"/>
<text text-anchor="middle" x="131.94" y="-536.3" font-family="Times,serif" font-size="14.00" fill="blue">No Moderate Illness</text>
</a>
</g>
</g>
<!-- NoSevereAllergy&#45;&gt;NoModerateIllness -->
<g id="edge7" class="edge">
<title>NoSevereAllergy&#45;&gt;NoModerateIllness</title>
<path fill="none" stroke="blue" d="M131.94,-608.8C131.94,-597.16 131.94,-581.55 131.94,-568.24"/>
<polygon fill="blue" stroke="blue" points="135.44,-568.18 131.94,-558.18 128.44,-568.18 135.44,-568.18"/>
<text text-anchor="middle" x="145.44" y="-579.8" font-family="Times,serif" font-size="14.00" fill="blue">and</text>
</g>
<!-- NoGBSHistory -->
<g id="node10" class="node">
<title>NoGBSHistory</title>
<g id="a_node10"><a xlink:title="Have no history of Guillain&#45;Barré Syndrome within 6 weeks following a previous dose of influenza vaccine.">
<ellipse fill="none" stroke="blue" cx="131.94" cy="-453" rx="85.29" ry="18"/>
<text text-anchor="middle" x="131.94" y="-449.3" font-family="Times,serif" font-size="14.00" fill="blue">No GBS History</text>
</a>
</g>
</g>
<!-- NoModerateIllness&#45;&gt;NoGBSHistory -->
<g id="edge8" class="edge">
<title>NoModerateIllness&#45;&gt;NoGBSHistory</title>
<path fill="none" stroke="blue" d="M131.94,-521.8C131.94,-510.16 131.94,-494.55 131.94,-481.24"/>
<polygon fill="blue" stroke="blue" points="135.44,-481.18 131.94,-471.18 128.44,-481.18 135.44,-481.18"/>
<text text-anchor="middle" x="145.44" y="-492.8" font-family="Times,serif" font-size="14.00" fill="blue">and</text>
</g>
<!-- AgeAppropriate -->
<g id="node11" class="node">
<title>AgeAppropriate</title>
<g id="a_node11"><a xlink:title="Are older than the minimum age approved for the specific COVID&#45;19 vaccine formulation.">
<ellipse fill="none" stroke="blue" cx="131.94" cy="-366" rx="87.18" ry="18"/>
<text text-anchor="middle" x="131.94" y="-362.3" font-family="Times,serif" font-size="14.00" fill="blue">Age Appropriate</text>
</a>
</g>
</g>
<!-- NoGBSHistory&#45;&gt;AgeAppropriate -->
<g id="edge9" class="edge">
<title>NoGBSHistory&#45;&gt;AgeAppropriate</title>
<path fill="none" stroke="blue" d="M131.94,-434.8C131.94,-423.16 131.94,-407.55 131.94,-394.24"/>
<polygon fill="blue" stroke="blue" points="135.44,-394.18 131.94,-384.18 128.44,-394.18 135.44,-394.18"/>
<text text-anchor="middle" x="145.44" y="-405.8" font-family="Times,serif" font-size="14.00" fill="blue">and</text>
</g>
<!-- NoRecentVaccine -->
<g id="node12" class="node">
<title>NoRecentVaccine</title>
<g id="a_node12"><a xlink:title="Have not received another vaccine within the last 14 days.">
<ellipse fill="none" stroke="blue" cx="131.94" cy="-279" rx="96.68" ry="18"/>
<text text-anchor="middle" x="131.94" y="-275.3" font-family="Times,serif" font-size="14.00" fill="blue">No Recent Vaccine</text>
</a>
</g>
</g>
<!-- AgeAppropriate&#45;&gt;NoRecentVaccine -->
<g id="edge10" class="edge">
<title>AgeAppropriate&#45;&gt;NoRecentVaccine</title>
<path fill="none" stroke="blue" d="M131.94,-347.8C131.94,-336.16 131.94,-320.55 131.94,-307.24"/>
<polygon fill="blue" stroke="blue" points="135.44,-307.18 131.94,-297.18 128.44,-307.18 135.44,-307.18"/>
<text text-anchor="middle" x="145.44" y="-318.8" font-family="Times,serif" font-size="14.00" fill="blue">and</text>
</g>
<!-- NoRecentVaccine&#45;&gt;SuccessfulScreen -->
<g id="edge11" class="edge">
<title>NoRecentVaccine&#45;&gt;SuccessfulScreen</title>
<path fill="none" stroke="blue" d="M131.94,-260.8C131.94,-249.16 131.94,-233.55 131.94,-220.24"/>
<polygon fill="blue" stroke="blue" points="135.44,-220.18 131.94,-210.18 128.44,-220.18 135.44,-220.18"/>
<text text-anchor="middle" x="148.44" y="-231.8" font-family="Times,serif" font-size="14.00" fill="blue">then</text>
</g>
<!-- SuccessfulAdmin -->
<g id="node14" class="node">
<title>SuccessfulAdmin</title>
<g id="a_node14"><a xlink:title="Successful administration of the appropriate vaccine(s) without immediate adverse reactions.">
<ellipse fill="none" stroke="blue" cx="131.94" cy="-18" rx="131.88" ry="18"/>
<text text-anchor="middle" x="131.94" y="-14.3" font-family="Times,serif" font-size="14.00" fill="blue">Successful Administration</text>
</a>
</g>
</g>
<!-- InformedConsent&#45;&gt;SuccessfulAdmin -->
<g id="edge13" class="edge">
<title>InformedConsent&#45;&gt;SuccessfulAdmin</title>
<path fill="none" stroke="blue" d="M131.94,-86.8C131.94,-75.16 131.94,-59.55 131.94,-46.24"/>
<polygon fill="blue" stroke="blue" points="135.44,-46.18 131.94,-36.18 128.44,-46.18 135.44,-46.18"/>
<text text-anchor="middle" x="145.44" y="-57.8" font-family="Times,serif" font-size="14.00" fill="blue">and</text>
</g>
</g>
</svg>
