<?xml version="1.0" encoding="UTF-8" standalone="no"?>
<!DOCTYPE svg PUBLIC "-//W3C//DTD SVG 1.1//EN"
 "http://www.w3.org/Graphics/SVG/1.1/DTD/svg11.dtd">
<!-- Generated by graphviz version 11.0.0 (20240428.1522)
 -->
<!-- Title: MS_Relapse_Diagnosis_and_Treatment Pages: 1 -->
<svg width="439pt" height="873pt"
 viewBox="0.00 0.00 438.50 872.50" xmlns="http://www.w3.org/2000/svg" xmlns:xlink="http://www.w3.org/1999/xlink">
<g id="graph0" class="graph" transform="scale(1 1) rotate(0) translate(4 868.5)">
<title>MS_Relapse_Diagnosis_and_Treatment</title>
<polygon fill="white" stroke="none" points="-4,4 -4,-868.5 434.5,-868.5 434.5,4 -4,4"/>
<!-- start -->
<g id="node1" class="node">
<title>start</title>
<polygon fill="none" stroke="black" points="270.12,-864.5 165.62,-864.5 165.62,-828.5 270.12,-828.5 270.12,-864.5"/>
<text text-anchor="middle" x="217.88" y="-841.45" font-family="Times,serif" font-size="14.00">Person with MS</text>
</g>
<!-- new_symptoms -->
<g id="node3" class="node">
<title>new_symptoms</title>
<polygon fill="none" stroke="black" points="192.88,-792.5 38.88,-792.5 38.88,-756.5 192.88,-756.5 192.88,-792.5"/>
<text text-anchor="middle" x="115.88" y="-769.45" font-family="Times,serif" font-size="14.00">Develops new symptoms</text>
</g>
<!-- start&#45;&gt;new_symptoms -->
<g id="edge1" class="edge">
<title>start&#45;&gt;new_symptoms</title>
<path fill="none" stroke="black" d="M192.4,-828.02C179.65,-819.26 164.02,-808.54 150.23,-799.08"/>
<polygon fill="black" stroke="black" points="152.5,-796.39 142.27,-793.62 148.54,-802.16 152.5,-796.39"/>
</g>
<!-- worsening_symptoms -->
<g id="node4" class="node">
<title>worsening_symptoms</title>
<polygon fill="none" stroke="black" points="430.5,-792.5 211.25,-792.5 211.25,-756.5 430.5,-756.5 430.5,-792.5"/>
<text text-anchor="middle" x="320.88" y="-769.45" font-family="Times,serif" font-size="14.00">Has worsening of existing symptoms</text>
</g>
<!-- start&#45;&gt;worsening_symptoms -->
<g id="edge2" class="edge">
<title>start&#45;&gt;worsening_symptoms</title>
<path fill="none" stroke="black" d="M243.6,-828.02C256.48,-819.26 272.25,-808.54 286.19,-799.08"/>
<polygon fill="black" stroke="black" points="287.92,-802.13 294.23,-793.61 283.99,-796.34 287.92,-802.13"/>
</g>
<!-- diagnose -->
<g id="node2" class="node">
<title>diagnose</title>
<polygon fill="none" stroke="black" points="217.88,-494.5 65.63,-476.5 217.87,-458.5 370.12,-476.5 217.88,-494.5"/>
<text text-anchor="middle" x="217.88" y="-471.45" font-family="Times,serif" font-size="14.00">Diagnose a relapse of MS</text>
</g>
<!-- assess_treatment -->
<g id="node8" class="node">
<title>assess_treatment</title>
<polygon fill="none" stroke="black" points="320,-422.5 115.75,-422.5 115.75,-348.5 320,-348.5 320,-422.5"/>
<text text-anchor="middle" x="217.88" y="-405.2" font-family="Times,serif" font-size="14.00">Assess and offer treatment for </text>
<text text-anchor="middle" x="217.88" y="-388.7" font-family="Times,serif" font-size="14.00">relapses that affect the person&#39;s </text>
<text text-anchor="middle" x="217.88" y="-372.2" font-family="Times,serif" font-size="14.00">ability to perform their usual tasks</text>
<text text-anchor="middle" x="217.88" y="-355.7" font-family="Times,serif" font-size="14.00">within 14 days</text>
</g>
<!-- diagnose&#45;&gt;assess_treatment -->
<g id="edge8" class="edge">
<title>diagnose&#45;&gt;assess_treatment</title>
<path fill="none" stroke="black" d="M217.88,-458.34C217.88,-451.32 217.88,-442.81 217.88,-434.14"/>
<polygon fill="black" stroke="black" points="221.38,-434.28 217.88,-424.28 214.38,-434.28 221.38,-434.28"/>
</g>
<!-- symptoms_duration -->
<g id="node5" class="node">
<title>symptoms_duration</title>
<polygon fill="none" stroke="black" points="342.5,-720.5 93.25,-720.5 93.25,-679.5 342.5,-679.5 342.5,-720.5"/>
<text text-anchor="middle" x="217.88" y="-703.2" font-family="Times,serif" font-size="14.00">Symptoms last for more than 24 hours in </text>
<text text-anchor="middle" x="217.88" y="-686.7" font-family="Times,serif" font-size="14.00">the absence of infection or any other cause</text>
</g>
<!-- new_symptoms&#45;&gt;symptoms_duration -->
<g id="edge3" class="edge">
<title>new_symptoms&#45;&gt;symptoms_duration</title>
<path fill="none" stroke="black" d="M140.31,-756.13C152.47,-747.49 167.43,-736.86 180.96,-727.24"/>
<polygon fill="black" stroke="black" points="182.68,-730.31 188.81,-721.66 178.63,-724.6 182.68,-730.31"/>
</g>
<!-- worsening_symptoms&#45;&gt;symptoms_duration -->
<g id="edge4" class="edge">
<title>worsening_symptoms&#45;&gt;symptoms_duration</title>
<path fill="none" stroke="black" d="M296.2,-756.13C283.92,-747.49 268.81,-736.86 255.16,-727.24"/>
<polygon fill="black" stroke="black" points="257.41,-724.55 247.22,-721.66 253.38,-730.27 257.41,-724.55"/>
</g>
<!-- discriminate -->
<g id="node6" class="node">
<title>discriminate</title>
<polygon fill="none" stroke="black" points="359.75,-643.5 76,-643.5 76,-602.5 359.75,-602.5 359.75,-643.5"/>
<text text-anchor="middle" x="217.88" y="-626.2" font-family="Times,serif" font-size="14.00">Discriminate between the </text>
<text text-anchor="middle" x="217.88" y="-609.7" font-family="Times,serif" font-size="14.00">relapse and fluctuations in disease or progression</text>
</g>
<!-- symptoms_duration&#45;&gt;discriminate -->
<g id="edge5" class="edge">
<title>symptoms_duration&#45;&gt;discriminate</title>
<path fill="none" stroke="black" d="M217.88,-679.29C217.88,-671.95 217.88,-663.41 217.88,-655.28"/>
<polygon fill="black" stroke="black" points="221.38,-655.35 217.88,-645.35 214.38,-655.35 221.38,-655.35"/>
</g>
<!-- lessthan -->
<g id="node7" class="node">
<title>lessthan</title>
<polygon fill="none" stroke="black" points="332.75,-566.5 103,-566.5 103,-530.5 332.75,-530.5 332.75,-566.5"/>
<text text-anchor="middle" x="217.88" y="-543.45" font-family="Times,serif" font-size="14.00">Symptoms present less than 3 months?</text>
</g>
<!-- discriminate&#45;&gt;lessthan -->
<g id="edge6" class="edge">
<title>discriminate&#45;&gt;lessthan</title>
<path fill="none" stroke="black" d="M217.88,-602.19C217.88,-594.75 217.88,-586.14 217.88,-578.07"/>
<polygon fill="black" stroke="black" points="221.38,-578.33 217.88,-568.33 214.38,-578.33 221.38,-578.33"/>
</g>
<!-- lessthan&#45;&gt;diagnose -->
<g id="edge7" class="edge">
<title>lessthan&#45;&gt;diagnose</title>
<path fill="none" stroke="black" d="M217.88,-530.2C217.88,-522.91 217.88,-514.23 217.88,-506.04"/>
<polygon fill="black" stroke="black" points="221.38,-506.12 217.88,-496.12 214.38,-506.12 221.38,-506.12"/>
</g>
<!-- iv_criteria_2 -->
<g id="node12" class="node">
<title>iv_criteria_2</title>
<polygon fill="none" stroke="black" points="355.25,-312.5 80.5,-312.5 80.5,-255 355.25,-255 355.25,-312.5"/>
<text text-anchor="middle" x="217.88" y="-295.2" font-family="Times,serif" font-size="14.00">admission to hospital is needed for severe</text>
<text text-anchor="middle" x="217.88" y="-278.7" font-family="Times,serif" font-size="14.00">relapse or monitoring of medical/psychological</text>
<text text-anchor="middle" x="217.88" y="-262.2" font-family="Times,serif" font-size="14.00">conditions such as diabetes or depression?</text>
</g>
<!-- assess_treatment&#45;&gt;iv_criteria_2 -->
<g id="edge9" class="edge">
<title>assess_treatment&#45;&gt;iv_criteria_2</title>
<path fill="none" stroke="black" d="M217.88,-348.21C217.88,-340.35 217.88,-332 217.88,-324.03"/>
<polygon fill="black" stroke="black" points="221.38,-324.24 217.88,-314.24 214.38,-324.24 221.38,-324.24"/>
</g>
<!-- offer_treatment -->
<g id="node9" class="node">
<title>offer_treatment</title>
<polygon fill="none" stroke="black" points="271.62,-202.5 2.12,-202.5 2.12,-161.5 271.62,-161.5 271.62,-202.5"/>
<text text-anchor="middle" x="136.88" y="-185.2" font-family="Times,serif" font-size="14.00">Offer treatment for relapse with</text>
<text text-anchor="middle" x="136.88" y="-168.7" font-family="Times,serif" font-size="14.00">oral methylprednisolone 0.5 g daily for 5 days</text>
</g>
<!-- iv_criteria_1 -->
<g id="node11" class="node">
<title>iv_criteria_1</title>
<polygon fill="none" stroke="black" points="271.75,-109 0,-109 0,-73 271.75,-73 271.75,-109"/>
<text text-anchor="middle" x="135.88" y="-85.95" font-family="Times,serif" font-size="14.00">Oral steroids have failed or not been tolerated?</text>
</g>
<!-- offer_treatment&#45;&gt;iv_criteria_1 -->
<g id="edge12" class="edge">
<title>offer_treatment&#45;&gt;iv_criteria_1</title>
<path fill="none" stroke="black" d="M136.65,-161.25C136.52,-149.33 136.35,-133.94 136.2,-120.69"/>
<polygon fill="black" stroke="black" points="139.7,-120.77 136.09,-110.81 132.7,-120.84 139.7,-120.77"/>
</g>
<!-- consider_iv -->
<g id="node10" class="node">
<title>consider_iv</title>
<polygon fill="none" stroke="black" points="407,-36 28.75,-36 28.75,0 407,0 407,-36"/>
<text text-anchor="middle" x="217.88" y="-12.95" font-family="Times,serif" font-size="14.00">Consider intravenous methylprednisolone 1 g daily for 3 to 5 days</text>
</g>
<!-- iv_criteria_1&#45;&gt;consider_iv -->
<g id="edge13" class="edge">
<title>iv_criteria_1&#45;&gt;consider_iv</title>
<path fill="none" stroke="black" d="M155.72,-72.81C165.82,-64.07 178.28,-53.28 189.38,-43.67"/>
<polygon fill="black" stroke="black" points="191.51,-46.46 196.78,-37.27 186.93,-41.17 191.51,-46.46"/>
</g>
<!-- iv_criteria_2&#45;&gt;offer_treatment -->
<g id="edge11" class="edge">
<title>iv_criteria_2&#45;&gt;offer_treatment</title>
<path fill="none" stroke="black" d="M195.1,-254.7C184.22,-241.31 171.23,-225.3 160.27,-211.82"/>
<polygon fill="black" stroke="black" points="163.04,-209.67 154.02,-204.12 157.61,-214.09 163.04,-209.67"/>
<text text-anchor="middle" x="186.62" y="-223.7" font-family="Times,serif" font-size="14.00">no</text>
</g>
<!-- iv_criteria_2&#45;&gt;consider_iv -->
<g id="edge10" class="edge">
<title>iv_criteria_2&#45;&gt;consider_iv</title>
<path fill="none" stroke="black" d="M247.44,-254.79C260.36,-240.53 274.11,-222.09 280.88,-202.5 299.68,-148.1 304.92,-125.29 280.88,-73 275.58,-61.48 266.47,-51.49 256.8,-43.35"/>
<polygon fill="black" stroke="black" points="259.1,-40.7 249.05,-37.33 254.8,-46.23 259.1,-40.7"/>
<text text-anchor="middle" x="305.88" y="-130.2" font-family="Times,serif" font-size="14.00">yes</text>
</g>
</g>
</svg>
