<?xml version="1.0" encoding="UTF-8" standalone="no"?>
<!DOCTYPE svg PUBLIC "-//W3C//DTD SVG 1.1//EN"
 "http://www.w3.org/Graphics/SVG/1.1/DTD/svg11.dtd">
<!-- Generated by graphviz version 2.43.0 (0)
 -->
<!-- Title: %3 Pages: 1 -->
<svg width="1150pt" height="653pt"
 viewBox="0.00 0.00 1149.88 653.00" xmlns="http://www.w3.org/2000/svg" xmlns:xlink="http://www.w3.org/1999/xlink">
<g id="graph0" class="graph" transform="scale(1 1) rotate(0) translate(4 649)">
<title>%3</title>
<polygon fill="white" stroke="transparent" points="-4,4 -4,-649 1145.88,-649 1145.88,4 -4,4"/>
<!-- InitialPopulation -->
<g id="node1" class="node">
<title>InitialPopulation</title>
<g id="a_node1"><a xlink:title="All healthcare providers and administrative staff with access to the Canvas Patient Portal within the healthcare organization.">
<path fill="none" stroke="green" d="M661.59,-645C661.59,-645 546.59,-645 546.59,-645 540.59,-645 534.59,-639 534.59,-633 534.59,-633 534.59,-621 534.59,-621 534.59,-615 540.59,-609 546.59,-609 546.59,-609 661.59,-609 661.59,-609 667.59,-609 673.59,-615 673.59,-621 673.59,-621 673.59,-633 673.59,-633 673.59,-639 667.59,-645 661.59,-645"/>
<text text-anchor="middle" x="604.09" y="-623.3" font-family="Times,serif" font-size="14.00" fill="green">Initial Population</text>
</a>
</g>
</g>
<!-- SubsetInConsideration -->
<g id="node2" class="node">
<title>SubsetInConsideration</title>
<g id="a_node2"><a xlink:title="Healthcare providers and administrative staff who are assigned to manage patient communications through the Canvas Patient Portal.">
<path fill="none" stroke="green" d="M686.09,-558C686.09,-558 522.09,-558 522.09,-558 516.09,-558 510.09,-552 510.09,-546 510.09,-546 510.09,-534 510.09,-534 510.09,-528 516.09,-522 522.09,-522 522.09,-522 686.09,-522 686.09,-522 692.09,-522 698.09,-528 698.09,-534 698.09,-534 698.09,-546 698.09,-546 698.09,-552 692.09,-558 686.09,-558"/>
<text text-anchor="middle" x="604.09" y="-536.3" font-family="Times,serif" font-size="14.00" fill="green">Subset in Consideration</text>
</a>
</g>
</g>
<!-- InitialPopulation&#45;&gt;SubsetInConsideration -->
<g id="edge1" class="edge">
<title>InitialPopulation&#45;&gt;SubsetInConsideration</title>
<path fill="none" stroke="blue" d="M604.09,-608.8C604.09,-597.16 604.09,-581.55 604.09,-568.24"/>
<polygon fill="blue" stroke="blue" points="607.59,-568.18 604.09,-558.18 600.59,-568.18 607.59,-568.18"/>
<text text-anchor="middle" x="609.09" y="-579.8" font-family="Times,serif" font-size="14.00" fill="blue">if</text>
</g>
<!-- Exclusion1 -->
<g id="node3" class="node">
<title>Exclusion1</title>
<g id="a_node3"><a xlink:title="Healthcare providers and administrative staff who are on leave or have restricted access to the Canvas Patient Portal.">
<ellipse fill="none" stroke="blue" cx="152.09" cy="-453" rx="152.17" ry="18"/>
<text text-anchor="middle" x="152.09" y="-449.3" font-family="Times,serif" font-size="14.00" fill="blue">On Leave or Restricted Access</text>
</a>
</g>
</g>
<!-- SubsetInConsideration&#45;&gt;Exclusion1 -->
<g id="edge2" class="edge">
<title>SubsetInConsideration&#45;&gt;Exclusion1</title>
<path fill="none" stroke="blue" d="M513.43,-521.95C433.61,-506.94 318.11,-485.22 239.32,-470.41"/>
<polygon fill="blue" stroke="blue" points="239.9,-466.95 229.42,-468.54 238.6,-473.83 239.9,-466.95"/>
<text text-anchor="middle" x="418.59" y="-492.8" font-family="Times,serif" font-size="14.00" fill="blue">and</text>
</g>
<!-- Exclusion2 -->
<g id="node4" class="node">
<title>Exclusion2</title>
<g id="a_node4"><a xlink:title="Staff members who are not trained or authorized to handle patient communications.">
<ellipse fill="none" stroke="blue" cx="455.09" cy="-453" rx="132.68" ry="18"/>
<text text-anchor="middle" x="455.09" y="-449.3" font-family="Times,serif" font-size="14.00" fill="blue">Not Trained or Authorized</text>
</a>
</g>
</g>
<!-- SubsetInConsideration&#45;&gt;Exclusion2 -->
<g id="edge3" class="edge">
<title>SubsetInConsideration&#45;&gt;Exclusion2</title>
<path fill="none" stroke="blue" d="M573.93,-521.8C550.61,-508.49 518.16,-489.98 493.06,-475.66"/>
<polygon fill="blue" stroke="blue" points="494.6,-472.51 484.18,-470.6 491.13,-478.59 494.6,-472.51"/>
<text text-anchor="middle" x="551.59" y="-492.8" font-family="Times,serif" font-size="14.00" fill="blue">and</text>
</g>
<!-- Exclusion3 -->
<g id="node5" class="node">
<title>Exclusion3</title>
<g id="a_node5"><a xlink:title="Automated system messages or notifications that do not require a human response.">
<ellipse fill="none" stroke="blue" cx="753.09" cy="-453" rx="147.57" ry="18"/>
<text text-anchor="middle" x="753.09" y="-449.3" font-family="Times,serif" font-size="14.00" fill="blue">Automated System Messages</text>
</a>
</g>
</g>
<!-- SubsetInConsideration&#45;&gt;Exclusion3 -->
<g id="edge4" class="edge">
<title>SubsetInConsideration&#45;&gt;Exclusion3</title>
<path fill="none" stroke="blue" d="M634.24,-521.8C657.49,-508.54 689.8,-490.1 714.86,-475.8"/>
<polygon fill="blue" stroke="blue" points="716.79,-478.74 723.74,-470.74 713.32,-472.66 716.79,-478.74"/>
<text text-anchor="middle" x="700.59" y="-492.8" font-family="Times,serif" font-size="14.00" fill="blue">and</text>
</g>
<!-- AdministrativeAction -->
<g id="node6" class="node">
<title>AdministrativeAction</title>
<g id="a_node6"><a xlink:title="Log into the Canvas Patient Portal at the beginning of each shift to check for new patient messages. Ensure that all patient messages are acknowledged within 24 hours of receipt.">
<ellipse fill="none" stroke="blue" cx="1030.09" cy="-453" rx="111.58" ry="18"/>
<text text-anchor="middle" x="1030.09" y="-449.3" font-family="Times,serif" font-size="14.00" fill="blue">Administrative Action</text>
</a>
</g>
</g>
<!-- SubsetInConsideration&#45;&gt;AdministrativeAction -->
<g id="edge5" class="edge">
<title>SubsetInConsideration&#45;&gt;AdministrativeAction</title>
<path fill="none" stroke="blue" d="M689.53,-521.95C766.31,-506.63 878.11,-484.32 952.41,-469.5"/>
<polygon fill="blue" stroke="blue" points="953.52,-472.85 962.64,-467.46 952.15,-465.98 953.52,-472.85"/>
<text text-anchor="middle" x="858.59" y="-492.8" font-family="Times,serif" font-size="14.00" fill="blue">then</text>
</g>
<!-- DiagnosticAction -->
<g id="node7" class="node">
<title>DiagnosticAction</title>
<g id="a_node7"><a xlink:title="Review the content of the patient message to determine the nature of the inquiry or concern. If the message pertains to a medical issue, assess whether it requires immediate attention or can be addressed during the next scheduled appointment.">
<ellipse fill="none" stroke="blue" cx="1030.09" cy="-366" rx="92.08" ry="18"/>
<text text-anchor="middle" x="1030.09" y="-362.3" font-family="Times,serif" font-size="14.00" fill="blue">Diagnostic Action</text>
</a>
</g>
</g>
<!-- AdministrativeAction&#45;&gt;DiagnosticAction -->
<g id="edge6" class="edge">
<title>AdministrativeAction&#45;&gt;DiagnosticAction</title>
<path fill="none" stroke="blue" d="M1030.09,-434.8C1030.09,-423.16 1030.09,-407.55 1030.09,-394.24"/>
<polygon fill="blue" stroke="blue" points="1033.59,-394.18 1030.09,-384.18 1026.59,-394.18 1033.59,-394.18"/>
<text text-anchor="middle" x="1043.59" y="-405.8" font-family="Times,serif" font-size="14.00" fill="blue">and</text>
</g>
<!-- TherapeuticAction -->
<g id="node8" class="node">
<title>TherapeuticAction</title>
<g id="a_node8"><a xlink:title="Provide appropriate responses to patient inquiries, which may include clarifying medical instructions or treatment plans, offering reassurance or additional information as needed, and scheduling follow&#45;up appointments if necessary.">
<ellipse fill="none" stroke="blue" cx="1030.09" cy="-279" rx="98.58" ry="18"/>
<text text-anchor="middle" x="1030.09" y="-275.3" font-family="Times,serif" font-size="14.00" fill="blue">Therapeutic Action</text>
</a>
</g>
</g>
<!-- DiagnosticAction&#45;&gt;TherapeuticAction -->
<g id="edge7" class="edge">
<title>DiagnosticAction&#45;&gt;TherapeuticAction</title>
<path fill="none" stroke="blue" d="M1030.09,-347.8C1030.09,-336.16 1030.09,-320.55 1030.09,-307.24"/>
<polygon fill="blue" stroke="blue" points="1033.59,-307.18 1030.09,-297.18 1026.59,-307.18 1033.59,-307.18"/>
<text text-anchor="middle" x="1043.59" y="-318.8" font-family="Times,serif" font-size="14.00" fill="blue">and</text>
</g>
<!-- EscalationProtocol -->
<g id="node9" class="node">
<title>EscalationProtocol</title>
<g id="a_node9"><a xlink:title="If the message contains urgent or emergency medical concerns, escalate the issue to the appropriate healthcare provider immediately. Document the escalation process and any actions taken in the patient&#39;s medical record.">
<ellipse fill="none" stroke="blue" cx="1030.09" cy="-192" rx="100.98" ry="18"/>
<text text-anchor="middle" x="1030.09" y="-188.3" font-family="Times,serif" font-size="14.00" fill="blue">Escalation Protocol</text>
</a>
</g>
</g>
<!-- TherapeuticAction&#45;&gt;EscalationProtocol -->
<g id="edge8" class="edge">
<title>TherapeuticAction&#45;&gt;EscalationProtocol</title>
<path fill="none" stroke="blue" d="M1030.09,-260.8C1030.09,-249.16 1030.09,-233.55 1030.09,-220.24"/>
<polygon fill="blue" stroke="blue" points="1033.59,-220.18 1030.09,-210.18 1026.59,-220.18 1033.59,-220.18"/>
<text text-anchor="middle" x="1043.59" y="-231.8" font-family="Times,serif" font-size="14.00" fill="blue">and</text>
</g>
<!-- Documentation -->
<g id="node10" class="node">
<title>Documentation</title>
<g id="a_node10"><a xlink:title="Record all communications with patients in the Canvas Patient Portal, ensuring that the information is accurate and up&#45;to&#45;date. Maintain confidentiality and adhere to HIPAA regulations when handling patient information.">
<ellipse fill="none" stroke="blue" cx="1030.09" cy="-105" rx="81.49" ry="18"/>
<text text-anchor="middle" x="1030.09" y="-101.3" font-family="Times,serif" font-size="14.00" fill="blue">Documentation</text>
</a>
</g>
</g>
<!-- EscalationProtocol&#45;&gt;Documentation -->
<g id="edge9" class="edge">
<title>EscalationProtocol&#45;&gt;Documentation</title>
<path fill="none" stroke="blue" d="M1030.09,-173.8C1030.09,-162.16 1030.09,-146.55 1030.09,-133.24"/>
<polygon fill="blue" stroke="blue" points="1033.59,-133.18 1030.09,-123.18 1026.59,-133.18 1033.59,-133.18"/>
<text text-anchor="middle" x="1043.59" y="-144.8" font-family="Times,serif" font-size="14.00" fill="blue">and</text>
</g>
<!-- QualityAssurance -->
<g id="node11" class="node">
<title>QualityAssurance</title>
<g id="a_node11"><a xlink:title="Participate in regular audits of patient message responses to ensure compliance with the protocol. Engage in ongoing training and updates related to patient communication best practices.">
<ellipse fill="none" stroke="blue" cx="1030.09" cy="-18" rx="94.78" ry="18"/>
<text text-anchor="middle" x="1030.09" y="-14.3" font-family="Times,serif" font-size="14.00" fill="blue">Quality Assurance</text>
</a>
</g>
</g>
<!-- Documentation&#45;&gt;QualityAssurance -->
<g id="edge10" class="edge">
<title>Documentation&#45;&gt;QualityAssurance</title>
<path fill="none" stroke="blue" d="M1030.09,-86.8C1030.09,-75.16 1030.09,-59.55 1030.09,-46.24"/>
<polygon fill="blue" stroke="blue" points="1033.59,-46.18 1030.09,-36.18 1026.59,-46.18 1033.59,-46.18"/>
<text text-anchor="middle" x="1043.59" y="-57.8" font-family="Times,serif" font-size="14.00" fill="blue">and</text>
</g>
</g>
</svg>
