<?xml version="1.0" encoding="UTF-8" standalone="no"?><!DOCTYPE svg PUBLIC "-//W3C//DTD SVG 1.1//EN" "http://www.w3.org/Graphics/SVG/1.1/DTD/svg11.dtd"><!-- Generated by graphviz version 2.40.1 (20161225.0304)
 --><!-- Title: %0 Pages: 1 --><svg xmlns="http://www.w3.org/2000/svg" xmlns:xlink="http://www.w3.org/1999/xlink" width="1237pt" height="637pt" viewBox="0.00 0.00 1236.74 637.40">
<g id="graph0" class="graph" transform="scale(1 1) rotate(0) translate(4 633.4)">
<title>%0</title>
<polygon fill="#ffffff" stroke="transparent" points="-4,4 -4,-633.4 1232.742,-633.4 1232.742,4 -4,4"/>
<!-- Check_OVF -->
<g id="node1" class="node">
<title>Check_OVF</title>
<ellipse fill="none" stroke="#000000" cx="955" cy="-611.4" rx="225.0654" ry="18"/>
<text text-anchor="middle" x="955" y="-607.2" font-family="Times,serif" font-size="14.00" fill="#000000">Osteoporotic Vertebral Fracture discovered on Imaging</text>
</g>
<!-- Check_Symptoms -->
<g id="node2" class="node">
<title>Check_Symptoms</title>
<ellipse fill="none" stroke="#000000" cx="955" cy="-538.4" rx="119.8178" ry="18"/>
<text text-anchor="middle" x="955" y="-534.2" font-family="Times,serif" font-size="14.00" fill="#000000">Is the Patient Symptomatic?</text>
</g>
<!-- Check_OVF&#45;&gt;Check_Symptoms -->
<g id="edge1" class="edge">
<title>Check_OVF-&gt;Check_Symptoms</title>
<path fill="none" stroke="#000000" d="M955,-593.3551C955,-585.2828 955,-575.5764 955,-566.5817"/>
<polygon fill="#000000" stroke="#000000" points="958.5001,-566.4903 955,-556.4904 951.5001,-566.4904 958.5001,-566.4903"/>
</g>
<!-- Check_Hospitalized -->
<g id="node3" class="node">
<title>Check_Hospitalized</title>
<ellipse fill="none" stroke="#000000" cx="864" cy="-449.6" rx="116.9271" ry="18"/>
<text text-anchor="middle" x="864" y="-445.4" font-family="Times,serif" font-size="14.00" fill="#000000">Is the Patient Hospitalized?</text>
</g>
<!-- Check_Symptoms&#45;&gt;Check_Hospitalized -->
<g id="edge2" class="edge">
<title>Check_Symptoms-&gt;Check_Hospitalized</title>
<path fill="none" stroke="#000000" d="M936.5848,-520.43C923.1402,-507.3105 904.7352,-489.3504 889.8229,-474.7986"/>
<polygon fill="#000000" stroke="#000000" points="891.9893,-472.0224 882.3878,-467.5433 887.1005,-477.0323 891.9893,-472.0224"/>
<text text-anchor="middle" x="928.8829" y="-489.8" font-family="Times,serif" font-size="14.00" fill="#000000">Yes</text>
</g>
<!-- Not_Eligible -->
<g id="node12" class="node">
<title>Not_Eligible</title>
<ellipse fill="none" stroke="#000000" cx="1115" cy="-91" rx="113.9845" ry="18"/>
<text text-anchor="middle" x="1115" y="-86.8" font-family="Times,serif" font-size="14.00" fill="#000000">Not Eligible for Procedure</text>
</g>
<!-- Check_Symptoms&#45;&gt;Not_Eligible -->
<g id="edge3" class="edge">
<title>Check_Symptoms-&gt;Not_Eligible</title>
<path fill="none" stroke="#000000" d="M1029.2591,-524.1975C1068.2413,-511.9723 1108,-489.6794 1108,-449.6 1108,-449.6 1108,-449.6 1108,-179.8 1108,-159.5657 1109.8286,-136.8178 1111.6166,-119.4117"/>
<polygon fill="#000000" stroke="#000000" points="1115.1108,-119.6531 1112.7079,-109.3344 1108.1515,-118.8994 1115.1108,-119.6531"/>
<text text-anchor="middle" x="1116.5533" y="-302.6" font-family="Times,serif" font-size="14.00" fill="#000000">No</text>
</g>
<!-- Severe_Pain_Hospitalized -->
<g id="node4" class="node">
<title>Severe_Pain_Hospitalized</title>
<ellipse fill="none" stroke="#000000" cx="226" cy="-306.8" rx="125.6439" ry="18"/>
<text text-anchor="middle" x="226" y="-302.6" font-family="Times,serif" font-size="14.00" fill="#000000">Severe Pain (NRS/VAS ≥ 8)</text>
</g>
<!-- Check_Hospitalized&#45;&gt;Severe_Pain_Hospitalized -->
<g id="edge4" class="edge">
<title>Check_Hospitalized-&gt;Severe_Pain_Hospitalized</title>
<path fill="none" stroke="#000000" d="M797.5283,-434.722C678.6701,-408.1186 430.3416,-352.5366 303.7733,-324.2076"/>
<polygon fill="#000000" stroke="#000000" points="304.2863,-320.7359 293.7633,-321.9671 302.7573,-327.5668 304.2863,-320.7359"/>
<text text-anchor="middle" x="713.8829" y="-401" font-family="Times,serif" font-size="14.00" fill="#000000">Yes</text>
</g>
<!-- Moderate_Severe_Pain -->
<g id="node5" class="node">
<title>Moderate_Severe_Pain</title>
<ellipse fill="none" stroke="#000000" cx="864" cy="-360.8" rx="175.3243" ry="18"/>
<text text-anchor="middle" x="864" y="-356.6" font-family="Times,serif" font-size="14.00" fill="#000000">Moderate to Severe Pain (NRS/VAS ≥ 5)</text>
</g>
<!-- Check_Hospitalized&#45;&gt;Moderate_Severe_Pain -->
<g id="edge5" class="edge">
<title>Check_Hospitalized-&gt;Moderate_Severe_Pain</title>
<path fill="none" stroke="#000000" d="M864,-431.2006C864,-419.0949 864,-403.0076 864,-389.2674"/>
<polygon fill="#000000" stroke="#000000" points="867.5001,-388.872 864,-378.872 860.5001,-388.8721 867.5001,-388.872"/>
<text text-anchor="middle" x="872.5533" y="-401" font-family="Times,serif" font-size="14.00" fill="#000000">No</text>
</g>
<!-- Proceed_Procedure -->
<g id="node11" class="node">
<title>Proceed_Procedure</title>
<ellipse fill="none" stroke="#000000" cx="336" cy="-18" rx="240.1119" ry="18"/>
<text text-anchor="middle" x="336" y="-13.8" font-family="Times,serif" font-size="14.00" fill="#000000">Proceed with Percutaneous Vertebral Augmentation (PVA)</text>
</g>
<!-- Severe_Pain_Hospitalized&#45;&gt;Proceed_Procedure -->
<g id="edge6" class="edge">
<title>Severe_Pain_Hospitalized-&gt;Proceed_Procedure</title>
<path fill="none" stroke="#000000" d="M152.9364,-292.0662C86.9072,-276.5899 0,-249.8479 0,-216.3 0,-216.3 0,-216.3 0,-91 0,-79.3678 8.6033,-78.217 19,-73 49.87,-57.5095 124.8913,-44.1502 194.2028,-34.478"/>
<polygon fill="#000000" stroke="#000000" points="194.952,-37.908 204.3818,-33.0779 193.9981,-30.9733 194.952,-37.908"/>
</g>
<!-- Check_NSM -->
<g id="node6" class="node">
<title>Check_NSM</title>
<ellipse fill="none" stroke="#000000" cx="864" cy="-252.8" rx="188.667" ry="18"/>
<text text-anchor="middle" x="864" y="-248.6" font-family="Times,serif" font-size="14.00" fill="#000000">Attempted Non-Surgical Management (NSM)</text>
</g>
<!-- Moderate_Severe_Pain&#45;&gt;Check_NSM -->
<g id="edge7" class="edge">
<title>Moderate_Severe_Pain-&gt;Check_NSM</title>
<path fill="none" stroke="#000000" d="M864,-342.4793C864,-325.621 864,-300.3651 864,-280.947"/>
<polygon fill="#000000" stroke="#000000" points="867.5001,-280.8501 864,-270.8502 860.5001,-280.8502 867.5001,-280.8501"/>
<text text-anchor="middle" x="874.8829" y="-302.6" font-family="Times,serif" font-size="14.00" fill="#000000">Yes</text>
</g>
<!-- Worsening_Stable_Pain -->
<g id="node7" class="node">
<title>Worsening_Stable_Pain</title>
<ellipse fill="none" stroke="#000000" cx="783" cy="-179.8" rx="224.5784" ry="18"/>
<text text-anchor="middle" x="783" y="-175.6" font-family="Times,serif" font-size="14.00" fill="#000000">Worsening Pain or Stable Pain with Additional Criteria</text>
</g>
<!-- Check_NSM&#45;&gt;Worsening_Stable_Pain -->
<g id="edge8" class="edge">
<title>Check_NSM-&gt;Worsening_Stable_Pain</title>
<path fill="none" stroke="#000000" d="M843.9775,-234.7551C833.9498,-225.7177 821.6491,-214.6319 810.7286,-204.7899"/>
<polygon fill="#000000" stroke="#000000" points="812.8444,-201.9852 803.0729,-197.8904 808.1581,-207.185 812.8444,-201.9852"/>
</g>
<!-- Check_NSM&#45;&gt;Not_Eligible -->
<g id="edge9" class="edge">
<title>Check_NSM-&gt;Not_Eligible</title>
<path fill="none" stroke="#000000" d="M932.4461,-235.9507C960.1271,-227.2181 991.4959,-214.7554 1017,-197.8 1049.6623,-176.0857 1078.8789,-141.2244 1096.7385,-117.2734"/>
<polygon fill="#000000" stroke="#000000" points="1099.7185,-119.1275 1102.7898,-108.9876 1094.0655,-114.999 1099.7185,-119.1275"/>
<text text-anchor="middle" x="1066.5533" y="-175.6" font-family="Times,serif" font-size="14.00" fill="#000000">No</text>
</g>
<!-- Criteria1 -->
<g id="node8" class="node">
<title>Criteria1</title>
<ellipse fill="none" stroke="#000000" cx="198" cy="-91" rx="169.7265" ry="18"/>
<text text-anchor="middle" x="198" y="-86.8" font-family="Times,serif" font-size="14.00" fill="#000000">&gt; 25% Vertebral Body Height Reduction</text>
</g>
<!-- Worsening_Stable_Pain&#45;&gt;Criteria1 -->
<g id="edge10" class="edge">
<title>Worsening_Stable_Pain-&gt;Criteria1</title>
<path fill="none" stroke="#000000" d="M678.0761,-163.8731C572.8032,-147.8932 411.4608,-123.4023 305.3399,-107.2937"/>
<polygon fill="#000000" stroke="#000000" points="305.6583,-103.802 295.2463,-105.7615 304.6078,-110.7227 305.6583,-103.802"/>
</g>
<!-- Criteria2 -->
<g id="node9" class="node">
<title>Criteria2</title>
<ellipse fill="none" stroke="#000000" cx="475" cy="-91" rx="89.7283" ry="18"/>
<text text-anchor="middle" x="475" y="-86.8" font-family="Times,serif" font-size="14.00" fill="#000000">Kyphotic Deformity</text>
</g>
<!-- Worsening_Stable_Pain&#45;&gt;Criteria2 -->
<g id="edge11" class="edge">
<title>Worsening_Stable_Pain-&gt;Criteria2</title>
<path fill="none" stroke="#000000" d="M722.5166,-162.3619C668.7508,-146.8606 590.5095,-124.3027 536.4522,-108.7174"/>
<polygon fill="#000000" stroke="#000000" points="537.2295,-105.299 526.6513,-105.8917 535.2903,-112.025 537.2295,-105.299"/>
</g>
<!-- Criteria3 -->
<g id="node10" class="node">
<title>Criteria3</title>
<ellipse fill="none" stroke="#000000" cx="783" cy="-91" rx="200.9463" ry="18"/>
<text text-anchor="middle" x="783" y="-86.8" font-family="Times,serif" font-size="14.00" fill="#000000">Severe Impact on Daily Functioning (RDQ &gt; 17)</text>
</g>
<!-- Worsening_Stable_Pain&#45;&gt;Criteria3 -->
<g id="edge12" class="edge">
<title>Worsening_Stable_Pain-&gt;Criteria3</title>
<path fill="none" stroke="#000000" d="M783,-161.4006C783,-149.2949 783,-133.2076 783,-119.4674"/>
<polygon fill="#000000" stroke="#000000" points="786.5001,-119.072 783,-109.072 779.5001,-119.0721 786.5001,-119.072"/>
</g>
<!-- Worsening_Stable_Pain&#45;&gt;Not_Eligible -->
<g id="edge16" class="edge">
<title>Worsening_Stable_Pain-&gt;Not_Eligible</title>
<path fill="none" stroke="#000000" d="M835.7003,-162.2817C869.2499,-151.4298 913.7364,-137.5922 953.5848,-127 980.0352,-119.9692 1009.1675,-113.183 1035.3172,-107.434"/>
<polygon fill="#000000" stroke="#000000" points="1036.1568,-110.8333 1045.1815,-105.2831 1034.6654,-103.994 1036.1568,-110.8333"/>
<text text-anchor="middle" x="998.7076" y="-131.2" font-family="Times,serif" font-size="14.00" fill="#000000">No Criteria Met</text>
</g>
<!-- Criteria1&#45;&gt;Proceed_Procedure -->
<g id="edge13" class="edge">
<title>Criteria1-&gt;Proceed_Procedure</title>
<path fill="none" stroke="#000000" d="M231.406,-73.3287C249.9447,-63.522 273.204,-51.2182 293.0787,-40.7048"/>
<polygon fill="#000000" stroke="#000000" points="294.7401,-43.7855 301.943,-36.0157 291.4669,-37.5978 294.7401,-43.7855"/>
</g>
<!-- Criteria2&#45;&gt;Proceed_Procedure -->
<g id="edge14" class="edge">
<title>Criteria2-&gt;Proceed_Procedure</title>
<path fill="none" stroke="#000000" d="M442.7612,-74.0688C423.759,-64.0893 399.4806,-51.3388 378.8788,-40.5191"/>
<polygon fill="#000000" stroke="#000000" points="380.4839,-37.4088 370.0032,-35.8578 377.2292,-43.6061 380.4839,-37.4088"/>
</g>
<!-- Criteria3&#45;&gt;Proceed_Procedure -->
<g id="edge15" class="edge">
<title>Criteria3-&gt;Proceed_Procedure</title>
<path fill="none" stroke="#000000" d="M686.2829,-75.205C615.7939,-63.6934 520.1641,-48.076 446.6333,-36.0676"/>
<polygon fill="#000000" stroke="#000000" points="446.8427,-32.5555 436.4093,-34.3979 445.7145,-39.464 446.8427,-32.5555"/>
</g>
</g>
</svg>