<?xml version="1.0" encoding="UTF-8" standalone="no"?><!DOCTYPE svg PUBLIC "-//W3C//DTD SVG 1.1//EN" "http://www.w3.org/Graphics/SVG/1.1/DTD/svg11.dtd"><!-- Generated by graphviz version 2.40.1 (20161225.0304)
 --><!-- Title: G Pages: 1 --><svg xmlns="http://www.w3.org/2000/svg" xmlns:xlink="http://www.w3.org/1999/xlink" width="593pt" height="803pt" viewBox="0.00 0.00 593.21 802.60">
<g id="graph0" class="graph" transform="scale(1 1) rotate(0) translate(4 798.6)">
<title>G</title>
<polygon fill="#ffffff" stroke="transparent" points="-4,4 -4,-798.6 589.2066,-798.6 589.2066,4 -4,4"/>
<!-- start -->
<g id="node1" class="node">
<title>start</title>
<polygon fill="none" stroke="#0000ff" points="476.4762,-794.6 422.4762,-794.6 422.4762,-758.6 476.4762,-758.6 476.4762,-794.6"/>
<text text-anchor="middle" x="449.4762" y="-772.4" font-family="Times,serif" font-size="14.00" fill="#0000ff">Start</text>
</g>
<!-- isAdult45Plus -->
<g id="node2" class="node">
<title>isAdult45Plus</title>
<polygon fill="none" stroke="#0000ff" points="449.4762,-721.7002 332.6251,-680 449.4762,-638.2998 566.3273,-680 449.4762,-721.7002"/>
<text text-anchor="middle" x="449.4762" y="-684.2" font-family="Times,serif" font-size="14.00" fill="#0000ff">Is the patient</text>
<text text-anchor="middle" x="449.4762" y="-667.4" font-family="Times,serif" font-size="14.00" fill="#0000ff">45 years or older?</text>
</g>
<!-- start&#45;&gt;isAdult45Plus -->
<g id="edge1" class="edge">
<title>start-&gt;isAdult45Plus</title>
<path fill="none" stroke="#000000" d="M449.4762,-758.4303C449.4762,-750.8044 449.4762,-741.5101 449.4762,-732.023"/>
<polygon fill="#000000" stroke="#000000" points="452.9763,-731.7228 449.4762,-721.7228 445.9763,-731.7228 452.9763,-731.7228"/>
</g>
<!-- isAdult50To75 -->
<g id="node3" class="node">
<title>isAdult50To75</title>
<polygon fill="none" stroke="#0000ff" points="359.4762,-585.7002 240.9945,-544 359.4762,-502.2998 477.9579,-544 359.4762,-585.7002"/>
<text text-anchor="middle" x="359.4762" y="-548.2" font-family="Times,serif" font-size="14.00" fill="#0000ff">Is the patient aged</text>
<text text-anchor="middle" x="359.4762" y="-531.4" font-family="Times,serif" font-size="14.00" fill="#0000ff">50 to 75 years?</text>
</g>
<!-- isAdult45Plus&#45;&gt;isAdult50To75 -->
<g id="edge2" class="edge">
<title>isAdult45Plus-&gt;isAdult50To75</title>
<path fill="none" stroke="#000000" d="M426.9976,-646.0323C415.0779,-628.0203 400.3178,-605.7162 387.6406,-586.5595"/>
<polygon fill="#000000" stroke="#000000" points="390.4177,-584.4138 381.9802,-578.006 384.5801,-588.2769 390.4177,-584.4138"/>
<text text-anchor="middle" x="421.3591" y="-607.8" font-family="Times,serif" font-size="14.00" fill="#000000">Yes</text>
</g>
<!-- notEligible -->
<g id="node11" class="node">
<title>notEligible</title>
<polygon fill="none" stroke="#000000" points="585.4382,-564.6019 495.5142,-564.6019 495.5142,-523.3981 585.4382,-523.3981 585.4382,-564.6019"/>
<text text-anchor="middle" x="540.4762" y="-548.2" font-family="Times,serif" font-size="14.00" fill="#000000">Not eligible</text>
<text text-anchor="middle" x="540.4762" y="-531.4" font-family="Times,serif" font-size="14.00" fill="#000000">for screening</text>
</g>
<!-- isAdult45Plus&#45;&gt;notEligible -->
<g id="edge3" class="edge">
<title>isAdult45Plus-&gt;notEligible</title>
<path fill="none" stroke="#000000" d="M472.2046,-646.0323C487.1957,-623.628 506.6303,-594.5829 520.9283,-573.2145"/>
<polygon fill="#000000" stroke="#000000" points="523.8683,-575.1143 526.5205,-564.8568 518.0505,-571.2215 523.8683,-575.1143"/>
<text text-anchor="middle" x="509.0295" y="-607.8" font-family="Times,serif" font-size="14.00" fill="#000000">No</text>
</g>
<!-- isAdult45To49 -->
<g id="node4" class="node">
<title>isAdult45To49</title>
<polygon fill="none" stroke="#0000ff" points="255.4762,-449.7002 136.9945,-408 255.4762,-366.2998 373.9579,-408 255.4762,-449.7002"/>
<text text-anchor="middle" x="255.4762" y="-412.2" font-family="Times,serif" font-size="14.00" fill="#0000ff">Is the patient aged</text>
<text text-anchor="middle" x="255.4762" y="-395.4" font-family="Times,serif" font-size="14.00" fill="#0000ff">45 to 49 years?</text>
</g>
<!-- isAdult50To75&#45;&gt;isAdult45To49 -->
<g id="edge5" class="edge">
<title>isAdult50To75-&gt;isAdult45To49</title>
<path fill="none" stroke="#000000" d="M334.3007,-511.0782C320.035,-492.4231 302.0602,-468.9176 286.8791,-449.0653"/>
<polygon fill="#000000" stroke="#000000" points="289.6351,-446.9075 280.7803,-441.09 284.0746,-451.1597 289.6351,-446.9075"/>
<text text-anchor="middle" x="323.0295" y="-471.8" font-family="Times,serif" font-size="14.00" fill="#000000">No</text>
</g>
<!-- recommendScreening50To75 -->
<g id="node7" class="node">
<title>recommendScreening50To75</title>
<polygon fill="none" stroke="#000000" points="535.3774,-428.6019 391.575,-428.6019 391.575,-387.3981 535.3774,-387.3981 535.3774,-428.6019"/>
<text text-anchor="middle" x="463.4762" y="-412.2" font-family="Times,serif" font-size="14.00" fill="#000000">Recommend screening</text>
<text text-anchor="middle" x="463.4762" y="-395.4" font-family="Times,serif" font-size="14.00" fill="#000000">(A recommendation)</text>
</g>
<!-- isAdult50To75&#45;&gt;recommendScreening50To75 -->
<g id="edge4" class="edge">
<title>isAdult50To75-&gt;recommendScreening50To75</title>
<path fill="none" stroke="#000000" d="M384.6517,-511.0782C401.9527,-488.4538 424.7092,-458.6953 441.3217,-436.9713"/>
<polygon fill="#000000" stroke="#000000" points="444.2911,-438.85 447.5853,-428.7804 438.7305,-434.5979 444.2911,-438.85"/>
<text text-anchor="middle" x="429.3591" y="-471.8" font-family="Times,serif" font-size="14.00" fill="#000000">Yes</text>
</g>
<!-- isAdult76To85 -->
<g id="node5" class="node">
<title>isAdult76To85</title>
<polygon fill="none" stroke="#0000ff" points="151.4762,-313.7002 32.9945,-272 151.4762,-230.2998 269.9579,-272 151.4762,-313.7002"/>
<text text-anchor="middle" x="151.4762" y="-276.2" font-family="Times,serif" font-size="14.00" fill="#0000ff">Is the patient aged</text>
<text text-anchor="middle" x="151.4762" y="-259.4" font-family="Times,serif" font-size="14.00" fill="#0000ff">76 to 85 years?</text>
</g>
<!-- isAdult45To49&#45;&gt;isAdult76To85 -->
<g id="edge7" class="edge">
<title>isAdult45To49-&gt;isAdult76To85</title>
<path fill="none" stroke="#000000" d="M230.3007,-375.0782C216.035,-356.4231 198.0602,-332.9176 182.8791,-313.0653"/>
<polygon fill="#000000" stroke="#000000" points="185.6351,-310.9075 176.7803,-305.09 180.0746,-315.1597 185.6351,-310.9075"/>
<text text-anchor="middle" x="219.0295" y="-335.8" font-family="Times,serif" font-size="14.00" fill="#000000">No</text>
</g>
<!-- recommendScreening45To49 -->
<g id="node8" class="node">
<title>recommendScreening45To49</title>
<polygon fill="none" stroke="#000000" points="431.3774,-292.6019 287.575,-292.6019 287.575,-251.3981 431.3774,-251.3981 431.3774,-292.6019"/>
<text text-anchor="middle" x="359.4762" y="-276.2" font-family="Times,serif" font-size="14.00" fill="#000000">Recommend screening</text>
<text text-anchor="middle" x="359.4762" y="-259.4" font-family="Times,serif" font-size="14.00" fill="#000000">(B recommendation)</text>
</g>
<!-- isAdult45To49&#45;&gt;recommendScreening45To49 -->
<g id="edge6" class="edge">
<title>isAdult45To49-&gt;recommendScreening45To49</title>
<path fill="none" stroke="#000000" d="M280.6517,-375.0782C297.9527,-352.4538 320.7092,-322.6953 337.3217,-300.9713"/>
<polygon fill="#000000" stroke="#000000" points="340.2911,-302.85 343.5853,-292.7804 334.7305,-298.5979 340.2911,-302.85"/>
<text text-anchor="middle" x="325.3591" y="-335.8" font-family="Times,serif" font-size="14.00" fill="#000000">Yes</text>
</g>
<!-- hasScreeningHistory -->
<g id="node6" class="node">
<title>hasScreeningHistory</title>
<polygon fill="none" stroke="#0000ff" points="89.4762,-177.7002 .0238,-136 89.4762,-94.2998 178.9286,-136 89.4762,-177.7002"/>
<text text-anchor="middle" x="89.4762" y="-140.2" font-family="Times,serif" font-size="14.00" fill="#0000ff">Has previous</text>
<text text-anchor="middle" x="89.4762" y="-123.4" font-family="Times,serif" font-size="14.00" fill="#0000ff">screening?</text>
</g>
<!-- isAdult76To85&#45;&gt;hasScreeningHistory -->
<g id="edge8" class="edge">
<title>isAdult76To85-&gt;hasScreeningHistory</title>
<path fill="none" stroke="#000000" d="M135.0241,-235.9116C127.2034,-218.7565 117.7852,-198.0972 109.5476,-180.0276"/>
<polygon fill="#000000" stroke="#000000" points="112.6951,-178.494 105.3622,-170.8468 106.3257,-181.3977 112.6951,-178.494"/>
<text text-anchor="middle" x="135.3591" y="-199.8" font-family="Times,serif" font-size="14.00" fill="#000000">Yes</text>
</g>
<!-- noAction -->
<g id="node10" class="node">
<title>noAction</title>
<polygon fill="none" stroke="#000000" points="262.2769,-41.4019 166.6755,-41.4019 166.6755,-.1981 262.2769,-.1981 262.2769,-41.4019"/>
<text text-anchor="middle" x="214.4762" y="-25" font-family="Times,serif" font-size="14.00" fill="#000000">No screening</text>
<text text-anchor="middle" x="214.4762" y="-8.2" font-family="Times,serif" font-size="14.00" fill="#000000">recommended</text>
</g>
<!-- isAdult76To85&#45;&gt;noAction -->
<g id="edge11" class="edge">
<title>isAdult76To85-&gt;noAction</title>
<path fill="none" stroke="#000000" d="M167.1761,-235.7884C174.2039,-218.4455 182.0996,-197.2234 187.4762,-177.6 199.2478,-134.6362 206.9031,-83.5775 210.9567,-51.6728"/>
<polygon fill="#000000" stroke="#000000" points="214.4453,-51.9795 212.1941,-41.6267 207.4978,-51.1238 214.4453,-51.9795"/>
<text text-anchor="middle" x="214.0295" y="-131.8" font-family="Times,serif" font-size="14.00" fill="#000000">No</text>
</g>
<!-- considerScreening76To85 -->
<g id="node9" class="node">
<title>considerScreening76To85</title>
<polygon fill="none" stroke="#000000" points="148.7156,-41.4019 16.2368,-41.4019 16.2368,-.1981 148.7156,-.1981 148.7156,-41.4019"/>
<text text-anchor="middle" x="82.4762" y="-25" font-family="Times,serif" font-size="14.00" fill="#000000">Consider screening</text>
<text text-anchor="middle" x="82.4762" y="-8.2" font-family="Times,serif" font-size="14.00" fill="#000000">(C recommendation)</text>
</g>
<!-- hasScreeningHistory&#45;&gt;considerScreening76To85 -->
<g id="edge9" class="edge">
<title>hasScreeningHistory-&gt;considerScreening76To85</title>
<path fill="none" stroke="#000000" d="M87.0083,-95.3848C86.1386,-81.0727 85.1756,-65.2242 84.3617,-51.8302"/>
<polygon fill="#000000" stroke="#000000" points="87.8458,-51.4603 83.7456,-41.6911 80.8587,-51.885 87.8458,-51.4603"/>
<text text-anchor="middle" x="97.3591" y="-63.8" font-family="Times,serif" font-size="14.00" fill="#000000">Yes</text>
</g>
<!-- hasScreeningHistory&#45;&gt;noAction -->
<g id="edge10" class="edge">
<title>hasScreeningHistory-&gt;noAction</title>
<path fill="none" stroke="#000000" d="M119.7352,-108.1133C139.3816,-90.0072 164.8808,-66.5071 184.4756,-48.4486"/>
<polygon fill="#000000" stroke="#000000" points="186.9576,-50.9208 191.9392,-41.5701 182.2137,-45.7734 186.9576,-50.9208"/>
<text text-anchor="middle" x="179.0295" y="-63.8" font-family="Times,serif" font-size="14.00" fill="#000000">No</text>
</g>
</g>
</svg>