<?xml version="1.0" encoding="UTF-8" standalone="no"?>
<!DOCTYPE svg PUBLIC "-//W3C//DTD SVG 1.1//EN"
 "http://www.w3.org/Graphics/SVG/1.1/DTD/svg11.dtd">
<!-- Generated by graphviz version 2.43.0 (0)
 -->
<!-- Title: %3 Pages: 1 -->
<svg width="196pt" height="566pt"
 viewBox="0.00 0.00 196.00 566.00" xmlns="http://www.w3.org/2000/svg" xmlns:xlink="http://www.w3.org/1999/xlink">
<g id="graph0" class="graph" transform="scale(1 1) rotate(0) translate(4 562)">
<title>%3</title>
<polygon fill="white" stroke="transparent" points="-4,4 -4,-562 192,-562 192,4 -4,4"/>
<!-- InitialPopulation -->
<g id="node1" class="node">
<title>InitialPopulation</title>
<g id="a_node1"><a xlink:title="All care navigators using the Canvas platform for managing patient notes">
<path fill="none" stroke="green" d="M151.5,-558C151.5,-558 36.5,-558 36.5,-558 30.5,-558 24.5,-552 24.5,-546 24.5,-546 24.5,-534 24.5,-534 24.5,-528 30.5,-522 36.5,-522 36.5,-522 151.5,-522 151.5,-522 157.5,-522 163.5,-528 163.5,-534 163.5,-534 163.5,-546 163.5,-546 163.5,-552 157.5,-558 151.5,-558"/>
<text text-anchor="middle" x="94" y="-536.3" font-family="Times,serif" font-size="14.00" fill="green">Initial Population</text>
</a>
</g>
</g>
<!-- SubsetConsideration -->
<g id="node2" class="node">
<title>SubsetConsideration</title>
<g id="a_node2"><a xlink:title="Notes created by care navigators that are either left open beyond a predefined time frame or closed without the required coding">
<path fill="none" stroke="green" d="M176,-471C176,-471 12,-471 12,-471 6,-471 0,-465 0,-459 0,-459 0,-447 0,-447 0,-441 6,-435 12,-435 12,-435 176,-435 176,-435 182,-435 188,-441 188,-447 188,-447 188,-459 188,-459 188,-465 182,-471 176,-471"/>
<text text-anchor="middle" x="94" y="-449.3" font-family="Times,serif" font-size="14.00" fill="green">Subset in Consideration</text>
</a>
</g>
</g>
<!-- InitialPopulation&#45;&gt;SubsetConsideration -->
<g id="edge1" class="edge">
<title>InitialPopulation&#45;&gt;SubsetConsideration</title>
<path fill="none" stroke="blue" d="M94,-521.8C94,-510.16 94,-494.55 94,-481.24"/>
<polygon fill="blue" stroke="blue" points="97.5,-481.18 94,-471.18 90.5,-481.18 97.5,-481.18"/>
<text text-anchor="middle" x="99" y="-492.8" font-family="Times,serif" font-size="14.00" fill="blue">if</text>
</g>
<!-- ExclusionCriteria -->
<g id="node3" class="node">
<title>ExclusionCriteria</title>
<g id="a_node3"><a xlink:title="Notes that are closed with all required coding within the predefined time frame or intentionally left open due to ongoing patient care activities">
<path fill="none" stroke="green" d="M155,-384C155,-384 33,-384 33,-384 27,-384 21,-378 21,-372 21,-372 21,-360 21,-360 21,-354 27,-348 33,-348 33,-348 155,-348 155,-348 161,-348 167,-354 167,-360 167,-360 167,-372 167,-372 167,-378 161,-384 155,-384"/>
<text text-anchor="middle" x="94" y="-362.3" font-family="Times,serif" font-size="14.00" fill="green">Exclusion Criteria</text>
</a>
</g>
</g>
<!-- SubsetConsideration&#45;&gt;ExclusionCriteria -->
<g id="edge2" class="edge">
<title>SubsetConsideration&#45;&gt;ExclusionCriteria</title>
<path fill="none" stroke="blue" d="M94,-434.8C94,-423.16 94,-407.55 94,-394.24"/>
<polygon fill="blue" stroke="blue" points="97.5,-394.18 94,-384.18 90.5,-394.18 97.5,-394.18"/>
<text text-anchor="middle" x="107.5" y="-405.8" font-family="Times,serif" font-size="14.00" fill="blue">and</text>
</g>
<!-- Diagnostic -->
<g id="node4" class="node">
<title>Diagnostic</title>
<g id="a_node4"><a xlink:title="Implement a monitoring system using Canvas SDK plugins to track the status of notes and identify notes that meet the criteria">
<ellipse fill="none" stroke="blue" cx="94" cy="-279" rx="59.59" ry="18"/>
<text text-anchor="middle" x="94" y="-275.3" font-family="Times,serif" font-size="14.00" fill="blue">Diagnostic</text>
</a>
</g>
</g>
<!-- ExclusionCriteria&#45;&gt;Diagnostic -->
<g id="edge3" class="edge">
<title>ExclusionCriteria&#45;&gt;Diagnostic</title>
<path fill="none" stroke="blue" d="M94,-347.8C94,-336.16 94,-320.55 94,-307.24"/>
<polygon fill="blue" stroke="blue" points="97.5,-307.18 94,-297.18 90.5,-307.18 97.5,-307.18"/>
<text text-anchor="middle" x="110.5" y="-318.8" font-family="Times,serif" font-size="14.00" fill="blue">then</text>
</g>
<!-- Administrative -->
<g id="node5" class="node">
<title>Administrative</title>
<g id="a_node5"><a xlink:title="Automatically generate a task within the Canvas platform for each identified note and assign it to the care navigator">
<ellipse fill="none" stroke="blue" cx="94" cy="-192" rx="79.09" ry="18"/>
<text text-anchor="middle" x="94" y="-188.3" font-family="Times,serif" font-size="14.00" fill="blue">Administrative</text>
</a>
</g>
</g>
<!-- Diagnostic&#45;&gt;Administrative -->
<g id="edge4" class="edge">
<title>Diagnostic&#45;&gt;Administrative</title>
<path fill="none" stroke="blue" d="M94,-260.8C94,-249.16 94,-233.55 94,-220.24"/>
<polygon fill="blue" stroke="blue" points="97.5,-220.18 94,-210.18 90.5,-220.18 97.5,-220.18"/>
<text text-anchor="middle" x="107.5" y="-231.8" font-family="Times,serif" font-size="14.00" fill="blue">and</text>
</g>
<!-- Therapeutic -->
<g id="node6" class="node">
<title>Therapeutic</title>
<g id="a_node6"><a xlink:title="Notify the care navigator of the task, prompting them to either close the note with the required coding or update the note status">
<ellipse fill="none" stroke="blue" cx="94" cy="-105" rx="66.09" ry="18"/>
<text text-anchor="middle" x="94" y="-101.3" font-family="Times,serif" font-size="14.00" fill="blue">Therapeutic</text>
</a>
</g>
</g>
<!-- Administrative&#45;&gt;Therapeutic -->
<g id="edge5" class="edge">
<title>Administrative&#45;&gt;Therapeutic</title>
<path fill="none" stroke="blue" d="M94,-173.8C94,-162.16 94,-146.55 94,-133.24"/>
<polygon fill="blue" stroke="blue" points="97.5,-133.18 94,-123.18 90.5,-133.18 97.5,-133.18"/>
<text text-anchor="middle" x="107.5" y="-144.8" font-family="Times,serif" font-size="14.00" fill="blue">and</text>
</g>
<!-- Completion -->
<g id="node7" class="node">
<title>Completion</title>
<g id="a_node7"><a xlink:title="Set a completion deadline for the task to ensure timely resolution and monitor task completion">
<ellipse fill="none" stroke="blue" cx="94" cy="-18" rx="63.89" ry="18"/>
<text text-anchor="middle" x="94" y="-14.3" font-family="Times,serif" font-size="14.00" fill="blue">Completion</text>
</a>
</g>
</g>
<!-- Therapeutic&#45;&gt;Completion -->
<g id="edge6" class="edge">
<title>Therapeutic&#45;&gt;Completion</title>
<path fill="none" stroke="blue" d="M94,-86.8C94,-75.16 94,-59.55 94,-46.24"/>
<polygon fill="blue" stroke="blue" points="97.5,-46.18 94,-36.18 90.5,-46.18 97.5,-46.18"/>
<text text-anchor="middle" x="107.5" y="-57.8" font-family="Times,serif" font-size="14.00" fill="blue">and</text>
</g>
</g>
</svg>
