<?xml version="1.0" encoding="UTF-8" standalone="no"?>
<!DOCTYPE svg PUBLIC "-//W3C//DTD SVG 1.1//EN"
 "http://www.w3.org/Graphics/SVG/1.1/DTD/svg11.dtd">
<!-- Generated by graphviz version 11.0.0 (20240428.1522)
 -->
<!-- Title: CRPS_Diagnosis_Flowsheet Pages: 1 -->
<svg width="626pt" height="637pt"
 viewBox="0.00 0.00 626.25 636.50" xmlns="http://www.w3.org/2000/svg" xmlns:xlink="http://www.w3.org/1999/xlink">
<g id="graph0" class="graph" transform="scale(1 1) rotate(0) translate(4 632.5)">
<title>CRPS_Diagnosis_Flowsheet</title>
<polygon fill="white" stroke="none" points="-4,4 -4,-632.5 622.25,-632.5 622.25,4 -4,4"/>
<!-- start -->
<g id="node1" class="node">
<title>start</title>
<polygon fill="lightblue" stroke="lightblue" points="506.12,-628.5 201.38,-628.5 201.38,-592.5 506.12,-592.5 506.12,-628.5"/>
<text text-anchor="middle" x="353.75" y="-605.45" font-family="Times,serif" font-size="14.00">Patient presents with limb pain &gt;4 weeks post&#45;injury</text>
</g>
<!-- exclude_alt -->
<g id="node2" class="node">
<title>exclude_alt</title>
<polygon fill="lightblue" stroke="lightblue" points="442.75,-556.5 264.75,-556.5 264.75,-520.5 442.75,-520.5 442.75,-556.5"/>
<text text-anchor="middle" x="353.75" y="-533.45" font-family="Times,serif" font-size="14.00">Exclude alternative diagnoses</text>
</g>
<!-- start&#45;&gt;exclude_alt -->
<g id="edge1" class="edge">
<title>start&#45;&gt;exclude_alt</title>
<path fill="none" stroke="black" d="M353.75,-592.2C353.75,-584.91 353.75,-576.23 353.75,-568.04"/>
<polygon fill="black" stroke="black" points="357.25,-568.12 353.75,-558.12 350.25,-568.12 357.25,-568.12"/>
</g>
<!-- suspect_CRPS -->
<g id="node3" class="node">
<title>suspect_CRPS</title>
<polygon fill="lightblue" stroke="lightblue" points="401.12,-484.5 306.38,-484.5 306.38,-448.5 401.12,-448.5 401.12,-484.5"/>
<text text-anchor="middle" x="353.75" y="-461.45" font-family="Times,serif" font-size="14.00">Suspect CRPS</text>
</g>
<!-- exclude_alt&#45;&gt;suspect_CRPS -->
<g id="edge2" class="edge">
<title>exclude_alt&#45;&gt;suspect_CRPS</title>
<path fill="none" stroke="black" d="M353.75,-520.2C353.75,-512.91 353.75,-504.23 353.75,-496.04"/>
<polygon fill="black" stroke="black" points="357.25,-496.12 353.75,-486.12 350.25,-496.12 357.25,-496.12"/>
</g>
<!-- budapest_criteria -->
<g id="node4" class="node">
<title>budapest_criteria</title>
<polygon fill="lightblue" stroke="lightblue" points="466.38,-412.5 241.12,-412.5 241.12,-376.5 466.38,-376.5 466.38,-412.5"/>
<text text-anchor="middle" x="353.75" y="-389.45" font-family="Times,serif" font-size="14.00">Apply Budapest Criteria (Appendix 4)</text>
</g>
<!-- suspect_CRPS&#45;&gt;budapest_criteria -->
<g id="edge3" class="edge">
<title>suspect_CRPS&#45;&gt;budapest_criteria</title>
<path fill="none" stroke="black" d="M353.75,-448.2C353.75,-440.91 353.75,-432.23 353.75,-424.04"/>
<polygon fill="black" stroke="black" points="357.25,-424.12 353.75,-414.12 350.25,-424.12 357.25,-424.12"/>
</g>
<!-- communicate_diagnosis -->
<g id="node5" class="node">
<title>communicate_diagnosis</title>
<polygon fill="lightblue" stroke="lightblue" points="508.38,-340.5 199.12,-340.5 199.12,-304.5 508.38,-304.5 508.38,-340.5"/>
<text text-anchor="middle" x="353.75" y="-317.45" font-family="Times,serif" font-size="14.00">Communicate diagnosis with caution and reassurance</text>
</g>
<!-- budapest_criteria&#45;&gt;communicate_diagnosis -->
<g id="edge4" class="edge">
<title>budapest_criteria&#45;&gt;communicate_diagnosis</title>
<path fill="none" stroke="black" d="M353.75,-376.2C353.75,-368.91 353.75,-360.23 353.75,-352.04"/>
<polygon fill="black" stroke="black" points="357.25,-352.12 353.75,-342.12 350.25,-352.12 357.25,-352.12"/>
</g>
<!-- document_diagnosis -->
<g id="node6" class="node">
<title>document_diagnosis</title>
<polygon fill="lightblue" stroke="lightblue" points="470.12,-268.5 237.38,-268.5 237.38,-232.5 470.12,-232.5 470.12,-268.5"/>
<text text-anchor="middle" x="353.75" y="-245.45" font-family="Times,serif" font-size="14.00">Document CRPS diagnosis in ED notes</text>
</g>
<!-- communicate_diagnosis&#45;&gt;document_diagnosis -->
<g id="edge5" class="edge">
<title>communicate_diagnosis&#45;&gt;document_diagnosis</title>
<path fill="none" stroke="black" d="M353.75,-304.2C353.75,-296.91 353.75,-288.23 353.75,-280.04"/>
<polygon fill="black" stroke="black" points="357.25,-280.12 353.75,-270.12 350.25,-280.12 357.25,-280.12"/>
</g>
<!-- notify_GP -->
<g id="node7" class="node">
<title>notify_GP</title>
<polygon fill="lightblue" stroke="lightblue" points="484.38,-196.5 223.12,-196.5 223.12,-160.5 484.38,-160.5 484.38,-196.5"/>
<text text-anchor="middle" x="353.75" y="-173.45" font-family="Times,serif" font-size="14.00">Notify GP and patient&#39;s normal care provider</text>
</g>
<!-- document_diagnosis&#45;&gt;notify_GP -->
<g id="edge6" class="edge">
<title>document_diagnosis&#45;&gt;notify_GP</title>
<path fill="none" stroke="black" d="M353.75,-232.2C353.75,-224.91 353.75,-216.23 353.75,-208.04"/>
<polygon fill="black" stroke="black" points="357.25,-208.12 353.75,-198.12 350.25,-208.12 357.25,-208.12"/>
</g>
<!-- diagnostic_uncertainty -->
<g id="node8" class="node">
<title>diagnostic_uncertainty</title>
<polygon fill="lightblue" stroke="lightblue" points="446.88,-124.5 260.62,-124.5 260.62,-88.5 446.88,-88.5 446.88,-124.5"/>
<text text-anchor="middle" x="353.75" y="-101.45" font-family="Times,serif" font-size="14.00">Is there diagnostic uncertainty?</text>
</g>
<!-- notify_GP&#45;&gt;diagnostic_uncertainty -->
<g id="edge7" class="edge">
<title>notify_GP&#45;&gt;diagnostic_uncertainty</title>
<path fill="none" stroke="black" d="M353.75,-160.2C353.75,-152.91 353.75,-144.23 353.75,-136.04"/>
<polygon fill="black" stroke="black" points="357.25,-136.12 353.75,-126.12 350.25,-136.12 357.25,-136.12"/>
</g>
<!-- refer_specialist -->
<g id="node9" class="node">
<title>refer_specialist</title>
<polygon fill="lightblue" stroke="lightblue" points="389.5,-36 0,-36 0,0 389.5,0 389.5,-36"/>
<text text-anchor="middle" x="194.75" y="-12.95" font-family="Times,serif" font-size="14.00">Refer to Pain Medicine, Neurology, Rheumatology, or Orthopaedics</text>
</g>
<!-- diagnostic_uncertainty&#45;&gt;refer_specialist -->
<g id="edge8" class="edge">
<title>diagnostic_uncertainty&#45;&gt;refer_specialist</title>
<path fill="none" stroke="black" d="M321.96,-88.2C297.45,-74.87 263.34,-56.31 236.61,-41.77"/>
<polygon fill="black" stroke="black" points="238.55,-38.84 228.09,-37.14 235.2,-44.99 238.55,-38.84"/>
<text text-anchor="middle" x="298.88" y="-57.2" font-family="Times,serif" font-size="14.00">Yes</text>
</g>
<!-- end -->
<g id="node10" class="node">
<title>end</title>
<polygon fill="lightblue" stroke="lightblue" points="618.25,-36 407.25,-36 407.25,0 618.25,0 618.25,-36"/>
<text text-anchor="middle" x="512.75" y="-12.95" font-family="Times,serif" font-size="14.00">Continue with normal care protocol</text>
</g>
<!-- diagnostic_uncertainty&#45;&gt;end -->
<g id="edge9" class="edge">
<title>diagnostic_uncertainty&#45;&gt;end</title>
<path fill="none" stroke="black" d="M385.54,-88.2C410.05,-74.87 444.16,-56.31 470.89,-41.77"/>
<polygon fill="black" stroke="black" points="472.3,-44.99 479.41,-37.14 468.95,-38.84 472.3,-44.99"/>
<text text-anchor="middle" x="456" y="-57.2" font-family="Times,serif" font-size="14.00">No</text>
</g>
</g>
</svg>
