<?xml version="1.0" encoding="UTF-8" standalone="no"?>
<!DOCTYPE svg PUBLIC "-//W3C//DTD SVG 1.1//EN"
 "http://www.w3.org/Graphics/SVG/1.1/DTD/svg11.dtd">
<!-- Generated by graphviz version 2.43.0 (0)
 -->
<!-- Title: %3 Pages: 1 -->
<svg width="392pt" height="1088pt"
 viewBox="0.00 0.00 392.18 1088.00" xmlns="http://www.w3.org/2000/svg" xmlns:xlink="http://www.w3.org/1999/xlink">
<g id="graph0" class="graph" transform="scale(1 1) rotate(0) translate(4 1084)">
<title>%3</title>
<polygon fill="white" stroke="transparent" points="-4,4 -4,-1084 388.18,-1084 388.18,4 -4,4"/>
<!-- InitialPopulation -->
<g id="node1" class="node">
<title>InitialPopulation</title>
<g id="a_node1"><a xlink:title="The initial population includes all individuals who have participated in sports activities and have been diagnosed with a concussion by a qualified healthcare professional.">
<path fill="none" stroke="green" d="M157.59,-1080C157.59,-1080 42.59,-1080 42.59,-1080 36.59,-1080 30.59,-1074 30.59,-1068 30.59,-1068 30.59,-1056 30.59,-1056 30.59,-1050 36.59,-1044 42.59,-1044 42.59,-1044 157.59,-1044 157.59,-1044 163.59,-1044 169.59,-1050 169.59,-1056 169.59,-1056 169.59,-1068 169.59,-1068 169.59,-1074 163.59,-1080 157.59,-1080"/>
<text text-anchor="middle" x="100.09" y="-1058.3" font-family="Times,serif" font-size="14.00" fill="green">Initial Population</text>
</a>
</g>
</g>
<!-- Age5Plus -->
<g id="node5" class="node">
<title>Age5Plus</title>
<g id="a_node5"><a xlink:title="Are aged 5 years and older.">
<ellipse fill="none" stroke="blue" cx="100.09" cy="-975" rx="44.69" ry="18"/>
<text text-anchor="middle" x="100.09" y="-971.3" font-family="Times,serif" font-size="14.00" fill="blue">Age 5+</text>
</a>
</g>
</g>
<!-- InitialPopulation&#45;&gt;Age5Plus -->
<g id="edge1" class="edge">
<title>InitialPopulation&#45;&gt;Age5Plus</title>
<path fill="none" stroke="blue" d="M100.09,-1043.8C100.09,-1032.16 100.09,-1016.55 100.09,-1003.24"/>
<polygon fill="blue" stroke="blue" points="103.59,-1003.18 100.09,-993.18 96.59,-1003.18 103.59,-1003.18"/>
<text text-anchor="middle" x="105.09" y="-1014.8" font-family="Times,serif" font-size="14.00" fill="blue">if</text>
</g>
<!-- SubsetInConsideration -->
<g id="node2" class="node">
<title>SubsetInConsideration</title>
<g id="a_node2"><a xlink:title="The subset in consideration for the protocol includes individuals from the initial population who are aged 5 years and older, have been symptom&#45;free for at least 24 hours, and have received medical clearance from a healthcare provider to begin the return&#45;to&#45;play process.">
<path fill="none" stroke="green" d="M182.09,-732C182.09,-732 18.09,-732 18.09,-732 12.09,-732 6.09,-726 6.09,-720 6.09,-720 6.09,-708 6.09,-708 6.09,-702 12.09,-696 18.09,-696 18.09,-696 182.09,-696 182.09,-696 188.09,-696 194.09,-702 194.09,-708 194.09,-708 194.09,-720 194.09,-720 194.09,-726 188.09,-732 182.09,-732"/>
<text text-anchor="middle" x="100.09" y="-710.3" font-family="Times,serif" font-size="14.00" fill="green">Subset in Consideration</text>
</a>
</g>
</g>
<!-- ExcludedPopulation -->
<g id="node3" class="node">
<title>ExcludedPopulation</title>
<g id="a_node3"><a xlink:title="Individuals from the subset will be excluded from the protocol if they exhibit any new or worsening symptoms of concussion during the return&#45;to&#45;play process, have a history of multiple concussions or prolonged recovery from previous concussions, or are unable to follow the stepwise progression due to cognitive or physical limitations.">
<path fill="none" stroke="green" d="M153.59,-645C153.59,-645 14.59,-645 14.59,-645 8.59,-645 2.59,-639 2.59,-633 2.59,-633 2.59,-621 2.59,-621 2.59,-615 8.59,-609 14.59,-609 14.59,-609 153.59,-609 153.59,-609 159.59,-609 165.59,-615 165.59,-621 165.59,-621 165.59,-633 165.59,-633 165.59,-639 159.59,-645 153.59,-645"/>
<text text-anchor="middle" x="84.09" y="-623.3" font-family="Times,serif" font-size="14.00" fill="green">Excluded Population</text>
</a>
</g>
</g>
<!-- SubsetInConsideration&#45;&gt;ExcludedPopulation -->
<g id="edge9" class="edge">
<title>SubsetInConsideration&#45;&gt;ExcludedPopulation</title>
<path fill="none" stroke="blue" d="M96.85,-695.8C94.66,-684.16 91.72,-668.55 89.22,-655.24"/>
<polygon fill="blue" stroke="blue" points="92.61,-654.36 87.32,-645.18 85.73,-655.65 92.61,-654.36"/>
</g>
<!-- NoNewSymptoms -->
<g id="node8" class="node">
<title>NoNewSymptoms</title>
<g id="a_node8"><a xlink:title="Exhibit no new or worsening symptoms of concussion during the return&#45;to&#45;play process.">
<ellipse fill="none" stroke="blue" cx="284.09" cy="-627" rx="100.18" ry="18"/>
<text text-anchor="middle" x="284.09" y="-623.3" font-family="Times,serif" font-size="14.00" fill="blue">No New Symptoms</text>
</a>
</g>
</g>
<!-- SubsetInConsideration&#45;&gt;NoNewSymptoms -->
<g id="edge5" class="edge">
<title>SubsetInConsideration&#45;&gt;NoNewSymptoms</title>
<path fill="none" stroke="blue" d="M137.33,-695.8C167.02,-682.08 208.68,-662.84 240.03,-648.36"/>
<polygon fill="blue" stroke="blue" points="241.79,-651.4 249.4,-644.03 238.86,-645.04 241.79,-651.4"/>
<text text-anchor="middle" x="209.09" y="-666.8" font-family="Times,serif" font-size="14.00" fill="blue">if</text>
</g>
<!-- ProtocolSatisfied -->
<g id="node4" class="node">
<title>ProtocolSatisfied</title>
<g id="a_node4"><a xlink:title="This protocol is designed to ensure a safe and structured return to sports activities following a concussion, minimizing the risk of further injury.">
<path fill="none" stroke="green" d="M343.59,-384C343.59,-384 224.59,-384 224.59,-384 218.59,-384 212.59,-378 212.59,-372 212.59,-372 212.59,-360 212.59,-360 212.59,-354 218.59,-348 224.59,-348 224.59,-348 343.59,-348 343.59,-348 349.59,-348 355.59,-354 355.59,-360 355.59,-360 355.59,-372 355.59,-372 355.59,-378 349.59,-384 343.59,-384"/>
<text text-anchor="middle" x="284.09" y="-362.3" font-family="Times,serif" font-size="14.00" fill="green">Protocol Satisfied</text>
</a>
</g>
</g>
<!-- InitialRest -->
<g id="node11" class="node">
<title>InitialRest</title>
<g id="a_node11"><a xlink:title="Ensure a period of physical and cognitive rest until acute symptoms resolve.">
<ellipse fill="none" stroke="blue" cx="225.09" cy="-279" rx="61.99" ry="18"/>
<text text-anchor="middle" x="225.09" y="-275.3" font-family="Times,serif" font-size="14.00" fill="blue">Initial Rest</text>
</a>
</g>
</g>
<!-- ProtocolSatisfied&#45;&gt;InitialRest -->
<g id="edge10" class="edge">
<title>ProtocolSatisfied&#45;&gt;InitialRest</title>
<path fill="none" stroke="blue" d="M272.15,-347.8C263.7,-335.62 252.22,-319.09 242.72,-305.4"/>
<polygon fill="blue" stroke="blue" points="245.39,-303.1 236.81,-296.89 239.64,-307.1 245.39,-303.1"/>
<text text-anchor="middle" x="264.09" y="-318.8" font-family="Times,serif" font-size="14.00" fill="blue">if</text>
</g>
<!-- SymptomFree24h -->
<g id="node6" class="node">
<title>SymptomFree24h</title>
<g id="a_node6"><a xlink:title="Have been symptom&#45;free for at least 24 hours.">
<ellipse fill="none" stroke="blue" cx="100.09" cy="-888" rx="100.18" ry="18"/>
<text text-anchor="middle" x="100.09" y="-884.3" font-family="Times,serif" font-size="14.00" fill="blue">Symptom&#45;Free 24h</text>
</a>
</g>
</g>
<!-- Age5Plus&#45;&gt;SymptomFree24h -->
<g id="edge2" class="edge">
<title>Age5Plus&#45;&gt;SymptomFree24h</title>
<path fill="none" stroke="blue" d="M100.09,-956.8C100.09,-945.16 100.09,-929.55 100.09,-916.24"/>
<polygon fill="blue" stroke="blue" points="103.59,-916.18 100.09,-906.18 96.59,-916.18 103.59,-916.18"/>
<text text-anchor="middle" x="113.59" y="-927.8" font-family="Times,serif" font-size="14.00" fill="blue">and</text>
</g>
<!-- MedicalClearance -->
<g id="node7" class="node">
<title>MedicalClearance</title>
<g id="a_node7"><a xlink:title="Have received medical clearance from a healthcare provider to begin the return&#45;to&#45;play process.">
<ellipse fill="none" stroke="blue" cx="100.09" cy="-801" rx="96.68" ry="18"/>
<text text-anchor="middle" x="100.09" y="-797.3" font-family="Times,serif" font-size="14.00" fill="blue">Medical Clearance</text>
</a>
</g>
</g>
<!-- SymptomFree24h&#45;&gt;MedicalClearance -->
<g id="edge3" class="edge">
<title>SymptomFree24h&#45;&gt;MedicalClearance</title>
<path fill="none" stroke="blue" d="M100.09,-869.8C100.09,-858.16 100.09,-842.55 100.09,-829.24"/>
<polygon fill="blue" stroke="blue" points="103.59,-829.18 100.09,-819.18 96.59,-829.18 103.59,-829.18"/>
<text text-anchor="middle" x="113.59" y="-840.8" font-family="Times,serif" font-size="14.00" fill="blue">and</text>
</g>
<!-- MedicalClearance&#45;&gt;SubsetInConsideration -->
<g id="edge4" class="edge">
<title>MedicalClearance&#45;&gt;SubsetInConsideration</title>
<path fill="none" stroke="blue" d="M100.09,-782.8C100.09,-771.16 100.09,-755.55 100.09,-742.24"/>
<polygon fill="blue" stroke="blue" points="103.59,-742.18 100.09,-732.18 96.59,-742.18 103.59,-742.18"/>
<text text-anchor="middle" x="116.59" y="-753.8" font-family="Times,serif" font-size="14.00" fill="blue">then</text>
</g>
<!-- NoHistory -->
<g id="node9" class="node">
<title>NoHistory</title>
<g id="a_node9"><a xlink:title="Have no history of multiple concussions or prolonged recovery from previous concussions.">
<ellipse fill="none" stroke="blue" cx="284.09" cy="-540" rx="61.99" ry="18"/>
<text text-anchor="middle" x="284.09" y="-536.3" font-family="Times,serif" font-size="14.00" fill="blue">No History</text>
</a>
</g>
</g>
<!-- NoNewSymptoms&#45;&gt;NoHistory -->
<g id="edge6" class="edge">
<title>NoNewSymptoms&#45;&gt;NoHistory</title>
<path fill="none" stroke="blue" d="M284.09,-608.8C284.09,-597.16 284.09,-581.55 284.09,-568.24"/>
<polygon fill="blue" stroke="blue" points="287.59,-568.18 284.09,-558.18 280.59,-568.18 287.59,-568.18"/>
<text text-anchor="middle" x="297.59" y="-579.8" font-family="Times,serif" font-size="14.00" fill="blue">and</text>
</g>
<!-- FollowProgression -->
<g id="node10" class="node">
<title>FollowProgression</title>
<g id="a_node10"><a xlink:title="Are able to follow the stepwise progression without cognitive or physical limitations.">
<ellipse fill="none" stroke="blue" cx="284.09" cy="-453" rx="99.38" ry="18"/>
<text text-anchor="middle" x="284.09" y="-449.3" font-family="Times,serif" font-size="14.00" fill="blue">Follow Progression</text>
</a>
</g>
</g>
<!-- NoHistory&#45;&gt;FollowProgression -->
<g id="edge7" class="edge">
<title>NoHistory&#45;&gt;FollowProgression</title>
<path fill="none" stroke="blue" d="M284.09,-521.8C284.09,-510.16 284.09,-494.55 284.09,-481.24"/>
<polygon fill="blue" stroke="blue" points="287.59,-481.18 284.09,-471.18 280.59,-481.18 287.59,-481.18"/>
<text text-anchor="middle" x="297.59" y="-492.8" font-family="Times,serif" font-size="14.00" fill="blue">and</text>
</g>
<!-- FollowProgression&#45;&gt;ProtocolSatisfied -->
<g id="edge8" class="edge">
<title>FollowProgression&#45;&gt;ProtocolSatisfied</title>
<path fill="none" stroke="blue" d="M284.09,-434.8C284.09,-423.16 284.09,-407.55 284.09,-394.24"/>
<polygon fill="blue" stroke="blue" points="287.59,-394.18 284.09,-384.18 280.59,-394.18 287.59,-394.18"/>
<text text-anchor="middle" x="300.59" y="-405.8" font-family="Times,serif" font-size="14.00" fill="blue">then</text>
</g>
<!-- StepwiseProgression -->
<g id="node12" class="node">
<title>StepwiseProgression</title>
<g id="a_node12"><a xlink:title="Complete the stepwise return&#45;to&#45;play progression.">
<ellipse fill="none" stroke="blue" cx="174.09" cy="-192" rx="111.58" ry="18"/>
<text text-anchor="middle" x="174.09" y="-188.3" font-family="Times,serif" font-size="14.00" fill="blue">Stepwise Progression</text>
</a>
</g>
</g>
<!-- InitialRest&#45;&gt;StepwiseProgression -->
<g id="edge11" class="edge">
<title>InitialRest&#45;&gt;StepwiseProgression</title>
<path fill="none" stroke="blue" d="M215.02,-261.21C207.73,-249.06 197.75,-232.43 189.47,-218.63"/>
<polygon fill="blue" stroke="blue" points="192.47,-216.82 184.32,-210.05 186.46,-220.43 192.47,-216.82"/>
<text text-anchor="middle" x="216.59" y="-231.8" font-family="Times,serif" font-size="14.00" fill="blue">and</text>
</g>
<!-- MonitoringDocumentation -->
<g id="node13" class="node">
<title>MonitoringDocumentation</title>
<g id="a_node13"><a xlink:title="Continuously monitor for symptom recurrence and document each step.">
<ellipse fill="none" stroke="blue" cx="153.09" cy="-105" rx="147.57" ry="18"/>
<text text-anchor="middle" x="153.09" y="-101.3" font-family="Times,serif" font-size="14.00" fill="blue">Monitoring &amp; Documentation</text>
</a>
</g>
</g>
<!-- StepwiseProgression&#45;&gt;MonitoringDocumentation -->
<g id="edge12" class="edge">
<title>StepwiseProgression&#45;&gt;MonitoringDocumentation</title>
<path fill="none" stroke="blue" d="M169.84,-173.8C166.97,-162.16 163.11,-146.55 159.82,-133.24"/>
<polygon fill="blue" stroke="blue" points="163.13,-132.04 157.33,-123.18 156.34,-133.72 163.13,-132.04"/>
<text text-anchor="middle" x="178.59" y="-144.8" font-family="Times,serif" font-size="14.00" fill="blue">and</text>
</g>
<!-- FinalClearance -->
<g id="node14" class="node">
<title>FinalClearance</title>
<g id="a_node14"><a xlink:title="Obtain final medical clearance from a healthcare provider before returning to full play.">
<ellipse fill="none" stroke="blue" cx="241.09" cy="-18" rx="83.39" ry="18"/>
<text text-anchor="middle" x="241.09" y="-14.3" font-family="Times,serif" font-size="14.00" fill="blue">Final Clearance</text>
</a>
</g>
</g>
<!-- MonitoringDocumentation&#45;&gt;FinalClearance -->
<g id="edge13" class="edge">
<title>MonitoringDocumentation&#45;&gt;FinalClearance</title>
<path fill="none" stroke="blue" d="M170.9,-86.8C183.99,-74.16 201.93,-56.82 216.4,-42.85"/>
<polygon fill="blue" stroke="blue" points="218.85,-45.35 223.61,-35.89 213.99,-40.32 218.85,-45.35"/>
<text text-anchor="middle" x="216.59" y="-57.8" font-family="Times,serif" font-size="14.00" fill="blue">and</text>
</g>
<!-- FinalClearance&#45;&gt;ProtocolSatisfied -->
<g id="edge14" class="edge">
<title>FinalClearance&#45;&gt;ProtocolSatisfied</title>
<path fill="none" stroke="blue" d="M274.36,-34.55C299.28,-48.75 329.09,-72.35 329.09,-104 329.09,-280 329.09,-280 329.09,-280 329.09,-301.84 317.35,-323.55 305.86,-339.56"/>
<polygon fill="blue" stroke="blue" points="302.84,-337.75 299.58,-347.83 308.41,-341.98 302.84,-337.75"/>
<text text-anchor="middle" x="345.59" y="-188.3" font-family="Times,serif" font-size="14.00" fill="blue">then</text>
</g>
</g>
</svg>
