<svg xmlns="http://www.w3.org/2000/svg" viewBox="0 0 100 100">
  <rect width="100" height="100" rx="20" fill="#0b5fff"/>
  <g fill="none" stroke="#ffffff" stroke-width="5" stroke-linecap="round" stroke-linejoin="round">
    <path d="M42 20 v34 l-14 22 a8 8 0 0 0 7 12 h30 a8 8 0 0 0 7 -12 l-14 -22 v-34"/>
    <path d="M37 20 h26"/>
  </g>
  <path d="M34 62 h32 l6 9 a8 8 0 0 1 -7 12 h-30 a8 8 0 0 1 -7 -12 z" fill="#9ec5ff"/>
  <path d="M50 30 l4.6 9.3 10.3 1.5 -7.4 7.3 1.7 10.2 -9.2 -4.8 -9.2 4.8 1.7 -10.2 -7.4 -7.3 10.3 -1.5 z" fill="#ffd23f"/>
</svg>
