<svg xmlns="http://www.w3.org/2000/svg" viewBox="0 0 100 100">
  <!-- Card shadow -->
  <rect x="13" y="23" width="74" height="66" rx="10" fill="#6b1313" opacity="0.4"/>

  <!-- Card body -->
  <rect x="11" y="20" width="74" height="66" rx="10" fill="#fafcff"/>

  <!-- Top band (red accent) with rounded top corners only -->
  <path d="M21 20 L75 20 Q85 20 85 30 L85 42 L11 42 L11 30 Q11 20 21 20 Z" fill="#dc2626"/>

  <!-- Inner highlight for paper-cut feel -->
  <path d="M21 22 L75 22 Q83 22 83 30 L83 32 L13 32 L13 30 Q13 22 21 22 Z" fill="#ef4444"/>

  <!-- Baseline grid hint -->
  <line x1="14" y1="64" x2="82" y2="64" stroke="#fbd5d5" stroke-width="0.8" stroke-dasharray="2,2"/>

  <!-- EKG / pulse line -->
  <path d="M14 64 L32 64 L36 64 L40 60 L43 64 L47 64 L51 68 L54 48 L58 78 L61 60 L65 64 L82 64"
        fill="none" stroke="#dc2626" stroke-width="2.8"
        stroke-linecap="round" stroke-linejoin="round"/>
</svg>
