<?xml version="1.0" encoding="UTF-8" standalone="no"?><!DOCTYPE svg PUBLIC "-//W3C//DTD SVG 1.1//EN" "http://www.w3.org/Graphics/SVG/1.1/DTD/svg11.dtd"><!-- Generated by graphviz version 2.40.1 (20161225.0304)
 --><!-- Title: G Pages: 1 --><svg xmlns="http://www.w3.org/2000/svg" xmlns:xlink="http://www.w3.org/1999/xlink" width="518pt" height="545pt" viewBox="0.00 0.00 518.24 545.20">
<g id="graph0" class="graph" transform="scale(1 1) rotate(0) translate(4 541.2)">
<title>G</title>
<polygon fill="#ffffff" stroke="transparent" points="-4,4 -4,-541.2 514.2415,-541.2 514.2415,4 -4,4"/>
<!-- start -->
<g id="node1" class="node">
<title>start</title>
<polygon fill="none" stroke="#000000" points="457.3038,-537.2 148.2048,-537.2 148.2048,-501.2 457.3038,-501.2 457.3038,-537.2"/>
<text text-anchor="middle" x="302.7543" y="-515" font-family="Times,serif" font-size="14.00" fill="#000000">Adult 18 years or older without known hypertension</text>
</g>
<!-- IncreasedRisk -->
<g id="node2" class="node">
<title>IncreasedRisk</title>
<polygon fill="none" stroke="#0000ff" points="302.7543,-464.2 95.2799,-446.2 302.7543,-428.2 510.2287,-446.2 302.7543,-464.2"/>
<text text-anchor="middle" x="302.7543" y="-442" font-family="Times,serif" font-size="14.00" fill="#0000ff">At increased risk for hypertension?</text>
</g>
<!-- start&#45;&gt;IncreasedRisk -->
<g id="edge1" class="edge">
<title>start-&gt;IncreasedRisk</title>
<path fill="none" stroke="#000000" d="M302.7543,-501.1551C302.7543,-493.0828 302.7543,-483.3764 302.7543,-474.3817"/>
<polygon fill="#000000" stroke="#000000" points="306.2544,-474.2903 302.7543,-464.2904 299.2544,-474.2904 306.2544,-474.2903"/>
</g>
<!-- AgeOver40 -->
<g id="node3" class="node">
<title>AgeOver40</title>
<polygon fill="none" stroke="#0000ff" points="218.7543,-375.4 78.7928,-357.4 218.7543,-339.4 358.7158,-357.4 218.7543,-375.4"/>
<text text-anchor="middle" x="218.7543" y="-353.2" font-family="Times,serif" font-size="14.00" fill="#0000ff">Age 40 years or older?</text>
</g>
<!-- IncreasedRisk&#45;&gt;AgeOver40 -->
<g id="edge3" class="edge">
<title>IncreasedRisk-&gt;AgeOver40</title>
<path fill="none" stroke="#000000" d="M286.9545,-429.4974C274.0849,-415.8924 255.7508,-396.5106 241.3326,-381.2685"/>
<polygon fill="#000000" stroke="#000000" points="243.6141,-378.5872 234.1994,-373.7277 238.5288,-383.3976 243.6141,-378.5872"/>
<text text-anchor="middle" x="277.3076" y="-397.6" font-family="Times,serif" font-size="14.00" fill="#000000">No</text>
</g>
<!-- ScreenYearly -->
<g id="node4" class="node">
<title>ScreenYearly</title>
<polygon fill="none" stroke="#000000" points="469.6577,-109 257.8509,-109 257.8509,-73 469.6577,-73 469.6577,-109"/>
<text text-anchor="middle" x="363.7543" y="-86.8" font-family="Times,serif" font-size="14.00" fill="#000000">Screen for hypertension every year</text>
</g>
<!-- IncreasedRisk&#45;&gt;ScreenYearly -->
<g id="edge2" class="edge">
<title>IncreasedRisk-&gt;ScreenYearly</title>
<path fill="none" stroke="#000000" d="M332.1334,-430.7066C356.3566,-415.5773 386.7543,-390.0809 386.7543,-357.4 386.7543,-357.4 386.7543,-357.4 386.7543,-179.8 386.7543,-158.766 380.6321,-135.7991 374.7049,-118.4926"/>
<polygon fill="#000000" stroke="#000000" points="377.9714,-117.233 371.2854,-109.0143 371.3868,-119.6086 377.9714,-117.233"/>
<text text-anchor="middle" x="397.6372" y="-264.4" font-family="Times,serif" font-size="14.00" fill="#000000">Yes</text>
</g>
<!-- AgeOver40&#45;&gt;ScreenYearly -->
<g id="edge5" class="edge">
<title>AgeOver40-&gt;ScreenYearly</title>
<path fill="none" stroke="#000000" d="M247.4837,-342.9862C268.8803,-330.8014 297.153,-311.3785 313.7543,-286.6 348.6918,-234.4537 359.2167,-159.5469 362.3874,-119.241"/>
<polygon fill="#000000" stroke="#000000" points="365.8923,-119.2882 363.0872,-109.0715 358.9088,-118.8076 365.8923,-119.2882"/>
<text text-anchor="middle" x="356.6372" y="-220" font-family="Times,serif" font-size="14.00" fill="#000000">Yes</text>
</g>
<!-- Age18to39 -->
<g id="node5" class="node">
<title>Age18to39</title>
<polygon fill="none" stroke="#0000ff" points="179.7543,-286.6 55.1029,-268.6 179.7543,-250.6 304.4057,-268.6 179.7543,-286.6"/>
<text text-anchor="middle" x="179.7543" y="-264.4" font-family="Times,serif" font-size="14.00" fill="#0000ff">Age 18 to 39 years?</text>
</g>
<!-- AgeOver40&#45;&gt;Age18to39 -->
<g id="edge4" class="edge">
<title>AgeOver40-&gt;Age18to39</title>
<path fill="none" stroke="#000000" d="M211.2347,-340.2785C205.6236,-327.5023 197.8516,-309.8062 191.4341,-295.194"/>
<polygon fill="#000000" stroke="#000000" points="194.4766,-293.4174 187.2508,-285.669 188.0675,-296.2323 194.4766,-293.4174"/>
<text text-anchor="middle" x="211.3076" y="-308.8" font-family="Times,serif" font-size="14.00" fill="#000000">No</text>
</g>
<!-- ConfirmScreening -->
<g id="node8" class="node">
<title>ConfirmScreening</title>
<polygon fill="none" stroke="#000000" points="436.1649,-36 45.3437,-36 45.3437,0 436.1649,0 436.1649,-36"/>
<text text-anchor="middle" x="240.7543" y="-13.8" font-family="Times,serif" font-size="14.00" fill="#000000">Confirm diagnosis outside clinical setting before starting treatment</text>
</g>
<!-- ScreenYearly&#45;&gt;ConfirmScreening -->
<g id="edge9" class="edge">
<title>ScreenYearly-&gt;ConfirmScreening</title>
<path fill="none" stroke="#000000" d="M333.3498,-72.9551C317.2354,-63.3912 297.2558,-51.5334 279.9851,-41.2833"/>
<polygon fill="#000000" stroke="#000000" points="281.6212,-38.1843 271.2353,-36.0904 278.0485,-44.204 281.6212,-38.1843"/>
</g>
<!-- NormalBPReading -->
<g id="node6" class="node">
<title>NormalBPReading</title>
<polygon fill="none" stroke="#0000ff" points="156.7543,-197.8 1.1385,-179.8 156.7543,-161.8 312.3701,-179.8 156.7543,-197.8"/>
<text text-anchor="middle" x="156.7543" y="-175.6" font-family="Times,serif" font-size="14.00" fill="#0000ff">Prior normal BP reading?</text>
</g>
<!-- Age18to39&#45;&gt;NormalBPReading -->
<g id="edge6" class="edge">
<title>Age18to39-&gt;NormalBPReading</title>
<path fill="none" stroke="#000000" d="M175.2102,-251.056C171.9656,-238.5287 167.5375,-221.4326 163.8321,-207.1264"/>
<polygon fill="#000000" stroke="#000000" points="167.1845,-206.1105 161.2889,-197.3076 160.4081,-207.8657 167.1845,-206.1105"/>
</g>
<!-- NormalBPReading&#45;&gt;ScreenYearly -->
<g id="edge7" class="edge">
<title>NormalBPReading-&gt;ScreenYearly</title>
<path fill="none" stroke="#000000" d="M190.0124,-165.5327C222.9891,-151.3862 273.9786,-129.5125 312.2043,-113.1142"/>
<polygon fill="#000000" stroke="#000000" points="313.8187,-116.2302 321.6289,-109.0712 311.059,-109.7971 313.8187,-116.2302"/>
<text text-anchor="middle" x="288.3076" y="-131.2" font-family="Times,serif" font-size="14.00" fill="#000000">No</text>
</g>
<!-- Screen3to5Years -->
<g id="node7" class="node">
<title>Screen3to5Years</title>
<polygon fill="none" stroke="#000000" points="239.2634,-109 .2452,-109 .2452,-73 239.2634,-73 239.2634,-109"/>
<text text-anchor="middle" x="119.7543" y="-86.8" font-family="Times,serif" font-size="14.00" fill="#000000">Screen for hypertension every 3-5 years</text>
</g>
<!-- NormalBPReading&#45;&gt;Screen3to5Years -->
<g id="edge8" class="edge">
<title>NormalBPReading-&gt;Screen3to5Years</title>
<path fill="none" stroke="#000000" d="M149.4443,-162.256C144.2424,-149.7714 137.1497,-132.749 131.2012,-118.4726"/>
<polygon fill="#000000" stroke="#000000" points="134.3801,-117.0018 127.3031,-109.1172 127.9186,-119.6942 134.3801,-117.0018"/>
<text text-anchor="middle" x="152.6372" y="-131.2" font-family="Times,serif" font-size="14.00" fill="#000000">Yes</text>
</g>
<!-- Screen3to5Years&#45;&gt;ConfirmScreening -->
<g id="edge10" class="edge">
<title>Screen3to5Years-&gt;ConfirmScreening</title>
<path fill="none" stroke="#000000" d="M149.6644,-72.9551C165.5168,-63.3912 185.1715,-51.5334 202.1614,-41.2833"/>
<polygon fill="#000000" stroke="#000000" points="204.0145,-44.253 210.7689,-36.0904 200.3984,-38.2593 204.0145,-44.253"/>
</g>
</g>
</svg>