<?xml version="1.0" encoding="UTF-8" standalone="no"?>
<!DOCTYPE svg PUBLIC "-//W3C//DTD SVG 1.1//EN"
 "http://www.w3.org/Graphics/SVG/1.1/DTD/svg11.dtd">
<!-- Generated by graphviz version 2.43.0 (0)
 -->
<!-- Title: Protocol Pages: 1 -->
<svg width="395pt" height="827pt"
 viewBox="0.00 0.00 395.39 827.00" xmlns="http://www.w3.org/2000/svg" xmlns:xlink="http://www.w3.org/1999/xlink">
<g id="graph0" class="graph" transform="scale(1 1) rotate(0) translate(4 823)">
<title>Protocol</title>
<polygon fill="white" stroke="transparent" points="-4,4 -4,-823 391.39,-823 391.39,4 -4,4"/>
<!-- InitialPop -->
<g id="node1" class="node">
<title>InitialPop</title>
<g id="a_node1"><a xlink:title="All patients currently prescribed GLP&#45;1 receptor agonists, including but not limited to medications such as liraglutide, exenatide, dulaglutide, semaglutide, and albiglutide.">
<path fill="none" stroke="green" d="M210.89,-819C210.89,-819 95.89,-819 95.89,-819 89.89,-819 83.89,-813 83.89,-807 83.89,-807 83.89,-795 83.89,-795 83.89,-789 89.89,-783 95.89,-783 95.89,-783 210.89,-783 210.89,-783 216.89,-783 222.89,-789 222.89,-795 222.89,-795 222.89,-807 222.89,-807 222.89,-813 216.89,-819 210.89,-819"/>
<text text-anchor="middle" x="153.39" y="-797.3" font-family="Times,serif" font-size="14.00" fill="green">Initial Population</text>
</a>
</g>
</g>
<!-- MinDuration -->
<g id="node6" class="node">
<title>MinDuration</title>
<g id="a_node6"><a xlink:title="Patients who have been on GLP&#45;1 medications for a minimum duration of 4 weeks.">
<ellipse fill="none" stroke="blue" cx="153.39" cy="-714" rx="114.28" ry="18"/>
<text text-anchor="middle" x="153.39" y="-710.3" font-family="Times,serif" font-size="14.00" fill="blue">Min Duration 4 Weeks</text>
</a>
</g>
</g>
<!-- InitialPop&#45;&gt;MinDuration -->
<g id="edge1" class="edge">
<title>InitialPop&#45;&gt;MinDuration</title>
<path fill="none" stroke="blue" d="M153.39,-782.8C153.39,-771.16 153.39,-755.55 153.39,-742.24"/>
<polygon fill="blue" stroke="blue" points="156.89,-742.18 153.39,-732.18 149.89,-742.18 156.89,-742.18"/>
<text text-anchor="middle" x="158.39" y="-753.8" font-family="Times,serif" font-size="14.00" fill="blue">if</text>
</g>
<!-- SubsetScreen -->
<g id="node2" class="node">
<title>SubsetScreen</title>
<g id="a_node2"><a xlink:title="Patients from the initial population who have been on GLP&#45;1 medications for a minimum duration of 4 weeks and have not had a documented side effect screening in the past 3 months.">
<path fill="none" stroke="green" d="M267.89,-558C267.89,-558 38.89,-558 38.89,-558 32.89,-558 26.89,-552 26.89,-546 26.89,-546 26.89,-534 26.89,-534 26.89,-528 32.89,-522 38.89,-522 38.89,-522 267.89,-522 267.89,-522 273.89,-522 279.89,-528 279.89,-534 279.89,-534 279.89,-546 279.89,-546 279.89,-552 273.89,-558 267.89,-558"/>
<text text-anchor="middle" x="153.39" y="-536.3" font-family="Times,serif" font-size="14.00" fill="green">Subset Considered for Screening</text>
</a>
</g>
</g>
<!-- NoAllergies -->
<g id="node8" class="node">
<title>NoAllergies</title>
<g id="a_node8"><a xlink:title="Patients without documented allergies or contraindications to GLP&#45;1 medications.">
<ellipse fill="none" stroke="blue" cx="153.39" cy="-453" rx="153.27" ry="18"/>
<text text-anchor="middle" x="153.39" y="-449.3" font-family="Times,serif" font-size="14.00" fill="blue">No Allergies/Contraindications</text>
</a>
</g>
</g>
<!-- SubsetScreen&#45;&gt;NoAllergies -->
<g id="edge4" class="edge">
<title>SubsetScreen&#45;&gt;NoAllergies</title>
<path fill="none" stroke="blue" d="M153.39,-521.8C153.39,-510.16 153.39,-494.55 153.39,-481.24"/>
<polygon fill="blue" stroke="blue" points="156.89,-481.18 153.39,-471.18 149.89,-481.18 156.89,-481.18"/>
<text text-anchor="middle" x="158.39" y="-492.8" font-family="Times,serif" font-size="14.00" fill="blue">if</text>
</g>
<!-- Exclusion -->
<g id="node3" class="node">
<title>Exclusion</title>
<g id="a_node3"><a xlink:title="Patients with documented allergies or contraindications to GLP&#45;1 medications, who have discontinued GLP&#45;1 medications within the last 4 weeks, currently participating in a clinical trial involving GLP&#45;1 medications where side effect monitoring is already being conducted, or with a terminal illness or in palliative care.">
<path fill="none" stroke="green" d="M375.39,-819C375.39,-819 253.39,-819 253.39,-819 247.39,-819 241.39,-813 241.39,-807 241.39,-807 241.39,-795 241.39,-795 241.39,-789 247.39,-783 253.39,-783 253.39,-783 375.39,-783 375.39,-783 381.39,-783 387.39,-789 387.39,-795 387.39,-795 387.39,-807 387.39,-807 387.39,-813 381.39,-819 375.39,-819"/>
<text text-anchor="middle" x="314.39" y="-797.3" font-family="Times,serif" font-size="14.00" fill="green">Exclusion Criteria</text>
</a>
</g>
</g>
<!-- DiagnosticInterventions -->
<g id="node4" class="node">
<title>DiagnosticInterventions</title>
<g id="a_node4"><a xlink:title="Conduct a comprehensive review of the patient&#39;s medical history and current symptoms, administer a standardized questionnaire to assess common side effects, and perform laboratory tests as indicated.">
<path fill="none" stroke="green" d="M237.89,-123C237.89,-123 68.89,-123 68.89,-123 62.89,-123 56.89,-117 56.89,-111 56.89,-111 56.89,-99 56.89,-99 56.89,-93 62.89,-87 68.89,-87 68.89,-87 237.89,-87 237.89,-87 243.89,-87 249.89,-93 249.89,-99 249.89,-99 249.89,-111 249.89,-111 249.89,-117 243.89,-123 237.89,-123"/>
<text text-anchor="middle" x="153.39" y="-101.3" font-family="Times,serif" font-size="14.00" fill="green">Diagnostic Interventions</text>
</a>
</g>
</g>
<!-- SuccessfulScreens -->
<g id="node5" class="node">
<title>SuccessfulScreens</title>
<g id="a_node5"><a xlink:title="Identification and documentation of any new or worsening side effects, clear communication of findings to the patient, recommendation for consultation with a healthcare provider, and follow&#45;up plan established.">
<path fill="none" stroke="green" d="M271.39,-36C271.39,-36 35.39,-36 35.39,-36 29.39,-36 23.39,-30 23.39,-24 23.39,-24 23.39,-12 23.39,-12 23.39,-6 29.39,0 35.39,0 35.39,0 271.39,0 271.39,0 277.39,0 283.39,-6 283.39,-12 283.39,-12 283.39,-24 283.39,-24 283.39,-30 277.39,-36 271.39,-36"/>
<text text-anchor="middle" x="153.39" y="-14.3" font-family="Times,serif" font-size="14.00" fill="green">Conditions for Successful Screens</text>
</a>
</g>
</g>
<!-- DiagnosticInterventions&#45;&gt;SuccessfulScreens -->
<g id="edge9" class="edge">
<title>DiagnosticInterventions&#45;&gt;SuccessfulScreens</title>
<path fill="none" stroke="blue" d="M153.39,-86.8C153.39,-75.16 153.39,-59.55 153.39,-46.24"/>
<polygon fill="blue" stroke="blue" points="156.89,-46.18 153.39,-36.18 149.89,-46.18 156.89,-46.18"/>
<text text-anchor="middle" x="169.89" y="-57.8" font-family="Times,serif" font-size="14.00" fill="blue">then</text>
</g>
<!-- NoRecentScreen -->
<g id="node7" class="node">
<title>NoRecentScreen</title>
<g id="a_node7"><a xlink:title="Patients who have not had a documented side effect screening in the past 3 months.">
<ellipse fill="none" stroke="blue" cx="153.39" cy="-627" rx="108.58" ry="18"/>
<text text-anchor="middle" x="153.39" y="-623.3" font-family="Times,serif" font-size="14.00" fill="blue">No Recent Screening</text>
</a>
</g>
</g>
<!-- MinDuration&#45;&gt;NoRecentScreen -->
<g id="edge2" class="edge">
<title>MinDuration&#45;&gt;NoRecentScreen</title>
<path fill="none" stroke="blue" d="M153.39,-695.8C153.39,-684.16 153.39,-668.55 153.39,-655.24"/>
<polygon fill="blue" stroke="blue" points="156.89,-655.18 153.39,-645.18 149.89,-655.18 156.89,-655.18"/>
<text text-anchor="middle" x="166.89" y="-666.8" font-family="Times,serif" font-size="14.00" fill="blue">and</text>
</g>
<!-- NoRecentScreen&#45;&gt;SubsetScreen -->
<g id="edge3" class="edge">
<title>NoRecentScreen&#45;&gt;SubsetScreen</title>
<path fill="none" stroke="blue" d="M153.39,-608.8C153.39,-597.16 153.39,-581.55 153.39,-568.24"/>
<polygon fill="blue" stroke="blue" points="156.89,-568.18 153.39,-558.18 149.89,-568.18 156.89,-568.18"/>
<text text-anchor="middle" x="169.89" y="-579.8" font-family="Times,serif" font-size="14.00" fill="blue">then</text>
</g>
<!-- NotDiscontinued -->
<g id="node9" class="node">
<title>NotDiscontinued</title>
<g id="a_node9"><a xlink:title="Patients who have not discontinued GLP&#45;1 medications within the last 4 weeks.">
<ellipse fill="none" stroke="blue" cx="153.39" cy="-366" rx="91.78" ry="18"/>
<text text-anchor="middle" x="153.39" y="-362.3" font-family="Times,serif" font-size="14.00" fill="blue">Not Discontinued</text>
</a>
</g>
</g>
<!-- NoAllergies&#45;&gt;NotDiscontinued -->
<g id="edge5" class="edge">
<title>NoAllergies&#45;&gt;NotDiscontinued</title>
<path fill="none" stroke="blue" d="M153.39,-434.8C153.39,-423.16 153.39,-407.55 153.39,-394.24"/>
<polygon fill="blue" stroke="blue" points="156.89,-394.18 153.39,-384.18 149.89,-394.18 156.89,-394.18"/>
<text text-anchor="middle" x="166.89" y="-405.8" font-family="Times,serif" font-size="14.00" fill="blue">and</text>
</g>
<!-- NotInTrial -->
<g id="node10" class="node">
<title>NotInTrial</title>
<g id="a_node10"><a xlink:title="Patients not currently participating in a clinical trial involving GLP&#45;1 medications where side effect monitoring is already being conducted.">
<ellipse fill="none" stroke="blue" cx="153.39" cy="-279" rx="101.28" ry="18"/>
<text text-anchor="middle" x="153.39" y="-275.3" font-family="Times,serif" font-size="14.00" fill="blue">Not in Clinical Trial</text>
</a>
</g>
</g>
<!-- NotDiscontinued&#45;&gt;NotInTrial -->
<g id="edge6" class="edge">
<title>NotDiscontinued&#45;&gt;NotInTrial</title>
<path fill="none" stroke="blue" d="M153.39,-347.8C153.39,-336.16 153.39,-320.55 153.39,-307.24"/>
<polygon fill="blue" stroke="blue" points="156.89,-307.18 153.39,-297.18 149.89,-307.18 156.89,-307.18"/>
<text text-anchor="middle" x="166.89" y="-318.8" font-family="Times,serif" font-size="14.00" fill="blue">and</text>
</g>
<!-- NotTerminal -->
<g id="node11" class="node">
<title>NotTerminal</title>
<g id="a_node11"><a xlink:title="Patients not with a terminal illness or in palliative care.">
<ellipse fill="none" stroke="blue" cx="153.39" cy="-192" rx="117.78" ry="18"/>
<text text-anchor="middle" x="153.39" y="-188.3" font-family="Times,serif" font-size="14.00" fill="blue">Not Terminal/Palliative</text>
</a>
</g>
</g>
<!-- NotInTrial&#45;&gt;NotTerminal -->
<g id="edge7" class="edge">
<title>NotInTrial&#45;&gt;NotTerminal</title>
<path fill="none" stroke="blue" d="M153.39,-260.8C153.39,-249.16 153.39,-233.55 153.39,-220.24"/>
<polygon fill="blue" stroke="blue" points="156.89,-220.18 153.39,-210.18 149.89,-220.18 156.89,-220.18"/>
<text text-anchor="middle" x="166.89" y="-231.8" font-family="Times,serif" font-size="14.00" fill="blue">and</text>
</g>
<!-- NotTerminal&#45;&gt;DiagnosticInterventions -->
<g id="edge8" class="edge">
<title>NotTerminal&#45;&gt;DiagnosticInterventions</title>
<path fill="none" stroke="blue" d="M153.39,-173.8C153.39,-162.16 153.39,-146.55 153.39,-133.24"/>
<polygon fill="blue" stroke="blue" points="156.89,-133.18 153.39,-123.18 149.89,-133.18 156.89,-133.18"/>
<text text-anchor="middle" x="169.89" y="-144.8" font-family="Times,serif" font-size="14.00" fill="blue">then</text>
</g>
</g>
</svg>
