<?xml version="1.0" encoding="UTF-8" standalone="no"?><!DOCTYPE svg PUBLIC "-//W3C//DTD SVG 1.1//EN" "http://www.w3.org/Graphics/SVG/1.1/DTD/svg11.dtd"><!-- Generated by graphviz version 2.40.1 (20161225.0304)
 --><!-- Title: G Pages: 1 --><svg xmlns="http://www.w3.org/2000/svg" xmlns:xlink="http://www.w3.org/1999/xlink" width="783pt" height="222pt" viewBox="0.00 0.00 783.27 221.60">
<g id="graph0" class="graph" transform="scale(1 1) rotate(0) translate(4 217.6)">
<title>G</title>
<polygon fill="#ffffff" stroke="transparent" points="-4,4 -4,-217.6 779.2722,-217.6 779.2722,4 -4,4"/>
<!-- A -->
<g id="node1" class="node">
<title>A</title>
<polygon fill="none" stroke="#0000ff" points="201.8114,-213.6 .1885,-195.6 201.8114,-177.6 403.4343,-195.6 201.8114,-213.6"/>
<text text-anchor="middle" x="201.8114" y="-191.4" font-family="Times,serif" font-size="14.00" fill="#0000ff">Is the patient aged 12 to 18 years?</text>
</g>
<!-- B -->
<g id="node2" class="node">
<title>B</title>
<polygon fill="none" stroke="#0000ff" points="348.4252,-124.8 11.1976,-124.8 11.1976,-88.8 348.4252,-88.8 348.4252,-124.8"/>
<text text-anchor="middle" x="179.8114" y="-102.6" font-family="Times,serif" font-size="14.00" fill="#0000ff">Screen for MDD using appropriate screening instruments</text>
</g>
<!-- A&#45;&gt;B -->
<g id="edge1" class="edge">
<title>A-&gt;B</title>
<path fill="none" stroke="#000000" d="M197.3593,-177.63C194.3378,-165.4338 190.2798,-149.0543 186.8273,-135.1187"/>
<polygon fill="#000000" stroke="#000000" points="190.1344,-133.9129 184.3323,-125.0481 183.3398,-135.5963 190.1344,-133.9129"/>
<text text-anchor="middle" x="203.6943" y="-147" font-family="Times,serif" font-size="14.00" fill="#000000">Yes</text>
</g>
<!-- C -->
<g id="node3" class="node">
<title>C</title>
<polygon fill="none" stroke="#0000ff" points="570.8114,-124.8 366.3897,-106.8 570.8114,-88.8 775.233,-106.8 570.8114,-124.8"/>
<text text-anchor="middle" x="570.8114" y="-102.6" font-family="Times,serif" font-size="14.00" fill="#0000ff">Is the patient 11 years or younger?</text>
</g>
<!-- A&#45;&gt;C -->
<g id="edge2" class="edge">
<title>A-&gt;C</title>
<path fill="none" stroke="#000000" d="M256.656,-182.4016C323.1517,-166.3994 435.0819,-139.4634 505.837,-122.4361"/>
<polygon fill="#000000" stroke="#000000" points="507.0637,-125.7409 515.9672,-119.9983 505.4258,-118.9352 507.0637,-125.7409"/>
<text text-anchor="middle" x="427.3647" y="-147" font-family="Times,serif" font-size="14.00" fill="#000000">No</text>
</g>
<!-- D -->
<g id="node4" class="node">
<title>D</title>
<polygon fill="none" stroke="#0000ff" points="710.1096,-36 431.5131,-36 431.5131,0 710.1096,0 710.1096,-36"/>
<text text-anchor="middle" x="570.8114" y="-13.8" font-family="Times,serif" font-size="14.00" fill="#0000ff">Evidence on screening for MDD is insufficient</text>
</g>
<!-- C&#45;&gt;D -->
<g id="edge3" class="edge">
<title>C-&gt;D</title>
<path fill="none" stroke="#000000" d="M570.8114,-88.4006C570.8114,-76.2949 570.8114,-60.2076 570.8114,-46.4674"/>
<polygon fill="#000000" stroke="#000000" points="574.3115,-46.072 570.8114,-36.072 567.3115,-46.0721 574.3115,-46.072"/>
<text text-anchor="middle" x="581.6943" y="-58.2" font-family="Times,serif" font-size="14.00" fill="#000000">Yes</text>
</g>
</g>
</svg>