<?xml version="1.0" encoding="UTF-8" standalone="no"?>
<!DOCTYPE svg PUBLIC "-//W3C//DTD SVG 1.1//EN"
 "http://www.w3.org/Graphics/SVG/1.1/DTD/svg11.dtd">
<!-- Generated by graphviz version 2.38.0 (20140413.2041)
 -->
<!-- Title: G Pages: 1 -->
<svg width="718pt" height="206pt"
 viewBox="0.00 0.00 717.59 206.00" xmlns="http://www.w3.org/2000/svg" xmlns:xlink="http://www.w3.org/1999/xlink">
<g id="graph0" class="graph" transform="scale(1 1) rotate(0) translate(4 202)">
<title>G</title>
<polygon fill="white" stroke="none" points="-4,4 -4,-202 713.589,-202 713.589,4 -4,4"/>
<!-- Start -->
<g id="node1" class="node"><title>Start</title>
<polygon fill="none" stroke="blue" points="420.295,-198 289.295,-198 289.295,-162 420.295,-162 420.295,-198"/>
<text text-anchor="middle" x="354.795" y="-176.3" font-family="Times,serif" font-size="14.00" fill="blue">All Pregnant Persons</text>
</g>
<!-- KnownHypertensiveDisorders -->
<g id="node2" class="node"><title>KnownHypertensiveDisorders</title>
<polygon fill="none" stroke="blue" points="354.795,-125 0.20518,-107 354.795,-89 709.384,-107 354.795,-125"/>
<text text-anchor="middle" x="354.795" y="-103.3" font-family="Times,serif" font-size="14.00" fill="blue">Known diagnosis of hypertensive disorder or chronic hypertension?</text>
</g>
<!-- Start&#45;&gt;KnownHypertensiveDisorders -->
<g id="edge1" class="edge"><title>Start&#45;&gt;KnownHypertensiveDisorders</title>
<path fill="none" stroke="black" d="M354.795,-161.813C354.795,-153.789 354.795,-144.047 354.795,-135.069"/>
<polygon fill="black" stroke="black" points="358.295,-135.029 354.795,-125.029 351.295,-135.029 358.295,-135.029"/>
</g>
<!-- ScreeningRecommended -->
<g id="node3" class="node"><title>ScreeningRecommended</title>
<polygon fill="none" stroke="blue" points="612.295,-38 97.2947,-38 97.2947,-0 612.295,-0 612.295,-38"/>
<text text-anchor="middle" x="354.795" y="-22.8" font-family="Times,serif" font-size="14.00" fill="blue">Screen for hypertensive disorders with blood pressure measurements throughout pregnancy</text>
<text text-anchor="middle" x="354.795" y="-7.8" font-family="Times,serif" font-size="14.00" fill="blue">(B recommendation)</text>
</g>
<!-- KnownHypertensiveDisorders&#45;&gt;ScreeningRecommended -->
<g id="edge2" class="edge"><title>KnownHypertensiveDisorders&#45;&gt;ScreeningRecommended</title>
<path fill="none" stroke="black" d="M354.795,-88.5966C354.795,-77.0557 354.795,-61.647 354.795,-48.3573"/>
<polygon fill="black" stroke="black" points="358.295,-48.2679 354.795,-38.268 351.295,-48.268 358.295,-48.2679"/>
<text text-anchor="middle" x="363.295" y="-59.8" font-family="Times,serif" font-size="14.00">No</text>
</g>
</g>
</svg>
