<?xml version="1.0" encoding="UTF-8" standalone="no"?>
<!DOCTYPE svg PUBLIC "-//W3C//DTD SVG 1.1//EN"
 "http://www.w3.org/Graphics/SVG/1.1/DTD/svg11.dtd">
<!-- Generated by graphviz version 2.43.0 (0)
 -->
<!-- Title: Protocol Pages: 1 -->
<svg width="694pt" height="653pt"
 viewBox="0.00 0.00 693.83 653.00" xmlns="http://www.w3.org/2000/svg" xmlns:xlink="http://www.w3.org/1999/xlink">
<g id="graph0" class="graph" transform="scale(1 1) rotate(0) translate(4 649)">
<title>Protocol</title>
<polygon fill="white" stroke="transparent" points="-4,4 -4,-649 689.83,-649 689.83,4 -4,4"/>
<!-- InitialPopulation -->
<g id="node1" class="node">
<title>InitialPopulation</title>
<g id="a_node1"><a xlink:title="All patients currently receiving care within the healthcare system.">
<path fill="none" stroke="green" d="M448.79,-645C448.79,-645 333.79,-645 333.79,-645 327.79,-645 321.79,-639 321.79,-633 321.79,-633 321.79,-621 321.79,-621 321.79,-615 327.79,-609 333.79,-609 333.79,-609 448.79,-609 448.79,-609 454.79,-609 460.79,-615 460.79,-621 460.79,-621 460.79,-633 460.79,-633 460.79,-639 454.79,-645 448.79,-645"/>
<text text-anchor="middle" x="391.29" y="-623.3" font-family="Times,serif" font-size="14.00" fill="green">Initial Population</text>
</a>
</g>
</g>
<!-- SubsetConsideration -->
<g id="node2" class="node">
<title>SubsetConsideration</title>
<g id="a_node2"><a xlink:title="Patients within the initial population who have been prescribed GLP&#45;1 receptor agonists.">
<path fill="none" stroke="green" d="M473.29,-558C473.29,-558 309.29,-558 309.29,-558 303.29,-558 297.29,-552 297.29,-546 297.29,-546 297.29,-534 297.29,-534 297.29,-528 303.29,-522 309.29,-522 309.29,-522 473.29,-522 473.29,-522 479.29,-522 485.29,-528 485.29,-534 485.29,-534 485.29,-546 485.29,-546 485.29,-552 479.29,-558 473.29,-558"/>
<text text-anchor="middle" x="391.29" y="-536.3" font-family="Times,serif" font-size="14.00" fill="green">Subset in Consideration</text>
</a>
</g>
</g>
<!-- InitialPopulation&#45;&gt;SubsetConsideration -->
<g id="edge1" class="edge">
<title>InitialPopulation&#45;&gt;SubsetConsideration</title>
<path fill="none" stroke="blue" d="M391.29,-608.8C391.29,-597.16 391.29,-581.55 391.29,-568.24"/>
<polygon fill="blue" stroke="blue" points="394.79,-568.18 391.29,-558.18 387.79,-568.18 394.79,-568.18"/>
<text text-anchor="middle" x="396.29" y="-579.8" font-family="Times,serif" font-size="14.00" fill="blue">if</text>
</g>
<!-- Exclusion1 -->
<g id="node3" class="node">
<title>Exclusion1</title>
<g id="a_node3"><a xlink:title="Patients who have discontinued GLP&#45;1 medications for more than 30 days.">
<ellipse fill="none" stroke="blue" cx="118.29" cy="-453" rx="118.08" ry="18"/>
<text text-anchor="middle" x="118.29" y="-449.3" font-family="Times,serif" font-size="14.00" fill="blue">Discontinued &gt;30 days</text>
</a>
</g>
</g>
<!-- SubsetConsideration&#45;&gt;Exclusion1 -->
<g id="edge2" class="edge">
<title>SubsetConsideration&#45;&gt;Exclusion1</title>
<path fill="none" stroke="blue" d="M336.37,-521.9C290.44,-507.6 225.03,-487.23 177.85,-472.54"/>
<polygon fill="blue" stroke="blue" points="178.66,-469.13 168.07,-469.5 176.57,-475.81 178.66,-469.13"/>
<text text-anchor="middle" x="276.29" y="-492.8" font-family="Times,serif" font-size="14.00" fill="blue">if</text>
</g>
<!-- Exclusion2 -->
<g id="node4" class="node">
<title>Exclusion2</title>
<g id="a_node4"><a xlink:title="Patients with documented allergies or contraindications to GLP&#45;1 medications.">
<ellipse fill="none" stroke="blue" cx="391.29" cy="-453" rx="137.28" ry="18"/>
<text text-anchor="middle" x="391.29" y="-449.3" font-family="Times,serif" font-size="14.00" fill="blue">Allergies/Contraindications</text>
</a>
</g>
</g>
<!-- SubsetConsideration&#45;&gt;Exclusion2 -->
<g id="edge3" class="edge">
<title>SubsetConsideration&#45;&gt;Exclusion2</title>
<path fill="none" stroke="blue" d="M391.29,-521.8C391.29,-510.16 391.29,-494.55 391.29,-481.24"/>
<polygon fill="blue" stroke="blue" points="394.79,-481.18 391.29,-471.18 387.79,-481.18 394.79,-481.18"/>
<text text-anchor="middle" x="396.29" y="-492.8" font-family="Times,serif" font-size="14.00" fill="blue">if</text>
</g>
<!-- Exclusion3 -->
<g id="node5" class="node">
<title>Exclusion3</title>
<g id="a_node5"><a xlink:title="Patients currently enrolled in a clinical trial that includes a protocol for monitoring GLP&#45;1 medication side effects.">
<ellipse fill="none" stroke="blue" cx="616.29" cy="-453" rx="69.59" ry="18"/>
<text text-anchor="middle" x="616.29" y="-449.3" font-family="Times,serif" font-size="14.00" fill="blue">Clinical Trial</text>
</a>
</g>
</g>
<!-- SubsetConsideration&#45;&gt;Exclusion3 -->
<g id="edge4" class="edge">
<title>SubsetConsideration&#45;&gt;Exclusion3</title>
<path fill="none" stroke="blue" d="M436.55,-521.9C475,-507.38 530,-486.6 569.01,-471.86"/>
<polygon fill="blue" stroke="blue" points="570.45,-475.06 578.56,-468.25 567.97,-468.51 570.45,-475.06"/>
<text text-anchor="middle" x="522.29" y="-492.8" font-family="Times,serif" font-size="14.00" fill="blue">if</text>
</g>
<!-- Diagnostic -->
<g id="node6" class="node">
<title>Diagnostic</title>
<g id="a_node6"><a xlink:title="Conduct a systematic screening for side effects associated with GLP&#45;1 medications at each patient visit.">
<ellipse fill="none" stroke="blue" cx="391.29" cy="-366" rx="59.59" ry="18"/>
<text text-anchor="middle" x="391.29" y="-362.3" font-family="Times,serif" font-size="14.00" fill="blue">Diagnostic</text>
</a>
</g>
</g>
<!-- Exclusion1&#45;&gt;Diagnostic -->
<g id="edge5" class="edge">
<title>Exclusion1&#45;&gt;Diagnostic</title>
<path fill="none" stroke="blue" d="M167.73,-436.61C216.89,-421.3 291.91,-397.94 341.28,-382.57"/>
<polygon fill="blue" stroke="blue" points="342.59,-385.83 351.1,-379.51 340.51,-379.15 342.59,-385.83"/>
<text text-anchor="middle" x="287.79" y="-405.8" font-family="Times,serif" font-size="14.00" fill="blue">then</text>
</g>
<!-- Exclusion2&#45;&gt;Diagnostic -->
<g id="edge6" class="edge">
<title>Exclusion2&#45;&gt;Diagnostic</title>
<path fill="none" stroke="blue" d="M391.29,-434.8C391.29,-423.16 391.29,-407.55 391.29,-394.24"/>
<polygon fill="blue" stroke="blue" points="394.79,-394.18 391.29,-384.18 387.79,-394.18 394.79,-394.18"/>
<text text-anchor="middle" x="407.79" y="-405.8" font-family="Times,serif" font-size="14.00" fill="blue">then</text>
</g>
<!-- Exclusion3&#45;&gt;Diagnostic -->
<g id="edge7" class="edge">
<title>Exclusion3&#45;&gt;Diagnostic</title>
<path fill="none" stroke="blue" d="M578.63,-437.77C539.52,-423 478.32,-399.88 436.59,-384.11"/>
<polygon fill="blue" stroke="blue" points="437.8,-380.83 427.21,-380.57 435.33,-387.38 437.8,-380.83"/>
<text text-anchor="middle" x="533.79" y="-405.8" font-family="Times,serif" font-size="14.00" fill="blue">then</text>
</g>
<!-- Therapeutic -->
<g id="node7" class="node">
<title>Therapeutic</title>
<g id="a_node7"><a xlink:title="Evaluate severity of side effects and adjust medication if necessary.">
<ellipse fill="none" stroke="blue" cx="391.29" cy="-279" rx="66.09" ry="18"/>
<text text-anchor="middle" x="391.29" y="-275.3" font-family="Times,serif" font-size="14.00" fill="blue">Therapeutic</text>
</a>
</g>
</g>
<!-- Diagnostic&#45;&gt;Therapeutic -->
<g id="edge8" class="edge">
<title>Diagnostic&#45;&gt;Therapeutic</title>
<path fill="none" stroke="blue" d="M391.29,-347.8C391.29,-336.16 391.29,-320.55 391.29,-307.24"/>
<polygon fill="blue" stroke="blue" points="394.79,-307.18 391.29,-297.18 387.79,-307.18 394.79,-307.18"/>
<text text-anchor="middle" x="404.79" y="-318.8" font-family="Times,serif" font-size="14.00" fill="blue">and</text>
</g>
<!-- Administrative -->
<g id="node8" class="node">
<title>Administrative</title>
<g id="a_node8"><a xlink:title="Document findings in EHR and schedule follow&#45;ups.">
<ellipse fill="none" stroke="blue" cx="391.29" cy="-192" rx="79.09" ry="18"/>
<text text-anchor="middle" x="391.29" y="-188.3" font-family="Times,serif" font-size="14.00" fill="blue">Administrative</text>
</a>
</g>
</g>
<!-- Therapeutic&#45;&gt;Administrative -->
<g id="edge9" class="edge">
<title>Therapeutic&#45;&gt;Administrative</title>
<path fill="none" stroke="blue" d="M391.29,-260.8C391.29,-249.16 391.29,-233.55 391.29,-220.24"/>
<polygon fill="blue" stroke="blue" points="394.79,-220.18 391.29,-210.18 387.79,-220.18 394.79,-220.18"/>
<text text-anchor="middle" x="404.79" y="-231.8" font-family="Times,serif" font-size="14.00" fill="blue">and</text>
</g>
<!-- Consultation -->
<g id="node9" class="node">
<title>Consultation</title>
<g id="a_node9"><a xlink:title="Recommend specialist consultation if severe side effects are identified.">
<ellipse fill="none" stroke="blue" cx="391.29" cy="-105" rx="69.59" ry="18"/>
<text text-anchor="middle" x="391.29" y="-101.3" font-family="Times,serif" font-size="14.00" fill="blue">Consultation</text>
</a>
</g>
</g>
<!-- Administrative&#45;&gt;Consultation -->
<g id="edge10" class="edge">
<title>Administrative&#45;&gt;Consultation</title>
<path fill="none" stroke="blue" d="M391.29,-173.8C391.29,-162.16 391.29,-146.55 391.29,-133.24"/>
<polygon fill="blue" stroke="blue" points="394.79,-133.18 391.29,-123.18 387.79,-133.18 394.79,-133.18"/>
<text text-anchor="middle" x="404.79" y="-144.8" font-family="Times,serif" font-size="14.00" fill="blue">and</text>
</g>
<!-- ReviewUpdate -->
<g id="node10" class="node">
<title>ReviewUpdate</title>
<g id="a_node10"><a xlink:title="Review the protocol annually to incorporate new evidence or changes in clinical guidelines.">
<ellipse fill="none" stroke="blue" cx="391.29" cy="-18" rx="101.28" ry="18"/>
<text text-anchor="middle" x="391.29" y="-14.3" font-family="Times,serif" font-size="14.00" fill="blue">Review and Update</text>
</a>
</g>
</g>
<!-- Consultation&#45;&gt;ReviewUpdate -->
<g id="edge11" class="edge">
<title>Consultation&#45;&gt;ReviewUpdate</title>
<path fill="none" stroke="blue" d="M391.29,-86.8C391.29,-75.16 391.29,-59.55 391.29,-46.24"/>
<polygon fill="blue" stroke="blue" points="394.79,-46.18 391.29,-36.18 387.79,-46.18 394.79,-46.18"/>
<text text-anchor="middle" x="404.79" y="-57.8" font-family="Times,serif" font-size="14.00" fill="blue">and</text>
</g>
</g>
</svg>
