<?xml version="1.0" encoding="UTF-8" standalone="no"?>
<!DOCTYPE svg PUBLIC "-//W3C//DTD SVG 1.1//EN"
 "http://www.w3.org/Graphics/SVG/1.1/DTD/svg11.dtd">
<!-- Generated by graphviz version 2.43.0 (0)
 -->
<!-- Title: Protocol Pages: 1 -->
<svg width="372pt" height="740pt"
 viewBox="0.00 0.00 372.00 740.00" xmlns="http://www.w3.org/2000/svg" xmlns:xlink="http://www.w3.org/1999/xlink">
<g id="graph0" class="graph" transform="scale(1 1) rotate(0) translate(4 736)">
<title>Protocol</title>
<polygon fill="white" stroke="transparent" points="-4,4 -4,-736 368,-736 368,4 -4,4"/>
<!-- InitialPopulation -->
<g id="node1" class="node">
<title>InitialPopulation</title>
<g id="a_node1"><a xlink:title="All patients currently prescribed GLP&#45;1 receptor agonists, including but not limited to medications such as liraglutide, exenatide, dulaglutide, semaglutide, and albiglutide.">
<path fill="none" stroke="green" d="M187.5,-732C187.5,-732 72.5,-732 72.5,-732 66.5,-732 60.5,-726 60.5,-720 60.5,-720 60.5,-708 60.5,-708 60.5,-702 66.5,-696 72.5,-696 72.5,-696 187.5,-696 187.5,-696 193.5,-696 199.5,-702 199.5,-708 199.5,-708 199.5,-720 199.5,-720 199.5,-726 193.5,-732 187.5,-732"/>
<text text-anchor="middle" x="130" y="-710.3" font-family="Times,serif" font-size="14.00" fill="green">Initial Population</text>
</a>
</g>
</g>
<!-- MinDuration -->
<g id="node6" class="node">
<title>MinDuration</title>
<g id="a_node6"><a xlink:title="Patients who have been on GLP&#45;1 medications for a minimum duration of 4 weeks.">
<ellipse fill="none" stroke="blue" cx="130" cy="-627" rx="72.59" ry="18"/>
<text text-anchor="middle" x="130" y="-623.3" font-family="Times,serif" font-size="14.00" fill="blue">Min Duration</text>
</a>
</g>
</g>
<!-- InitialPopulation&#45;&gt;MinDuration -->
<g id="edge1" class="edge">
<title>InitialPopulation&#45;&gt;MinDuration</title>
<path fill="none" stroke="blue" d="M130,-695.8C130,-684.16 130,-668.55 130,-655.24"/>
<polygon fill="blue" stroke="blue" points="133.5,-655.18 130,-645.18 126.5,-655.18 133.5,-655.18"/>
<text text-anchor="middle" x="135" y="-666.8" font-family="Times,serif" font-size="14.00" fill="blue">if</text>
</g>
<!-- SubsetForScreening -->
<g id="node2" class="node">
<title>SubsetForScreening</title>
<g id="a_node2"><a xlink:title="Patients who have been on GLP&#45;1 medications for a minimum duration of 4 weeks, as side effects may not be immediately apparent. Patients who have not had a documented side effect screening in the past 3 months.">
<path fill="none" stroke="green" d="M244.5,-471C244.5,-471 15.5,-471 15.5,-471 9.5,-471 3.5,-465 3.5,-459 3.5,-459 3.5,-447 3.5,-447 3.5,-441 9.5,-435 15.5,-435 15.5,-435 244.5,-435 244.5,-435 250.5,-435 256.5,-441 256.5,-447 256.5,-447 256.5,-459 256.5,-459 256.5,-465 250.5,-471 244.5,-471"/>
<text text-anchor="middle" x="130" y="-449.3" font-family="Times,serif" font-size="14.00" fill="green">Subset Considered for Screening</text>
</a>
</g>
</g>
<!-- NoAllergies -->
<g id="node8" class="node">
<title>NoAllergies</title>
<g id="a_node8"><a xlink:title="Patients with no documented allergies or contraindications to GLP&#45;1 medications.">
<ellipse fill="none" stroke="blue" cx="130" cy="-366" rx="67.69" ry="18"/>
<text text-anchor="middle" x="130" y="-362.3" font-family="Times,serif" font-size="14.00" fill="blue">No Allergies</text>
</a>
</g>
</g>
<!-- SubsetForScreening&#45;&gt;NoAllergies -->
<g id="edge4" class="edge">
<title>SubsetForScreening&#45;&gt;NoAllergies</title>
<path fill="none" stroke="blue" d="M130,-434.8C130,-423.16 130,-407.55 130,-394.24"/>
<polygon fill="blue" stroke="blue" points="133.5,-394.18 130,-384.18 126.5,-394.18 133.5,-394.18"/>
<text text-anchor="middle" x="135" y="-405.8" font-family="Times,serif" font-size="14.00" fill="blue">if</text>
</g>
<!-- ExclusionCriteria -->
<g id="node3" class="node">
<title>ExclusionCriteria</title>
<g id="a_node3"><a xlink:title="Patients with documented allergies or contraindications to GLP&#45;1 medications. Patients who are currently hospitalized or in acute care settings, where side effect management is part of the inpatient care protocol. Patients who have discontinued GLP&#45;1 medications for more than 4 weeks prior to the screening date.">
<path fill="none" stroke="green" d="M352,-732C352,-732 230,-732 230,-732 224,-732 218,-726 218,-720 218,-720 218,-708 218,-708 218,-702 224,-696 230,-696 230,-696 352,-696 352,-696 358,-696 364,-702 364,-708 364,-708 364,-720 364,-720 364,-726 358,-732 352,-732"/>
<text text-anchor="middle" x="291" y="-710.3" font-family="Times,serif" font-size="14.00" fill="green">Exclusion Criteria</text>
</a>
</g>
</g>
<!-- DiagnosticInterventions -->
<g id="node4" class="node">
<title>DiagnosticInterventions</title>
<g id="a_node4"><a xlink:title="Conduct a comprehensive review of the patient&#39;s medical history and current symptoms. Administer a standardized questionnaire to assess common side effects associated with GLP&#45;1 medications, including gastrointestinal symptoms (nausea, vomiting, diarrhea), injection site reactions, and any signs of pancreatitis or thyroid tumors. Perform necessary laboratory tests if indicated by the questionnaire responses, such as serum amylase and lipase levels for suspected pancreatitis.">
<path fill="none" stroke="green" d="M214.5,-123C214.5,-123 45.5,-123 45.5,-123 39.5,-123 33.5,-117 33.5,-111 33.5,-111 33.5,-99 33.5,-99 33.5,-93 39.5,-87 45.5,-87 45.5,-87 214.5,-87 214.5,-87 220.5,-87 226.5,-93 226.5,-99 226.5,-99 226.5,-111 226.5,-111 226.5,-117 220.5,-123 214.5,-123"/>
<text text-anchor="middle" x="130" y="-101.3" font-family="Times,serif" font-size="14.00" fill="green">Diagnostic Interventions</text>
</a>
</g>
</g>
<!-- SuccessfulScreens -->
<g id="node5" class="node">
<title>SuccessfulScreens</title>
<g id="a_node5"><a xlink:title="Identification and documentation of any side effects experienced by the patient. Clear communication of findings to the patient, including education on potential side effects and their management. Recommendation for consultation with a healthcare provider if significant side effects are identified, or if the patient expresses concern about their medication. Follow&#45;up plan established for patients with identified side effects, including potential medication adjustment or discontinuation if necessary.">
<path fill="none" stroke="green" d="M248,-36C248,-36 12,-36 12,-36 6,-36 0,-30 0,-24 0,-24 0,-12 0,-12 0,-6 6,0 12,0 12,0 248,0 248,0 254,0 260,-6 260,-12 260,-12 260,-24 260,-24 260,-30 254,-36 248,-36"/>
<text text-anchor="middle" x="130" y="-14.3" font-family="Times,serif" font-size="14.00" fill="green">Conditions for Successful Screens</text>
</a>
</g>
</g>
<!-- DiagnosticInterventions&#45;&gt;SuccessfulScreens -->
<g id="edge8" class="edge">
<title>DiagnosticInterventions&#45;&gt;SuccessfulScreens</title>
<path fill="none" stroke="blue" d="M130,-86.8C130,-75.16 130,-59.55 130,-46.24"/>
<polygon fill="blue" stroke="blue" points="133.5,-46.18 130,-36.18 126.5,-46.18 133.5,-46.18"/>
<text text-anchor="middle" x="146.5" y="-57.8" font-family="Times,serif" font-size="14.00" fill="blue">then</text>
</g>
<!-- NoRecentScreening -->
<g id="node7" class="node">
<title>NoRecentScreening</title>
<g id="a_node7"><a xlink:title="Patients who have not had a documented side effect screening in the past 3 months.">
<ellipse fill="none" stroke="blue" cx="130" cy="-540" rx="108.58" ry="18"/>
<text text-anchor="middle" x="130" y="-536.3" font-family="Times,serif" font-size="14.00" fill="blue">No Recent Screening</text>
</a>
</g>
</g>
<!-- MinDuration&#45;&gt;NoRecentScreening -->
<g id="edge2" class="edge">
<title>MinDuration&#45;&gt;NoRecentScreening</title>
<path fill="none" stroke="blue" d="M130,-608.8C130,-597.16 130,-581.55 130,-568.24"/>
<polygon fill="blue" stroke="blue" points="133.5,-568.18 130,-558.18 126.5,-568.18 133.5,-568.18"/>
<text text-anchor="middle" x="143.5" y="-579.8" font-family="Times,serif" font-size="14.00" fill="blue">and</text>
</g>
<!-- NoRecentScreening&#45;&gt;SubsetForScreening -->
<g id="edge3" class="edge">
<title>NoRecentScreening&#45;&gt;SubsetForScreening</title>
<path fill="none" stroke="blue" d="M130,-521.8C130,-510.16 130,-494.55 130,-481.24"/>
<polygon fill="blue" stroke="blue" points="133.5,-481.18 130,-471.18 126.5,-481.18 133.5,-481.18"/>
<text text-anchor="middle" x="146.5" y="-492.8" font-family="Times,serif" font-size="14.00" fill="blue">then</text>
</g>
<!-- NotHospitalized -->
<g id="node9" class="node">
<title>NotHospitalized</title>
<g id="a_node9"><a xlink:title="Patients who are not currently hospitalized or in acute care settings.">
<ellipse fill="none" stroke="blue" cx="130" cy="-279" rx="89.08" ry="18"/>
<text text-anchor="middle" x="130" y="-275.3" font-family="Times,serif" font-size="14.00" fill="blue">Not Hospitalized</text>
</a>
</g>
</g>
<!-- NoAllergies&#45;&gt;NotHospitalized -->
<g id="edge5" class="edge">
<title>NoAllergies&#45;&gt;NotHospitalized</title>
<path fill="none" stroke="blue" d="M130,-347.8C130,-336.16 130,-320.55 130,-307.24"/>
<polygon fill="blue" stroke="blue" points="133.5,-307.18 130,-297.18 126.5,-307.18 133.5,-307.18"/>
<text text-anchor="middle" x="143.5" y="-318.8" font-family="Times,serif" font-size="14.00" fill="blue">and</text>
</g>
<!-- NotDiscontinued -->
<g id="node10" class="node">
<title>NotDiscontinued</title>
<g id="a_node10"><a xlink:title="Patients who have not discontinued GLP&#45;1 medications for more than 4 weeks prior to the screening date.">
<ellipse fill="none" stroke="blue" cx="130" cy="-192" rx="91.78" ry="18"/>
<text text-anchor="middle" x="130" y="-188.3" font-family="Times,serif" font-size="14.00" fill="blue">Not Discontinued</text>
</a>
</g>
</g>
<!-- NotHospitalized&#45;&gt;NotDiscontinued -->
<g id="edge6" class="edge">
<title>NotHospitalized&#45;&gt;NotDiscontinued</title>
<path fill="none" stroke="blue" d="M130,-260.8C130,-249.16 130,-233.55 130,-220.24"/>
<polygon fill="blue" stroke="blue" points="133.5,-220.18 130,-210.18 126.5,-220.18 133.5,-220.18"/>
<text text-anchor="middle" x="143.5" y="-231.8" font-family="Times,serif" font-size="14.00" fill="blue">and</text>
</g>
<!-- NotDiscontinued&#45;&gt;DiagnosticInterventions -->
<g id="edge7" class="edge">
<title>NotDiscontinued&#45;&gt;DiagnosticInterventions</title>
<path fill="none" stroke="blue" d="M130,-173.8C130,-162.16 130,-146.55 130,-133.24"/>
<polygon fill="blue" stroke="blue" points="133.5,-133.18 130,-123.18 126.5,-133.18 133.5,-133.18"/>
<text text-anchor="middle" x="146.5" y="-144.8" font-family="Times,serif" font-size="14.00" fill="blue">then</text>
</g>
</g>
</svg>
