<?xml version="1.0" encoding="UTF-8" standalone="no"?><!DOCTYPE svg PUBLIC "-//W3C//DTD SVG 1.1//EN" "http://www.w3.org/Graphics/SVG/1.1/DTD/svg11.dtd"><!-- Generated by graphviz version 2.40.1 (20161225.0304)
 --><!-- Title: G Pages: 1 --><svg xmlns="http://www.w3.org/2000/svg" xmlns:xlink="http://www.w3.org/1999/xlink" width="342pt" height="211pt" viewBox="0.00 0.00 341.89 211.40">
<g id="graph0" class="graph" transform="scale(1 1) rotate(0) translate(4 207.4)">
<title>G</title>
<polygon fill="#ffffff" stroke="transparent" points="-4,4 -4,-207.4 337.8893,-207.4 337.8893,4 -4,4"/>
<!-- start -->
<g id="node1" class="node">
<title>start</title>
<polygon fill="none" stroke="#0000ff" points="212.0737,-203.4 147.0877,-203.4 147.0877,-167.4 212.0737,-167.4 212.0737,-203.4"/>
<text text-anchor="middle" x="179.5807" y="-181.2" font-family="Times,serif" font-size="14.00" fill="#0000ff">Children</text>
</g>
<!-- screeningAge -->
<g id="node2" class="node">
<title>screeningAge</title>
<polygon fill="none" stroke="#0000ff" points="179.5807,-130.4 68.2432,-112.4 179.5807,-94.4 290.9182,-112.4 179.5807,-130.4"/>
<text text-anchor="middle" x="179.5807" y="-108.2" font-family="Times,serif" font-size="14.00" fill="#0000ff">Age 3 to 5 years?</text>
</g>
<!-- start&#45;&gt;screeningAge -->
<g id="edge1" class="edge">
<title>start-&gt;screeningAge</title>
<path fill="none" stroke="#000000" d="M179.5807,-167.3551C179.5807,-159.2828 179.5807,-149.5764 179.5807,-140.5817"/>
<polygon fill="#000000" stroke="#000000" points="183.0808,-140.4903 179.5807,-130.4904 176.0808,-140.4904 183.0808,-140.4903"/>
</g>
<!-- screenRecommendation -->
<g id="node3" class="node">
<title>screenRecommendation</title>
<polygon fill="none" stroke="#0000ff" points="183.2422,-38.8 -.0808,-38.8 -.0808,-2.8 183.2422,-2.8 183.2422,-38.8"/>
<text text-anchor="middle" x="91.5807" y="-16.6" font-family="Times,serif" font-size="14.00" fill="#0000ff">Vision screening at least once</text>
</g>
<!-- screeningAge&#45;&gt;screenRecommendation -->
<g id="edge2" class="edge">
<title>screeningAge-&gt;screenRecommendation</title>
<path fill="none" stroke="#000000" d="M164.2523,-96.4445C151.0489,-82.701 131.7446,-62.607 116.3502,-46.5828"/>
<polygon fill="#000000" stroke="#000000" points="118.6029,-43.8756 109.1509,-39.089 113.5549,-48.7252 118.6029,-43.8756"/>
<text text-anchor="middle" x="154.4636" y="-63.8" font-family="Times,serif" font-size="14.00" fill="#000000">Yes</text>
</g>
<!-- noScreening -->
<g id="node4" class="node">
<title>noScreening</title>
<polygon fill="none" stroke="#0000ff" points="333.6985,-41.4019 201.4629,-41.4019 201.4629,-.1981 333.6985,-.1981 333.6985,-41.4019"/>
<text text-anchor="middle" x="267.5807" y="-25" font-family="Times,serif" font-size="14.00" fill="#0000ff">Not recommended</text>
<text text-anchor="middle" x="267.5807" y="-8.2" font-family="Times,serif" font-size="14.00" fill="#0000ff">for routine screening</text>
</g>
<!-- screeningAge&#45;&gt;noScreening -->
<g id="edge3" class="edge">
<title>screeningAge-&gt;noScreening</title>
<path fill="none" stroke="#000000" d="M194.9091,-96.4445C207.4354,-83.4058 225.4529,-64.6512 240.4133,-49.0788"/>
<polygon fill="#000000" stroke="#000000" points="243.0705,-51.3649 247.4745,-41.7288 238.0225,-46.5154 243.0705,-51.3649"/>
<text text-anchor="middle" x="237.134" y="-63.8" font-family="Times,serif" font-size="14.00" fill="#000000">No</text>
</g>
</g>
</svg>