<?xml version="1.0" encoding="UTF-8" standalone="no"?>
<!DOCTYPE svg PUBLIC "-//W3C//DTD SVG 1.1//EN"
 "http://www.w3.org/Graphics/SVG/1.1/DTD/svg11.dtd">
<!-- Generated by graphviz version 2.38.0 (20140413.2041)
 -->
<!-- Title: G Pages: 1 -->
<svg width="513pt" height="204pt"
 viewBox="0.00 0.00 513.00 204.00" xmlns="http://www.w3.org/2000/svg" xmlns:xlink="http://www.w3.org/1999/xlink">
<g id="graph0" class="graph" transform="scale(1 1) rotate(0) translate(4 200)">
<title>G</title>
<polygon fill="white" stroke="none" points="-4,4 -4,-200 509,-200 509,4 -4,4"/>
<!-- start -->
<g id="node1" class="node"><title>start</title>
<ellipse fill="gray" stroke="gray" cx="252.5" cy="-178" rx="111.28" ry="18"/>
<text text-anchor="middle" x="252.5" y="-174.3" font-family="Times,serif" font-size="14.00" fill="white">All children and adolescents</text>
</g>
<!-- ageCheck -->
<g id="node2" class="node"><title>ageCheck</title>
<polygon fill="blue" stroke="blue" points="252.5,-123 121.121,-105 252.5,-87 383.879,-105 252.5,-123"/>
<text text-anchor="middle" x="252.5" y="-101.3" font-family="Times,serif" font-size="14.00" fill="white">Age 6 years and older?</text>
</g>
<!-- start&#45;&gt;ageCheck -->
<g id="edge1" class="edge"><title>start&#45;&gt;ageCheck</title>
<path fill="none" stroke="black" d="M252.5,-159.813C252.5,-151.789 252.5,-142.047 252.5,-133.069"/>
<polygon fill="black" stroke="black" points="256,-133.029 252.5,-123.029 249,-133.029 256,-133.029"/>
</g>
<!-- ageCheck&#45;&gt;ageCheck -->
<g id="edge3" class="edge"><title>ageCheck&#45;&gt;ageCheck</title>
<path fill="none" stroke="black" d="M345.803,-111.75C376.981,-111.755 401.939,-109.505 401.939,-105 401.939,-100.008 371.287,-97.7847 335.485,-98.3307"/>
<polygon fill="black" stroke="black" points="345.512,-108.248 335.485,-111.669 345.457,-115.247 345.512,-108.248"/>
<text text-anchor="middle" x="410.439" y="-101.3" font-family="Times,serif" font-size="14.00">No</text>
</g>
<!-- screenIntervene -->
<g id="node3" class="node"><title>screenIntervene</title>
<polygon fill="green" stroke="green" points="505,-36 0,-36 0,-0 505,-0 505,-36"/>
<text text-anchor="middle" x="252.5" y="-14.3" font-family="Times,serif" font-size="14.00" fill="white">Screen for obesity and offer or refer to comprehensive, intensive behavioral interventions</text>
</g>
<!-- ageCheck&#45;&gt;screenIntervene -->
<g id="edge2" class="edge"><title>ageCheck&#45;&gt;screenIntervene</title>
<path fill="none" stroke="black" d="M252.5,-86.799C252.5,-75.1626 252.5,-59.5479 252.5,-46.2368"/>
<polygon fill="black" stroke="black" points="256,-46.1754 252.5,-36.1754 249,-46.1755 256,-46.1754"/>
<text text-anchor="middle" x="263.5" y="-57.8" font-family="Times,serif" font-size="14.00">Yes</text>
</g>
</g>
</svg>
