<?xml version="1.0" encoding="UTF-8" standalone="no"?>
<!DOCTYPE svg PUBLIC "-//W3C//DTD SVG 1.1//EN"
 "http://www.w3.org/Graphics/SVG/1.1/DTD/svg11.dtd">
<!-- Generated by graphviz version 2.38.0 (20140413.2041)
 -->
<!-- Title: G Pages: 1 -->
<svg width="566pt" height="408pt"
 viewBox="0.00 0.00 565.60 408.00" xmlns="http://www.w3.org/2000/svg" xmlns:xlink="http://www.w3.org/1999/xlink">
<g id="graph0" class="graph" transform="scale(1 1) rotate(0) translate(4 404)">
<title>G</title>
<polygon fill="white" stroke="none" points="-4,4 -4,-404 561.601,-404 561.601,4 -4,4"/>
<!-- start -->
<g id="node1" class="node"><title>start</title>
<polygon fill="none" stroke="blue" points="285,-400 146.414,-382 285,-364 423.586,-382 285,-400"/>
<text text-anchor="middle" x="285" y="-378.3" font-family="Times,serif" font-size="14.00" fill="blue">Postmenopausal Persons</text>
</g>
<!-- intact_uterus -->
<g id="node2" class="node"><title>intact_uterus</title>
<polygon fill="none" stroke="blue" points="285,-327 199.537,-309 285,-291 370.463,-309 285,-327"/>
<text text-anchor="middle" x="285" y="-305.3" font-family="Times,serif" font-size="14.00" fill="blue">Intact Uterus?</text>
</g>
<!-- start&#45;&gt;intact_uterus -->
<g id="edge1" class="edge"><title>start&#45;&gt;intact_uterus</title>
<path fill="none" stroke="black" d="M285,-363.813C285,-355.789 285,-346.047 285,-337.069"/>
<polygon fill="black" stroke="black" points="288.5,-337.029 285,-327.029 281.5,-337.029 288.5,-337.029"/>
</g>
<!-- use_combined_therapy -->
<g id="node3" class="node"><title>use_combined_therapy</title>
<polygon fill="none" stroke="blue" points="143,-240 2.84217e-14,-202 143,-164 286,-202 143,-240"/>
<text text-anchor="middle" x="143" y="-205.8" font-family="Times,serif" font-size="14.00" fill="blue">Use of Combined</text>
<text text-anchor="middle" x="143" y="-190.8" font-family="Times,serif" font-size="14.00" fill="blue">Estrogen and Progestin</text>
</g>
<!-- intact_uterus&#45;&gt;use_combined_therapy -->
<g id="edge2" class="edge"><title>intact_uterus&#45;&gt;use_combined_therapy</title>
<path fill="none" stroke="black" d="M267.016,-294.702C247.267,-280.099 214.804,-256.094 188.045,-236.308"/>
<polygon fill="black" stroke="black" points="190.065,-233.449 179.944,-230.318 185.904,-239.077 190.065,-233.449"/>
<text text-anchor="middle" x="247" y="-261.8" font-family="Times,serif" font-size="14.00">Yes</text>
</g>
<!-- had_hysterectomy -->
<g id="node4" class="node"><title>had_hysterectomy</title>
<polygon fill="none" stroke="blue" points="428,-220 303.827,-202 428,-184 552.173,-202 428,-220"/>
<text text-anchor="middle" x="428" y="-198.3" font-family="Times,serif" font-size="14.00" fill="blue">Had a Hysterectomy?</text>
</g>
<!-- intact_uterus&#45;&gt;had_hysterectomy -->
<g id="edge3" class="edge"><title>intact_uterus&#45;&gt;had_hysterectomy</title>
<path fill="none" stroke="black" d="M303.111,-294.702C327.494,-276.798 371.123,-244.763 399.816,-223.695"/>
<polygon fill="black" stroke="black" points="402.214,-226.276 408.203,-217.536 398.071,-220.633 402.214,-226.276"/>
<text text-anchor="middle" x="361.5" y="-261.8" font-family="Times,serif" font-size="14.00">No</text>
</g>
<!-- no_intervention -->
<g id="node6" class="node"><title>no_intervention</title>
<polygon fill="none" stroke="black" points="271.5,-113 68.5,-113 68.5,-75 271.5,-75 271.5,-113"/>
<text text-anchor="middle" x="170" y="-97.8" font-family="Times,serif" font-size="14.00">Recommend Against</text>
<text text-anchor="middle" x="170" y="-82.8" font-family="Times,serif" font-size="14.00">Combined Estrogen and Progestin</text>
</g>
<!-- use_combined_therapy&#45;&gt;no_intervention -->
<g id="edge4" class="edge"><title>use_combined_therapy&#45;&gt;no_intervention</title>
<path fill="none" stroke="black" d="M151.841,-166.292C155.409,-152.285 159.471,-136.335 162.848,-123.078"/>
<polygon fill="black" stroke="black" points="166.31,-123.667 165.386,-113.113 159.526,-121.94 166.31,-123.667"/>
</g>
<!-- use_estrogen_only -->
<g id="node5" class="node"><title>use_estrogen_only</title>
<polygon fill="none" stroke="blue" points="428,-112 298.298,-94 428,-76 557.702,-94 428,-112"/>
<text text-anchor="middle" x="428" y="-90.3" font-family="Times,serif" font-size="14.00" fill="blue">Use of Estrogen Alone</text>
</g>
<!-- had_hysterectomy&#45;&gt;use_estrogen_only -->
<g id="edge5" class="edge"><title>had_hysterectomy&#45;&gt;use_estrogen_only</title>
<path fill="none" stroke="black" d="M428,-183.969C428,-167.378 428,-141.883 428,-122.431"/>
<polygon fill="black" stroke="black" points="431.5,-122.341 428,-112.341 424.5,-122.341 431.5,-122.341"/>
<text text-anchor="middle" x="439" y="-134.8" font-family="Times,serif" font-size="14.00">Yes</text>
</g>
<!-- had_hysterectomy&#45;&gt;no_intervention -->
<g id="edge6" class="edge"><title>had_hysterectomy&#45;&gt;no_intervention</title>
<path fill="none" stroke="black" d="M397.391,-188.424C354.541,-170.819 276.033,-138.564 223.426,-116.95"/>
<polygon fill="black" stroke="black" points="224.499,-113.607 213.919,-113.044 221.839,-120.082 224.499,-113.607"/>
<text text-anchor="middle" x="300.5" y="-134.8" font-family="Times,serif" font-size="14.00">No</text>
</g>
<!-- no_intervention_hysterectomy -->
<g id="node7" class="node"><title>no_intervention_hysterectomy</title>
<polygon fill="none" stroke="black" points="494,-38 362,-38 362,-0 494,-0 494,-38"/>
<text text-anchor="middle" x="428" y="-22.8" font-family="Times,serif" font-size="14.00">Recommend Against</text>
<text text-anchor="middle" x="428" y="-7.8" font-family="Times,serif" font-size="14.00">Estrogen Alone</text>
</g>
<!-- use_estrogen_only&#45;&gt;no_intervention_hysterectomy -->
<g id="edge7" class="edge"><title>use_estrogen_only&#45;&gt;no_intervention_hysterectomy</title>
<path fill="none" stroke="black" d="M428,-75.7C428,-67.4902 428,-57.4688 428,-48.201"/>
<polygon fill="black" stroke="black" points="431.5,-48.1945 428,-38.1945 424.5,-48.1945 431.5,-48.1945"/>
</g>
</g>
</svg>
