<?xml version="1.0" encoding="UTF-8" standalone="no"?>
<!DOCTYPE svg PUBLIC "-//W3C//DTD SVG 1.1//EN"
 "http://www.w3.org/Graphics/SVG/1.1/DTD/svg11.dtd">
<!-- Generated by graphviz version 2.38.0 (20140413.2041)
 -->
<!-- Title: G Pages: 1 -->
<svg width="934pt" height="218pt"
 viewBox="0.00 0.00 934.00 218.00" xmlns="http://www.w3.org/2000/svg" xmlns:xlink="http://www.w3.org/1999/xlink">
<g id="graph0" class="graph" transform="scale(1 1) rotate(0) translate(4 214)">
<title>G</title>
<polygon fill="white" stroke="none" points="-4,4 -4,-214 930,-214 930,4 -4,4"/>
<!-- A -->
<g id="node1" class="node"><title>A</title>
<polygon fill="none" stroke="blue" points="627,-210 457.75,-192 627,-174 796.25,-192 627,-210"/>
<text text-anchor="middle" x="627" y="-188.3" font-family="Times,serif" font-size="14.00" fill="blue">Person younger than 18 years?</text>
</g>
<!-- B -->
<g id="node2" class="node"><title>B</title>
<polygon fill="none" stroke="blue" points="513,-123 385.474,-105 513,-87 640.526,-105 513,-123"/>
<text text-anchor="middle" x="513" y="-101.3" font-family="Times,serif" font-size="14.00" fill="blue">Already uses tobacco?</text>
</g>
<!-- A&#45;&gt;B -->
<g id="edge1" class="edge"><title>A&#45;&gt;B</title>
<path fill="none" stroke="black" d="M606.882,-175.999C588.455,-162.26 561.015,-141.801 540.554,-126.545"/>
<polygon fill="black" stroke="black" points="542.646,-123.738 532.537,-120.567 538.461,-129.35 542.646,-123.738"/>
<text text-anchor="middle" x="585.5" y="-144.8" font-family="Times,serif" font-size="14.00">yes</text>
</g>
<!-- C -->
<g id="node3" class="node"><title>C</title>
<polygon fill="none" stroke="black" points="926,-36 428,-36 428,-0 926,-0 926,-36"/>
<text text-anchor="middle" x="677" y="-14.3" font-family="Times,serif" font-size="14.00">Provide interventions (education or brief counseling) to prevent initiation of tobacco use</text>
</g>
<!-- A&#45;&gt;C -->
<g id="edge2" class="edge"><title>A&#45;&gt;C</title>
<path fill="none" stroke="black" d="M632.912,-174.618C637.769,-160.91 644.689,-140.793 650,-123 657.76,-97.0048 665.416,-66.9817 670.583,-45.8962"/>
<polygon fill="black" stroke="black" points="674.019,-46.5804 672.977,-36.0369 667.216,-44.9286 674.019,-46.5804"/>
<text text-anchor="middle" x="666" y="-101.3" font-family="Times,serif" font-size="14.00">no</text>
</g>
<!-- B&#45;&gt;C -->
<g id="edge3" class="edge"><title>B&#45;&gt;C</title>
<path fill="none" stroke="black" d="M538.986,-90.5315C564.77,-77.1682 604.706,-56.4695 634.998,-40.7695"/>
<polygon fill="black" stroke="black" points="636.795,-43.7803 644.063,-36.0712 633.574,-37.5655 636.795,-43.7803"/>
<text text-anchor="middle" x="611" y="-57.8" font-family="Times,serif" font-size="14.00">no</text>
</g>
<!-- D -->
<g id="node4" class="node"><title>D</title>
<polygon fill="none" stroke="black" points="410,-36 2.84217e-14,-36 2.84217e-14,-0 410,-0 410,-36"/>
<text text-anchor="middle" x="205" y="-14.3" font-family="Times,serif" font-size="14.00">Evidence is insufficient for recommendations on cessation interventions</text>
</g>
<!-- B&#45;&gt;D -->
<g id="edge4" class="edge"><title>B&#45;&gt;D</title>
<path fill="none" stroke="black" d="M472.1,-92.7127C422.343,-78.9809 337.478,-55.5605 276.756,-38.8028"/>
<polygon fill="black" stroke="black" points="277.42,-35.3553 266.849,-36.0689 275.558,-42.1031 277.42,-35.3553"/>
<text text-anchor="middle" x="386.5" y="-57.8" font-family="Times,serif" font-size="14.00">yes</text>
</g>
</g>
</svg>
