<?xml version="1.0" encoding="UTF-8" standalone="no"?><!DOCTYPE svg PUBLIC "-//W3C//DTD SVG 1.1//EN" "http://www.w3.org/Graphics/SVG/1.1/DTD/svg11.dtd"><!-- Generated by graphviz version 2.40.1 (20161225.0304)
 --><!-- Title: CKD_Diabetes Pages: 1 --><svg xmlns="http://www.w3.org/2000/svg" xmlns:xlink="http://www.w3.org/1999/xlink" width="1230pt" height="818pt" viewBox="0.00 0.00 1230.02 818.00">
<g id="graph0" class="graph" transform="scale(1 1) rotate(0) translate(4 814)">
<title>CKD_Diabetes</title>
<polygon fill="#ffffff" stroke="transparent" points="-4,4 -4,-814 1226.0184,-814 1226.0184,4 -4,4"/>
<!-- Start -->
<g id="node1" class="node">
<title>Start</title>
<ellipse fill="none" stroke="#000000" cx="610.0092" cy="-792" rx="73.5513" ry="18"/>
<text text-anchor="middle" x="610.0092" y="-787.8" font-family="Times,serif" font-size="14.00" fill="#000000">Start Evaluation</text>
</g>
<!-- Annual_Screening -->
<g id="node2" class="node">
<title>Annual_Screening</title>
<polygon fill="none" stroke="#000000" points="746.2191,-737 473.7993,-737 473.7993,-701 746.2191,-701 746.2191,-737"/>
<text text-anchor="middle" x="610.0092" y="-714.8" font-family="Times,serif" font-size="14.00" fill="#000000">Annual Screening for Albuminuria and eGFR</text>
</g>
<!-- Start&#45;&gt;Annual_Screening -->
<g id="edge1" class="edge">
<title>Start-&gt;Annual_Screening</title>
<path fill="none" stroke="#000000" d="M610.0092,-773.9551C610.0092,-765.8828 610.0092,-756.1764 610.0092,-747.1817"/>
<polygon fill="#000000" stroke="#000000" points="613.5093,-747.0903 610.0092,-737.0904 606.5093,-747.0904 613.5093,-747.0903"/>
</g>
<!-- Albuminuria -->
<g id="node3" class="node">
<title>Albuminuria</title>
<polygon fill="none" stroke="#000000" points="768.151,-664 451.8674,-664 451.8674,-628 768.151,-628 768.151,-664"/>
<text text-anchor="middle" x="610.0092" y="-641.8" font-family="Times,serif" font-size="14.00" fill="#000000">Check Urinary Albumin-to-Creatinine Ratio (UACR)</text>
</g>
<!-- Annual_Screening&#45;&gt;Albuminuria -->
<g id="edge2" class="edge">
<title>Annual_Screening-&gt;Albuminuria</title>
<path fill="none" stroke="#000000" d="M610.0092,-700.9551C610.0092,-692.8828 610.0092,-683.1764 610.0092,-674.1817"/>
<polygon fill="#000000" stroke="#000000" points="613.5093,-674.0903 610.0092,-664.0904 606.5093,-674.0904 613.5093,-674.0903"/>
</g>
<!-- eGFR -->
<g id="node4" class="node">
<title>eGFR</title>
<polygon fill="none" stroke="#000000" points="722.5547,-591 497.4637,-591 497.4637,-555 722.5547,-555 722.5547,-591"/>
<text text-anchor="middle" x="610.0092" y="-568.8" font-family="Times,serif" font-size="14.00" fill="#000000">Calculate eGFR (CKD-EPI equation)</text>
</g>
<!-- Albuminuria&#45;&gt;eGFR -->
<g id="edge3" class="edge">
<title>Albuminuria-&gt;eGFR</title>
<path fill="none" stroke="#000000" d="M610.0092,-627.9551C610.0092,-619.8828 610.0092,-610.1764 610.0092,-601.1817"/>
<polygon fill="#000000" stroke="#000000" points="613.5093,-601.0903 610.0092,-591.0904 606.5093,-601.0904 613.5093,-601.0903"/>
</g>
<!-- Normal_Results -->
<g id="node5" class="node">
<title>Normal_Results</title>
<polygon fill="none" stroke="#000000" points="301.0092,-518.1002 -.0092,-476.4 301.0092,-434.6998 602.0276,-476.4 301.0092,-518.1002"/>
<text text-anchor="middle" x="301.0092" y="-480.6" font-family="Times,serif" font-size="14.00" fill="#000000">Normal Results</text>
<text text-anchor="middle" x="301.0092" y="-463.8" font-family="Times,serif" font-size="14.00" fill="#000000">(UACR &lt; 30 mg/g, eGFR &gt;= 60 mL/min/1.73 m2)</text>
</g>
<!-- eGFR&#45;&gt;Normal_Results -->
<g id="edge4" class="edge">
<title>eGFR-&gt;Normal_Results</title>
<path fill="none" stroke="#000000" d="M552.2511,-554.9436C510.4919,-541.8888 452.9549,-523.9015 403.4781,-508.434"/>
<polygon fill="#000000" stroke="#000000" points="404.2861,-505.0196 393.6973,-505.3763 402.1974,-511.7007 404.2861,-505.0196"/>
</g>
<!-- Abnormal_Results -->
<g id="node6" class="node">
<title>Abnormal_Results</title>
<polygon fill="none" stroke="#000000" points="921.0092,-518.1002 619.9908,-476.4 921.0092,-434.6998 1222.0276,-476.4 921.0092,-518.1002"/>
<text text-anchor="middle" x="921.0092" y="-480.6" font-family="Times,serif" font-size="14.00" fill="#000000">Abnormal Results</text>
<text text-anchor="middle" x="921.0092" y="-463.8" font-family="Times,serif" font-size="14.00" fill="#000000">(UACR &gt;= 30 mg/g, eGFR &lt; 60 mL/min/1.73 m2)</text>
</g>
<!-- eGFR&#45;&gt;Abnormal_Results -->
<g id="edge5" class="edge">
<title>eGFR-&gt;Abnormal_Results</title>
<path fill="none" stroke="#000000" d="M668.1411,-554.9436C710.2531,-541.8632 768.3072,-523.8309 818.1699,-508.343"/>
<polygon fill="#000000" stroke="#000000" points="819.5143,-511.5904 828.026,-505.2816 817.4379,-504.9055 819.5143,-511.5904"/>
</g>
<!-- Normal_Monitoring -->
<g id="node8" class="node">
<title>Normal_Monitoring</title>
<polygon fill="none" stroke="#000000" points="364.0492,-381.8019 237.9692,-381.8019 237.9692,-340.5981 364.0492,-340.5981 364.0492,-381.8019"/>
<text text-anchor="middle" x="301.0092" y="-365.4" font-family="Times,serif" font-size="14.00" fill="#000000">Normal Monitoring</text>
<text text-anchor="middle" x="301.0092" y="-348.6" font-family="Times,serif" font-size="14.00" fill="#000000">(Annual Checks)</text>
</g>
<!-- Normal_Results&#45;&gt;Normal_Monitoring -->
<g id="edge6" class="edge">
<title>Normal_Results-&gt;Normal_Monitoring</title>
<path fill="none" stroke="#000000" d="M301.0092,-434.4843C301.0092,-420.5119 301.0092,-405.2067 301.0092,-392.2137"/>
<polygon fill="#000000" stroke="#000000" points="304.5093,-391.9233 301.0092,-381.9233 297.5093,-391.9233 304.5093,-391.9233"/>
<text text-anchor="middle" x="311.8921" y="-404.2" font-family="Times,serif" font-size="14.00" fill="#000000">Yes</text>
</g>
<!-- Repeat_Testing -->
<g id="node7" class="node">
<title>Repeat_Testing</title>
<polygon fill="none" stroke="#000000" points="1014.8677,-381.8019 827.1507,-381.8019 827.1507,-340.5981 1014.8677,-340.5981 1014.8677,-381.8019"/>
<text text-anchor="middle" x="921.0092" y="-365.4" font-family="Times,serif" font-size="14.00" fill="#000000">Repeat Testing</text>
<text text-anchor="middle" x="921.0092" y="-348.6" font-family="Times,serif" font-size="14.00" fill="#000000">(2 of 3 samples in 3-6 months)</text>
</g>
<!-- Abnormal_Results&#45;&gt;Repeat_Testing -->
<g id="edge7" class="edge">
<title>Abnormal_Results-&gt;Repeat_Testing</title>
<path fill="none" stroke="#000000" d="M921.0092,-434.4843C921.0092,-420.5119 921.0092,-405.2067 921.0092,-392.2137"/>
<polygon fill="#000000" stroke="#000000" points="924.5093,-391.9233 921.0092,-381.9233 917.5093,-391.9233 924.5093,-391.9233"/>
<text text-anchor="middle" x="931.8921" y="-404.2" font-family="Times,serif" font-size="14.00" fill="#000000">Yes</text>
</g>
<!-- CKD_Classification -->
<g id="node9" class="node">
<title>CKD_Classification</title>
<polygon fill="none" stroke="#000000" points="1028.2942,-287.4019 813.7242,-287.4019 813.7242,-246.1981 1028.2942,-246.1981 1028.2942,-287.4019"/>
<text text-anchor="middle" x="921.0092" y="-271" font-family="Times,serif" font-size="14.00" fill="#000000">Classify CKD</text>
<text text-anchor="middle" x="921.0092" y="-254.2" font-family="Times,serif" font-size="14.00" fill="#000000">(Stage 1-5 based on eGFR, UACR)</text>
</g>
<!-- Repeat_Testing&#45;&gt;CKD_Classification -->
<g id="edge8" class="edge">
<title>Repeat_Testing-&gt;CKD_Classification</title>
<path fill="none" stroke="#000000" d="M921.0092,-340.2496C921.0092,-327.7835 921.0092,-311.7355 921.0092,-297.8214"/>
<polygon fill="#000000" stroke="#000000" points="924.5093,-297.6918 921.0092,-287.6919 917.5093,-297.6919 924.5093,-297.6918"/>
<text text-anchor="middle" x="971.7515" y="-309.8" font-family="Times,serif" font-size="14.00" fill="#000000">Abnormal Results</text>
</g>
<!-- Stages_1_2 -->
<g id="node11" class="node">
<title>Stages_1_2</title>
<polygon fill="none" stroke="#000000" points="939.0174,-193.0019 729.001,-193.0019 729.001,-151.7981 939.0174,-151.7981 939.0174,-193.0019"/>
<text text-anchor="middle" x="834.0092" y="-176.6" font-family="Times,serif" font-size="14.00" fill="#000000">Stage 1-2 CKD</text>
<text text-anchor="middle" x="834.0092" y="-159.8" font-family="Times,serif" font-size="14.00" fill="#000000">(eGFR &gt;= 60, UACR &gt;= 30 mg/g)</text>
</g>
<!-- CKD_Classification&#45;&gt;Stages_1_2 -->
<g id="edge9" class="edge">
<title>CKD_Classification-&gt;Stages_1_2</title>
<path fill="none" stroke="#000000" d="M901.7011,-245.8496C889.5364,-232.6502 873.6708,-215.4351 860.3574,-200.9893"/>
<polygon fill="#000000" stroke="#000000" points="862.6141,-198.2733 853.2633,-193.2919 857.4667,-203.0172 862.6141,-198.2733"/>
<text text-anchor="middle" x="909.6407" y="-215.4" font-family="Times,serif" font-size="14.00" fill="#000000">Stage 1-2</text>
</g>
<!-- Stages_3_5 -->
<g id="node12" class="node">
<title>Stages_3_5</title>
<polygon fill="none" stroke="#000000" points="1090.3225,-193.0019 987.6959,-193.0019 987.6959,-151.7981 1090.3225,-151.7981 1090.3225,-193.0019"/>
<text text-anchor="middle" x="1039.0092" y="-176.6" font-family="Times,serif" font-size="14.00" fill="#000000">Stage 3-5 CKD</text>
<text text-anchor="middle" x="1039.0092" y="-159.8" font-family="Times,serif" font-size="14.00" fill="#000000">(eGFR &lt; 60)</text>
</g>
<!-- CKD_Classification&#45;&gt;Stages_3_5 -->
<g id="edge10" class="edge">
<title>CKD_Classification-&gt;Stages_3_5</title>
<path fill="none" stroke="#000000" d="M946.9048,-246.0835C964.0429,-232.373 986.691,-214.2546 1005.2398,-199.4155"/>
<polygon fill="#000000" stroke="#000000" points="1007.5517,-202.0482 1013.174,-193.0682 1003.1789,-196.5821 1007.5517,-202.0482"/>
<text text-anchor="middle" x="1014.6407" y="-215.4" font-family="Times,serif" font-size="14.00" fill="#000000">Stage 3-5</text>
</g>
<!-- Refer_Nephrologist -->
<g id="node10" class="node">
<title>Refer_Nephrologist</title>
<polygon fill="none" stroke="#000000" points="1123.085,-111.8 984.9334,-111.8 984.9334,-75.8 1123.085,-75.8 1123.085,-111.8"/>
<text text-anchor="middle" x="1054.0092" y="-89.6" font-family="Times,serif" font-size="14.00" fill="#000000">Refer to Nephrologist</text>
</g>
<!-- CKD_Treatment -->
<g id="node13" class="node">
<title>CKD_Treatment</title>
<polygon fill="none" stroke="#000000" points="966.6538,-114.4019 545.3646,-114.4019 545.3646,-73.1981 966.6538,-73.1981 966.6538,-114.4019"/>
<text text-anchor="middle" x="756.0092" y="-98" font-family="Times,serif" font-size="14.00" fill="#000000">Manage CKD</text>
<text text-anchor="middle" x="756.0092" y="-81.2" font-family="Times,serif" font-size="14.00" fill="#000000">(RAS Blockers, SGLT2 Inhibitors, Glycemic Control, BP Management)</text>
</g>
<!-- Stages_1_2&#45;&gt;CKD_Treatment -->
<g id="edge11" class="edge">
<title>Stages_1_2-&gt;CKD_Treatment</title>
<path fill="none" stroke="#000000" d="M813.5156,-151.7488C804.4516,-142.615 793.6514,-131.7317 783.8712,-121.8763"/>
<polygon fill="#000000" stroke="#000000" points="786.165,-119.219 776.6367,-114.5862 781.1963,-124.1497 786.165,-119.219"/>
</g>
<!-- Stages_3_5&#45;&gt;Refer_Nephrologist -->
<g id="edge12" class="edge">
<title>Stages_3_5-&gt;Refer_Nephrologist</title>
<path fill="none" stroke="#000000" d="M1042.9503,-151.7488C1044.6841,-142.6633 1046.7484,-131.8468 1048.6213,-122.0328"/>
<polygon fill="#000000" stroke="#000000" points="1052.1171,-122.3853 1050.5538,-111.9064 1045.2412,-121.073 1052.1171,-122.3853"/>
</g>
<!-- Monitor_Progression -->
<g id="node14" class="node">
<title>Monitor_Progression</title>
<polygon fill="none" stroke="#000000" points="838.0443,-36 673.9741,-36 673.9741,0 838.0443,0 838.0443,-36"/>
<text text-anchor="middle" x="756.0092" y="-13.8" font-family="Times,serif" font-size="14.00" fill="#000000">Monitor CKD Progression</text>
</g>
<!-- CKD_Treatment&#45;&gt;Monitor_Progression -->
<g id="edge13" class="edge">
<title>CKD_Treatment-&gt;Monitor_Progression</title>
<path fill="none" stroke="#000000" d="M756.0092,-73.0873C756.0092,-64.7698 756.0092,-55.0512 756.0092,-46.1124"/>
<polygon fill="#000000" stroke="#000000" points="759.5093,-46.1078 756.0092,-36.1078 752.5093,-46.1079 759.5093,-46.1078"/>
</g>
</g>
</svg>