<?xml version="1.0" encoding="UTF-8" standalone="no"?>
<!DOCTYPE svg PUBLIC "-//W3C//DTD SVG 1.1//EN"
 "http://www.w3.org/Graphics/SVG/1.1/DTD/svg11.dtd">
<!-- Generated by graphviz version 2.43.0 (0)
 -->
<!-- Title: CholesterolManagementProtocol Pages: 1 -->
<svg width="1035pt" height="914pt"
 viewBox="0.00 0.00 1035.34 914.00" xmlns="http://www.w3.org/2000/svg" xmlns:xlink="http://www.w3.org/1999/xlink">
<g id="graph0" class="graph" transform="scale(1 1) rotate(0) translate(4 910)">
<title>CholesterolManagementProtocol</title>
<polygon fill="white" stroke="transparent" points="-4,4 -4,-910 1031.34,-910 1031.34,4 -4,4"/>
<!-- InitialPopulation -->
<g id="node1" class="node">
<title>InitialPopulation</title>
<g id="a_node1"><a xlink:title="Adults aged 20 years and older. Individuals with no prior diagnosis of hyperlipidemia or cardiovascular disease.">
<path fill="none" stroke="green" d="M473.5,-906C473.5,-906 358.5,-906 358.5,-906 352.5,-906 346.5,-900 346.5,-894 346.5,-894 346.5,-882 346.5,-882 346.5,-876 352.5,-870 358.5,-870 358.5,-870 473.5,-870 473.5,-870 479.5,-870 485.5,-876 485.5,-882 485.5,-882 485.5,-894 485.5,-894 485.5,-900 479.5,-906 473.5,-906"/>
<text text-anchor="middle" x="416" y="-884.3" font-family="Times,serif" font-size="14.00" fill="green">Initial Population</text>
</a>
</g>
</g>
<!-- FamilyHistory -->
<g id="node7" class="node">
<title>FamilyHistory</title>
<g id="a_node7"><a xlink:title="Individuals with a family history of hyperlipidemia or cardiovascular disease.">
<ellipse fill="none" stroke="blue" cx="204" cy="-801" rx="79.09" ry="18"/>
<text text-anchor="middle" x="204" y="-797.3" font-family="Times,serif" font-size="14.00" fill="blue">Family History</text>
</a>
</g>
</g>
<!-- InitialPopulation&#45;&gt;FamilyHistory -->
<g id="edge1" class="edge">
<title>InitialPopulation&#45;&gt;FamilyHistory</title>
<path fill="none" stroke="blue" d="M373.35,-869.9C337.84,-855.66 287.33,-835.41 250.72,-820.73"/>
<polygon fill="blue" stroke="blue" points="251.85,-817.41 241.26,-816.94 249.24,-823.91 251.85,-817.41"/>
<text text-anchor="middle" x="328" y="-840.8" font-family="Times,serif" font-size="14.00" fill="blue">if</text>
</g>
<!-- HighBMI -->
<g id="node8" class="node">
<title>HighBMI</title>
<g id="a_node8"><a xlink:title="Individuals with a Body Mass Index (BMI) of 25 or higher.">
<ellipse fill="none" stroke="blue" cx="357" cy="-801" rx="55.79" ry="18"/>
<text text-anchor="middle" x="357" y="-797.3" font-family="Times,serif" font-size="14.00" fill="blue">High BMI</text>
</a>
</g>
</g>
<!-- InitialPopulation&#45;&gt;HighBMI -->
<g id="edge2" class="edge">
<title>InitialPopulation&#45;&gt;HighBMI</title>
<path fill="none" stroke="blue" d="M404.06,-869.8C395.61,-857.62 384.13,-841.09 374.63,-827.4"/>
<polygon fill="blue" stroke="blue" points="377.3,-825.1 368.72,-818.89 371.55,-829.1 377.3,-825.1"/>
<text text-anchor="middle" x="396" y="-840.8" font-family="Times,serif" font-size="14.00" fill="blue">if</text>
</g>
<!-- HypertensionDiabetes -->
<g id="node9" class="node">
<title>HypertensionDiabetes</title>
<g id="a_node9"><a xlink:title="Individuals with a history of hypertension or diabetes.">
<ellipse fill="none" stroke="blue" cx="561" cy="-801" rx="129.98" ry="18"/>
<text text-anchor="middle" x="561" y="-797.3" font-family="Times,serif" font-size="14.00" fill="blue">Hypertension or Diabetes</text>
</a>
</g>
</g>
<!-- InitialPopulation&#45;&gt;HypertensionDiabetes -->
<g id="edge3" class="edge">
<title>InitialPopulation&#45;&gt;HypertensionDiabetes</title>
<path fill="none" stroke="blue" d="M445.34,-869.8C468.04,-856.49 499.62,-837.98 524.04,-823.66"/>
<polygon fill="blue" stroke="blue" points="525.83,-826.67 532.69,-818.6 522.29,-820.63 525.83,-826.67"/>
<text text-anchor="middle" x="503" y="-840.8" font-family="Times,serif" font-size="14.00" fill="blue">if</text>
</g>
<!-- SmokingSedentary -->
<g id="node10" class="node">
<title>SmokingSedentary</title>
<g id="a_node10"><a xlink:title="Individuals who smoke or have a sedentary lifestyle.">
<ellipse fill="none" stroke="blue" cx="823" cy="-801" rx="114.28" ry="18"/>
<text text-anchor="middle" x="823" y="-797.3" font-family="Times,serif" font-size="14.00" fill="blue">Smoking or Sedentary</text>
</a>
</g>
</g>
<!-- InitialPopulation&#45;&gt;SmokingSedentary -->
<g id="edge4" class="edge">
<title>InitialPopulation&#45;&gt;SmokingSedentary</title>
<path fill="none" stroke="blue" d="M485.5,-872.48C558.29,-857.28 672.26,-833.48 747.29,-817.81"/>
<polygon fill="blue" stroke="blue" points="748.08,-821.22 757.15,-815.75 746.65,-814.37 748.08,-821.22"/>
<text text-anchor="middle" x="649" y="-840.8" font-family="Times,serif" font-size="14.00" fill="blue">if</text>
</g>
<!-- ScreeningSubset -->
<g id="node2" class="node">
<title>ScreeningSubset</title>
<g id="a_node2"><a xlink:title="Subset of individuals considered for cholesterol screening.">
<path fill="none" stroke="green" d="M573.5,-732C573.5,-732 344.5,-732 344.5,-732 338.5,-732 332.5,-726 332.5,-720 332.5,-720 332.5,-708 332.5,-708 332.5,-702 338.5,-696 344.5,-696 344.5,-696 573.5,-696 573.5,-696 579.5,-696 585.5,-702 585.5,-708 585.5,-708 585.5,-720 585.5,-720 585.5,-726 579.5,-732 573.5,-732"/>
<text text-anchor="middle" x="459" y="-710.3" font-family="Times,serif" font-size="14.00" fill="green">Subset Considered for Screening</text>
</a>
</g>
</g>
<!-- DiagnosticInterventions -->
<g id="node4" class="node">
<title>DiagnosticInterventions</title>
<g id="a_node4"><a xlink:title="Diagnostic tests and assessments for cholesterol levels.">
<path fill="none" stroke="green" d="M214.5,-645C214.5,-645 45.5,-645 45.5,-645 39.5,-645 33.5,-639 33.5,-633 33.5,-633 33.5,-621 33.5,-621 33.5,-615 39.5,-609 45.5,-609 45.5,-609 214.5,-609 214.5,-609 220.5,-609 226.5,-615 226.5,-621 226.5,-621 226.5,-633 226.5,-633 226.5,-639 220.5,-645 214.5,-645"/>
<text text-anchor="middle" x="130" y="-623.3" font-family="Times,serif" font-size="14.00" fill="green">Diagnostic Interventions</text>
</a>
</g>
</g>
<!-- ScreeningSubset&#45;&gt;DiagnosticInterventions -->
<g id="edge17" class="edge">
<title>ScreeningSubset&#45;&gt;DiagnosticInterventions</title>
<path fill="none" stroke="blue" d="M392.82,-695.9C338.83,-681.95 262.52,-662.24 206.03,-647.64"/>
<polygon fill="blue" stroke="blue" points="206.63,-644.18 196.08,-645.07 204.88,-650.96 206.63,-644.18"/>
<text text-anchor="middle" x="331.5" y="-666.8" font-family="Times,serif" font-size="14.00" fill="blue">then</text>
</g>
<!-- Pregnant -->
<g id="node11" class="node">
<title>Pregnant</title>
<g id="a_node11"><a xlink:title="Pregnant individuals.">
<ellipse fill="none" stroke="blue" cx="298" cy="-627" rx="53.89" ry="18"/>
<text text-anchor="middle" x="298" y="-623.3" font-family="Times,serif" font-size="14.00" fill="blue">Pregnant</text>
</a>
</g>
</g>
<!-- ScreeningSubset&#45;&gt;Pregnant -->
<g id="edge9" class="edge">
<title>ScreeningSubset&#45;&gt;Pregnant</title>
<path fill="none" stroke="blue" d="M426.42,-695.8C399.84,-681.77 362.3,-661.94 334.67,-647.36"/>
<polygon fill="blue" stroke="blue" points="336.18,-644.2 325.71,-642.63 332.91,-650.39 336.18,-644.2"/>
<text text-anchor="middle" x="394" y="-666.8" font-family="Times,serif" font-size="14.00" fill="blue">if</text>
</g>
<!-- LipidMedication -->
<g id="node12" class="node">
<title>LipidMedication</title>
<g id="a_node12"><a xlink:title="Individuals currently on lipid&#45;lowering medication.">
<ellipse fill="none" stroke="blue" cx="459" cy="-627" rx="89.08" ry="18"/>
<text text-anchor="middle" x="459" y="-623.3" font-family="Times,serif" font-size="14.00" fill="blue">Lipid Medication</text>
</a>
</g>
</g>
<!-- ScreeningSubset&#45;&gt;LipidMedication -->
<g id="edge10" class="edge">
<title>ScreeningSubset&#45;&gt;LipidMedication</title>
<path fill="none" stroke="blue" d="M459,-695.8C459,-684.16 459,-668.55 459,-655.24"/>
<polygon fill="blue" stroke="blue" points="462.5,-655.18 459,-645.18 455.5,-655.18 462.5,-655.18"/>
<text text-anchor="middle" x="464" y="-666.8" font-family="Times,serif" font-size="14.00" fill="blue">if</text>
</g>
<!-- AllergyStatins -->
<g id="node13" class="node">
<title>AllergyStatins</title>
<g id="a_node13"><a xlink:title="Individuals with a known allergy to statins or other lipid&#45;lowering agents.">
<ellipse fill="none" stroke="blue" cx="658" cy="-627" rx="92.08" ry="18"/>
<text text-anchor="middle" x="658" y="-623.3" font-family="Times,serif" font-size="14.00" fill="blue">Allergy to Statins</text>
</a>
</g>
</g>
<!-- ScreeningSubset&#45;&gt;AllergyStatins -->
<g id="edge11" class="edge">
<title>ScreeningSubset&#45;&gt;AllergyStatins</title>
<path fill="none" stroke="blue" d="M499.27,-695.8C531.97,-681.83 578.09,-662.13 612.2,-647.56"/>
<polygon fill="blue" stroke="blue" points="613.65,-650.75 621.47,-643.6 610.9,-644.31 613.65,-650.75"/>
<text text-anchor="middle" x="576" y="-666.8" font-family="Times,serif" font-size="14.00" fill="blue">if</text>
</g>
<!-- RecentIllness -->
<g id="node14" class="node">
<title>RecentIllness</title>
<g id="a_node14"><a xlink:title="Individuals with a recent acute illness or surgery (within the last 3 months).">
<ellipse fill="none" stroke="blue" cx="898" cy="-627" rx="129.18" ry="18"/>
<text text-anchor="middle" x="898" y="-623.3" font-family="Times,serif" font-size="14.00" fill="blue">Recent Illness or Surgery</text>
</a>
</g>
</g>
<!-- ScreeningSubset&#45;&gt;RecentIllness -->
<g id="edge12" class="edge">
<title>ScreeningSubset&#45;&gt;RecentIllness</title>
<path fill="none" stroke="blue" d="M547.05,-695.95C625.38,-680.79 739.07,-658.77 815.63,-643.95"/>
<polygon fill="blue" stroke="blue" points="816.56,-647.33 825.71,-642 815.23,-640.46 816.56,-647.33"/>
<text text-anchor="middle" x="710" y="-666.8" font-family="Times,serif" font-size="14.00" fill="blue">if</text>
</g>
<!-- ExclusionCriteria -->
<g id="node3" class="node">
<title>ExclusionCriteria</title>
<g id="a_node3"><a xlink:title="Individuals excluded from screening based on specific criteria.">
<path fill="none" stroke="green" d="M620,-558C620,-558 498,-558 498,-558 492,-558 486,-552 486,-546 486,-546 486,-534 486,-534 486,-528 492,-522 498,-522 498,-522 620,-522 620,-522 626,-522 632,-528 632,-534 632,-534 632,-546 632,-546 632,-552 626,-558 620,-558"/>
<text text-anchor="middle" x="559" y="-536.3" font-family="Times,serif" font-size="14.00" fill="green">Exclusion Criteria</text>
</a>
</g>
</g>
<!-- TotalCholesterol -->
<g id="node15" class="node">
<title>TotalCholesterol</title>
<g id="a_node15"><a xlink:title="Total cholesterol level less than 200 mg/dL.">
<ellipse fill="none" stroke="blue" cx="130" cy="-540" rx="120.78" ry="18"/>
<text text-anchor="middle" x="130" y="-536.3" font-family="Times,serif" font-size="14.00" fill="blue">Total Cholesterol &lt; 200</text>
</a>
</g>
</g>
<!-- DiagnosticInterventions&#45;&gt;TotalCholesterol -->
<g id="edge18" class="edge">
<title>DiagnosticInterventions&#45;&gt;TotalCholesterol</title>
<path fill="none" stroke="blue" d="M130,-608.8C130,-597.16 130,-581.55 130,-568.24"/>
<polygon fill="blue" stroke="blue" points="133.5,-568.18 130,-558.18 126.5,-568.18 133.5,-568.18"/>
<text text-anchor="middle" x="135" y="-579.8" font-family="Times,serif" font-size="14.00" fill="blue">if</text>
</g>
<!-- SuccessfulScreens -->
<g id="node5" class="node">
<title>SuccessfulScreens</title>
<g id="a_node5"><a xlink:title="Criteria for successful cholesterol screening outcomes.">
<path fill="none" stroke="green" d="M248,-123C248,-123 12,-123 12,-123 6,-123 0,-117 0,-111 0,-111 0,-99 0,-99 0,-93 6,-87 12,-87 12,-87 248,-87 248,-87 254,-87 260,-93 260,-99 260,-99 260,-111 260,-111 260,-117 254,-123 248,-123"/>
<text text-anchor="middle" x="130" y="-101.3" font-family="Times,serif" font-size="14.00" fill="green">Conditions for Successful Screens</text>
</a>
</g>
</g>
<!-- FollowUpManagement -->
<g id="node6" class="node">
<title>FollowUpManagement</title>
<g id="a_node6"><a xlink:title="Management and follow&#45;up for individuals with abnormal cholesterol levels.">
<path fill="none" stroke="green" d="M225.5,-36C225.5,-36 34.5,-36 34.5,-36 28.5,-36 22.5,-30 22.5,-24 22.5,-24 22.5,-12 22.5,-12 22.5,-6 28.5,0 34.5,0 34.5,0 225.5,0 225.5,0 231.5,0 237.5,-6 237.5,-12 237.5,-12 237.5,-24 237.5,-24 237.5,-30 231.5,-36 225.5,-36"/>
<text text-anchor="middle" x="130" y="-14.3" font-family="Times,serif" font-size="14.00" fill="green">Follow&#45;up and Management</text>
</a>
</g>
</g>
<!-- SuccessfulScreens&#45;&gt;FollowUpManagement -->
<g id="edge24" class="edge">
<title>SuccessfulScreens&#45;&gt;FollowUpManagement</title>
<path fill="none" stroke="blue" d="M130,-86.8C130,-75.16 130,-59.55 130,-46.24"/>
<polygon fill="blue" stroke="blue" points="133.5,-46.18 130,-36.18 126.5,-46.18 133.5,-46.18"/>
<text text-anchor="middle" x="146.5" y="-57.8" font-family="Times,serif" font-size="14.00" fill="blue">then</text>
</g>
<!-- FamilyHistory&#45;&gt;ScreeningSubset -->
<g id="edge5" class="edge">
<title>FamilyHistory&#45;&gt;ScreeningSubset</title>
<path fill="none" stroke="blue" d="M246.68,-785.77C288.11,-771.96 351.41,-750.86 398.12,-735.29"/>
<polygon fill="blue" stroke="blue" points="399.44,-738.54 407.82,-732.06 397.23,-731.9 399.44,-738.54"/>
<text text-anchor="middle" x="363.5" y="-753.8" font-family="Times,serif" font-size="14.00" fill="blue">then</text>
</g>
<!-- HighBMI&#45;&gt;ScreeningSubset -->
<g id="edge6" class="edge">
<title>HighBMI&#45;&gt;ScreeningSubset</title>
<path fill="none" stroke="blue" d="M376.19,-784.01C391.46,-771.28 413.07,-753.27 430.39,-738.84"/>
<polygon fill="blue" stroke="blue" points="433.06,-741.17 438.5,-732.08 428.58,-735.8 433.06,-741.17"/>
<text text-anchor="middle" x="431.5" y="-753.8" font-family="Times,serif" font-size="14.00" fill="blue">then</text>
</g>
<!-- HypertensionDiabetes&#45;&gt;ScreeningSubset -->
<g id="edge7" class="edge">
<title>HypertensionDiabetes&#45;&gt;ScreeningSubset</title>
<path fill="none" stroke="blue" d="M540.85,-783.21C525.58,-770.48 504.4,-752.84 487.42,-738.68"/>
<polygon fill="blue" stroke="blue" points="489.38,-735.76 479.46,-732.05 484.9,-741.14 489.38,-735.76"/>
<text text-anchor="middle" x="533.5" y="-753.8" font-family="Times,serif" font-size="14.00" fill="blue">then</text>
</g>
<!-- SmokingSedentary&#45;&gt;ScreeningSubset -->
<g id="edge8" class="edge">
<title>SmokingSedentary&#45;&gt;ScreeningSubset</title>
<path fill="none" stroke="blue" d="M761.66,-785.68C701.34,-771.59 608.84,-749.99 541.97,-734.38"/>
<polygon fill="blue" stroke="blue" points="542.42,-730.89 531.88,-732.02 540.83,-737.7 542.42,-730.89"/>
<text text-anchor="middle" x="679.5" y="-753.8" font-family="Times,serif" font-size="14.00" fill="blue">then</text>
</g>
<!-- Pregnant&#45;&gt;ExclusionCriteria -->
<g id="edge13" class="edge">
<title>Pregnant&#45;&gt;ExclusionCriteria</title>
<path fill="none" stroke="blue" d="M335.12,-613.91C377.21,-600.2 446.51,-577.63 496.88,-561.23"/>
<polygon fill="blue" stroke="blue" points="498.26,-564.46 506.68,-558.04 496.09,-557.81 498.26,-564.46"/>
<text text-anchor="middle" x="461.5" y="-579.8" font-family="Times,serif" font-size="14.00" fill="blue">then</text>
</g>
<!-- LipidMedication&#45;&gt;ExclusionCriteria -->
<g id="edge14" class="edge">
<title>LipidMedication&#45;&gt;ExclusionCriteria</title>
<path fill="none" stroke="blue" d="M478.76,-609.21C493.72,-596.48 514.49,-578.84 531.14,-564.68"/>
<polygon fill="blue" stroke="blue" points="533.59,-567.19 538.94,-558.05 529.06,-561.86 533.59,-567.19"/>
<text text-anchor="middle" x="531.5" y="-579.8" font-family="Times,serif" font-size="14.00" fill="blue">then</text>
</g>
<!-- AllergyStatins&#45;&gt;ExclusionCriteria -->
<g id="edge15" class="edge">
<title>AllergyStatins&#45;&gt;ExclusionCriteria</title>
<path fill="none" stroke="blue" d="M638.44,-609.21C623.62,-596.48 603.07,-578.84 586.58,-564.68"/>
<polygon fill="blue" stroke="blue" points="588.72,-561.91 578.86,-558.05 584.16,-567.22 588.72,-561.91"/>
<text text-anchor="middle" x="631.5" y="-579.8" font-family="Times,serif" font-size="14.00" fill="blue">then</text>
</g>
<!-- RecentIllness&#45;&gt;ExclusionCriteria -->
<g id="edge16" class="edge">
<title>RecentIllness&#45;&gt;ExclusionCriteria</title>
<path fill="none" stroke="blue" d="M838.17,-611C782.18,-596.96 698.19,-575.9 636.97,-560.55"/>
<polygon fill="blue" stroke="blue" points="637.51,-557.08 626.96,-558.04 635.81,-563.87 637.51,-557.08"/>
<text text-anchor="middle" x="765.5" y="-579.8" font-family="Times,serif" font-size="14.00" fill="blue">then</text>
</g>
<!-- LDLCholesterol -->
<g id="node16" class="node">
<title>LDLCholesterol</title>
<g id="a_node16"><a xlink:title="LDL cholesterol level less than 100 mg/dL.">
<ellipse fill="none" stroke="blue" cx="130" cy="-453" rx="116.98" ry="18"/>
<text text-anchor="middle" x="130" y="-449.3" font-family="Times,serif" font-size="14.00" fill="blue">LDL Cholesterol &lt; 100</text>
</a>
</g>
</g>
<!-- TotalCholesterol&#45;&gt;LDLCholesterol -->
<g id="edge19" class="edge">
<title>TotalCholesterol&#45;&gt;LDLCholesterol</title>
<path fill="none" stroke="blue" d="M130,-521.8C130,-510.16 130,-494.55 130,-481.24"/>
<polygon fill="blue" stroke="blue" points="133.5,-481.18 130,-471.18 126.5,-481.18 133.5,-481.18"/>
<text text-anchor="middle" x="143.5" y="-492.8" font-family="Times,serif" font-size="14.00" fill="blue">and</text>
</g>
<!-- HDLCholesterol -->
<g id="node17" class="node">
<title>HDLCholesterol</title>
<g id="a_node17"><a xlink:title="HDL cholesterol level greater than 40 mg/dL for men and 50 mg/dL for women.">
<ellipse fill="none" stroke="blue" cx="130" cy="-366" rx="128.08" ry="18"/>
<text text-anchor="middle" x="130" y="-362.3" font-family="Times,serif" font-size="14.00" fill="blue">HDL Cholesterol &gt; 40/50</text>
</a>
</g>
</g>
<!-- LDLCholesterol&#45;&gt;HDLCholesterol -->
<g id="edge20" class="edge">
<title>LDLCholesterol&#45;&gt;HDLCholesterol</title>
<path fill="none" stroke="blue" d="M130,-434.8C130,-423.16 130,-407.55 130,-394.24"/>
<polygon fill="blue" stroke="blue" points="133.5,-394.18 130,-384.18 126.5,-394.18 133.5,-394.18"/>
<text text-anchor="middle" x="143.5" y="-405.8" font-family="Times,serif" font-size="14.00" fill="blue">and</text>
</g>
<!-- Triglycerides -->
<g id="node18" class="node">
<title>Triglycerides</title>
<g id="a_node18"><a xlink:title="Triglycerides level less than 150 mg/dL.">
<ellipse fill="none" stroke="blue" cx="130" cy="-279" rx="102.88" ry="18"/>
<text text-anchor="middle" x="130" y="-275.3" font-family="Times,serif" font-size="14.00" fill="blue">Triglycerides &lt; 150</text>
</a>
</g>
</g>
<!-- HDLCholesterol&#45;&gt;Triglycerides -->
<g id="edge21" class="edge">
<title>HDLCholesterol&#45;&gt;Triglycerides</title>
<path fill="none" stroke="blue" d="M130,-347.8C130,-336.16 130,-320.55 130,-307.24"/>
<polygon fill="blue" stroke="blue" points="133.5,-307.18 130,-297.18 126.5,-307.18 133.5,-307.18"/>
<text text-anchor="middle" x="143.5" y="-318.8" font-family="Times,serif" font-size="14.00" fill="blue">and</text>
</g>
<!-- ModifiableFactors -->
<g id="node19" class="node">
<title>ModifiableFactors</title>
<g id="a_node19"><a xlink:title="Identification of modifiable lifestyle factors contributing to elevated cholesterol levels.">
<ellipse fill="none" stroke="blue" cx="130" cy="-192" rx="96.68" ry="18"/>
<text text-anchor="middle" x="130" y="-188.3" font-family="Times,serif" font-size="14.00" fill="blue">Modifiable Factors</text>
</a>
</g>
</g>
<!-- Triglycerides&#45;&gt;ModifiableFactors -->
<g id="edge22" class="edge">
<title>Triglycerides&#45;&gt;ModifiableFactors</title>
<path fill="none" stroke="blue" d="M130,-260.8C130,-249.16 130,-233.55 130,-220.24"/>
<polygon fill="blue" stroke="blue" points="133.5,-220.18 130,-210.18 126.5,-220.18 133.5,-220.18"/>
<text text-anchor="middle" x="143.5" y="-231.8" font-family="Times,serif" font-size="14.00" fill="blue">and</text>
</g>
<!-- ModifiableFactors&#45;&gt;SuccessfulScreens -->
<g id="edge23" class="edge">
<title>ModifiableFactors&#45;&gt;SuccessfulScreens</title>
<path fill="none" stroke="blue" d="M130,-173.8C130,-162.16 130,-146.55 130,-133.24"/>
<polygon fill="blue" stroke="blue" points="133.5,-133.18 130,-123.18 126.5,-133.18 133.5,-133.18"/>
<text text-anchor="middle" x="146.5" y="-144.8" font-family="Times,serif" font-size="14.00" fill="blue">then</text>
</g>
</g>
</svg>
