<?xml version="1.0" encoding="UTF-8" standalone="no"?>
<!DOCTYPE svg PUBLIC "-//W3C//DTD SVG 1.1//EN"
 "http://www.w3.org/Graphics/SVG/1.1/DTD/svg11.dtd">
<!-- Generated by graphviz version 2.43.0 (0)
 -->
<!-- Title: %3 Pages: 1 -->
<svg width="202pt" height="392pt"
 viewBox="0.00 0.00 202.00 392.00" xmlns="http://www.w3.org/2000/svg" xmlns:xlink="http://www.w3.org/1999/xlink">
<g id="graph0" class="graph" transform="scale(1 1) rotate(0) translate(4 388)">
<title>%3</title>
<polygon fill="white" stroke="transparent" points="-4,4 -4,-388 198,-388 198,4 -4,4"/>
<!-- spravato -->
<g id="node1" class="node">
<title>spravato</title>
<path fill="none" stroke="green" d="M165.5,-384C165.5,-384 28.5,-384 28.5,-384 22.5,-384 16.5,-378 16.5,-372 16.5,-372 16.5,-360 16.5,-360 16.5,-354 22.5,-348 28.5,-348 28.5,-348 165.5,-348 165.5,-348 171.5,-348 177.5,-354 177.5,-360 177.5,-360 177.5,-372 177.5,-372 177.5,-378 171.5,-384 165.5,-384"/>
<text text-anchor="middle" x="97" y="-362.3" font-family="Times,serif" font-size="14.00" fill="green">Spravato Treatment</text>
</g>
<!-- data_collection -->
<g id="node4" class="node">
<title>data_collection</title>
<g id="a_node4"><a xlink:title="Collect data for required patient monitoring form">
<ellipse fill="none" stroke="blue" cx="97" cy="-279" rx="81.79" ry="18"/>
<text text-anchor="middle" x="97" y="-275.3" font-family="Times,serif" font-size="14.00" fill="blue">Data Collection</text>
</a>
</g>
</g>
<!-- spravato&#45;&gt;data_collection -->
<g id="edge1" class="edge">
<title>spravato&#45;&gt;data_collection</title>
<path fill="none" stroke="blue" d="M97,-347.8C97,-336.16 97,-320.55 97,-307.24"/>
<polygon fill="blue" stroke="blue" points="100.5,-307.18 97,-297.18 93.5,-307.18 100.5,-307.18"/>
<text text-anchor="middle" x="102" y="-318.8" font-family="Times,serif" font-size="14.00" fill="blue">if</text>
</g>
<!-- monitoring_form -->
<g id="node2" class="node">
<title>monitoring_form</title>
<path fill="none" stroke="green" d="M182,-210C182,-210 12,-210 12,-210 6,-210 0,-204 0,-198 0,-198 0,-186 0,-186 0,-180 6,-174 12,-174 12,-174 182,-174 182,-174 188,-174 194,-180 194,-186 194,-186 194,-198 194,-198 194,-204 188,-210 182,-210"/>
<text text-anchor="middle" x="97" y="-188.3" font-family="Times,serif" font-size="14.00" fill="green">Patient Monitoring Form</text>
</g>
<!-- report_variables -->
<g id="node5" class="node">
<title>report_variables</title>
<g id="a_node5"><a xlink:title="Report variables back to Janssen">
<ellipse fill="none" stroke="blue" cx="97" cy="-105" rx="88.28" ry="18"/>
<text text-anchor="middle" x="97" y="-101.3" font-family="Times,serif" font-size="14.00" fill="blue">Report Variables</text>
</a>
</g>
</g>
<!-- monitoring_form&#45;&gt;report_variables -->
<g id="edge3" class="edge">
<title>monitoring_form&#45;&gt;report_variables</title>
<path fill="none" stroke="blue" d="M97,-173.8C97,-162.16 97,-146.55 97,-133.24"/>
<polygon fill="blue" stroke="blue" points="100.5,-133.18 97,-123.18 93.5,-133.18 100.5,-133.18"/>
<text text-anchor="middle" x="102" y="-144.8" font-family="Times,serif" font-size="14.00" fill="blue">if</text>
</g>
<!-- janssen -->
<g id="node3" class="node">
<title>janssen</title>
<path fill="none" stroke="green" d="M156.5,-36C156.5,-36 37.5,-36 37.5,-36 31.5,-36 25.5,-30 25.5,-24 25.5,-24 25.5,-12 25.5,-12 25.5,-6 31.5,0 37.5,0 37.5,0 156.5,0 156.5,0 162.5,0 168.5,-6 168.5,-12 168.5,-12 168.5,-24 168.5,-24 168.5,-30 162.5,-36 156.5,-36"/>
<text text-anchor="middle" x="97" y="-14.3" font-family="Times,serif" font-size="14.00" fill="green">Report to Janssen</text>
</g>
<!-- data_collection&#45;&gt;monitoring_form -->
<g id="edge2" class="edge">
<title>data_collection&#45;&gt;monitoring_form</title>
<path fill="none" stroke="blue" d="M97,-260.8C97,-249.16 97,-233.55 97,-220.24"/>
<polygon fill="blue" stroke="blue" points="100.5,-220.18 97,-210.18 93.5,-220.18 100.5,-220.18"/>
<text text-anchor="middle" x="113.5" y="-231.8" font-family="Times,serif" font-size="14.00" fill="blue">then</text>
</g>
<!-- report_variables&#45;&gt;janssen -->
<g id="edge4" class="edge">
<title>report_variables&#45;&gt;janssen</title>
<path fill="none" stroke="blue" d="M97,-86.8C97,-75.16 97,-59.55 97,-46.24"/>
<polygon fill="blue" stroke="blue" points="100.5,-46.18 97,-36.18 93.5,-46.18 100.5,-46.18"/>
<text text-anchor="middle" x="113.5" y="-57.8" font-family="Times,serif" font-size="14.00" fill="blue">then</text>
</g>
</g>
</svg>
