<?xml version="1.0" encoding="UTF-8" standalone="no"?>
<!DOCTYPE svg PUBLIC "-//W3C//DTD SVG 1.1//EN"
 "http://www.w3.org/Graphics/SVG/1.1/DTD/svg11.dtd">
<!-- Generated by graphviz version 2.38.0 (20140413.2041)
 -->
<!-- Title: G Pages: 1 -->
<svg width="913pt" height="560pt"
 viewBox="0.00 0.00 913.41 560.00" xmlns="http://www.w3.org/2000/svg" xmlns:xlink="http://www.w3.org/1999/xlink">
<g id="graph0" class="graph" transform="scale(1 1) rotate(0) translate(4 556)">
<title>G</title>
<polygon fill="white" stroke="none" points="-4,4 -4,-556 909.406,-556 909.406,4 -4,4"/>
<!-- start -->
<g id="node1" class="node"><title>start</title>
<polygon fill="gray" stroke="gray" points="698.906,-552 501.906,-552 501.906,-484 698.906,-484 698.906,-552"/>
<text text-anchor="middle" x="600.406" y="-536.8" font-family="Times,serif" font-size="14.00" fill="white">Adult &gt;=40 years old</text>
<text text-anchor="middle" x="600.406" y="-521.8" font-family="Times,serif" font-size="14.00" fill="white">without signs/symptoms of CVD</text>
<text text-anchor="middle" x="600.406" y="-506.8" font-family="Times,serif" font-size="14.00" fill="white">or known CVD, and</text>
<text text-anchor="middle" x="600.406" y="-491.8" font-family="Times,serif" font-size="14.00" fill="white">not at increased risk for bleeding</text>
</g>
<!-- age4060 -->
<g id="node2" class="node"><title>age4060</title>
<polygon fill="lightblue" stroke="lightblue" points="600.406,-447 484.778,-429 600.406,-411 716.034,-429 600.406,-447"/>
<text text-anchor="middle" x="600.406" y="-425.3" font-family="Times,serif" font-size="14.00">Age 40 to 59 years?</text>
</g>
<!-- start&#45;&gt;age4060 -->
<g id="edge1" class="edge"><title>start&#45;&gt;age4060</title>
<path fill="none" stroke="black" d="M600.406,-483.612C600.406,-474.852 600.406,-465.513 600.406,-457.125"/>
<polygon fill="black" stroke="black" points="603.906,-457.123 600.406,-447.123 596.906,-457.124 603.906,-457.123"/>
</g>
<!-- cvdRisk10 -->
<g id="node3" class="node"><title>cvdRisk10</title>
<polygon fill="lightblue" stroke="lightblue" points="500.406,-360 380.406,-322 500.406,-284 620.406,-322 500.406,-360"/>
<text text-anchor="middle" x="500.406" y="-325.8" font-family="Times,serif" font-size="14.00">10% or greater</text>
<text text-anchor="middle" x="500.406" y="-310.8" font-family="Times,serif" font-size="14.00">10&#45;year CVD risk?</text>
</g>
<!-- age4060&#45;&gt;cvdRisk10 -->
<g id="edge2" class="edge"><title>age4060&#45;&gt;cvdRisk10</title>
<path fill="none" stroke="black" d="M586.079,-412.956C572.753,-398.964 552.373,-377.565 534.833,-359.149"/>
<polygon fill="black" stroke="black" points="536.95,-356.296 527.519,-351.469 531.881,-361.124 536.95,-356.296"/>
<text text-anchor="middle" x="575.406" y="-381.8" font-family="Times,serif" font-size="14.00">Yes</text>
</g>
<!-- age60Plus -->
<g id="node6" class="node"><title>age60Plus</title>
<polygon fill="lightblue" stroke="lightblue" points="648.406,-266 518.704,-248 648.406,-230 778.109,-248 648.406,-266"/>
<text text-anchor="middle" x="648.406" y="-244.3" font-family="Times,serif" font-size="14.00">Age 60 years or older?</text>
</g>
<!-- age4060&#45;&gt;age60Plus -->
<g id="edge8" class="edge"><title>age4060&#45;&gt;age60Plus</title>
<path fill="none" stroke="black" d="M608.408,-412.178C614.947,-398.64 623.969,-378.468 629.406,-360 637.7,-331.828 642.803,-298.5 645.603,-275.767"/>
<polygon fill="black" stroke="black" points="649.081,-276.164 646.764,-265.825 642.128,-275.352 649.081,-276.164"/>
<text text-anchor="middle" x="630.906" y="-381.8" font-family="Times,serif" font-size="14.00">No</text>
</g>
<!-- notIncreasedBleedingRisk -->
<g id="node4" class="node"><title>notIncreasedBleedingRisk</title>
<polygon fill="lightblue" stroke="lightblue" points="287.406,-212 99.0517,-194 287.406,-176 475.761,-194 287.406,-212"/>
<text text-anchor="middle" x="287.406" y="-190.3" font-family="Times,serif" font-size="14.00">Not at increased risk for bleeding?</text>
</g>
<!-- cvdRisk10&#45;&gt;notIncreasedBleedingRisk -->
<g id="edge3" class="edge"><title>cvdRisk10&#45;&gt;notIncreasedBleedingRisk</title>
<path fill="none" stroke="black" d="M459.59,-296.855C419.5,-273.14 359.038,-237.374 321.459,-215.144"/>
<polygon fill="black" stroke="black" points="322.813,-211.878 312.424,-209.799 319.249,-217.903 322.813,-211.878"/>
<text text-anchor="middle" x="417.406" y="-244.3" font-family="Times,serif" font-size="14.00">Yes</text>
</g>
<!-- noAspirinUse -->
<g id="node8" class="node"><title>noAspirinUse</title>
<polygon fill="salmon" stroke="salmon" points="570.906,-38 389.906,-38 389.906,-0 570.906,-0 570.906,-38"/>
<text text-anchor="middle" x="480.406" y="-22.8" font-family="Times,serif" font-size="14.00">Recommend against initiating</text>
<text text-anchor="middle" x="480.406" y="-7.8" font-family="Times,serif" font-size="14.00">low&#45;dose aspirin use</text>
</g>
<!-- cvdRisk10&#45;&gt;noAspirinUse -->
<g id="edge9" class="edge"><title>cvdRisk10&#45;&gt;noAspirinUse</title>
<path fill="none" stroke="black" d="M497.994,-284.692C493.961,-224.005 485.936,-103.221 482.288,-48.3278"/>
<polygon fill="black" stroke="black" points="485.775,-48.0109 481.62,-38.265 478.791,-48.4751 485.775,-48.0109"/>
<text text-anchor="middle" x="497.906" y="-146.8" font-family="Times,serif" font-size="14.00">No</text>
</g>
<!-- dailyAspirinWillingness -->
<g id="node5" class="node"><title>dailyAspirinWillingness</title>
<polygon fill="lightblue" stroke="lightblue" points="211.406,-125 0.093789,-107 211.406,-89 422.719,-107 211.406,-125"/>
<text text-anchor="middle" x="211.406" y="-103.3" font-family="Times,serif" font-size="14.00">Willing to take low&#45;dose aspirin daily?</text>
</g>
<!-- notIncreasedBleedingRisk&#45;&gt;dailyAspirinWillingness -->
<g id="edge4" class="edge"><title>notIncreasedBleedingRisk&#45;&gt;dailyAspirinWillingness</title>
<path fill="none" stroke="black" d="M273.111,-177.012C261.647,-164.19 245.389,-146.007 232.44,-131.524"/>
<polygon fill="black" stroke="black" points="234.912,-129.038 225.637,-123.916 229.693,-133.704 234.912,-129.038"/>
<text text-anchor="middle" x="265.406" y="-146.8" font-family="Times,serif" font-size="14.00">Yes</text>
</g>
<!-- notIncreasedBleedingRisk&#45;&gt;noAspirinUse -->
<g id="edge6" class="edge"><title>notIncreasedBleedingRisk&#45;&gt;noAspirinUse</title>
<path fill="none" stroke="black" d="M333.494,-180.325C364.459,-169.815 404.392,-152.138 431.406,-125 452.793,-103.515 465.981,-70.9394 473.211,-47.7758"/>
<polygon fill="black" stroke="black" points="476.57,-48.7585 476.036,-38.1771 469.855,-46.7817 476.57,-48.7585"/>
<text text-anchor="middle" x="464.906" y="-103.3" font-family="Times,serif" font-size="14.00">No</text>
</g>
<!-- dailyAspirinWillingness&#45;&gt;noAspirinUse -->
<g id="edge7" class="edge"><title>dailyAspirinWillingness&#45;&gt;noAspirinUse</title>
<path fill="none" stroke="black" d="M253.437,-92.5625C296.382,-78.833 363.703,-57.3103 413.89,-41.2653"/>
<polygon fill="black" stroke="black" points="415.228,-44.5123 423.687,-38.1333 413.096,-37.8448 415.228,-44.5123"/>
<text text-anchor="middle" x="370.906" y="-59.8" font-family="Times,serif" font-size="14.00">No</text>
</g>
<!-- individualDecision -->
<g id="node9" class="node"><title>individualDecision</title>
<polygon fill="lightgray" stroke="lightgray" points="314.406,-37 108.406,-37 108.406,-1 314.406,-1 314.406,-37"/>
<text text-anchor="middle" x="211.406" y="-15.3" font-family="Times,serif" font-size="14.00">Individual decision. Benefit small.</text>
</g>
<!-- dailyAspirinWillingness&#45;&gt;individualDecision -->
<g id="edge5" class="edge"><title>dailyAspirinWillingness&#45;&gt;individualDecision</title>
<path fill="none" stroke="black" d="M211.406,-88.5966C211.406,-76.7459 211.406,-60.8169 211.406,-47.2917"/>
<polygon fill="black" stroke="black" points="214.906,-47.084 211.406,-37.084 207.906,-47.084 214.906,-47.084"/>
<text text-anchor="middle" x="222.406" y="-59.8" font-family="Times,serif" font-size="14.00">Yes</text>
</g>
<!-- age60Plus&#45;&gt;noAspirinUse -->
<g id="edge10" class="edge"><title>age60Plus&#45;&gt;noAspirinUse</title>
<path fill="none" stroke="black" d="M639.026,-231.151C618.761,-197.437 568.574,-116.732 517.406,-56 514.468,-52.513 511.237,-48.9902 507.945,-45.5835"/>
<polygon fill="black" stroke="black" points="510.276,-42.9657 500.73,-38.3701 505.327,-47.9158 510.276,-42.9657"/>
<text text-anchor="middle" x="602.406" y="-146.8" font-family="Times,serif" font-size="14.00">Yes</text>
</g>
<!-- dailyLowDoseRecommendation -->
<g id="node7" class="node"><title>dailyLowDoseRecommendation</title>
<polygon fill="lightgreen" stroke="lightgreen" points="905.406,-537 717.406,-537 717.406,-499 905.406,-499 905.406,-537"/>
<text text-anchor="middle" x="811.406" y="-521.8" font-family="Times,serif" font-size="14.00">Recommend low&#45;dose aspirin</text>
<text text-anchor="middle" x="811.406" y="-506.8" font-family="Times,serif" font-size="14.00">for primary prevention of CVD</text>
</g>
</g>
</svg>
