<?xml version="1.0" encoding="UTF-8" standalone="no"?>
<!DOCTYPE svg PUBLIC "-//W3C//DTD SVG 1.1//EN"
 "http://www.w3.org/Graphics/SVG/1.1/DTD/svg11.dtd">
<!-- Generated by graphviz version 2.43.0 (0)
 -->
<!-- Title: Protocol Pages: 1 -->
<svg width="1745pt" height="479pt"
 viewBox="0.00 0.00 1744.73 479.00" xmlns="http://www.w3.org/2000/svg" xmlns:xlink="http://www.w3.org/1999/xlink">
<g id="graph0" class="graph" transform="scale(1 1) rotate(0) translate(4 475)">
<title>Protocol</title>
<polygon fill="white" stroke="transparent" points="-4,4 -4,-475 1740.73,-475 1740.73,4 -4,4"/>
<!-- InitialPopulation -->
<g id="node1" class="node">
<title>InitialPopulation</title>
<g id="a_node1"><a xlink:title="Pregnant women aged 18 years and older, with a singleton pregnancy, presenting with high blood pressure (systolic BP ≥ 140 mmHg or diastolic BP ≥ 90 mmHg) at any point during pregnancy.">
<path fill="none" stroke="green" d="M939.69,-471C939.69,-471 824.69,-471 824.69,-471 818.69,-471 812.69,-465 812.69,-459 812.69,-459 812.69,-447 812.69,-447 812.69,-441 818.69,-435 824.69,-435 824.69,-435 939.69,-435 939.69,-435 945.69,-435 951.69,-441 951.69,-447 951.69,-447 951.69,-459 951.69,-459 951.69,-465 945.69,-471 939.69,-471"/>
<text text-anchor="middle" x="882.19" y="-449.3" font-family="Times,serif" font-size="14.00" fill="green">Initial Population</text>
</a>
</g>
</g>
<!-- HRF1 -->
<g id="node6" class="node">
<title>HRF1</title>
<g id="a_node6"><a xlink:title="History of preeclampsia in a previous pregnancy.">
<ellipse fill="none" stroke="blue" cx="122.19" cy="-366" rx="122.38" ry="18"/>
<text text-anchor="middle" x="122.19" y="-362.3" font-family="Times,serif" font-size="14.00" fill="blue">History of Preeclampsia</text>
</a>
</g>
</g>
<!-- InitialPopulation&#45;&gt;HRF1 -->
<g id="edge1" class="edge">
<title>InitialPopulation&#45;&gt;HRF1</title>
<path fill="none" stroke="blue" d="M812.44,-444.91C696.48,-433.03 456.75,-408.01 254.19,-384 243.1,-382.69 231.49,-381.26 219.95,-379.82"/>
<polygon fill="blue" stroke="blue" points="220.21,-376.32 209.85,-378.54 219.33,-383.26 220.21,-376.32"/>
<text text-anchor="middle" x="552.19" y="-405.8" font-family="Times,serif" font-size="14.00" fill="blue">if</text>
</g>
<!-- HRF2 -->
<g id="node7" class="node">
<title>HRF2</title>
<g id="a_node7"><a xlink:title="Chronic hypertension.">
<ellipse fill="none" stroke="blue" cx="375.19" cy="-366" rx="112.38" ry="18"/>
<text text-anchor="middle" x="375.19" y="-362.3" font-family="Times,serif" font-size="14.00" fill="blue">Chronic Hypertension</text>
</a>
</g>
</g>
<!-- InitialPopulation&#45;&gt;HRF2 -->
<g id="edge3" class="edge">
<title>InitialPopulation&#45;&gt;HRF2</title>
<path fill="none" stroke="blue" d="M812.49,-440.31C720.52,-424.89 558.73,-397.77 459.84,-381.19"/>
<polygon fill="blue" stroke="blue" points="460.31,-377.72 449.87,-379.52 459.16,-384.63 460.31,-377.72"/>
<text text-anchor="middle" x="664.19" y="-405.8" font-family="Times,serif" font-size="14.00" fill="blue">if</text>
</g>
<!-- HRF3 -->
<g id="node8" class="node">
<title>HRF3</title>
<g id="a_node8"><a xlink:title="Pre&#45;existing diabetes (Type 1 or Type 2).">
<ellipse fill="none" stroke="blue" cx="616.19" cy="-366" rx="110.48" ry="18"/>
<text text-anchor="middle" x="616.19" y="-362.3" font-family="Times,serif" font-size="14.00" fill="blue">Pre&#45;existing Diabetes</text>
</a>
</g>
</g>
<!-- InitialPopulation&#45;&gt;HRF3 -->
<g id="edge5" class="edge">
<title>InitialPopulation&#45;&gt;HRF3</title>
<path fill="none" stroke="blue" d="M828.68,-434.9C783.78,-420.55 719.79,-400.11 673.78,-385.4"/>
<polygon fill="blue" stroke="blue" points="674.84,-382.07 664.25,-382.36 672.71,-388.74 674.84,-382.07"/>
<text text-anchor="middle" x="770.19" y="-405.8" font-family="Times,serif" font-size="14.00" fill="blue">if</text>
</g>
<!-- HRF4 -->
<g id="node9" class="node">
<title>HRF4</title>
<g id="a_node9"><a xlink:title="Renal disease.">
<ellipse fill="none" stroke="blue" cx="821.19" cy="-366" rx="76.09" ry="18"/>
<text text-anchor="middle" x="821.19" y="-362.3" font-family="Times,serif" font-size="14.00" fill="blue">Renal Disease</text>
</a>
</g>
</g>
<!-- InitialPopulation&#45;&gt;HRF4 -->
<g id="edge7" class="edge">
<title>InitialPopulation&#45;&gt;HRF4</title>
<path fill="none" stroke="blue" d="M869.84,-434.8C861.11,-422.62 849.24,-406.09 839.42,-392.4"/>
<polygon fill="blue" stroke="blue" points="841.98,-389.97 833.31,-383.89 836.29,-394.05 841.98,-389.97"/>
<text text-anchor="middle" x="861.19" y="-405.8" font-family="Times,serif" font-size="14.00" fill="blue">if</text>
</g>
<!-- HRF5 -->
<g id="node10" class="node">
<title>HRF5</title>
<g id="a_node10"><a xlink:title="Autoimmune disorders such as lupus or antiphospholipid syndrome.">
<ellipse fill="none" stroke="blue" cx="1033.19" cy="-366" rx="118.08" ry="18"/>
<text text-anchor="middle" x="1033.19" y="-362.3" font-family="Times,serif" font-size="14.00" fill="blue">Autoimmune Disorders</text>
</a>
</g>
</g>
<!-- InitialPopulation&#45;&gt;HRF5 -->
<g id="edge9" class="edge">
<title>InitialPopulation&#45;&gt;HRF5</title>
<path fill="none" stroke="blue" d="M912.75,-434.8C936.46,-421.45 969.48,-402.86 994.95,-388.53"/>
<polygon fill="blue" stroke="blue" points="996.96,-391.41 1003.96,-383.45 993.53,-385.31 996.96,-391.41"/>
<text text-anchor="middle" x="972.19" y="-405.8" font-family="Times,serif" font-size="14.00" fill="blue">if</text>
</g>
<!-- HRF6 -->
<g id="node11" class="node">
<title>HRF6</title>
<g id="a_node11"><a xlink:title="Multiple gestation (twins or more).">
<ellipse fill="none" stroke="blue" cx="1267.19" cy="-366" rx="97.48" ry="18"/>
<text text-anchor="middle" x="1267.19" y="-362.3" font-family="Times,serif" font-size="14.00" fill="blue">Multiple Gestation</text>
</a>
</g>
</g>
<!-- InitialPopulation&#45;&gt;HRF6 -->
<g id="edge11" class="edge">
<title>InitialPopulation&#45;&gt;HRF6</title>
<path fill="none" stroke="blue" d="M951.91,-436.61C1021.41,-421.26 1127.55,-397.83 1197.16,-382.46"/>
<polygon fill="blue" stroke="blue" points="1198.15,-385.83 1207.16,-380.25 1196.64,-378.99 1198.15,-385.83"/>
<text text-anchor="middle" x="1103.19" y="-405.8" font-family="Times,serif" font-size="14.00" fill="blue">if</text>
</g>
<!-- HRF7 -->
<g id="node12" class="node">
<title>HRF7</title>
<g id="a_node12"><a xlink:title="Obesity (BMI ≥ 30).">
<ellipse fill="none" stroke="blue" cx="1429.19" cy="-366" rx="46.29" ry="18"/>
<text text-anchor="middle" x="1429.19" y="-362.3" font-family="Times,serif" font-size="14.00" fill="blue">Obesity</text>
</a>
</g>
</g>
<!-- InitialPopulation&#45;&gt;HRF7 -->
<g id="edge13" class="edge">
<title>InitialPopulation&#45;&gt;HRF7</title>
<path fill="none" stroke="blue" d="M951.91,-445.83C1047.65,-436.56 1224.83,-416.58 1373.19,-384 1377.1,-383.14 1381.13,-382.15 1385.15,-381.07"/>
<polygon fill="blue" stroke="blue" points="1386.38,-384.36 1395.06,-378.29 1384.49,-377.62 1386.38,-384.36"/>
<text text-anchor="middle" x="1285.19" y="-405.8" font-family="Times,serif" font-size="14.00" fill="blue">if</text>
</g>
<!-- HRF8 -->
<g id="node13" class="node">
<title>HRF8</title>
<g id="a_node13"><a xlink:title="Advanced maternal age (≥ 35 years).">
<ellipse fill="none" stroke="blue" cx="1615.19" cy="-366" rx="121.58" ry="18"/>
<text text-anchor="middle" x="1615.19" y="-362.3" font-family="Times,serif" font-size="14.00" fill="blue">Advanced Maternal Age</text>
</a>
</g>
</g>
<!-- InitialPopulation&#45;&gt;HRF8 -->
<g id="edge15" class="edge">
<title>InitialPopulation&#45;&gt;HRF8</title>
<path fill="none" stroke="blue" d="M951.96,-447.56C1034.02,-442 1174.27,-431.41 1294.19,-417 1374.45,-407.35 1465.46,-392.83 1530.03,-381.92"/>
<polygon fill="blue" stroke="blue" points="1530.88,-385.33 1540.16,-380.2 1529.71,-378.43 1530.88,-385.33"/>
<text text-anchor="middle" x="1406.19" y="-405.8" font-family="Times,serif" font-size="14.00" fill="blue">if</text>
</g>
<!-- SubsetScreening -->
<g id="node2" class="node">
<title>SubsetScreening</title>
<g id="a_node2"><a xlink:title="Pregnant women identified from the initial population who have one or more high&#45;risk factors for developing preeclampsia.">
<path fill="none" stroke="green" d="M1041.69,-297C1041.69,-297 812.69,-297 812.69,-297 806.69,-297 800.69,-291 800.69,-285 800.69,-285 800.69,-273 800.69,-273 800.69,-267 806.69,-261 812.69,-261 812.69,-261 1041.69,-261 1041.69,-261 1047.69,-261 1053.69,-267 1053.69,-273 1053.69,-273 1053.69,-285 1053.69,-285 1053.69,-291 1047.69,-297 1041.69,-297"/>
<text text-anchor="middle" x="927.19" y="-275.3" font-family="Times,serif" font-size="14.00" fill="green">Subset Considered for Screening</text>
</a>
</g>
</g>
<!-- ExclusionCriteria -->
<g id="node3" class="node">
<title>ExclusionCriteria</title>
<g id="a_node3"><a xlink:title="Women with known contraindications to antihypertensive medications, severe comorbid conditions, non&#45;compliance with prenatal care, or known fetal anomalies incompatible with life.">
<path fill="none" stroke="green" d="M988.19,-210C988.19,-210 866.19,-210 866.19,-210 860.19,-210 854.19,-204 854.19,-198 854.19,-198 854.19,-186 854.19,-186 854.19,-180 860.19,-174 866.19,-174 866.19,-174 988.19,-174 988.19,-174 994.19,-174 1000.19,-180 1000.19,-186 1000.19,-186 1000.19,-198 1000.19,-198 1000.19,-204 994.19,-210 988.19,-210"/>
<text text-anchor="middle" x="927.19" y="-188.3" font-family="Times,serif" font-size="14.00" fill="green">Exclusion Criteria</text>
</a>
</g>
</g>
<!-- SubsetScreening&#45;&gt;ExclusionCriteria -->
<g id="edge17" class="edge">
<title>SubsetScreening&#45;&gt;ExclusionCriteria</title>
<path fill="none" stroke="blue" d="M927.19,-260.8C927.19,-249.16 927.19,-233.55 927.19,-220.24"/>
<polygon fill="blue" stroke="blue" points="930.69,-220.18 927.19,-210.18 923.69,-220.18 930.69,-220.18"/>
<text text-anchor="middle" x="932.19" y="-231.8" font-family="Times,serif" font-size="14.00" fill="blue">if</text>
</g>
<!-- DiagnosticInterventions -->
<g id="node4" class="node">
<title>DiagnosticInterventions</title>
<g id="a_node4"><a xlink:title="Regular blood pressure monitoring, urine protein testing, blood tests, ultrasound assessments, and non&#45;stress tests or biophysical profiles as indicated.">
<path fill="none" stroke="green" d="M1011.69,-123C1011.69,-123 842.69,-123 842.69,-123 836.69,-123 830.69,-117 830.69,-111 830.69,-111 830.69,-99 830.69,-99 830.69,-93 836.69,-87 842.69,-87 842.69,-87 1011.69,-87 1011.69,-87 1017.69,-87 1023.69,-93 1023.69,-99 1023.69,-99 1023.69,-111 1023.69,-111 1023.69,-117 1017.69,-123 1011.69,-123"/>
<text text-anchor="middle" x="927.19" y="-101.3" font-family="Times,serif" font-size="14.00" fill="green">Diagnostic Interventions</text>
</a>
</g>
</g>
<!-- ExclusionCriteria&#45;&gt;DiagnosticInterventions -->
<g id="edge18" class="edge">
<title>ExclusionCriteria&#45;&gt;DiagnosticInterventions</title>
<path fill="none" stroke="blue" d="M927.19,-173.8C927.19,-162.16 927.19,-146.55 927.19,-133.24"/>
<polygon fill="blue" stroke="blue" points="930.69,-133.18 927.19,-123.18 923.69,-133.18 930.69,-133.18"/>
<text text-anchor="middle" x="943.69" y="-144.8" font-family="Times,serif" font-size="14.00" fill="blue">then</text>
</g>
<!-- SuccessfulScreens -->
<g id="node5" class="node">
<title>SuccessfulScreens</title>
<g id="a_node5"><a xlink:title="Blood pressure readings consistently below 140/90 mmHg, absence of significant proteinuria, normal lab test results, normal fetal growth, and no signs of severe preeclampsia.">
<path fill="none" stroke="green" d="M1045.19,-36C1045.19,-36 809.19,-36 809.19,-36 803.19,-36 797.19,-30 797.19,-24 797.19,-24 797.19,-12 797.19,-12 797.19,-6 803.19,0 809.19,0 809.19,0 1045.19,0 1045.19,0 1051.19,0 1057.19,-6 1057.19,-12 1057.19,-12 1057.19,-24 1057.19,-24 1057.19,-30 1051.19,-36 1045.19,-36"/>
<text text-anchor="middle" x="927.19" y="-14.3" font-family="Times,serif" font-size="14.00" fill="green">Conditions for Successful Screens</text>
</a>
</g>
</g>
<!-- DiagnosticInterventions&#45;&gt;SuccessfulScreens -->
<g id="edge19" class="edge">
<title>DiagnosticInterventions&#45;&gt;SuccessfulScreens</title>
<path fill="none" stroke="blue" d="M927.19,-86.8C927.19,-75.16 927.19,-59.55 927.19,-46.24"/>
<polygon fill="blue" stroke="blue" points="930.69,-46.18 927.19,-36.18 923.69,-46.18 930.69,-46.18"/>
<text text-anchor="middle" x="932.19" y="-57.8" font-family="Times,serif" font-size="14.00" fill="blue">if</text>
</g>
<!-- HRF1&#45;&gt;SubsetScreening -->
<g id="edge2" class="edge">
<title>HRF1&#45;&gt;SubsetScreening</title>
<path fill="none" stroke="blue" d="M209.84,-353.37C224.63,-351.51 239.84,-349.65 254.19,-348 439.71,-326.68 654.43,-305.61 790.49,-292.71"/>
<polygon fill="blue" stroke="blue" points="790.93,-296.18 800.56,-291.75 790.27,-289.21 790.93,-296.18"/>
<text text-anchor="middle" x="566.69" y="-318.8" font-family="Times,serif" font-size="14.00" fill="blue">then</text>
</g>
<!-- HRF2&#45;&gt;SubsetScreening -->
<g id="edge4" class="edge">
<title>HRF2&#45;&gt;SubsetScreening</title>
<path fill="none" stroke="blue" d="M453.11,-353C545.11,-338.83 699.18,-315.11 806.63,-298.57"/>
<polygon fill="blue" stroke="blue" points="807.2,-302.02 816.55,-297.04 806.13,-295.1 807.2,-302.02"/>
<text text-anchor="middle" x="701.69" y="-318.8" font-family="Times,serif" font-size="14.00" fill="blue">then</text>
</g>
<!-- HRF3&#45;&gt;SubsetScreening -->
<g id="edge6" class="edge">
<title>HRF3&#45;&gt;SubsetScreening</title>
<path fill="none" stroke="blue" d="M670.36,-350.19C721.5,-336.22 798.54,-315.16 854.9,-299.76"/>
<polygon fill="blue" stroke="blue" points="856.1,-303.06 864.82,-297.05 854.25,-296.31 856.1,-303.06"/>
<text text-anchor="middle" x="807.69" y="-318.8" font-family="Times,serif" font-size="14.00" fill="blue">then</text>
</g>
<!-- HRF4&#45;&gt;SubsetScreening -->
<g id="edge8" class="edge">
<title>HRF4&#45;&gt;SubsetScreening</title>
<path fill="none" stroke="blue" d="M841.63,-348.61C857.59,-335.81 879.99,-317.85 897.87,-303.51"/>
<polygon fill="blue" stroke="blue" points="900.11,-306.2 905.72,-297.21 895.73,-300.74 900.11,-306.2"/>
<text text-anchor="middle" x="897.69" y="-318.8" font-family="Times,serif" font-size="14.00" fill="blue">then</text>
</g>
<!-- HRF5&#45;&gt;SubsetScreening -->
<g id="edge10" class="edge">
<title>HRF5&#45;&gt;SubsetScreening</title>
<path fill="none" stroke="blue" d="M1012.25,-348.21C996.38,-335.48 974.37,-317.84 956.72,-303.68"/>
<polygon fill="blue" stroke="blue" points="958.44,-300.57 948.45,-297.05 954.06,-306.04 958.44,-300.57"/>
<text text-anchor="middle" x="1003.69" y="-318.8" font-family="Times,serif" font-size="14.00" fill="blue">then</text>
</g>
<!-- HRF6&#45;&gt;SubsetScreening -->
<g id="edge12" class="edge">
<title>HRF6&#45;&gt;SubsetScreening</title>
<path fill="none" stroke="blue" d="M1211.81,-351.15C1155.72,-337.13 1068.48,-315.32 1005.37,-299.54"/>
<polygon fill="blue" stroke="blue" points="1006,-296.1 995.45,-297.07 1004.31,-302.89 1006,-296.1"/>
<text text-anchor="middle" x="1134.69" y="-318.8" font-family="Times,serif" font-size="14.00" fill="blue">then</text>
</g>
<!-- HRF7&#45;&gt;SubsetScreening -->
<g id="edge14" class="edge">
<title>HRF7&#45;&gt;SubsetScreening</title>
<path fill="none" stroke="blue" d="M1395.04,-353.79C1387.87,-351.67 1380.32,-349.62 1373.19,-348 1270.59,-324.73 1152.87,-307.16 1064.14,-295.71"/>
<polygon fill="blue" stroke="blue" points="1064.38,-292.21 1054.01,-294.42 1063.49,-299.16 1064.38,-292.21"/>
<text text-anchor="middle" x="1293.69" y="-318.8" font-family="Times,serif" font-size="14.00" fill="blue">then</text>
</g>
<!-- HRF8&#45;&gt;SubsetScreening -->
<g id="edge16" class="edge">
<title>HRF8&#45;&gt;SubsetScreening</title>
<path fill="none" stroke="blue" d="M1543.04,-351.46C1482.2,-340.42 1392.74,-325.06 1314.19,-315 1231.43,-304.4 1138.3,-295.87 1064.15,-289.89"/>
<polygon fill="blue" stroke="blue" points="1064.06,-286.37 1053.81,-289.06 1063.5,-293.35 1064.06,-286.37"/>
<text text-anchor="middle" x="1430.69" y="-318.8" font-family="Times,serif" font-size="14.00" fill="blue">then</text>
</g>
</g>
</svg>
