<?xml version="1.0" encoding="UTF-8" standalone="no"?><!DOCTYPE svg PUBLIC "-//W3C//DTD SVG 1.1//EN" "http://www.w3.org/Graphics/SVG/1.1/DTD/svg11.dtd"><!-- Generated by graphviz version 2.40.1 (20161225.0304)
 --><!-- Title: G Pages: 1 --><svg xmlns="http://www.w3.org/2000/svg" xmlns:xlink="http://www.w3.org/1999/xlink" width="860pt" height="389pt" viewBox="0.00 0.00 860.01 389.00">
<g id="graph0" class="graph" transform="scale(1 1) rotate(0) translate(4 385)">
<title>G</title>
<polygon fill="#ffffff" stroke="transparent" points="-4,4 -4,-385 856.0117,-385 856.0117,4 -4,4"/>
<!-- start -->
<g id="node1" class="node">
<title>start</title>
<polygon fill="none" stroke="#000000" points="770.6733,-380.8019 669.9131,-380.8019 669.9131,-339.5981 770.6733,-339.5981 770.6733,-380.8019"/>
<text text-anchor="middle" x="720.2932" y="-364.4" font-family="Times,serif" font-size="14.00" fill="#000000">Start</text>
<text text-anchor="middle" x="720.2932" y="-347.6" font-family="Times,serif" font-size="14.00" fill="#000000">All Individuals</text>
</g>
<!-- hasCervix -->
<g id="node2" class="node">
<title>hasCervix</title>
<polygon fill="none" stroke="#0000ff" points="720.2932,-302.4 630.4592,-284.4 720.2932,-266.4 810.1272,-284.4 720.2932,-302.4"/>
<text text-anchor="middle" x="720.2932" y="-280.2" font-family="Times,serif" font-size="14.00" fill="#0000ff">Has a cervix?</text>
</g>
<!-- start&#45;&gt;hasCervix -->
<g id="edge1" class="edge">
<title>start-&gt;hasCervix</title>
<path fill="none" stroke="#000000" d="M720.2932,-339.4873C720.2932,-331.1698 720.2932,-321.4512 720.2932,-312.5124"/>
<polygon fill="#000000" stroke="#000000" points="723.7933,-312.5078 720.2932,-302.5078 716.7933,-312.5079 723.7933,-312.5078"/>
</g>
<!-- age -->
<g id="node3" class="node">
<title>age</title>
<polygon fill="none" stroke="#0000ff" points="641.2932,-213.6 542.4698,-195.6 641.2932,-177.6 740.1166,-195.6 641.2932,-213.6"/>
<text text-anchor="middle" x="641.2932" y="-191.4" font-family="Times,serif" font-size="14.00" fill="#0000ff">21 to 29 years?</text>
</g>
<!-- hasCervix&#45;&gt;age -->
<g id="edge2" class="edge">
<title>hasCervix-&gt;age</title>
<path fill="none" stroke="#000000" d="M706.5325,-268.9322C694.2602,-255.1375 676.1166,-234.7432 662.0765,-218.9615"/>
<polygon fill="#000000" stroke="#000000" points="664.4231,-216.3334 655.1613,-211.1885 659.1932,-220.9862 664.4231,-216.3334"/>
<text text-anchor="middle" x="698.1761" y="-235.8" font-family="Times,serif" font-size="14.00" fill="#000000">Yes</text>
</g>
<!-- notRecommendedHysterectomyNoHistory -->
<g id="node8" class="node">
<title>notRecommendedHysterectomyNoHistory</title>
<polygon fill="none" stroke="#ff0000" points="852.2308,-36 678.3556,-36 678.3556,0 852.2308,0 852.2308,-36"/>
<text text-anchor="middle" x="765.2932" y="-13.8" font-family="Times,serif" font-size="14.00" fill="#ff0000">Not recommended to screen</text>
</g>
<!-- hasCervix&#45;&gt;notRecommendedHysterectomyNoHistory -->
<g id="edge3" class="edge">
<title>hasCervix-&gt;notRecommendedHysterectomyNoHistory</title>
<path fill="none" stroke="#000000" d="M729.0035,-267.7612C743.2905,-239.3802 771.0407,-179.3764 780.2932,-124.8 784.8116,-98.148 779.4627,-67.5892 773.939,-46.007"/>
<polygon fill="#000000" stroke="#000000" points="777.2685,-44.9131 771.2558,-36.1896 770.5162,-46.7586 777.2685,-44.9131"/>
<text text-anchor="middle" x="784.8465" y="-147" font-family="Times,serif" font-size="14.00" fill="#000000">No</text>
</g>
<!-- age30to65 -->
<g id="node4" class="node">
<title>age30to65</title>
<polygon fill="none" stroke="#0000ff" points="394.2932,-124.8 295.4698,-106.8 394.2932,-88.8 493.1166,-106.8 394.2932,-124.8"/>
<text text-anchor="middle" x="394.2932" y="-102.6" font-family="Times,serif" font-size="14.00" fill="#0000ff">30 to 65 years?</text>
</g>
<!-- age&#45;&gt;age30to65 -->
<g id="edge5" class="edge">
<title>age-&gt;age30to65</title>
<path fill="none" stroke="#000000" d="M607.9817,-183.624C563.8785,-167.7683 486.0352,-139.7826 437.4666,-122.3214"/>
<polygon fill="#000000" stroke="#000000" points="438.4603,-118.9594 427.8658,-118.8698 436.092,-125.5467 438.4603,-118.9594"/>
<text text-anchor="middle" x="548.8465" y="-147" font-family="Times,serif" font-size="14.00" fill="#000000">No</text>
</g>
<!-- screening21to29 -->
<g id="node5" class="node">
<title>screening21to29</title>
<polygon fill="none" stroke="#00ff00" points="771.6882,-124.8 510.8982,-124.8 510.8982,-88.8 771.6882,-88.8 771.6882,-124.8"/>
<text text-anchor="middle" x="641.2932" y="-102.6" font-family="Times,serif" font-size="14.00" fill="#00ff00">Screen every 3 years with cervical cytology</text>
</g>
<!-- age&#45;&gt;screening21to29 -->
<g id="edge4" class="edge">
<title>age-&gt;screening21to29</title>
<path fill="none" stroke="#000000" d="M641.2932,-177.2006C641.2932,-165.0949 641.2932,-149.0076 641.2932,-135.2674"/>
<polygon fill="#000000" stroke="#000000" points="644.7933,-134.872 641.2932,-124.872 637.7933,-134.8721 644.7933,-134.872"/>
<text text-anchor="middle" x="652.1761" y="-147" font-family="Times,serif" font-size="14.00" fill="#000000">Yes</text>
</g>
<!-- screening30to65HPV -->
<g id="node6" class="node">
<title>screening30to65HPV</title>
<polygon fill="none" stroke="#00ff00" points="244.3799,-36 .2065,-36 .2065,0 244.3799,0 244.3799,-36"/>
<text text-anchor="middle" x="122.2932" y="-13.8" font-family="Times,serif" font-size="14.00" fill="#00ff00">Screen every 5 years with hrHPV testing</text>
</g>
<!-- age30to65&#45;&gt;screening30to65HPV -->
<g id="edge6" class="edge">
<title>age30to65-&gt;screening30to65HPV</title>
<path fill="none" stroke="#000000" d="M358.734,-95.191C315.3535,-81.0285 241.1679,-56.8091 187.4453,-39.2703"/>
<polygon fill="#000000" stroke="#000000" points="188.2568,-35.8534 177.6643,-36.077 186.0843,-42.5078 188.2568,-35.8534"/>
<text text-anchor="middle" x="294.1761" y="-58.2" font-family="Times,serif" font-size="14.00" fill="#000000">Yes</text>
</g>
<!-- screening30to65CoTesting -->
<g id="node7" class="node">
<title>screening30to65CoTesting</title>
<polygon fill="none" stroke="#00ff00" points="593.8058,-36 262.7806,-36 262.7806,0 593.8058,0 593.8058,-36"/>
<text text-anchor="middle" x="428.2932" y="-13.8" font-family="Times,serif" font-size="14.00" fill="#00ff00">Screen every 5 years with hrHPV + cytology (cotesting)</text>
</g>
<!-- age30to65&#45;&gt;screening30to65CoTesting -->
<g id="edge7" class="edge">
<title>age30to65-&gt;screening30to65CoTesting</title>
<path fill="none" stroke="#000000" d="M400.8487,-89.6785C405.6151,-77.2299 412.1698,-60.1105 417.6782,-45.724"/>
<polygon fill="#000000" stroke="#000000" points="420.9825,-46.8821 421.2896,-36.2917 414.4452,-44.3791 420.9825,-46.8821"/>
<text text-anchor="middle" x="426.1761" y="-58.2" font-family="Times,serif" font-size="14.00" fill="#000000">Yes</text>
</g>
<!-- age30to65&#45;&gt;notRecommendedHysterectomyNoHistory -->
<g id="edge8" class="edge">
<title>age30to65-&gt;notRecommendedHysterectomyNoHistory</title>
<path fill="none" stroke="#000000" d="M437.214,-96.5268C496.3582,-82.3704 604.1964,-56.559 680.0556,-38.4019"/>
<polygon fill="#000000" stroke="#000000" points="681.1621,-41.736 690.0727,-36.0043 679.5326,-34.9283 681.1621,-41.736"/>
<text text-anchor="middle" x="621.8465" y="-58.2" font-family="Times,serif" font-size="14.00" fill="#000000">No</text>
</g>
</g>
</svg>