<?xml version="1.0" encoding="UTF-8" standalone="no"?><!DOCTYPE svg PUBLIC "-//W3C//DTD SVG 1.1//EN" "http://www.w3.org/Graphics/SVG/1.1/DTD/svg11.dtd"><!-- Generated by graphviz version 2.40.1 (20161225.0304)
 --><!-- Title: BreastCancerScreening Pages: 1 --><svg xmlns="http://www.w3.org/2000/svg" xmlns:xlink="http://www.w3.org/1999/xlink" width="1136pt" height="447pt" viewBox="0.00 0.00 1136.45 447.40">
<g id="graph0" class="graph" transform="scale(1 1) rotate(0) translate(4 443.4)">
<title>BreastCancerScreening</title>
<polygon fill="#ffffff" stroke="transparent" points="-4,4 -4,-443.4 1132.4503,-443.4 1132.4503,4 -4,4"/>
<!-- Start -->
<g id="node1" class="node">
<title>Start</title>
<polygon fill="none" stroke="#000000" points="663.7562,-439.4 332.9746,-439.4 332.9746,-403.4 663.7562,-403.4 663.7562,-439.4"/>
<text text-anchor="middle" x="498.3654" y="-417.2" font-family="Times,serif" font-size="14.00" fill="#000000">Patient Presents for Breast Cancer Screening Evaluation</text>
</g>
<!-- Exclusion -->
<g id="node2" class="node">
<title>Exclusion</title>
<polygon fill="none" stroke="#000000" points="655.522,-330.2019 341.2088,-330.2019 341.2088,-288.9981 655.522,-288.9981 655.522,-330.2019"/>
<text text-anchor="middle" x="498.3654" y="-313.8" font-family="Times,serif" font-size="14.00" fill="#000000">Patient has exclusion criteria</text>
<text text-anchor="middle" x="498.3654" y="-297" font-family="Times,serif" font-size="14.00" fill="#000000">(e.g., previous breast cancer, genetic predisposition)?</text>
</g>
<!-- Start&#45;&gt;Exclusion -->
<g id="edge1" class="edge">
<title>Start-&gt;Exclusion</title>
<path fill="none" stroke="#000000" d="M498.3654,-402.9385C498.3654,-386.0104 498.3654,-360.6049 498.3654,-340.5713"/>
<polygon fill="#000000" stroke="#000000" points="501.8655,-340.3708 498.3654,-330.3708 494.8655,-340.3708 501.8655,-340.3708"/>
</g>
<!-- ReferSpecialist -->
<g id="node3" class="node">
<title>ReferSpecialist</title>
<polygon fill="none" stroke="#000000" points="525.9384,-200 408.7924,-200 408.7924,-164 525.9384,-164 525.9384,-200"/>
<text text-anchor="middle" x="467.3654" y="-177.8" font-family="Times,serif" font-size="14.00" fill="#000000">Refer to specialist</text>
</g>
<!-- Exclusion&#45;&gt;ReferSpecialist -->
<g id="edge2" class="edge">
<title>Exclusion-&gt;ReferSpecialist</title>
<path fill="none" stroke="#000000" d="M493.3157,-288.8149C488.1148,-267.4074 479.9757,-233.9056 474.2008,-210.1353"/>
<polygon fill="#000000" stroke="#000000" points="477.5715,-209.1836 471.8095,-200.2926 470.7693,-210.8362 477.5715,-209.1836"/>
<text text-anchor="middle" x="495.2483" y="-240.2" font-family="Times,serif" font-size="14.00" fill="#000000">Yes</text>
</g>
<!-- PatientAge -->
<g id="node4" class="node">
<title>PatientAge</title>
<polygon fill="none" stroke="#000000" points="643.0707,-200 561.6601,-200 561.6601,-164 643.0707,-164 643.0707,-200"/>
<text text-anchor="middle" x="602.3654" y="-177.8" font-family="Times,serif" font-size="14.00" fill="#000000">Patient Age</text>
</g>
<!-- Exclusion&#45;&gt;PatientAge -->
<g id="edge3" class="edge">
<title>Exclusion-&gt;PatientAge</title>
<path fill="none" stroke="#000000" d="M515.3063,-288.8149C533.2238,-266.8314 561.5364,-232.094 580.9801,-208.2381"/>
<polygon fill="#000000" stroke="#000000" points="583.8513,-210.2553 587.4561,-200.2926 578.4252,-205.8328 583.8513,-210.2553"/>
<text text-anchor="middle" x="565.9187" y="-240.2" font-family="Times,serif" font-size="14.00" fill="#000000">No</text>
</g>
<!-- Age50to74 -->
<g id="node5" class="node">
<title>Age50to74</title>
<polygon fill="none" stroke="#000000" points="212.5964,-55.6 .1344,-55.6 .1344,-19.6 212.5964,-19.6 212.5964,-55.6"/>
<text text-anchor="middle" x="106.3654" y="-33.4" font-family="Times,serif" font-size="14.00" fill="#000000">Biennial Screening Mammography</text>
</g>
<!-- PatientAge&#45;&gt;Age50to74 -->
<g id="edge4" class="edge">
<title>PatientAge-&gt;Age50to74</title>
<path fill="none" stroke="#000000" d="M561.5283,-169.1843C555.7727,-167.4195 549.9249,-165.6485 544.3654,-164 405.3206,-122.7701 369.5436,-115.9773 230.3654,-75.2 212.249,-69.8922 192.6854,-64.0238 174.57,-58.5329"/>
<polygon fill="#000000" stroke="#000000" points="175.5455,-55.1713 164.9599,-55.6143 173.5113,-61.8693 175.5455,-55.1713"/>
<text text-anchor="middle" x="453.8279" y="-115.4" font-family="Times,serif" font-size="14.00" fill="#000000">50 to 74 years</text>
</g>
<!-- Age40to49 -->
<g id="node6" class="node">
<title>Age40to49</title>
<polygon fill="none" stroke="#000000" points="590.2634,-75.3003 248.4674,-75.3003 248.4674,.1003 590.2634,.1003 590.2634,-75.3003"/>
<text text-anchor="middle" x="419.3654" y="-58.6" font-family="Times,serif" font-size="14.00" fill="#000000">Individual Decision</text>
<text text-anchor="middle" x="419.3654" y="-41.8" font-family="Times,serif" font-size="14.00" fill="#000000">- Consider patient context</text>
<text text-anchor="middle" x="419.3654" y="-25" font-family="Times,serif" font-size="14.00" fill="#000000">- Discuss benefits and harms</text>
<text text-anchor="middle" x="419.3654" y="-8.2" font-family="Times,serif" font-size="14.00" fill="#000000">- If decision to screen: Biennial Screening Mammography</text>
</g>
<!-- PatientAge&#45;&gt;Age40to49 -->
<g id="edge5" class="edge">
<title>PatientAge-&gt;Age40to49</title>
<path fill="none" stroke="#000000" d="M579.1883,-163.7116C553.278,-143.2665 510.3856,-109.4214 475.5559,-81.9383"/>
<polygon fill="#000000" stroke="#000000" points="477.366,-78.9082 467.3475,-75.4613 473.0298,-84.4034 477.366,-78.9082"/>
<text text-anchor="middle" x="572.8279" y="-115.4" font-family="Times,serif" font-size="14.00" fill="#000000">40 to 49 years</text>
</g>
<!-- Age75plus -->
<g id="node7" class="node">
<title>Age75plus</title>
<polygon fill="none" stroke="#000000" points="944.4588,-67.0014 626.272,-67.0014 626.272,-8.1986 944.4588,-8.1986 944.4588,-67.0014"/>
<text text-anchor="middle" x="785.3654" y="-50.2" font-family="Times,serif" font-size="14.00" fill="#000000">Insufficient Evidence</text>
<text text-anchor="middle" x="785.3654" y="-33.4" font-family="Times,serif" font-size="14.00" fill="#000000">- Discuss patient’s overall health and preferences</text>
<text text-anchor="middle" x="785.3654" y="-16.6" font-family="Times,serif" font-size="14.00" fill="#000000">- Consider screening based on individual health status</text>
</g>
<!-- PatientAge&#45;&gt;Age75plus -->
<g id="edge6" class="edge">
<title>PatientAge-&gt;Age75plus</title>
<path fill="none" stroke="#000000" d="M625.5425,-163.7116C654.2446,-141.0636 703.7854,-101.9724 740.1212,-73.3009"/>
<polygon fill="#000000" stroke="#000000" points="742.4418,-75.9282 748.1241,-66.986 738.1056,-70.4329 742.4418,-75.9282"/>
<text text-anchor="middle" x="736.5958" y="-115.4" font-family="Times,serif" font-size="14.00" fill="#000000">75 years or older</text>
</g>
<!-- NoScreening -->
<g id="node8" class="node">
<title>NoScreening</title>
<polygon fill="none" stroke="#000000" points="1128.5353,-55.6 980.1955,-55.6 980.1955,-19.6 1128.5353,-19.6 1128.5353,-55.6"/>
<text text-anchor="middle" x="1054.3654" y="-33.4" font-family="Times,serif" font-size="14.00" fill="#000000">No Screening Indicated</text>
</g>
<!-- PatientAge&#45;&gt;NoScreening -->
<g id="edge7" class="edge">
<title>PatientAge-&gt;NoScreening</title>
<path fill="none" stroke="#000000" d="M643.3377,-171.456C710.6522,-153.775 848.5415,-116.0488 962.3654,-75.2 975.5646,-70.4631 989.6557,-64.9442 1002.742,-59.6172"/>
<polygon fill="#000000" stroke="#000000" points="1004.1466,-62.8241 1012.0661,-55.7862 1001.4863,-56.3493 1004.1466,-62.8241"/>
<text text-anchor="middle" x="908.9261" y="-115.4" font-family="Times,serif" font-size="14.00" fill="#000000">Younger than 40 years</text>
</g>
</g>
</svg>