<?xml version="1.0" encoding="UTF-8" standalone="no"?><!DOCTYPE svg PUBLIC "-//W3C//DTD SVG 1.1//EN" "http://www.w3.org/Graphics/SVG/1.1/DTD/svg11.dtd"><!-- Generated by graphviz version 2.40.1 (20161225.0304)
 --><!-- Title: G Pages: 1 --><svg xmlns="http://www.w3.org/2000/svg" xmlns:xlink="http://www.w3.org/1999/xlink" width="850pt" height="400pt" viewBox="0.00 0.00 850.39 400.20">
<g id="graph0" class="graph" transform="scale(1 1) rotate(0) translate(4 396.2)">
<title>G</title>
<polygon fill="#ffffff" stroke="transparent" points="-4,4 -4,-396.2 846.3948,-396.2 846.3948,4 -4,4"/>
<!-- Start -->
<g id="node1" class="node">
<title>Start</title>
<polygon fill="none" stroke="#0000ff" points="559.0838,-389.4 425.2577,-389.4 425.2577,-353.4 559.0838,-353.4 559.0838,-389.4"/>
<text text-anchor="middle" x="492.1707" y="-367.2" font-family="Times,serif" font-size="14.00" fill="#0000ff">Adult Cancer Patient</text>
</g>
<!-- HasPain -->
<g id="node2" class="node">
<title>HasPain</title>
<polygon fill="none" stroke="#0000ff" points="492.1707,-313.6 421.4804,-295.6 492.1707,-277.6 562.861,-295.6 492.1707,-313.6"/>
<text text-anchor="middle" x="492.1707" y="-291.4" font-family="Times,serif" font-size="14.00" fill="#0000ff">Has Pain?</text>
</g>
<!-- Start&#45;&gt;HasPain -->
<g id="edge1" class="edge">
<title>Start-&gt;HasPain</title>
<path fill="none" stroke="#000000" d="M492.1707,-353.0509C492.1707,-344.2989 492.1707,-333.6314 492.1707,-323.8752"/>
<polygon fill="#000000" stroke="#000000" points="495.6708,-323.7801 492.1707,-313.7801 488.6708,-323.7801 495.6708,-323.7801"/>
</g>
<!-- PainType -->
<g id="node3" class="node">
<title>PainType</title>
<polygon fill="none" stroke="#0000ff" points="418.1707,-224.8 325.742,-206.8 418.1707,-188.8 510.5994,-206.8 418.1707,-224.8"/>
<text text-anchor="middle" x="418.1707" y="-202.6" font-family="Times,serif" font-size="14.00" fill="#0000ff">Type of Pain?</text>
</g>
<!-- HasPain&#45;&gt;PainType -->
<g id="edge2" class="edge">
<title>HasPain-&gt;PainType</title>
<path fill="none" stroke="#000000" d="M479.6176,-280.5363C468.1703,-266.7995 451.072,-246.2815 437.816,-230.3744"/>
<polygon fill="#000000" stroke="#000000" points="440.3752,-227.9782 431.2846,-222.5366 434.9977,-232.4595 440.3752,-227.9782"/>
<text text-anchor="middle" x="473.0536" y="-247" font-family="Times,serif" font-size="14.00" fill="#000000">Yes</text>
</g>
<!-- End -->
<g id="node10" class="node">
<title>End</title>
<polygon fill="none" stroke="#0000ff" points="566.1707,-224.8 528.4544,-206.8 566.1707,-188.8 603.887,-206.8 566.1707,-224.8"/>
<text text-anchor="middle" x="566.1707" y="-202.6" font-family="Times,serif" font-size="14.00" fill="#0000ff">End</text>
</g>
<!-- HasPain&#45;&gt;End -->
<g id="edge3" class="edge">
<title>HasPain-&gt;End</title>
<path fill="none" stroke="#000000" d="M504.7238,-280.5363C516.8032,-266.041 535.1748,-243.9951 548.6844,-227.7836"/>
<polygon fill="#000000" stroke="#000000" points="551.5337,-229.8316 555.2468,-219.9087 546.1561,-225.3503 551.5337,-229.8316"/>
<text text-anchor="middle" x="544.724" y="-247" font-family="Times,serif" font-size="14.00" fill="#000000">No</text>
</g>
<!-- NonOpioidIntolerant -->
<g id="node4" class="node">
<title>NonOpioidIntolerant</title>
<polygon fill="none" stroke="#0000ff" points="144.1707,-133.2 -.1709,-115.2 144.1707,-97.2 288.5123,-115.2 144.1707,-133.2"/>
<text text-anchor="middle" x="144.1707" y="-111" font-family="Times,serif" font-size="14.00" fill="#0000ff">Non-Opioid Intolerant?</text>
</g>
<!-- PainType&#45;&gt;NonOpioidIntolerant -->
<g id="edge4" class="edge">
<title>PainType-&gt;NonOpioidIntolerant</title>
<path fill="none" stroke="#000000" d="M376.0569,-196.981C349.1766,-190.3725 313.7251,-181.0216 282.9449,-170.8 249.5635,-159.7145 212.6344,-144.7844 185.2687,-133.1867"/>
<polygon fill="#000000" stroke="#000000" points="186.5808,-129.9413 176.0095,-129.2353 183.8332,-136.3796 186.5808,-129.9413"/>
<text text-anchor="middle" x="296.7836" y="-158.2" font-family="Times,serif" font-size="14.00" fill="#000000">Mild</text>
</g>
<!-- ModeratePainAction -->
<g id="node6" class="node">
<title>ModeratePainAction</title>
<polygon fill="none" stroke="#0000ff" points="410.7524,-41.4019 237.589,-41.4019 237.589,-.1981 410.7524,-.1981 410.7524,-41.4019"/>
<text text-anchor="middle" x="324.1707" y="-25" font-family="Times,serif" font-size="14.00" fill="#0000ff">Weak Opioid + Non-Opioid</text>
<text text-anchor="middle" x="324.1707" y="-8.2" font-family="Times,serif" font-size="14.00" fill="#0000ff">Frequency: Scheduled</text>
</g>
<!-- PainType&#45;&gt;ModeratePainAction -->
<g id="edge5" class="edge">
<title>PainType-&gt;ModeratePainAction</title>
<path fill="none" stroke="#000000" d="M393.4483,-193.5628C373.529,-181.4412 346.7407,-161.5202 333.5311,-136 320.0324,-109.9212 318.9081,-76.0124 320.4215,-51.748"/>
<polygon fill="#000000" stroke="#000000" points="323.9193,-51.9153 321.2352,-41.6661 316.942,-51.3522 323.9193,-51.9153"/>
<text text-anchor="middle" x="360.9905" y="-111" font-family="Times,serif" font-size="14.00" fill="#000000">Moderate</text>
</g>
<!-- SeverePainAction -->
<g id="node7" class="node">
<title>SeverePainAction</title>
<polygon fill="none" stroke="#0000ff" points="629.9954,-135.8019 396.346,-135.8019 396.346,-94.5981 629.9954,-94.5981 629.9954,-135.8019"/>
<text text-anchor="middle" x="513.1707" y="-119.4" font-family="Times,serif" font-size="14.00" fill="#0000ff">Strong Opioid</text>
<text text-anchor="middle" x="513.1707" y="-102.6" font-family="Times,serif" font-size="14.00" fill="#0000ff">Frequency: Scheduled + Rescue Doses</text>
</g>
<!-- PainType&#45;&gt;SeverePainAction -->
<g id="edge6" class="edge">
<title>PainType-&gt;SeverePainAction</title>
<path fill="none" stroke="#000000" d="M433.858,-191.6741C447.5684,-178.4544 467.823,-158.9247 484.4316,-142.9105"/>
<polygon fill="#000000" stroke="#000000" points="487.0001,-145.296 491.7694,-135.8353 482.1413,-140.2569 487.0001,-145.296"/>
<text text-anchor="middle" x="491.2142" y="-158.2" font-family="Times,serif" font-size="14.00" fill="#000000">Severe</text>
</g>
<!-- NeuropathicPainAction -->
<g id="node8" class="node">
<title>NeuropathicPainAction</title>
<polygon fill="none" stroke="#0000ff" points="842.6194,-135.8019 647.722,-135.8019 647.722,-94.5981 842.6194,-94.5981 842.6194,-135.8019"/>
<text text-anchor="middle" x="745.1707" y="-119.4" font-family="Times,serif" font-size="14.00" fill="#0000ff">Adjuvants for Neuropathic Pain</text>
<text text-anchor="middle" x="745.1707" y="-102.6" font-family="Times,serif" font-size="14.00" fill="#0000ff">Frequency: As per protocol</text>
</g>
<!-- PainType&#45;&gt;NeuropathicPainAction -->
<g id="edge7" class="edge">
<title>PainType-&gt;NeuropathicPainAction</title>
<path fill="none" stroke="#000000" d="M456.3217,-196.113C506.3192,-182.1076 595.3992,-157.1543 661.4585,-138.6496"/>
<polygon fill="#000000" stroke="#000000" points="662.7563,-141.9209 671.4416,-135.8532 660.8681,-135.1804 662.7563,-141.9209"/>
<text text-anchor="middle" x="636.7668" y="-158.2" font-family="Times,serif" font-size="14.00" fill="#000000">Neuropathic</text>
</g>
<!-- MildPainAction -->
<g id="node5" class="node">
<title>MildPainAction</title>
<polygon fill="none" stroke="#0000ff" points="218.2471,-41.4019 70.0943,-41.4019 70.0943,-.1981 218.2471,-.1981 218.2471,-41.4019"/>
<text text-anchor="middle" x="144.1707" y="-25" font-family="Times,serif" font-size="14.00" fill="#0000ff">Non-Opioid Analgesics</text>
<text text-anchor="middle" x="144.1707" y="-8.2" font-family="Times,serif" font-size="14.00" fill="#0000ff">Frequency: As needed</text>
</g>
<!-- NonOpioidIntolerant&#45;&gt;MildPainAction -->
<g id="edge8" class="edge">
<title>NonOpioidIntolerant-&gt;MildPainAction</title>
<path fill="none" stroke="#000000" d="M144.1707,-96.9987C144.1707,-84.2373 144.1707,-66.8584 144.1707,-51.9201"/>
<polygon fill="#000000" stroke="#000000" points="147.6708,-51.5749 144.1707,-41.5749 140.6708,-51.5749 147.6708,-51.5749"/>
<text text-anchor="middle" x="152.724" y="-63.8" font-family="Times,serif" font-size="14.00" fill="#000000">No</text>
</g>
<!-- NonOpioidIntolerant&#45;&gt;ModeratePainAction -->
<g id="edge9" class="edge">
<title>NonOpioidIntolerant-&gt;ModeratePainAction</title>
<path fill="none" stroke="#000000" d="M171.9012,-100.6569C199.4845,-86.191 242.3736,-63.698 275.6136,-46.2655"/>
<polygon fill="#000000" stroke="#000000" points="277.482,-49.2378 284.7124,-41.4937 274.2308,-43.0386 277.482,-49.2378"/>
<text text-anchor="middle" x="256.0536" y="-63.8" font-family="Times,serif" font-size="14.00" fill="#000000">Yes</text>
</g>
<!-- InterventionalProcedure -->
<g id="node9" class="node">
<title>InterventionalProcedure</title>
<polygon fill="none" stroke="#0000ff" points="785.4928,-392.0019 576.8486,-392.0019 576.8486,-350.7981 785.4928,-350.7981 785.4928,-392.0019"/>
<text text-anchor="middle" x="681.1707" y="-375.6" font-family="Times,serif" font-size="14.00" fill="#0000ff">Consider Interventional Procedure</text>
<text text-anchor="middle" x="681.1707" y="-358.8" font-family="Times,serif" font-size="14.00" fill="#0000ff">Based on case review</text>
</g>
</g>
</svg>