<?xml version="1.0" encoding="UTF-8" standalone="no"?><!DOCTYPE svg PUBLIC "-//W3C//DTD SVG 1.1//EN" "http://www.w3.org/Graphics/SVG/1.1/DTD/svg11.dtd"><!-- Generated by graphviz version 2.40.1 (20161225.0304)
 --><!-- Title: G Pages: 1 --><svg xmlns="http://www.w3.org/2000/svg" xmlns:xlink="http://www.w3.org/1999/xlink" width="742pt" height="316pt" viewBox="0.00 0.00 742.10 316.00">
<g id="graph0" class="graph" transform="scale(1 1) rotate(0) translate(4 312)">
<title>G</title>
<polygon fill="#ffffff" stroke="transparent" points="-4,4 -4,-312 738.1026,-312 738.1026,4 -4,4"/>
<!-- A -->
<g id="node1" class="node">
<title>A</title>
<polygon fill="none" stroke="#0000ff" points="464.4654,-308 315.5172,-290 464.4654,-272 613.4137,-290 464.4654,-308"/>
<text text-anchor="middle" x="464.4654" y="-285.8" font-family="Times,serif" font-size="14.00" fill="#0000ff">Woman ≥35 years old?</text>
</g>
<!-- B -->
<g id="node2" class="node">
<title>B</title>
<polygon fill="none" stroke="#0000ff" points="346.4654,-219.2 137.7895,-201.2 346.4654,-183.2 555.1414,-201.2 346.4654,-219.2"/>
<text text-anchor="middle" x="346.4654" y="-197" font-family="Times,serif" font-size="14.00" fill="#0000ff">At increased risk for breast cancer?</text>
</g>
<!-- A&#45;&gt;B -->
<g id="edge1" class="edge">
<title>A-&gt;B</title>
<path fill="none" stroke="#000000" d="M443.641,-274.3288C425.0327,-260.3252 397.5455,-239.6399 376.5491,-223.8392"/>
<polygon fill="#000000" stroke="#000000" points="378.3752,-220.8331 368.2804,-217.6167 374.1661,-226.4263 378.3752,-220.8331"/>
<text text-anchor="middle" x="427.3483" y="-241.4" font-family="Times,serif" font-size="14.00" fill="#000000">Yes</text>
</g>
<!-- E -->
<g id="node5" class="node">
<title>E</title>
<polygon fill="none" stroke="#000000" points="734.2399,-38.8 388.6909,-38.8 388.6909,-2.8 734.2399,-2.8 734.2399,-38.8"/>
<text text-anchor="middle" x="561.4654" y="-16.6" font-family="Times,serif" font-size="14.00" fill="#000000">Do not offer tamoxifen, raloxifene, or aromatase inhibitors</text>
</g>
<!-- A&#45;&gt;E -->
<g id="edge2" class="edge">
<title>A-&gt;E</title>
<path fill="none" stroke="#000000" d="M498.5321,-276.1023C521.7489,-264.6126 550.6854,-245.8404 564.4654,-219.2 592.8564,-164.3129 579.986,-88.9304 569.7394,-48.7258"/>
<polygon fill="#000000" stroke="#000000" points="573.1196,-47.8174 567.1522,-39.0629 566.3577,-49.6279 573.1196,-47.8174"/>
<text text-anchor="middle" x="589.0187" y="-152.6" font-family="Times,serif" font-size="14.00" fill="#000000">No</text>
</g>
<!-- C -->
<g id="node3" class="node">
<title>C</title>
<polygon fill="none" stroke="#0000ff" points="251.4654,-130.4 .0346,-112.4 251.4654,-94.4 502.8963,-112.4 251.4654,-130.4"/>
<text text-anchor="middle" x="251.4654" y="-108.2" font-family="Times,serif" font-size="14.00" fill="#0000ff">At low risk for adverse medication effects?</text>
</g>
<!-- B&#45;&gt;C -->
<g id="edge3" class="edge">
<title>B-&gt;C</title>
<path fill="none" stroke="#000000" d="M328.5967,-184.4974C314.093,-170.9403 293.4526,-151.6469 277.1727,-136.4296"/>
<polygon fill="#000000" stroke="#000000" points="279.2726,-133.6014 269.5771,-129.3296 274.4925,-138.7152 279.2726,-133.6014"/>
<text text-anchor="middle" x="319.3483" y="-152.6" font-family="Times,serif" font-size="14.00" fill="#000000">Yes</text>
</g>
<!-- B&#45;&gt;E -->
<g id="edge4" class="edge">
<title>B-&gt;E</title>
<path fill="none" stroke="#000000" d="M403.2101,-188.0632C438.1157,-177.494 481.7082,-159.4902 511.4654,-130.4 534.3658,-108.013 547.7595,-73.195 554.8261,-48.8266"/>
<polygon fill="#000000" stroke="#000000" points="558.2272,-49.6577 557.4765,-39.0895 551.4729,-47.8191 558.2272,-49.6577"/>
<text text-anchor="middle" x="546.0187" y="-108.2" font-family="Times,serif" font-size="14.00" fill="#000000">No</text>
</g>
<!-- D -->
<g id="node4" class="node">
<title>D</title>
<polygon fill="none" stroke="#000000" points="370.8495,-41.4019 64.0814,-41.4019 64.0814,-.1981 370.8495,-.1981 370.8495,-41.4019"/>
<text text-anchor="middle" x="217.4654" y="-25" font-family="Times,serif" font-size="14.00" fill="#000000">Offer tamoxifen, raloxifene, or aromatase inhibitors</text>
<text text-anchor="middle" x="217.4654" y="-8.2" font-family="Times,serif" font-size="14.00" fill="#000000">Frequency: As per clinical decision</text>
</g>
<!-- C&#45;&gt;D -->
<g id="edge5" class="edge">
<title>C-&gt;D</title>
<path fill="none" stroke="#000000" d="M244.9099,-94.7386C240.3317,-82.4044 234.1035,-65.6249 228.7375,-51.1683"/>
<polygon fill="#000000" stroke="#000000" points="231.9523,-49.7712 225.1912,-41.6141 225.3898,-52.2071 231.9523,-49.7712"/>
<text text-anchor="middle" x="249.3483" y="-63.8" font-family="Times,serif" font-size="14.00" fill="#000000">Yes</text>
</g>
<!-- C&#45;&gt;E -->
<g id="edge6" class="edge">
<title>C-&gt;E</title>
<path fill="none" stroke="#000000" d="M300.5858,-97.8857C351.7462,-82.7686 432.3856,-58.941 490.4717,-41.7775"/>
<polygon fill="#000000" stroke="#000000" points="491.718,-45.0589 500.3163,-38.8686 489.7343,-38.3458 491.718,-45.0589"/>
<text text-anchor="middle" x="434.0187" y="-63.8" font-family="Times,serif" font-size="14.00" fill="#000000">No</text>
</g>
</g>
</svg>