<?xml version="1.0" encoding="UTF-8" standalone="no"?><!DOCTYPE svg PUBLIC "-//W3C//DTD SVG 1.1//EN" "http://www.w3.org/Graphics/SVG/1.1/DTD/svg11.dtd"><!-- Generated by graphviz version 2.40.1 (20161225.0304)
 --><!-- Title: HypertensionTherapy Pages: 1 --><svg xmlns="http://www.w3.org/2000/svg" xmlns:xlink="http://www.w3.org/1999/xlink" width="1016pt" height="580pt" viewBox="0.00 0.00 1016.27 580.20">
<g id="graph0" class="graph" transform="scale(1 1) rotate(0) translate(4 576.2)">
<title>HypertensionTherapy</title>
<polygon fill="#ffffff" stroke="transparent" points="-4,4 -4,-576.2 1012.2737,-576.2 1012.2737,4 -4,4"/>
<!-- start -->
<g id="node1" class="node">
<title>start</title>
<ellipse fill="#d3d3d3" stroke="#d3d3d3" cx="598.1736" cy="-554.2" rx="410.2002" ry="18"/>
<text text-anchor="middle" x="598.1736" y="-550" font-family="Times,serif" font-size="14.00" fill="#000000">All motivated hypertensive patients should receive counseling about lifestyle interventions to lower BP</text>
</g>
<!-- systolic -->
<g id="node2" class="node">
<title>systolic</title>
<polygon fill="#add8e6" stroke="#add8e6" points="912.6398,-499.2 283.7074,-499.2 283.7074,-463.2 912.6398,-463.2 912.6398,-499.2"/>
<text text-anchor="middle" x="598.1736" y="-477" font-family="Times,serif" font-size="14.00" fill="#000000">Is the systolic pressure &gt;20 mmHg above the goal and/or is the diastolic pressure &gt;10 mmHg above the goal?</text>
</g>
<!-- start&#45;&gt;systolic -->
<g id="edge1" class="edge">
<title>start-&gt;systolic</title>
<path fill="none" stroke="#000000" d="M598.1736,-536.1551C598.1736,-528.0828 598.1736,-518.3764 598.1736,-509.3817"/>
<polygon fill="#000000" stroke="#000000" points="601.6737,-509.2903 598.1736,-499.2904 594.6737,-509.2904 601.6737,-509.2903"/>
</g>
<!-- acr -->
<g id="node3" class="node">
<title>acr</title>
<polygon fill="#add8e6" stroke="#add8e6" points="526.9494,-410.4 405.3978,-410.4 405.3978,-374.4 526.9494,-374.4 526.9494,-410.4"/>
<text text-anchor="middle" x="466.1736" y="-388.2" font-family="Times,serif" font-size="14.00" fill="#000000">ACR ≥300 mg/g?</text>
</g>
<!-- systolic&#45;&gt;acr -->
<g id="edge3" class="edge">
<title>systolic-&gt;acr</title>
<path fill="none" stroke="#000000" d="M571.1429,-463.0157C551.0335,-449.4876 523.4044,-430.9007 501.5396,-416.1917"/>
<polygon fill="#000000" stroke="#000000" points="503.419,-413.2377 493.1681,-410.56 499.5118,-419.0458 503.419,-413.2377"/>
<text text-anchor="middle" x="552.7269" y="-432.6" font-family="Times,serif" font-size="14.00" fill="#000000">No</text>
</g>
<!-- aceInhibitor -->
<g id="node4" class="node">
<title>aceInhibitor</title>
<polygon fill="#add8e6" stroke="#add8e6" points="975.6086,-356.4 492.7386,-356.4 492.7386,-320.4 975.6086,-320.4 975.6086,-356.4"/>
<text text-anchor="middle" x="734.1736" y="-334.2" font-family="Times,serif" font-size="14.00" fill="#000000">Initiate an ACE inhibitor (or ARB) plus a dihydropyridine calcium channel blocker</text>
</g>
<!-- systolic&#45;&gt;aceInhibitor -->
<g id="edge2" class="edge">
<title>systolic-&gt;aceInhibitor</title>
<path fill="none" stroke="#000000" d="M615.3981,-463.1143C639.1795,-438.1438 682.2108,-392.961 709.4305,-364.3803"/>
<polygon fill="#000000" stroke="#000000" points="712.2973,-366.4451 716.6594,-356.7899 707.2283,-361.6175 712.2973,-366.4451"/>
<text text-anchor="middle" x="656.0565" y="-432.6" font-family="Times,serif" font-size="14.00" fill="#000000">Yes</text>
</g>
<!-- aceArb -->
<g id="node5" class="node">
<title>aceArb</title>
<polygon fill="#add8e6" stroke="#add8e6" points="212.5211,-302.4 -.1739,-302.4 -.1739,-266.4 212.5211,-266.4 212.5211,-302.4"/>
<text text-anchor="middle" x="106.1736" y="-280.2" font-family="Times,serif" font-size="14.00" fill="#000000">Initiate an ACE inhibitor (or ARB)</text>
</g>
<!-- acr&#45;&gt;aceArb -->
<g id="edge4" class="edge">
<title>acr-&gt;aceArb</title>
<path fill="none" stroke="#000000" d="M405.9177,-374.3232C342.4834,-355.2929 242.7372,-325.3691 175.9346,-305.3283"/>
<polygon fill="#000000" stroke="#000000" points="176.9098,-301.9668 166.3258,-302.4456 174.8983,-308.6716 176.9098,-301.9668"/>
<text text-anchor="middle" x="351.0565" y="-334.2" font-family="Times,serif" font-size="14.00" fill="#000000">Yes</text>
</g>
<!-- aceDihydro -->
<g id="node6" class="node">
<title>aceDihydro</title>
<polygon fill="#add8e6" stroke="#add8e6" points="701.9341,-302.4 230.4131,-302.4 230.4131,-266.4 701.9341,-266.4 701.9341,-302.4"/>
<text text-anchor="middle" x="466.1736" y="-280.2" font-family="Times,serif" font-size="14.00" fill="#000000">Initiate an ACE inhibitor (or ARB) or a dihydropyridine calcium channel blocker</text>
</g>
<!-- acr&#45;&gt;aceDihydro -->
<g id="edge5" class="edge">
<title>acr-&gt;aceDihydro</title>
<path fill="none" stroke="#000000" d="M466.1736,-374.0793C466.1736,-357.221 466.1736,-331.9651 466.1736,-312.547"/>
<polygon fill="#000000" stroke="#000000" points="469.6737,-312.4501 466.1736,-302.4502 462.6737,-312.4502 469.6737,-312.4501"/>
<text text-anchor="middle" x="474.7269" y="-334.2" font-family="Times,serif" font-size="14.00" fill="#000000">No</text>
</g>
<!-- combineAce -->
<g id="node7" class="node">
<title>combineAce</title>
<polygon fill="#add8e6" stroke="#add8e6" points="712.1684,-213.6 220.1788,-213.6 220.1788,-177.6 712.1684,-177.6 712.1684,-213.6"/>
<text text-anchor="middle" x="466.1736" y="-191.4" font-family="Times,serif" font-size="14.00" fill="#000000">Combine an ACE inhibitor (or ARB) and a dihydropyridine calcium channel blocker</text>
</g>
<!-- aceInhibitor&#45;&gt;combineAce -->
<g id="edge6" class="edge">
<title>aceInhibitor-&gt;combineAce</title>
<path fill="none" stroke="#000000" d="M732.8678,-320.0897C730.7716,-303.9531 725.3224,-280.8287 711.1736,-266.4 691.3613,-246.1957 630.2514,-228.5164 574.0247,-215.8778"/>
<polygon fill="#000000" stroke="#000000" points="574.4791,-212.394 563.9597,-213.6564 572.9704,-219.2295 574.4791,-212.394"/>
<text text-anchor="middle" x="798.7718" y="-280.2" font-family="Times,serif" font-size="14.00" fill="#000000">BP remains uncontrolled</text>
</g>
<!-- aceArb&#45;&gt;combineAce -->
<g id="edge7" class="edge">
<title>aceArb-&gt;combineAce</title>
<path fill="none" stroke="#000000" d="M179.4589,-266.323C238.4657,-251.7679 321.4183,-231.3063 382.9258,-216.1345"/>
<polygon fill="#000000" stroke="#000000" points="384.1202,-219.4448 392.9909,-213.6517 382.4437,-212.6485 384.1202,-219.4448"/>
<text text-anchor="middle" x="388.7718" y="-235.8" font-family="Times,serif" font-size="14.00" fill="#000000">BP remains uncontrolled</text>
</g>
<!-- aceDihydro&#45;&gt;combineAce -->
<g id="edge8" class="edge">
<title>aceDihydro-&gt;combineAce</title>
<path fill="none" stroke="#000000" d="M466.1736,-266.0006C466.1736,-253.8949 466.1736,-237.8076 466.1736,-224.0674"/>
<polygon fill="#000000" stroke="#000000" points="469.6737,-223.672 466.1736,-213.672 462.6737,-223.6721 469.6737,-223.672"/>
<text text-anchor="middle" x="535.7718" y="-235.8" font-family="Times,serif" font-size="14.00" fill="#000000">BP remains uncontrolled</text>
</g>
<!-- thiazide -->
<g id="node8" class="node">
<title>thiazide</title>
<polygon fill="#add8e6" stroke="#add8e6" points="550.729,-124.8 381.6182,-124.8 381.6182,-88.8 550.729,-88.8 550.729,-124.8"/>
<text text-anchor="middle" x="466.1736" y="-102.6" font-family="Times,serif" font-size="14.00" fill="#000000">Add a thiazide-like diuretic</text>
</g>
<!-- combineAce&#45;&gt;thiazide -->
<g id="edge9" class="edge">
<title>combineAce-&gt;thiazide</title>
<path fill="none" stroke="#000000" d="M466.1736,-177.2006C466.1736,-165.0949 466.1736,-149.0076 466.1736,-135.2674"/>
<polygon fill="#000000" stroke="#000000" points="469.6737,-134.872 466.1736,-124.872 462.6737,-134.8721 469.6737,-134.872"/>
<text text-anchor="middle" x="535.7718" y="-147" font-family="Times,serif" font-size="14.00" fill="#000000">BP remains uncontrolled</text>
</g>
<!-- resistant -->
<g id="node9" class="node">
<title>resistant</title>
<polygon fill="#add8e6" stroke="#add8e6" points="563.227,-36 369.1202,-36 369.1202,0 563.227,0 563.227,-36"/>
<text text-anchor="middle" x="466.1736" y="-13.8" font-family="Times,serif" font-size="14.00" fill="#000000">Apparent resistant hypertension</text>
</g>
<!-- thiazide&#45;&gt;resistant -->
<g id="edge10" class="edge">
<title>thiazide-&gt;resistant</title>
<path fill="none" stroke="#000000" d="M466.1736,-88.4006C466.1736,-76.2949 466.1736,-60.2076 466.1736,-46.4674"/>
<polygon fill="#000000" stroke="#000000" points="469.6737,-46.072 466.1736,-36.072 462.6737,-46.0721 469.6737,-46.072"/>
<text text-anchor="middle" x="535.7718" y="-58.2" font-family="Times,serif" font-size="14.00" fill="#000000">BP remains uncontrolled</text>
</g>
</g>
</svg>