<?xml version="1.0" encoding="UTF-8" standalone="no"?>
<!DOCTYPE svg PUBLIC "-//W3C//DTD SVG 1.1//EN"
 "http://www.w3.org/Graphics/SVG/1.1/DTD/svg11.dtd">
<!-- Generated by graphviz version 2.38.0 (20140413.2041)
 -->
<!-- Title: G Pages: 1 -->
<svg width="858pt" height="639pt"
 viewBox="0.00 0.00 857.80 639.00" xmlns="http://www.w3.org/2000/svg" xmlns:xlink="http://www.w3.org/1999/xlink">
<g id="graph0" class="graph" transform="scale(1 1) rotate(0) translate(4 635)">
<title>G</title>
<polygon fill="white" stroke="none" points="-4,4 -4,-635 853.804,-635 853.804,4 -4,4"/>
<!-- start -->
<g id="node1" class="node"><title>start</title>
<polygon fill="none" stroke="blue" points="769.262,-631 715.262,-631 715.262,-595 769.262,-595 769.262,-631"/>
<text text-anchor="middle" x="742.262" y="-609.3" font-family="Times,serif" font-size="14.00" fill="blue">Start</text>
</g>
<!-- age18Plus -->
<g id="node2" class="node"><title>age18Plus</title>
<polygon fill="none" stroke="blue" points="742.262,-558 634.679,-540 742.262,-522 849.845,-540 742.262,-558"/>
<text text-anchor="middle" x="742.262" y="-536.3" font-family="Times,serif" font-size="14.00" fill="blue">Age 18 and older?</text>
</g>
<!-- start&#45;&gt;age18Plus -->
<g id="edge1" class="edge"><title>start&#45;&gt;age18Plus</title>
<path fill="none" stroke="black" d="M742.262,-594.813C742.262,-586.789 742.262,-577.047 742.262,-568.069"/>
<polygon fill="black" stroke="black" points="745.762,-568.029 742.262,-558.029 738.762,-568.029 745.762,-568.029"/>
</g>
<!-- hfDiagnosis -->
<g id="node3" class="node"><title>hfDiagnosis</title>
<polygon fill="none" stroke="blue" points="607.262,-471 443.542,-453 607.262,-435 770.982,-453 607.262,-471"/>
<text text-anchor="middle" x="607.262" y="-449.3" font-family="Times,serif" font-size="14.00" fill="blue">Diagnosed with heart failure?</text>
</g>
<!-- age18Plus&#45;&gt;hfDiagnosis -->
<g id="edge2" class="edge"><title>age18Plus&#45;&gt;hfDiagnosis</title>
<path fill="none" stroke="black" d="M720.871,-525.531C698.791,-511.629 664.101,-489.788 638.86,-473.895"/>
<polygon fill="black" stroke="black" points="640.689,-470.91 630.362,-468.544 636.959,-476.834 640.689,-470.91"/>
<text text-anchor="middle" x="694.262" y="-492.8" font-family="Times,serif" font-size="14.00">Yes</text>
</g>
<!-- noPrescribe -->
<g id="node9" class="node"><title>noPrescribe</title>
<polygon fill="none" stroke="blue" points="774.262,-36 568.262,-36 568.262,-0 774.262,-0 774.262,-36"/>
<text text-anchor="middle" x="671.262" y="-14.3" font-family="Times,serif" font-size="14.00" fill="blue">Do not prescribe ACE/ARB/ARNI</text>
</g>
<!-- age18Plus&#45;&gt;noPrescribe -->
<g id="edge3" class="edge"><title>age18Plus&#45;&gt;noPrescribe</title>
<path fill="none" stroke="black" d="M759.674,-524.678C776.436,-509.177 799.262,-482.784 799.262,-454 799.262,-454 799.262,-454 799.262,-104 799.262,-73.3099 773.41,-53.0373 744.942,-40.0172"/>
<polygon fill="black" stroke="black" points="746.208,-36.7519 735.637,-36.0407 743.457,-43.1888 746.208,-36.7519"/>
<text text-anchor="middle" x="807.762" y="-275.3" font-family="Times,serif" font-size="14.00">No</text>
</g>
<!-- lvefUnder40 -->
<g id="node4" class="node"><title>lvefUnder40</title>
<polygon fill="none" stroke="blue" points="607.262,-384 517.107,-366 607.262,-348 697.417,-366 607.262,-384"/>
<text text-anchor="middle" x="607.262" y="-362.3" font-family="Times,serif" font-size="14.00" fill="blue">LVEF &lt; 40%?</text>
</g>
<!-- hfDiagnosis&#45;&gt;lvefUnder40 -->
<g id="edge4" class="edge"><title>hfDiagnosis&#45;&gt;lvefUnder40</title>
<path fill="none" stroke="black" d="M607.262,-434.799C607.262,-423.163 607.262,-407.548 607.262,-394.237"/>
<polygon fill="black" stroke="black" points="610.762,-394.175 607.262,-384.175 603.762,-394.175 610.762,-394.175"/>
<text text-anchor="middle" x="618.262" y="-405.8" font-family="Times,serif" font-size="14.00">Yes</text>
</g>
<!-- hfDiagnosis&#45;&gt;noPrescribe -->
<g id="edge5" class="edge"><title>hfDiagnosis&#45;&gt;noPrescribe</title>
<path fill="none" stroke="black" d="M659.053,-440.567C696.034,-428.997 739.262,-406.931 739.262,-367 739.262,-367 739.262,-367 739.262,-104 739.262,-79.4177 721.706,-57.8712 704.434,-42.6222"/>
<polygon fill="black" stroke="black" points="706.503,-39.7902 696.583,-36.0707 702.018,-45.1649 706.503,-39.7902"/>
<text text-anchor="middle" x="747.762" y="-231.8" font-family="Times,serif" font-size="14.00">No</text>
</g>
<!-- medicalExclusion -->
<g id="node5" class="node"><title>medicalExclusion</title>
<polygon fill="none" stroke="blue" points="380.262,-297 94.5462,-279 380.262,-261 665.978,-279 380.262,-297"/>
<text text-anchor="middle" x="380.262" y="-275.3" font-family="Times,serif" font-size="14.00" fill="blue">Medical reason for not prescribing ACE/ARB/ARNI?</text>
</g>
<!-- lvefUnder40&#45;&gt;medicalExclusion -->
<g id="edge6" class="edge"><title>lvefUnder40&#45;&gt;medicalExclusion</title>
<path fill="none" stroke="black" d="M577.586,-353.888C539.854,-339.759 474.199,-315.175 429.054,-298.27"/>
<polygon fill="black" stroke="black" points="430.059,-294.909 419.467,-294.68 427.604,-301.465 430.059,-294.909"/>
<text text-anchor="middle" x="519.262" y="-318.8" font-family="Times,serif" font-size="14.00">Yes</text>
</g>
<!-- lvefUnder40&#45;&gt;noPrescribe -->
<g id="edge7" class="edge"><title>lvefUnder40&#45;&gt;noPrescribe</title>
<path fill="none" stroke="black" d="M633.365,-353.125C658.991,-339.468 694.262,-314.42 694.262,-280 694.262,-280 694.262,-280 694.262,-104 694.262,-83.9971 688.254,-62.2368 682.379,-45.7409"/>
<polygon fill="black" stroke="black" points="685.591,-44.3393 678.793,-36.213 679.04,-46.805 685.591,-44.3393"/>
<text text-anchor="middle" x="702.762" y="-188.3" font-family="Times,serif" font-size="14.00">No</text>
</g>
<!-- patientExclusion -->
<g id="node6" class="node"><title>patientExclusion</title>
<polygon fill="none" stroke="blue" points="341.262,-210 62.7528,-192 341.262,-174 619.771,-192 341.262,-210"/>
<text text-anchor="middle" x="341.262" y="-188.3" font-family="Times,serif" font-size="14.00" fill="blue">Patient reason for not prescribing ACE/ARB/ARNI?</text>
</g>
<!-- medicalExclusion&#45;&gt;patientExclusion -->
<g id="edge8" class="edge"><title>medicalExclusion&#45;&gt;patientExclusion</title>
<path fill="none" stroke="black" d="M372.557,-261.207C367.055,-249.216 359.547,-232.851 353.264,-219.157"/>
<polygon fill="black" stroke="black" points="356.303,-217.388 348.951,-209.758 349.94,-220.307 356.303,-217.388"/>
<text text-anchor="middle" x="371.762" y="-231.8" font-family="Times,serif" font-size="14.00">No</text>
</g>
<!-- medicalExclusion&#45;&gt;noPrescribe -->
<g id="edge9" class="edge"><title>medicalExclusion&#45;&gt;noPrescribe</title>
<path fill="none" stroke="black" d="M457.592,-265.841C521.586,-254.215 605.675,-234.8 629.262,-210 651.458,-186.662 663.823,-93.0129 668.737,-46.0856"/>
<polygon fill="black" stroke="black" points="672.231,-46.3258 669.751,-36.0252 665.266,-45.6238 672.231,-46.3258"/>
<text text-anchor="middle" x="666.262" y="-144.8" font-family="Times,serif" font-size="14.00">Yes</text>
</g>
<!-- systemExclusion -->
<g id="node7" class="node"><title>systemExclusion</title>
<polygon fill="none" stroke="blue" points="281.262,-123 0.237678,-105 281.262,-87 562.287,-105 281.262,-123"/>
<text text-anchor="middle" x="281.262" y="-101.3" font-family="Times,serif" font-size="14.00" fill="blue">System reason for not prescribing ACE/ARB/ARNI?</text>
</g>
<!-- patientExclusion&#45;&gt;systemExclusion -->
<g id="edge10" class="edge"><title>patientExclusion&#45;&gt;systemExclusion</title>
<path fill="none" stroke="black" d="M329.694,-174.611C320.895,-162.147 308.643,-144.79 298.664,-130.652"/>
<polygon fill="black" stroke="black" points="301.421,-128.49 292.795,-122.339 295.703,-132.527 301.421,-128.49"/>
<text text-anchor="middle" x="323.762" y="-144.8" font-family="Times,serif" font-size="14.00">No</text>
</g>
<!-- patientExclusion&#45;&gt;noPrescribe -->
<g id="edge11" class="edge"><title>patientExclusion&#45;&gt;noPrescribe</title>
<path fill="none" stroke="black" d="M418.879,-178.947C465.653,-169.129 524.934,-151.99 571.262,-123 606.465,-100.972 605.159,-83.6216 634.262,-54 637.721,-50.4797 641.43,-46.8308 645.116,-43.2766"/>
<polygon fill="black" stroke="black" points="647.734,-45.6167 652.562,-36.1859 642.907,-40.5474 647.734,-45.6167"/>
<text text-anchor="middle" x="619.262" y="-101.3" font-family="Times,serif" font-size="14.00">Yes</text>
</g>
<!-- prescribe -->
<g id="node8" class="node"><title>prescribe</title>
<polygon fill="none" stroke="blue" points="364.262,-36 198.262,-36 198.262,-0 364.262,-0 364.262,-36"/>
<text text-anchor="middle" x="281.262" y="-14.3" font-family="Times,serif" font-size="14.00" fill="blue">Prescribe ACE/ARB/ARNI</text>
</g>
<!-- systemExclusion&#45;&gt;prescribe -->
<g id="edge12" class="edge"><title>systemExclusion&#45;&gt;prescribe</title>
<path fill="none" stroke="black" d="M281.262,-86.799C281.262,-75.1626 281.262,-59.5479 281.262,-46.2368"/>
<polygon fill="black" stroke="black" points="284.762,-46.1754 281.262,-36.1754 277.762,-46.1755 284.762,-46.1754"/>
<text text-anchor="middle" x="289.762" y="-57.8" font-family="Times,serif" font-size="14.00">No</text>
</g>
<!-- systemExclusion&#45;&gt;noPrescribe -->
<g id="edge13" class="edge"><title>systemExclusion&#45;&gt;noPrescribe</title>
<path fill="none" stroke="black" d="M341.772,-90.812C406.344,-76.7386 509.277,-54.3045 582.91,-38.2563"/>
<polygon fill="black" stroke="black" points="584.073,-41.5851 593.098,-36.0358 582.582,-34.7456 584.073,-41.5851"/>
<text text-anchor="middle" x="511.262" y="-57.8" font-family="Times,serif" font-size="14.00">Yes</text>
</g>
</g>
</svg>
