<?xml version="1.0" encoding="UTF-8" standalone="no"?>
<!DOCTYPE svg PUBLIC "-//W3C//DTD SVG 1.1//EN"
 "http://www.w3.org/Graphics/SVG/1.1/DTD/svg11.dtd">
<!-- Generated by graphviz version 2.43.0 (0)
 -->
<!-- Title: Protocol Pages: 1 -->
<svg width="392pt" height="740pt"
 viewBox="0.00 0.00 392.14 740.00" xmlns="http://www.w3.org/2000/svg" xmlns:xlink="http://www.w3.org/1999/xlink">
<g id="graph0" class="graph" transform="scale(1 1) rotate(0) translate(4 736)">
<title>Protocol</title>
<polygon fill="white" stroke="transparent" points="-4,4 -4,-736 388.14,-736 388.14,4 -4,4"/>
<!-- InitialPop -->
<g id="node1" class="node">
<title>InitialPop</title>
<g id="a_node1"><a xlink:title="All patients currently prescribed GLP&#45;1 receptor agonists, including but not limited to medications such as liraglutide, exenatide, dulaglutide, semaglutide, and albiglutide.">
<path fill="none" stroke="green" d="M207.64,-732C207.64,-732 92.64,-732 92.64,-732 86.64,-732 80.64,-726 80.64,-720 80.64,-720 80.64,-708 80.64,-708 80.64,-702 86.64,-696 92.64,-696 92.64,-696 207.64,-696 207.64,-696 213.64,-696 219.64,-702 219.64,-708 219.64,-708 219.64,-720 219.64,-720 219.64,-726 213.64,-732 207.64,-732"/>
<text text-anchor="middle" x="150.14" y="-710.3" font-family="Times,serif" font-size="14.00" fill="green">Initial Population</text>
</a>
</g>
</g>
<!-- MinDuration -->
<g id="node6" class="node">
<title>MinDuration</title>
<g id="a_node6"><a xlink:title="Patients who have been on GLP&#45;1 medications for a minimum duration of 4 weeks.">
<ellipse fill="none" stroke="blue" cx="150.14" cy="-627" rx="114.28" ry="18"/>
<text text-anchor="middle" x="150.14" y="-623.3" font-family="Times,serif" font-size="14.00" fill="blue">Min 4 weeks on GLP&#45;1</text>
</a>
</g>
</g>
<!-- InitialPop&#45;&gt;MinDuration -->
<g id="edge1" class="edge">
<title>InitialPop&#45;&gt;MinDuration</title>
<path fill="none" stroke="blue" d="M150.14,-695.8C150.14,-684.16 150.14,-668.55 150.14,-655.24"/>
<polygon fill="blue" stroke="blue" points="153.64,-655.18 150.14,-645.18 146.64,-655.18 153.64,-655.18"/>
<text text-anchor="middle" x="155.14" y="-666.8" font-family="Times,serif" font-size="14.00" fill="blue">if</text>
</g>
<!-- SubsetScreen -->
<g id="node2" class="node">
<title>SubsetScreen</title>
<g id="a_node2"><a xlink:title="Patients who have been on GLP&#45;1 medications for a minimum duration of 4 weeks, as side effects may not be immediately apparent. Patients who have not had a documented side effect screening in the past 3 months.">
<path fill="none" stroke="green" d="M264.64,-471C264.64,-471 35.64,-471 35.64,-471 29.64,-471 23.64,-465 23.64,-459 23.64,-459 23.64,-447 23.64,-447 23.64,-441 29.64,-435 35.64,-435 35.64,-435 264.64,-435 264.64,-435 270.64,-435 276.64,-441 276.64,-447 276.64,-447 276.64,-459 276.64,-459 276.64,-465 270.64,-471 264.64,-471"/>
<text text-anchor="middle" x="150.14" y="-449.3" font-family="Times,serif" font-size="14.00" fill="green">Subset Considered for Screening</text>
</a>
</g>
</g>
<!-- NoAllergy -->
<g id="node8" class="node">
<title>NoAllergy</title>
<g id="a_node8"><a xlink:title="Patients with documented allergies or contraindications to GLP&#45;1 medications.">
<ellipse fill="none" stroke="blue" cx="150.14" cy="-366" rx="150.27" ry="18"/>
<text text-anchor="middle" x="150.14" y="-362.3" font-family="Times,serif" font-size="14.00" fill="blue">No allergies/contraindications</text>
</a>
</g>
</g>
<!-- SubsetScreen&#45;&gt;NoAllergy -->
<g id="edge4" class="edge">
<title>SubsetScreen&#45;&gt;NoAllergy</title>
<path fill="none" stroke="blue" d="M150.14,-434.8C150.14,-423.16 150.14,-407.55 150.14,-394.24"/>
<polygon fill="blue" stroke="blue" points="153.64,-394.18 150.14,-384.18 146.64,-394.18 153.64,-394.18"/>
<text text-anchor="middle" x="155.14" y="-405.8" font-family="Times,serif" font-size="14.00" fill="blue">if</text>
</g>
<!-- Exclusion -->
<g id="node3" class="node">
<title>Exclusion</title>
<g id="a_node3"><a xlink:title="Patients with documented allergies or contraindications to GLP&#45;1 medications. Patients who are currently hospitalized or in acute care settings, as their side effects may be monitored through other protocols. Patients who have discontinued GLP&#45;1 medications for more than 4 weeks prior to the screening date.">
<path fill="none" stroke="green" d="M372.14,-732C372.14,-732 250.14,-732 250.14,-732 244.14,-732 238.14,-726 238.14,-720 238.14,-720 238.14,-708 238.14,-708 238.14,-702 244.14,-696 250.14,-696 250.14,-696 372.14,-696 372.14,-696 378.14,-696 384.14,-702 384.14,-708 384.14,-708 384.14,-720 384.14,-720 384.14,-726 378.14,-732 372.14,-732"/>
<text text-anchor="middle" x="311.14" y="-710.3" font-family="Times,serif" font-size="14.00" fill="green">Exclusion Criteria</text>
</a>
</g>
</g>
<!-- Diagnostic -->
<g id="node4" class="node">
<title>Diagnostic</title>
<g id="a_node4"><a xlink:title="Conduct a comprehensive review of the patient&#39;s medical history and current symptoms. Administer a standardized questionnaire to assess common side effects associated with GLP&#45;1 medications, including gastrointestinal symptoms (nausea, vomiting, diarrhea), injection site reactions, and any signs of pancreatitis or thyroid tumors. Perform necessary laboratory tests if indicated by symptoms, such as serum amylase and lipase levels for suspected pancreatitis.">
<path fill="none" stroke="green" d="M234.64,-123C234.64,-123 65.64,-123 65.64,-123 59.64,-123 53.64,-117 53.64,-111 53.64,-111 53.64,-99 53.64,-99 53.64,-93 59.64,-87 65.64,-87 65.64,-87 234.64,-87 234.64,-87 240.64,-87 246.64,-93 246.64,-99 246.64,-99 246.64,-111 246.64,-111 246.64,-117 240.64,-123 234.64,-123"/>
<text text-anchor="middle" x="150.14" y="-101.3" font-family="Times,serif" font-size="14.00" fill="green">Diagnostic Interventions</text>
</a>
</g>
</g>
<!-- SuccessfulScreen -->
<g id="node5" class="node">
<title>SuccessfulScreen</title>
<g id="a_node5"><a xlink:title="Identification and documentation of any side effects experienced by the patient. Clear communication of findings to the patient, including education on potential side effects and their management. Recommendation for consultation with a healthcare provider if significant side effects are identified, or if the patient expresses concern about their medication. Follow&#45;up plan established for patients with identified side effects, including potential medication adjustment or discontinuation if necessary.">
<path fill="none" stroke="green" d="M268.14,-36C268.14,-36 32.14,-36 32.14,-36 26.14,-36 20.14,-30 20.14,-24 20.14,-24 20.14,-12 20.14,-12 20.14,-6 26.14,0 32.14,0 32.14,0 268.14,0 268.14,0 274.14,0 280.14,-6 280.14,-12 280.14,-12 280.14,-24 280.14,-24 280.14,-30 274.14,-36 268.14,-36"/>
<text text-anchor="middle" x="150.14" y="-14.3" font-family="Times,serif" font-size="14.00" fill="green">Conditions for Successful Screens</text>
</a>
</g>
</g>
<!-- Diagnostic&#45;&gt;SuccessfulScreen -->
<g id="edge8" class="edge">
<title>Diagnostic&#45;&gt;SuccessfulScreen</title>
<path fill="none" stroke="blue" d="M150.14,-86.8C150.14,-75.16 150.14,-59.55 150.14,-46.24"/>
<polygon fill="blue" stroke="blue" points="153.64,-46.18 150.14,-36.18 146.64,-46.18 153.64,-46.18"/>
<text text-anchor="middle" x="166.64" y="-57.8" font-family="Times,serif" font-size="14.00" fill="blue">then</text>
</g>
<!-- NoRecentScreen -->
<g id="node7" class="node">
<title>NoRecentScreen</title>
<g id="a_node7"><a xlink:title="Patients who have not had a documented side effect screening in the past 3 months.">
<ellipse fill="none" stroke="blue" cx="150.14" cy="-540" rx="129.98" ry="18"/>
<text text-anchor="middle" x="150.14" y="-536.3" font-family="Times,serif" font-size="14.00" fill="blue">No screening in 3 months</text>
</a>
</g>
</g>
<!-- MinDuration&#45;&gt;NoRecentScreen -->
<g id="edge2" class="edge">
<title>MinDuration&#45;&gt;NoRecentScreen</title>
<path fill="none" stroke="blue" d="M150.14,-608.8C150.14,-597.16 150.14,-581.55 150.14,-568.24"/>
<polygon fill="blue" stroke="blue" points="153.64,-568.18 150.14,-558.18 146.64,-568.18 153.64,-568.18"/>
<text text-anchor="middle" x="163.64" y="-579.8" font-family="Times,serif" font-size="14.00" fill="blue">and</text>
</g>
<!-- NoRecentScreen&#45;&gt;SubsetScreen -->
<g id="edge3" class="edge">
<title>NoRecentScreen&#45;&gt;SubsetScreen</title>
<path fill="none" stroke="blue" d="M150.14,-521.8C150.14,-510.16 150.14,-494.55 150.14,-481.24"/>
<polygon fill="blue" stroke="blue" points="153.64,-481.18 150.14,-471.18 146.64,-481.18 153.64,-481.18"/>
<text text-anchor="middle" x="166.64" y="-492.8" font-family="Times,serif" font-size="14.00" fill="blue">then</text>
</g>
<!-- NotHospitalized -->
<g id="node9" class="node">
<title>NotHospitalized</title>
<g id="a_node9"><a xlink:title="Patients who are currently hospitalized or in acute care settings.">
<ellipse fill="none" stroke="blue" cx="150.14" cy="-279" rx="87.18" ry="18"/>
<text text-anchor="middle" x="150.14" y="-275.3" font-family="Times,serif" font-size="14.00" fill="blue">Not hospitalized</text>
</a>
</g>
</g>
<!-- NoAllergy&#45;&gt;NotHospitalized -->
<g id="edge5" class="edge">
<title>NoAllergy&#45;&gt;NotHospitalized</title>
<path fill="none" stroke="blue" d="M150.14,-347.8C150.14,-336.16 150.14,-320.55 150.14,-307.24"/>
<polygon fill="blue" stroke="blue" points="153.64,-307.18 150.14,-297.18 146.64,-307.18 153.64,-307.18"/>
<text text-anchor="middle" x="163.64" y="-318.8" font-family="Times,serif" font-size="14.00" fill="blue">and</text>
</g>
<!-- NotDiscontinued -->
<g id="node10" class="node">
<title>NotDiscontinued</title>
<g id="a_node10"><a xlink:title="Patients who have discontinued GLP&#45;1 medications for more than 4 weeks prior to the screening date.">
<ellipse fill="none" stroke="blue" cx="150.14" cy="-192" rx="138.38" ry="18"/>
<text text-anchor="middle" x="150.14" y="-188.3" font-family="Times,serif" font-size="14.00" fill="blue">Not discontinued &gt;4 weeks</text>
</a>
</g>
</g>
<!-- NotHospitalized&#45;&gt;NotDiscontinued -->
<g id="edge6" class="edge">
<title>NotHospitalized&#45;&gt;NotDiscontinued</title>
<path fill="none" stroke="blue" d="M150.14,-260.8C150.14,-249.16 150.14,-233.55 150.14,-220.24"/>
<polygon fill="blue" stroke="blue" points="153.64,-220.18 150.14,-210.18 146.64,-220.18 153.64,-220.18"/>
<text text-anchor="middle" x="163.64" y="-231.8" font-family="Times,serif" font-size="14.00" fill="blue">and</text>
</g>
<!-- NotDiscontinued&#45;&gt;Diagnostic -->
<g id="edge7" class="edge">
<title>NotDiscontinued&#45;&gt;Diagnostic</title>
<path fill="none" stroke="blue" d="M150.14,-173.8C150.14,-162.16 150.14,-146.55 150.14,-133.24"/>
<polygon fill="blue" stroke="blue" points="153.64,-133.18 150.14,-123.18 146.64,-133.18 153.64,-133.18"/>
<text text-anchor="middle" x="166.64" y="-144.8" font-family="Times,serif" font-size="14.00" fill="blue">then</text>
</g>
</g>
</svg>
