<?xml version="1.0" encoding="UTF-8" standalone="no"?><!DOCTYPE svg PUBLIC "-//W3C//DTD SVG 1.1//EN" "http://www.w3.org/Graphics/SVG/1.1/DTD/svg11.dtd"><!-- Generated by graphviz version 2.40.1 (20161225.0304)
 --><!-- Title: MATTherapy Pages: 1 --><svg xmlns="http://www.w3.org/2000/svg" xmlns:xlink="http://www.w3.org/1999/xlink" width="1547pt" height="506pt" viewBox="0.00 0.00 1547.20 505.80">
<g id="graph0" class="graph" transform="scale(1 1) rotate(0) translate(4 501.8)">
<title>MATTherapy</title>
<polygon fill="#ffffff" stroke="transparent" points="-4,4 -4,-501.8 1543.1987,-501.8 1543.1987,4 -4,4"/>
<!-- start -->
<g id="node1" class="node">
<title>start</title>
<ellipse fill="#d3d3d3" stroke="#d3d3d3" cx="1010.6288" cy="-479.8" rx="205.4311" ry="18"/>
<text text-anchor="middle" x="1010.6288" y="-475.6" font-family="Times,serif" font-size="14.00" fill="#000000">Is the individual physically dependent on opioids?</text>
</g>
<!-- detoxification -->
<g id="node2" class="node">
<title>detoxification</title>
<polygon fill="#add8e6" stroke="#add8e6" points="948.4559,-397.8 590.8017,-397.8 590.8017,-361.8 948.4559,-361.8 948.4559,-397.8"/>
<text text-anchor="middle" x="769.6288" y="-375.6" font-family="Times,serif" font-size="14.00" fill="#000000">Has the patient undergone medically supervised withdrawal?</text>
</g>
<!-- start&#45;&gt;detoxification -->
<g id="edge1" class="edge">
<title>start-&gt;detoxification</title>
<path fill="none" stroke="#000000" d="M968.0976,-462.1522C927.5603,-445.3318 866.3923,-419.9508 822.6855,-401.8152"/>
<polygon fill="#000000" stroke="#000000" points="823.9394,-398.5462 813.3616,-397.9464 821.2566,-405.0117 823.9394,-398.5462"/>
<text text-anchor="middle" x="930.5117" y="-431.2" font-family="Times,serif" font-size="14.00" fill="#000000">Yes</text>
</g>
<!-- counseling -->
<g id="node3" class="node">
<title>counseling</title>
<polygon fill="#add8e6" stroke="#add8e6" points="1539.2686,-409.2014 965.989,-409.2014 965.989,-350.3986 1539.2686,-350.3986 1539.2686,-409.2014"/>
<text text-anchor="middle" x="1252.6288" y="-392.4" font-family="Times,serif" font-size="14.00" fill="#000000">Addiction counseling and mutual help groups</text>
<text text-anchor="middle" x="1252.6288" y="-375.6" font-family="Times,serif" font-size="14.00" fill="#000000">Discuss with individual the risks and benefits of pharmacologic management of opioid use disorder</text>
<text text-anchor="middle" x="1252.6288" y="-358.8" font-family="Times,serif" font-size="14.00" fill="#000000">Encourage treatment with naltrexone (LAI)</text>
</g>
<!-- start&#45;&gt;counseling -->
<g id="edge2" class="edge">
<title>start-&gt;counseling</title>
<path fill="none" stroke="#000000" d="M1053.3365,-462.1522C1086.2488,-448.5521 1132.7044,-429.3555 1172.4848,-412.9174"/>
<polygon fill="#000000" stroke="#000000" points="1174.0078,-416.0751 1181.9131,-409.0214 1171.3344,-409.6057 1174.0078,-416.0751"/>
<text text-anchor="middle" x="1140.1821" y="-431.2" font-family="Times,serif" font-size="14.00" fill="#000000">No</text>
</g>
<!-- naltrexone -->
<g id="node4" class="node">
<title>naltrexone</title>
<polygon fill="#add8e6" stroke="#add8e6" points="717.4529,-297.6019 555.8047,-297.6019 555.8047,-256.3981 717.4529,-256.3981 717.4529,-297.6019"/>
<text text-anchor="middle" x="636.6288" y="-281.2" font-family="Times,serif" font-size="14.00" fill="#000000">LAI naltrexone</text>
<text text-anchor="middle" x="636.6288" y="-264.4" font-family="Times,serif" font-size="14.00" fill="#000000">Monitor for 3 to 6 months</text>
</g>
<!-- detoxification&#45;&gt;naltrexone -->
<g id="edge3" class="edge">
<title>detoxification-&gt;naltrexone</title>
<path fill="none" stroke="#000000" d="M746.1572,-361.6581C725.4776,-345.6741 695.0693,-322.1706 671.5368,-303.9815"/>
<polygon fill="#000000" stroke="#000000" points="673.5796,-301.1368 663.5271,-297.7905 669.2987,-306.6753 673.5796,-301.1368"/>
<text text-anchor="middle" x="718.5117" y="-320" font-family="Times,serif" font-size="14.00" fill="#000000">Yes</text>
</g>
<!-- buprenorphine -->
<g id="node5" class="node">
<title>buprenorphine</title>
<polygon fill="#add8e6" stroke="#add8e6" points="1071.9938,-295 735.2638,-295 735.2638,-259 1071.9938,-259 1071.9938,-295"/>
<text text-anchor="middle" x="903.6288" y="-272.8" font-family="Times,serif" font-size="14.00" fill="#000000">Treat with transmucosal buprenorphine for 3 to 6 months</text>
</g>
<!-- detoxification&#45;&gt;buprenorphine -->
<g id="edge4" class="edge">
<title>detoxification-&gt;buprenorphine</title>
<path fill="none" stroke="#000000" d="M793.2769,-361.6581C815.0529,-344.9523 847.5361,-320.0323 871.6266,-301.5509"/>
<polygon fill="#000000" stroke="#000000" points="873.9626,-304.1702 879.7664,-295.3064 869.7018,-298.6162 873.9626,-304.1702"/>
<text text-anchor="middle" x="861.1821" y="-320" font-family="Times,serif" font-size="14.00" fill="#000000">No</text>
</g>
<!-- monitor -->
<g id="node6" class="node">
<title>monitor</title>
<polygon fill="#add8e6" stroke="#add8e6" points="882.1351,-219.2 657.1225,-219.2 657.1225,-183.2 882.1351,-183.2 882.1351,-219.2"/>
<text text-anchor="middle" x="769.6288" y="-197" font-family="Times,serif" font-size="14.00" fill="#000000">Has the treatment goal been reached?</text>
</g>
<!-- naltrexone&#45;&gt;monitor -->
<g id="edge5" class="edge">
<title>naltrexone-&gt;monitor</title>
<path fill="none" stroke="#000000" d="M672.9716,-256.2873C690.2624,-246.4329 711.0041,-234.6117 728.8326,-224.4508"/>
<polygon fill="#000000" stroke="#000000" points="730.9015,-227.3002 737.8565,-219.3078 727.4354,-221.2186 730.9015,-227.3002"/>
</g>
<!-- buprenorphine&#45;&gt;monitor -->
<g id="edge6" class="edge">
<title>buprenorphine-&gt;monitor</title>
<path fill="none" stroke="#000000" d="M871.5325,-258.844C853.135,-248.4371 829.8663,-235.2746 810.2099,-224.1556"/>
<polygon fill="#000000" stroke="#000000" points="811.8905,-221.0851 801.4632,-219.2078 808.4439,-227.1778 811.8905,-221.0851"/>
</g>
<!-- methadone -->
<g id="node7" class="node">
<title>methadone</title>
<polygon fill="#add8e6" stroke="#add8e6" points="791.4529,-130.2019 629.8047,-130.2019 629.8047,-88.9981 791.4529,-88.9981 791.4529,-130.2019"/>
<text text-anchor="middle" x="710.6288" y="-113.8" font-family="Times,serif" font-size="14.00" fill="#000000">Start methadone</text>
<text text-anchor="middle" x="710.6288" y="-97" font-family="Times,serif" font-size="14.00" fill="#000000">Monitor for 3 to 6 months</text>
</g>
<!-- monitor&#45;&gt;methadone -->
<g id="edge8" class="edge">
<title>monitor-&gt;methadone</title>
<path fill="none" stroke="#000000" d="M757.9723,-183.1028C749.8516,-170.495 738.8412,-153.4009 729.482,-138.8704"/>
<polygon fill="#000000" stroke="#000000" points="732.2661,-136.7292 723.9086,-130.2175 726.3812,-140.5198 732.2661,-136.7292"/>
<text text-anchor="middle" x="754.1821" y="-152.6" font-family="Times,serif" font-size="14.00" fill="#000000">No</text>
</g>
<!-- continue -->
<g id="node8" class="node">
<title>continue</title>
<polygon fill="#add8e6" stroke="#add8e6" points="1053.4894,-36 601.7682,-36 601.7682,0 1053.4894,0 1053.4894,-36"/>
<text text-anchor="middle" x="827.6288" y="-13.8" font-family="Times,serif" font-size="14.00" fill="#000000">Continue to monitor and treat with medications and psychosocial intervention</text>
</g>
<!-- monitor&#45;&gt;continue -->
<g id="edge7" class="edge">
<title>monitor-&gt;continue</title>
<path fill="none" stroke="#000000" d="M778.703,-182.9201C785.434,-168.8277 794.4732,-148.7156 800.6288,-130.4 810.067,-102.3175 817.5982,-69.2471 822.2834,-46.2793"/>
<polygon fill="#000000" stroke="#000000" points="825.7726,-46.6778 824.2915,-36.187 818.9072,-45.3117 825.7726,-46.6778"/>
<text text-anchor="middle" x="823.5117" y="-105.4" font-family="Times,serif" font-size="14.00" fill="#000000">Yes</text>
</g>
<!-- methadone&#45;&gt;continue -->
<g id="edge9" class="edge">
<title>methadone-&gt;continue</title>
<path fill="none" stroke="#000000" d="M737.1779,-88.8145C754.7181,-75.0822 777.7862,-57.022 796.2361,-42.5776"/>
<polygon fill="#000000" stroke="#000000" points="798.6353,-45.1443 804.3516,-36.2239 794.3201,-39.6326 798.6353,-45.1443"/>
<text text-anchor="middle" x="790.5117" y="-58.2" font-family="Times,serif" font-size="14.00" fill="#000000">Yes</text>
</g>
<!-- intensive -->
<g id="node9" class="node">
<title>intensive</title>
<polygon fill="#add8e6" stroke="#add8e6" points="583.3865,-36 -.1289,-36 -.1289,0 583.3865,0 583.3865,-36"/>
<text text-anchor="middle" x="291.6288" y="-13.8" font-family="Times,serif" font-size="14.00" fill="#000000">Add more intensive psychosocial intervention/treatment in conjunction with medication management</text>
</g>
<!-- methadone&#45;&gt;intensive -->
<g id="edge10" class="edge">
<title>methadone-&gt;intensive</title>
<path fill="none" stroke="#000000" d="M629.3446,-91.83C559.1111,-76.4758 457.64,-54.2927 384.2768,-38.2543"/>
<polygon fill="#000000" stroke="#000000" points="384.6344,-34.7499 374.1176,-36.0334 383.1394,-41.5884 384.6344,-34.7499"/>
<text text-anchor="middle" x="535.1821" y="-58.2" font-family="Times,serif" font-size="14.00" fill="#000000">No</text>
</g>
</g>
</svg>