<?xml version="1.0" encoding="UTF-8" standalone="no"?>
<!DOCTYPE svg PUBLIC "-//W3C//DTD SVG 1.1//EN"
 "http://www.w3.org/Graphics/SVG/1.1/DTD/svg11.dtd">
<!-- Generated by graphviz version 2.38.0 (20140413.2041)
 -->
<!-- Title: G Pages: 1 -->
<svg width="286pt" height="204pt"
 viewBox="0.00 0.00 286.00 204.00" xmlns="http://www.w3.org/2000/svg" xmlns:xlink="http://www.w3.org/1999/xlink">
<g id="graph0" class="graph" transform="scale(1 1) rotate(0) translate(4 200)">
<title>G</title>
<polygon fill="white" stroke="none" points="-4,4 -4,-200 282,-200 282,4 -4,4"/>
<!-- Population -->
<g id="node1" class="node"><title>Population</title>
<polygon fill="none" stroke="blue" points="176.5,-196 101.5,-196 101.5,-160 176.5,-160 176.5,-196"/>
<text text-anchor="middle" x="139" y="-174.3" font-family="Times,serif" font-size="14.00" fill="blue">Population</text>
</g>
<!-- Newborns -->
<g id="node2" class="node"><title>Newborns</title>
<polygon fill="none" stroke="blue" points="139,-123 53.5367,-105 139,-87 224.463,-105 139,-123"/>
<text text-anchor="middle" x="139" y="-101.3" font-family="Times,serif" font-size="14.00" fill="blue">Is a newborn?</text>
</g>
<!-- Population&#45;&gt;Newborns -->
<g id="edge1" class="edge"><title>Population&#45;&gt;Newborns</title>
<path fill="none" stroke="black" d="M139,-159.813C139,-151.789 139,-142.047 139,-133.069"/>
<polygon fill="black" stroke="black" points="142.5,-133.029 139,-123.029 135.5,-133.029 142.5,-133.029"/>
</g>
<!-- ApplyProphylaxis -->
<g id="node3" class="node"><title>ApplyProphylaxis</title>
<polygon fill="none" stroke="blue" points="278,-36 0,-36 0,-0 278,-0 278,-36"/>
<text text-anchor="middle" x="139" y="-14.3" font-family="Times,serif" font-size="14.00" fill="blue">Apply 0.5% erythromycin ophthalmic ointment</text>
</g>
<!-- Newborns&#45;&gt;ApplyProphylaxis -->
<g id="edge2" class="edge"><title>Newborns&#45;&gt;ApplyProphylaxis</title>
<path fill="none" stroke="black" d="M139,-86.799C139,-75.1626 139,-59.5479 139,-46.2368"/>
<polygon fill="black" stroke="black" points="142.5,-46.1754 139,-36.1754 135.5,-46.1755 142.5,-46.1754"/>
<text text-anchor="middle" x="150" y="-57.8" font-family="Times,serif" font-size="14.00">Yes</text>
</g>
</g>
</svg>
