<?xml version="1.0" encoding="UTF-8" standalone="no"?>
<!DOCTYPE svg PUBLIC "-//W3C//DTD SVG 1.1//EN"
 "http://www.w3.org/Graphics/SVG/1.1/DTD/svg11.dtd">
<!-- Generated by graphviz version 2.43.0 (0)
 -->
<!-- Title: ReturnToPlayProtocol Pages: 1 -->
<svg width="503pt" height="1175pt"
 viewBox="0.00 0.00 502.78 1175.00" xmlns="http://www.w3.org/2000/svg" xmlns:xlink="http://www.w3.org/1999/xlink">
<g id="graph0" class="graph" transform="scale(1 1) rotate(0) translate(4 1171)">
<title>ReturnToPlayProtocol</title>
<polygon fill="white" stroke="transparent" points="-4,4 -4,-1171 498.78,-1171 498.78,4 -4,4"/>
<!-- InitialPopulation -->
<g id="node1" class="node">
<title>InitialPopulation</title>
<g id="a_node1"><a xlink:title="All individuals who have participated in sports activities and have been diagnosed with a concussion.">
<path fill="none" stroke="green" d="M435.08,-1167C435.08,-1167 320.08,-1167 320.08,-1167 314.08,-1167 308.08,-1161 308.08,-1155 308.08,-1155 308.08,-1143 308.08,-1143 308.08,-1137 314.08,-1131 320.08,-1131 320.08,-1131 435.08,-1131 435.08,-1131 441.08,-1131 447.08,-1137 447.08,-1143 447.08,-1143 447.08,-1155 447.08,-1155 447.08,-1161 441.08,-1167 435.08,-1167"/>
<text text-anchor="middle" x="377.58" y="-1145.3" font-family="Times,serif" font-size="14.00" fill="green">Initial Population</text>
</a>
</g>
</g>
<!-- MedicallyEvaluated -->
<g id="node3" class="node">
<title>MedicallyEvaluated</title>
<g id="a_node3"><a xlink:title="Individuals who have been medically evaluated and diagnosed with a concussion.">
<ellipse fill="none" stroke="blue" cx="266.58" cy="-1062" rx="105.08" ry="18"/>
<text text-anchor="middle" x="266.58" y="-1058.3" font-family="Times,serif" font-size="14.00" fill="blue">Medically Evaluated</text>
</a>
</g>
</g>
<!-- InitialPopulation&#45;&gt;MedicallyEvaluated -->
<g id="edge1" class="edge">
<title>InitialPopulation&#45;&gt;MedicallyEvaluated</title>
<path fill="none" stroke="blue" d="M355.12,-1130.8C338.31,-1117.93 315.14,-1100.19 296.72,-1086.08"/>
<polygon fill="blue" stroke="blue" points="298.7,-1083.19 288.63,-1079.89 294.44,-1088.74 298.7,-1083.19"/>
<text text-anchor="middle" x="334.58" y="-1101.8" font-family="Times,serif" font-size="14.00" fill="blue">if</text>
</g>
<!-- ScreeningSubset -->
<g id="node2" class="node">
<title>ScreeningSubset</title>
<g id="a_node2"><a xlink:title="Individuals from the initial population who have been medically evaluated and diagnosed with a concussion by a qualified healthcare professional.">
<path fill="none" stroke="green" d="M312.08,-732C312.08,-732 83.08,-732 83.08,-732 77.08,-732 71.08,-726 71.08,-720 71.08,-720 71.08,-708 71.08,-708 71.08,-702 77.08,-696 83.08,-696 83.08,-696 312.08,-696 312.08,-696 318.08,-696 324.08,-702 324.08,-708 324.08,-708 324.08,-720 324.08,-720 324.08,-726 318.08,-732 312.08,-732"/>
<text text-anchor="middle" x="197.58" y="-710.3" font-family="Times,serif" font-size="14.00" fill="green">Subset Considered for Screening</text>
</a>
</g>
</g>
<!-- InitialEvaluation -->
<g id="node7" class="node">
<title>InitialEvaluation</title>
<g id="a_node7"><a xlink:title="Initial medical evaluation by a healthcare professional to confirm the diagnosis of a concussion.">
<ellipse fill="none" stroke="blue" cx="197.58" cy="-627" rx="129.98" ry="18"/>
<text text-anchor="middle" x="197.58" y="-623.3" font-family="Times,serif" font-size="14.00" fill="blue">Initial Medical Evaluation</text>
</a>
</g>
</g>
<!-- ScreeningSubset&#45;&gt;InitialEvaluation -->
<g id="edge6" class="edge">
<title>ScreeningSubset&#45;&gt;InitialEvaluation</title>
<path fill="none" stroke="blue" d="M197.58,-695.8C197.58,-684.16 197.58,-668.55 197.58,-655.24"/>
<polygon fill="blue" stroke="blue" points="201.08,-655.18 197.58,-645.18 194.08,-655.18 201.08,-655.18"/>
<text text-anchor="middle" x="202.58" y="-666.8" font-family="Times,serif" font-size="14.00" fill="blue">if</text>
</g>
<!-- NoPreExistingConditions -->
<g id="node4" class="node">
<title>NoPreExistingConditions</title>
<g id="a_node4"><a xlink:title="Individuals without pre&#45;existing neurological conditions that may confound the diagnosis of a concussion.">
<ellipse fill="none" stroke="blue" cx="197.58" cy="-975" rx="197.66" ry="18"/>
<text text-anchor="middle" x="197.58" y="-971.3" font-family="Times,serif" font-size="14.00" fill="blue">No Pre&#45;existing Neurological Conditions</text>
</a>
</g>
</g>
<!-- MedicallyEvaluated&#45;&gt;NoPreExistingConditions -->
<g id="edge2" class="edge">
<title>MedicallyEvaluated&#45;&gt;NoPreExistingConditions</title>
<path fill="none" stroke="blue" d="M252.62,-1043.8C242.71,-1031.59 229.23,-1014.99 218.1,-1001.28"/>
<polygon fill="blue" stroke="blue" points="220.54,-998.73 211.52,-993.18 215.11,-1003.15 220.54,-998.73"/>
<text text-anchor="middle" x="250.08" y="-1014.8" font-family="Times,serif" font-size="14.00" fill="blue">and</text>
</g>
<!-- SportsRelatedConcussion -->
<g id="node5" class="node">
<title>SportsRelatedConcussion</title>
<g id="a_node5"><a xlink:title="Individuals who have sustained a concussion during sports activities.">
<ellipse fill="none" stroke="blue" cx="197.58" cy="-888" rx="133.48" ry="18"/>
<text text-anchor="middle" x="197.58" y="-884.3" font-family="Times,serif" font-size="14.00" fill="blue">Sports&#45;related Concussion</text>
</a>
</g>
</g>
<!-- NoPreExistingConditions&#45;&gt;SportsRelatedConcussion -->
<g id="edge3" class="edge">
<title>NoPreExistingConditions&#45;&gt;SportsRelatedConcussion</title>
<path fill="none" stroke="blue" d="M197.58,-956.8C197.58,-945.16 197.58,-929.55 197.58,-916.24"/>
<polygon fill="blue" stroke="blue" points="201.08,-916.18 197.58,-906.18 194.08,-916.18 201.08,-916.18"/>
<text text-anchor="middle" x="211.08" y="-927.8" font-family="Times,serif" font-size="14.00" fill="blue">and</text>
</g>
<!-- AbleToParticipate -->
<g id="node6" class="node">
<title>AbleToParticipate</title>
<g id="a_node6"><a xlink:title="Individuals who are able to participate in the return&#45;to&#45;play protocol.">
<ellipse fill="none" stroke="blue" cx="197.58" cy="-801" rx="96.68" ry="18"/>
<text text-anchor="middle" x="197.58" y="-797.3" font-family="Times,serif" font-size="14.00" fill="blue">Able to Participate</text>
</a>
</g>
</g>
<!-- SportsRelatedConcussion&#45;&gt;AbleToParticipate -->
<g id="edge4" class="edge">
<title>SportsRelatedConcussion&#45;&gt;AbleToParticipate</title>
<path fill="none" stroke="blue" d="M197.58,-869.8C197.58,-858.16 197.58,-842.55 197.58,-829.24"/>
<polygon fill="blue" stroke="blue" points="201.08,-829.18 197.58,-819.18 194.08,-829.18 201.08,-829.18"/>
<text text-anchor="middle" x="211.08" y="-840.8" font-family="Times,serif" font-size="14.00" fill="blue">and</text>
</g>
<!-- AbleToParticipate&#45;&gt;ScreeningSubset -->
<g id="edge5" class="edge">
<title>AbleToParticipate&#45;&gt;ScreeningSubset</title>
<path fill="none" stroke="blue" d="M197.58,-782.8C197.58,-771.16 197.58,-755.55 197.58,-742.24"/>
<polygon fill="blue" stroke="blue" points="201.08,-742.18 197.58,-732.18 194.08,-742.18 201.08,-742.18"/>
<text text-anchor="middle" x="214.08" y="-753.8" font-family="Times,serif" font-size="14.00" fill="blue">then</text>
</g>
<!-- NeurocognitiveTesting -->
<g id="node8" class="node">
<title>NeurocognitiveTesting</title>
<g id="a_node8"><a xlink:title="Neurocognitive testing to assess cognitive function and identify any deficits resulting from the concussion.">
<ellipse fill="none" stroke="blue" cx="197.58" cy="-540" rx="118.88" ry="18"/>
<text text-anchor="middle" x="197.58" y="-536.3" font-family="Times,serif" font-size="14.00" fill="blue">Neurocognitive Testing</text>
</a>
</g>
</g>
<!-- InitialEvaluation&#45;&gt;NeurocognitiveTesting -->
<g id="edge7" class="edge">
<title>InitialEvaluation&#45;&gt;NeurocognitiveTesting</title>
<path fill="none" stroke="blue" d="M197.58,-608.8C197.58,-597.16 197.58,-581.55 197.58,-568.24"/>
<polygon fill="blue" stroke="blue" points="201.08,-568.18 197.58,-558.18 194.08,-568.18 201.08,-568.18"/>
<text text-anchor="middle" x="211.08" y="-579.8" font-family="Times,serif" font-size="14.00" fill="blue">and</text>
</g>
<!-- SymptomAssessment -->
<g id="node9" class="node">
<title>SymptomAssessment</title>
<g id="a_node9"><a xlink:title="Symptom assessment using standardized concussion symptom checklists.">
<ellipse fill="none" stroke="blue" cx="197.58" cy="-453" rx="113.18" ry="18"/>
<text text-anchor="middle" x="197.58" y="-449.3" font-family="Times,serif" font-size="14.00" fill="blue">Symptom Assessment</text>
</a>
</g>
</g>
<!-- NeurocognitiveTesting&#45;&gt;SymptomAssessment -->
<g id="edge8" class="edge">
<title>NeurocognitiveTesting&#45;&gt;SymptomAssessment</title>
<path fill="none" stroke="blue" d="M197.58,-521.8C197.58,-510.16 197.58,-494.55 197.58,-481.24"/>
<polygon fill="blue" stroke="blue" points="201.08,-481.18 197.58,-471.18 194.08,-481.18 201.08,-481.18"/>
<text text-anchor="middle" x="211.08" y="-492.8" font-family="Times,serif" font-size="14.00" fill="blue">and</text>
</g>
<!-- BalanceTesting -->
<g id="node10" class="node">
<title>BalanceTesting</title>
<g id="a_node10"><a xlink:title="Balance and coordination testing to evaluate any impairments related to the concussion.">
<ellipse fill="none" stroke="blue" cx="197.58" cy="-366" rx="167.07" ry="18"/>
<text text-anchor="middle" x="197.58" y="-362.3" font-family="Times,serif" font-size="14.00" fill="blue">Balance and Coordination Testing</text>
</a>
</g>
</g>
<!-- SymptomAssessment&#45;&gt;BalanceTesting -->
<g id="edge9" class="edge">
<title>SymptomAssessment&#45;&gt;BalanceTesting</title>
<path fill="none" stroke="blue" d="M197.58,-434.8C197.58,-423.16 197.58,-407.55 197.58,-394.24"/>
<polygon fill="blue" stroke="blue" points="201.08,-394.18 197.58,-384.18 194.08,-394.18 201.08,-394.18"/>
<text text-anchor="middle" x="211.08" y="-405.8" font-family="Times,serif" font-size="14.00" fill="blue">and</text>
</g>
<!-- SymptomFree -->
<g id="node11" class="node">
<title>SymptomFree</title>
<g id="a_node11"><a xlink:title="The individual must be symptom&#45;free at rest and during physical exertion.">
<ellipse fill="none" stroke="blue" cx="199.58" cy="-279" rx="79.09" ry="18"/>
<text text-anchor="middle" x="199.58" y="-275.3" font-family="Times,serif" font-size="14.00" fill="blue">Symptom&#45;Free</text>
</a>
</g>
</g>
<!-- BalanceTesting&#45;&gt;SymptomFree -->
<g id="edge10" class="edge">
<title>BalanceTesting&#45;&gt;SymptomFree</title>
<path fill="none" stroke="blue" d="M197.99,-347.8C198.26,-336.16 198.63,-320.55 198.94,-307.24"/>
<polygon fill="blue" stroke="blue" points="202.44,-307.26 199.18,-297.18 195.44,-307.09 202.44,-307.26"/>
<text text-anchor="middle" x="213.08" y="-318.8" font-family="Times,serif" font-size="14.00" fill="blue">and</text>
</g>
<!-- BaselineCognitiveFunction -->
<g id="node12" class="node">
<title>BaselineCognitiveFunction</title>
<g id="a_node12"><a xlink:title="The individual must demonstrate a return to baseline neurocognitive function as determined by post&#45;injury testing compared to pre&#45;injury or normative data.">
<ellipse fill="none" stroke="blue" cx="206.58" cy="-192" rx="188.47" ry="18"/>
<text text-anchor="middle" x="206.58" y="-188.3" font-family="Times,serif" font-size="14.00" fill="blue">Return to Baseline Cognitive Function</text>
</a>
</g>
</g>
<!-- SymptomFree&#45;&gt;BaselineCognitiveFunction -->
<g id="edge11" class="edge">
<title>SymptomFree&#45;&gt;BaselineCognitiveFunction</title>
<path fill="none" stroke="blue" d="M201,-260.8C201.96,-249.16 203.24,-233.55 204.34,-220.24"/>
<polygon fill="blue" stroke="blue" points="207.84,-220.43 205.17,-210.18 200.86,-219.85 207.84,-220.43"/>
<text text-anchor="middle" x="217.08" y="-231.8" font-family="Times,serif" font-size="14.00" fill="blue">and</text>
</g>
<!-- GraduatedProtocol -->
<g id="node13" class="node">
<title>GraduatedProtocol</title>
<g id="a_node13"><a xlink:title="The individual must successfully complete a graduated return&#45;to&#45;play protocol, which includes a stepwise increase in physical activity without the return of symptoms.">
<ellipse fill="none" stroke="blue" cx="242.58" cy="-105" rx="148.67" ry="18"/>
<text text-anchor="middle" x="242.58" y="-101.3" font-family="Times,serif" font-size="14.00" fill="blue">Complete Graduated Protocol</text>
</a>
</g>
</g>
<!-- BaselineCognitiveFunction&#45;&gt;GraduatedProtocol -->
<g id="edge12" class="edge">
<title>BaselineCognitiveFunction&#45;&gt;GraduatedProtocol</title>
<path fill="none" stroke="blue" d="M213.87,-173.8C218.89,-161.93 225.67,-145.93 231.38,-132.45"/>
<polygon fill="blue" stroke="blue" points="234.63,-133.75 235.31,-123.18 228.19,-131.02 234.63,-133.75"/>
<text text-anchor="middle" x="241.08" y="-144.8" font-family="Times,serif" font-size="14.00" fill="blue">and</text>
</g>
<!-- FinalClearance -->
<g id="node14" class="node">
<title>FinalClearance</title>
<g id="a_node14"><a xlink:title="Final clearance by a qualified healthcare professional, confirming that the individual is fit to return to full sports participation without restrictions.">
<ellipse fill="none" stroke="blue" cx="411.58" cy="-18" rx="83.39" ry="18"/>
<text text-anchor="middle" x="411.58" y="-14.3" font-family="Times,serif" font-size="14.00" fill="blue">Final Clearance</text>
</a>
</g>
</g>
<!-- GraduatedProtocol&#45;&gt;FinalClearance -->
<g id="edge13" class="edge">
<title>GraduatedProtocol&#45;&gt;FinalClearance</title>
<path fill="none" stroke="blue" d="M275.57,-87.41C302.96,-73.63 342.03,-53.98 371.27,-39.28"/>
<polygon fill="blue" stroke="blue" points="373.03,-42.31 380.39,-34.69 369.89,-36.05 373.03,-42.31"/>
<text text-anchor="middle" x="351.08" y="-57.8" font-family="Times,serif" font-size="14.00" fill="blue">and</text>
</g>
<!-- FinalClearance&#45;&gt;InitialPopulation -->
<g id="edge14" class="edge">
<title>FinalClearance&#45;&gt;InitialPopulation</title>
<path fill="none" stroke="blue" d="M415.45,-36.16C418.95,-53.25 423.58,-80.3 423.58,-104 423.58,-1063 423.58,-1063 423.58,-1063 423.58,-1084.94 411.58,-1106.65 399.83,-1122.64"/>
<polygon fill="blue" stroke="blue" points="396.79,-1120.85 393.41,-1130.89 402.31,-1125.15 396.79,-1120.85"/>
<text text-anchor="middle" x="440.08" y="-579.8" font-family="Times,serif" font-size="14.00" fill="blue">then</text>
</g>
</g>
</svg>
