<?xml version="1.0" encoding="UTF-8" standalone="no"?>
<!DOCTYPE svg PUBLIC "-//W3C//DTD SVG 1.1//EN"
 "http://www.w3.org/Graphics/SVG/1.1/DTD/svg11.dtd">
<!-- Generated by graphviz version 11.0.0 (20240428.1522)
 -->
<!-- Title: StrokeTreatmentFlowsheet Pages: 1 -->
<svg width="596pt" height="264pt"
 viewBox="0.00 0.00 595.88 264.00" xmlns="http://www.w3.org/2000/svg" xmlns:xlink="http://www.w3.org/1999/xlink">
<g id="graph0" class="graph" transform="scale(1 1) rotate(0) translate(4 260)">
<title>StrokeTreatmentFlowsheet</title>
<polygon fill="white" stroke="none" points="-4,4 -4,-260 591.88,-260 591.88,4 -4,4"/>
<!-- Start -->
<g id="node1" class="node">
<title>Start</title>
<polygon fill="lightgrey" stroke="lightgrey" points="473.38,-256 83.12,-256 83.12,-220 473.38,-220 473.38,-256"/>
<text text-anchor="middle" x="278.25" y="-232.95" font-family="Times,serif" font-size="14.00">Patient with Ischaemic Stroke or High&#45;Risk TIA in the past 24 hours</text>
</g>
<!-- MinorStrokeOrModerateTIA -->
<g id="node2" class="node">
<title>MinorStrokeOrModerateTIA</title>
<polygon fill="lightgrey" stroke="lightgrey" points="254.5,-175.75 0,-175.75 0,-101.75 254.5,-101.75 254.5,-175.75"/>
<text text-anchor="middle" x="127.25" y="-158.45" font-family="Times,serif" font-size="14.00">Non&#45;cardioembolic minor ischaemic stroke</text>
<text text-anchor="middle" x="127.25" y="-141.95" font-family="Times,serif" font-size="14.00">(NIHSS score of 3 or less)</text>
<text text-anchor="middle" x="127.25" y="-125.45" font-family="Times,serif" font-size="14.00">or</text>
<text text-anchor="middle" x="127.25" y="-108.95" font-family="Times,serif" font-size="14.00">High&#45;risk TIA (ABCD2 score of 4 or more)</text>
</g>
<!-- Start&#45;&gt;MinorStrokeOrModerateTIA -->
<g id="edge1" class="edge">
<title>Start&#45;&gt;MinorStrokeOrModerateTIA</title>
<path fill="none" stroke="black" d="M251.25,-219.61C235.07,-209.19 213.73,-195.45 193.32,-182.3"/>
<polygon fill="black" stroke="black" points="195.29,-179.41 184.99,-176.94 191.5,-185.3 195.29,-179.41"/>
</g>
<!-- MildToModerateStrokeOrSevereTIA -->
<g id="node3" class="node">
<title>MildToModerateStrokeOrSevereTIA</title>
<polygon fill="lightgrey" stroke="lightgrey" points="587.88,-184 272.62,-184 272.62,-93.5 587.88,-93.5 587.88,-184"/>
<text text-anchor="middle" x="430.25" y="-166.7" font-family="Times,serif" font-size="14.00">Non&#45;cardioembolic mild to moderate ischaemic stroke</text>
<text text-anchor="middle" x="430.25" y="-150.2" font-family="Times,serif" font-size="14.00">(NIHSS score of 5 or less)</text>
<text text-anchor="middle" x="430.25" y="-133.7" font-family="Times,serif" font-size="14.00">or</text>
<text text-anchor="middle" x="430.25" y="-117.2" font-family="Times,serif" font-size="14.00">High&#45;risk TIA (ABCD2 score of 6 or more</text>
<text text-anchor="middle" x="430.25" y="-100.7" font-family="Times,serif" font-size="14.00">or other high&#45;risk features)</text>
</g>
<!-- Start&#45;&gt;MildToModerateStrokeOrSevereTIA -->
<g id="edge2" class="edge">
<title>Start&#45;&gt;MildToModerateStrokeOrSevereTIA</title>
<path fill="none" stroke="black" d="M305.42,-219.61C318.34,-211.35 334.53,-200.99 350.92,-190.5"/>
<polygon fill="black" stroke="black" points="352.76,-193.48 359.3,-185.14 348.99,-187.59 352.76,-193.48"/>
</g>
<!-- MinorTreatment -->
<g id="node4" class="node">
<title>MinorTreatment</title>
<polygon fill="lightgrey" stroke="lightgrey" points="241.38,-57.5 13.12,-57.5 13.12,0 241.38,0 241.38,-57.5"/>
<text text-anchor="middle" x="127.25" y="-40.2" font-family="Times,serif" font-size="14.00">21&#45;days Dual Antiplatelet Therapy</text>
<text text-anchor="middle" x="127.25" y="-23.7" font-family="Times,serif" font-size="14.00">(Aspirin + Clopidogrel)</text>
<text text-anchor="middle" x="127.25" y="-7.2" font-family="Times,serif" font-size="14.00">Followed by Antiplatelet Monotherapy</text>
</g>
<!-- MinorStrokeOrModerateTIA&#45;&gt;MinorTreatment -->
<g id="edge3" class="edge">
<title>MinorStrokeOrModerateTIA&#45;&gt;MinorTreatment</title>
<path fill="none" stroke="black" d="M127.25,-101.49C127.25,-91.16 127.25,-79.85 127.25,-69.34"/>
<polygon fill="black" stroke="black" points="130.75,-69.41 127.25,-59.41 123.75,-69.41 130.75,-69.41"/>
</g>
<!-- ModerateTreatment -->
<g id="node5" class="node">
<title>ModerateTreatment</title>
<polygon fill="lightgrey" stroke="lightgrey" points="544.38,-57.5 316.12,-57.5 316.12,0 544.38,0 544.38,-57.5"/>
<text text-anchor="middle" x="430.25" y="-40.2" font-family="Times,serif" font-size="14.00">30&#45;days Dual Antiplatelet Therapy</text>
<text text-anchor="middle" x="430.25" y="-23.7" font-family="Times,serif" font-size="14.00">(Aspirin + Ticagrelor)</text>
<text text-anchor="middle" x="430.25" y="-7.2" font-family="Times,serif" font-size="14.00">Followed by Antiplatelet Monotherapy</text>
</g>
<!-- MildToModerateStrokeOrSevereTIA&#45;&gt;ModerateTreatment -->
<g id="edge4" class="edge">
<title>MildToModerateStrokeOrSevereTIA&#45;&gt;ModerateTreatment</title>
<path fill="none" stroke="black" d="M430.25,-93.2C430.25,-85.25 430.25,-77.02 430.25,-69.23"/>
<polygon fill="black" stroke="black" points="433.75,-69.34 430.25,-59.34 426.75,-69.34 433.75,-69.34"/>
</g>
</g>
</svg>
