<?xml version="1.0" encoding="UTF-8" standalone="no"?><!DOCTYPE svg PUBLIC "-//W3C//DTD SVG 1.1//EN" "http://www.w3.org/Graphics/SVG/1.1/DTD/svg11.dtd"><!-- Generated by graphviz version 2.40.1 (20161225.0304)
 --><!-- Title: G Pages: 1 --><svg xmlns="http://www.w3.org/2000/svg" xmlns:xlink="http://www.w3.org/1999/xlink" width="632pt" height="211pt" viewBox="0.00 0.00 631.71 211.40">
<g id="graph0" class="graph" transform="scale(1 1) rotate(0) translate(4 207.4)">
<title>G</title>
<polygon fill="#ffffff" stroke="transparent" points="-4,4 -4,-207.4 627.7077,-207.4 627.7077,4 -4,4"/>
<!-- start -->
<g id="node1" class="node">
<title>start</title>
<polygon fill="none" stroke="#000000" points="383.8935,-203.4 329.8935,-203.4 329.8935,-167.4 383.8935,-167.4 383.8935,-203.4"/>
<text text-anchor="middle" x="356.8935" y="-181.2" font-family="Times,serif" font-size="14.00" fill="#000000">Start</text>
</g>
<!-- depression_screening -->
<g id="node2" class="node">
<title>depression_screening</title>
<polygon fill="none" stroke="#0000ff" points="356.8935,-130.4 209.2208,-112.4 356.8935,-94.4 504.5662,-112.4 356.8935,-130.4"/>
<text text-anchor="middle" x="356.8935" y="-108.2" font-family="Times,serif" font-size="14.00" fill="#0000ff">Adults 19 years or older</text>
</g>
<!-- start&#45;&gt;depression_screening -->
<g id="edge1" class="edge">
<title>start-&gt;depression_screening</title>
<path fill="none" stroke="#000000" d="M356.8935,-167.3551C356.8935,-159.2828 356.8935,-149.5764 356.8935,-140.5817"/>
<polygon fill="#000000" stroke="#000000" points="360.3936,-140.4903 356.8935,-130.4904 353.3936,-140.4904 360.3936,-140.4903"/>
</g>
<!-- recommend_depression_screening -->
<g id="node3" class="node">
<title>recommend_depression_screening</title>
<polygon fill="none" stroke="#000000" points="229.6806,-38.8 .1064,-38.8 .1064,-2.8 229.6806,-2.8 229.6806,-38.8"/>
<text text-anchor="middle" x="114.8935" y="-16.6" font-family="Times,serif" font-size="14.00" fill="#000000">Screen for Major Depressive Disorder</text>
</g>
<!-- depression_screening&#45;&gt;recommend_depression_screening -->
<g id="edge2" class="edge">
<title>depression_screening-&gt;recommend_depression_screening</title>
<path fill="none" stroke="#000000" d="M320.6637,-98.6866C281.395,-83.8229 218.1884,-59.8984 172.1783,-42.483"/>
<polygon fill="#000000" stroke="#000000" points="173.2275,-39.1379 162.6361,-38.8711 170.7495,-45.6846 173.2275,-39.1379"/>
<text text-anchor="middle" x="268.7764" y="-63.8" font-family="Times,serif" font-size="14.00" fill="#000000">Yes</text>
</g>
<!-- insufficient_evidence_suicide -->
<g id="node4" class="node">
<title>insufficient_evidence_suicide</title>
<polygon fill="none" stroke="#000000" points="465.6462,-41.4019 248.1408,-41.4019 248.1408,-.1981 465.6462,-.1981 465.6462,-41.4019"/>
<text text-anchor="middle" x="356.8935" y="-25" font-family="Times,serif" font-size="14.00" fill="#000000">Insufficient evidence to recommend</text>
<text text-anchor="middle" x="356.8935" y="-8.2" font-family="Times,serif" font-size="14.00" fill="#000000">screening for suicide risk</text>
</g>
<!-- depression_screening&#45;&gt;insufficient_evidence_suicide -->
<g id="edge3" class="edge">
<title>depression_screening-&gt;insufficient_evidence_suicide</title>
<path fill="none" stroke="#000000" d="M356.8935,-94.3028C356.8935,-82.1708 356.8935,-65.8846 356.8935,-51.726"/>
<polygon fill="#000000" stroke="#000000" points="360.3936,-51.4174 356.8935,-41.4175 353.3936,-51.4175 360.3936,-51.4174"/>
<text text-anchor="middle" x="367.7764" y="-63.8" font-family="Times,serif" font-size="14.00" fill="#000000">Yes</text>
</g>
<!-- notApplicable -->
<g id="node5" class="node">
<title>notApplicable</title>
<polygon fill="none" stroke="#000000" points="623.5224,-38.8 484.2646,-38.8 484.2646,-2.8 623.5224,-2.8 623.5224,-38.8"/>
<text text-anchor="middle" x="553.8935" y="-16.6" font-family="Times,serif" font-size="14.00" fill="#000000">Not applicable patinet</text>
</g>
<!-- depression_screening&#45;&gt;notApplicable -->
<g id="edge4" class="edge">
<title>depression_screening-&gt;notApplicable</title>
<path fill="none" stroke="#000000" d="M387.6748,-98.0875C419.165,-83.4453 468.5528,-60.4813 505.3218,-43.3846"/>
<polygon fill="#000000" stroke="#000000" points="507.2629,-46.3419 514.8549,-38.9519 504.3115,-39.9946 507.2629,-46.3419"/>
<text text-anchor="middle" x="476.4468" y="-63.8" font-family="Times,serif" font-size="14.00" fill="#000000">No</text>
</g>
</g>
</svg>