<?xml version="1.0" encoding="UTF-8" standalone="no"?>
<!DOCTYPE svg PUBLIC "-//W3C//DTD SVG 1.1//EN"
 "http://www.w3.org/Graphics/SVG/1.1/DTD/svg11.dtd">
<!-- Generated by graphviz version 11.0.0 (20240428.1522)
 -->
<!-- Title: CerebralToxoplasmosis Pages: 1 -->
<svg width="2252pt" height="443pt"
 viewBox="0.00 0.00 2252.00 442.50" xmlns="http://www.w3.org/2000/svg" xmlns:xlink="http://www.w3.org/1999/xlink">
<g id="graph0" class="graph" transform="scale(1 1) rotate(0) translate(4 438.5)">
<title>CerebralToxoplasmosis</title>
<polygon fill="white" stroke="none" points="-4,4 -4,-438.5 2248,-438.5 2248,4 -4,4"/>
<g id="clust1" class="cluster">
<title>cluster_diagnosis</title>
<polygon fill="lightgrey" stroke="lightgrey" points="918,-207.5 918,-372.5 1740,-372.5 1740,-207.5 918,-207.5"/>
<text text-anchor="middle" x="1329" y="-355.2" font-family="Times,serif" font-size="14.00">Diagnosis</text>
</g>
<g id="clust2" class="cluster">
<title>cluster_treatment</title>
<polygon fill="lightgrey" stroke="lightgrey" points="8,-8 8,-173 2236,-173 2236,-8 8,-8"/>
<text text-anchor="middle" x="1122" y="-155.7" font-family="Times,serif" font-size="14.00">Treatment</text>
</g>
<!-- Start -->
<g id="node1" class="node">
<title>Start</title>
<polygon fill="lightblue" stroke="lightblue" points="1386.25,-434.5 1179.75,-434.5 1179.75,-398.5 1386.25,-398.5 1386.25,-434.5"/>
<text text-anchor="middle" x="1283" y="-411.45" font-family="Times,serif" font-size="14.00">Suspected Cerebral Toxoplasmosis</text>
</g>
<!-- NeuroDeficits -->
<g id="node2" class="node">
<title>NeuroDeficits</title>
<polygon fill="lightblue" stroke="lightblue" points="1125.88,-340 926.12,-340 926.12,-304 1125.88,-304 1125.88,-340"/>
<text text-anchor="middle" x="1026" y="-316.95" font-family="Times,serif" font-size="14.00">Progressive Neurological Deficits</text>
</g>
<!-- Start&#45;&gt;NeuroDeficits -->
<g id="edge4" class="edge">
<title>Start&#45;&gt;NeuroDeficits</title>
<path fill="none" stroke="black" d="M1215.29,-398.03C1189.85,-390.9 1160.85,-382.07 1135,-372.5 1113.62,-364.59 1090.55,-354.37 1071.17,-345.27"/>
<polygon fill="black" stroke="black" points="1072.71,-342.13 1062.18,-341 1069.71,-348.45 1072.71,-342.13"/>
</g>
<!-- Imaging -->
<g id="node3" class="node">
<title>Imaging</title>
<polygon fill="lightblue" stroke="lightblue" points="1421.88,-340 1144.12,-340 1144.12,-304 1421.88,-304 1421.88,-340"/>
<text text-anchor="middle" x="1283" y="-316.95" font-family="Times,serif" font-size="14.00">Contrast&#45;enhancing Mass Lesion(s) on CT/MRI</text>
</g>
<!-- Start&#45;&gt;Imaging -->
<g id="edge5" class="edge">
<title>Start&#45;&gt;Imaging</title>
<path fill="none" stroke="black" d="M1283,-398.1C1283,-385.05 1283,-366.9 1283,-351.71"/>
<polygon fill="black" stroke="black" points="1286.5,-351.83 1283,-341.83 1279.5,-351.83 1286.5,-351.83"/>
</g>
<!-- TreatmentResponse -->
<g id="node4" class="node">
<title>TreatmentResponse</title>
<polygon fill="lightblue" stroke="lightblue" points="1731.62,-340 1440.38,-340 1440.38,-304 1731.62,-304 1731.62,-340"/>
<text text-anchor="middle" x="1586" y="-316.95" font-family="Times,serif" font-size="14.00">Successful Response to Treatment within 2 Weeks</text>
</g>
<!-- Start&#45;&gt;TreatmentResponse -->
<g id="edge6" class="edge">
<title>Start&#45;&gt;TreatmentResponse</title>
<path fill="none" stroke="black" d="M1344.31,-398.08C1370.99,-390.4 1402.59,-381.16 1431,-372.5 1460.94,-363.37 1493.99,-352.87 1521.86,-343.9"/>
<polygon fill="black" stroke="black" points="1522.78,-347.28 1531.23,-340.88 1520.63,-340.62 1522.78,-347.28"/>
</g>
<!-- Diagnosis -->
<g id="node5" class="node">
<title>Diagnosis</title>
<ellipse fill="lightgreen" stroke="lightgreen" cx="1283" cy="-233.5" rx="142.97" ry="18"/>
<text text-anchor="middle" x="1283" y="-228.45" font-family="Times,serif" font-size="14.00">Diagnosis: Cerebral Toxoplasmosis</text>
</g>
<!-- NeuroDeficits&#45;&gt;Diagnosis -->
<g id="edge1" class="edge">
<title>NeuroDeficits&#45;&gt;Diagnosis</title>
<path fill="none" stroke="black" d="M1077.7,-303.6C1119.86,-289.41 1179.44,-269.36 1223.56,-254.5"/>
<polygon fill="black" stroke="black" points="1224.63,-257.84 1232.99,-251.33 1222.4,-251.2 1224.63,-257.84"/>
<text text-anchor="middle" x="1187.12" y="-272.7" font-family="Times,serif" font-size="14.00">Yes</text>
</g>
<!-- Imaging&#45;&gt;Diagnosis -->
<g id="edge2" class="edge">
<title>Imaging&#45;&gt;Diagnosis</title>
<path fill="none" stroke="black" d="M1283,-303.91C1283,-292.26 1283,-276.55 1283,-263.02"/>
<polygon fill="black" stroke="black" points="1286.5,-263.36 1283,-253.36 1279.5,-263.36 1286.5,-263.36"/>
<text text-anchor="middle" x="1293.12" y="-272.7" font-family="Times,serif" font-size="14.00">Yes</text>
</g>
<!-- TreatmentResponse&#45;&gt;Diagnosis -->
<g id="edge3" class="edge">
<title>TreatmentResponse&#45;&gt;Diagnosis</title>
<path fill="none" stroke="black" d="M1525.05,-303.6C1474.31,-289.11 1402.16,-268.52 1349.85,-253.58"/>
<polygon fill="black" stroke="black" points="1351.03,-250.28 1340.46,-250.9 1349.11,-257.01 1351.03,-250.28"/>
<text text-anchor="middle" x="1471.12" y="-272.7" font-family="Times,serif" font-size="14.00">Yes</text>
</g>
<!-- PyrimethamineSulfadiazine -->
<g id="node6" class="node">
<title>PyrimethamineSulfadiazine</title>
<polygon fill="lightblue" stroke="lightblue" points="510.25,-140.5 15.75,-140.5 15.75,-104.5 510.25,-104.5 510.25,-140.5"/>
<text text-anchor="middle" x="263" y="-117.45" font-family="Times,serif" font-size="14.00">Pyrimethamine 200 mg load, then 50 mg/day + Sulfadiazine 1 g four times daily (oral)</text>
</g>
<!-- Diagnosis&#45;&gt;PyrimethamineSulfadiazine -->
<g id="edge7" class="edge">
<title>Diagnosis&#45;&gt;PyrimethamineSulfadiazine</title>
<path fill="none" stroke="black" d="M1149.67,-226.7C996.83,-218.99 739.01,-202.74 519,-173 463.23,-165.46 401.26,-153.57 352.26,-143.33"/>
<polygon fill="black" stroke="black" points="353.04,-139.92 342.53,-141.29 351.6,-146.77 353.04,-139.92"/>
<text text-anchor="middle" x="774.12" y="-184.2" font-family="Times,serif" font-size="14.00">Primary Therapy</text>
</g>
<!-- Alternative1 -->
<g id="node7" class="node">
<title>Alternative1</title>
<polygon fill="lightblue" stroke="lightblue" points="907.88,-140.5 528.12,-140.5 528.12,-104.5 907.88,-104.5 907.88,-140.5"/>
<text text-anchor="middle" x="718" y="-117.45" font-family="Times,serif" font-size="14.00">Trimethroprim/sulfamethoxazol (TMP) 2.5–5 mg/kg (TMP) q.i.d.</text>
</g>
<!-- Diagnosis&#45;&gt;Alternative1 -->
<g id="edge8" class="edge">
<title>Diagnosis&#45;&gt;Alternative1</title>
<path fill="none" stroke="black" d="M1189.72,-219.51C1115.53,-208.65 1009.23,-191.93 917,-173 875.74,-164.53 830.11,-153.31 792.96,-143.7"/>
<polygon fill="black" stroke="black" points="794.24,-140.42 783.68,-141.29 792.48,-147.19 794.24,-140.42"/>
<text text-anchor="middle" x="1101.38" y="-184.2" font-family="Times,serif" font-size="14.00">Alternative Therapy</text>
</g>
<!-- Alternative2 -->
<g id="node8" class="node">
<title>Alternative2</title>
<polygon fill="lightblue" stroke="lightblue" points="1272,-140.5 926,-140.5 926,-104.5 1272,-104.5 1272,-140.5"/>
<text text-anchor="middle" x="1099" y="-117.45" font-family="Times,serif" font-size="14.00">Pyrimethamine 50 mg/day + Clarithromycin 1 g twice daily</text>
</g>
<!-- Diagnosis&#45;&gt;Alternative2 -->
<g id="edge9" class="edge">
<title>Diagnosis&#45;&gt;Alternative2</title>
<path fill="none" stroke="black" d="M1254.25,-215.47C1223.06,-196.99 1173.09,-167.39 1138.29,-146.77"/>
<polygon fill="black" stroke="black" points="1140.15,-143.81 1129.76,-141.72 1136.58,-149.83 1140.15,-143.81"/>
<text text-anchor="middle" x="1277.38" y="-184.2" font-family="Times,serif" font-size="14.00">Alternative Therapy</text>
</g>
<!-- Alternative3 -->
<g id="node9" class="node">
<title>Alternative3</title>
<polygon fill="lightblue" stroke="lightblue" points="1645.88,-140.5 1290.12,-140.5 1290.12,-104.5 1645.88,-104.5 1645.88,-140.5"/>
<text text-anchor="middle" x="1468" y="-117.45" font-family="Times,serif" font-size="14.00">Pyrimethamine 50 mg/day + Azithromycin 600–1800 mg/day</text>
</g>
<!-- Diagnosis&#45;&gt;Alternative3 -->
<g id="edge10" class="edge">
<title>Diagnosis&#45;&gt;Alternative3</title>
<path fill="none" stroke="black" d="M1311.91,-215.47C1343.26,-196.99 1393.51,-167.39 1428.5,-146.77"/>
<polygon fill="black" stroke="black" points="1430.24,-149.81 1437.08,-141.72 1426.68,-143.78 1430.24,-149.81"/>
<text text-anchor="middle" x="1423.38" y="-184.2" font-family="Times,serif" font-size="14.00">Alternative Therapy</text>
</g>
<!-- Alternative4 -->
<g id="node10" class="node">
<title>Alternative4</title>
<polygon fill="lightblue" stroke="lightblue" points="1958.12,-140.5 1663.88,-140.5 1663.88,-104.5 1958.12,-104.5 1958.12,-140.5"/>
<text text-anchor="middle" x="1811" y="-117.45" font-family="Times,serif" font-size="14.00">Pyrimethamine 50 mg/day + Dapsone 100 mg/day</text>
</g>
<!-- Diagnosis&#45;&gt;Alternative4 -->
<g id="edge11" class="edge">
<title>Diagnosis&#45;&gt;Alternative4</title>
<path fill="none" stroke="black" d="M1384.05,-220.47C1459.33,-210.51 1564.32,-194.51 1655,-173 1687.36,-165.32 1722.74,-154.32 1751.61,-144.63"/>
<polygon fill="black" stroke="black" points="1752.56,-148.01 1760.91,-141.48 1750.31,-141.38 1752.56,-148.01"/>
<text text-anchor="middle" x="1669.38" y="-184.2" font-family="Times,serif" font-size="14.00">Alternative Therapy</text>
</g>
<!-- Alternative5 -->
<g id="node11" class="node">
<title>Alternative5</title>
<polygon fill="lightblue" stroke="lightblue" points="2228.12,-140.5 1975.88,-140.5 1975.88,-104.5 2228.12,-104.5 2228.12,-140.5"/>
<text text-anchor="middle" x="2102" y="-117.45" font-family="Times,serif" font-size="14.00">Atovaquone 750 mg four times daily (oral)</text>
</g>
<!-- Diagnosis&#45;&gt;Alternative5 -->
<g id="edge12" class="edge">
<title>Diagnosis&#45;&gt;Alternative5</title>
<path fill="none" stroke="black" d="M1425.63,-231.65C1565.26,-228.13 1783.2,-215.42 1967,-173 1995.95,-166.32 2027.15,-155.15 2052.26,-145.12"/>
<polygon fill="black" stroke="black" points="2053.28,-148.48 2061.22,-141.47 2050.64,-142 2053.28,-148.48"/>
<text text-anchor="middle" x="1966.38" y="-184.2" font-family="Times,serif" font-size="14.00">Alternative Therapy</text>
</g>
<!-- SecondaryProphylaxis -->
<g id="node12" class="node">
<title>SecondaryProphylaxis</title>
<polygon fill="lightblue" stroke="lightblue" points="1650.62,-52 915.38,-52 915.38,-16 1650.62,-16 1650.62,-52"/>
<text text-anchor="middle" x="1283" y="-28.95" font-family="Times,serif" font-size="14.00">Secondary Prophylaxis: Pyrimethamine 50 mg/day + Sulfadiazine 500 mg four times daily or Atovaquone 750 mg four times daily</text>
</g>
<!-- PyrimethamineSulfadiazine&#45;&gt;SecondaryProphylaxis -->
<g id="edge13" class="edge">
<title>PyrimethamineSulfadiazine&#45;&gt;SecondaryProphylaxis</title>
<path fill="none" stroke="black" d="M469.11,-104.02C642.33,-89.33 889.17,-68.4 1065.52,-53.44"/>
<polygon fill="black" stroke="black" points="1065.59,-56.95 1075.26,-52.62 1065,-49.97 1065.59,-56.95"/>
<text text-anchor="middle" x="886.12" y="-73.2" font-family="Times,serif" font-size="14.00">6 weeks</text>
</g>
<!-- Alternative1&#45;&gt;SecondaryProphylaxis -->
<g id="edge14" class="edge">
<title>Alternative1&#45;&gt;SecondaryProphylaxis</title>
<path fill="none" stroke="black" d="M832,-104.05C926.35,-89.6 1060.23,-69.1 1157.6,-54.2"/>
<polygon fill="black" stroke="black" points="1157.84,-57.7 1167.2,-52.73 1156.79,-50.78 1157.84,-57.7"/>
<text text-anchor="middle" x="1073.12" y="-73.2" font-family="Times,serif" font-size="14.00">6 weeks</text>
</g>
<!-- Alternative2&#45;&gt;SecondaryProphylaxis -->
<g id="edge15" class="edge">
<title>Alternative2&#45;&gt;SecondaryProphylaxis</title>
<path fill="none" stroke="black" d="M1135.79,-104.2C1164.53,-90.69 1204.67,-71.82 1235.78,-57.2"/>
<polygon fill="black" stroke="black" points="1237.03,-60.48 1244.59,-53.06 1234.05,-54.15 1237.03,-60.48"/>
<text text-anchor="middle" x="1229.12" y="-73.2" font-family="Times,serif" font-size="14.00">6 weeks</text>
</g>
<!-- Alternative3&#45;&gt;SecondaryProphylaxis -->
<g id="edge16" class="edge">
<title>Alternative3&#45;&gt;SecondaryProphylaxis</title>
<path fill="none" stroke="black" d="M1431.01,-104.2C1402.11,-90.69 1361.75,-71.82 1330.47,-57.2"/>
<polygon fill="black" stroke="black" points="1332.16,-54.12 1321.62,-53.06 1329.19,-60.46 1332.16,-54.12"/>
<text text-anchor="middle" x="1414.12" y="-73.2" font-family="Times,serif" font-size="14.00">6 weeks</text>
</g>
<!-- Alternative4&#45;&gt;SecondaryProphylaxis -->
<g id="edge17" class="edge">
<title>Alternative4&#45;&gt;SecondaryProphylaxis</title>
<path fill="none" stroke="black" d="M1704.47,-104.05C1616.56,-89.65 1491.94,-69.23 1401.01,-54.33"/>
<polygon fill="black" stroke="black" points="1401.75,-50.91 1391.31,-52.74 1400.62,-57.82 1401.75,-50.91"/>
<text text-anchor="middle" x="1616.12" y="-73.2" font-family="Times,serif" font-size="14.00">6 weeks</text>
</g>
<!-- Alternative5&#45;&gt;SecondaryProphylaxis -->
<g id="edge18" class="edge">
<title>Alternative5&#45;&gt;SecondaryProphylaxis</title>
<path fill="none" stroke="black" d="M1975.54,-105.5C1972.66,-105.16 1969.82,-104.83 1967,-104.5 1803.38,-85.52 1617.41,-66.8 1480.73,-53.59"/>
<polygon fill="black" stroke="black" points="1481.11,-50.11 1470.82,-52.63 1480.44,-57.08 1481.11,-50.11"/>
<text text-anchor="middle" x="1820.12" y="-73.2" font-family="Times,serif" font-size="14.00">6 weeks</text>
</g>
</g>
</svg>
