<?xml version="1.0" encoding="UTF-8" standalone="no"?>
<!DOCTYPE svg PUBLIC "-//W3C//DTD SVG 1.1//EN"
 "http://www.w3.org/Graphics/SVG/1.1/DTD/svg11.dtd">
<!-- Generated by graphviz version 2.38.0 (20140413.2041)
 -->
<!-- Title: G Pages: 1 -->
<svg width="1090pt" height="479pt"
 viewBox="0.00 0.00 1090.15 479.00" xmlns="http://www.w3.org/2000/svg" xmlns:xlink="http://www.w3.org/1999/xlink">
<g id="graph0" class="graph" transform="scale(1 1) rotate(0) translate(4 475)">
<title>G</title>
<polygon fill="white" stroke="none" points="-4,4 -4,-475 1086.15,-475 1086.15,4 -4,4"/>
<!-- Adult Population -->
<g id="node1" class="node"><title>Adult Population</title>
<polygon fill="none" stroke="blue" points="814.317,-471 713.102,-453 814.317,-435 915.531,-453 814.317,-471"/>
<text text-anchor="middle" x="814.317" y="-449.3" font-family="Times,serif" font-size="14.00" fill="blue">Adult Population</text>
</g>
<!-- At Risk for TB? -->
<g id="node2" class="node"><title>At Risk for TB?</title>
<polygon fill="none" stroke="blue" points="814.317,-384 717.793,-366 814.317,-348 910.84,-366 814.317,-384"/>
<text text-anchor="middle" x="814.317" y="-362.3" font-family="Times,serif" font-size="14.00" fill="blue">At Risk for TB?</text>
</g>
<!-- Adult Population&#45;&gt;At Risk for TB? -->
<g id="edge1" class="edge"><title>Adult Population&#45;&gt;At Risk for TB?</title>
<path fill="none" stroke="black" d="M814.317,-434.799C814.317,-423.163 814.317,-407.548 814.317,-394.237"/>
<polygon fill="black" stroke="black" points="817.817,-394.175 814.317,-384.175 810.817,-394.175 817.817,-394.175"/>
<text text-anchor="middle" x="850.817" y="-405.8" font-family="Times,serif" font-size="14.00">Denominator</text>
</g>
<!-- History of TB exposure -->
<g id="node3" class="node"><title>History of TB exposure</title>
<polygon fill="none" stroke="blue" points="562.317,-297 427.922,-279 562.317,-261 696.711,-279 562.317,-297"/>
<text text-anchor="middle" x="562.317" y="-275.3" font-family="Times,serif" font-size="14.00" fill="blue">History of TB exposure</text>
</g>
<!-- At Risk for TB?&#45;&gt;History of TB exposure -->
<g id="edge2" class="edge"><title>At Risk for TB?&#45;&gt;History of TB exposure</title>
<path fill="none" stroke="black" d="M781.63,-353.975C737.433,-339.067 658.387,-312.405 608.239,-295.49"/>
<polygon fill="black" stroke="black" points="609.208,-292.123 598.614,-292.243 606.971,-298.756 609.208,-292.123"/>
<text text-anchor="middle" x="715.317" y="-318.8" font-family="Times,serif" font-size="14.00">Yes</text>
</g>
<!-- Not Recommended for Screening -->
<g id="node4" class="node"><title>Not Recommended for Screening</title>
<polygon fill="none" stroke="blue" points="898.317,-297 714.653,-279 898.317,-261 1081.98,-279 898.317,-297"/>
<text text-anchor="middle" x="898.317" y="-275.3" font-family="Times,serif" font-size="14.00" fill="blue">Not Recommended for Screening</text>
</g>
<!-- At Risk for TB?&#45;&gt;Not Recommended for Screening -->
<g id="edge3" class="edge"><title>At Risk for TB?&#45;&gt;Not Recommended for Screening</title>
<path fill="none" stroke="black" d="M828.566,-350.581C841.401,-337.593 860.494,-318.273 875.461,-303.128"/>
<polygon fill="black" stroke="black" points="878.316,-305.217 882.856,-295.644 873.337,-300.297 878.316,-305.217"/>
<text text-anchor="middle" x="870.817" y="-318.8" font-family="Times,serif" font-size="14.00">No</text>
</g>
<!-- Underlying Health Conditions? -->
<g id="node5" class="node"><title>Underlying Health Conditions?</title>
<polygon fill="none" stroke="blue" points="327.317,-210 155.552,-192 327.317,-174 499.081,-192 327.317,-210"/>
<text text-anchor="middle" x="327.317" y="-188.3" font-family="Times,serif" font-size="14.00" fill="blue">Underlying Health Conditions?</text>
</g>
<!-- History of TB exposure&#45;&gt;Underlying Health Conditions? -->
<g id="edge4" class="edge"><title>History of TB exposure&#45;&gt;Underlying Health Conditions?</title>
<path fill="none" stroke="black" d="M527.894,-265.549C487.036,-250.771 418.74,-226.068 373.364,-209.655"/>
<polygon fill="black" stroke="black" points="374.36,-206.294 363.765,-206.184 371.979,-212.876 374.36,-206.294"/>
<text text-anchor="middle" x="470.317" y="-231.8" font-family="Times,serif" font-size="14.00">Yes</text>
</g>
<!-- Annual TB Screening -->
<g id="node6" class="node"><title>Annual TB Screening</title>
<polygon fill="none" stroke="blue" points="641.317,-210 517.144,-192 641.317,-174 765.489,-192 641.317,-210"/>
<text text-anchor="middle" x="641.317" y="-188.3" font-family="Times,serif" font-size="14.00" fill="blue">Annual TB Screening</text>
</g>
<!-- History of TB exposure&#45;&gt;Annual TB Screening -->
<g id="edge5" class="edge"><title>History of TB exposure&#45;&gt;Annual TB Screening</title>
<path fill="none" stroke="black" d="M576.44,-262.804C588.685,-249.629 606.573,-230.383 620.465,-215.435"/>
<polygon fill="black" stroke="black" points="623.071,-217.772 627.315,-208.065 617.944,-213.007 623.071,-217.772"/>
<text text-anchor="middle" x="615.817" y="-231.8" font-family="Times,serif" font-size="14.00">No</text>
</g>
<!-- Immunosuppressed Patients -->
<g id="node7" class="node"><title>Immunosuppressed Patients</title>
<polygon fill="none" stroke="blue" points="215.317,-123 59.3027,-105 215.317,-87 371.33,-105 215.317,-123"/>
<text text-anchor="middle" x="215.317" y="-101.3" font-family="Times,serif" font-size="14.00" fill="blue">Immunosuppressed Patients</text>
</g>
<!-- Underlying Health Conditions?&#45;&gt;Immunosuppressed Patients -->
<g id="edge6" class="edge"><title>Underlying Health Conditions?&#45;&gt;Immunosuppressed Patients</title>
<path fill="none" stroke="black" d="M307.551,-175.999C289.638,-162.404 263.055,-142.23 243.024,-127.028"/>
<polygon fill="black" stroke="black" points="244.966,-124.108 234.884,-120.851 240.734,-129.684 244.966,-124.108"/>
<text text-anchor="middle" x="289.317" y="-144.8" font-family="Times,serif" font-size="14.00">Yes</text>
</g>
<!-- General At&#45;Risk Population -->
<g id="node8" class="node"><title>General At&#45;Risk Population</title>
<polygon fill="none" stroke="blue" points="563.317,-123 408.98,-105 563.317,-87 717.653,-105 563.317,-123"/>
<text text-anchor="middle" x="563.317" y="-101.3" font-family="Times,serif" font-size="14.00" fill="blue">General At&#45;Risk Population</text>
</g>
<!-- Underlying Health Conditions?&#45;&gt;General At&#45;Risk Population -->
<g id="edge7" class="edge"><title>Underlying Health Conditions?&#45;&gt;General At&#45;Risk Population</title>
<path fill="none" stroke="black" d="M363.933,-177.812C405.425,-162.868 473.094,-138.495 517.912,-122.353"/>
<polygon fill="black" stroke="black" points="519.167,-125.622 527.389,-118.94 516.795,-119.036 519.167,-125.622"/>
<text text-anchor="middle" x="468.817" y="-144.8" font-family="Times,serif" font-size="14.00">No</text>
</g>
<!-- TB Blood Test, Every 6 Months -->
<g id="node9" class="node"><title>TB Blood Test, Every 6 Months</title>
<polygon fill="none" stroke="blue" points="178.317,-36 0.183303,-18 178.317,-3.55271e-15 356.45,-18 178.317,-36"/>
<text text-anchor="middle" x="178.317" y="-14.3" font-family="Times,serif" font-size="14.00" fill="blue">TB Blood Test, Every 6 Months</text>
</g>
<!-- Immunosuppressed Patients&#45;&gt;TB Blood Test, Every 6 Months -->
<g id="edge8" class="edge"><title>Immunosuppressed Patients&#45;&gt;TB Blood Test, Every 6 Months</title>
<path fill="none" stroke="black" d="M208.183,-87.6111C202.91,-75.4993 195.627,-58.7682 189.573,-44.8603"/>
<polygon fill="black" stroke="black" points="192.629,-43.1106 185.429,-35.3385 186.211,-45.9045 192.629,-43.1106"/>
<text text-anchor="middle" x="229.317" y="-57.8" font-family="Times,serif" font-size="14.00">Numerator</text>
</g>
<!-- TB Blood Test or Skin Test, Annually -->
<g id="node10" class="node"><title>TB Blood Test or Skin Test, Annually</title>
<polygon fill="none" stroke="blue" points="582.317,-36 374.357,-18 582.317,-3.55271e-15 790.276,-18 582.317,-36"/>
<text text-anchor="middle" x="582.317" y="-14.3" font-family="Times,serif" font-size="14.00" fill="blue">TB Blood Test or Skin Test, Annually</text>
</g>
<!-- General At&#45;Risk Population&#45;&gt;TB Blood Test or Skin Test, Annually -->
<g id="edge9" class="edge"><title>General At&#45;Risk Population&#45;&gt;TB Blood Test or Skin Test, Annually</title>
<path fill="none" stroke="black" d="M567.07,-87.2067C569.725,-75.332 573.338,-59.1684 576.38,-45.5567"/>
<polygon fill="black" stroke="black" points="579.805,-46.2811 578.571,-35.7584 572.973,-44.754 579.805,-46.2811"/>
<text text-anchor="middle" x="604.317" y="-57.8" font-family="Times,serif" font-size="14.00">Numerator</text>
</g>
</g>
</svg>
