<?xml version="1.0" encoding="UTF-8" standalone="no"?><!DOCTYPE svg PUBLIC "-//W3C//DTD SVG 1.1//EN" "http://www.w3.org/Graphics/SVG/1.1/DTD/svg11.dtd"><!-- Generated by graphviz version 2.40.1 (20161225.0304)
 --><!-- Title: G Pages: 1 --><svg xmlns="http://www.w3.org/2000/svg" xmlns:xlink="http://www.w3.org/1999/xlink" width="1477pt" height="295pt" viewBox="0.00 0.00 1477.01 294.60">
<g id="graph0" class="graph" transform="scale(1 1) rotate(0) translate(4 290.6)">
<title>G</title>
<polygon fill="#ffffff" stroke="transparent" points="-4,4 -4,-290.6 1473.0136,-290.6 1473.0136,4 -4,4"/>
<!-- start -->
<g id="node1" class="node">
<title>start</title>
<polygon fill="none" stroke="#0000ff" points="1113.1617,-286.6 1000.5413,-286.6 1000.5413,-250.6 1113.1617,-250.6 1113.1617,-286.6"/>
<text text-anchor="middle" x="1056.8515" y="-264.4" font-family="Times,serif" font-size="14.00" fill="#0000ff">Pregnant Persons</text>
</g>
<!-- highRisk -->
<g id="node2" class="node">
<title>highRisk</title>
<polygon fill="none" stroke="#0000ff" points="1056.8515,-213.6 883.8667,-195.6 1056.8515,-177.6 1229.8363,-195.6 1056.8515,-213.6"/>
<text text-anchor="middle" x="1056.8515" y="-191.4" font-family="Times,serif" font-size="14.00" fill="#0000ff">High Risk for Preeclampsia?</text>
</g>
<!-- start&#45;&gt;highRisk -->
<g id="edge1" class="edge">
<title>start-&gt;highRisk</title>
<path fill="none" stroke="#000000" d="M1056.8515,-250.5551C1056.8515,-242.4828 1056.8515,-232.7764 1056.8515,-223.7817"/>
<polygon fill="#000000" stroke="#000000" points="1060.3516,-223.6903 1056.8515,-213.6904 1053.3516,-223.6904 1060.3516,-223.6903"/>
</g>
<!-- moderateRisk -->
<g id="node3" class="node">
<title>moderateRisk</title>
<polygon fill="none" stroke="#0000ff" points="846.8515,-124.8 648.8384,-106.8 846.8515,-88.8 1044.8646,-106.8 846.8515,-124.8"/>
<text text-anchor="middle" x="846.8515" y="-102.6" font-family="Times,serif" font-size="14.00" fill="#0000ff">Moderate Risk for Preeclampsia?</text>
</g>
<!-- highRisk&#45;&gt;moderateRisk -->
<g id="edge3" class="edge">
<title>highRisk-&gt;moderateRisk</title>
<path fill="none" stroke="#000000" d="M1022.644,-181.1351C986.9655,-166.0482 930.8746,-142.3298 891.6753,-125.7541"/>
<polygon fill="#000000" stroke="#000000" points="892.6696,-122.3745 882.096,-121.7034 889.9433,-128.8218 892.6696,-122.3745"/>
<text text-anchor="middle" x="979.4048" y="-147" font-family="Times,serif" font-size="14.00" fill="#000000">No</text>
</g>
<!-- recommendationHigh -->
<g id="node4" class="node">
<title>recommendationHigh</title>
<polygon fill="none" stroke="#0000ff" points="1469.1758,-124.8 1062.5272,-124.8 1062.5272,-88.8 1469.1758,-88.8 1469.1758,-124.8"/>
<text text-anchor="middle" x="1265.8515" y="-102.6" font-family="Times,serif" font-size="14.00" fill="#0000ff">Recommend low-dose aspirin (81mg/day) after 12 weeks of gestation</text>
</g>
<!-- highRisk&#45;&gt;recommendationHigh -->
<g id="edge2" class="edge">
<title>highRisk-&gt;recommendationHigh</title>
<path fill="none" stroke="#000000" d="M1090.8961,-181.1351C1124.1655,-166.9996 1175.2684,-145.287 1213.6691,-128.9713"/>
<polygon fill="#000000" stroke="#000000" points="1215.3047,-132.0792 1223.1397,-124.9474 1212.5673,-125.6366 1215.3047,-132.0792"/>
<text text-anchor="middle" x="1191.7344" y="-147" font-family="Times,serif" font-size="14.00" fill="#000000">Yes</text>
</g>
<!-- recommendationModerateTwo -->
<g id="node5" class="node">
<title>recommendationModerateTwo</title>
<polygon fill="none" stroke="#0000ff" points="565.5546,-36 .1484,-36 .1484,0 565.5546,0 565.5546,-36"/>
<text text-anchor="middle" x="282.8515" y="-13.8" font-family="Times,serif" font-size="14.00" fill="#0000ff">Recommend low-dose aspirin (81mg/day) after 12 weeks of gestation if ≥2 moderate-risk factors</text>
</g>
<!-- moderateRisk&#45;&gt;recommendationModerateTwo -->
<g id="edge4" class="edge">
<title>moderateRisk-&gt;recommendationModerateTwo</title>
<path fill="none" stroke="#000000" d="M774.273,-95.3727C681.641,-80.7881 519.9427,-55.3293 407.4334,-37.615"/>
<polygon fill="#000000" stroke="#000000" points="407.8068,-34.1308 397.3841,-36.0328 406.7181,-41.0456 407.8068,-34.1308"/>
<text text-anchor="middle" x="687.7653" y="-58.2" font-family="Times,serif" font-size="14.00" fill="#000000">≥2 moderate-risk factors</text>
</g>
<!-- considerModerateOne -->
<g id="node6" class="node">
<title>considerModerateOne</title>
<polygon fill="none" stroke="#0000ff" points="1109.8953,-36 583.8077,-36 583.8077,0 1109.8953,0 1109.8953,-36"/>
<text text-anchor="middle" x="846.8515" y="-13.8" font-family="Times,serif" font-size="14.00" fill="#0000ff">Consider low-dose aspirin (81mg/day) after 12 weeks of gestation if 1 moderate-risk factor</text>
</g>
<!-- moderateRisk&#45;&gt;considerModerateOne -->
<g id="edge5" class="edge">
<title>moderateRisk-&gt;considerModerateOne</title>
<path fill="none" stroke="#000000" d="M846.8515,-88.4006C846.8515,-76.2949 846.8515,-60.2076 846.8515,-46.4674"/>
<polygon fill="#000000" stroke="#000000" points="850.3516,-46.072 846.8515,-36.072 843.3516,-46.0721 850.3516,-46.072"/>
<text text-anchor="middle" x="909.043" y="-58.2" font-family="Times,serif" font-size="14.00" fill="#000000">1 moderate-risk factor</text>
</g>
<!-- noRecommendation -->
<g id="node7" class="node">
<title>noRecommendation</title>
<polygon fill="none" stroke="#0000ff" points="1347.8529,-36 1127.8501,-36 1127.8501,0 1347.8529,0 1347.8529,-36"/>
<text text-anchor="middle" x="1237.8515" y="-13.8" font-family="Times,serif" font-size="14.00" fill="#0000ff">Do not recommend low-dose aspirin</text>
</g>
<!-- moderateRisk&#45;&gt;noRecommendation -->
<g id="edge6" class="edge">
<title>moderateRisk-&gt;noRecommendation</title>
<path fill="none" stroke="#000000" d="M903.7063,-93.8877C967.9627,-79.2944 1073.3889,-55.3511 1148.6352,-38.2619"/>
<polygon fill="#000000" stroke="#000000" points="1149.605,-41.6309 1158.5815,-36.003 1148.0546,-34.8047 1149.605,-41.6309"/>
<text text-anchor="middle" x="1123.1506" y="-58.2" font-family="Times,serif" font-size="14.00" fill="#000000">No or Low Risk</text>
</g>
</g>
</svg>