<?xml version="1.0" encoding="UTF-8" standalone="no"?><!DOCTYPE svg PUBLIC "-//W3C//DTD SVG 1.1//EN" "http://www.w3.org/Graphics/SVG/1.1/DTD/svg11.dtd"><!-- Generated by graphviz version 2.40.1 (20161225.0304)
 --><!-- Title: G Pages: 1 --><svg xmlns="http://www.w3.org/2000/svg" xmlns:xlink="http://www.w3.org/1999/xlink" width="536pt" height="138pt" viewBox="0.00 0.00 535.68 138.40">
<g id="graph0" class="graph" transform="scale(1 1) rotate(0) translate(4 134.4)">
<title>G</title>
<polygon fill="#ffffff" stroke="transparent" points="-4,4 -4,-134.4 531.6846,-134.4 531.6846,4 -4,4"/>
<!-- Age8to18 -->
<g id="node1" class="node">
<title>Age8to18</title>
<polygon fill="none" stroke="#0000ff" points="202.1196,-130.4 77.4682,-112.4 202.1196,-94.4 326.771,-112.4 202.1196,-130.4"/>
<text text-anchor="middle" x="202.1196" y="-108.2" font-family="Times,serif" font-size="14.00" fill="#0000ff">Aged 8 to 18 years?</text>
</g>
<!-- Screen8to18 -->
<g id="node2" class="node">
<title>Screen8to18</title>
<polygon fill="none" stroke="#000000" points="132.359,-41.4019 -.1198,-41.4019 -.1198,-.1981 132.359,-.1981 132.359,-41.4019"/>
<text text-anchor="middle" x="66.1196" y="-25" font-family="Times,serif" font-size="14.00" fill="#000000">Screen for anxiety</text>
<text text-anchor="middle" x="66.1196" y="-8.2" font-family="Times,serif" font-size="14.00" fill="#000000">(B recommendation)</text>
</g>
<!-- Age8to18&#45;&gt;Screen8to18 -->
<g id="edge1" class="edge">
<title>Age8to18-&gt;Screen8to18</title>
<path fill="none" stroke="#000000" d="M179.9662,-97.479C159.7673,-83.8745 129.4663,-63.4659 105.2021,-47.1232"/>
<polygon fill="#000000" stroke="#000000" points="107.1472,-44.2134 96.8978,-41.53 103.2367,-50.0194 107.1472,-44.2134"/>
<text text-anchor="middle" x="158.0025" y="-63.8" font-family="Times,serif" font-size="14.00" fill="#000000">Yes</text>
</g>
<!-- ScreenBelow7 -->
<g id="node3" class="node">
<title>ScreenBelow7</title>
<polygon fill="none" stroke="#000000" points="527.7496,-41.4019 150.4896,-41.4019 150.4896,-.1981 527.7496,-.1981 527.7496,-41.4019"/>
<text text-anchor="middle" x="339.1196" y="-25" font-family="Times,serif" font-size="14.00" fill="#000000">Insufficient evidence to assess the balance of benefits and harms</text>
<text text-anchor="middle" x="339.1196" y="-8.2" font-family="Times,serif" font-size="14.00" fill="#000000">(I statement)</text>
</g>
<!-- Age8to18&#45;&gt;ScreenBelow7 -->
<g id="edge2" class="edge">
<title>Age8to18-&gt;ScreenBelow7</title>
<path fill="none" stroke="#000000" d="M224.4359,-97.479C244.7833,-83.8745 275.3071,-63.4659 299.7497,-47.1232"/>
<polygon fill="#000000" stroke="#000000" points="301.7474,-49.9978 308.1151,-41.53 297.8567,-44.1787 301.7474,-49.9978"/>
<text text-anchor="middle" x="287.6729" y="-63.8" font-family="Times,serif" font-size="14.00" fill="#000000">No</text>
</g>
</g>
</svg>