<?xml version="1.0" encoding="UTF-8" standalone="no"?>
<!DOCTYPE svg PUBLIC "-//W3C//DTD SVG 1.1//EN"
 "http://www.w3.org/Graphics/SVG/1.1/DTD/svg11.dtd">
<!-- Generated by graphviz version 2.43.0 (0)
 -->
<!-- Title: RTP_Protocol Pages: 1 -->
<svg width="718pt" height="1559pt"
 viewBox="0.00 0.00 717.85 1559.39" xmlns="http://www.w3.org/2000/svg" xmlns:xlink="http://www.w3.org/1999/xlink">
<g id="graph0" class="graph" transform="scale(1 1) rotate(0) translate(4 1555.39)">
<title>RTP_Protocol</title>
<polygon fill="white" stroke="transparent" points="-4,4 -4,-1555.39 713.85,-1555.39 713.85,4 -4,4"/>
<!-- Suspected_Concussion -->
<g id="node1" class="node">
<title>Suspected_Concussion</title>
<g id="a_node1"><a xlink:title="All individuals presenting with signs, symptoms, or suspected diagnosis of a concussion sustained during participation in organized or recreational sports activities.">
<path fill="none" stroke="green" d="M346,-1551.39C346,-1551.39 272,-1551.39 272,-1551.39 266,-1551.39 260,-1545.39 260,-1539.39 260,-1539.39 260,-1525.39 260,-1525.39 260,-1519.39 266,-1513.39 272,-1513.39 272,-1513.39 346,-1513.39 346,-1513.39 352,-1513.39 358,-1519.39 358,-1525.39 358,-1525.39 358,-1539.39 358,-1539.39 358,-1545.39 352,-1551.39 346,-1551.39"/>
<text text-anchor="middle" x="309" y="-1536.19" font-family="Times,serif" font-size="14.00" fill="green">Suspected</text>
<text text-anchor="middle" x="309" y="-1521.19" font-family="Times,serif" font-size="14.00" fill="green">Concussion</text>
</a>
</g>
</g>
<!-- Clinically_Confirmed -->
<g id="node13" class="node">
<title>Clinically_Confirmed</title>
<g id="a_node13"><a xlink:title="Confirmed to have a concussion based on clinical evaluation.">
<ellipse fill="none" stroke="blue" cx="72" cy="-1424.92" rx="64.19" ry="26.74"/>
<text text-anchor="middle" x="72" y="-1428.72" font-family="Times,serif" font-size="14.00" fill="blue">Clinically</text>
<text text-anchor="middle" x="72" y="-1413.72" font-family="Times,serif" font-size="14.00" fill="blue">Confirmed</text>
</a>
</g>
</g>
<!-- Suspected_Concussion&#45;&gt;Clinically_Confirmed -->
<g id="edge1" class="edge">
<title>Suspected_Concussion&#45;&gt;Clinically_Confirmed</title>
<path fill="none" stroke="blue" d="M263.76,-1513.29C230.63,-1499.8 184.71,-1480.65 145,-1462.39 137.05,-1458.74 128.69,-1454.73 120.57,-1450.74"/>
<polygon fill="blue" stroke="blue" points="122.07,-1447.57 111.55,-1446.27 118.96,-1453.85 122.07,-1447.57"/>
<text text-anchor="middle" x="222" y="-1484.19" font-family="Times,serif" font-size="14.00" fill="blue">if</text>
</g>
<!-- Mod_Sev_TBI -->
<g id="node14" class="node">
<title>Mod_Sev_TBI</title>
<g id="a_node14"><a xlink:title="Suspected or confirmed moderate to severe TBI requiring hospitalization or specialized neurosurgical intervention.">
<ellipse fill="none" stroke="blue" cx="253" cy="-1424.92" rx="98.99" ry="26.74"/>
<text text-anchor="middle" x="253" y="-1428.72" font-family="Times,serif" font-size="14.00" fill="blue">Moderate/Severe</text>
<text text-anchor="middle" x="253" y="-1413.72" font-family="Times,serif" font-size="14.00" fill="blue">TBI</text>
</a>
</g>
</g>
<!-- Suspected_Concussion&#45;&gt;Mod_Sev_TBI -->
<g id="edge3" class="edge">
<title>Suspected_Concussion&#45;&gt;Mod_Sev_TBI</title>
<path fill="none" stroke="blue" d="M299.25,-1513.02C291.56,-1498.55 280.63,-1477.95 271.32,-1460.42"/>
<polygon fill="blue" stroke="blue" points="274.41,-1458.78 266.63,-1451.58 268.23,-1462.06 274.41,-1458.78"/>
<text text-anchor="middle" x="295" y="-1484.19" font-family="Times,serif" font-size="14.00" fill="blue">if</text>
</g>
<!-- Preexisting_Neuro_Cond -->
<g id="node15" class="node">
<title>Preexisting_Neuro_Cond</title>
<g id="a_node15"><a xlink:title="Pre&#45;existing neurological conditions that may confound concussion assessment and management.">
<ellipse fill="none" stroke="blue" cx="446" cy="-1424.92" rx="75.82" ry="37.45"/>
<text text-anchor="middle" x="446" y="-1436.22" font-family="Times,serif" font-size="14.00" fill="blue">Pre&#45;existing</text>
<text text-anchor="middle" x="446" y="-1421.22" font-family="Times,serif" font-size="14.00" fill="blue">Neurological</text>
<text text-anchor="middle" x="446" y="-1406.22" font-family="Times,serif" font-size="14.00" fill="blue">Condition</text>
</a>
</g>
</g>
<!-- Suspected_Concussion&#45;&gt;Preexisting_Neuro_Cond -->
<g id="edge5" class="edge">
<title>Suspected_Concussion&#45;&gt;Preexisting_Neuro_Cond</title>
<path fill="none" stroke="blue" d="M332.55,-1513.26C350.47,-1499.47 375.74,-1480.01 397.88,-1462.96"/>
<polygon fill="blue" stroke="blue" points="400.09,-1465.68 405.88,-1456.81 395.82,-1460.13 400.09,-1465.68"/>
<text text-anchor="middle" x="379" y="-1484.19" font-family="Times,serif" font-size="14.00" fill="blue">if</text>
</g>
<!-- Susp_Cervical_Spine_Inj -->
<g id="node16" class="node">
<title>Susp_Cervical_Spine_Inj</title>
<g id="a_node16"><a xlink:title="Suspected cervical spine injury.">
<ellipse fill="none" stroke="blue" cx="625" cy="-1424.92" rx="84.71" ry="37.45"/>
<text text-anchor="middle" x="625" y="-1436.22" font-family="Times,serif" font-size="14.00" fill="blue">Suspected</text>
<text text-anchor="middle" x="625" y="-1421.22" font-family="Times,serif" font-size="14.00" fill="blue">Cervical Spine</text>
<text text-anchor="middle" x="625" y="-1406.22" font-family="Times,serif" font-size="14.00" fill="blue">Injury</text>
</a>
</g>
</g>
<!-- Suspected_Concussion&#45;&gt;Susp_Cervical_Spine_Inj -->
<g id="edge7" class="edge">
<title>Suspected_Concussion&#45;&gt;Susp_Cervical_Spine_Inj</title>
<path fill="none" stroke="blue" d="M358.26,-1517.14C403.45,-1503.82 472.13,-1482.94 531,-1462.39 538.32,-1459.84 545.92,-1457.08 553.49,-1454.25"/>
<polygon fill="blue" stroke="blue" points="554.91,-1457.46 563.03,-1450.66 552.44,-1450.91 554.91,-1457.46"/>
<text text-anchor="middle" x="482" y="-1484.19" font-family="Times,serif" font-size="14.00" fill="blue">if</text>
</g>
<!-- Confirmed_Concussion -->
<g id="node2" class="node">
<title>Confirmed_Concussion</title>
<g id="a_node2"><a xlink:title="Individuals confirmed to have a concussion based on clinical evaluation.">
<path fill="none" stroke="green" d="M109,-1336.44C109,-1336.44 35,-1336.44 35,-1336.44 29,-1336.44 23,-1330.44 23,-1324.44 23,-1324.44 23,-1310.44 23,-1310.44 23,-1304.44 29,-1298.44 35,-1298.44 35,-1298.44 109,-1298.44 109,-1298.44 115,-1298.44 121,-1304.44 121,-1310.44 121,-1310.44 121,-1324.44 121,-1324.44 121,-1330.44 115,-1336.44 109,-1336.44"/>
<text text-anchor="middle" x="72" y="-1321.24" font-family="Times,serif" font-size="14.00" fill="green">Confirmed</text>
<text text-anchor="middle" x="72" y="-1306.24" font-family="Times,serif" font-size="14.00" fill="green">Concussion</text>
</a>
</g>
</g>
<!-- Initial_Assessment -->
<g id="node6" class="node">
<title>Initial_Assessment</title>
<g id="a_node6"><a xlink:title="Remove from Play, Clinical Evaluation, Rest, Symptom Monitoring, Education">
<path fill="none" stroke="green" d="M110.5,-1261.44C110.5,-1261.44 33.5,-1261.44 33.5,-1261.44 27.5,-1261.44 21.5,-1255.44 21.5,-1249.44 21.5,-1249.44 21.5,-1235.44 21.5,-1235.44 21.5,-1229.44 27.5,-1223.44 33.5,-1223.44 33.5,-1223.44 110.5,-1223.44 110.5,-1223.44 116.5,-1223.44 122.5,-1229.44 122.5,-1235.44 122.5,-1235.44 122.5,-1249.44 122.5,-1249.44 122.5,-1255.44 116.5,-1261.44 110.5,-1261.44"/>
<text text-anchor="middle" x="72" y="-1246.24" font-family="Times,serif" font-size="14.00" fill="green">Initial</text>
<text text-anchor="middle" x="72" y="-1231.24" font-family="Times,serif" font-size="14.00" fill="green">Assessment</text>
</a>
</g>
</g>
<!-- Confirmed_Concussion&#45;&gt;Initial_Assessment -->
<g id="edge9" class="edge">
<title>Confirmed_Concussion&#45;&gt;Initial_Assessment</title>
<path fill="none" stroke="blue" d="M72,-1298.4C72,-1290.32 72,-1280.62 72,-1271.62"/>
<polygon fill="blue" stroke="blue" points="75.5,-1271.53 72,-1261.53 68.5,-1271.53 75.5,-1271.53"/>
</g>
<!-- Excluded_Moderate_Severe_TBI -->
<g id="node3" class="node">
<title>Excluded_Moderate_Severe_TBI</title>
<g id="a_node3"><a xlink:title="Individuals with suspected or confirmed moderate to severe traumatic brain injury (TBI) requiring hospitalization or specialized neurosurgical intervention.">
<path fill="none" stroke="green" d="M325.5,-1336.44C325.5,-1336.44 180.5,-1336.44 180.5,-1336.44 174.5,-1336.44 168.5,-1330.44 168.5,-1324.44 168.5,-1324.44 168.5,-1310.44 168.5,-1310.44 168.5,-1304.44 174.5,-1298.44 180.5,-1298.44 180.5,-1298.44 325.5,-1298.44 325.5,-1298.44 331.5,-1298.44 337.5,-1304.44 337.5,-1310.44 337.5,-1310.44 337.5,-1324.44 337.5,-1324.44 337.5,-1330.44 331.5,-1336.44 325.5,-1336.44"/>
<text text-anchor="middle" x="253" y="-1321.24" font-family="Times,serif" font-size="14.00" fill="green">Excluded:</text>
<text text-anchor="middle" x="253" y="-1306.24" font-family="Times,serif" font-size="14.00" fill="green">Moderate/Severe TBI</text>
</a>
</g>
</g>
<!-- Excluded_Preexisting_Neuro -->
<g id="node4" class="node">
<title>Excluded_Preexisting_Neuro</title>
<g id="a_node4"><a xlink:title="Individuals with pre&#45;existing neurological conditions that may confound concussion assessment and management.">
<path fill="none" stroke="green" d="M510,-1336.44C510,-1336.44 382,-1336.44 382,-1336.44 376,-1336.44 370,-1330.44 370,-1324.44 370,-1324.44 370,-1310.44 370,-1310.44 370,-1304.44 376,-1298.44 382,-1298.44 382,-1298.44 510,-1298.44 510,-1298.44 516,-1298.44 522,-1304.44 522,-1310.44 522,-1310.44 522,-1324.44 522,-1324.44 522,-1330.44 516,-1336.44 510,-1336.44"/>
<text text-anchor="middle" x="446" y="-1321.24" font-family="Times,serif" font-size="14.00" fill="green">Excluded:</text>
<text text-anchor="middle" x="446" y="-1306.24" font-family="Times,serif" font-size="14.00" fill="green">Pre&#45;existing Neuro</text>
</a>
</g>
</g>
<!-- Excluded_Cervical_Spine -->
<g id="node5" class="node">
<title>Excluded_Cervical_Spine</title>
<g id="a_node5"><a xlink:title="Individuals with suspected cervical spine injury.">
<path fill="none" stroke="green" d="M696.5,-1336.44C696.5,-1336.44 553.5,-1336.44 553.5,-1336.44 547.5,-1336.44 541.5,-1330.44 541.5,-1324.44 541.5,-1324.44 541.5,-1310.44 541.5,-1310.44 541.5,-1304.44 547.5,-1298.44 553.5,-1298.44 553.5,-1298.44 696.5,-1298.44 696.5,-1298.44 702.5,-1298.44 708.5,-1304.44 708.5,-1310.44 708.5,-1310.44 708.5,-1324.44 708.5,-1324.44 708.5,-1330.44 702.5,-1336.44 696.5,-1336.44"/>
<text text-anchor="middle" x="625" y="-1321.24" font-family="Times,serif" font-size="14.00" fill="green">Excluded:</text>
<text text-anchor="middle" x="625" y="-1306.24" font-family="Times,serif" font-size="14.00" fill="green">Cervical Spine Injury</text>
</a>
</g>
</g>
<!-- Stage_1 -->
<g id="node7" class="node">
<title>Stage_1</title>
<g id="a_node7"><a xlink:title="Light aerobic exercise at an intensity that does not provoke symptoms.">
<path fill="none" stroke="green" d="M132,-1186.44C132,-1186.44 12,-1186.44 12,-1186.44 6,-1186.44 0,-1180.44 0,-1174.44 0,-1174.44 0,-1145.44 0,-1145.44 0,-1139.44 6,-1133.44 12,-1133.44 12,-1133.44 132,-1133.44 132,-1133.44 138,-1133.44 144,-1139.44 144,-1145.44 144,-1145.44 144,-1174.44 144,-1174.44 144,-1180.44 138,-1186.44 132,-1186.44"/>
<text text-anchor="middle" x="72" y="-1171.24" font-family="Times,serif" font-size="14.00" fill="green">Stage 1:</text>
<text text-anchor="middle" x="72" y="-1156.24" font-family="Times,serif" font-size="14.00" fill="green">Symptom&#45;Limited</text>
<text text-anchor="middle" x="72" y="-1141.24" font-family="Times,serif" font-size="14.00" fill="green">Activity</text>
</a>
</g>
</g>
<!-- Initial_Assessment&#45;&gt;Stage_1 -->
<g id="edge10" class="edge">
<title>Initial_Assessment&#45;&gt;Stage_1</title>
<path fill="none" stroke="blue" d="M72,-1223.17C72,-1215.29 72,-1205.78 72,-1196.59"/>
<polygon fill="blue" stroke="blue" points="75.5,-1196.46 72,-1186.46 68.5,-1196.46 75.5,-1196.46"/>
</g>
<!-- Completed_Stage_1 -->
<g id="node17" class="node">
<title>Completed_Stage_1</title>
<g id="a_node17"><a xlink:title="Successfully completed Stage 1 without symptom recurrence.">
<ellipse fill="none" stroke="blue" cx="72" cy="-1055.57" rx="66.44" ry="26.74"/>
<text text-anchor="middle" x="72" y="-1059.37" font-family="Times,serif" font-size="14.00" fill="blue">Completed</text>
<text text-anchor="middle" x="72" y="-1044.37" font-family="Times,serif" font-size="14.00" fill="blue">Stage 1</text>
</a>
</g>
</g>
<!-- Stage_1&#45;&gt;Completed_Stage_1 -->
<g id="edge11" class="edge">
<title>Stage_1&#45;&gt;Completed_Stage_1</title>
<path fill="none" stroke="blue" d="M72,-1133.37C72,-1121.13 72,-1106.25 72,-1092.86"/>
<polygon fill="blue" stroke="blue" points="75.5,-1092.52 72,-1082.52 68.5,-1092.52 75.5,-1092.52"/>
<text text-anchor="middle" x="77" y="-1104.24" font-family="Times,serif" font-size="14.00" fill="blue">if</text>
</g>
<!-- Stage_2 -->
<g id="node8" class="node">
<title>Stage_2</title>
<g id="a_node8"><a xlink:title="Increased intensity and duration of aerobic exercise. Introduction of sport&#45;specific movements.">
<path fill="none" stroke="green" d="M116.5,-977.7C116.5,-977.7 27.5,-977.7 27.5,-977.7 21.5,-977.7 15.5,-971.7 15.5,-965.7 15.5,-965.7 15.5,-936.7 15.5,-936.7 15.5,-930.7 21.5,-924.7 27.5,-924.7 27.5,-924.7 116.5,-924.7 116.5,-924.7 122.5,-924.7 128.5,-930.7 128.5,-936.7 128.5,-936.7 128.5,-965.7 128.5,-965.7 128.5,-971.7 122.5,-977.7 116.5,-977.7"/>
<text text-anchor="middle" x="72" y="-962.5" font-family="Times,serif" font-size="14.00" fill="green">Stage 2:</text>
<text text-anchor="middle" x="72" y="-947.5" font-family="Times,serif" font-size="14.00" fill="green">Light Aerobic</text>
<text text-anchor="middle" x="72" y="-932.5" font-family="Times,serif" font-size="14.00" fill="green">Exercise</text>
</a>
</g>
</g>
<!-- Completed_Stage_2 -->
<g id="node18" class="node">
<title>Completed_Stage_2</title>
<g id="a_node18"><a xlink:title="Successfully completed Stage 2 without symptom recurrence.">
<ellipse fill="none" stroke="blue" cx="72" cy="-846.83" rx="66.44" ry="26.74"/>
<text text-anchor="middle" x="72" y="-850.63" font-family="Times,serif" font-size="14.00" fill="blue">Completed</text>
<text text-anchor="middle" x="72" y="-835.63" font-family="Times,serif" font-size="14.00" fill="blue">Stage 2</text>
</a>
</g>
</g>
<!-- Stage_2&#45;&gt;Completed_Stage_2 -->
<g id="edge13" class="edge">
<title>Stage_2&#45;&gt;Completed_Stage_2</title>
<path fill="none" stroke="blue" d="M72,-924.63C72,-912.39 72,-897.51 72,-884.12"/>
<polygon fill="blue" stroke="blue" points="75.5,-883.78 72,-873.78 68.5,-883.78 75.5,-883.78"/>
<text text-anchor="middle" x="77" y="-895.5" font-family="Times,serif" font-size="14.00" fill="blue">if</text>
</g>
<!-- Stage_3 -->
<g id="node9" class="node">
<title>Stage_3</title>
<g id="a_node9"><a xlink:title="Progression to more complex sport&#45;specific drills with increased intensity and duration. No contact activities.">
<path fill="none" stroke="green" d="M118,-768.96C118,-768.96 26,-768.96 26,-768.96 20,-768.96 14,-762.96 14,-756.96 14,-756.96 14,-727.96 14,-727.96 14,-721.96 20,-715.96 26,-715.96 26,-715.96 118,-715.96 118,-715.96 124,-715.96 130,-721.96 130,-727.96 130,-727.96 130,-756.96 130,-756.96 130,-762.96 124,-768.96 118,-768.96"/>
<text text-anchor="middle" x="72" y="-753.76" font-family="Times,serif" font-size="14.00" fill="green">Stage 3:</text>
<text text-anchor="middle" x="72" y="-738.76" font-family="Times,serif" font-size="14.00" fill="green">Sport&#45;Specific</text>
<text text-anchor="middle" x="72" y="-723.76" font-family="Times,serif" font-size="14.00" fill="green">Exercise</text>
</a>
</g>
</g>
<!-- Completed_Stage_3 -->
<g id="node19" class="node">
<title>Completed_Stage_3</title>
<g id="a_node19"><a xlink:title="Successfully completed Stage 3 without symptom recurrence.">
<ellipse fill="none" stroke="blue" cx="72" cy="-638.09" rx="66.44" ry="26.74"/>
<text text-anchor="middle" x="72" y="-641.89" font-family="Times,serif" font-size="14.00" fill="blue">Completed</text>
<text text-anchor="middle" x="72" y="-626.89" font-family="Times,serif" font-size="14.00" fill="blue">Stage 3</text>
</a>
</g>
</g>
<!-- Stage_3&#45;&gt;Completed_Stage_3 -->
<g id="edge15" class="edge">
<title>Stage_3&#45;&gt;Completed_Stage_3</title>
<path fill="none" stroke="blue" d="M72,-715.89C72,-703.65 72,-688.77 72,-675.38"/>
<polygon fill="blue" stroke="blue" points="75.5,-675.04 72,-665.04 68.5,-675.04 75.5,-675.04"/>
<text text-anchor="middle" x="77" y="-686.76" font-family="Times,serif" font-size="14.00" fill="blue">if</text>
</g>
<!-- Stage_4 -->
<g id="node10" class="node">
<title>Stage_4</title>
<g id="a_node10"><a xlink:title="Participation in regular training activities with the team, excluding contact.">
<path fill="none" stroke="green" d="M113,-560.22C113,-560.22 31,-560.22 31,-560.22 25,-560.22 19,-554.22 19,-548.22 19,-548.22 19,-519.22 19,-519.22 19,-513.22 25,-507.22 31,-507.22 31,-507.22 113,-507.22 113,-507.22 119,-507.22 125,-513.22 125,-519.22 125,-519.22 125,-548.22 125,-548.22 125,-554.22 119,-560.22 113,-560.22"/>
<text text-anchor="middle" x="72" y="-545.02" font-family="Times,serif" font-size="14.00" fill="green">Stage 4:</text>
<text text-anchor="middle" x="72" y="-530.02" font-family="Times,serif" font-size="14.00" fill="green">Non&#45;Contact</text>
<text text-anchor="middle" x="72" y="-515.02" font-family="Times,serif" font-size="14.00" fill="green">Training</text>
</a>
</g>
</g>
<!-- Completed_Stage_4 -->
<g id="node20" class="node">
<title>Completed_Stage_4</title>
<g id="a_node20"><a xlink:title="Successfully completed Stage 4 without symptom recurrence.">
<ellipse fill="none" stroke="blue" cx="72" cy="-429.35" rx="66.44" ry="26.74"/>
<text text-anchor="middle" x="72" y="-433.15" font-family="Times,serif" font-size="14.00" fill="blue">Completed</text>
<text text-anchor="middle" x="72" y="-418.15" font-family="Times,serif" font-size="14.00" fill="blue">Stage 4</text>
</a>
</g>
</g>
<!-- Stage_4&#45;&gt;Completed_Stage_4 -->
<g id="edge17" class="edge">
<title>Stage_4&#45;&gt;Completed_Stage_4</title>
<path fill="none" stroke="blue" d="M72,-507.15C72,-494.91 72,-480.03 72,-466.64"/>
<polygon fill="blue" stroke="blue" points="75.5,-466.3 72,-456.3 68.5,-466.3 75.5,-466.3"/>
<text text-anchor="middle" x="77" y="-478.02" font-family="Times,serif" font-size="14.00" fill="blue">if</text>
</g>
<!-- Stage_5 -->
<g id="node11" class="node">
<title>Stage_5</title>
<g id="a_node11"><a xlink:title="Return to full contact practice following medical clearance.">
<path fill="none" stroke="green" d="M112,-351.48C112,-351.48 32,-351.48 32,-351.48 26,-351.48 20,-345.48 20,-339.48 20,-339.48 20,-310.48 20,-310.48 20,-304.48 26,-298.48 32,-298.48 32,-298.48 112,-298.48 112,-298.48 118,-298.48 124,-304.48 124,-310.48 124,-310.48 124,-339.48 124,-339.48 124,-345.48 118,-351.48 112,-351.48"/>
<text text-anchor="middle" x="72" y="-336.28" font-family="Times,serif" font-size="14.00" fill="green">Stage 5:</text>
<text text-anchor="middle" x="72" y="-321.28" font-family="Times,serif" font-size="14.00" fill="green">Full Contact</text>
<text text-anchor="middle" x="72" y="-306.28" font-family="Times,serif" font-size="14.00" fill="green">Practice</text>
</a>
</g>
</g>
<!-- Completed_Stage_5 -->
<g id="node21" class="node">
<title>Completed_Stage_5</title>
<g id="a_node21"><a xlink:title="Successfully completed Stage 5 without symptom recurrence.">
<ellipse fill="none" stroke="blue" cx="72" cy="-220.61" rx="66.44" ry="26.74"/>
<text text-anchor="middle" x="72" y="-224.41" font-family="Times,serif" font-size="14.00" fill="blue">Completed</text>
<text text-anchor="middle" x="72" y="-209.41" font-family="Times,serif" font-size="14.00" fill="blue">Stage 5</text>
</a>
</g>
</g>
<!-- Stage_5&#45;&gt;Completed_Stage_5 -->
<g id="edge19" class="edge">
<title>Stage_5&#45;&gt;Completed_Stage_5</title>
<path fill="none" stroke="blue" d="M72,-298.41C72,-286.17 72,-271.29 72,-257.9"/>
<polygon fill="blue" stroke="blue" points="75.5,-257.56 72,-247.56 68.5,-257.56 75.5,-257.56"/>
<text text-anchor="middle" x="77" y="-269.28" font-family="Times,serif" font-size="14.00" fill="blue">if</text>
</g>
<!-- Return_to_Play -->
<g id="node12" class="node">
<title>Return_to_Play</title>
<g id="a_node12"><a xlink:title="Return to full competition.">
<path fill="none" stroke="green" d="M102.5,-38C102.5,-38 41.5,-38 41.5,-38 35.5,-38 29.5,-32 29.5,-26 29.5,-26 29.5,-12 29.5,-12 29.5,-6 35.5,0 41.5,0 41.5,0 102.5,0 102.5,0 108.5,0 114.5,-6 114.5,-12 114.5,-12 114.5,-26 114.5,-26 114.5,-32 108.5,-38 102.5,-38"/>
<text text-anchor="middle" x="72" y="-22.8" font-family="Times,serif" font-size="14.00" fill="green">Return to</text>
<text text-anchor="middle" x="72" y="-7.8" font-family="Times,serif" font-size="14.00" fill="green">Play</text>
</a>
</g>
</g>
<!-- Clinically_Confirmed&#45;&gt;Confirmed_Concussion -->
<g id="edge2" class="edge">
<title>Clinically_Confirmed&#45;&gt;Confirmed_Concussion</title>
<path fill="none" stroke="blue" d="M72,-1397.84C72,-1382.38 72,-1362.76 72,-1346.9"/>
<polygon fill="blue" stroke="blue" points="75.5,-1346.61 72,-1336.61 68.5,-1346.61 75.5,-1346.61"/>
<text text-anchor="middle" x="88.5" y="-1358.24" font-family="Times,serif" font-size="14.00" fill="blue">then</text>
</g>
<!-- Mod_Sev_TBI&#45;&gt;Excluded_Moderate_Severe_TBI -->
<g id="edge4" class="edge">
<title>Mod_Sev_TBI&#45;&gt;Excluded_Moderate_Severe_TBI</title>
<path fill="none" stroke="blue" d="M253,-1397.84C253,-1382.38 253,-1362.76 253,-1346.9"/>
<polygon fill="blue" stroke="blue" points="256.5,-1346.61 253,-1336.61 249.5,-1346.61 256.5,-1346.61"/>
<text text-anchor="middle" x="269.5" y="-1358.24" font-family="Times,serif" font-size="14.00" fill="blue">then</text>
</g>
<!-- Preexisting_Neuro_Cond&#45;&gt;Excluded_Preexisting_Neuro -->
<g id="edge6" class="edge">
<title>Preexisting_Neuro_Cond&#45;&gt;Excluded_Preexisting_Neuro</title>
<path fill="none" stroke="blue" d="M446,-1387.32C446,-1374.07 446,-1359.31 446,-1346.86"/>
<polygon fill="blue" stroke="blue" points="449.5,-1346.62 446,-1336.62 442.5,-1346.62 449.5,-1346.62"/>
<text text-anchor="middle" x="462.5" y="-1358.24" font-family="Times,serif" font-size="14.00" fill="blue">then</text>
</g>
<!-- Susp_Cervical_Spine_Inj&#45;&gt;Excluded_Cervical_Spine -->
<g id="edge8" class="edge">
<title>Susp_Cervical_Spine_Inj&#45;&gt;Excluded_Cervical_Spine</title>
<path fill="none" stroke="blue" d="M625,-1387.32C625,-1374.07 625,-1359.31 625,-1346.86"/>
<polygon fill="blue" stroke="blue" points="628.5,-1346.62 625,-1336.62 621.5,-1346.62 628.5,-1346.62"/>
<text text-anchor="middle" x="641.5" y="-1358.24" font-family="Times,serif" font-size="14.00" fill="blue">then</text>
</g>
<!-- Completed_Stage_1&#45;&gt;Stage_2 -->
<g id="edge12" class="edge">
<title>Completed_Stage_1&#45;&gt;Stage_2</title>
<path fill="none" stroke="blue" d="M72,-1028.47C72,-1016.23 72,-1001.43 72,-988.15"/>
<polygon fill="blue" stroke="blue" points="75.5,-987.9 72,-977.9 68.5,-987.9 75.5,-987.9"/>
<text text-anchor="middle" x="88.5" y="-999.5" font-family="Times,serif" font-size="14.00" fill="blue">then</text>
</g>
<!-- Completed_Stage_2&#45;&gt;Stage_3 -->
<g id="edge14" class="edge">
<title>Completed_Stage_2&#45;&gt;Stage_3</title>
<path fill="none" stroke="blue" d="M72,-819.73C72,-807.49 72,-792.69 72,-779.41"/>
<polygon fill="blue" stroke="blue" points="75.5,-779.16 72,-769.16 68.5,-779.16 75.5,-779.16"/>
<text text-anchor="middle" x="88.5" y="-790.76" font-family="Times,serif" font-size="14.00" fill="blue">then</text>
</g>
<!-- Completed_Stage_3&#45;&gt;Stage_4 -->
<g id="edge16" class="edge">
<title>Completed_Stage_3&#45;&gt;Stage_4</title>
<path fill="none" stroke="blue" d="M72,-610.99C72,-598.75 72,-583.95 72,-570.67"/>
<polygon fill="blue" stroke="blue" points="75.5,-570.42 72,-560.42 68.5,-570.42 75.5,-570.42"/>
<text text-anchor="middle" x="88.5" y="-582.02" font-family="Times,serif" font-size="14.00" fill="blue">then</text>
</g>
<!-- Completed_Stage_4&#45;&gt;Stage_5 -->
<g id="edge18" class="edge">
<title>Completed_Stage_4&#45;&gt;Stage_5</title>
<path fill="none" stroke="blue" d="M72,-402.25C72,-390.01 72,-375.21 72,-361.93"/>
<polygon fill="blue" stroke="blue" points="75.5,-361.68 72,-351.68 68.5,-361.68 75.5,-361.68"/>
<text text-anchor="middle" x="88.5" y="-373.28" font-family="Times,serif" font-size="14.00" fill="blue">then</text>
</g>
<!-- Medical_Clearance -->
<g id="node22" class="node">
<title>Medical_Clearance</title>
<g id="a_node22"><a xlink:title="Final medical clearance for return to play granted by a healthcare professional.">
<ellipse fill="none" stroke="blue" cx="72" cy="-115.87" rx="62.45" ry="26.74"/>
<text text-anchor="middle" x="72" y="-119.67" font-family="Times,serif" font-size="14.00" fill="blue">Medical</text>
<text text-anchor="middle" x="72" y="-104.67" font-family="Times,serif" font-size="14.00" fill="blue">Clearance</text>
</a>
</g>
</g>
<!-- Completed_Stage_5&#45;&gt;Medical_Clearance -->
<g id="edge20" class="edge">
<title>Completed_Stage_5&#45;&gt;Medical_Clearance</title>
<path fill="none" stroke="blue" d="M72,-193.68C72,-181.4 72,-166.51 72,-153.12"/>
<polygon fill="blue" stroke="blue" points="75.5,-152.79 72,-142.79 68.5,-152.79 75.5,-152.79"/>
<text text-anchor="middle" x="85.5" y="-164.54" font-family="Times,serif" font-size="14.00" fill="blue">and</text>
</g>
<!-- Medical_Clearance&#45;&gt;Return_to_Play -->
<g id="edge21" class="edge">
<title>Medical_Clearance&#45;&gt;Return_to_Play</title>
<path fill="none" stroke="blue" d="M72,-88.95C72,-76.35 72,-61.17 72,-48.28"/>
<polygon fill="blue" stroke="blue" points="75.5,-48.08 72,-38.08 68.5,-48.08 75.5,-48.08"/>
<text text-anchor="middle" x="88.5" y="-59.8" font-family="Times,serif" font-size="14.00" fill="blue">then</text>
</g>
</g>
</svg>
