<?xml version="1.0" encoding="UTF-8" standalone="no"?>
<!DOCTYPE svg PUBLIC "-//W3C//DTD SVG 1.1//EN"
 "http://www.w3.org/Graphics/SVG/1.1/DTD/svg11.dtd">
<!-- Generated by graphviz version 11.0.0 (20240428.1522)
 -->
<!-- Title: FM_Clinical_Flowsheet Pages: 1 -->
<svg width="1161pt" height="388pt"
 viewBox="0.00 0.00 1160.50 387.75" xmlns="http://www.w3.org/2000/svg" xmlns:xlink="http://www.w3.org/1999/xlink">
<g id="graph0" class="graph" transform="scale(1 1) rotate(0) translate(4 383.75)">
<title>FM_Clinical_Flowsheet</title>
<polygon fill="white" stroke="none" points="-4,4 -4,-383.75 1156.5,-383.75 1156.5,4 -4,4"/>
<!-- Start -->
<g id="node1" class="node">
<title>Start</title>
<polygon fill="none" stroke="black" points="546.25,-379.75 492.25,-379.75 492.25,-343.75 546.25,-343.75 546.25,-379.75"/>
<text text-anchor="middle" x="519.25" y="-356.32" font-family="Arial" font-size="14.00">Start</text>
</g>
<!-- UnequivocalSymptoms -->
<g id="node2" class="node">
<title>UnequivocalSymptoms</title>
<polygon fill="none" stroke="black" points="627,-307.75 411.5,-307.75 411.5,-268.25 627,-268.25 627,-307.75"/>
<text text-anchor="middle" x="519.25" y="-290.45" font-family="Arial" font-size="14.00">Symptoms and signs</text>
<text text-anchor="middle" x="519.25" y="-274.7" font-family="Arial" font-size="14.00">for fibromyalgia are unequivocal?</text>
</g>
<!-- Start&#45;&gt;UnequivocalSymptoms -->
<g id="edge1" class="edge">
<title>Start&#45;&gt;UnequivocalSymptoms</title>
<path fill="none" stroke="black" d="M519.25,-343.38C519.25,-336.25 519.25,-327.77 519.25,-319.66"/>
<polygon fill="black" stroke="black" points="522.75,-319.74 519.25,-309.74 515.75,-319.74 522.75,-319.74"/>
</g>
<!-- NoReferral -->
<g id="node3" class="node">
<title>NoReferral</title>
<polygon fill="none" stroke="black" points="128.5,-206.12 0,-206.12 0,-170.12 128.5,-170.12 128.5,-206.12"/>
<text text-anchor="middle" x="64.25" y="-182.7" font-family="Arial" font-size="14.00">No referral needed</text>
</g>
<!-- UnequivocalSymptoms&#45;&gt;NoReferral -->
<g id="edge2" class="edge">
<title>UnequivocalSymptoms&#45;&gt;NoReferral</title>
<path fill="none" stroke="black" d="M411.15,-271.72C334.06,-259.65 228.35,-240.68 137.25,-215.75 131.31,-214.13 125.17,-212.23 119.09,-210.22"/>
<polygon fill="black" stroke="black" points="120.29,-206.93 109.7,-207 118.02,-213.56 120.29,-206.93"/>
<text text-anchor="middle" x="293.38" y="-236.95" font-family="Times,serif" font-size="14.00">Yes</text>
</g>
<!-- EquivocalSymptoms -->
<g id="node5" class="node">
<title>EquivocalSymptoms</title>
<polygon fill="none" stroke="black" points="410,-206.12 146.5,-206.12 146.5,-170.12 410,-170.12 410,-206.12"/>
<text text-anchor="middle" x="278.25" y="-182.7" font-family="Arial" font-size="14.00">FMS symptoms are continually equivocal</text>
</g>
<!-- UnequivocalSymptoms&#45;&gt;EquivocalSymptoms -->
<g id="edge3" class="edge">
<title>UnequivocalSymptoms&#45;&gt;EquivocalSymptoms</title>
<path fill="none" stroke="black" d="M471.92,-267.78C431.57,-251.39 373.6,-227.85 331.6,-210.79"/>
<polygon fill="black" stroke="black" points="333.01,-207.59 322.43,-207.07 330.37,-214.07 333.01,-207.59"/>
<text text-anchor="middle" x="436.5" y="-236.95" font-family="Times,serif" font-size="14.00">No</text>
</g>
<!-- DiagnosticUncertainty -->
<g id="node6" class="node">
<title>DiagnosticUncertainty</title>
<polygon fill="none" stroke="black" points="610.5,-206.12 428,-206.12 428,-170.12 610.5,-170.12 610.5,-206.12"/>
<text text-anchor="middle" x="519.25" y="-182.7" font-family="Arial" font-size="14.00">Clear diagnostic uncertainty</text>
</g>
<!-- UnequivocalSymptoms&#45;&gt;DiagnosticUncertainty -->
<g id="edge4" class="edge">
<title>UnequivocalSymptoms&#45;&gt;DiagnosticUncertainty</title>
<path fill="none" stroke="black" d="M519.25,-268.13C519.25,-253.82 519.25,-233.93 519.25,-217.68"/>
<polygon fill="black" stroke="black" points="522.75,-218.14 519.25,-208.14 515.75,-218.14 522.75,-218.14"/>
<text text-anchor="middle" x="527.5" y="-236.95" font-family="Times,serif" font-size="14.00">No</text>
</g>
<!-- ComplexConditions -->
<g id="node7" class="node">
<title>ComplexConditions</title>
<polygon fill="none" stroke="black" points="927.62,-206.12 628.88,-206.12 628.88,-170.12 927.62,-170.12 927.62,-206.12"/>
<text text-anchor="middle" x="778.25" y="-182.7" font-family="Arial" font-size="14.00">Presence of complex multiple health conditions</text>
</g>
<!-- UnequivocalSymptoms&#45;&gt;ComplexConditions -->
<g id="edge5" class="edge">
<title>UnequivocalSymptoms&#45;&gt;ComplexConditions</title>
<path fill="none" stroke="black" d="M570.11,-267.78C613.75,-251.29 676.58,-227.55 721.77,-210.47"/>
<polygon fill="black" stroke="black" points="722.75,-213.84 730.87,-207.03 720.27,-207.29 722.75,-213.84"/>
<text text-anchor="middle" x="665.5" y="-236.95" font-family="Times,serif" font-size="14.00">No</text>
</g>
<!-- OtherSymptoms -->
<g id="node10" class="node">
<title>OtherSymptoms</title>
<polygon fill="none" stroke="black" points="1152.5,-215.75 946,-215.75 946,-160.5 1152.5,-160.5 1152.5,-215.75"/>
<text text-anchor="middle" x="1049.25" y="-198.45" font-family="Arial" font-size="14.00">Symptoms that need</text>
<text text-anchor="middle" x="1049.25" y="-182.7" font-family="Arial" font-size="14.00">investigating but are outside the</text>
<text text-anchor="middle" x="1049.25" y="-166.95" font-family="Arial" font-size="14.00">clinician’s scope of practice</text>
</g>
<!-- UnequivocalSymptoms&#45;&gt;OtherSymptoms -->
<g id="edge6" class="edge">
<title>UnequivocalSymptoms&#45;&gt;OtherSymptoms</title>
<path fill="none" stroke="black" d="M627.16,-270.45C708.83,-257.48 824,-238.26 934.52,-216.05"/>
<polygon fill="black" stroke="black" points="934.96,-219.54 944.07,-214.12 933.57,-212.67 934.96,-219.54"/>
<text text-anchor="middle" x="841.5" y="-236.95" font-family="Times,serif" font-size="14.00">No</text>
</g>
<!-- ReferralNeeded -->
<g id="node4" class="node">
<title>ReferralNeeded</title>
<polygon fill="none" stroke="black" points="765,-124.5 531.5,-124.5 531.5,-88.5 765,-88.5 765,-124.5"/>
<text text-anchor="middle" x="648.25" y="-101.08" font-family="Arial" font-size="14.00">Referral to specialist service needed</text>
</g>
<!-- RheumatologyPainMedicine -->
<g id="node8" class="node">
<title>RheumatologyPainMedicine</title>
<polygon fill="none" stroke="black" points="670.75,-36 363.75,-36 363.75,0 670.75,0 670.75,-36"/>
<text text-anchor="middle" x="517.25" y="-12.57" font-family="Arial" font-size="14.00">Refer to rheumatology or pain medicine services</text>
</g>
<!-- ReferralNeeded&#45;&gt;RheumatologyPainMedicine -->
<g id="edge12" class="edge">
<title>ReferralNeeded&#45;&gt;RheumatologyPainMedicine</title>
<path fill="none" stroke="black" d="M552.01,-88.02C535.98,-83.21 522.81,-77.38 517.5,-70.5 512.58,-64.13 511.09,-55.87 511.23,-47.83"/>
<polygon fill="black" stroke="black" points="514.7,-48.29 512.23,-37.98 507.74,-47.58 514.7,-48.29"/>
<text text-anchor="middle" x="629.62" y="-57.2" font-family="Times,serif" font-size="14.00">To confirm diagnosis and exclude others</text>
</g>
<!-- NeurologyServices -->
<g id="node9" class="node">
<title>NeurologyServices</title>
<polygon fill="none" stroke="black" points="869.38,-36 689.12,-36 689.12,0 869.38,0 869.38,-36"/>
<text text-anchor="middle" x="779.25" y="-12.57" font-family="Arial" font-size="14.00">Refer to neurology services</text>
</g>
<!-- ReferralNeeded&#45;&gt;NeurologyServices -->
<g id="edge11" class="edge">
<title>ReferralNeeded&#45;&gt;NeurologyServices</title>
<path fill="none" stroke="black" d="M713.38,-88.06C724.32,-83.42 735.08,-77.64 744.25,-70.5 752.59,-64.01 759.66,-54.96 765.22,-46.26"/>
<polygon fill="black" stroke="black" points="768.21,-48.08 770.27,-37.69 762.18,-44.53 768.21,-48.08"/>
<text text-anchor="middle" x="846.62" y="-57.2" font-family="Times,serif" font-size="14.00">To exclude neurological disease</text>
</g>
<!-- EquivocalSymptoms&#45;&gt;ReferralNeeded -->
<g id="edge7" class="edge">
<title>EquivocalSymptoms&#45;&gt;ReferralNeeded</title>
<path fill="none" stroke="black" d="M359.45,-169.65C417.52,-157.15 495.78,-140.31 556.18,-127.31"/>
<polygon fill="black" stroke="black" points="556.72,-130.78 565.76,-125.25 555.25,-123.93 556.72,-130.78"/>
</g>
<!-- DiagnosticUncertainty&#45;&gt;ReferralNeeded -->
<g id="edge8" class="edge">
<title>DiagnosticUncertainty&#45;&gt;ReferralNeeded</title>
<path fill="none" stroke="black" d="M547.56,-169.65C565.96,-158.29 590.17,-143.35 610.24,-130.96"/>
<polygon fill="black" stroke="black" points="612.05,-133.96 618.72,-125.73 608.37,-128 612.05,-133.96"/>
</g>
<!-- ComplexConditions&#45;&gt;ReferralNeeded -->
<g id="edge9" class="edge">
<title>ComplexConditions&#45;&gt;ReferralNeeded</title>
<path fill="none" stroke="black" d="M749.72,-169.65C731.09,-158.24 706.56,-143.21 686.28,-130.79"/>
<polygon fill="black" stroke="black" points="688.36,-127.96 678,-125.72 684.7,-133.93 688.36,-127.96"/>
</g>
<!-- OtherSymptoms&#45;&gt;ReferralNeeded -->
<g id="edge10" class="edge">
<title>OtherSymptoms&#45;&gt;ReferralNeeded</title>
<path fill="none" stroke="black" d="M945.54,-162.48C942.41,-161.8 939.31,-161.14 936.25,-160.5 878.76,-148.45 814.51,-136.48 761.3,-126.97"/>
<polygon fill="black" stroke="black" points="762.07,-123.55 751.61,-125.25 760.84,-130.45 762.07,-123.55"/>
</g>
</g>
</svg>
