<?xml version="1.0" encoding="UTF-8" standalone="no"?>
<!DOCTYPE svg PUBLIC "-//W3C//DTD SVG 1.1//EN"
 "http://www.w3.org/Graphics/SVG/1.1/DTD/svg11.dtd">
<!-- Generated by graphviz version 2.43.0 (0)
 -->
<!-- Title: ReturnToPlayProtocol Pages: 1 -->
<svg width="291pt" height="1088pt"
 viewBox="0.00 0.00 291.37 1088.00" xmlns="http://www.w3.org/2000/svg" xmlns:xlink="http://www.w3.org/1999/xlink">
<g id="graph0" class="graph" transform="scale(1 1) rotate(0) translate(4 1084)">
<title>ReturnToPlayProtocol</title>
<polygon fill="white" stroke="transparent" points="-4,4 -4,-1084 287.37,-1084 287.37,4 -4,4"/>
<!-- InitialPopulation -->
<g id="node1" class="node">
<title>InitialPopulation</title>
<g id="a_node1"><a xlink:title="All individuals who have participated in sports activities and have been diagnosed with a concussion.">
<path fill="none" stroke="green" d="M199.19,-1080C199.19,-1080 84.19,-1080 84.19,-1080 78.19,-1080 72.19,-1074 72.19,-1068 72.19,-1068 72.19,-1056 72.19,-1056 72.19,-1050 78.19,-1044 84.19,-1044 84.19,-1044 199.19,-1044 199.19,-1044 205.19,-1044 211.19,-1050 211.19,-1056 211.19,-1056 211.19,-1068 211.19,-1068 211.19,-1074 205.19,-1080 199.19,-1080"/>
<text text-anchor="middle" x="141.69" y="-1058.3" font-family="Times,serif" font-size="14.00" fill="green">Initial Population</text>
</a>
</g>
</g>
<!-- MedEval -->
<g id="node4" class="node">
<title>MedEval</title>
<g id="a_node4"><a xlink:title="Diagnosed with a concussion by a healthcare professional.">
<ellipse fill="none" stroke="blue" cx="141.69" cy="-975" rx="105.08" ry="18"/>
<text text-anchor="middle" x="141.69" y="-971.3" font-family="Times,serif" font-size="14.00" fill="blue">Medically Evaluated</text>
</a>
</g>
</g>
<!-- InitialPopulation&#45;&gt;MedEval -->
<g id="edge1" class="edge">
<title>InitialPopulation&#45;&gt;MedEval</title>
<path fill="none" stroke="blue" d="M141.69,-1043.8C141.69,-1032.16 141.69,-1016.55 141.69,-1003.24"/>
<polygon fill="blue" stroke="blue" points="145.19,-1003.18 141.69,-993.18 138.19,-1003.18 145.19,-1003.18"/>
<text text-anchor="middle" x="146.69" y="-1014.8" font-family="Times,serif" font-size="14.00" fill="blue">if</text>
</g>
<!-- SubsetScreening -->
<g id="node2" class="node">
<title>SubsetScreening</title>
<g id="a_node2"><a xlink:title="Individuals from the initial population who have been medically evaluated and diagnosed with a concussion by a healthcare professional and have completed an initial rest period.">
<path fill="none" stroke="green" d="M256.19,-558C256.19,-558 27.19,-558 27.19,-558 21.19,-558 15.19,-552 15.19,-546 15.19,-546 15.19,-534 15.19,-534 15.19,-528 21.19,-522 27.19,-522 27.19,-522 256.19,-522 256.19,-522 262.19,-522 268.19,-528 268.19,-534 268.19,-534 268.19,-546 268.19,-546 268.19,-552 262.19,-558 256.19,-558"/>
<text text-anchor="middle" x="141.69" y="-536.3" font-family="Times,serif" font-size="14.00" fill="green">Subset Considered for Screening</text>
</a>
</g>
</g>
<!-- BaselineAssess -->
<g id="node9" class="node">
<title>BaselineAssess</title>
<g id="a_node9"><a xlink:title="Baseline cognitive and physical assessments to establish pre&#45;injury status.">
<ellipse fill="none" stroke="blue" cx="141.69" cy="-453" rx="108.58" ry="18"/>
<text text-anchor="middle" x="141.69" y="-449.3" font-family="Times,serif" font-size="14.00" fill="blue">Baseline Assessment</text>
</a>
</g>
</g>
<!-- SubsetScreening&#45;&gt;BaselineAssess -->
<g id="edge7" class="edge">
<title>SubsetScreening&#45;&gt;BaselineAssess</title>
<path fill="none" stroke="blue" d="M141.69,-521.8C141.69,-510.16 141.69,-494.55 141.69,-481.24"/>
<polygon fill="blue" stroke="blue" points="145.19,-481.18 141.69,-471.18 138.19,-481.18 145.19,-481.18"/>
<text text-anchor="middle" x="146.69" y="-492.8" font-family="Times,serif" font-size="14.00" fill="blue">if</text>
</g>
<!-- SuccessfulScreen -->
<g id="node3" class="node">
<title>SuccessfulScreen</title>
<g id="a_node3"><a xlink:title="Individuals who have successfully completed the protocol and are cleared to return to play.">
<path fill="none" stroke="green" d="M202.69,-36C202.69,-36 80.69,-36 80.69,-36 74.69,-36 68.69,-30 68.69,-24 68.69,-24 68.69,-12 68.69,-12 68.69,-6 74.69,0 80.69,0 80.69,0 202.69,0 202.69,0 208.69,0 214.69,-6 214.69,-12 214.69,-12 214.69,-24 214.69,-24 214.69,-30 208.69,-36 202.69,-36"/>
<text text-anchor="middle" x="141.69" y="-14.3" font-family="Times,serif" font-size="14.00" fill="green">Successful Screen</text>
</a>
</g>
</g>
<!-- RestPeriod -->
<g id="node5" class="node">
<title>RestPeriod</title>
<g id="a_node5"><a xlink:title="Completed an initial rest period as recommended by a healthcare provider.">
<ellipse fill="none" stroke="blue" cx="141.69" cy="-888" rx="117.78" ry="18"/>
<text text-anchor="middle" x="141.69" y="-884.3" font-family="Times,serif" font-size="14.00" fill="blue">Completed Rest Period</text>
</a>
</g>
</g>
<!-- MedEval&#45;&gt;RestPeriod -->
<g id="edge2" class="edge">
<title>MedEval&#45;&gt;RestPeriod</title>
<path fill="none" stroke="blue" d="M141.69,-956.8C141.69,-945.16 141.69,-929.55 141.69,-916.24"/>
<polygon fill="blue" stroke="blue" points="145.19,-916.18 141.69,-906.18 138.19,-916.18 145.19,-916.18"/>
<text text-anchor="middle" x="155.19" y="-927.8" font-family="Times,serif" font-size="14.00" fill="blue">and</text>
</g>
<!-- NoAcuteSymptoms -->
<g id="node6" class="node">
<title>NoAcuteSymptoms</title>
<g id="a_node6"><a xlink:title="Acute symptoms have significantly reduced.">
<ellipse fill="none" stroke="blue" cx="141.69" cy="-801" rx="105.08" ry="18"/>
<text text-anchor="middle" x="141.69" y="-797.3" font-family="Times,serif" font-size="14.00" fill="blue">No Acute Symptoms</text>
</a>
</g>
</g>
<!-- RestPeriod&#45;&gt;NoAcuteSymptoms -->
<g id="edge3" class="edge">
<title>RestPeriod&#45;&gt;NoAcuteSymptoms</title>
<path fill="none" stroke="blue" d="M141.69,-869.8C141.69,-858.16 141.69,-842.55 141.69,-829.24"/>
<polygon fill="blue" stroke="blue" points="145.19,-829.18 141.69,-819.18 138.19,-829.18 145.19,-829.18"/>
<text text-anchor="middle" x="155.19" y="-840.8" font-family="Times,serif" font-size="14.00" fill="blue">and</text>
</g>
<!-- NoHistory -->
<g id="node7" class="node">
<title>NoHistory</title>
<g id="a_node7"><a xlink:title="No history of multiple concussions or other neurological disorders unless cleared by a specialist.">
<ellipse fill="none" stroke="blue" cx="141.69" cy="-714" rx="141.88" ry="18"/>
<text text-anchor="middle" x="141.69" y="-710.3" font-family="Times,serif" font-size="14.00" fill="blue">No History of Complications</text>
</a>
</g>
</g>
<!-- NoAcuteSymptoms&#45;&gt;NoHistory -->
<g id="edge4" class="edge">
<title>NoAcuteSymptoms&#45;&gt;NoHistory</title>
<path fill="none" stroke="blue" d="M141.69,-782.8C141.69,-771.16 141.69,-755.55 141.69,-742.24"/>
<polygon fill="blue" stroke="blue" points="145.19,-742.18 141.69,-732.18 138.19,-742.18 145.19,-742.18"/>
<text text-anchor="middle" x="155.19" y="-753.8" font-family="Times,serif" font-size="14.00" fill="blue">and</text>
</g>
<!-- Compliance -->
<g id="node8" class="node">
<title>Compliance</title>
<g id="a_node8"><a xlink:title="Able to comply with the protocol without other medical contraindications.">
<ellipse fill="none" stroke="blue" cx="141.69" cy="-627" rx="81.49" ry="18"/>
<text text-anchor="middle" x="141.69" y="-623.3" font-family="Times,serif" font-size="14.00" fill="blue">Able to Comply</text>
</a>
</g>
</g>
<!-- NoHistory&#45;&gt;Compliance -->
<g id="edge5" class="edge">
<title>NoHistory&#45;&gt;Compliance</title>
<path fill="none" stroke="blue" d="M141.69,-695.8C141.69,-684.16 141.69,-668.55 141.69,-655.24"/>
<polygon fill="blue" stroke="blue" points="145.19,-655.18 141.69,-645.18 138.19,-655.18 145.19,-655.18"/>
<text text-anchor="middle" x="155.19" y="-666.8" font-family="Times,serif" font-size="14.00" fill="blue">and</text>
</g>
<!-- Compliance&#45;&gt;SubsetScreening -->
<g id="edge6" class="edge">
<title>Compliance&#45;&gt;SubsetScreening</title>
<path fill="none" stroke="blue" d="M141.69,-608.8C141.69,-597.16 141.69,-581.55 141.69,-568.24"/>
<polygon fill="blue" stroke="blue" points="145.19,-568.18 141.69,-558.18 138.19,-568.18 145.19,-568.18"/>
<text text-anchor="middle" x="158.19" y="-579.8" font-family="Times,serif" font-size="14.00" fill="blue">then</text>
</g>
<!-- PostInjuryEval -->
<g id="node10" class="node">
<title>PostInjuryEval</title>
<g id="a_node10"><a xlink:title="Post&#45;injury cognitive and physical evaluations.">
<ellipse fill="none" stroke="blue" cx="141.69" cy="-366" rx="114.28" ry="18"/>
<text text-anchor="middle" x="141.69" y="-362.3" font-family="Times,serif" font-size="14.00" fill="blue">Post&#45;Injury Evaluation</text>
</a>
</g>
</g>
<!-- BaselineAssess&#45;&gt;PostInjuryEval -->
<g id="edge8" class="edge">
<title>BaselineAssess&#45;&gt;PostInjuryEval</title>
<path fill="none" stroke="blue" d="M141.69,-434.8C141.69,-423.16 141.69,-407.55 141.69,-394.24"/>
<polygon fill="blue" stroke="blue" points="145.19,-394.18 141.69,-384.18 138.19,-394.18 145.19,-394.18"/>
<text text-anchor="middle" x="155.19" y="-405.8" font-family="Times,serif" font-size="14.00" fill="blue">and</text>
</g>
<!-- GradualIncrease -->
<g id="node11" class="node">
<title>GradualIncrease</title>
<g id="a_node11"><a xlink:title="Gradual, stepwise increase in physical activity monitored by healthcare professionals.">
<ellipse fill="none" stroke="blue" cx="141.69" cy="-279" rx="140.28" ry="18"/>
<text text-anchor="middle" x="141.69" y="-275.3" font-family="Times,serif" font-size="14.00" fill="blue">Gradual Increase in Activity</text>
</a>
</g>
</g>
<!-- PostInjuryEval&#45;&gt;GradualIncrease -->
<g id="edge9" class="edge">
<title>PostInjuryEval&#45;&gt;GradualIncrease</title>
<path fill="none" stroke="blue" d="M141.69,-347.8C141.69,-336.16 141.69,-320.55 141.69,-307.24"/>
<polygon fill="blue" stroke="blue" points="145.19,-307.18 141.69,-297.18 138.19,-307.18 145.19,-307.18"/>
<text text-anchor="middle" x="155.19" y="-318.8" font-family="Times,serif" font-size="14.00" fill="blue">and</text>
</g>
<!-- SymptomFree -->
<g id="node12" class="node">
<title>SymptomFree</title>
<g id="a_node12"><a xlink:title="Remain symptom&#45;free at each stage for at least 24 hours before progressing.">
<ellipse fill="none" stroke="blue" cx="141.69" cy="-192" rx="137.58" ry="18"/>
<text text-anchor="middle" x="141.69" y="-188.3" font-family="Times,serif" font-size="14.00" fill="blue">Symptom&#45;Free Progression</text>
</a>
</g>
</g>
<!-- GradualIncrease&#45;&gt;SymptomFree -->
<g id="edge10" class="edge">
<title>GradualIncrease&#45;&gt;SymptomFree</title>
<path fill="none" stroke="blue" d="M141.69,-260.8C141.69,-249.16 141.69,-233.55 141.69,-220.24"/>
<polygon fill="blue" stroke="blue" points="145.19,-220.18 141.69,-210.18 138.19,-220.18 145.19,-220.18"/>
<text text-anchor="middle" x="155.19" y="-231.8" font-family="Times,serif" font-size="14.00" fill="blue">and</text>
</g>
<!-- FinalClearance -->
<g id="node13" class="node">
<title>FinalClearance</title>
<g id="a_node13"><a xlink:title="Final clearance by a qualified healthcare provider ensuring symptom&#45;free status and return to baseline function.">
<ellipse fill="none" stroke="blue" cx="141.69" cy="-105" rx="83.39" ry="18"/>
<text text-anchor="middle" x="141.69" y="-101.3" font-family="Times,serif" font-size="14.00" fill="blue">Final Clearance</text>
</a>
</g>
</g>
<!-- SymptomFree&#45;&gt;FinalClearance -->
<g id="edge11" class="edge">
<title>SymptomFree&#45;&gt;FinalClearance</title>
<path fill="none" stroke="blue" d="M141.69,-173.8C141.69,-162.16 141.69,-146.55 141.69,-133.24"/>
<polygon fill="blue" stroke="blue" points="145.19,-133.18 141.69,-123.18 138.19,-133.18 145.19,-133.18"/>
<text text-anchor="middle" x="155.19" y="-144.8" font-family="Times,serif" font-size="14.00" fill="blue">and</text>
</g>
<!-- FinalClearance&#45;&gt;SuccessfulScreen -->
<g id="edge12" class="edge">
<title>FinalClearance&#45;&gt;SuccessfulScreen</title>
<path fill="none" stroke="blue" d="M141.69,-86.8C141.69,-75.16 141.69,-59.55 141.69,-46.24"/>
<polygon fill="blue" stroke="blue" points="145.19,-46.18 141.69,-36.18 138.19,-46.18 145.19,-46.18"/>
<text text-anchor="middle" x="158.19" y="-57.8" font-family="Times,serif" font-size="14.00" fill="blue">then</text>
</g>
</g>
</svg>
