<?xml version="1.0" encoding="UTF-8" standalone="no"?><!DOCTYPE svg PUBLIC "-//W3C//DTD SVG 1.1//EN" "http://www.w3.org/Graphics/SVG/1.1/DTD/svg11.dtd"><!-- Generated by graphviz version 2.40.1 (20161225.0304)
 --><!-- Title: G Pages: 1 --><svg xmlns="http://www.w3.org/2000/svg" xmlns:xlink="http://www.w3.org/1999/xlink" width="866pt" height="411pt" viewBox="0.00 0.00 866.21 411.40">
<g id="graph0" class="graph" transform="scale(1 1) rotate(0) translate(4 407.4)">
<title>G</title>
<polygon fill="#ffffff" stroke="transparent" points="-4,4 -4,-407.4 862.2072,-407.4 862.2072,4 -4,4"/>
<!-- x -->
<g id="node1" class="node">
<title>x</title>
<polygon fill="none" stroke="#000000" points="609.6058,-403.4 555.6058,-403.4 555.6058,-367.4 609.6058,-367.4 609.6058,-403.4"/>
<text text-anchor="middle" x="582.6058" y="-381.2" font-family="Times,serif" font-size="14.00" fill="#000000">Start</text>
</g>
<!-- a -->
<g id="node2" class="node">
<title>a</title>
<polygon fill="none" stroke="#0000ff" points="582.6058,-330.4 473.8408,-312.4 582.6058,-294.4 691.3708,-312.4 582.6058,-330.4"/>
<text text-anchor="middle" x="582.6058" y="-308.2" font-family="Times,serif" font-size="14.00" fill="#0000ff">Gender is female</text>
</g>
<!-- x&#45;&gt;a -->
<g id="edge1" class="edge">
<title>x-&gt;a</title>
<path fill="none" stroke="#000000" d="M582.6058,-367.3551C582.6058,-359.2828 582.6058,-349.5764 582.6058,-340.5817"/>
<polygon fill="#000000" stroke="#000000" points="586.1059,-340.4903 582.6058,-330.4904 579.1059,-340.4904 586.1059,-340.4903"/>
</g>
<!-- b -->
<g id="node3" class="node">
<title>b</title>
<polygon fill="none" stroke="#0000ff" points="397.6058,-238.8 136.405,-220.8 397.6058,-202.8 658.8066,-220.8 397.6058,-238.8"/>
<text text-anchor="middle" x="397.6058" y="-216.6" font-family="Times,serif" font-size="14.00" fill="#0000ff">Sexually active women 24 years or younger?</text>
</g>
<!-- a&#45;&gt;b -->
<g id="edge2" class="edge">
<title>a-&gt;b</title>
<path fill="none" stroke="#000000" d="M555.3084,-298.8841C524.5843,-283.6715 474.3333,-258.7905 438.8237,-241.2085"/>
<polygon fill="#000000" stroke="#000000" points="440.1965,-237.9826 429.6818,-236.6819 437.0904,-244.2558 440.1965,-237.9826"/>
<text text-anchor="middle" x="518.4887" y="-263.8" font-family="Times,serif" font-size="14.00" fill="#000000">Yes</text>
</g>
<!-- f -->
<g id="node6" class="node">
<title>f</title>
<polygon fill="none" stroke="#000000" points="858.3087,-241.4019 676.9029,-241.4019 676.9029,-200.1981 858.3087,-200.1981 858.3087,-241.4019"/>
<text text-anchor="middle" x="767.6058" y="-225" font-family="Times,serif" font-size="14.00" fill="#000000">Insufficient evidence for men</text>
<text text-anchor="middle" x="767.6058" y="-208.2" font-family="Times,serif" font-size="14.00" fill="#000000">(I statement)</text>
</g>
<!-- a&#45;&gt;f -->
<g id="edge3" class="edge">
<title>a-&gt;f</title>
<path fill="none" stroke="#000000" d="M609.9032,-298.8841C637.9516,-284.9963 682.2739,-263.0508 716.7978,-245.9568"/>
<polygon fill="#000000" stroke="#000000" points="718.3912,-249.0735 725.7998,-241.4996 715.2851,-242.8003 718.3912,-249.0735"/>
<text text-anchor="middle" x="695.1591" y="-263.8" font-family="Times,serif" font-size="14.00" fill="#000000">No</text>
</g>
<!-- c -->
<g id="node4" class="node">
<title>c</title>
<polygon fill="none" stroke="#0000ff" points="252.6058,-147.2 -.1058,-129.2 252.6058,-111.2 505.3174,-129.2 252.6058,-147.2"/>
<text text-anchor="middle" x="252.6058" y="-125" font-family="Times,serif" font-size="14.00" fill="#0000ff">Women 25 years or older at increased risk?</text>
</g>
<!-- b&#45;&gt;c -->
<g id="edge5" class="edge">
<title>b-&gt;c</title>
<path fill="none" stroke="#000000" d="M371.6827,-204.4238C348.0735,-189.5093 313.0367,-167.3757 287.0753,-150.9752"/>
<polygon fill="#000000" stroke="#000000" points="288.6281,-147.8163 278.3044,-145.4345 284.8895,-153.7343 288.6281,-147.8163"/>
<text text-anchor="middle" x="343.1591" y="-169.4" font-family="Times,serif" font-size="14.00" fill="#000000">No</text>
</g>
<!-- d -->
<g id="node5" class="node">
<title>d</title>
<polygon fill="none" stroke="#000000" points="464.3299,-58.6014 328.8817,-58.6014 328.8817,.2014 464.3299,.2014 464.3299,-58.6014"/>
<text text-anchor="middle" x="396.6058" y="-41.8" font-family="Times,serif" font-size="14.00" fill="#000000">Screen for chlamydia</text>
<text text-anchor="middle" x="396.6058" y="-25" font-family="Times,serif" font-size="14.00" fill="#000000">Screen for gonorrhea</text>
<text text-anchor="middle" x="396.6058" y="-8.2" font-family="Times,serif" font-size="14.00" fill="#000000">(B recommendation)</text>
</g>
<!-- b&#45;&gt;d -->
<g id="edge4" class="edge">
<title>b-&gt;d</title>
<path fill="none" stroke="#000000" d="M437.6306,-205.3735C479.452,-186.6848 536.2059,-152.5137 514.6058,-111.2 504.5733,-92.0113 487.7792,-76.4081 469.9617,-64.165"/>
<polygon fill="#000000" stroke="#000000" points="471.446,-60.9545 461.1579,-58.4237 467.6223,-66.8179 471.446,-60.9545"/>
<text text-anchor="middle" x="530.4887" y="-125" font-family="Times,serif" font-size="14.00" fill="#000000">Yes</text>
</g>
<!-- c&#45;&gt;d -->
<g id="edge6" class="edge">
<title>c-&gt;d</title>
<path fill="none" stroke="#000000" d="M276.3845,-112.687C295.3208,-99.5368 322.493,-80.6672 346.2157,-64.1931"/>
<polygon fill="#000000" stroke="#000000" points="348.2264,-67.058 354.4437,-58.4792 344.2336,-61.3084 348.2264,-67.058"/>
<text text-anchor="middle" x="335.4887" y="-80.6" font-family="Times,serif" font-size="14.00" fill="#000000">Yes</text>
</g>
</g>
</svg>