<?xml version="1.0" encoding="UTF-8" standalone="no"?>
<!DOCTYPE svg PUBLIC "-//W3C//DTD SVG 1.1//EN"
 "http://www.w3.org/Graphics/SVG/1.1/DTD/svg11.dtd">
<!-- Generated by graphviz version 2.43.0 (0)
 -->
<!-- Title: TonsillitisDiagnosisProtocol Pages: 1 -->
<svg width="1330pt" height="566pt"
 viewBox="0.00 0.00 1330.29 566.00" xmlns="http://www.w3.org/2000/svg" xmlns:xlink="http://www.w3.org/1999/xlink">
<g id="graph0" class="graph" transform="scale(1 1) rotate(0) translate(4 562)">
<title>TonsillitisDiagnosisProtocol</title>
<polygon fill="white" stroke="transparent" points="-4,4 -4,-562 1326.29,-562 1326.29,4 -4,4"/>
<!-- InitialPopulation -->
<g id="node1" class="node">
<title>InitialPopulation</title>
<g id="a_node1"><a xlink:title="All patients presenting with symptoms suggestive of tonsillitis">
<path fill="none" stroke="green" d="M622,-558C622,-558 507,-558 507,-558 501,-558 495,-552 495,-546 495,-546 495,-534 495,-534 495,-528 501,-522 507,-522 507,-522 622,-522 622,-522 628,-522 634,-528 634,-534 634,-534 634,-546 634,-546 634,-552 628,-558 622,-558"/>
<text text-anchor="middle" x="564.5" y="-536.3" font-family="Times,serif" font-size="14.00" fill="green">Initial Population</text>
</a>
</g>
</g>
<!-- Age -->
<g id="node5" class="node">
<title>Age</title>
<g id="a_node5"><a xlink:title="Age: 3 years and older">
<ellipse fill="none" stroke="blue" cx="564.5" cy="-453" rx="55.79" ry="18"/>
<text text-anchor="middle" x="564.5" y="-449.3" font-family="Times,serif" font-size="14.00" fill="blue">Age &gt;= 3</text>
</a>
</g>
</g>
<!-- InitialPopulation&#45;&gt;Age -->
<g id="edge1" class="edge">
<title>InitialPopulation&#45;&gt;Age</title>
<path fill="none" stroke="blue" d="M564.5,-521.8C564.5,-510.16 564.5,-494.55 564.5,-481.24"/>
<polygon fill="blue" stroke="blue" points="568,-481.18 564.5,-471.18 561,-481.18 568,-481.18"/>
<text text-anchor="middle" x="569.5" y="-492.8" font-family="Times,serif" font-size="14.00" fill="blue">if</text>
</g>
<!-- SubsetInConsideration -->
<g id="node2" class="node">
<title>SubsetInConsideration</title>
<g id="a_node2"><a xlink:title="Patients 3 years and older with at least two symptoms: sore throat, fever, swollen tonsils, or difficulty swallowing, and symptoms duration less than 10 days">
<path fill="none" stroke="green" d="M646.5,-210C646.5,-210 482.5,-210 482.5,-210 476.5,-210 470.5,-204 470.5,-198 470.5,-198 470.5,-186 470.5,-186 470.5,-180 476.5,-174 482.5,-174 482.5,-174 646.5,-174 646.5,-174 652.5,-174 658.5,-180 658.5,-186 658.5,-186 658.5,-198 658.5,-198 658.5,-204 652.5,-210 646.5,-210"/>
<text text-anchor="middle" x="564.5" y="-188.3" font-family="Times,serif" font-size="14.00" fill="green">Subset in Consideration</text>
</a>
</g>
</g>
<!-- ProtocolSatisfied -->
<g id="node4" class="node">
<title>ProtocolSatisfied</title>
<g id="a_node4"><a xlink:title="Patients who satisfy the protocol for tonsillitis diagnosis and management">
<path fill="none" stroke="green" d="M131,-123C131,-123 12,-123 12,-123 6,-123 0,-117 0,-111 0,-111 0,-99 0,-99 0,-93 6,-87 12,-87 12,-87 131,-87 131,-87 137,-87 143,-93 143,-99 143,-99 143,-111 143,-111 143,-117 137,-123 131,-123"/>
<text text-anchor="middle" x="71.5" y="-101.3" font-family="Times,serif" font-size="14.00" fill="green">Protocol Satisfied</text>
</a>
</g>
</g>
<!-- SubsetInConsideration&#45;&gt;ProtocolSatisfied -->
<g id="edge15" class="edge">
<title>SubsetInConsideration&#45;&gt;ProtocolSatisfied</title>
<path fill="none" stroke="blue" d="M470.21,-176.63C388.94,-163.96 268.23,-144.5 153.07,-123.06"/>
<polygon fill="blue" stroke="blue" points="153.49,-119.58 143.02,-121.19 152.21,-126.46 153.49,-119.58"/>
<text text-anchor="middle" x="350" y="-144.8" font-family="Times,serif" font-size="14.00" fill="blue">then</text>
</g>
<!-- RecurrentTonsillitis -->
<g id="node8" class="node">
<title>RecurrentTonsillitis</title>
<g id="a_node8"><a xlink:title="Known history of recurrent tonsillitis (more than 5 episodes in a year)">
<ellipse fill="none" stroke="blue" cx="266.5" cy="-105" rx="105.08" ry="18"/>
<text text-anchor="middle" x="266.5" y="-101.3" font-family="Times,serif" font-size="14.00" fill="blue">Recurrent Tonsillitis</text>
</a>
</g>
</g>
<!-- SubsetInConsideration&#45;&gt;RecurrentTonsillitis -->
<g id="edge5" class="edge">
<title>SubsetInConsideration&#45;&gt;RecurrentTonsillitis</title>
<path fill="none" stroke="blue" d="M504.55,-173.9C453.3,-159.28 379.84,-138.33 328.11,-123.57"/>
<polygon fill="blue" stroke="blue" points="328.97,-120.18 318.39,-120.8 327.05,-126.91 328.97,-120.18"/>
<text text-anchor="middle" x="438.5" y="-144.8" font-family="Times,serif" font-size="14.00" fill="blue">if</text>
</g>
<!-- PeritonsillarAbscess -->
<g id="node9" class="node">
<title>PeritonsillarAbscess</title>
<g id="a_node9"><a xlink:title="Presence of peritonsillar abscess or other complications requiring immediate surgical intervention">
<ellipse fill="none" stroke="blue" cx="497.5" cy="-105" rx="107.78" ry="18"/>
<text text-anchor="middle" x="497.5" y="-101.3" font-family="Times,serif" font-size="14.00" fill="blue">Peritonsillar Abscess</text>
</a>
</g>
</g>
<!-- SubsetInConsideration&#45;&gt;PeritonsillarAbscess -->
<g id="edge6" class="edge">
<title>SubsetInConsideration&#45;&gt;PeritonsillarAbscess</title>
<path fill="none" stroke="blue" d="M550.94,-173.8C541.25,-161.51 528.06,-144.77 517.21,-131.01"/>
<polygon fill="blue" stroke="blue" points="519.75,-128.57 510.81,-122.89 514.25,-132.91 519.75,-128.57"/>
<text text-anchor="middle" x="540.5" y="-144.8" font-family="Times,serif" font-size="14.00" fill="blue">if</text>
</g>
<!-- Immunocompromised -->
<g id="node10" class="node">
<title>Immunocompromised</title>
<g id="a_node10"><a xlink:title="Immunocompromised status (e.g., HIV, chemotherapy, long&#45;term steroid use)">
<ellipse fill="none" stroke="blue" cx="734.5" cy="-105" rx="111.28" ry="18"/>
<text text-anchor="middle" x="734.5" y="-101.3" font-family="Times,serif" font-size="14.00" fill="blue">Immunocompromised</text>
</a>
</g>
</g>
<!-- SubsetInConsideration&#45;&gt;Immunocompromised -->
<g id="edge7" class="edge">
<title>SubsetInConsideration&#45;&gt;Immunocompromised</title>
<path fill="none" stroke="blue" d="M598.9,-173.8C626.04,-160.23 664,-141.25 692.86,-126.82"/>
<polygon fill="blue" stroke="blue" points="694.5,-129.91 701.88,-122.31 691.37,-123.65 694.5,-129.91"/>
<text text-anchor="middle" x="665.5" y="-144.8" font-family="Times,serif" font-size="14.00" fill="blue">if</text>
</g>
<!-- Allergy -->
<g id="node11" class="node">
<title>Allergy</title>
<g id="a_node11"><a xlink:title="Known allergy to penicillin or other first&#45;line antibiotics for tonsillitis">
<ellipse fill="none" stroke="blue" cx="972.5" cy="-105" rx="108.58" ry="18"/>
<text text-anchor="middle" x="972.5" y="-101.3" font-family="Times,serif" font-size="14.00" fill="blue">Allergy to Antibiotics</text>
</a>
</g>
</g>
<!-- SubsetInConsideration&#45;&gt;Allergy -->
<g id="edge8" class="edge">
<title>SubsetInConsideration&#45;&gt;Allergy</title>
<path fill="none" stroke="blue" d="M646.57,-173.9C719.88,-158.63 826.35,-136.45 897.44,-121.64"/>
<polygon fill="blue" stroke="blue" points="898.58,-124.97 907.66,-119.51 897.16,-118.12 898.58,-124.97"/>
<text text-anchor="middle" x="798.5" y="-144.8" font-family="Times,serif" font-size="14.00" fill="blue">if</text>
</g>
<!-- RecentAntibioticUse -->
<g id="node12" class="node">
<title>RecentAntibioticUse</title>
<g id="a_node12"><a xlink:title="Recent antibiotic use within the past 2 weeks">
<ellipse fill="none" stroke="blue" cx="1210.5" cy="-105" rx="111.58" ry="18"/>
<text text-anchor="middle" x="1210.5" y="-101.3" font-family="Times,serif" font-size="14.00" fill="blue">Recent Antibiotic Use</text>
</a>
</g>
</g>
<!-- SubsetInConsideration&#45;&gt;RecentAntibioticUse -->
<g id="edge9" class="edge">
<title>SubsetInConsideration&#45;&gt;RecentAntibioticUse</title>
<path fill="none" stroke="blue" d="M658.61,-179.18C763.89,-165.88 939.49,-143.46 1090.5,-123 1100.12,-121.7 1110.16,-120.31 1120.18,-118.92"/>
<polygon fill="blue" stroke="blue" points="1120.74,-122.37 1130.16,-117.52 1119.77,-115.44 1120.74,-122.37"/>
<text text-anchor="middle" x="951.5" y="-144.8" font-family="Times,serif" font-size="14.00" fill="blue">if</text>
</g>
<!-- ExclusionCriteria -->
<g id="node3" class="node">
<title>ExclusionCriteria</title>
<g id="a_node3"><a xlink:title="Patients excluded if they have recurrent tonsillitis, peritonsillar abscess, immunocompromised status, allergy to antibiotics, or recent antibiotic use">
<path fill="none" stroke="green" d="M795.5,-36C795.5,-36 673.5,-36 673.5,-36 667.5,-36 661.5,-30 661.5,-24 661.5,-24 661.5,-12 661.5,-12 661.5,-6 667.5,0 673.5,0 673.5,0 795.5,0 795.5,0 801.5,0 807.5,-6 807.5,-12 807.5,-12 807.5,-24 807.5,-24 807.5,-30 801.5,-36 795.5,-36"/>
<text text-anchor="middle" x="734.5" y="-14.3" font-family="Times,serif" font-size="14.00" fill="green">Exclusion Criteria</text>
</a>
</g>
</g>
<!-- Symptoms -->
<g id="node6" class="node">
<title>Symptoms</title>
<g id="a_node6"><a xlink:title="Presenting with at least two of the following symptoms: sore throat, fever, swollen tonsils, or difficulty swallowing">
<ellipse fill="none" stroke="blue" cx="564.5" cy="-366" rx="76.89" ry="18"/>
<text text-anchor="middle" x="564.5" y="-362.3" font-family="Times,serif" font-size="14.00" fill="blue">2+ Symptoms</text>
</a>
</g>
</g>
<!-- Age&#45;&gt;Symptoms -->
<g id="edge2" class="edge">
<title>Age&#45;&gt;Symptoms</title>
<path fill="none" stroke="blue" d="M564.5,-434.8C564.5,-423.16 564.5,-407.55 564.5,-394.24"/>
<polygon fill="blue" stroke="blue" points="568,-394.18 564.5,-384.18 561,-394.18 568,-394.18"/>
<text text-anchor="middle" x="578" y="-405.8" font-family="Times,serif" font-size="14.00" fill="blue">and</text>
</g>
<!-- Duration -->
<g id="node7" class="node">
<title>Duration</title>
<g id="a_node7"><a xlink:title="Duration of symptoms: Less than 10 days">
<ellipse fill="none" stroke="blue" cx="564.5" cy="-279" rx="101.28" ry="18"/>
<text text-anchor="middle" x="564.5" y="-275.3" font-family="Times,serif" font-size="14.00" fill="blue">Duration &lt; 10 days</text>
</a>
</g>
</g>
<!-- Symptoms&#45;&gt;Duration -->
<g id="edge3" class="edge">
<title>Symptoms&#45;&gt;Duration</title>
<path fill="none" stroke="blue" d="M564.5,-347.8C564.5,-336.16 564.5,-320.55 564.5,-307.24"/>
<polygon fill="blue" stroke="blue" points="568,-307.18 564.5,-297.18 561,-307.18 568,-307.18"/>
<text text-anchor="middle" x="578" y="-318.8" font-family="Times,serif" font-size="14.00" fill="blue">and</text>
</g>
<!-- Duration&#45;&gt;SubsetInConsideration -->
<g id="edge4" class="edge">
<title>Duration&#45;&gt;SubsetInConsideration</title>
<path fill="none" stroke="blue" d="M564.5,-260.8C564.5,-249.16 564.5,-233.55 564.5,-220.24"/>
<polygon fill="blue" stroke="blue" points="568,-220.18 564.5,-210.18 561,-220.18 568,-220.18"/>
<text text-anchor="middle" x="581" y="-231.8" font-family="Times,serif" font-size="14.00" fill="blue">then</text>
</g>
<!-- RecurrentTonsillitis&#45;&gt;ExclusionCriteria -->
<g id="edge10" class="edge">
<title>RecurrentTonsillitis&#45;&gt;ExclusionCriteria</title>
<path fill="none" stroke="blue" d="M335.81,-91.41C419.93,-76.13 561.65,-50.39 651.51,-34.07"/>
<polygon fill="blue" stroke="blue" points="652.17,-37.51 661.39,-32.28 650.92,-30.62 652.17,-37.51"/>
<text text-anchor="middle" x="546" y="-57.8" font-family="Times,serif" font-size="14.00" fill="blue">then</text>
</g>
<!-- PeritonsillarAbscess&#45;&gt;ExclusionCriteria -->
<g id="edge11" class="edge">
<title>PeritonsillarAbscess&#45;&gt;ExclusionCriteria</title>
<path fill="none" stroke="blue" d="M540.97,-88.41C579.28,-74.67 635.36,-54.56 677.3,-39.51"/>
<polygon fill="blue" stroke="blue" points="678.6,-42.77 686.83,-36.1 676.23,-36.18 678.6,-42.77"/>
<text text-anchor="middle" x="647" y="-57.8" font-family="Times,serif" font-size="14.00" fill="blue">then</text>
</g>
<!-- Immunocompromised&#45;&gt;ExclusionCriteria -->
<g id="edge12" class="edge">
<title>Immunocompromised&#45;&gt;ExclusionCriteria</title>
<path fill="none" stroke="blue" d="M734.5,-86.8C734.5,-75.16 734.5,-59.55 734.5,-46.24"/>
<polygon fill="blue" stroke="blue" points="738,-46.18 734.5,-36.18 731,-46.18 738,-46.18"/>
<text text-anchor="middle" x="751" y="-57.8" font-family="Times,serif" font-size="14.00" fill="blue">then</text>
</g>
<!-- Allergy&#45;&gt;ExclusionCriteria -->
<g id="edge13" class="edge">
<title>Allergy&#45;&gt;ExclusionCriteria</title>
<path fill="none" stroke="blue" d="M928.85,-88.41C890.38,-74.67 834.06,-54.56 791.94,-39.51"/>
<polygon fill="blue" stroke="blue" points="792.97,-36.16 782.37,-36.1 790.61,-42.76 792.97,-36.16"/>
<text text-anchor="middle" x="885" y="-57.8" font-family="Times,serif" font-size="14.00" fill="blue">then</text>
</g>
<!-- RecentAntibioticUse&#45;&gt;ExclusionCriteria -->
<g id="edge14" class="edge">
<title>RecentAntibioticUse&#45;&gt;ExclusionCriteria</title>
<path fill="none" stroke="blue" d="M1138.72,-91.18C1052.61,-75.81 908.5,-50.07 817.63,-33.85"/>
<polygon fill="blue" stroke="blue" points="818.1,-30.37 807.64,-32.06 816.87,-37.27 818.1,-30.37"/>
<text text-anchor="middle" x="1018" y="-57.8" font-family="Times,serif" font-size="14.00" fill="blue">then</text>
</g>
</g>
</svg>
