<?xml version="1.0" encoding="UTF-8" standalone="no"?>
<!DOCTYPE svg PUBLIC "-//W3C//DTD SVG 1.1//EN"
 "http://www.w3.org/Graphics/SVG/1.1/DTD/svg11.dtd">
<!-- Generated by graphviz version 2.43.0 (0)
 -->
<!-- Title: EczemaProtocol Pages: 1 -->
<svg width="1142pt" height="914pt"
 viewBox="0.00 0.00 1141.68 914.00" xmlns="http://www.w3.org/2000/svg" xmlns:xlink="http://www.w3.org/1999/xlink">
<g id="graph0" class="graph" transform="scale(1 1) rotate(0) translate(4 910)">
<title>EczemaProtocol</title>
<polygon fill="white" stroke="transparent" points="-4,4 -4,-910 1137.68,-910 1137.68,4 -4,4"/>
<!-- InitialPopulation -->
<g id="node1" class="node">
<title>InitialPopulation</title>
<g id="a_node1"><a xlink:title="All pediatric patients aged 0 to 18 years with symptoms consistent with eczema">
<path fill="none" stroke="green" d="M559.84,-906C559.84,-906 444.84,-906 444.84,-906 438.84,-906 432.84,-900 432.84,-894 432.84,-894 432.84,-882 432.84,-882 432.84,-876 438.84,-870 444.84,-870 444.84,-870 559.84,-870 559.84,-870 565.84,-870 571.84,-876 571.84,-882 571.84,-882 571.84,-894 571.84,-894 571.84,-900 565.84,-906 559.84,-906"/>
<text text-anchor="middle" x="502.34" y="-884.3" font-family="Times,serif" font-size="14.00" fill="green">Initial Population</text>
</a>
</g>
</g>
<!-- Pruritus -->
<g id="node5" class="node">
<title>Pruritus</title>
<g id="a_node5"><a xlink:title="Presence of pruritus (itching)">
<ellipse fill="none" stroke="blue" cx="502.34" cy="-801" rx="49.29" ry="18"/>
<text text-anchor="middle" x="502.34" y="-797.3" font-family="Times,serif" font-size="14.00" fill="blue">Pruritus</text>
</a>
</g>
</g>
<!-- InitialPopulation&#45;&gt;Pruritus -->
<g id="edge1" class="edge">
<title>InitialPopulation&#45;&gt;Pruritus</title>
<path fill="none" stroke="blue" d="M502.34,-869.8C502.34,-858.16 502.34,-842.55 502.34,-829.24"/>
<polygon fill="blue" stroke="blue" points="505.84,-829.18 502.34,-819.18 498.84,-829.18 505.84,-829.18"/>
<text text-anchor="middle" x="507.34" y="-840.8" font-family="Times,serif" font-size="14.00" fill="blue">if</text>
</g>
<!-- SubsetInConsideration -->
<g id="node2" class="node">
<title>SubsetInConsideration</title>
<g id="a_node2"><a xlink:title="Children clinically diagnosed with eczema">
<path fill="none" stroke="green" d="M584.34,-471C584.34,-471 420.34,-471 420.34,-471 414.34,-471 408.34,-465 408.34,-459 408.34,-459 408.34,-447 408.34,-447 408.34,-441 414.34,-435 420.34,-435 420.34,-435 584.34,-435 584.34,-435 590.34,-435 596.34,-441 596.34,-447 596.34,-447 596.34,-459 596.34,-459 596.34,-465 590.34,-471 584.34,-471"/>
<text text-anchor="middle" x="502.34" y="-449.3" font-family="Times,serif" font-size="14.00" fill="green">Subset in Consideration</text>
</a>
</g>
</g>
<!-- OtherConditions -->
<g id="node9" class="node">
<title>OtherConditions</title>
<g id="a_node9"><a xlink:title="Presence of other dermatological conditions that mimic eczema">
<ellipse fill="none" stroke="blue" cx="90.34" cy="-366" rx="90.18" ry="18"/>
<text text-anchor="middle" x="90.34" y="-362.3" font-family="Times,serif" font-size="14.00" fill="blue">Other Conditions</text>
</a>
</g>
</g>
<!-- SubsetInConsideration&#45;&gt;OtherConditions -->
<g id="edge6" class="edge">
<title>SubsetInConsideration&#45;&gt;OtherConditions</title>
<path fill="none" stroke="blue" d="M419.46,-434.9C343.5,-419.23 232.24,-396.28 160.55,-381.49"/>
<polygon fill="blue" stroke="blue" points="161.21,-378.05 150.71,-379.45 159.79,-384.9 161.21,-378.05"/>
<text text-anchor="middle" x="326.34" y="-405.8" font-family="Times,serif" font-size="14.00" fill="blue">if</text>
</g>
<!-- Hypersensitivity -->
<g id="node10" class="node">
<title>Hypersensitivity</title>
<g id="a_node10"><a xlink:title="Known hypersensitivity or contraindication to standard eczema treatments">
<ellipse fill="none" stroke="blue" cx="286.34" cy="-366" rx="87.99" ry="18"/>
<text text-anchor="middle" x="286.34" y="-362.3" font-family="Times,serif" font-size="14.00" fill="blue">Hypersensitivity</text>
</a>
</g>
</g>
<!-- SubsetInConsideration&#45;&gt;Hypersensitivity -->
<g id="edge8" class="edge">
<title>SubsetInConsideration&#45;&gt;Hypersensitivity</title>
<path fill="none" stroke="blue" d="M458.89,-434.9C422.93,-420.75 371.88,-400.66 334.65,-386.01"/>
<polygon fill="blue" stroke="blue" points="335.6,-382.62 325.01,-382.22 333.04,-389.14 335.6,-382.62"/>
<text text-anchor="middle" x="412.34" y="-405.8" font-family="Times,serif" font-size="14.00" fill="blue">if</text>
</g>
<!-- Infections -->
<g id="node11" class="node">
<title>Infections</title>
<g id="a_node11"><a xlink:title="Presence of secondary skin infections">
<ellipse fill="none" stroke="blue" cx="448.34" cy="-366" rx="56.59" ry="18"/>
<text text-anchor="middle" x="448.34" y="-362.3" font-family="Times,serif" font-size="14.00" fill="blue">Infections</text>
</a>
</g>
</g>
<!-- SubsetInConsideration&#45;&gt;Infections -->
<g id="edge10" class="edge">
<title>SubsetInConsideration&#45;&gt;Infections</title>
<path fill="none" stroke="blue" d="M491.41,-434.8C483.68,-422.62 473.17,-406.09 464.48,-392.4"/>
<polygon fill="blue" stroke="blue" points="467.39,-390.45 459.07,-383.89 461.48,-394.2 467.39,-390.45"/>
<text text-anchor="middle" x="484.34" y="-405.8" font-family="Times,serif" font-size="14.00" fill="blue">if</text>
</g>
<!-- Immunocompromised -->
<g id="node12" class="node">
<title>Immunocompromised</title>
<g id="a_node12"><a xlink:title="Immunocompromised status">
<ellipse fill="none" stroke="blue" cx="634.34" cy="-366" rx="111.28" ry="18"/>
<text text-anchor="middle" x="634.34" y="-362.3" font-family="Times,serif" font-size="14.00" fill="blue">Immunocompromised</text>
</a>
</g>
</g>
<!-- SubsetInConsideration&#45;&gt;Immunocompromised -->
<g id="edge12" class="edge">
<title>SubsetInConsideration&#45;&gt;Immunocompromised</title>
<path fill="none" stroke="blue" d="M529.05,-434.8C549.54,-421.61 577.96,-403.31 600.11,-389.04"/>
<polygon fill="blue" stroke="blue" points="602.06,-391.95 608.57,-383.6 598.27,-386.07 602.06,-391.95"/>
<text text-anchor="middle" x="581.34" y="-405.8" font-family="Times,serif" font-size="14.00" fill="blue">if</text>
</g>
<!-- ClinicalTrial -->
<g id="node13" class="node">
<title>ClinicalTrial</title>
<g id="a_node13"><a xlink:title="Current participation in another clinical trial for eczema treatment">
<ellipse fill="none" stroke="blue" cx="833.34" cy="-366" rx="69.59" ry="18"/>
<text text-anchor="middle" x="833.34" y="-362.3" font-family="Times,serif" font-size="14.00" fill="blue">Clinical Trial</text>
</a>
</g>
</g>
<!-- SubsetInConsideration&#45;&gt;ClinicalTrial -->
<g id="edge14" class="edge">
<title>SubsetInConsideration&#45;&gt;ClinicalTrial</title>
<path fill="none" stroke="blue" d="M568.93,-434.9C629.48,-419.35 717.93,-396.64 775.57,-381.84"/>
<polygon fill="blue" stroke="blue" points="776.79,-385.14 785.6,-379.26 775.04,-378.36 776.79,-385.14"/>
<text text-anchor="middle" x="693.34" y="-405.8" font-family="Times,serif" font-size="14.00" fill="blue">if</text>
</g>
<!-- DiagnosticActions -->
<g id="node14" class="node">
<title>DiagnosticActions</title>
<g id="a_node14"><a xlink:title="Confirm diagnosis and document severity">
<ellipse fill="none" stroke="blue" cx="1017.34" cy="-366" rx="96.68" ry="18"/>
<text text-anchor="middle" x="1017.34" y="-362.3" font-family="Times,serif" font-size="14.00" fill="blue">Diagnostic Actions</text>
</a>
</g>
</g>
<!-- SubsetInConsideration&#45;&gt;DiagnosticActions -->
<g id="edge16" class="edge">
<title>SubsetInConsideration&#45;&gt;DiagnosticActions</title>
<path fill="none" stroke="blue" d="M596.5,-436.46C694.14,-420.34 845.14,-395.42 937.24,-380.22"/>
<polygon fill="blue" stroke="blue" points="938.04,-383.64 947.34,-378.55 936.9,-376.73 938.04,-383.64"/>
<text text-anchor="middle" x="796.34" y="-405.8" font-family="Times,serif" font-size="14.00" fill="blue">if</text>
</g>
<!-- ExclusionCriteria -->
<g id="node3" class="node">
<title>ExclusionCriteria</title>
<g id="a_node3"><a xlink:title="Children excluded from the protocol">
<path fill="none" stroke="green" d="M509.34,-297C509.34,-297 387.34,-297 387.34,-297 381.34,-297 375.34,-291 375.34,-285 375.34,-285 375.34,-273 375.34,-273 375.34,-267 381.34,-261 387.34,-261 387.34,-261 509.34,-261 509.34,-261 515.34,-261 521.34,-267 521.34,-273 521.34,-273 521.34,-285 521.34,-285 521.34,-291 515.34,-297 509.34,-297"/>
<text text-anchor="middle" x="448.34" y="-275.3" font-family="Times,serif" font-size="14.00" fill="green">Exclusion Criteria</text>
</a>
</g>
</g>
<!-- ProtocolSatisfied -->
<g id="node4" class="node">
<title>ProtocolSatisfied</title>
<g id="a_node4"><a xlink:title="Children satisfying the protocol">
<path fill="none" stroke="green" d="M1076.84,-36C1076.84,-36 957.84,-36 957.84,-36 951.84,-36 945.84,-30 945.84,-24 945.84,-24 945.84,-12 945.84,-12 945.84,-6 951.84,0 957.84,0 957.84,0 1076.84,0 1076.84,0 1082.84,0 1088.84,-6 1088.84,-12 1088.84,-12 1088.84,-24 1088.84,-24 1088.84,-30 1082.84,-36 1076.84,-36"/>
<text text-anchor="middle" x="1017.34" y="-14.3" font-family="Times,serif" font-size="14.00" fill="green">Protocol Satisfied</text>
</a>
</g>
</g>
<!-- Lesions -->
<g id="node6" class="node">
<title>Lesions</title>
<g id="a_node6"><a xlink:title="Eczematous lesions with typical morphology and age&#45;specific patterns">
<ellipse fill="none" stroke="blue" cx="502.34" cy="-714" rx="46.29" ry="18"/>
<text text-anchor="middle" x="502.34" y="-710.3" font-family="Times,serif" font-size="14.00" fill="blue">Lesions</text>
</a>
</g>
</g>
<!-- Pruritus&#45;&gt;Lesions -->
<g id="edge2" class="edge">
<title>Pruritus&#45;&gt;Lesions</title>
<path fill="none" stroke="blue" d="M502.34,-782.8C502.34,-771.16 502.34,-755.55 502.34,-742.24"/>
<polygon fill="blue" stroke="blue" points="505.84,-742.18 502.34,-732.18 498.84,-742.18 505.84,-742.18"/>
<text text-anchor="middle" x="515.84" y="-753.8" font-family="Times,serif" font-size="14.00" fill="blue">and</text>
</g>
<!-- History -->
<g id="node7" class="node">
<title>History</title>
<g id="a_node7"><a xlink:title="Chronic or relapsing history of dermatitis">
<ellipse fill="none" stroke="blue" cx="502.34" cy="-627" rx="45.49" ry="18"/>
<text text-anchor="middle" x="502.34" y="-623.3" font-family="Times,serif" font-size="14.00" fill="blue">History</text>
</a>
</g>
</g>
<!-- Lesions&#45;&gt;History -->
<g id="edge3" class="edge">
<title>Lesions&#45;&gt;History</title>
<path fill="none" stroke="blue" d="M502.34,-695.8C502.34,-684.16 502.34,-668.55 502.34,-655.24"/>
<polygon fill="blue" stroke="blue" points="505.84,-655.18 502.34,-645.18 498.84,-655.18 505.84,-655.18"/>
<text text-anchor="middle" x="515.84" y="-666.8" font-family="Times,serif" font-size="14.00" fill="blue">and</text>
</g>
<!-- FamilyHistory -->
<g id="node8" class="node">
<title>FamilyHistory</title>
<g id="a_node8"><a xlink:title="Family history of atopy">
<ellipse fill="none" stroke="blue" cx="502.34" cy="-540" rx="79.09" ry="18"/>
<text text-anchor="middle" x="502.34" y="-536.3" font-family="Times,serif" font-size="14.00" fill="blue">Family History</text>
</a>
</g>
</g>
<!-- History&#45;&gt;FamilyHistory -->
<g id="edge4" class="edge">
<title>History&#45;&gt;FamilyHistory</title>
<path fill="none" stroke="blue" d="M502.34,-608.8C502.34,-597.16 502.34,-581.55 502.34,-568.24"/>
<polygon fill="blue" stroke="blue" points="505.84,-568.18 502.34,-558.18 498.84,-568.18 505.84,-568.18"/>
<text text-anchor="middle" x="515.84" y="-579.8" font-family="Times,serif" font-size="14.00" fill="blue">and</text>
</g>
<!-- FamilyHistory&#45;&gt;SubsetInConsideration -->
<g id="edge5" class="edge">
<title>FamilyHistory&#45;&gt;SubsetInConsideration</title>
<path fill="none" stroke="blue" d="M502.34,-521.8C502.34,-510.16 502.34,-494.55 502.34,-481.24"/>
<polygon fill="blue" stroke="blue" points="505.84,-481.18 502.34,-471.18 498.84,-481.18 505.84,-481.18"/>
<text text-anchor="middle" x="518.84" y="-492.8" font-family="Times,serif" font-size="14.00" fill="blue">then</text>
</g>
<!-- OtherConditions&#45;&gt;ExclusionCriteria -->
<g id="edge7" class="edge">
<title>OtherConditions&#45;&gt;ExclusionCriteria</title>
<path fill="none" stroke="blue" d="M146.28,-351.72C205.42,-337.68 299.28,-315.39 366.69,-299.39"/>
<polygon fill="blue" stroke="blue" points="367.51,-302.79 376.43,-297.07 365.9,-295.98 367.51,-302.79"/>
<text text-anchor="middle" x="307.84" y="-318.8" font-family="Times,serif" font-size="14.00" fill="blue">then</text>
</g>
<!-- Hypersensitivity&#45;&gt;ExclusionCriteria -->
<g id="edge9" class="edge">
<title>Hypersensitivity&#45;&gt;ExclusionCriteria</title>
<path fill="none" stroke="blue" d="M316.81,-349.01C342.18,-335.7 378.54,-316.62 406.61,-301.9"/>
<polygon fill="blue" stroke="blue" points="408.56,-304.83 415.78,-297.08 405.3,-298.63 408.56,-304.83"/>
<text text-anchor="middle" x="393.84" y="-318.8" font-family="Times,serif" font-size="14.00" fill="blue">then</text>
</g>
<!-- Infections&#45;&gt;ExclusionCriteria -->
<g id="edge11" class="edge">
<title>Infections&#45;&gt;ExclusionCriteria</title>
<path fill="none" stroke="blue" d="M448.34,-347.8C448.34,-336.16 448.34,-320.55 448.34,-307.24"/>
<polygon fill="blue" stroke="blue" points="451.84,-307.18 448.34,-297.18 444.84,-307.18 451.84,-307.18"/>
<text text-anchor="middle" x="464.84" y="-318.8" font-family="Times,serif" font-size="14.00" fill="blue">then</text>
</g>
<!-- Immunocompromised&#45;&gt;ExclusionCriteria -->
<g id="edge13" class="edge">
<title>Immunocompromised&#45;&gt;ExclusionCriteria</title>
<path fill="none" stroke="blue" d="M598.92,-348.81C569.37,-335.31 527.04,-315.96 494.78,-301.22"/>
<polygon fill="blue" stroke="blue" points="496.1,-297.97 485.55,-297 493.19,-304.34 496.1,-297.97"/>
<text text-anchor="middle" x="569.84" y="-318.8" font-family="Times,serif" font-size="14.00" fill="blue">then</text>
</g>
<!-- ClinicalTrial&#45;&gt;ExclusionCriteria -->
<g id="edge15" class="edge">
<title>ClinicalTrial&#45;&gt;ExclusionCriteria</title>
<path fill="none" stroke="blue" d="M782.22,-353.71C718.2,-339.58 607.71,-315.18 531.47,-298.35"/>
<polygon fill="blue" stroke="blue" points="531.93,-294.87 521.41,-296.13 530.42,-301.71 531.93,-294.87"/>
<text text-anchor="middle" x="680.84" y="-318.8" font-family="Times,serif" font-size="14.00" fill="blue">then</text>
</g>
<!-- TherapeuticActions -->
<g id="node15" class="node">
<title>TherapeuticActions</title>
<g id="a_node15"><a xlink:title="Initiate treatment and educate caregivers">
<ellipse fill="none" stroke="blue" cx="1017.34" cy="-279" rx="103.18" ry="18"/>
<text text-anchor="middle" x="1017.34" y="-275.3" font-family="Times,serif" font-size="14.00" fill="blue">Therapeutic Actions</text>
</a>
</g>
</g>
<!-- DiagnosticActions&#45;&gt;TherapeuticActions -->
<g id="edge17" class="edge">
<title>DiagnosticActions&#45;&gt;TherapeuticActions</title>
<path fill="none" stroke="blue" d="M1017.34,-347.8C1017.34,-336.16 1017.34,-320.55 1017.34,-307.24"/>
<polygon fill="blue" stroke="blue" points="1020.84,-307.18 1017.34,-297.18 1013.84,-307.18 1020.84,-307.18"/>
<text text-anchor="middle" x="1030.84" y="-318.8" font-family="Times,serif" font-size="14.00" fill="blue">and</text>
</g>
<!-- AdministrativeActions -->
<g id="node16" class="node">
<title>AdministrativeActions</title>
<g id="a_node16"><a xlink:title="Schedule follow&#45;ups and document outcomes">
<ellipse fill="none" stroke="blue" cx="1017.34" cy="-192" rx="116.18" ry="18"/>
<text text-anchor="middle" x="1017.34" y="-188.3" font-family="Times,serif" font-size="14.00" fill="blue">Administrative Actions</text>
</a>
</g>
</g>
<!-- TherapeuticActions&#45;&gt;AdministrativeActions -->
<g id="edge18" class="edge">
<title>TherapeuticActions&#45;&gt;AdministrativeActions</title>
<path fill="none" stroke="blue" d="M1017.34,-260.8C1017.34,-249.16 1017.34,-233.55 1017.34,-220.24"/>
<polygon fill="blue" stroke="blue" points="1020.84,-220.18 1017.34,-210.18 1013.84,-220.18 1020.84,-220.18"/>
<text text-anchor="middle" x="1030.84" y="-231.8" font-family="Times,serif" font-size="14.00" fill="blue">and</text>
</g>
<!-- OtherActions -->
<g id="node17" class="node">
<title>OtherActions</title>
<g id="a_node17"><a xlink:title="Provide referrals and psychological support">
<ellipse fill="none" stroke="blue" cx="1017.34" cy="-105" rx="74.99" ry="18"/>
<text text-anchor="middle" x="1017.34" y="-101.3" font-family="Times,serif" font-size="14.00" fill="blue">Other Actions</text>
</a>
</g>
</g>
<!-- AdministrativeActions&#45;&gt;OtherActions -->
<g id="edge19" class="edge">
<title>AdministrativeActions&#45;&gt;OtherActions</title>
<path fill="none" stroke="blue" d="M1017.34,-173.8C1017.34,-162.16 1017.34,-146.55 1017.34,-133.24"/>
<polygon fill="blue" stroke="blue" points="1020.84,-133.18 1017.34,-123.18 1013.84,-133.18 1020.84,-133.18"/>
<text text-anchor="middle" x="1030.84" y="-144.8" font-family="Times,serif" font-size="14.00" fill="blue">and</text>
</g>
<!-- OtherActions&#45;&gt;ProtocolSatisfied -->
<g id="edge20" class="edge">
<title>OtherActions&#45;&gt;ProtocolSatisfied</title>
<path fill="none" stroke="blue" d="M1017.34,-86.8C1017.34,-75.16 1017.34,-59.55 1017.34,-46.24"/>
<polygon fill="blue" stroke="blue" points="1020.84,-46.18 1017.34,-36.18 1013.84,-46.18 1020.84,-46.18"/>
<text text-anchor="middle" x="1033.84" y="-57.8" font-family="Times,serif" font-size="14.00" fill="blue">then</text>
</g>
</g>
</svg>
