<?xml version="1.0" encoding="UTF-8" standalone="no"?>
<!DOCTYPE svg PUBLIC "-//W3C//DTD SVG 1.1//EN"
 "http://www.w3.org/Graphics/SVG/1.1/DTD/svg11.dtd">
<!-- Generated by graphviz version 11.0.0 (20240428.1522)
 -->
<!-- Title: MND_Sialorrhea_Clinical_Flowsheet Pages: 1 -->
<svg width="662pt" height="490pt"
 viewBox="0.00 0.00 661.75 490.00" xmlns="http://www.w3.org/2000/svg" xmlns:xlink="http://www.w3.org/1999/xlink">
<g id="graph0" class="graph" transform="scale(1 1) rotate(0) translate(4 486)">
<title>MND_Sialorrhea_Clinical_Flowsheet</title>
<polygon fill="white" stroke="none" points="-4,4 -4,-486 657.75,-486 657.75,4 -4,4"/>
<!-- start -->
<g id="node1" class="node">
<title>start</title>
<polygon fill="lightblue" stroke="lightblue" points="490.38,-482 234.38,-482 234.38,-446 490.38,-446 490.38,-482"/>
<text text-anchor="middle" x="362.38" y="-458.95" font-family="Times,serif" font-size="14.00">Person with MND has problems with saliva</text>
</g>
<!-- assess -->
<g id="node2" class="node">
<title>assess</title>
<polygon fill="lightblue" stroke="lightblue" points="485.88,-410 238.88,-410 238.88,-352.5 485.88,-352.5 485.88,-410"/>
<text text-anchor="middle" x="362.38" y="-392.7" font-family="Times,serif" font-size="14.00">Assess the volume and viscosity of saliva,</text>
<text text-anchor="middle" x="362.38" y="-376.2" font-family="Times,serif" font-size="14.00"> respiratory function, swallowing,</text>
<text text-anchor="middle" x="362.38" y="-359.7" font-family="Times,serif" font-size="14.00"> diet, posture, and oral care</text>
</g>
<!-- start&#45;&gt;assess -->
<g id="edge1" class="edge">
<title>start&#45;&gt;assess</title>
<path fill="none" stroke="black" d="M362.38,-445.88C362.38,-438.81 362.38,-430.3 362.38,-421.84"/>
<polygon fill="black" stroke="black" points="365.88,-421.98 362.38,-411.98 358.88,-421.98 365.88,-421.98"/>
</g>
<!-- drooling -->
<g id="node3" class="node">
<title>drooling</title>
<polygon fill="lightblue" stroke="lightblue" points="372.5,-316.5 36.25,-316.5 36.25,-280.5 372.5,-280.5 372.5,-316.5"/>
<text text-anchor="middle" x="204.38" y="-293.45" font-family="Times,serif" font-size="14.00">Person with MND has problems with drooling (sialorrhea)</text>
</g>
<!-- assess&#45;&gt;drooling -->
<g id="edge2" class="edge">
<title>assess&#45;&gt;drooling</title>
<path fill="none" stroke="black" d="M307.11,-352.01C287.83,-342.15 266.47,-331.24 248.24,-321.92"/>
<polygon fill="black" stroke="black" points="250.04,-318.91 239.54,-317.47 246.85,-325.14 250.04,-318.91"/>
</g>
<!-- thick_saliva -->
<g id="node8" class="node">
<title>thick_saliva</title>
<polygon fill="lightblue" stroke="lightblue" points="653.75,-316.5 391,-316.5 391,-280.5 653.75,-280.5 653.75,-316.5"/>
<text text-anchor="middle" x="522.38" y="-293.45" font-family="Times,serif" font-size="14.00">Person with MND has thick, tenacious saliva</text>
</g>
<!-- assess&#45;&gt;thick_saliva -->
<g id="edge6" class="edge">
<title>assess&#45;&gt;thick_saliva</title>
<path fill="none" stroke="black" d="M418.34,-352.01C437.86,-342.15 459.49,-331.24 477.95,-321.92"/>
<polygon fill="black" stroke="black" points="479.43,-325.09 486.78,-317.46 476.28,-318.85 479.43,-325.09"/>
</g>
<!-- advice -->
<g id="node4" class="node">
<title>advice</title>
<polygon fill="lightblue" stroke="lightblue" points="337.25,-244.5 71.5,-244.5 71.5,-203.5 337.25,-203.5 337.25,-244.5"/>
<text text-anchor="middle" x="204.38" y="-227.2" font-family="Times,serif" font-size="14.00">Provide advice on swallowing, diet,</text>
<text text-anchor="middle" x="204.38" y="-210.7" font-family="Times,serif" font-size="14.00">posture, positioning, oral care, and suctioning</text>
</g>
<!-- drooling&#45;&gt;advice -->
<g id="edge3" class="edge">
<title>drooling&#45;&gt;advice</title>
<path fill="none" stroke="black" d="M204.38,-280.32C204.38,-273.09 204.38,-264.45 204.38,-256.16"/>
<polygon fill="black" stroke="black" points="207.88,-256.39 204.38,-246.39 200.88,-256.39 207.88,-256.39"/>
</g>
<!-- first_line -->
<g id="node5" class="node">
<title>first_line</title>
<polygon fill="lightblue" stroke="lightblue" points="202.75,-140.25 0,-140.25 0,-104.25 202.75,-104.25 202.75,-140.25"/>
<text text-anchor="middle" x="101.38" y="-117.2" font-family="Times,serif" font-size="14.00">Consider antimuscarinic medicine</text>
</g>
<!-- advice&#45;&gt;first_line -->
<g id="edge5" class="edge">
<title>advice&#45;&gt;first_line</title>
<path fill="none" stroke="black" d="M129.87,-203.1C122.04,-198.42 114.93,-192.64 109.38,-185.5 102.07,-176.12 99.54,-163.43 99.04,-151.95"/>
<polygon fill="black" stroke="black" points="102.54,-152.16 99.13,-142.13 95.54,-152.1 102.54,-152.16"/>
<text text-anchor="middle" x="178.38" y="-172.2" font-family="Times,serif" font-size="14.00">No cognitive impairment</text>
</g>
<!-- glycopyrrolate -->
<g id="node6" class="node">
<title>glycopyrrolate</title>
<polygon fill="lightblue" stroke="lightblue" points="368,-140.25 220.75,-140.25 220.75,-104.25 368,-104.25 368,-140.25"/>
<text text-anchor="middle" x="294.38" y="-117.2" font-family="Times,serif" font-size="14.00">Consider glycopyrrolate</text>
</g>
<!-- advice&#45;&gt;glycopyrrolate -->
<g id="edge4" class="edge">
<title>advice&#45;&gt;glycopyrrolate</title>
<path fill="none" stroke="black" d="M231.9,-203.25C238.61,-197.85 245.53,-191.76 251.38,-185.5 261.36,-174.81 270.79,-161.63 278.27,-150.16"/>
<polygon fill="black" stroke="black" points="281.1,-152.23 283.49,-141.91 275.18,-148.49 281.1,-152.23"/>
<text text-anchor="middle" x="325.75" y="-172.2" font-family="Times,serif" font-size="14.00">Cognitive impairment</text>
</g>
<!-- botox_referral -->
<g id="node7" class="node">
<title>botox_referral</title>
<polygon fill="lightblue" stroke="lightblue" points="330.5,-38.5 18.25,-38.5 18.25,-2.5 330.5,-2.5 330.5,-38.5"/>
<text text-anchor="middle" x="174.38" y="-15.45" font-family="Times,serif" font-size="14.00">Consider referral to a specialist for Botulinum toxin A</text>
</g>
<!-- first_line&#45;&gt;botox_referral -->
<g id="edge10" class="edge">
<title>first_line&#45;&gt;botox_referral</title>
<path fill="none" stroke="black" d="M109.34,-103.78C115.64,-90.82 125.15,-73.04 135.88,-59 139.02,-54.88 142.61,-50.79 146.3,-46.9"/>
<polygon fill="black" stroke="black" points="148.75,-49.4 153.36,-39.86 143.81,-44.45 148.75,-49.4"/>
<text text-anchor="middle" x="188.12" y="-62.2" font-family="Times,serif" font-size="14.00">If treatment failure</text>
</g>
<!-- glycopyrrolate&#45;&gt;botox_referral -->
<g id="edge11" class="edge">
<title>glycopyrrolate&#45;&gt;botox_referral</title>
<path fill="none" stroke="black" d="M281.45,-103.75C271.06,-90.45 255.57,-72.23 239.38,-59 233.13,-53.9 226.11,-49.07 219.05,-44.69"/>
<polygon fill="black" stroke="black" points="221.16,-41.87 210.77,-39.77 217.58,-47.88 221.16,-41.87"/>
<text text-anchor="middle" x="308.12" y="-62.2" font-family="Times,serif" font-size="14.00">If treatment failure</text>
</g>
<!-- review_meds -->
<g id="node9" class="node">
<title>review_meds</title>
<polygon fill="lightblue" stroke="lightblue" points="627.88,-244.5 416.88,-244.5 416.88,-203.5 627.88,-203.5 627.88,-244.5"/>
<text text-anchor="middle" x="522.38" y="-227.2" font-family="Times,serif" font-size="14.00">Review all current medicines,</text>
<text text-anchor="middle" x="522.38" y="-210.7" font-family="Times,serif" font-size="14.00"> especially treatments for sialorrhea</text>
</g>
<!-- thick_saliva&#45;&gt;review_meds -->
<g id="edge7" class="edge">
<title>thick_saliva&#45;&gt;review_meds</title>
<path fill="none" stroke="black" d="M522.38,-280.32C522.38,-273.09 522.38,-264.45 522.38,-256.16"/>
<polygon fill="black" stroke="black" points="525.88,-256.39 522.38,-246.39 518.88,-256.39 525.88,-256.39"/>
</g>
<!-- thick_saliva_advice -->
<g id="node10" class="node">
<title>thick_saliva_advice</title>
<polygon fill="lightblue" stroke="lightblue" points="627.5,-151 417.25,-151 417.25,-93.5 627.5,-93.5 627.5,-151"/>
<text text-anchor="middle" x="522.38" y="-133.7" font-family="Times,serif" font-size="14.00">Provide advice on swallowing, </text>
<text text-anchor="middle" x="522.38" y="-117.2" font-family="Times,serif" font-size="14.00">diet, posture, positioning, oral care,</text>
<text text-anchor="middle" x="522.38" y="-100.7" font-family="Times,serif" font-size="14.00">suctioning, and hydration</text>
</g>
<!-- review_meds&#45;&gt;thick_saliva_advice -->
<g id="edge8" class="edge">
<title>review_meds&#45;&gt;thick_saliva_advice</title>
<path fill="none" stroke="black" d="M522.38,-203.29C522.38,-191.67 522.38,-176.55 522.38,-162.58"/>
<polygon fill="black" stroke="black" points="525.88,-162.74 522.38,-152.74 518.88,-162.74 525.88,-162.74"/>
</g>
<!-- treatment -->
<g id="node11" class="node">
<title>treatment</title>
<polygon fill="lightblue" stroke="lightblue" points="640.25,-41 404.5,-41 404.5,0 640.25,0 640.25,-41"/>
<text text-anchor="middle" x="522.38" y="-23.7" font-family="Times,serif" font-size="14.00">Consider treatment with humidification,</text>
<text text-anchor="middle" x="522.38" y="-7.2" font-family="Times,serif" font-size="14.00"> nebulizers, and carbocisteine</text>
</g>
<!-- thick_saliva_advice&#45;&gt;treatment -->
<g id="edge9" class="edge">
<title>thick_saliva_advice&#45;&gt;treatment</title>
<path fill="none" stroke="black" d="M522.38,-93.2C522.38,-80.58 522.38,-65.64 522.38,-52.67"/>
<polygon fill="black" stroke="black" points="525.88,-52.96 522.38,-42.96 518.88,-52.96 525.88,-52.96"/>
</g>
</g>
</svg>
