<?xml version="1.0" encoding="UTF-8" standalone="no"?>
<!DOCTYPE svg PUBLIC "-//W3C//DTD SVG 1.1//EN"
 "http://www.w3.org/Graphics/SVG/1.1/DTD/svg11.dtd">
<!-- Generated by graphviz version 2.43.0 (0)
 -->
<!-- Title: ReturnToPlayProtocol Pages: 1 -->
<svg width="1813pt" height="1001pt"
 viewBox="0.00 0.00 1812.59 1001.00" xmlns="http://www.w3.org/2000/svg" xmlns:xlink="http://www.w3.org/1999/xlink">
<g id="graph0" class="graph" transform="scale(1 1) rotate(0) translate(4 997)">
<title>ReturnToPlayProtocol</title>
<polygon fill="white" stroke="transparent" points="-4,4 -4,-997 1808.59,-997 1808.59,4 -4,4"/>
<!-- InitialPopulation -->
<g id="node1" class="node">
<title>InitialPopulation</title>
<g id="a_node1"><a xlink:title="All individuals who have participated in sports activities and have been diagnosed with a concussion.">
<path fill="none" stroke="green" d="M1210.09,-993C1210.09,-993 1095.09,-993 1095.09,-993 1089.09,-993 1083.09,-987 1083.09,-981 1083.09,-981 1083.09,-969 1083.09,-969 1083.09,-963 1089.09,-957 1095.09,-957 1095.09,-957 1210.09,-957 1210.09,-957 1216.09,-957 1222.09,-963 1222.09,-969 1222.09,-969 1222.09,-981 1222.09,-981 1222.09,-987 1216.09,-993 1210.09,-993"/>
<text text-anchor="middle" x="1152.59" y="-971.3" font-family="Times,serif" font-size="14.00" fill="green">Initial Population</text>
</a>
</g>
</g>
<!-- MedEval -->
<g id="node3" class="node">
<title>MedEval</title>
<g id="a_node3"><a xlink:title="Medically evaluated and diagnosed with a concussion by a qualified healthcare professional.">
<ellipse fill="none" stroke="blue" cx="1152.59" cy="-888" rx="100.18" ry="18"/>
<text text-anchor="middle" x="1152.59" y="-884.3" font-family="Times,serif" font-size="14.00" fill="blue">Medical Evaluation</text>
</a>
</g>
</g>
<!-- InitialPopulation&#45;&gt;MedEval -->
<g id="edge1" class="edge">
<title>InitialPopulation&#45;&gt;MedEval</title>
<path fill="none" stroke="blue" d="M1152.59,-956.8C1152.59,-945.16 1152.59,-929.55 1152.59,-916.24"/>
<polygon fill="blue" stroke="blue" points="1156.09,-916.18 1152.59,-906.18 1149.09,-916.18 1156.09,-916.18"/>
<text text-anchor="middle" x="1157.59" y="-927.8" font-family="Times,serif" font-size="14.00" fill="blue">if</text>
</g>
<!-- ScreeningSubset -->
<g id="node2" class="node">
<title>ScreeningSubset</title>
<g id="a_node2"><a xlink:title="Individuals from the initial population who have been medically evaluated and diagnosed with a concussion by a qualified healthcare professional.">
<path fill="none" stroke="green" d="M1267.09,-732C1267.09,-732 1038.09,-732 1038.09,-732 1032.09,-732 1026.09,-726 1026.09,-720 1026.09,-720 1026.09,-708 1026.09,-708 1026.09,-702 1032.09,-696 1038.09,-696 1038.09,-696 1267.09,-696 1267.09,-696 1273.09,-696 1279.09,-702 1279.09,-708 1279.09,-708 1279.09,-720 1279.09,-720 1279.09,-726 1273.09,-732 1267.09,-732"/>
<text text-anchor="middle" x="1152.59" y="-710.3" font-family="Times,serif" font-size="14.00" fill="green">Subset Considered for Screening</text>
</a>
</g>
</g>
<!-- Exclusion1 -->
<g id="node5" class="node">
<title>Exclusion1</title>
<g id="a_node5"><a xlink:title="Individuals who have not been formally diagnosed with a concussion by a healthcare professional.">
<ellipse fill="none" stroke="blue" cx="158.59" cy="-627" rx="158.67" ry="18"/>
<text text-anchor="middle" x="158.59" y="-623.3" font-family="Times,serif" font-size="14.00" fill="blue">Exclusion: No Formal Diagnosis</text>
</a>
</g>
</g>
<!-- ScreeningSubset&#45;&gt;Exclusion1 -->
<g id="edge4" class="edge">
<title>ScreeningSubset&#45;&gt;Exclusion1</title>
<path fill="none" stroke="blue" d="M1025.87,-703.31C863.7,-690.74 574.11,-667.71 326.59,-645 311.98,-643.66 296.66,-642.19 281.47,-640.7"/>
<polygon fill="blue" stroke="blue" points="281.81,-637.22 271.52,-639.72 281.13,-644.19 281.81,-637.22"/>
<text text-anchor="middle" x="694.59" y="-666.8" font-family="Times,serif" font-size="14.00" fill="blue">if</text>
</g>
<!-- Exclusion2 -->
<g id="node6" class="node">
<title>Exclusion2</title>
<g id="a_node6"><a xlink:title="Individuals with pre&#45;existing neurological conditions that may confound the assessment of concussion symptoms.">
<ellipse fill="none" stroke="blue" cx="567.59" cy="-627" rx="232.06" ry="18"/>
<text text-anchor="middle" x="567.59" y="-623.3" font-family="Times,serif" font-size="14.00" fill="blue">Exclusion: Pre&#45;existing Neurological Conditions</text>
</a>
</g>
</g>
<!-- ScreeningSubset&#45;&gt;Exclusion2 -->
<g id="edge5" class="edge">
<title>ScreeningSubset&#45;&gt;Exclusion2</title>
<path fill="none" stroke="blue" d="M1035.26,-695.95C932.29,-680.99 783.46,-659.37 681.51,-644.55"/>
<polygon fill="blue" stroke="blue" points="681.89,-641.07 671.49,-643.1 680.88,-648 681.89,-641.07"/>
<text text-anchor="middle" x="900.59" y="-666.8" font-family="Times,serif" font-size="14.00" fill="blue">if</text>
</g>
<!-- Exclusion3 -->
<g id="node7" class="node">
<title>Exclusion3</title>
<g id="a_node7"><a xlink:title="Individuals who have sustained a concussion outside of sports activities.">
<ellipse fill="none" stroke="blue" cx="987.59" cy="-627" rx="169.77" ry="18"/>
<text text-anchor="middle" x="987.59" y="-623.3" font-family="Times,serif" font-size="14.00" fill="blue">Exclusion: Non&#45;Sports Concussion</text>
</a>
</g>
</g>
<!-- ScreeningSubset&#45;&gt;Exclusion3 -->
<g id="edge6" class="edge">
<title>ScreeningSubset&#45;&gt;Exclusion3</title>
<path fill="none" stroke="blue" d="M1119.2,-695.8C1093.22,-682.42 1057.04,-663.78 1029.18,-649.43"/>
<polygon fill="blue" stroke="blue" points="1030.58,-646.21 1020.08,-644.74 1027.37,-652.43 1030.58,-646.21"/>
<text text-anchor="middle" x="1085.59" y="-666.8" font-family="Times,serif" font-size="14.00" fill="blue">if</text>
</g>
<!-- Exclusion4 -->
<g id="node8" class="node">
<title>Exclusion4</title>
<g id="a_node8"><a xlink:title="Individuals who are unable to participate in the return&#45;to&#45;play protocol due to other medical or physical limitations.">
<ellipse fill="none" stroke="blue" cx="1318.59" cy="-627" rx="143.77" ry="18"/>
<text text-anchor="middle" x="1318.59" y="-623.3" font-family="Times,serif" font-size="14.00" fill="blue">Exclusion: Other Limitations</text>
</a>
</g>
</g>
<!-- ScreeningSubset&#45;&gt;Exclusion4 -->
<g id="edge7" class="edge">
<title>ScreeningSubset&#45;&gt;Exclusion4</title>
<path fill="none" stroke="blue" d="M1186.18,-695.8C1212.39,-682.38 1248.95,-663.66 1277.01,-649.29"/>
<polygon fill="blue" stroke="blue" points="1278.87,-652.27 1286.17,-644.6 1275.68,-646.04 1278.87,-652.27"/>
<text text-anchor="middle" x="1250.59" y="-666.8" font-family="Times,serif" font-size="14.00" fill="blue">if</text>
</g>
<!-- InitialEval -->
<g id="node9" class="node">
<title>InitialEval</title>
<g id="a_node9"><a xlink:title="Initial medical evaluation by a healthcare professional to confirm the diagnosis of concussion.">
<ellipse fill="none" stroke="blue" cx="1610.59" cy="-627" rx="129.98" ry="18"/>
<text text-anchor="middle" x="1610.59" y="-623.3" font-family="Times,serif" font-size="14.00" fill="blue">Initial Medical Evaluation</text>
</a>
</g>
</g>
<!-- ScreeningSubset&#45;&gt;InitialEval -->
<g id="edge8" class="edge">
<title>ScreeningSubset&#45;&gt;InitialEval</title>
<path fill="none" stroke="blue" d="M1244.44,-695.95C1326.71,-680.68 1446.35,-658.48 1526.24,-643.65"/>
<polygon fill="blue" stroke="blue" points="1527.07,-647.06 1536.26,-641.79 1525.79,-640.18 1527.07,-647.06"/>
<text text-anchor="middle" x="1414.59" y="-666.8" font-family="Times,serif" font-size="14.00" fill="blue">if</text>
</g>
<!-- SymptomPresence -->
<g id="node4" class="node">
<title>SymptomPresence</title>
<g id="a_node4"><a xlink:title="Presence of symptoms consistent with a concussion, such as headache, dizziness, confusion, or loss of consciousness, following a sports&#45;related incident.">
<ellipse fill="none" stroke="blue" cx="1152.59" cy="-801" rx="100.98" ry="18"/>
<text text-anchor="middle" x="1152.59" y="-797.3" font-family="Times,serif" font-size="14.00" fill="blue">Symptom Presence</text>
</a>
</g>
</g>
<!-- MedEval&#45;&gt;SymptomPresence -->
<g id="edge2" class="edge">
<title>MedEval&#45;&gt;SymptomPresence</title>
<path fill="none" stroke="blue" d="M1152.59,-869.8C1152.59,-858.16 1152.59,-842.55 1152.59,-829.24"/>
<polygon fill="blue" stroke="blue" points="1156.09,-829.18 1152.59,-819.18 1149.09,-829.18 1156.09,-829.18"/>
<text text-anchor="middle" x="1166.09" y="-840.8" font-family="Times,serif" font-size="14.00" fill="blue">and</text>
</g>
<!-- SymptomPresence&#45;&gt;ScreeningSubset -->
<g id="edge3" class="edge">
<title>SymptomPresence&#45;&gt;ScreeningSubset</title>
<path fill="none" stroke="blue" d="M1152.59,-782.8C1152.59,-771.16 1152.59,-755.55 1152.59,-742.24"/>
<polygon fill="blue" stroke="blue" points="1156.09,-742.18 1152.59,-732.18 1149.09,-742.18 1156.09,-742.18"/>
<text text-anchor="middle" x="1169.09" y="-753.8" font-family="Times,serif" font-size="14.00" fill="blue">then</text>
</g>
<!-- NeurocogTest -->
<g id="node10" class="node">
<title>NeurocogTest</title>
<g id="a_node10"><a xlink:title="Neurocognitive testing to assess cognitive function and identify any deficits resulting from the concussion.">
<ellipse fill="none" stroke="blue" cx="1606.59" cy="-540" rx="118.88" ry="18"/>
<text text-anchor="middle" x="1606.59" y="-536.3" font-family="Times,serif" font-size="14.00" fill="blue">Neurocognitive Testing</text>
</a>
</g>
</g>
<!-- InitialEval&#45;&gt;NeurocogTest -->
<g id="edge9" class="edge">
<title>InitialEval&#45;&gt;NeurocogTest</title>
<path fill="none" stroke="blue" d="M1609.78,-608.8C1609.23,-597.16 1608.49,-581.55 1607.87,-568.24"/>
<polygon fill="blue" stroke="blue" points="1611.36,-568 1607.39,-558.18 1604.37,-568.33 1611.36,-568"/>
<text text-anchor="middle" x="1623.09" y="-579.8" font-family="Times,serif" font-size="14.00" fill="blue">and</text>
</g>
<!-- SymptomAssess -->
<g id="node11" class="node">
<title>SymptomAssess</title>
<g id="a_node11"><a xlink:title="Symptom assessment using standardized concussion symptom scales.">
<ellipse fill="none" stroke="blue" cx="1589.59" cy="-453" rx="113.18" ry="18"/>
<text text-anchor="middle" x="1589.59" y="-449.3" font-family="Times,serif" font-size="14.00" fill="blue">Symptom Assessment</text>
</a>
</g>
</g>
<!-- NeurocogTest&#45;&gt;SymptomAssess -->
<g id="edge10" class="edge">
<title>NeurocogTest&#45;&gt;SymptomAssess</title>
<path fill="none" stroke="blue" d="M1603.15,-521.8C1600.82,-510.16 1597.7,-494.55 1595.03,-481.24"/>
<polygon fill="blue" stroke="blue" points="1598.41,-480.29 1593.02,-471.18 1591.55,-481.67 1598.41,-480.29"/>
<text text-anchor="middle" x="1613.09" y="-492.8" font-family="Times,serif" font-size="14.00" fill="blue">and</text>
</g>
<!-- BalanceTest -->
<g id="node12" class="node">
<title>BalanceTest</title>
<g id="a_node12"><a xlink:title="Balance and coordination testing to evaluate any impairments related to the concussion.">
<ellipse fill="none" stroke="blue" cx="1565.59" cy="-366" rx="167.07" ry="18"/>
<text text-anchor="middle" x="1565.59" y="-362.3" font-family="Times,serif" font-size="14.00" fill="blue">Balance and Coordination Testing</text>
</a>
</g>
</g>
<!-- SymptomAssess&#45;&gt;BalanceTest -->
<g id="edge11" class="edge">
<title>SymptomAssess&#45;&gt;BalanceTest</title>
<path fill="none" stroke="blue" d="M1584.73,-434.8C1581.41,-423.05 1576.95,-407.24 1573.16,-393.84"/>
<polygon fill="blue" stroke="blue" points="1576.52,-392.85 1570.44,-384.18 1569.78,-394.75 1576.52,-392.85"/>
<text text-anchor="middle" x="1593.09" y="-405.8" font-family="Times,serif" font-size="14.00" fill="blue">and</text>
</g>
<!-- SymptomFree -->
<g id="node13" class="node">
<title>SymptomFree</title>
<g id="a_node13"><a xlink:title="The individual must be symptom&#45;free at rest and during physical exertion.">
<ellipse fill="none" stroke="blue" cx="1550.59" cy="-279" rx="79.09" ry="18"/>
<text text-anchor="middle" x="1550.59" y="-275.3" font-family="Times,serif" font-size="14.00" fill="blue">Symptom&#45;Free</text>
</a>
</g>
</g>
<!-- BalanceTest&#45;&gt;SymptomFree -->
<g id="edge12" class="edge">
<title>BalanceTest&#45;&gt;SymptomFree</title>
<path fill="none" stroke="blue" d="M1562.55,-347.8C1560.5,-336.16 1557.74,-320.55 1555.39,-307.24"/>
<polygon fill="blue" stroke="blue" points="1558.8,-306.41 1553.62,-297.18 1551.91,-307.63 1558.8,-306.41"/>
<text text-anchor="middle" x="1573.09" y="-318.8" font-family="Times,serif" font-size="14.00" fill="blue">and</text>
</g>
<!-- BaselineReturn -->
<g id="node14" class="node">
<title>BaselineReturn</title>
<g id="a_node14"><a xlink:title="The individual must demonstrate a return to baseline neurocognitive function as determined by post&#45;injury testing compared to pre&#45;injury or normative data.">
<ellipse fill="none" stroke="blue" cx="1527.59" cy="-192" rx="215.56" ry="18"/>
<text text-anchor="middle" x="1527.59" y="-188.3" font-family="Times,serif" font-size="14.00" fill="blue">Return to Baseline Neurocognitive Function</text>
</a>
</g>
</g>
<!-- SymptomFree&#45;&gt;BaselineReturn -->
<g id="edge13" class="edge">
<title>SymptomFree&#45;&gt;BaselineReturn</title>
<path fill="none" stroke="blue" d="M1545.93,-260.8C1542.75,-249.05 1538.47,-233.24 1534.85,-219.84"/>
<polygon fill="blue" stroke="blue" points="1538.22,-218.91 1532.23,-210.18 1531.47,-220.74 1538.22,-218.91"/>
<text text-anchor="middle" x="1554.09" y="-231.8" font-family="Times,serif" font-size="14.00" fill="blue">and</text>
</g>
<!-- GradReturn -->
<g id="node15" class="node">
<title>GradReturn</title>
<g id="a_node15"><a xlink:title="The individual must successfully complete a graduated return&#45;to&#45;play protocol, which includes a series of steps with increasing levels of physical activity, without the return of concussion symptoms.">
<ellipse fill="none" stroke="blue" cx="1560.59" cy="-105" rx="171.67" ry="18"/>
<text text-anchor="middle" x="1560.59" y="-101.3" font-family="Times,serif" font-size="14.00" fill="blue">Graduated Return&#45;to&#45;Play Protocol</text>
</a>
</g>
</g>
<!-- BaselineReturn&#45;&gt;GradReturn -->
<g id="edge14" class="edge">
<title>BaselineReturn&#45;&gt;GradReturn</title>
<path fill="none" stroke="blue" d="M1534.26,-173.8C1538.83,-162.05 1544.96,-146.24 1550.16,-132.84"/>
<polygon fill="blue" stroke="blue" points="1553.56,-133.76 1553.92,-123.18 1547.04,-131.23 1553.56,-133.76"/>
<text text-anchor="middle" x="1560.09" y="-144.8" font-family="Times,serif" font-size="14.00" fill="blue">and</text>
</g>
<!-- FinalClearance -->
<g id="node16" class="node">
<title>FinalClearance</title>
<g id="a_node16"><a xlink:title="Final clearance by a healthcare professional, confirming that the individual is fit to resume full sports participation without restrictions.">
<ellipse fill="none" stroke="blue" cx="1666.59" cy="-18" rx="83.39" ry="18"/>
<text text-anchor="middle" x="1666.59" y="-14.3" font-family="Times,serif" font-size="14.00" fill="blue">Final Clearance</text>
</a>
</g>
</g>
<!-- GradReturn&#45;&gt;FinalClearance -->
<g id="edge15" class="edge">
<title>GradReturn&#45;&gt;FinalClearance</title>
<path fill="none" stroke="blue" d="M1581.78,-87C1597.77,-74.18 1619.9,-56.44 1637.53,-42.3"/>
<polygon fill="blue" stroke="blue" points="1640.18,-44.66 1645.79,-35.68 1635.8,-39.2 1640.18,-44.66"/>
<text text-anchor="middle" x="1634.09" y="-57.8" font-family="Times,serif" font-size="14.00" fill="blue">and</text>
</g>
<!-- FinalClearance&#45;&gt;ScreeningSubset -->
<g id="edge16" class="edge">
<title>FinalClearance&#45;&gt;ScreeningSubset</title>
<path fill="none" stroke="blue" d="M1708.08,-33.63C1737.43,-46.93 1771.59,-69.76 1771.59,-104 1771.59,-628 1771.59,-628 1771.59,-628 1771.59,-676.31 1471.88,-698.54 1289.56,-707.6"/>
<polygon fill="blue" stroke="blue" points="1289.16,-704.11 1279.34,-708.1 1289.5,-711.11 1289.16,-704.11"/>
<text text-anchor="middle" x="1788.09" y="-362.3" font-family="Times,serif" font-size="14.00" fill="blue">then</text>
</g>
</g>
</svg>
