<?xml version="1.0" encoding="UTF-8" standalone="no"?>
<!DOCTYPE svg PUBLIC "-//W3C//DTD SVG 1.1//EN"
 "http://www.w3.org/Graphics/SVG/1.1/DTD/svg11.dtd">
<!-- Generated by graphviz version 2.43.0 (0)
 -->
<!-- Title: %3 Pages: 1 -->
<svg width="224pt" height="566pt"
 viewBox="0.00 0.00 223.78 566.00" xmlns="http://www.w3.org/2000/svg" xmlns:xlink="http://www.w3.org/1999/xlink">
<g id="graph0" class="graph" transform="scale(1 1) rotate(0) translate(4 562)">
<title>%3</title>
<polygon fill="white" stroke="transparent" points="-4,4 -4,-562 219.78,-562 219.78,4 -4,4"/>
<!-- InitialPopulation -->
<g id="node1" class="node">
<title>InitialPopulation</title>
<g id="a_node1"><a xlink:title="The initial population includes all patients registered within the healthcare facility&#39;s electronic health record (EHR) system who have an active status and are eligible for scheduling appointments.">
<path fill="none" stroke="green" d="M165.39,-558C165.39,-558 50.39,-558 50.39,-558 44.39,-558 38.39,-552 38.39,-546 38.39,-546 38.39,-534 38.39,-534 38.39,-528 44.39,-522 50.39,-522 50.39,-522 165.39,-522 165.39,-522 171.39,-522 177.39,-528 177.39,-534 177.39,-534 177.39,-546 177.39,-546 177.39,-552 171.39,-558 165.39,-558"/>
<text text-anchor="middle" x="107.89" y="-536.3" font-family="Times,serif" font-size="14.00" fill="green">Initial Population</text>
</a>
</g>
</g>
<!-- SubsetConsideration -->
<g id="node2" class="node">
<title>SubsetConsideration</title>
<g id="a_node2"><a xlink:title="The subset in consideration consists of patients from the initial population who have requested an appointment or have been identified by healthcare providers as needing a follow&#45;up appointment within the next 30 days.">
<path fill="none" stroke="green" d="M189.89,-471C189.89,-471 25.89,-471 25.89,-471 19.89,-471 13.89,-465 13.89,-459 13.89,-459 13.89,-447 13.89,-447 13.89,-441 19.89,-435 25.89,-435 25.89,-435 189.89,-435 189.89,-435 195.89,-435 201.89,-441 201.89,-447 201.89,-447 201.89,-459 201.89,-459 201.89,-465 195.89,-471 189.89,-471"/>
<text text-anchor="middle" x="107.89" y="-449.3" font-family="Times,serif" font-size="14.00" fill="green">Subset in Consideration</text>
</a>
</g>
</g>
<!-- InitialPopulation&#45;&gt;SubsetConsideration -->
<g id="edge1" class="edge">
<title>InitialPopulation&#45;&gt;SubsetConsideration</title>
<path fill="none" stroke="blue" d="M107.89,-521.8C107.89,-510.16 107.89,-494.55 107.89,-481.24"/>
<polygon fill="blue" stroke="blue" points="111.39,-481.18 107.89,-471.18 104.39,-481.18 111.39,-481.18"/>
<text text-anchor="middle" x="112.89" y="-492.8" font-family="Times,serif" font-size="14.00" fill="blue">if</text>
</g>
<!-- InactiveDeceased -->
<g id="node3" class="node">
<title>InactiveDeceased</title>
<g id="a_node3"><a xlink:title="Patients who have been marked as inactive or deceased in the EHR system.">
<ellipse fill="none" stroke="blue" cx="107.89" cy="-366" rx="107.78" ry="18"/>
<text text-anchor="middle" x="107.89" y="-362.3" font-family="Times,serif" font-size="14.00" fill="blue">Inactive or Deceased</text>
</a>
</g>
</g>
<!-- SubsetConsideration&#45;&gt;InactiveDeceased -->
<g id="edge2" class="edge">
<title>SubsetConsideration&#45;&gt;InactiveDeceased</title>
<path fill="none" stroke="blue" d="M107.89,-434.8C107.89,-423.16 107.89,-407.55 107.89,-394.24"/>
<polygon fill="blue" stroke="blue" points="111.39,-394.18 107.89,-384.18 104.39,-394.18 111.39,-394.18"/>
<text text-anchor="middle" x="121.39" y="-405.8" font-family="Times,serif" font-size="14.00" fill="blue">and</text>
</g>
<!-- OptedOut -->
<g id="node4" class="node">
<title>OptedOut</title>
<g id="a_node4"><a xlink:title="Patients who have explicitly opted out of receiving appointment scheduling services.">
<ellipse fill="none" stroke="blue" cx="107.89" cy="-279" rx="59.29" ry="18"/>
<text text-anchor="middle" x="107.89" y="-275.3" font-family="Times,serif" font-size="14.00" fill="blue">Opted Out</text>
</a>
</g>
</g>
<!-- InactiveDeceased&#45;&gt;OptedOut -->
<g id="edge3" class="edge">
<title>InactiveDeceased&#45;&gt;OptedOut</title>
<path fill="none" stroke="blue" d="M107.89,-347.8C107.89,-336.16 107.89,-320.55 107.89,-307.24"/>
<polygon fill="blue" stroke="blue" points="111.39,-307.18 107.89,-297.18 104.39,-307.18 111.39,-307.18"/>
<text text-anchor="middle" x="121.39" y="-318.8" font-family="Times,serif" font-size="14.00" fill="blue">and</text>
</g>
<!-- OutstandingBalance -->
<g id="node5" class="node">
<title>OutstandingBalance</title>
<g id="a_node5"><a xlink:title="Patients who have an outstanding balance that exceeds the threshold defined by the facility&#39;s billing policy, unless a payment plan is in place.">
<ellipse fill="none" stroke="blue" cx="107.89" cy="-192" rx="107.78" ry="18"/>
<text text-anchor="middle" x="107.89" y="-188.3" font-family="Times,serif" font-size="14.00" fill="blue">Outstanding Balance</text>
</a>
</g>
</g>
<!-- OptedOut&#45;&gt;OutstandingBalance -->
<g id="edge4" class="edge">
<title>OptedOut&#45;&gt;OutstandingBalance</title>
<path fill="none" stroke="blue" d="M107.89,-260.8C107.89,-249.16 107.89,-233.55 107.89,-220.24"/>
<polygon fill="blue" stroke="blue" points="111.39,-220.18 107.89,-210.18 104.39,-220.18 111.39,-220.18"/>
<text text-anchor="middle" x="121.39" y="-231.8" font-family="Times,serif" font-size="14.00" fill="blue">and</text>
</g>
<!-- NonCompliance -->
<g id="node6" class="node">
<title>NonCompliance</title>
<g id="a_node6"><a xlink:title="Patients who have been flagged for non&#45;compliance with previous appointment attendance without valid reasons.">
<ellipse fill="none" stroke="blue" cx="107.89" cy="-105" rx="87.18" ry="18"/>
<text text-anchor="middle" x="107.89" y="-101.3" font-family="Times,serif" font-size="14.00" fill="blue">Non&#45;Compliance</text>
</a>
</g>
</g>
<!-- OutstandingBalance&#45;&gt;NonCompliance -->
<g id="edge5" class="edge">
<title>OutstandingBalance&#45;&gt;NonCompliance</title>
<path fill="none" stroke="blue" d="M107.89,-173.8C107.89,-162.16 107.89,-146.55 107.89,-133.24"/>
<polygon fill="blue" stroke="blue" points="111.39,-133.18 107.89,-123.18 104.39,-133.18 111.39,-133.18"/>
<text text-anchor="middle" x="121.39" y="-144.8" font-family="Times,serif" font-size="14.00" fill="blue">and</text>
</g>
<!-- EligiblePatients -->
<g id="node7" class="node">
<title>EligiblePatients</title>
<g id="a_node7"><a xlink:title="Eligible patients will be contacted to schedule an appointment.">
<path fill="none" stroke="green" d="M162.89,-36C162.89,-36 52.89,-36 52.89,-36 46.89,-36 40.89,-30 40.89,-24 40.89,-24 40.89,-12 40.89,-12 40.89,-6 46.89,0 52.89,0 52.89,0 162.89,0 162.89,0 168.89,0 174.89,-6 174.89,-12 174.89,-12 174.89,-24 174.89,-24 174.89,-30 168.89,-36 162.89,-36"/>
<text text-anchor="middle" x="107.89" y="-14.3" font-family="Times,serif" font-size="14.00" fill="green">Eligible Patients</text>
</a>
</g>
</g>
<!-- NonCompliance&#45;&gt;EligiblePatients -->
<g id="edge6" class="edge">
<title>NonCompliance&#45;&gt;EligiblePatients</title>
<path fill="none" stroke="blue" d="M107.89,-86.8C107.89,-75.16 107.89,-59.55 107.89,-46.24"/>
<polygon fill="blue" stroke="blue" points="111.39,-46.18 107.89,-36.18 104.39,-46.18 111.39,-46.18"/>
<text text-anchor="middle" x="124.39" y="-57.8" font-family="Times,serif" font-size="14.00" fill="blue">then</text>
</g>
</g>
</svg>
