<?xml version="1.0" encoding="UTF-8" standalone="no"?>
<!DOCTYPE svg PUBLIC "-//W3C//DTD SVG 1.1//EN"
 "http://www.w3.org/Graphics/SVG/1.1/DTD/svg11.dtd">
<!-- Generated by graphviz version 2.43.0 (0)
 -->
<!-- Title: ReturnToPlayProtocol Pages: 1 -->
<svg width="398pt" height="1697pt"
 viewBox="0.00 0.00 397.97 1697.00" xmlns="http://www.w3.org/2000/svg" xmlns:xlink="http://www.w3.org/1999/xlink">
<g id="graph0" class="graph" transform="scale(1 1) rotate(0) translate(4 1693)">
<title>ReturnToPlayProtocol</title>
<polygon fill="white" stroke="transparent" points="-4,4 -4,-1693 393.97,-1693 393.97,4 -4,4"/>
<!-- InitialPopulation -->
<g id="node1" class="node">
<title>InitialPopulation</title>
<g id="a_node1"><a xlink:title="The initial population includes all individuals who have participated in sports activities and have been diagnosed with a concussion.">
<path fill="none" stroke="green" d="M252.48,-1689C252.48,-1689 137.48,-1689 137.48,-1689 131.48,-1689 125.48,-1683 125.48,-1677 125.48,-1677 125.48,-1665 125.48,-1665 125.48,-1659 131.48,-1653 137.48,-1653 137.48,-1653 252.48,-1653 252.48,-1653 258.48,-1653 264.48,-1659 264.48,-1665 264.48,-1665 264.48,-1677 264.48,-1677 264.48,-1683 258.48,-1689 252.48,-1689"/>
<text text-anchor="middle" x="194.98" y="-1667.3" font-family="Times,serif" font-size="14.00" fill="green">Initial Population</text>
</a>
</g>
</g>
<!-- SubsetScreening -->
<g id="node2" class="node">
<title>SubsetScreening</title>
<g id="a_node2"><a xlink:title="The subset considered for screening includes individuals from the initial population who meet specific criteria.">
<path fill="none" stroke="green" d="M309.48,-1602C309.48,-1602 80.48,-1602 80.48,-1602 74.48,-1602 68.48,-1596 68.48,-1590 68.48,-1590 68.48,-1578 68.48,-1578 68.48,-1572 74.48,-1566 80.48,-1566 80.48,-1566 309.48,-1566 309.48,-1566 315.48,-1566 321.48,-1572 321.48,-1578 321.48,-1578 321.48,-1590 321.48,-1590 321.48,-1596 315.48,-1602 309.48,-1602"/>
<text text-anchor="middle" x="194.98" y="-1580.3" font-family="Times,serif" font-size="14.00" fill="green">Subset Considered for Screening</text>
</a>
</g>
</g>
<!-- InitialPopulation&#45;&gt;SubsetScreening -->
<g id="edge1" class="edge">
<title>InitialPopulation&#45;&gt;SubsetScreening</title>
<path fill="none" stroke="blue" d="M194.98,-1652.8C194.98,-1641.16 194.98,-1625.55 194.98,-1612.24"/>
<polygon fill="blue" stroke="blue" points="198.48,-1612.18 194.98,-1602.18 191.48,-1612.18 198.48,-1612.18"/>
<text text-anchor="middle" x="199.98" y="-1623.8" font-family="Times,serif" font-size="14.00" fill="blue">if</text>
</g>
<!-- C1 -->
<g id="node6" class="node">
<title>C1</title>
<g id="a_node6"><a xlink:title="Have been diagnosed with a concussion by a qualified healthcare professional.">
<ellipse fill="none" stroke="blue" cx="194.98" cy="-1497" rx="187.67" ry="18"/>
<text text-anchor="middle" x="194.98" y="-1493.3" font-family="Times,serif" font-size="14.00" fill="blue">Diagnosed by Healthcare Professional</text>
</a>
</g>
</g>
<!-- SubsetScreening&#45;&gt;C1 -->
<g id="edge2" class="edge">
<title>SubsetScreening&#45;&gt;C1</title>
<path fill="none" stroke="blue" d="M194.98,-1565.8C194.98,-1554.16 194.98,-1538.55 194.98,-1525.24"/>
<polygon fill="blue" stroke="blue" points="198.48,-1525.18 194.98,-1515.18 191.48,-1525.18 198.48,-1525.18"/>
<text text-anchor="middle" x="199.98" y="-1536.8" font-family="Times,serif" font-size="14.00" fill="blue">if</text>
</g>
<!-- ExclusionCriteria -->
<g id="node3" class="node">
<title>ExclusionCriteria</title>
<g id="a_node3"><a xlink:title="Individuals from the subset will be excluded from the screening if they meet any of the specified criteria.">
<path fill="none" stroke="green" d="M255.98,-1254C255.98,-1254 133.98,-1254 133.98,-1254 127.98,-1254 121.98,-1248 121.98,-1242 121.98,-1242 121.98,-1230 121.98,-1230 121.98,-1224 127.98,-1218 133.98,-1218 133.98,-1218 255.98,-1218 255.98,-1218 261.98,-1218 267.98,-1224 267.98,-1230 267.98,-1230 267.98,-1242 267.98,-1242 267.98,-1248 261.98,-1254 255.98,-1254"/>
<text text-anchor="middle" x="194.98" y="-1232.3" font-family="Times,serif" font-size="14.00" fill="green">Exclusion Criteria</text>
</a>
</g>
</g>
<!-- E1 -->
<g id="node9" class="node">
<title>E1</title>
<g id="a_node9"><a xlink:title="Have not been cleared by a healthcare professional to begin the return&#45;to&#45;play protocol.">
<ellipse fill="none" stroke="blue" cx="194.98" cy="-1149" rx="194.97" ry="18"/>
<text text-anchor="middle" x="194.98" y="-1145.3" font-family="Times,serif" font-size="14.00" fill="blue">Not Cleared by Healthcare Professional</text>
</a>
</g>
</g>
<!-- ExclusionCriteria&#45;&gt;E1 -->
<g id="edge6" class="edge">
<title>ExclusionCriteria&#45;&gt;E1</title>
<path fill="none" stroke="blue" d="M194.98,-1217.8C194.98,-1206.16 194.98,-1190.55 194.98,-1177.24"/>
<polygon fill="blue" stroke="blue" points="198.48,-1177.18 194.98,-1167.18 191.48,-1177.18 198.48,-1177.18"/>
<text text-anchor="middle" x="199.98" y="-1188.8" font-family="Times,serif" font-size="14.00" fill="blue">if</text>
</g>
<!-- DiagnosticInterventions -->
<g id="node4" class="node">
<title>DiagnosticInterventions</title>
<g id="a_node4"><a xlink:title="The diagnostic interventions for the return&#45;to&#45;play protocol include specific assessments and evaluations.">
<path fill="none" stroke="green" d="M279.48,-819C279.48,-819 110.48,-819 110.48,-819 104.48,-819 98.48,-813 98.48,-807 98.48,-807 98.48,-795 98.48,-795 98.48,-789 104.48,-783 110.48,-783 110.48,-783 279.48,-783 279.48,-783 285.48,-783 291.48,-789 291.48,-795 291.48,-795 291.48,-807 291.48,-807 291.48,-813 285.48,-819 279.48,-819"/>
<text text-anchor="middle" x="194.98" y="-797.3" font-family="Times,serif" font-size="14.00" fill="green">Diagnostic Interventions</text>
</a>
</g>
</g>
<!-- D1 -->
<g id="node13" class="node">
<title>D1</title>
<g id="a_node13"><a xlink:title="Baseline cognitive and physical assessments to establish the individual&#39;s pre&#45;concussion status.">
<ellipse fill="none" stroke="blue" cx="194.98" cy="-714" rx="113.18" ry="18"/>
<text text-anchor="middle" x="194.98" y="-710.3" font-family="Times,serif" font-size="14.00" fill="blue">Baseline Assessments</text>
</a>
</g>
</g>
<!-- DiagnosticInterventions&#45;&gt;D1 -->
<g id="edge11" class="edge">
<title>DiagnosticInterventions&#45;&gt;D1</title>
<path fill="none" stroke="blue" d="M194.98,-782.8C194.98,-771.16 194.98,-755.55 194.98,-742.24"/>
<polygon fill="blue" stroke="blue" points="198.48,-742.18 194.98,-732.18 191.48,-742.18 198.48,-742.18"/>
<text text-anchor="middle" x="199.98" y="-753.8" font-family="Times,serif" font-size="14.00" fill="blue">if</text>
</g>
<!-- SuccessfulScreen -->
<g id="node5" class="node">
<title>SuccessfulScreen</title>
<g id="a_node5"><a xlink:title="A successful screen is defined by specific conditions being met.">
<path fill="none" stroke="green" d="M255.98,-384C255.98,-384 133.98,-384 133.98,-384 127.98,-384 121.98,-378 121.98,-372 121.98,-372 121.98,-360 121.98,-360 121.98,-354 127.98,-348 133.98,-348 133.98,-348 255.98,-348 255.98,-348 261.98,-348 267.98,-354 267.98,-360 267.98,-360 267.98,-372 267.98,-372 267.98,-378 261.98,-384 255.98,-384"/>
<text text-anchor="middle" x="194.98" y="-362.3" font-family="Times,serif" font-size="14.00" fill="green">Successful Screen</text>
</a>
</g>
</g>
<!-- S1 -->
<g id="node17" class="node">
<title>S1</title>
<g id="a_node17"><a xlink:title="The individual remains symptom&#45;free at each stage of the return&#45;to&#45;play protocol.">
<ellipse fill="none" stroke="blue" cx="194.98" cy="-279" rx="147.57" ry="18"/>
<text text-anchor="middle" x="194.98" y="-275.3" font-family="Times,serif" font-size="14.00" fill="blue">Symptom&#45;Free at Each Stage</text>
</a>
</g>
</g>
<!-- SuccessfulScreen&#45;&gt;S1 -->
<g id="edge16" class="edge">
<title>SuccessfulScreen&#45;&gt;S1</title>
<path fill="none" stroke="blue" d="M194.98,-347.8C194.98,-336.16 194.98,-320.55 194.98,-307.24"/>
<polygon fill="blue" stroke="blue" points="198.48,-307.18 194.98,-297.18 191.48,-307.18 198.48,-307.18"/>
<text text-anchor="middle" x="199.98" y="-318.8" font-family="Times,serif" font-size="14.00" fill="blue">if</text>
</g>
<!-- C2 -->
<g id="node7" class="node">
<title>C2</title>
<g id="a_node7"><a xlink:title="Are currently under the care of a healthcare provider who is responsible for managing their concussion recovery.">
<ellipse fill="none" stroke="blue" cx="194.98" cy="-1410" rx="173.57" ry="18"/>
<text text-anchor="middle" x="194.98" y="-1406.3" font-family="Times,serif" font-size="14.00" fill="blue">Under Care of Healthcare Provider</text>
</a>
</g>
</g>
<!-- C1&#45;&gt;C2 -->
<g id="edge3" class="edge">
<title>C1&#45;&gt;C2</title>
<path fill="none" stroke="blue" d="M194.98,-1478.8C194.98,-1467.16 194.98,-1451.55 194.98,-1438.24"/>
<polygon fill="blue" stroke="blue" points="198.48,-1438.18 194.98,-1428.18 191.48,-1438.18 198.48,-1438.18"/>
<text text-anchor="middle" x="208.48" y="-1449.8" font-family="Times,serif" font-size="14.00" fill="blue">and</text>
</g>
<!-- C3 -->
<g id="node8" class="node">
<title>C3</title>
<g id="a_node8"><a xlink:title="Have completed an initial period of physical and cognitive rest as recommended by their healthcare provider.">
<ellipse fill="none" stroke="blue" cx="194.98" cy="-1323" rx="115.08" ry="18"/>
<text text-anchor="middle" x="194.98" y="-1319.3" font-family="Times,serif" font-size="14.00" fill="blue">Completed Initial Rest</text>
</a>
</g>
</g>
<!-- C2&#45;&gt;C3 -->
<g id="edge4" class="edge">
<title>C2&#45;&gt;C3</title>
<path fill="none" stroke="blue" d="M194.98,-1391.8C194.98,-1380.16 194.98,-1364.55 194.98,-1351.24"/>
<polygon fill="blue" stroke="blue" points="198.48,-1351.18 194.98,-1341.18 191.48,-1351.18 198.48,-1351.18"/>
<text text-anchor="middle" x="208.48" y="-1362.8" font-family="Times,serif" font-size="14.00" fill="blue">and</text>
</g>
<!-- C3&#45;&gt;ExclusionCriteria -->
<g id="edge5" class="edge">
<title>C3&#45;&gt;ExclusionCriteria</title>
<path fill="none" stroke="blue" d="M194.98,-1304.8C194.98,-1293.16 194.98,-1277.55 194.98,-1264.24"/>
<polygon fill="blue" stroke="blue" points="198.48,-1264.18 194.98,-1254.18 191.48,-1264.18 198.48,-1264.18"/>
<text text-anchor="middle" x="211.48" y="-1275.8" font-family="Times,serif" font-size="14.00" fill="blue">then</text>
</g>
<!-- E2 -->
<g id="node10" class="node">
<title>E2</title>
<g id="a_node10"><a xlink:title="Exhibit ongoing symptoms of concussion, such as headaches, dizziness, or cognitive impairment, that have not improved with rest.">
<ellipse fill="none" stroke="blue" cx="194.98" cy="-1062" rx="102.08" ry="18"/>
<text text-anchor="middle" x="194.98" y="-1058.3" font-family="Times,serif" font-size="14.00" fill="blue">Ongoing Symptoms</text>
</a>
</g>
</g>
<!-- E1&#45;&gt;E2 -->
<g id="edge7" class="edge">
<title>E1&#45;&gt;E2</title>
<path fill="none" stroke="blue" d="M194.98,-1130.8C194.98,-1119.16 194.98,-1103.55 194.98,-1090.24"/>
<polygon fill="blue" stroke="blue" points="198.48,-1090.18 194.98,-1080.18 191.48,-1090.18 198.48,-1090.18"/>
<text text-anchor="middle" x="202.98" y="-1101.8" font-family="Times,serif" font-size="14.00" fill="blue">or</text>
</g>
<!-- E3 -->
<g id="node11" class="node">
<title>E3</title>
<g id="a_node11"><a xlink:title="Have a history of multiple concussions or other neurological conditions that may complicate recovery.">
<ellipse fill="none" stroke="blue" cx="194.98" cy="-975" rx="159.47" ry="18"/>
<text text-anchor="middle" x="194.98" y="-971.3" font-family="Times,serif" font-size="14.00" fill="blue">History of Multiple Concussions</text>
</a>
</g>
</g>
<!-- E2&#45;&gt;E3 -->
<g id="edge8" class="edge">
<title>E2&#45;&gt;E3</title>
<path fill="none" stroke="blue" d="M194.98,-1043.8C194.98,-1032.16 194.98,-1016.55 194.98,-1003.24"/>
<polygon fill="blue" stroke="blue" points="198.48,-1003.18 194.98,-993.18 191.48,-1003.18 198.48,-1003.18"/>
<text text-anchor="middle" x="202.98" y="-1014.8" font-family="Times,serif" font-size="14.00" fill="blue">or</text>
</g>
<!-- E4 -->
<g id="node12" class="node">
<title>E4</title>
<g id="a_node12"><a xlink:title="Are under the age of 18 and have not received parental or guardian consent to participate in the return&#45;to&#45;play protocol.">
<ellipse fill="none" stroke="blue" cx="194.98" cy="-888" rx="135.68" ry="18"/>
<text text-anchor="middle" x="194.98" y="-884.3" font-family="Times,serif" font-size="14.00" fill="blue">Under 18 Without Consent</text>
</a>
</g>
</g>
<!-- E3&#45;&gt;E4 -->
<g id="edge9" class="edge">
<title>E3&#45;&gt;E4</title>
<path fill="none" stroke="blue" d="M194.98,-956.8C194.98,-945.16 194.98,-929.55 194.98,-916.24"/>
<polygon fill="blue" stroke="blue" points="198.48,-916.18 194.98,-906.18 191.48,-916.18 198.48,-916.18"/>
<text text-anchor="middle" x="202.98" y="-927.8" font-family="Times,serif" font-size="14.00" fill="blue">or</text>
</g>
<!-- E4&#45;&gt;DiagnosticInterventions -->
<g id="edge10" class="edge">
<title>E4&#45;&gt;DiagnosticInterventions</title>
<path fill="none" stroke="blue" d="M194.98,-869.8C194.98,-858.16 194.98,-842.55 194.98,-829.24"/>
<polygon fill="blue" stroke="blue" points="198.48,-829.18 194.98,-819.18 191.48,-829.18 198.48,-829.18"/>
<text text-anchor="middle" x="211.48" y="-840.8" font-family="Times,serif" font-size="14.00" fill="blue">then</text>
</g>
<!-- D2 -->
<g id="node14" class="node">
<title>D2</title>
<g id="a_node14"><a xlink:title="Regular monitoring of symptoms using standardized concussion assessment tools, such as the SCAT5.">
<ellipse fill="none" stroke="blue" cx="194.98" cy="-627" rx="149.47" ry="18"/>
<text text-anchor="middle" x="194.98" y="-623.3" font-family="Times,serif" font-size="14.00" fill="blue">Regular Symptom Monitoring</text>
</a>
</g>
</g>
<!-- D1&#45;&gt;D2 -->
<g id="edge12" class="edge">
<title>D1&#45;&gt;D2</title>
<path fill="none" stroke="blue" d="M194.98,-695.8C194.98,-684.16 194.98,-668.55 194.98,-655.24"/>
<polygon fill="blue" stroke="blue" points="198.48,-655.18 194.98,-645.18 191.48,-655.18 198.48,-655.18"/>
<text text-anchor="middle" x="208.48" y="-666.8" font-family="Times,serif" font-size="14.00" fill="blue">and</text>
</g>
<!-- D3 -->
<g id="node15" class="node">
<title>D3</title>
<g id="a_node15"><a xlink:title="Gradual, stepwise increase in physical activity, starting with light aerobic exercise and progressing to sport&#45;specific drills, non&#45;contact training, and full&#45;contact practice, as tolerated.">
<ellipse fill="none" stroke="blue" cx="194.98" cy="-540" rx="128.08" ry="18"/>
<text text-anchor="middle" x="194.98" y="-536.3" font-family="Times,serif" font-size="14.00" fill="blue">Gradual Physical Activity</text>
</a>
</g>
</g>
<!-- D2&#45;&gt;D3 -->
<g id="edge13" class="edge">
<title>D2&#45;&gt;D3</title>
<path fill="none" stroke="blue" d="M194.98,-608.8C194.98,-597.16 194.98,-581.55 194.98,-568.24"/>
<polygon fill="blue" stroke="blue" points="198.48,-568.18 194.98,-558.18 191.48,-568.18 198.48,-568.18"/>
<text text-anchor="middle" x="208.48" y="-579.8" font-family="Times,serif" font-size="14.00" fill="blue">and</text>
</g>
<!-- D4 -->
<g id="node16" class="node">
<title>D4</title>
<g id="a_node16"><a xlink:title="Continuous evaluation by a healthcare professional to assess symptom resolution and readiness to advance to the next stage of the protocol.">
<ellipse fill="none" stroke="blue" cx="194.98" cy="-453" rx="116.18" ry="18"/>
<text text-anchor="middle" x="194.98" y="-449.3" font-family="Times,serif" font-size="14.00" fill="blue">Continuous Evaluation</text>
</a>
</g>
</g>
<!-- D3&#45;&gt;D4 -->
<g id="edge14" class="edge">
<title>D3&#45;&gt;D4</title>
<path fill="none" stroke="blue" d="M194.98,-521.8C194.98,-510.16 194.98,-494.55 194.98,-481.24"/>
<polygon fill="blue" stroke="blue" points="198.48,-481.18 194.98,-471.18 191.48,-481.18 198.48,-481.18"/>
<text text-anchor="middle" x="208.48" y="-492.8" font-family="Times,serif" font-size="14.00" fill="blue">and</text>
</g>
<!-- D4&#45;&gt;SuccessfulScreen -->
<g id="edge15" class="edge">
<title>D4&#45;&gt;SuccessfulScreen</title>
<path fill="none" stroke="blue" d="M194.98,-434.8C194.98,-423.16 194.98,-407.55 194.98,-394.24"/>
<polygon fill="blue" stroke="blue" points="198.48,-394.18 194.98,-384.18 191.48,-394.18 198.48,-394.18"/>
<text text-anchor="middle" x="211.48" y="-405.8" font-family="Times,serif" font-size="14.00" fill="blue">then</text>
</g>
<!-- S2 -->
<g id="node18" class="node">
<title>S2</title>
<g id="a_node18"><a xlink:title="The individual demonstrates cognitive and physical performance at or above baseline levels.">
<ellipse fill="none" stroke="blue" cx="194.98" cy="-192" rx="168.17" ry="18"/>
<text text-anchor="middle" x="194.98" y="-188.3" font-family="Times,serif" font-size="14.00" fill="blue">Performance at or Above Baseline</text>
</a>
</g>
</g>
<!-- S1&#45;&gt;S2 -->
<g id="edge17" class="edge">
<title>S1&#45;&gt;S2</title>
<path fill="none" stroke="blue" d="M194.98,-260.8C194.98,-249.16 194.98,-233.55 194.98,-220.24"/>
<polygon fill="blue" stroke="blue" points="198.48,-220.18 194.98,-210.18 191.48,-220.18 198.48,-220.18"/>
<text text-anchor="middle" x="208.48" y="-231.8" font-family="Times,serif" font-size="14.00" fill="blue">and</text>
</g>
<!-- S3 -->
<g id="node19" class="node">
<title>S3</title>
<g id="a_node19"><a xlink:title="The individual receives medical clearance from a healthcare professional to return to full sports participation.">
<ellipse fill="none" stroke="blue" cx="194.98" cy="-105" rx="96.68" ry="18"/>
<text text-anchor="middle" x="194.98" y="-101.3" font-family="Times,serif" font-size="14.00" fill="blue">Medical Clearance</text>
</a>
</g>
</g>
<!-- S2&#45;&gt;S3 -->
<g id="edge18" class="edge">
<title>S2&#45;&gt;S3</title>
<path fill="none" stroke="blue" d="M194.98,-173.8C194.98,-162.16 194.98,-146.55 194.98,-133.24"/>
<polygon fill="blue" stroke="blue" points="198.48,-133.18 194.98,-123.18 191.48,-133.18 198.48,-133.18"/>
<text text-anchor="middle" x="208.48" y="-144.8" font-family="Times,serif" font-size="14.00" fill="blue">and</text>
</g>
<!-- S4 -->
<g id="node20" class="node">
<title>S4</title>
<g id="a_node20"><a xlink:title="The individual and, if applicable, their parent or guardian, understand the risks of returning to play and have been educated on the signs and symptoms of concussion.">
<ellipse fill="none" stroke="blue" cx="194.98" cy="-18" rx="120.48" ry="18"/>
<text text-anchor="middle" x="194.98" y="-14.3" font-family="Times,serif" font-size="14.00" fill="blue">Understanding of Risks</text>
</a>
</g>
</g>
<!-- S3&#45;&gt;S4 -->
<g id="edge19" class="edge">
<title>S3&#45;&gt;S4</title>
<path fill="none" stroke="blue" d="M194.98,-86.8C194.98,-75.16 194.98,-59.55 194.98,-46.24"/>
<polygon fill="blue" stroke="blue" points="198.48,-46.18 194.98,-36.18 191.48,-46.18 198.48,-46.18"/>
<text text-anchor="middle" x="208.48" y="-57.8" font-family="Times,serif" font-size="14.00" fill="blue">and</text>
</g>
</g>
</svg>
