<?xml version="1.0" encoding="UTF-8" standalone="no"?><!DOCTYPE svg PUBLIC "-//W3C//DTD SVG 1.1//EN" "http://www.w3.org/Graphics/SVG/1.1/DTD/svg11.dtd"><!-- Generated by graphviz version 2.40.1 (20161225.0304)
 --><!-- Title: HAPE Pages: 1 --><svg xmlns="http://www.w3.org/2000/svg" xmlns:xlink="http://www.w3.org/1999/xlink" width="1216pt" height="777pt" viewBox="0.00 0.00 1216.14 776.60">
<g id="graph0" class="graph" transform="scale(1 1) rotate(0) translate(4 772.6)">
<title>HAPE</title>
<polygon fill="#ffffff" stroke="transparent" points="-4,4 -4,-772.6 1212.1376,-772.6 1212.1376,4 -4,4"/>
<!-- Start -->
<g id="node1" class="node">
<title>Start</title>
<ellipse fill="none" stroke="#000000" cx="912.9664" cy="-750.6" rx="73.5513" ry="18"/>
<text text-anchor="middle" x="912.9664" y="-746.4" font-family="Times,serif" font-size="14.00" fill="#000000">Start Evaluation</text>
</g>
<!-- Assess_Risk -->
<g id="node2" class="node">
<title>Assess_Risk</title>
<polygon fill="none" stroke="#000000" points="991.4694,-695.4019 834.4634,-695.4019 834.4634,-654.1981 991.4694,-654.1981 991.4694,-695.4019"/>
<text text-anchor="middle" x="912.9664" y="-679" font-family="Times,serif" font-size="14.00" fill="#000000">Assess Risk Level</text>
<text text-anchor="middle" x="912.9664" y="-662.2" font-family="Times,serif" font-size="14.00" fill="#000000">(History, Rate of Ascent)</text>
</g>
<!-- Start&#45;&gt;Assess_Risk -->
<g id="edge1" class="edge">
<title>Start-&gt;Assess_Risk</title>
<path fill="none" stroke="#000000" d="M912.9664,-732.2509C912.9664,-724.315 912.9664,-714.8041 912.9664,-705.8258"/>
<polygon fill="#000000" stroke="#000000" points="916.4665,-705.6568 912.9664,-695.6568 909.4665,-705.6569 916.4665,-705.6568"/>
</g>
<!-- Symptoms_HAPE -->
<g id="node3" class="node">
<title>Symptoms_HAPE</title>
<polygon fill="none" stroke="#000000" points="912.9664,-601.3002 617.6239,-559.6 912.9664,-517.8998 1208.3089,-559.6 912.9664,-601.3002"/>
<text text-anchor="middle" x="912.9664" y="-563.8" font-family="Times,serif" font-size="14.00" fill="#000000">Symptoms of HAPE?</text>
<text text-anchor="middle" x="912.9664" y="-547" font-family="Times,serif" font-size="14.00" fill="#000000">(Dyspnea on Exertion, Cough, Fatigue, Cyanosis)</text>
</g>
<!-- Assess_Risk&#45;&gt;Symptoms_HAPE -->
<g id="edge2" class="edge">
<title>Assess_Risk-&gt;Symptoms_HAPE</title>
<path fill="none" stroke="#000000" d="M912.9664,-653.9381C912.9664,-642.0321 912.9664,-626.5319 912.9664,-611.547"/>
<polygon fill="#000000" stroke="#000000" points="916.4665,-611.3056 912.9664,-601.3056 909.4665,-611.3057 916.4665,-611.3056"/>
<text text-anchor="middle" x="923.8493" y="-623.4" font-family="Times,serif" font-size="14.00" fill="#000000">Yes</text>
</g>
<!-- HAPE_Diagnosis -->
<g id="node4" class="node">
<title>HAPE_Diagnosis</title>
<polygon fill="none" stroke="#000000" points="966.0299,-465.0019 663.9029,-465.0019 663.9029,-423.7981 966.0299,-423.7981 966.0299,-465.0019"/>
<text text-anchor="middle" x="814.9664" y="-448.6" font-family="Times,serif" font-size="14.00" fill="#000000">Diagnose HAPE</text>
<text text-anchor="middle" x="814.9664" y="-431.8" font-family="Times,serif" font-size="14.00" fill="#000000">(Clinical Symptoms, Pulse Oximetry, Chest X-ray)</text>
</g>
<!-- Symptoms_HAPE&#45;&gt;HAPE_Diagnosis -->
<g id="edge3" class="edge">
<title>Symptoms_HAPE-&gt;HAPE_Diagnosis</title>
<path fill="none" stroke="#000000" d="M881.1486,-522.1979C867.5675,-506.2331 851.97,-487.8981 839.3293,-473.0389"/>
<polygon fill="#000000" stroke="#000000" points="841.788,-470.5274 832.6425,-465.1785 836.4562,-475.0631 841.788,-470.5274"/>
<text text-anchor="middle" x="872.8493" y="-487.4" font-family="Times,serif" font-size="14.00" fill="#000000">Yes</text>
</g>
<!-- End -->
<g id="node15" class="node">
<title>End</title>
<ellipse fill="none" stroke="#000000" cx="1010.9664" cy="-444.4" rx="27" ry="18"/>
<text text-anchor="middle" x="1010.9664" y="-440.2" font-family="Times,serif" font-size="14.00" fill="#000000">End</text>
</g>
<!-- Symptoms_HAPE&#45;&gt;End -->
<g id="edge4" class="edge">
<title>Symptoms_HAPE-&gt;End</title>
<path fill="none" stroke="#000000" d="M944.7842,-522.1979C960.0141,-504.295 977.7795,-483.4115 991.0675,-467.7913"/>
<polygon fill="#000000" stroke="#000000" points="993.7573,-470.0311 997.571,-460.1464 988.4255,-465.4954 993.7573,-470.0311"/>
<text text-anchor="middle" x="984.5197" y="-487.4" font-family="Times,serif" font-size="14.00" fill="#000000">No</text>
</g>
<!-- HAPE_Severity -->
<g id="node5" class="node">
<title>HAPE_Severity</title>
<polygon fill="none" stroke="#000000" points="668.9664,-386.6 513.356,-368.6 668.9664,-350.6 824.5768,-368.6 668.9664,-386.6"/>
<text text-anchor="middle" x="668.9664" y="-364.4" font-family="Times,serif" font-size="14.00" fill="#000000">Assess Severity of HAPE</text>
</g>
<!-- HAPE_Diagnosis&#45;&gt;HAPE_Severity -->
<g id="edge5" class="edge">
<title>HAPE_Diagnosis-&gt;HAPE_Severity</title>
<path fill="none" stroke="#000000" d="M775.0713,-423.6873C753.7429,-412.6141 727.6313,-399.0575 706.6485,-388.1637"/>
<polygon fill="#000000" stroke="#000000" points="708.1903,-385.0206 697.7024,-383.5191 704.9648,-391.2332 708.1903,-385.0206"/>
</g>
<!-- Mild_HAPE -->
<g id="node6" class="node">
<title>Mild_HAPE</title>
<polygon fill="none" stroke="#000000" points="768.2002,-297.6019 569.7326,-297.6019 569.7326,-256.3981 768.2002,-256.3981 768.2002,-297.6019"/>
<text text-anchor="middle" x="668.9664" y="-281.2" font-family="Times,serif" font-size="14.00" fill="#000000">Mild HAPE</text>
<text text-anchor="middle" x="668.9664" y="-264.4" font-family="Times,serif" font-size="14.00" fill="#000000">(Monitor, Oxygen, Medications)</text>
</g>
<!-- HAPE_Severity&#45;&gt;Mild_HAPE -->
<g id="edge6" class="edge">
<title>HAPE_Severity-&gt;Mild_HAPE</title>
<path fill="none" stroke="#000000" d="M668.9664,-350.5028C668.9664,-338.3708 668.9664,-322.0846 668.9664,-307.926"/>
<polygon fill="#000000" stroke="#000000" points="672.4665,-307.6174 668.9664,-297.6175 665.4665,-307.6175 672.4665,-307.6174"/>
<text text-anchor="middle" x="682.5793" y="-320" font-family="Times,serif" font-size="14.00" fill="#000000">Mild</text>
</g>
<!-- Severe_HAPE -->
<g id="node7" class="node">
<title>Severe_HAPE</title>
<polygon fill="none" stroke="#000000" points="551.8992,-297.6019 354.0336,-297.6019 354.0336,-256.3981 551.8992,-256.3981 551.8992,-297.6019"/>
<text text-anchor="middle" x="452.9664" y="-281.2" font-family="Times,serif" font-size="14.00" fill="#000000">Severe HAPE</text>
<text text-anchor="middle" x="452.9664" y="-264.4" font-family="Times,serif" font-size="14.00" fill="#000000">(Descent, Oxygen, Medications)</text>
</g>
<!-- HAPE_Severity&#45;&gt;Severe_HAPE -->
<g id="edge7" class="edge">
<title>HAPE_Severity-&gt;Severe_HAPE</title>
<path fill="none" stroke="#000000" d="M635.2164,-354.2875C602.0429,-340.2195 550.7544,-318.4694 511.0269,-301.6219"/>
<polygon fill="#000000" stroke="#000000" points="512.2832,-298.3531 501.7103,-297.671 509.5502,-304.7975 512.2832,-298.3531"/>
<text text-anchor="middle" x="600.0099" y="-320" font-family="Times,serif" font-size="14.00" fill="#000000">Severe</text>
</g>
<!-- Nifedipine -->
<g id="node8" class="node">
<title>Nifedipine</title>
<polygon fill="#add8e6" stroke="#000000" points="561.0881,-219.0019 344.8447,-219.0019 344.8447,-177.7981 561.0881,-177.7981 561.0881,-219.0019"/>
<text text-anchor="middle" x="452.9664" y="-202.6" font-family="Times,serif" font-size="14.00" fill="#000000">Nifedipine</text>
<text text-anchor="middle" x="452.9664" y="-185.8" font-family="Times,serif" font-size="14.00" fill="#000000">30 mg every 12h or 20 mg every 8h</text>
</g>
<!-- Mild_HAPE&#45;&gt;Nifedipine -->
<g id="edge8" class="edge">
<title>Mild_HAPE-&gt;Nifedipine</title>
<path fill="none" stroke="#000000" d="M612.2149,-256.3488C583.6796,-245.9651 548.9305,-233.3203 519.1821,-222.4952"/>
<polygon fill="#000000" stroke="#000000" points="520.3075,-219.1802 509.7134,-219.0496 517.9138,-225.7582 520.3075,-219.1802"/>
</g>
<!-- Supplemental_Oxygen -->
<g id="node10" class="node">
<title>Supplemental_Oxygen</title>
<polygon fill="#add8e6" stroke="#000000" points="720.2765,-219.0019 579.6563,-219.0019 579.6563,-177.7981 720.2765,-177.7981 720.2765,-219.0019"/>
<text text-anchor="middle" x="649.9664" y="-202.6" font-family="Times,serif" font-size="14.00" fill="#000000">Supplemental Oxygen</text>
<text text-anchor="middle" x="649.9664" y="-185.8" font-family="Times,serif" font-size="14.00" fill="#000000">(SpO2 &gt; 90%)</text>
</g>
<!-- Mild_HAPE&#45;&gt;Supplemental_Oxygen -->
<g id="edge9" class="edge">
<title>Mild_HAPE-&gt;Supplemental_Oxygen</title>
<path fill="none" stroke="#000000" d="M663.9744,-256.3488C661.9613,-248.0209 659.5966,-238.2387 657.3893,-229.1072"/>
<polygon fill="#000000" stroke="#000000" points="660.7428,-228.0838 654.9911,-219.1862 653.9387,-229.7286 660.7428,-228.0838"/>
</g>
<!-- Monitor_Improvement -->
<g id="node12" class="node">
<title>Monitor_Improvement</title>
<ellipse fill="none" stroke="#000000" cx="835.9664" cy="-198.4" rx="97.2546" ry="18"/>
<text text-anchor="middle" x="835.9664" y="-194.2" font-family="Times,serif" font-size="14.00" fill="#000000">Monitor Improvement</text>
</g>
<!-- Mild_HAPE&#45;&gt;Monitor_Improvement -->
<g id="edge10" class="edge">
<title>Mild_HAPE-&gt;Monitor_Improvement</title>
<path fill="none" stroke="#000000" d="M712.8437,-256.3488C736.9023,-245.0254 766.674,-231.0131 790.9148,-219.6039"/>
<polygon fill="#000000" stroke="#000000" points="792.6921,-222.6358 800.2496,-215.2104 789.7111,-216.3022 792.6921,-222.6358"/>
</g>
<!-- Severe_HAPE&#45;&gt;Nifedipine -->
<g id="edge14" class="edge">
<title>Severe_HAPE-&gt;Nifedipine</title>
<path fill="none" stroke="#000000" d="M452.9664,-256.3488C452.9664,-248.1105 452.9664,-238.4489 452.9664,-229.402"/>
<polygon fill="#000000" stroke="#000000" points="456.4665,-229.1862 452.9664,-219.1862 449.4665,-229.1862 456.4665,-229.1862"/>
</g>
<!-- Descent -->
<g id="node9" class="node">
<title>Descent</title>
<polygon fill="#add8e6" stroke="#000000" points="326.4196,-216.4 201.5132,-216.4 201.5132,-180.4 326.4196,-180.4 326.4196,-216.4"/>
<text text-anchor="middle" x="263.9664" y="-194.2" font-family="Times,serif" font-size="14.00" fill="#000000">Immediate Descent</text>
</g>
<!-- Severe_HAPE&#45;&gt;Descent -->
<g id="edge11" class="edge">
<title>Severe_HAPE-&gt;Descent</title>
<path fill="none" stroke="#000000" d="M403.3089,-256.3488C376.6978,-245.2819 343.9107,-231.6467 316.8272,-220.3834"/>
<polygon fill="#000000" stroke="#000000" points="318.0821,-217.1147 307.5048,-216.5064 315.3942,-223.5781 318.0821,-217.1147"/>
</g>
<!-- Severe_HAPE&#45;&gt;Supplemental_Oxygen -->
<g id="edge12" class="edge">
<title>Severe_HAPE-&gt;Supplemental_Oxygen</title>
<path fill="none" stroke="#000000" d="M504.7258,-256.3488C530.5258,-246.055 561.8952,-233.5391 588.8695,-222.7767"/>
<polygon fill="#000000" stroke="#000000" points="590.22,-226.0063 598.211,-219.0496 587.6259,-219.5047 590.22,-226.0063"/>
</g>
<!-- Hyperbaric_Chamber -->
<g id="node11" class="node">
<title>Hyperbaric_Chamber</title>
<polygon fill="#add8e6" stroke="#000000" points="183.8992,-216.4 .0336,-216.4 .0336,-180.4 183.8992,-180.4 183.8992,-216.4"/>
<text text-anchor="middle" x="91.9664" y="-194.2" font-family="Times,serif" font-size="14.00" fill="#000000">Portable Hyperbaric Chamber</text>
</g>
<!-- Severe_HAPE&#45;&gt;Hyperbaric_Chamber -->
<g id="edge13" class="edge">
<title>Severe_HAPE-&gt;Hyperbaric_Chamber</title>
<path fill="none" stroke="#000000" d="M358.1179,-256.3488C304.5275,-244.6806 237.8238,-230.1573 184.6008,-218.5692"/>
<polygon fill="#000000" stroke="#000000" points="185.3417,-215.1485 174.826,-216.4409 183.8525,-221.9883 185.3417,-215.1485"/>
</g>
<!-- Severe_HAPE&#45;&gt;Monitor_Improvement -->
<g id="edge15" class="edge">
<title>Severe_HAPE-&gt;Monitor_Improvement</title>
<path fill="none" stroke="#000000" d="M552.0965,-256.6563C617.1532,-243.3053 700.9124,-226.1161 760.5496,-213.8772"/>
<polygon fill="#000000" stroke="#000000" points="761.5572,-217.2434 770.6494,-211.8045 760.1499,-210.3863 761.5572,-217.2434"/>
</g>
<!-- Recovery -->
<g id="node13" class="node">
<title>Recovery</title>
<ellipse fill="#00ff00" stroke="#000000" cx="724.9664" cy="-18" rx="48.0742" ry="18"/>
<text text-anchor="middle" x="724.9664" y="-13.8" font-family="Times,serif" font-size="14.00" fill="#000000">Recovery</text>
</g>
<!-- Monitor_Improvement&#45;&gt;Recovery -->
<g id="edge16" class="edge">
<title>Monitor_Improvement-&gt;Recovery</title>
<path fill="none" stroke="#000000" d="M789.6774,-182.5527C763.5572,-170.9532 733.1658,-152.3659 717.864,-124.8 704.4118,-100.5662 709.0463,-68.3161 715.258,-45.6176"/>
<polygon fill="#000000" stroke="#000000" points="718.645,-46.5078 718.1637,-35.9239 711.9397,-44.4978 718.645,-46.5078"/>
<text text-anchor="middle" x="747.5176" y="-102.6" font-family="Times,serif" font-size="14.00" fill="#000000">Improving</text>
</g>
<!-- Further_Assessment -->
<g id="node14" class="node">
<title>Further_Assessment</title>
<polygon fill="none" stroke="#000000" points="960.9664,-124.8 786.2122,-106.8 960.9664,-88.8 1135.7206,-106.8 960.9664,-124.8"/>
<text text-anchor="middle" x="960.9664" y="-102.6" font-family="Times,serif" font-size="14.00" fill="#000000">Further Assessment Needed?</text>
</g>
<!-- Monitor_Improvement&#45;&gt;Further_Assessment -->
<g id="edge17" class="edge">
<title>Monitor_Improvement-&gt;Further_Assessment</title>
<path fill="none" stroke="#000000" d="M841.0307,-180.1857C845.2316,-168.1184 852.3317,-152.7381 863.3668,-142.8 872.7384,-134.36 884.2595,-127.8458 896.0602,-122.8348"/>
<polygon fill="#000000" stroke="#000000" points="897.5061,-126.0277 905.5483,-119.1303 894.9601,-119.5071 897.5061,-126.0277"/>
<text text-anchor="middle" x="905.7662" y="-147" font-family="Times,serif" font-size="14.00" fill="#000000">Not Improving</text>
</g>
<!-- Further_Assessment&#45;&gt;HAPE_Diagnosis -->
<g id="edge18" class="edge">
<title>Further_Assessment-&gt;HAPE_Diagnosis</title>
<path fill="none" stroke="#000000" d="M960.9664,-125.0484C960.9664,-143.5354 960.9664,-172.9556 960.9664,-198.4 960.9664,-368.6 960.9664,-368.6 960.9664,-368.6 960.9664,-391.7368 946.3457,-407.8209 926.3578,-418.9991"/>
<polygon fill="#000000" stroke="#000000" points="924.5081,-416.0123 917.1616,-423.6463 927.6653,-422.2599 924.5081,-416.0123"/>
<text text-anchor="middle" x="971.8493" y="-272.8" font-family="Times,serif" font-size="14.00" fill="#000000">Yes</text>
</g>
<!-- Further_Assessment&#45;&gt;Recovery -->
<g id="edge19" class="edge">
<title>Further_Assessment-&gt;Recovery</title>
<path fill="none" stroke="#000000" d="M923.3105,-92.6312C881.1193,-76.7558 812.8304,-51.0607 768.4128,-34.3476"/>
<polygon fill="#000000" stroke="#000000" points="769.6326,-31.0671 759.0406,-30.8211 767.1674,-37.6187 769.6326,-31.0671"/>
<text text-anchor="middle" x="873.5197" y="-58.2" font-family="Times,serif" font-size="14.00" fill="#000000">No</text>
</g>
</g>
</svg>