<?xml version="1.0" encoding="UTF-8" standalone="no"?>
<!DOCTYPE svg PUBLIC "-//W3C//DTD SVG 1.1//EN"
 "http://www.w3.org/Graphics/SVG/1.1/DTD/svg11.dtd">
<!-- Generated by graphviz version 2.38.0 (20140413.2041)
 -->
<!-- Title: G Pages: 1 -->
<svg width="1187pt" height="378pt"
 viewBox="0.00 0.00 1186.59 378.00" xmlns="http://www.w3.org/2000/svg" xmlns:xlink="http://www.w3.org/1999/xlink">
<g id="graph0" class="graph" transform="scale(1 1) rotate(0) translate(4 374)">
<title>G</title>
<polygon fill="white" stroke="none" points="-4,4 -4,-374 1182.59,-374 1182.59,4 -4,4"/>
<!-- start -->
<g id="node1" class="node"><title>start</title>
<text text-anchor="middle" x="959.828" y="-348.3" font-family="Times,serif" font-size="14.00" fill="blue">Start</text>
</g>
<!-- postmenopausal_women_and_men -->
<g id="node2" class="node"><title>postmenopausal_women_and_men</title>
<polygon fill="none" stroke="blue" points="959.828,-297 741.309,-279 959.828,-261 1178.35,-279 959.828,-297"/>
<text text-anchor="middle" x="959.828" y="-275.3" font-family="Times,serif" font-size="14.00" fill="blue">Postmenopausal women and older men?</text>
</g>
<!-- start&#45;&gt;postmenopausal_women_and_men -->
<g id="edge1" class="edge"><title>start&#45;&gt;postmenopausal_women_and_men</title>
<path fill="none" stroke="black" d="M959.828,-333.813C959.828,-325.789 959.828,-316.047 959.828,-307.069"/>
<polygon fill="black" stroke="black" points="963.328,-307.029 959.828,-297.029 956.328,-307.029 963.328,-307.029"/>
</g>
<!-- women_65_and_older -->
<g id="node3" class="node"><title>women_65_and_older</title>
<polygon fill="none" stroke="blue" points="671.828,-210 514.476,-192 671.828,-174 829.18,-192 671.828,-210"/>
<text text-anchor="middle" x="671.828" y="-188.3" font-family="Times,serif" font-size="14.00" fill="blue">Women 65 years and older?</text>
</g>
<!-- postmenopausal_women_and_men&#45;&gt;women_65_and_older -->
<g id="edge2" class="edge"><title>postmenopausal_women_and_men&#45;&gt;women_65_and_older</title>
<path fill="none" stroke="black" d="M914.511,-264.625C862.615,-249.309 777.772,-224.268 723.392,-208.218"/>
<polygon fill="black" stroke="black" points="724.189,-204.805 713.607,-205.331 722.207,-211.518 724.189,-204.805"/>
<text text-anchor="middle" x="843.828" y="-231.8" font-family="Times,serif" font-size="14.00">Yes</text>
</g>
<!-- men_screening -->
<g id="node5" class="node"><title>men_screening</title>
<polygon fill="none" stroke="blue" points="959.828,-210 846.715,-192 959.828,-174 1072.94,-192 959.828,-210"/>
<text text-anchor="middle" x="959.828" y="-188.3" font-family="Times,serif" font-size="14.00" fill="blue">Men for screening?</text>
</g>
<!-- postmenopausal_women_and_men&#45;&gt;men_screening -->
<g id="edge8" class="edge"><title>postmenopausal_women_and_men&#45;&gt;men_screening</title>
<path fill="none" stroke="black" d="M959.828,-260.799C959.828,-249.163 959.828,-233.548 959.828,-220.237"/>
<polygon fill="black" stroke="black" points="963.328,-220.175 959.828,-210.175 956.328,-220.175 963.328,-220.175"/>
<text text-anchor="middle" x="970.828" y="-231.8" font-family="Times,serif" font-size="14.00">Yes</text>
</g>
<!-- no_action -->
<g id="node9" class="node"><title>no_action</title>
<polygon fill="none" stroke="red" points="1118.33,-36 993.328,-36 993.328,-0 1118.33,-0 1118.33,-36"/>
<text text-anchor="middle" x="1055.83" y="-14.3" font-family="Times,serif" font-size="14.00">No screening action</text>
</g>
<!-- postmenopausal_women_and_men&#45;&gt;no_action -->
<g id="edge3" class="edge"><title>postmenopausal_women_and_men&#45;&gt;no_action</title>
<path fill="none" stroke="black" d="M1007.18,-264.785C1034.17,-254.553 1065.74,-237.389 1081.83,-210 1112.46,-157.863 1086.9,-84.1735 1069.21,-45.3285"/>
<polygon fill="black" stroke="black" points="1072.35,-43.7884 1064.92,-36.2377 1066.02,-46.7751 1072.35,-43.7884"/>
<text text-anchor="middle" x="1104.33" y="-144.8" font-family="Times,serif" font-size="14.00">No</text>
</g>
<!-- postmenopausal_women_under_65 -->
<g id="node4" class="node"><title>postmenopausal_women_under_65</title>
<polygon fill="none" stroke="blue" points="274.828,-123 0.171872,-105 274.828,-87 549.484,-105 274.828,-123"/>
<text text-anchor="middle" x="274.828" y="-101.3" font-family="Times,serif" font-size="14.00" fill="blue">Postmenopausal women under 65 at increased risk?</text>
</g>
<!-- women_65_and_older&#45;&gt;postmenopausal_women_under_65 -->
<g id="edge5" class="edge"><title>women_65_and_older&#45;&gt;postmenopausal_women_under_65</title>
<path fill="none" stroke="black" d="M619.927,-179.888C549.785,-164.87 424.464,-138.038 345.697,-121.173"/>
<polygon fill="black" stroke="black" points="346.365,-117.737 335.854,-119.066 344.899,-124.582 346.365,-117.737"/>
<text text-anchor="middle" x="506.328" y="-144.8" font-family="Times,serif" font-size="14.00">No</text>
</g>
<!-- screening_women_65_plus -->
<g id="node6" class="node"><title>screening_women_65_plus</title>
<polygon fill="none" stroke="green" points="795.828,-123 567.828,-123 567.828,-87 795.828,-87 795.828,-123"/>
<text text-anchor="middle" x="681.828" y="-101.3" font-family="Times,serif" font-size="14.00">Screen with bone measurement testing</text>
</g>
<!-- women_65_and_older&#45;&gt;screening_women_65_plus -->
<g id="edge4" class="edge"><title>women_65_and_older&#45;&gt;screening_women_65_plus</title>
<path fill="none" stroke="black" d="M673.804,-174.207C675.178,-162.525 677.041,-146.692 678.625,-133.222"/>
<polygon fill="black" stroke="black" points="682.13,-133.39 679.822,-123.049 675.178,-132.572 682.13,-133.39"/>
<text text-anchor="middle" x="688.828" y="-144.8" font-family="Times,serif" font-size="14.00">Yes</text>
</g>
<!-- screening_postmenopausal_women_risk -->
<g id="node7" class="node"><title>screening_postmenopausal_women_risk</title>
<polygon fill="none" stroke="green" points="461.828,-36 87.828,-36 87.828,-0 461.828,-0 461.828,-36"/>
<text text-anchor="middle" x="274.828" y="-14.3" font-family="Times,serif" font-size="14.00">Screen with bone measurement testing using risk assessment tool</text>
</g>
<!-- postmenopausal_women_under_65&#45;&gt;screening_postmenopausal_women_risk -->
<g id="edge6" class="edge"><title>postmenopausal_women_under_65&#45;&gt;screening_postmenopausal_women_risk</title>
<path fill="none" stroke="black" d="M274.828,-86.799C274.828,-75.1626 274.828,-59.5479 274.828,-46.2368"/>
<polygon fill="black" stroke="black" points="278.328,-46.1754 274.828,-36.1754 271.328,-46.1755 278.328,-46.1754"/>
<text text-anchor="middle" x="285.828" y="-57.8" font-family="Times,serif" font-size="14.00">Yes</text>
</g>
<!-- postmenopausal_women_under_65&#45;&gt;no_action -->
<g id="edge7" class="edge"><title>postmenopausal_women_under_65&#45;&gt;no_action</title>
<path fill="none" stroke="black" d="M372.557,-93.3637C531.381,-76.0781 841.931,-42.2794 982.996,-26.9266"/>
<polygon fill="black" stroke="black" points="983.701,-30.3707 993.263,-25.8092 982.943,-23.4118 983.701,-30.3707"/>
<text text-anchor="middle" x="721.328" y="-57.8" font-family="Times,serif" font-size="14.00">No</text>
</g>
<!-- no_screening_men -->
<g id="node8" class="node"><title>no_screening_men</title>
<polygon fill="none" stroke="red" points="1019.83,-123 813.828,-123 813.828,-87 1019.83,-87 1019.83,-123"/>
<text text-anchor="middle" x="916.828" y="-101.3" font-family="Times,serif" font-size="14.00">Insufficient evidence for screening</text>
</g>
<!-- men_screening&#45;&gt;no_screening_men -->
<g id="edge9" class="edge"><title>men_screening&#45;&gt;no_screening_men</title>
<path fill="none" stroke="black" d="M951.74,-175.012C945.652,-162.977 937.175,-146.22 930.099,-132.232"/>
<polygon fill="black" stroke="black" points="933.107,-130.426 925.47,-123.083 926.861,-133.586 933.107,-130.426"/>
<text text-anchor="middle" x="951.828" y="-144.8" font-family="Times,serif" font-size="14.00">Yes</text>
</g>
<!-- men_screening&#45;&gt;no_action -->
<g id="edge10" class="edge"><title>men_screening&#45;&gt;no_action</title>
<path fill="none" stroke="black" d="M979.036,-176.918C994.697,-164.442 1016.22,-144.851 1028.83,-123 1042.61,-99.1176 1049.48,-68.1425 1052.82,-46.2272"/>
<polygon fill="black" stroke="black" points="1056.3,-46.6517 1054.19,-36.2673 1049.36,-45.6955 1056.3,-46.6517"/>
<text text-anchor="middle" x="1051.33" y="-101.3" font-family="Times,serif" font-size="14.00">No</text>
</g>
</g>
</svg>
