<?xml version="1.0" encoding="UTF-8" standalone="no"?>
<!DOCTYPE svg PUBLIC "-//W3C//DTD SVG 1.1//EN"
 "http://www.w3.org/Graphics/SVG/1.1/DTD/svg11.dtd">
<!-- Generated by graphviz version 2.38.0 (20140413.2041)
 -->
<!-- Title: G Pages: 1 -->
<svg width="1393pt" height="1131pt"
 viewBox="0.00 0.00 1393.29 1131.00" xmlns="http://www.w3.org/2000/svg" xmlns:xlink="http://www.w3.org/1999/xlink">
<g id="graph0" class="graph" transform="scale(1 1) rotate(0) translate(4 1127)">
<title>G</title>
<polygon fill="white" stroke="none" points="-4,4 -4,-1127 1389.29,-1127 1389.29,4 -4,4"/>
<!-- start -->
<g id="node1" class="node"><title>start</title>
<polygon fill="none" stroke="blue" points="1361.68,-1123 1149.68,-1123 1149.68,-1087 1361.68,-1087 1361.68,-1123"/>
<text text-anchor="middle" x="1255.68" y="-1101.3" font-family="Times,serif" font-size="14.00" fill="blue">Adult with Multiple Sclerosis (MS)</text>
</g>
<!-- new_diagnosis -->
<g id="node2" class="node"><title>new_diagnosis</title>
<polygon fill="none" stroke="blue" points="1255.68,-1050 1125.98,-1032 1255.68,-1014 1385.39,-1032 1255.68,-1050"/>
<text text-anchor="middle" x="1255.68" y="-1028.3" font-family="Times,serif" font-size="14.00" fill="blue">Newly diagnosed MS?</text>
</g>
<!-- start&#45;&gt;new_diagnosis -->
<g id="edge1" class="edge"><title>start&#45;&gt;new_diagnosis</title>
<path fill="none" stroke="black" d="M1255.68,-1086.81C1255.68,-1078.79 1255.68,-1069.05 1255.68,-1060.07"/>
<polygon fill="black" stroke="black" points="1259.18,-1060.03 1255.68,-1050.03 1252.18,-1060.03 1259.18,-1060.03"/>
</g>
<!-- patient_preferences -->
<g id="node3" class="node"><title>patient_preferences</title>
<polygon fill="none" stroke="blue" points="1114.68,-963 942.081,-945 1114.68,-927 1287.29,-945 1114.68,-963"/>
<text text-anchor="middle" x="1114.68" y="-941.3" font-family="Times,serif" font-size="14.00" fill="blue">Patient preferences considered?</text>
</g>
<!-- new_diagnosis&#45;&gt;patient_preferences -->
<g id="edge2" class="edge"><title>new_diagnosis&#45;&gt;patient_preferences</title>
<path fill="none" stroke="black" d="M1232.72,-1017.15C1209.68,-1003.27 1173.97,-981.741 1147.86,-966"/>
<polygon fill="black" stroke="black" points="1149.43,-962.861 1139.06,-960.696 1145.82,-968.856 1149.43,-962.861"/>
<text text-anchor="middle" x="1204.68" y="-984.8" font-family="Times,serif" font-size="14.00">Yes</text>
</g>
<!-- counselDMT -->
<g id="node16" class="node"><title>counselDMT</title>
<polygon fill="none" stroke="blue" points="1188.68,-36 1032.68,-36 1032.68,-0 1188.68,-0 1188.68,-36"/>
<text text-anchor="middle" x="1110.68" y="-14.3" font-family="Times,serif" font-size="14.00" fill="blue">Counsel on DMT options</text>
</g>
<!-- new_diagnosis&#45;&gt;counselDMT -->
<g id="edge24" class="edge"><title>new_diagnosis&#45;&gt;counselDMT</title>
<path fill="none" stroke="black" d="M1274.34,-1016.59C1291.95,-1001.2 1315.68,-975.082 1315.68,-946 1315.68,-946 1315.68,-946 1315.68,-104 1315.68,-50.026 1254.3,-29.6701 1198.71,-22.3018"/>
<polygon fill="black" stroke="black" points="1199.12,-18.826 1188.77,-21.1106 1198.28,-25.7762 1199.12,-18.826"/>
<text text-anchor="middle" x="1324.18" y="-556.3" font-family="Times,serif" font-size="14.00">No</text>
</g>
<!-- understanding_DMT -->
<g id="node4" class="node"><title>understanding_DMT</title>
<polygon fill="none" stroke="blue" points="1084.68,-890 927.332,-872 1084.68,-854 1242.04,-872 1084.68,-890"/>
<text text-anchor="middle" x="1084.68" y="-868.3" font-family="Times,serif" font-size="14.00" fill="blue">Counseled on DMT effects?</text>
</g>
<!-- patient_preferences&#45;&gt;understanding_DMT -->
<g id="edge3" class="edge"><title>patient_preferences&#45;&gt;understanding_DMT</title>
<path fill="none" stroke="black" d="M1107.73,-927.533C1104.13,-919.02 1099.66,-908.433 1095.61,-898.859"/>
<polygon fill="black" stroke="black" points="1098.72,-897.227 1091.6,-889.378 1092.27,-899.952 1098.72,-897.227"/>
</g>
<!-- patient_preferences&#45;&gt;counselDMT -->
<g id="edge15" class="edge"><title>patient_preferences&#45;&gt;counselDMT</title>
<path fill="none" stroke="black" d="M1198.08,-935.579C1234.77,-926.781 1269.68,-908.962 1269.68,-873 1269.68,-873 1269.68,-873 1269.68,-104 1269.68,-66.7902 1235.4,-45.8093 1198.67,-34.0088"/>
<polygon fill="black" stroke="black" points="1199.37,-30.5655 1188.79,-31.0601 1197.37,-37.2733 1199.37,-30.5655"/>
<text text-anchor="middle" x="1278.18" y="-492.8" font-family="Times,serif" font-size="14.00">No</text>
</g>
<!-- readiness -->
<g id="node5" class="node"><title>readiness</title>
<polygon fill="none" stroke="blue" points="999.684,-817 802.784,-799 999.684,-781 1196.58,-799 999.684,-817"/>
<text text-anchor="middle" x="999.684" y="-795.3" font-family="Times,serif" font-size="14.00" fill="blue">Evaluate readiness to initiate DMT?</text>
</g>
<!-- understanding_DMT&#45;&gt;readiness -->
<g id="edge4" class="edge"><title>understanding_DMT&#45;&gt;readiness</title>
<path fill="none" stroke="black" d="M1066.66,-855.943C1054.87,-846.1 1039.28,-833.076 1026.11,-822.071"/>
<polygon fill="black" stroke="black" points="1028.19,-819.251 1018.27,-815.526 1023.7,-824.623 1028.19,-819.251"/>
</g>
<!-- understanding_DMT&#45;&gt;counselDMT -->
<g id="edge16" class="edge"><title>understanding_DMT&#45;&gt;counselDMT</title>
<path fill="none" stroke="black" d="M1153.86,-861.872C1189.13,-852.91 1224.68,-835.156 1224.68,-800 1224.68,-800 1224.68,-800 1224.68,-104 1224.68,-74.3893 1199.66,-53.8666 1173.06,-40.4159"/>
<polygon fill="black" stroke="black" points="1174.55,-37.2478 1164.01,-36.1226 1171.55,-43.5719 1174.55,-37.2478"/>
<text text-anchor="middle" x="1233.18" y="-449.3" font-family="Times,serif" font-size="14.00">No</text>
</g>
<!-- comorbid_conditions -->
<g id="node6" class="node"><title>comorbid_conditions</title>
<polygon fill="none" stroke="blue" points="954.684,-744 759.123,-726 954.684,-708 1150.25,-726 954.684,-744"/>
<text text-anchor="middle" x="954.684" y="-722.3" font-family="Times,serif" font-size="14.00" fill="blue">Counseled on comorbid conditions?</text>
</g>
<!-- readiness&#45;&gt;comorbid_conditions -->
<g id="edge5" class="edge"><title>readiness&#45;&gt;comorbid_conditions</title>
<path fill="none" stroke="black" d="M989.473,-781.889C983.914,-773.118 976.911,-762.069 970.648,-752.188"/>
<polygon fill="black" stroke="black" points="973.477,-750.113 965.167,-743.54 967.564,-753.86 973.477,-750.113"/>
</g>
<!-- readiness&#45;&gt;counselDMT -->
<g id="edge17" class="edge"><title>readiness&#45;&gt;counselDMT</title>
<path fill="none" stroke="black" d="M1108.2,-790.884C1145.79,-781.972 1178.68,-763.691 1178.68,-727 1178.68,-727 1178.68,-727 1178.68,-104 1178.68,-79.4177 1161.13,-57.8712 1143.86,-42.6222"/>
<polygon fill="black" stroke="black" points="1145.93,-39.7902 1136,-36.0707 1141.44,-45.1649 1145.93,-39.7902"/>
<text text-anchor="middle" x="1187.18" y="-405.8" font-family="Times,serif" font-size="14.00">No</text>
</g>
<!-- adherence_barriers -->
<g id="node7" class="node"><title>adherence_barriers</title>
<polygon fill="none" stroke="blue" points="927.684,-671 749.551,-653 927.684,-635 1105.82,-653 927.684,-671"/>
<text text-anchor="middle" x="927.684" y="-649.3" font-family="Times,serif" font-size="14.00" fill="blue">Evaluated barriers to adherence?</text>
</g>
<!-- comorbid_conditions&#45;&gt;adherence_barriers -->
<g id="edge6" class="edge"><title>comorbid_conditions&#45;&gt;adherence_barriers</title>
<path fill="none" stroke="black" d="M948.422,-708.533C945.184,-700.02 941.159,-689.433 937.518,-679.859"/>
<polygon fill="black" stroke="black" points="940.738,-678.481 933.912,-670.378 934.195,-680.969 940.738,-678.481"/>
</g>
<!-- comorbid_conditions&#45;&gt;counselDMT -->
<g id="edge18" class="edge"><title>comorbid_conditions&#45;&gt;counselDMT</title>
<path fill="none" stroke="black" d="M1062.94,-717.945C1100.63,-709.055 1133.68,-690.775 1133.68,-654 1133.68,-654 1133.68,-654 1133.68,-104 1133.68,-83.9971 1127.68,-62.2368 1121.8,-45.7409"/>
<polygon fill="black" stroke="black" points="1125.01,-44.3393 1118.22,-36.213 1118.46,-46.805 1125.01,-44.3393"/>
<text text-anchor="middle" x="1142.18" y="-362.3" font-family="Times,serif" font-size="14.00">No</text>
</g>
<!-- first_demyelinating_event -->
<g id="node8" class="node"><title>first_demyelinating_event</title>
<polygon fill="none" stroke="blue" points="871.684,-598 683.684,-560 871.684,-522 1059.68,-560 871.684,-598"/>
<text text-anchor="middle" x="871.684" y="-563.8" font-family="Times,serif" font-size="14.00" fill="blue">First demyelinating event with </text>
<text text-anchor="middle" x="871.684" y="-548.8" font-family="Times,serif" font-size="14.00" fill="blue">&gt;=2 brain lesions?</text>
</g>
<!-- adherence_barriers&#45;&gt;first_demyelinating_event -->
<g id="edge7" class="edge"><title>adherence_barriers&#45;&gt;first_demyelinating_event</title>
<path fill="none" stroke="black" d="M917.672,-635.731C912.007,-626.524 904.637,-614.548 897.463,-602.89"/>
<polygon fill="black" stroke="black" points="900.268,-600.771 892.046,-594.088 894.306,-604.439 900.268,-600.771"/>
</g>
<!-- adherence_barriers&#45;&gt;counselDMT -->
<g id="edge19" class="edge"><title>adherence_barriers&#45;&gt;counselDMT</title>
<path fill="none" stroke="black" d="M992.301,-641.528C1036.71,-630.218 1087.68,-607.177 1087.68,-561 1087.68,-561 1087.68,-561 1087.68,-104 1087.68,-83.9971 1093.69,-62.2368 1099.57,-45.7409"/>
<polygon fill="black" stroke="black" points="1102.91,-46.805 1103.15,-36.213 1096.35,-44.3393 1102.91,-46.805"/>
<text text-anchor="middle" x="1096.18" y="-318.8" font-family="Times,serif" font-size="14.00">No</text>
</g>
<!-- cis_or_relapsing -->
<g id="node9" class="node"><title>cis_or_relapsing</title>
<polygon fill="none" stroke="blue" points="344.684,-471 -0.18407,-453 344.684,-435 689.552,-453 344.684,-471"/>
<text text-anchor="middle" x="344.684" y="-449.3" font-family="Times,serif" font-size="14.00" fill="blue">CIS or relapsing MS without recent relapse or new MRI activity?</text>
</g>
<!-- first_demyelinating_event&#45;&gt;cis_or_relapsing -->
<g id="edge8" class="edge"><title>first_demyelinating_event&#45;&gt;cis_or_relapsing</title>
<path fill="none" stroke="black" d="M779.285,-540.59C678.071,-520.424 517.52,-488.436 422.493,-469.503"/>
<polygon fill="black" stroke="black" points="423.147,-466.064 412.656,-467.543 421.779,-472.929 423.147,-466.064"/>
<text text-anchor="middle" x="601.184" y="-492.8" font-family="Times,serif" font-size="14.00">No</text>
</g>
<!-- mitoxantrone_risks -->
<g id="node14" class="node"><title>mitoxantrone_risks</title>
<polygon fill="none" stroke="blue" points="883.684,-471 707.228,-453 883.684,-435 1060.14,-453 883.684,-471"/>
<text text-anchor="middle" x="883.684" y="-449.3" font-family="Times,serif" font-size="14.00" fill="blue">Consider risks of mitoxantrone?</text>
</g>
<!-- first_demyelinating_event&#45;&gt;mitoxantrone_risks -->
<g id="edge13" class="edge"><title>first_demyelinating_event&#45;&gt;mitoxantrone_risks</title>
<path fill="none" stroke="black" d="M875.847,-522.571C877.397,-509.01 879.128,-493.867 880.568,-481.268"/>
<polygon fill="black" stroke="black" points="884.088,-481.287 881.746,-470.954 877.133,-480.492 884.088,-481.287"/>
<text text-anchor="middle" x="890.684" y="-492.8" font-family="Times,serif" font-size="14.00">Yes</text>
</g>
<!-- recent_relapse_or_mri_activity -->
<g id="node10" class="node"><title>recent_relapse_or_mri_activity</title>
<polygon fill="none" stroke="blue" points="665.684,-384 449.68,-366 665.684,-348 881.688,-366 665.684,-384"/>
<text text-anchor="middle" x="665.684" y="-362.3" font-family="Times,serif" font-size="14.00" fill="blue">Recent clinical relapse or MRI activity?</text>
</g>
<!-- cis_or_relapsing&#45;&gt;recent_relapse_or_mri_activity -->
<g id="edge9" class="edge"><title>cis_or_relapsing&#45;&gt;recent_relapse_or_mri_activity</title>
<path fill="none" stroke="black" d="M398.412,-437.773C456.029,-422.516 547.243,-398.363 606.782,-382.597"/>
<polygon fill="black" stroke="black" points="608.013,-385.892 616.784,-379.948 606.222,-379.125 608.013,-385.892"/>
<text text-anchor="middle" x="535.684" y="-405.8" font-family="Times,serif" font-size="14.00">Yes</text>
</g>
<!-- cis_or_relapsing&#45;&gt;counselDMT -->
<g id="edge20" class="edge"><title>cis_or_relapsing&#45;&gt;counselDMT</title>
<path fill="none" stroke="black" d="M525.137,-444.384C708.489,-434.155 965.684,-411.819 965.684,-367 965.684,-367 965.684,-367 965.684,-104 965.684,-71.87 992.509,-51.6543 1023.08,-39.0478"/>
<polygon fill="black" stroke="black" points="1024.58,-42.222 1032.67,-35.375 1022.08,-35.6855 1024.58,-42.222"/>
<text text-anchor="middle" x="974.184" y="-231.8" font-family="Times,serif" font-size="14.00">No</text>
</g>
<!-- medication_adherence -->
<g id="node11" class="node"><title>medication_adherence</title>
<polygon fill="none" stroke="blue" points="665.684,-297 444.15,-279 665.684,-261 887.218,-279 665.684,-297"/>
<text text-anchor="middle" x="665.684" y="-275.3" font-family="Times,serif" font-size="14.00" fill="blue">Monitor medication adherence and AEs?</text>
</g>
<!-- recent_relapse_or_mri_activity&#45;&gt;medication_adherence -->
<g id="edge10" class="edge"><title>recent_relapse_or_mri_activity&#45;&gt;medication_adherence</title>
<path fill="none" stroke="black" d="M665.684,-347.799C665.684,-336.163 665.684,-320.548 665.684,-307.237"/>
<polygon fill="black" stroke="black" points="669.184,-307.175 665.684,-297.175 662.184,-307.175 669.184,-307.175"/>
<text text-anchor="middle" x="676.684" y="-318.8" font-family="Times,serif" font-size="14.00">Yes</text>
</g>
<!-- recent_relapse_or_mri_activity&#45;&gt;counselDMT -->
<g id="edge21" class="edge"><title>recent_relapse_or_mri_activity&#45;&gt;counselDMT</title>
<path fill="none" stroke="black" d="M743.231,-354.382C818.253,-341.871 920.684,-317.857 920.684,-280 920.684,-280 920.684,-280 920.684,-104 920.684,-55.4697 972.972,-34.465 1022.69,-25.4617"/>
<polygon fill="black" stroke="black" points="1023.29,-28.9097 1032.58,-23.8165 1022.14,-22.0045 1023.29,-28.9097"/>
<text text-anchor="middle" x="929.184" y="-188.3" font-family="Times,serif" font-size="14.00">No</text>
</g>
<!-- reproductive_plans -->
<g id="node12" class="node"><title>reproductive_plans</title>
<polygon fill="none" stroke="blue" points="608.684,-210 453.509,-192 608.684,-174 763.859,-192 608.684,-210"/>
<text text-anchor="middle" x="608.684" y="-188.3" font-family="Times,serif" font-size="14.00" fill="blue">Discuss reproductive plans?</text>
</g>
<!-- medication_adherence&#45;&gt;reproductive_plans -->
<g id="edge11" class="edge"><title>medication_adherence&#45;&gt;reproductive_plans</title>
<path fill="none" stroke="black" d="M654.694,-261.611C646.282,-249.067 634.547,-231.567 625.034,-217.381"/>
<polygon fill="black" stroke="black" points="627.924,-215.406 619.447,-209.05 622.11,-219.305 627.924,-215.406"/>
</g>
<!-- medication_adherence&#45;&gt;counselDMT -->
<g id="edge22" class="edge"><title>medication_adherence&#45;&gt;counselDMT</title>
<path fill="none" stroke="black" d="M692.853,-263.2C715.25,-250.434 747.339,-230.813 772.684,-210 813.984,-176.085 821.29,-163.902 855.684,-123 880.227,-93.8134 874.216,-74.0006 906.684,-54 926.138,-42.0165 976.604,-33.3019 1022.47,-27.5657"/>
<polygon fill="black" stroke="black" points="1022.97,-31.0304 1032.48,-26.351 1022.13,-24.0814 1022.97,-31.0304"/>
<text text-anchor="middle" x="849.184" y="-144.8" font-family="Times,serif" font-size="14.00">No</text>
</g>
<!-- male_reproductive_plans -->
<g id="node13" class="node"><title>male_reproductive_plans</title>
<polygon fill="none" stroke="blue" points="593.684,-123 341.147,-105 593.684,-87 846.221,-105 593.684,-123"/>
<text text-anchor="middle" x="593.684" y="-101.3" font-family="Times,serif" font-size="14.00" fill="blue">Men: Discuss reproductive plans before DMT?</text>
</g>
<!-- reproductive_plans&#45;&gt;male_reproductive_plans -->
<g id="edge12" class="edge"><title>reproductive_plans&#45;&gt;male_reproductive_plans</title>
<path fill="none" stroke="black" d="M605.72,-174.207C603.659,-162.525 600.865,-146.692 598.488,-133.222"/>
<polygon fill="black" stroke="black" points="601.877,-132.289 596.693,-123.049 594.984,-133.505 601.877,-132.289"/>
</g>
<!-- male_reproductive_plans&#45;&gt;counselDMT -->
<g id="edge23" class="edge"><title>male_reproductive_plans&#45;&gt;counselDMT</title>
<path fill="none" stroke="black" d="M652.327,-91.1147C702.862,-80.2889 777.852,-64.8854 843.684,-54 903.033,-44.1865 970.174,-35.3959 1022.28,-29.0792"/>
<polygon fill="black" stroke="black" points="1022.99,-32.5197 1032.5,-27.8492 1022.15,-25.5699 1022.99,-32.5197"/>
<text text-anchor="middle" x="852.184" y="-57.8" font-family="Times,serif" font-size="14.00">No</text>
</g>
<!-- end -->
<g id="node15" class="node"><title>end</title>
<polygon fill="none" stroke="blue" points="1026.68,-384 993.504,-366 1026.68,-348 1059.86,-366 1026.68,-384"/>
<text text-anchor="middle" x="1026.68" y="-362.3" font-family="Times,serif" font-size="14.00" fill="blue">end</text>
</g>
<!-- mitoxantrone_risks&#45;&gt;end -->
<g id="edge14" class="edge"><title>mitoxantrone_risks&#45;&gt;end</title>
<path fill="none" stroke="black" d="M930.684,-439.729C946.986,-434.243 964.874,-426.766 979.684,-417 991.806,-409.007 1003.04,-397.292 1011.48,-387.211"/>
<polygon fill="black" stroke="black" points="1014.34,-389.234 1017.87,-379.244 1008.89,-384.852 1014.34,-389.234"/>
<text text-anchor="middle" x="1006.18" y="-405.8" font-family="Times,serif" font-size="14.00">No</text>
</g>
</g>
</svg>
