<?xml version="1.0" encoding="UTF-8" standalone="no"?>
<!DOCTYPE svg PUBLIC "-//W3C//DTD SVG 1.1//EN"
 "http://www.w3.org/Graphics/SVG/1.1/DTD/svg11.dtd">
<!-- Generated by graphviz version 2.43.0 (0)
 -->
<!-- Title: %3 Pages: 1 -->
<svg width="447pt" height="914pt"
 viewBox="0.00 0.00 447.27 914.00" xmlns="http://www.w3.org/2000/svg" xmlns:xlink="http://www.w3.org/1999/xlink">
<g id="graph0" class="graph" transform="scale(1 1) rotate(0) translate(4 910)">
<title>%3</title>
<polygon fill="white" stroke="transparent" points="-4,4 -4,-910 443.27,-910 443.27,4 -4,4"/>
<!-- InitialPopulation -->
<g id="node1" class="node">
<title>InitialPopulation</title>
<g id="a_node1"><a xlink:title="Individuals aged 55 years and older, diagnosed with MCI as per DSM&#45;5 criteria, residing in community settings or assisted living facilities">
<path fill="none" stroke="green" d="M388.88,-906C388.88,-906 273.88,-906 273.88,-906 267.88,-906 261.88,-900 261.88,-894 261.88,-894 261.88,-882 261.88,-882 261.88,-876 267.88,-870 273.88,-870 273.88,-870 388.88,-870 388.88,-870 394.88,-870 400.88,-876 400.88,-882 400.88,-882 400.88,-894 400.88,-894 400.88,-900 394.88,-906 388.88,-906"/>
<text text-anchor="middle" x="331.38" y="-884.3" font-family="Times,serif" font-size="14.00" fill="green">Initial Population</text>
</a>
</g>
</g>
<!-- Age55Plus -->
<g id="node3" class="node">
<title>Age55Plus</title>
<g id="a_node3"><a xlink:title="Individuals aged 55 years and older">
<ellipse fill="none" stroke="blue" cx="331.38" cy="-801" rx="50.89" ry="18"/>
<text text-anchor="middle" x="331.38" y="-797.3" font-family="Times,serif" font-size="14.00" fill="blue">Age 55+</text>
</a>
</g>
</g>
<!-- InitialPopulation&#45;&gt;Age55Plus -->
<g id="edge1" class="edge">
<title>InitialPopulation&#45;&gt;Age55Plus</title>
<path fill="none" stroke="blue" d="M331.38,-869.8C331.38,-858.16 331.38,-842.55 331.38,-829.24"/>
<polygon fill="blue" stroke="blue" points="334.88,-829.18 331.38,-819.18 327.88,-829.18 334.88,-829.18"/>
<text text-anchor="middle" x="336.38" y="-840.8" font-family="Times,serif" font-size="14.00" fill="blue">if</text>
</g>
<!-- SubsetConsideration -->
<g id="node2" class="node">
<title>SubsetConsideration</title>
<g id="a_node2"><a xlink:title="Individuals from the initial population confirmed to have MCI through standardized cognitive assessment tools and interested in cognitive stimulation interventions">
<path fill="none" stroke="green" d="M413.38,-558C413.38,-558 249.38,-558 249.38,-558 243.38,-558 237.38,-552 237.38,-546 237.38,-546 237.38,-534 237.38,-534 237.38,-528 243.38,-522 249.38,-522 249.38,-522 413.38,-522 413.38,-522 419.38,-522 425.38,-528 425.38,-534 425.38,-534 425.38,-546 425.38,-546 425.38,-552 419.38,-558 413.38,-558"/>
<text text-anchor="middle" x="331.38" y="-536.3" font-family="Times,serif" font-size="14.00" fill="green">Subset in Consideration</text>
</a>
</g>
</g>
<!-- ConfirmedMCI -->
<g id="node6" class="node">
<title>ConfirmedMCI</title>
<g id="a_node6"><a xlink:title="Confirmed to have mild cognitive impairment through standardized cognitive assessment tools such as MoCA or MMSE">
<ellipse fill="none" stroke="blue" cx="266.38" cy="-453" rx="81.49" ry="18"/>
<text text-anchor="middle" x="266.38" y="-449.3" font-family="Times,serif" font-size="14.00" fill="blue">Confirmed MCI</text>
</a>
</g>
</g>
<!-- SubsetConsideration&#45;&gt;ConfirmedMCI -->
<g id="edge5" class="edge">
<title>SubsetConsideration&#45;&gt;ConfirmedMCI</title>
<path fill="none" stroke="blue" d="M318.23,-521.8C308.83,-509.51 296.03,-492.77 285.51,-479.01"/>
<polygon fill="blue" stroke="blue" points="288.15,-476.7 279.3,-470.89 282.59,-480.96 288.15,-476.7"/>
<text text-anchor="middle" x="308.38" y="-492.8" font-family="Times,serif" font-size="14.00" fill="blue">if</text>
</g>
<!-- MCI_DSM5 -->
<g id="node4" class="node">
<title>MCI_DSM5</title>
<g id="a_node4"><a xlink:title="Diagnosed with Mild Cognitive Impairment (MCI) as per DSM&#45;5 criteria">
<ellipse fill="none" stroke="blue" cx="331.38" cy="-714" rx="64.99" ry="18"/>
<text text-anchor="middle" x="331.38" y="-710.3" font-family="Times,serif" font-size="14.00" fill="blue">MCI DSM&#45;5</text>
</a>
</g>
</g>
<!-- Age55Plus&#45;&gt;MCI_DSM5 -->
<g id="edge2" class="edge">
<title>Age55Plus&#45;&gt;MCI_DSM5</title>
<path fill="none" stroke="blue" d="M331.38,-782.8C331.38,-771.16 331.38,-755.55 331.38,-742.24"/>
<polygon fill="blue" stroke="blue" points="334.88,-742.18 331.38,-732.18 327.88,-742.18 334.88,-742.18"/>
<text text-anchor="middle" x="344.88" y="-753.8" font-family="Times,serif" font-size="14.00" fill="blue">and</text>
</g>
<!-- CommunityResiding -->
<g id="node5" class="node">
<title>CommunityResiding</title>
<g id="a_node5"><a xlink:title="Residing in community settings or assisted living facilities">
<ellipse fill="none" stroke="blue" cx="331.38" cy="-627" rx="107.78" ry="18"/>
<text text-anchor="middle" x="331.38" y="-623.3" font-family="Times,serif" font-size="14.00" fill="blue">Community Residing</text>
</a>
</g>
</g>
<!-- MCI_DSM5&#45;&gt;CommunityResiding -->
<g id="edge3" class="edge">
<title>MCI_DSM5&#45;&gt;CommunityResiding</title>
<path fill="none" stroke="blue" d="M331.38,-695.8C331.38,-684.16 331.38,-668.55 331.38,-655.24"/>
<polygon fill="blue" stroke="blue" points="334.88,-655.18 331.38,-645.18 327.88,-655.18 334.88,-655.18"/>
<text text-anchor="middle" x="344.88" y="-666.8" font-family="Times,serif" font-size="14.00" fill="blue">and</text>
</g>
<!-- CommunityResiding&#45;&gt;SubsetConsideration -->
<g id="edge4" class="edge">
<title>CommunityResiding&#45;&gt;SubsetConsideration</title>
<path fill="none" stroke="blue" d="M331.38,-608.8C331.38,-597.16 331.38,-581.55 331.38,-568.24"/>
<polygon fill="blue" stroke="blue" points="334.88,-568.18 331.38,-558.18 327.88,-568.18 334.88,-568.18"/>
<text text-anchor="middle" x="347.88" y="-579.8" font-family="Times,serif" font-size="14.00" fill="blue">then</text>
</g>
<!-- InterestInInterventions -->
<g id="node7" class="node">
<title>InterestInInterventions</title>
<g id="a_node7"><a xlink:title="Expressed interest in participating in cognitive stimulation interventions">
<ellipse fill="none" stroke="blue" cx="232.38" cy="-366" rx="124.58" ry="18"/>
<text text-anchor="middle" x="232.38" y="-362.3" font-family="Times,serif" font-size="14.00" fill="blue">Interest in Interventions</text>
</a>
</g>
</g>
<!-- ConfirmedMCI&#45;&gt;InterestInInterventions -->
<g id="edge6" class="edge">
<title>ConfirmedMCI&#45;&gt;InterestInInterventions</title>
<path fill="none" stroke="blue" d="M259.5,-434.8C254.8,-423.05 248.48,-407.24 243.12,-393.84"/>
<polygon fill="blue" stroke="blue" points="246.22,-392.16 239.25,-384.18 239.72,-394.76 246.22,-392.16"/>
<text text-anchor="middle" x="265.88" y="-405.8" font-family="Times,serif" font-size="14.00" fill="blue">and</text>
</g>
<!-- NoDementia -->
<g id="node8" class="node">
<title>NoDementia</title>
<g id="a_node8"><a xlink:title="No diagnosis of dementia or Alzheimer&#39;s disease">
<ellipse fill="none" stroke="blue" cx="228.38" cy="-279" rx="71.49" ry="18"/>
<text text-anchor="middle" x="228.38" y="-275.3" font-family="Times,serif" font-size="14.00" fill="blue">No Dementia</text>
</a>
</g>
</g>
<!-- InterestInInterventions&#45;&gt;NoDementia -->
<g id="edge7" class="edge">
<title>InterestInInterventions&#45;&gt;NoDementia</title>
<path fill="none" stroke="blue" d="M231.57,-347.8C231.03,-336.16 230.29,-320.55 229.67,-307.24"/>
<polygon fill="blue" stroke="blue" points="233.16,-307 229.19,-297.18 226.17,-307.33 233.16,-307"/>
<text text-anchor="middle" x="244.88" y="-318.8" font-family="Times,serif" font-size="14.00" fill="blue">and</text>
</g>
<!-- NoSeverePsychDisorders -->
<g id="node9" class="node">
<title>NoSeverePsychDisorders</title>
<g id="a_node9"><a xlink:title="No severe psychiatric disorders that may interfere with participation in cognitive interventions">
<ellipse fill="none" stroke="blue" cx="211.38" cy="-192" rx="137.28" ry="18"/>
<text text-anchor="middle" x="211.38" y="-188.3" font-family="Times,serif" font-size="14.00" fill="blue">No Severe Psych Disorders</text>
</a>
</g>
</g>
<!-- NoDementia&#45;&gt;NoSeverePsychDisorders -->
<g id="edge8" class="edge">
<title>NoDementia&#45;&gt;NoSeverePsychDisorders</title>
<path fill="none" stroke="blue" d="M224.94,-260.8C222.62,-249.16 219.49,-233.55 216.83,-220.24"/>
<polygon fill="blue" stroke="blue" points="220.21,-219.29 214.82,-210.18 213.35,-220.67 220.21,-219.29"/>
<text text-anchor="middle" x="234.88" y="-231.8" font-family="Times,serif" font-size="14.00" fill="blue">and</text>
</g>
<!-- NoSignificantSensoryImpairments -->
<g id="node10" class="node">
<title>NoSignificantSensoryImpairments</title>
<g id="a_node10"><a xlink:title="No significant sensory impairments that cannot be accommodated">
<ellipse fill="none" stroke="blue" cx="179.38" cy="-105" rx="179.27" ry="18"/>
<text text-anchor="middle" x="179.38" y="-101.3" font-family="Times,serif" font-size="14.00" fill="blue">No Significant Sensory Impairments</text>
</a>
</g>
</g>
<!-- NoSeverePsychDisorders&#45;&gt;NoSignificantSensoryImpairments -->
<g id="edge9" class="edge">
<title>NoSeverePsychDisorders&#45;&gt;NoSignificantSensoryImpairments</title>
<path fill="none" stroke="blue" d="M204.91,-173.8C200.48,-162.05 194.53,-146.24 189.49,-132.84"/>
<polygon fill="blue" stroke="blue" points="192.65,-131.3 185.85,-123.18 186.1,-133.77 192.65,-131.3"/>
<text text-anchor="middle" x="210.88" y="-144.8" font-family="Times,serif" font-size="14.00" fill="blue">and</text>
</g>
<!-- NotInOtherStudies -->
<g id="node11" class="node">
<title>NotInOtherStudies</title>
<g id="a_node11"><a xlink:title="Not currently participating in other cognitive intervention research studies">
<ellipse fill="none" stroke="blue" cx="283.38" cy="-18" rx="107.48" ry="18"/>
<text text-anchor="middle" x="283.38" y="-14.3" font-family="Times,serif" font-size="14.00" fill="blue">Not in Other Studies</text>
</a>
</g>
</g>
<!-- NoSignificantSensoryImpairments&#45;&gt;NotInOtherStudies -->
<g id="edge10" class="edge">
<title>NoSignificantSensoryImpairments&#45;&gt;NotInOtherStudies</title>
<path fill="none" stroke="blue" d="M200.43,-86.8C216.04,-74.04 237.5,-56.5 254.68,-42.46"/>
<polygon fill="blue" stroke="blue" points="257.2,-44.92 262.72,-35.89 252.77,-39.5 257.2,-44.92"/>
<text text-anchor="middle" x="251.88" y="-57.8" font-family="Times,serif" font-size="14.00" fill="blue">and</text>
</g>
<!-- NotInOtherStudies&#45;&gt;SubsetConsideration -->
<g id="edge11" class="edge">
<title>NotInOtherStudies&#45;&gt;SubsetConsideration</title>
<path fill="none" stroke="blue" d="M325.87,-34.68C354.25,-48.21 386.38,-70.85 386.38,-104 386.38,-454 386.38,-454 386.38,-454 386.38,-476.9 372.14,-498.51 358.15,-514.21"/>
<polygon fill="blue" stroke="blue" points="355.25,-512.18 350.93,-521.85 360.34,-516.98 355.25,-512.18"/>
<text text-anchor="middle" x="402.88" y="-275.3" font-family="Times,serif" font-size="14.00" fill="blue">then</text>
</g>
</g>
</svg>
