<?xml version="1.0" encoding="UTF-8" standalone="no"?>
<!DOCTYPE svg PUBLIC "-//W3C//DTD SVG 1.1//EN"
 "http://www.w3.org/Graphics/SVG/1.1/DTD/svg11.dtd">
<!-- Generated by graphviz version 2.43.0 (0)
 -->
<!-- Title: Protocol Pages: 1 -->
<svg width="298pt" height="914pt"
 viewBox="0.00 0.00 297.87 914.00" xmlns="http://www.w3.org/2000/svg" xmlns:xlink="http://www.w3.org/1999/xlink">
<g id="graph0" class="graph" transform="scale(1 1) rotate(0) translate(4 910)">
<title>Protocol</title>
<polygon fill="white" stroke="transparent" points="-4,4 -4,-910 293.87,-910 293.87,4 -4,4"/>
<!-- InitialPop -->
<g id="node1" class="node">
<title>InitialPop</title>
<g id="a_node1"><a xlink:title="All patients currently prescribed GLP&#45;1 receptor agonists, including but not limited to medications such as liraglutide, exenatide, dulaglutide, and semaglutide.">
<path fill="none" stroke="green" d="M202.44,-906C202.44,-906 87.44,-906 87.44,-906 81.44,-906 75.44,-900 75.44,-894 75.44,-894 75.44,-882 75.44,-882 75.44,-876 81.44,-870 87.44,-870 87.44,-870 202.44,-870 202.44,-870 208.44,-870 214.44,-876 214.44,-882 214.44,-882 214.44,-894 214.44,-894 214.44,-900 208.44,-906 202.44,-906"/>
<text text-anchor="middle" x="144.94" y="-884.3" font-family="Times,serif" font-size="14.00" fill="green">Initial Population</text>
</a>
</g>
</g>
<!-- MinDuration -->
<g id="node6" class="node">
<title>MinDuration</title>
<g id="a_node6"><a xlink:title="Patients from the initial population who have been on GLP&#45;1 medications for a minimum duration of 4 weeks.">
<ellipse fill="none" stroke="blue" cx="144.94" cy="-801" rx="115.08" ry="18"/>
<text text-anchor="middle" x="144.94" y="-797.3" font-family="Times,serif" font-size="14.00" fill="blue">Min 4 Weeks on GLP&#45;1</text>
</a>
</g>
</g>
<!-- InitialPop&#45;&gt;MinDuration -->
<g id="edge1" class="edge">
<title>InitialPop&#45;&gt;MinDuration</title>
<path fill="none" stroke="blue" d="M144.94,-869.8C144.94,-858.16 144.94,-842.55 144.94,-829.24"/>
<polygon fill="blue" stroke="blue" points="148.44,-829.18 144.94,-819.18 141.44,-829.18 148.44,-829.18"/>
<text text-anchor="middle" x="149.94" y="-840.8" font-family="Times,serif" font-size="14.00" fill="blue">if</text>
</g>
<!-- SubsetScreen -->
<g id="node2" class="node">
<title>SubsetScreen</title>
<g id="a_node2"><a xlink:title="Patients from the initial population who have been on GLP&#45;1 medications for a minimum duration of 4 weeks, as side effects may become more apparent after this period. Patients who have not had a documented side effect screening in the past 3 months.">
<path fill="none" stroke="green" d="M259.44,-645C259.44,-645 30.44,-645 30.44,-645 24.44,-645 18.44,-639 18.44,-633 18.44,-633 18.44,-621 18.44,-621 18.44,-615 24.44,-609 30.44,-609 30.44,-609 259.44,-609 259.44,-609 265.44,-609 271.44,-615 271.44,-621 271.44,-621 271.44,-633 271.44,-633 271.44,-639 265.44,-645 259.44,-645"/>
<text text-anchor="middle" x="144.94" y="-623.3" font-family="Times,serif" font-size="14.00" fill="green">Subset Considered for Screening</text>
</a>
</g>
</g>
<!-- NoAllergy -->
<g id="node8" class="node">
<title>NoAllergy</title>
<g id="a_node8"><a xlink:title="Patients with a documented allergy or hypersensitivity to GLP&#45;1 medications.">
<ellipse fill="none" stroke="blue" cx="144.94" cy="-540" rx="102.88" ry="18"/>
<text text-anchor="middle" x="144.94" y="-536.3" font-family="Times,serif" font-size="14.00" fill="blue">No Allergy to GLP&#45;1</text>
</a>
</g>
</g>
<!-- SubsetScreen&#45;&gt;NoAllergy -->
<g id="edge4" class="edge">
<title>SubsetScreen&#45;&gt;NoAllergy</title>
<path fill="none" stroke="blue" d="M144.94,-608.8C144.94,-597.16 144.94,-581.55 144.94,-568.24"/>
<polygon fill="blue" stroke="blue" points="148.44,-568.18 144.94,-558.18 141.44,-568.18 148.44,-568.18"/>
<text text-anchor="middle" x="149.94" y="-579.8" font-family="Times,serif" font-size="14.00" fill="blue">if</text>
</g>
<!-- Exclusion -->
<g id="node3" class="node">
<title>Exclusion</title>
<g id="a_node3"><a xlink:title="Patients with a documented allergy or hypersensitivity to GLP&#45;1 medications. Patients who have discontinued GLP&#45;1 medications within the last 4 weeks. Patients currently hospitalized for any reason, as their side effect profile may be confounded by other treatments or conditions. Patients under palliative care where the focus is on comfort rather than active management of side effects.">
<path fill="none" stroke="green" d="M205.94,-210C205.94,-210 83.94,-210 83.94,-210 77.94,-210 71.94,-204 71.94,-198 71.94,-198 71.94,-186 71.94,-186 71.94,-180 77.94,-174 83.94,-174 83.94,-174 205.94,-174 205.94,-174 211.94,-174 217.94,-180 217.94,-186 217.94,-186 217.94,-198 217.94,-198 217.94,-204 211.94,-210 205.94,-210"/>
<text text-anchor="middle" x="144.94" y="-188.3" font-family="Times,serif" font-size="14.00" fill="green">Exclusion Criteria</text>
</a>
</g>
</g>
<!-- Diagnostic -->
<g id="node4" class="node">
<title>Diagnostic</title>
<g id="a_node4"><a xlink:title="Conduct a structured interview or questionnaire to assess for common side effects associated with GLP&#45;1 medications, including but not limited to gastrointestinal symptoms (nausea, vomiting, diarrhea), injection site reactions, and signs of pancreatitis (abdominal pain, elevated pancreatic enzymes). Perform laboratory tests if indicated by symptoms, such as serum amylase and lipase levels for suspected pancreatitis. Review patient&#45;reported outcomes and any self&#45;monitoring data related to blood glucose levels and weight changes.">
<path fill="none" stroke="green" d="M229.44,-123C229.44,-123 60.44,-123 60.44,-123 54.44,-123 48.44,-117 48.44,-111 48.44,-111 48.44,-99 48.44,-99 48.44,-93 54.44,-87 60.44,-87 60.44,-87 229.44,-87 229.44,-87 235.44,-87 241.44,-93 241.44,-99 241.44,-99 241.44,-111 241.44,-111 241.44,-117 235.44,-123 229.44,-123"/>
<text text-anchor="middle" x="144.94" y="-101.3" font-family="Times,serif" font-size="14.00" fill="green">Diagnostic Interventions</text>
</a>
</g>
</g>
<!-- Exclusion&#45;&gt;Diagnostic -->
<g id="edge9" class="edge">
<title>Exclusion&#45;&gt;Diagnostic</title>
<path fill="none" stroke="blue" d="M144.94,-173.8C144.94,-162.16 144.94,-146.55 144.94,-133.24"/>
<polygon fill="blue" stroke="blue" points="148.44,-133.18 144.94,-123.18 141.44,-133.18 148.44,-133.18"/>
<text text-anchor="middle" x="149.94" y="-144.8" font-family="Times,serif" font-size="14.00" fill="blue">if</text>
</g>
<!-- SuccessfulScreen -->
<g id="node5" class="node">
<title>SuccessfulScreen</title>
<g id="a_node5"><a xlink:title="Identification and documentation of any new or worsening side effects since the last assessment. Clear communication of findings to the patient, including reassurance if no significant side effects are identified. Recommendation for consultation with a healthcare provider if any moderate to severe side effects are detected, or if the patient expresses concern about their medication. Follow&#45;up plan established for re&#45;evaluation or further diagnostic testing if necessary.">
<path fill="none" stroke="green" d="M262.94,-36C262.94,-36 26.94,-36 26.94,-36 20.94,-36 14.94,-30 14.94,-24 14.94,-24 14.94,-12 14.94,-12 14.94,-6 20.94,0 26.94,0 26.94,0 262.94,0 262.94,0 268.94,0 274.94,-6 274.94,-12 274.94,-12 274.94,-24 274.94,-24 274.94,-30 268.94,-36 262.94,-36"/>
<text text-anchor="middle" x="144.94" y="-14.3" font-family="Times,serif" font-size="14.00" fill="green">Conditions for Successful Screens</text>
</a>
</g>
</g>
<!-- Diagnostic&#45;&gt;SuccessfulScreen -->
<g id="edge10" class="edge">
<title>Diagnostic&#45;&gt;SuccessfulScreen</title>
<path fill="none" stroke="blue" d="M144.94,-86.8C144.94,-75.16 144.94,-59.55 144.94,-46.24"/>
<polygon fill="blue" stroke="blue" points="148.44,-46.18 144.94,-36.18 141.44,-46.18 148.44,-46.18"/>
<text text-anchor="middle" x="161.44" y="-57.8" font-family="Times,serif" font-size="14.00" fill="blue">then</text>
</g>
<!-- NoRecentScreen -->
<g id="node7" class="node">
<title>NoRecentScreen</title>
<g id="a_node7"><a xlink:title="Patients who have not had a documented side effect screening in the past 3 months.">
<ellipse fill="none" stroke="blue" cx="144.94" cy="-714" rx="131.88" ry="18"/>
<text text-anchor="middle" x="144.94" y="-710.3" font-family="Times,serif" font-size="14.00" fill="blue">No Screening in 3 Months</text>
</a>
</g>
</g>
<!-- MinDuration&#45;&gt;NoRecentScreen -->
<g id="edge2" class="edge">
<title>MinDuration&#45;&gt;NoRecentScreen</title>
<path fill="none" stroke="blue" d="M144.94,-782.8C144.94,-771.16 144.94,-755.55 144.94,-742.24"/>
<polygon fill="blue" stroke="blue" points="148.44,-742.18 144.94,-732.18 141.44,-742.18 148.44,-742.18"/>
<text text-anchor="middle" x="158.44" y="-753.8" font-family="Times,serif" font-size="14.00" fill="blue">and</text>
</g>
<!-- NoRecentScreen&#45;&gt;SubsetScreen -->
<g id="edge3" class="edge">
<title>NoRecentScreen&#45;&gt;SubsetScreen</title>
<path fill="none" stroke="blue" d="M144.94,-695.8C144.94,-684.16 144.94,-668.55 144.94,-655.24"/>
<polygon fill="blue" stroke="blue" points="148.44,-655.18 144.94,-645.18 141.44,-655.18 148.44,-655.18"/>
<text text-anchor="middle" x="161.44" y="-666.8" font-family="Times,serif" font-size="14.00" fill="blue">then</text>
</g>
<!-- NotDiscontinued -->
<g id="node9" class="node">
<title>NotDiscontinued</title>
<g id="a_node9"><a xlink:title="Patients who have discontinued GLP&#45;1 medications within the last 4 weeks.">
<ellipse fill="none" stroke="blue" cx="144.94" cy="-453" rx="144.87" ry="18"/>
<text text-anchor="middle" x="144.94" y="-449.3" font-family="Times,serif" font-size="14.00" fill="blue">Not Discontinued in 4 Weeks</text>
</a>
</g>
</g>
<!-- NoAllergy&#45;&gt;NotDiscontinued -->
<g id="edge5" class="edge">
<title>NoAllergy&#45;&gt;NotDiscontinued</title>
<path fill="none" stroke="blue" d="M144.94,-521.8C144.94,-510.16 144.94,-494.55 144.94,-481.24"/>
<polygon fill="blue" stroke="blue" points="148.44,-481.18 144.94,-471.18 141.44,-481.18 148.44,-481.18"/>
<text text-anchor="middle" x="158.44" y="-492.8" font-family="Times,serif" font-size="14.00" fill="blue">and</text>
</g>
<!-- NotHospitalized -->
<g id="node10" class="node">
<title>NotHospitalized</title>
<g id="a_node10"><a xlink:title="Patients currently hospitalized for any reason.">
<ellipse fill="none" stroke="blue" cx="144.94" cy="-366" rx="89.08" ry="18"/>
<text text-anchor="middle" x="144.94" y="-362.3" font-family="Times,serif" font-size="14.00" fill="blue">Not Hospitalized</text>
</a>
</g>
</g>
<!-- NotDiscontinued&#45;&gt;NotHospitalized -->
<g id="edge6" class="edge">
<title>NotDiscontinued&#45;&gt;NotHospitalized</title>
<path fill="none" stroke="blue" d="M144.94,-434.8C144.94,-423.16 144.94,-407.55 144.94,-394.24"/>
<polygon fill="blue" stroke="blue" points="148.44,-394.18 144.94,-384.18 141.44,-394.18 148.44,-394.18"/>
<text text-anchor="middle" x="158.44" y="-405.8" font-family="Times,serif" font-size="14.00" fill="blue">and</text>
</g>
<!-- NotPalliative -->
<g id="node11" class="node">
<title>NotPalliative</title>
<g id="a_node11"><a xlink:title="Patients under palliative care where the focus is on comfort rather than active management of side effects.">
<ellipse fill="none" stroke="blue" cx="144.94" cy="-279" rx="130.78" ry="18"/>
<text text-anchor="middle" x="144.94" y="-275.3" font-family="Times,serif" font-size="14.00" fill="blue">Not Under Palliative Care</text>
</a>
</g>
</g>
<!-- NotHospitalized&#45;&gt;NotPalliative -->
<g id="edge7" class="edge">
<title>NotHospitalized&#45;&gt;NotPalliative</title>
<path fill="none" stroke="blue" d="M144.94,-347.8C144.94,-336.16 144.94,-320.55 144.94,-307.24"/>
<polygon fill="blue" stroke="blue" points="148.44,-307.18 144.94,-297.18 141.44,-307.18 148.44,-307.18"/>
<text text-anchor="middle" x="158.44" y="-318.8" font-family="Times,serif" font-size="14.00" fill="blue">and</text>
</g>
<!-- NotPalliative&#45;&gt;Exclusion -->
<g id="edge8" class="edge">
<title>NotPalliative&#45;&gt;Exclusion</title>
<path fill="none" stroke="blue" d="M144.94,-260.8C144.94,-249.16 144.94,-233.55 144.94,-220.24"/>
<polygon fill="blue" stroke="blue" points="148.44,-220.18 144.94,-210.18 141.44,-220.18 148.44,-220.18"/>
<text text-anchor="middle" x="161.44" y="-231.8" font-family="Times,serif" font-size="14.00" fill="blue">then</text>
</g>
</g>
</svg>
