<?xml version="1.0" encoding="UTF-8" standalone="no"?><!DOCTYPE svg PUBLIC "-//W3C//DTD SVG 1.1//EN" "http://www.w3.org/Graphics/SVG/1.1/DTD/svg11.dtd"><!-- Generated by graphviz version 2.40.1 (20161225.0304)
 --><!-- Title: CentorCriteria Pages: 1 --><svg xmlns="http://www.w3.org/2000/svg" xmlns:xlink="http://www.w3.org/1999/xlink" width="598pt" height="569pt" viewBox="0.00 0.00 598.35 569.40">
<g id="graph0" class="graph" transform="scale(1 1) rotate(0) translate(4 565.4)">
<title>CentorCriteria</title>
<polygon fill="#ffffff" stroke="transparent" points="-4,4 -4,-565.4 594.3521,-565.4 594.3521,4 -4,4"/>
<!-- Start -->
<g id="node1" class="node">
<title>Start</title>
<ellipse fill="none" stroke="#000000" cx="233.1273" cy="-543.4" rx="100.758" ry="18"/>
<text text-anchor="middle" x="233.1273" y="-539.2" font-family="Times,serif" font-size="14.00" fill="#000000">Patient with sore throat</text>
</g>
<!-- Criteria -->
<g id="node2" class="node">
<title>Criteria</title>
<polygon fill="none" stroke="#000000" points="374.9809,-488.5001 91.2737,-488.5001 91.2737,-329.0999 374.9809,-329.0999 374.9809,-488.5001"/>
<text text-anchor="middle" x="233.1273" y="-471.8" font-family="Times,serif" font-size="14.00" fill="#000000">Modified Centor Criteria:</text>
<text text-anchor="middle" x="233.1273" y="-455" font-family="Times,serif" font-size="14.00" fill="#000000">1. Absence of Cough</text>
<text text-anchor="middle" x="233.1273" y="-438.2" font-family="Times,serif" font-size="14.00" fill="#000000">2. Swollen and Tender Anterior Cervical Nodes</text>
<text text-anchor="middle" x="233.1273" y="-421.4" font-family="Times,serif" font-size="14.00" fill="#000000">3. Temperature &gt;38°C (100.4°F)</text>
<text text-anchor="middle" x="233.1273" y="-404.6" font-family="Times,serif" font-size="14.00" fill="#000000">4. Tonsillar Exudates or Swelling</text>
<text text-anchor="middle" x="233.1273" y="-387.8" font-family="Times,serif" font-size="14.00" fill="#000000">5. Age:</text>
<text text-anchor="middle" x="233.1273" y="-371" font-family="Times,serif" font-size="14.00" fill="#000000">   3-14 years (+1)</text>
<text text-anchor="middle" x="233.1273" y="-354.2" font-family="Times,serif" font-size="14.00" fill="#000000">   15-44 years (0)</text>
<text text-anchor="middle" x="233.1273" y="-337.4" font-family="Times,serif" font-size="14.00" fill="#000000">   ≥45 years (-1)</text>
</g>
<!-- Start&#45;&gt;Criteria -->
<g id="edge1" class="edge">
<title>Start-&gt;Criteria</title>
<path fill="none" stroke="#000000" d="M233.1273,-525.2472C233.1273,-517.8203 233.1273,-508.6376 233.1273,-498.7124"/>
<polygon fill="#000000" stroke="#000000" points="236.6274,-498.5772 233.1273,-488.5772 229.6274,-498.5772 236.6274,-498.5772"/>
</g>
<!-- Score0_1 -->
<g id="node3" class="node">
<title>Score0_1</title>
<polygon fill="none" stroke="#000000" points="132.3821,-276.4 -.1275,-276.4 -.1275,-240.4 132.3821,-240.4 132.3821,-276.4"/>
<text text-anchor="middle" x="66.1273" y="-254.2" font-family="Times,serif" font-size="14.00" fill="#000000">Score 0-1: Low Risk</text>
</g>
<!-- Criteria&#45;&gt;Score0_1 -->
<g id="edge2" class="edge">
<title>Criteria-&gt;Score0_1</title>
<path fill="none" stroke="#000000" d="M144.7372,-329.196C126.2535,-312.5495 108.0903,-296.1919 93.8874,-283.4007"/>
<polygon fill="#000000" stroke="#000000" points="96.2004,-280.7736 86.4274,-276.6822 91.5159,-285.9752 96.2004,-280.7736"/>
<text text-anchor="middle" x="148.1438" y="-298.6" font-family="Times,serif" font-size="14.00" fill="#000000">Score 0-1</text>
</g>
<!-- Score2_3 -->
<g id="node5" class="node">
<title>Score2_3</title>
<polygon fill="none" stroke="#000000" points="313.3625,-276.4 152.8921,-276.4 152.8921,-240.4 313.3625,-240.4 313.3625,-276.4"/>
<text text-anchor="middle" x="233.1273" y="-254.2" font-family="Times,serif" font-size="14.00" fill="#000000">Score 2-3: Moderate Risk</text>
</g>
<!-- Criteria&#45;&gt;Score2_3 -->
<g id="edge3" class="edge">
<title>Criteria-&gt;Score2_3</title>
<path fill="none" stroke="#000000" d="M233.1273,-329.196C233.1273,-314.0909 233.1273,-299.2235 233.1273,-287.0429"/>
<polygon fill="#000000" stroke="#000000" points="236.6274,-286.6822 233.1273,-276.6822 229.6274,-286.6823 236.6274,-286.6822"/>
<text text-anchor="middle" x="260.1438" y="-298.6" font-family="Times,serif" font-size="14.00" fill="#000000">Score 2-3</text>
</g>
<!-- Score4_5 -->
<g id="node11" class="node">
<title>Score4_5</title>
<polygon fill="none" stroke="#000000" points="502.2205,-276.4 368.0341,-276.4 368.0341,-240.4 502.2205,-240.4 502.2205,-276.4"/>
<text text-anchor="middle" x="435.1273" y="-254.2" font-family="Times,serif" font-size="14.00" fill="#000000">Score 4-5: High Risk</text>
</g>
<!-- Criteria&#45;&gt;Score4_5 -->
<g id="edge4" class="edge">
<title>Criteria-&gt;Score4_5</title>
<path fill="none" stroke="#000000" d="M340.0423,-329.196C362.8139,-312.2413 385.1832,-295.5861 402.4987,-282.6938"/>
<polygon fill="#000000" stroke="#000000" points="404.642,-285.4616 410.5727,-276.6822 400.4615,-279.847 404.642,-285.4616"/>
<text text-anchor="middle" x="414.1438" y="-298.6" font-family="Times,serif" font-size="14.00" fill="#000000">Score 4-5</text>
</g>
<!-- NoTesting -->
<g id="node4" class="node">
<title>NoTesting</title>
<polygon fill="none" stroke="#000000" points="112.4529,-203.2019 13.8017,-203.2019 13.8017,-161.9981 112.4529,-161.9981 112.4529,-203.2019"/>
<text text-anchor="middle" x="63.1273" y="-186.8" font-family="Times,serif" font-size="14.00" fill="#000000">No Testing</text>
<text text-anchor="middle" x="63.1273" y="-170" font-family="Times,serif" font-size="14.00" fill="#000000">No Antibiotics</text>
</g>
<!-- Score0_1&#45;&gt;NoTesting -->
<g id="edge5" class="edge">
<title>Score0_1-&gt;NoTesting</title>
<path fill="none" stroke="#000000" d="M65.4011,-240.0509C65.087,-232.115 64.7106,-222.6041 64.3552,-213.6258"/>
<polygon fill="#000000" stroke="#000000" points="67.8456,-213.3106 63.9528,-203.4568 60.8511,-213.5875 67.8456,-213.3106"/>
</g>
<!-- Testing -->
<g id="node6" class="node">
<title>Testing</title>
<polygon fill="none" stroke="#000000" points="335.5713,-200.6 130.6833,-200.6 130.6833,-164.6 335.5713,-164.6 335.5713,-200.6"/>
<text text-anchor="middle" x="233.1273" y="-178.4" font-family="Times,serif" font-size="14.00" fill="#000000">Perform RADT or Throat Culture</text>
</g>
<!-- Score2_3&#45;&gt;Testing -->
<g id="edge6" class="edge">
<title>Score2_3-&gt;Testing</title>
<path fill="none" stroke="#000000" d="M233.1273,-240.0509C233.1273,-231.2989 233.1273,-220.6314 233.1273,-210.8752"/>
<polygon fill="#000000" stroke="#000000" points="236.6274,-210.7801 233.1273,-200.7801 229.6274,-210.7801 236.6274,-210.7801"/>
</g>
<!-- NegativeTest -->
<g id="node7" class="node">
<title>NegativeTest</title>
<polygon fill="none" stroke="#000000" points="221.2614,-109 126.9932,-109 126.9932,-73 221.2614,-73 221.2614,-109"/>
<text text-anchor="middle" x="174.1273" y="-86.8" font-family="Times,serif" font-size="14.00" fill="#000000">Negative Test</text>
</g>
<!-- Testing&#45;&gt;NegativeTest -->
<g id="edge7" class="edge">
<title>Testing-&gt;NegativeTest</title>
<path fill="none" stroke="#000000" d="M216.9326,-164.2389C211.7473,-157.9628 206.1697,-150.7652 201.5957,-143.8 196.3209,-135.7675 191.2534,-126.6029 186.9389,-118.1889"/>
<polygon fill="#000000" stroke="#000000" points="190.0075,-116.4994 182.4165,-109.1084 183.7416,-119.62 190.0075,-116.4994"/>
<text text-anchor="middle" x="227.3931" y="-131.2" font-family="Times,serif" font-size="14.00" fill="#000000">Negative</text>
</g>
<!-- PositiveTest -->
<g id="node8" class="node">
<title>PositiveTest</title>
<polygon fill="none" stroke="#000000" points="327.3438,-109 238.9108,-109 238.9108,-73 327.3438,-73 327.3438,-109"/>
<text text-anchor="middle" x="283.1273" y="-86.8" font-family="Times,serif" font-size="14.00" fill="#000000">Positive Test</text>
</g>
<!-- Testing&#45;&gt;PositiveTest -->
<g id="edge8" class="edge">
<title>Testing-&gt;PositiveTest</title>
<path fill="none" stroke="#000000" d="M243.0057,-164.5028C250.2648,-151.2041 260.2484,-132.9141 268.4406,-117.9061"/>
<polygon fill="#000000" stroke="#000000" points="271.5503,-119.5141 273.2694,-109.0596 265.406,-116.1602 271.5503,-119.5141"/>
<text text-anchor="middle" x="285.6841" y="-131.2" font-family="Times,serif" font-size="14.00" fill="#000000">Positive</text>
</g>
<!-- NoAntibiotics -->
<g id="node9" class="node">
<title>NoAntibiotics</title>
<polygon fill="none" stroke="#000000" points="223.4529,-36 124.8017,-36 124.8017,0 223.4529,0 223.4529,-36"/>
<text text-anchor="middle" x="174.1273" y="-13.8" font-family="Times,serif" font-size="14.00" fill="#000000">No Antibiotics</text>
</g>
<!-- NegativeTest&#45;&gt;NoAntibiotics -->
<g id="edge9" class="edge">
<title>NegativeTest-&gt;NoAntibiotics</title>
<path fill="none" stroke="#000000" d="M174.1273,-72.9551C174.1273,-64.8828 174.1273,-55.1764 174.1273,-46.1817"/>
<polygon fill="#000000" stroke="#000000" points="177.6274,-46.0903 174.1273,-36.0904 170.6274,-46.0904 177.6274,-46.0903"/>
</g>
<!-- Antibiotics -->
<g id="node10" class="node">
<title>Antibiotics</title>
<polygon fill="none" stroke="#000000" points="322.3464,-36 243.9082,-36 243.9082,0 322.3464,0 322.3464,-36"/>
<text text-anchor="middle" x="283.1273" y="-13.8" font-family="Times,serif" font-size="14.00" fill="#000000">Antibiotics</text>
</g>
<!-- PositiveTest&#45;&gt;Antibiotics -->
<g id="edge10" class="edge">
<title>PositiveTest-&gt;Antibiotics</title>
<path fill="none" stroke="#000000" d="M283.1273,-72.9551C283.1273,-64.8828 283.1273,-55.1764 283.1273,-46.1817"/>
<polygon fill="#000000" stroke="#000000" points="286.6274,-46.0903 283.1273,-36.0904 279.6274,-46.0904 286.6274,-46.0903"/>
</g>
<!-- EmpiricTreatment -->
<g id="node12" class="node">
<title>EmpiricTreatment</title>
<polygon fill="none" stroke="#000000" points="590.5773,-200.6 353.6773,-200.6 353.6773,-164.6 590.5773,-164.6 590.5773,-200.6"/>
<text text-anchor="middle" x="472.1273" y="-178.4" font-family="Times,serif" font-size="14.00" fill="#000000">Consider Empiric Antibiotic Treatment</text>
</g>
<!-- Score4_5&#45;&gt;EmpiricTreatment -->
<g id="edge11" class="edge">
<title>Score4_5-&gt;EmpiricTreatment</title>
<path fill="none" stroke="#000000" d="M444.084,-240.0509C448.4924,-231.0196 453.8965,-219.9486 458.78,-209.944"/>
<polygon fill="#000000" stroke="#000000" points="462.0118,-211.302 463.2531,-200.7801 455.7212,-208.2313 462.0118,-211.302"/>
</g>
</g>
</svg>
