<?xml version="1.0" encoding="UTF-8" standalone="no"?><!DOCTYPE svg PUBLIC "-//W3C//DTD SVG 1.1//EN" "http://www.w3.org/Graphics/SVG/1.1/DTD/svg11.dtd"><!-- Generated by graphviz version 2.40.1 (20161225.0304)
 --><!-- Title: AMS Pages: 1 --><svg xmlns="http://www.w3.org/2000/svg" xmlns:xlink="http://www.w3.org/1999/xlink" width="1019pt" height="777pt" viewBox="0.00 0.00 1019.34 776.60">
<g id="graph0" class="graph" transform="scale(1 1) rotate(0) translate(4 772.6)">
<title>AMS</title>
<polygon fill="#ffffff" stroke="transparent" points="-4,4 -4,-772.6 1015.3358,-772.6 1015.3358,4 -4,4"/>
<!-- Start -->
<g id="node1" class="node">
<title>Start</title>
<ellipse fill="none" stroke="#000000" cx="772.2262" cy="-750.6" rx="73.5513" ry="18"/>
<text text-anchor="middle" x="772.2262" y="-746.4" font-family="Times,serif" font-size="14.00" fill="#000000">Start Evaluation</text>
</g>
<!-- Assess_Risk -->
<g id="node2" class="node">
<title>Assess_Risk</title>
<polygon fill="none" stroke="#000000" points="850.7292,-695.4019 693.7232,-695.4019 693.7232,-654.1981 850.7292,-654.1981 850.7292,-695.4019"/>
<text text-anchor="middle" x="772.2262" y="-679" font-family="Times,serif" font-size="14.00" fill="#000000">Assess Risk Level</text>
<text text-anchor="middle" x="772.2262" y="-662.2" font-family="Times,serif" font-size="14.00" fill="#000000">(History, Rate of Ascent)</text>
</g>
<!-- Start&#45;&gt;Assess_Risk -->
<g id="edge1" class="edge">
<title>Start-&gt;Assess_Risk</title>
<path fill="none" stroke="#000000" d="M772.2262,-732.2509C772.2262,-724.315 772.2262,-714.8041 772.2262,-705.8258"/>
<polygon fill="#000000" stroke="#000000" points="775.7263,-705.6568 772.2262,-695.6568 768.7263,-705.6569 775.7263,-705.6568"/>
</g>
<!-- Symptoms_AMS -->
<g id="node3" class="node">
<title>Symptoms_AMS</title>
<polygon fill="none" stroke="#000000" points="772.2262,-601.3002 533.0069,-559.6 772.2262,-517.8998 1011.4455,-559.6 772.2262,-601.3002"/>
<text text-anchor="middle" x="772.2262" y="-563.8" font-family="Times,serif" font-size="14.00" fill="#000000">Symptoms of AMS?</text>
<text text-anchor="middle" x="772.2262" y="-547" font-family="Times,serif" font-size="14.00" fill="#000000">(Headache, Nausea, Fatigue, Dizziness)</text>
</g>
<!-- Assess_Risk&#45;&gt;Symptoms_AMS -->
<g id="edge2" class="edge">
<title>Assess_Risk-&gt;Symptoms_AMS</title>
<path fill="none" stroke="#000000" d="M772.2262,-653.9381C772.2262,-642.0321 772.2262,-626.5319 772.2262,-611.547"/>
<polygon fill="#000000" stroke="#000000" points="775.7263,-611.3056 772.2262,-601.3056 768.7263,-611.3057 775.7263,-611.3056"/>
<text text-anchor="middle" x="783.1091" y="-623.4" font-family="Times,serif" font-size="14.00" fill="#000000">Yes</text>
</g>
<!-- AMS_Diagnosis -->
<g id="node4" class="node">
<title>AMS_Diagnosis</title>
<polygon fill="none" stroke="#000000" points="810.7312,-465.0019 565.7212,-465.0019 565.7212,-423.7981 810.7312,-423.7981 810.7312,-465.0019"/>
<text text-anchor="middle" x="688.2262" y="-448.6" font-family="Times,serif" font-size="14.00" fill="#000000">Diagnose AMS</text>
<text text-anchor="middle" x="688.2262" y="-431.8" font-family="Times,serif" font-size="14.00" fill="#000000">(Lake Louise Score, Clinical Symptoms)</text>
</g>
<!-- Symptoms_AMS&#45;&gt;AMS_Diagnosis -->
<g id="edge3" class="edge">
<title>Symptoms_AMS-&gt;AMS_Diagnosis</title>
<path fill="none" stroke="#000000" d="M745.1857,-522.5159C733.6392,-506.6806 720.3575,-488.4657 709.5254,-473.6103"/>
<polygon fill="#000000" stroke="#000000" points="712.1821,-471.3132 703.4623,-465.2952 706.526,-475.4374 712.1821,-471.3132"/>
<text text-anchor="middle" x="739.1091" y="-487.4" font-family="Times,serif" font-size="14.00" fill="#000000">Yes</text>
</g>
<!-- End -->
<g id="node15" class="node">
<title>End</title>
<ellipse fill="none" stroke="#000000" cx="856.2262" cy="-444.4" rx="27" ry="18"/>
<text text-anchor="middle" x="856.2262" y="-440.2" font-family="Times,serif" font-size="14.00" fill="#000000">End</text>
</g>
<!-- Symptoms_AMS&#45;&gt;End -->
<g id="edge4" class="edge">
<title>Symptoms_AMS-&gt;End</title>
<path fill="none" stroke="#000000" d="M799.2667,-522.5159C812.0542,-504.9787 826.9699,-484.5229 838.3295,-468.944"/>
<polygon fill="#000000" stroke="#000000" points="841.1747,-470.9825 844.2385,-460.8403 835.5187,-466.8583 841.1747,-470.9825"/>
<text text-anchor="middle" x="834.7795" y="-487.4" font-family="Times,serif" font-size="14.00" fill="#000000">No</text>
</g>
<!-- AMS_Severity -->
<g id="node5" class="node">
<title>AMS_Severity</title>
<polygon fill="none" stroke="#000000" points="582.2262,-386.6 432.7405,-368.6 582.2262,-350.6 731.7119,-368.6 582.2262,-386.6"/>
<text text-anchor="middle" x="582.2262" y="-364.4" font-family="Times,serif" font-size="14.00" fill="#000000">Assess Severity of AMS</text>
</g>
<!-- AMS_Diagnosis&#45;&gt;AMS_Severity -->
<g id="edge5" class="edge">
<title>AMS_Diagnosis-&gt;AMS_Severity</title>
<path fill="none" stroke="#000000" d="M659.2612,-423.6873C644.7087,-413.2809 627.0889,-400.6811 612.3753,-390.1594"/>
<polygon fill="#000000" stroke="#000000" points="614.2632,-387.2067 604.0931,-384.2369 610.1914,-392.9006 614.2632,-387.2067"/>
</g>
<!-- Mild_AMS -->
<g id="node6" class="node">
<title>Mild_AMS</title>
<polygon fill="none" stroke="#000000" points="672.0252,-297.6019 492.4272,-297.6019 492.4272,-256.3981 672.0252,-256.3981 672.0252,-297.6019"/>
<text text-anchor="middle" x="582.2262" y="-281.2" font-family="Times,serif" font-size="14.00" fill="#000000">Mild AMS</text>
<text text-anchor="middle" x="582.2262" y="-264.4" font-family="Times,serif" font-size="14.00" fill="#000000">(Monitor, Rest, Medications)</text>
</g>
<!-- AMS_Severity&#45;&gt;Mild_AMS -->
<g id="edge6" class="edge">
<title>AMS_Severity-&gt;Mild_AMS</title>
<path fill="none" stroke="#000000" d="M582.2262,-350.5028C582.2262,-338.3708 582.2262,-322.0846 582.2262,-307.926"/>
<polygon fill="#000000" stroke="#000000" points="585.7263,-307.6174 582.2262,-297.6175 578.7263,-307.6175 585.7263,-307.6174"/>
<text text-anchor="middle" x="595.8391" y="-320" font-family="Times,serif" font-size="14.00" fill="#000000">Mild</text>
</g>
<!-- Severe_AMS -->
<g id="node7" class="node">
<title>Severe_AMS</title>
<polygon fill="none" stroke="#000000" points="474.159,-297.6019 276.2934,-297.6019 276.2934,-256.3981 474.159,-256.3981 474.159,-297.6019"/>
<text text-anchor="middle" x="375.2262" y="-281.2" font-family="Times,serif" font-size="14.00" fill="#000000">Severe AMS</text>
<text text-anchor="middle" x="375.2262" y="-264.4" font-family="Times,serif" font-size="14.00" fill="#000000">(Descent, Oxygen, Medications)</text>
</g>
<!-- AMS_Severity&#45;&gt;Severe_AMS -->
<g id="edge7" class="edge">
<title>AMS_Severity-&gt;Severe_AMS</title>
<path fill="none" stroke="#000000" d="M549.8824,-354.2875C518.2253,-340.2788 469.3542,-318.6528 431.35,-301.8355"/>
<polygon fill="#000000" stroke="#000000" points="432.5002,-298.5171 421.9391,-297.671 429.6675,-304.9184 432.5002,-298.5171"/>
<text text-anchor="middle" x="517.2697" y="-320" font-family="Times,serif" font-size="14.00" fill="#000000">Severe</text>
</g>
<!-- Acetazolamide -->
<g id="node8" class="node">
<title>Acetazolamide</title>
<polygon fill="#add8e6" stroke="#000000" points="780.8673,-219.0019 637.5851,-219.0019 637.5851,-177.7981 780.8673,-177.7981 780.8673,-219.0019"/>
<text text-anchor="middle" x="709.2262" y="-202.6" font-family="Times,serif" font-size="14.00" fill="#000000">Acetazolamide</text>
<text text-anchor="middle" x="709.2262" y="-185.8" font-family="Times,serif" font-size="14.00" fill="#000000">125-250 mg every 12h</text>
</g>
<!-- Mild_AMS&#45;&gt;Acetazolamide -->
<g id="edge8" class="edge">
<title>Mild_AMS-&gt;Acetazolamide</title>
<path fill="none" stroke="#000000" d="M615.594,-256.3488C631.3649,-246.5882 650.364,-234.8297 667.1147,-224.4627"/>
<polygon fill="#000000" stroke="#000000" points="668.9791,-227.425 675.6404,-219.1862 665.2952,-221.4727 668.9791,-227.425"/>
</g>
<!-- Dexamethasone -->
<g id="node9" class="node">
<title>Dexamethasone</title>
<polygon fill="#add8e6" stroke="#000000" points="620.1324,-219.0019 514.32,-219.0019 514.32,-177.7981 620.1324,-177.7981 620.1324,-219.0019"/>
<text text-anchor="middle" x="567.2262" y="-202.6" font-family="Times,serif" font-size="14.00" fill="#000000">Dexamethasone</text>
<text text-anchor="middle" x="567.2262" y="-185.8" font-family="Times,serif" font-size="14.00" fill="#000000">4 mg every 6h</text>
</g>
<!-- Mild_AMS&#45;&gt;Dexamethasone -->
<g id="edge9" class="edge">
<title>Mild_AMS-&gt;Dexamethasone</title>
<path fill="none" stroke="#000000" d="M578.2851,-256.3488C576.6958,-248.0209 574.829,-238.2387 573.0864,-229.1072"/>
<polygon fill="#000000" stroke="#000000" points="576.5056,-228.3528 571.193,-219.1862 569.6297,-229.6651 576.5056,-228.3528"/>
</g>
<!-- Monitor_Improvement -->
<g id="node12" class="node">
<title>Monitor_Improvement</title>
<ellipse fill="none" stroke="#000000" cx="399.2262" cy="-198.4" rx="97.2546" ry="18"/>
<text text-anchor="middle" x="399.2262" y="-194.2" font-family="Times,serif" font-size="14.00" fill="#000000">Monitor Improvement</text>
</g>
<!-- Mild_AMS&#45;&gt;Monitor_Improvement -->
<g id="edge10" class="edge">
<title>Mild_AMS-&gt;Monitor_Improvement</title>
<path fill="none" stroke="#000000" d="M534.1451,-256.3488C507.2421,-244.7937 473.8198,-230.4386 446.9713,-218.9069"/>
<polygon fill="#000000" stroke="#000000" points="448.3399,-215.6856 437.7703,-214.955 445.5774,-222.1175 448.3399,-215.6856"/>
</g>
<!-- Severe_AMS&#45;&gt;Dexamethasone -->
<g id="edge13" class="edge">
<title>Severe_AMS-&gt;Dexamethasone</title>
<path fill="none" stroke="#000000" d="M425.6719,-256.3488C450.7073,-246.0999 481.1234,-233.6483 507.3353,-222.9178"/>
<polygon fill="#000000" stroke="#000000" points="508.8559,-226.0774 516.7844,-219.0496 506.2038,-219.5992 508.8559,-226.0774"/>
</g>
<!-- Descent -->
<g id="node10" class="node">
<title>Descent</title>
<polygon fill="#add8e6" stroke="#000000" points="124.6794,-216.4 -.227,-216.4 -.227,-180.4 124.6794,-180.4 124.6794,-216.4"/>
<text text-anchor="middle" x="62.2262" y="-194.2" font-family="Times,serif" font-size="14.00" fill="#000000">Immediate Descent</text>
</g>
<!-- Severe_AMS&#45;&gt;Descent -->
<g id="edge11" class="edge">
<title>Severe_AMS-&gt;Descent</title>
<path fill="none" stroke="#000000" d="M284.8554,-256.3613C239.5187,-245.7448 183.8334,-232.3068 134.2262,-219.2 134.0139,-219.1439 133.8013,-219.0877 133.5884,-219.0313"/>
<polygon fill="#000000" stroke="#000000" points="134.4056,-215.6266 123.839,-216.4005 132.5818,-222.3849 134.4056,-215.6266"/>
</g>
<!-- Supplemental_Oxygen -->
<g id="node11" class="node">
<title>Supplemental_Oxygen</title>
<polygon fill="#add8e6" stroke="#000000" points="283.5363,-219.0019 142.9161,-219.0019 142.9161,-177.7981 283.5363,-177.7981 283.5363,-219.0019"/>
<text text-anchor="middle" x="213.2262" y="-202.6" font-family="Times,serif" font-size="14.00" fill="#000000">Supplemental Oxygen</text>
<text text-anchor="middle" x="213.2262" y="-185.8" font-family="Times,serif" font-size="14.00" fill="#000000">(SpO2 &gt; 90%)</text>
</g>
<!-- Severe_AMS&#45;&gt;Supplemental_Oxygen -->
<g id="edge12" class="edge">
<title>Severe_AMS-&gt;Supplemental_Oxygen</title>
<path fill="none" stroke="#000000" d="M332.6626,-256.3488C311.9096,-246.2797 286.7745,-234.0846 264.9264,-223.4842"/>
<polygon fill="#000000" stroke="#000000" points="266.3113,-220.2659 255.7865,-219.0496 263.2556,-226.5638 266.3113,-220.2659"/>
</g>
<!-- Severe_AMS&#45;&gt;Monitor_Improvement -->
<g id="edge14" class="edge">
<title>Severe_AMS-&gt;Monitor_Improvement</title>
<path fill="none" stroke="#000000" d="M381.5319,-256.3488C384.3356,-247.1667 387.6792,-236.2165 390.701,-226.32"/>
<polygon fill="#000000" stroke="#000000" points="394.1245,-227.0927 393.6975,-216.5064 387.4297,-225.0484 394.1245,-227.0927"/>
</g>
<!-- Recovery -->
<g id="node13" class="node">
<title>Recovery</title>
<ellipse fill="#00ff00" stroke="#000000" cx="415.2262" cy="-18" rx="48.0742" ry="18"/>
<text text-anchor="middle" x="415.2262" y="-13.8" font-family="Times,serif" font-size="14.00" fill="#000000">Recovery</text>
</g>
<!-- Monitor_Improvement&#45;&gt;Recovery -->
<g id="edge15" class="edge">
<title>Monitor_Improvement-&gt;Recovery</title>
<path fill="none" stroke="#000000" d="M400.6004,-180.1619C402.2645,-158.4032 405.2082,-120.9307 408.1238,-88.8 409.3972,-74.7671 410.9458,-59.1838 412.2716,-46.2176"/>
<polygon fill="#000000" stroke="#000000" points="415.7775,-46.3393 413.3219,-36.0329 408.8145,-45.6211 415.7775,-46.3393"/>
<text text-anchor="middle" x="437.7774" y="-102.6" font-family="Times,serif" font-size="14.00" fill="#000000">Improving</text>
</g>
<!-- Further_Assessment -->
<g id="node14" class="node">
<title>Further_Assessment</title>
<polygon fill="none" stroke="#000000" points="651.2262,-124.8 476.472,-106.8 651.2262,-88.8 825.9804,-106.8 651.2262,-124.8"/>
<text text-anchor="middle" x="651.2262" y="-102.6" font-family="Times,serif" font-size="14.00" fill="#000000">Further Assessment Needed?</text>
</g>
<!-- Monitor_Improvement&#45;&gt;Further_Assessment -->
<g id="edge16" class="edge">
<title>Monitor_Improvement-&gt;Further_Assessment</title>
<path fill="none" stroke="#000000" d="M443.4096,-182.3397C488.0842,-166.1008 556.9348,-141.0742 603.0029,-124.3288"/>
<polygon fill="#000000" stroke="#000000" points="604.268,-127.5931 612.4707,-120.8873 601.8766,-121.0142 604.268,-127.5931"/>
<text text-anchor="middle" x="590.026" y="-147" font-family="Times,serif" font-size="14.00" fill="#000000">Not Improving</text>
</g>
<!-- Further_Assessment&#45;&gt;AMS_Diagnosis -->
<g id="edge17" class="edge">
<title>Further_Assessment-&gt;AMS_Diagnosis</title>
<path fill="none" stroke="#000000" d="M716.8598,-118.2066C760.2701,-129.9537 809.2262,-153.2175 809.2262,-198.4 809.2262,-368.6 809.2262,-368.6 809.2262,-368.6 809.2262,-391.3807 793.6328,-407.574 773.6417,-418.9735"/>
<polygon fill="#000000" stroke="#000000" points="771.7679,-416.0031 764.514,-423.7252 775.0003,-422.2121 771.7679,-416.0031"/>
<text text-anchor="middle" x="820.1091" y="-272.8" font-family="Times,serif" font-size="14.00" fill="#000000">Yes</text>
</g>
<!-- Further_Assessment&#45;&gt;Recovery -->
<g id="edge18" class="edge">
<title>Further_Assessment-&gt;Recovery</title>
<path fill="none" stroke="#000000" d="M613.5703,-92.6312C571.3791,-76.7558 503.0902,-51.0607 458.6726,-34.3476"/>
<polygon fill="#000000" stroke="#000000" points="459.8924,-31.0671 449.3004,-30.8211 457.4272,-37.6187 459.8924,-31.0671"/>
<text text-anchor="middle" x="563.7795" y="-58.2" font-family="Times,serif" font-size="14.00" fill="#000000">No</text>
</g>
</g>
</svg>
